G04 DipTrace 3.0.0.1*
G04 ProjectXNew.gtl*
%MOMM*%
G04 #@! TF.FileFunction,Copper,L1,Top*
G04 #@! TF.Part,Single*
G04 #@! TA.AperFunction,Conductor*
%ADD10C,0.25*%
%ADD14C,0.33*%
G04 #@! TA.AperFunction,CopperBalancing*
%ADD15C,0.2*%
G04 #@! TA.AperFunction,Conductor*
%ADD16C,0.5*%
%ADD17C,0.3*%
G04 #@! TA.AperFunction,CopperBalancing*
%ADD18C,0.1*%
%ADD19R,0.9X0.7*%
%ADD20R,0.7X0.9*%
G04 #@! TA.AperFunction,ComponentPad*
%ADD21R,1.6X1.6*%
%ADD22C,1.6*%
%ADD23R,1.3X1.0*%
%ADD24R,1.15X2.7*%
%ADD26R,1.6X0.7*%
%ADD27R,1.4X1.2*%
%ADD28R,2.2X1.2*%
%ADD29R,1.2X1.6*%
%ADD30R,1.0X1.05*%
%ADD31R,1.05X2.2*%
%ADD33R,0.4X1.35*%
%ADD34R,1.6X1.4*%
%ADD35R,1.45X1.3*%
%ADD36R,1.9X1.9*%
%ADD37R,0.72X0.59*%
%ADD38R,0.59X0.72*%
%ADD39R,1.5X1.3*%
%ADD40R,1.3X1.5*%
%ADD44R,0.5X0.35*%
%ADD46O,0.3X0.85*%
%ADD47O,0.85X0.3*%
%ADD48R,2.45X2.45*%
G04 #@! TA.AperFunction,ComponentPad*
%ADD50C,2.0*%
%ADD51R,2.0X2.0*%
%ADD54C,1.5*%
%ADD56R,0.95X2.15*%
%ADD57R,3.25X2.15*%
%ADD58R,1.0X1.5*%
%ADD59R,0.2X1.5*%
G04 #@! TA.AperFunction,ComponentPad*
%ADD60C,1.2192*%
G04 #@! TA.AperFunction,ViaPad*
%ADD61C,1.016*%
%FSLAX35Y35*%
G04*
G71*
G90*
G75*
G01*
G04 Top*
%LPD*%
X-158767Y520520D2*
D14*
X-3410D1*
X0Y523930D1*
X-666820Y-1540037D2*
X-158767D1*
Y-1167147D1*
X-166917Y-1158997D1*
Y-746200D1*
Y-578997D1*
X-3710920Y727437D2*
D10*
X-3632867D1*
X-3572250Y666820D1*
X-4090920Y777437D2*
X-4159167D1*
X-4159687Y777957D1*
X-4270823D1*
X-4413713D1*
X-4000920Y967437D2*
X-4096180D1*
X-4158647D1*
X-4273877Y1082667D1*
X-4457667D1*
X-4508973Y1031360D1*
Y809710D1*
X-4477220Y777957D1*
X-4413713D1*
X-4096180Y1079613D2*
Y967437D1*
X-158767Y520520D2*
D14*
X-282370D1*
X-412793Y650943D1*
Y889093D1*
X332437Y-238147D2*
Y-492173D1*
Y-746200D1*
X-166917D1*
X1158997Y-1286010D2*
D10*
Y-1508283D1*
X1048280Y-1619000D1*
X698573D1*
Y-1540037D1*
Y-1381270D1*
X762080Y-1317763D1*
Y-1204383D1*
Y-1095490D1*
X746203Y-1079613D1*
X681463D1*
X698573Y-968477D2*
Y-1062503D1*
X681463Y-1079613D1*
Y-1209613D2*
X756850D1*
X762080Y-1204383D1*
X443667Y-968667D2*
X698383D1*
X698573Y-968477D1*
Y-1619000D2*
D15*
Y-1644000D1*
X-127667D1*
X-158767Y-1612900D1*
Y-1540037D1*
X841463Y-1143613D2*
D10*
X1146600D1*
X1158997Y-1156010D1*
X841463Y-1079613D2*
Y-981367D1*
X828573Y-968477D1*
X-3964557Y1951563D2*
D14*
X-4259557D1*
X-3604003Y1651173D2*
X-3588127Y1635297D1*
X-3413483D1*
D16*
X-3286470D1*
Y2143350D1*
X-3191210D1*
Y1635297D1*
X-3095950D1*
Y2143350D1*
X-3000690D1*
Y1635297D1*
X-2905430D1*
Y2143350D1*
X-2810170D1*
Y1635297D1*
X-2714910D1*
X-3413483D2*
Y1951563D1*
Y2175103D1*
X-3964557Y1951563D2*
D14*
X-3413483D1*
X587437Y-238150D2*
Y-492177D1*
Y-746203D1*
X-3710920Y777437D2*
D17*
X-3769920D1*
D14*
X-3900920D1*
X-3950920Y967437D2*
Y895920D1*
X-3900920Y845920D1*
Y777437D1*
X-4090920Y827437D2*
D17*
X-3992437D1*
X-3942437Y777437D1*
D14*
X-3900920D1*
X-4090920Y677437D2*
D17*
X-3993897D1*
X-3893897Y777437D1*
D14*
X-3900920D1*
X-3540497Y1320750D2*
X-3651633D1*
X-3397607Y949613D2*
Y733313D1*
X-4400823Y539807D2*
X-4413713Y552697D1*
Y647957D1*
X-4270823D2*
X-4413713D1*
X-4433423Y667667D1*
X-4545333D1*
X-4567667Y690000D1*
Y1183000D1*
X-4388260Y1362407D1*
X-4342573D1*
X-4239070D1*
X-3651633Y1320750D2*
X-3604003Y1368380D1*
Y1651173D1*
X-4259557Y1951563D2*
X-4342573Y1868547D1*
Y1362407D1*
X-4400823Y539807D2*
X-4377000Y515983D1*
Y-1041000D1*
X-4346333Y-1071667D1*
X-3896000D1*
X-3662057Y-837723D1*
Y-715393D1*
Y-1365393D2*
X-3541000Y-1486450D1*
Y-1559500D1*
X-2984813D1*
X-2383313D1*
Y-1559833D1*
X-1866500D1*
X-2399033Y-1365393D2*
X-2383313Y-1381113D1*
Y-1559833D1*
X-2397377Y-968477D2*
X-2399033Y-970133D1*
Y-1365393D1*
X-2984813Y-1364450D2*
Y-1559500D1*
X-1844000Y-1314833D2*
X-1866500Y-1337333D1*
Y-1559833D1*
X-1644000D1*
X-1404000D1*
X-1181500D1*
X-1204000Y-1537333D1*
Y-1314833D1*
X-1175203Y-1286037D1*
X-666820D1*
X-539780Y-1158997D1*
X-396917D1*
X562000Y-1104667D2*
X600947Y-1143613D1*
X681463D1*
X828573Y-968477D2*
D15*
X841477D1*
X619203Y-746203D1*
D14*
X587437D1*
X-309000Y737000D2*
X-305480Y740520D1*
X-158767D1*
X-139953Y759333D1*
X841667D1*
X-4400000Y994667D2*
X-4413713Y980953D1*
Y889093D1*
X-4289000Y1234667D2*
X-4239070Y1284597D1*
Y1362407D1*
X-3950920Y967437D2*
D15*
X-3952667Y969183D1*
Y1122333D1*
X-4007000Y1176667D1*
X-4201667D1*
X-4259667Y1234667D1*
X-4289000D1*
X395667Y1383333D2*
D14*
X637853Y1625520D1*
X839233D1*
X-98767Y75520D2*
X-121953Y52333D1*
X-230333D1*
X-233333Y55333D1*
X-539807Y333410D2*
Y190520D1*
X-301657Y-47630D1*
X31753D1*
X254027Y174643D1*
Y190520D1*
X-3800920Y587437D2*
D10*
Y546203D1*
X-3746893Y492177D1*
D14*
X-587437D1*
X-539807Y444547D1*
Y333410D1*
X-3850920Y587437D2*
D10*
Y516820D1*
X-3762770Y428670D1*
D14*
X-1079613D1*
X-984353Y333410D1*
X-4000920Y587437D2*
D10*
Y492177D1*
X-4032673Y460423D1*
X-4112057D1*
X-3950920Y587437D2*
Y383410D1*
X-3985043Y349287D1*
X-3900920Y587437D2*
Y423930D1*
X-3826277Y349287D1*
X-2460883Y635067D2*
D14*
X-968477D1*
X841463Y-1274613D2*
D10*
Y-1368380D1*
X828573Y-1381270D1*
Y-1416010D1*
X857340Y-1444777D1*
X936723D1*
X952600Y-1428900D1*
X-4112057Y-715393D2*
D14*
Y-238150D1*
X-3556373Y317533D1*
X-2635527D1*
X841437Y-238173D2*
Y-172437D1*
X638000Y31000D1*
X335000D1*
X130333Y-173667D1*
X-2638667D1*
X-2810000Y-2333D1*
Y50000D1*
X841437Y-746227D2*
Y-492200D1*
Y-238173D1*
X571000Y126000D2*
X308000D1*
X70863Y-111137D1*
X-444547D1*
X-682697Y127013D1*
X-1968707D1*
X-1984583Y142890D1*
X841463Y-1209613D2*
D10*
X954593D1*
X1034970D1*
X1063737Y-1238380D1*
Y-1492407D1*
X1016107Y-1540037D1*
X828573D1*
X954593Y-1209613D2*
Y-1299893D1*
X952600Y-1301887D1*
X1095437Y-238173D2*
D14*
X1085000Y-227737D1*
Y1252000D1*
X978000Y1359000D1*
X721000D1*
X582000Y1220000D1*
X-1576000D1*
X-1868000Y928000D1*
X-1942000D1*
X1095437Y-238173D2*
Y-492200D1*
Y-746227D1*
X-412793Y1079093D2*
X-667340D1*
X-809710Y936723D1*
X-952600D1*
X-1654000Y-1292333D2*
Y-984353D1*
X-1651173D1*
X681463Y-1274613D2*
D10*
X526947D1*
X443667Y-1191333D1*
Y-1098667D1*
X254027Y-1270133D2*
D14*
Y-1174873D1*
X206397Y-1127243D1*
X94837D1*
X63083Y-1158997D1*
X-2206857Y-650943D2*
Y-809710D1*
X-2699033Y-1365393D2*
Y-650943D1*
X-4090920Y727437D2*
D10*
X-4130823D1*
X-4175563Y682697D1*
Y571560D1*
X-4207317Y539807D1*
X-4270823D1*
X-4090920Y877437D2*
X-4272057D1*
X-4283713Y889093D1*
X-3900920Y967437D2*
Y1270133D1*
Y1354257D1*
X-3889783Y1365393D1*
X-4000920Y1270133D2*
X-3900920D1*
X-3850920Y967437D2*
Y1213737D1*
X-3842153Y1222503D1*
X-3776503D1*
X-3773000Y1219000D1*
Y1344610D1*
X-3793783Y1365393D1*
X-4112057Y1495393D2*
D14*
Y1656400D1*
Y1698803D1*
Y1794063D1*
X-4239070Y1492407D2*
D10*
X-4236083Y1495393D1*
X-4112057D1*
Y1656400D2*
D14*
X-4106830Y1651173D1*
X-3889780D1*
X-4000920Y1366133D2*
D10*
Y1365393D1*
X-4112057D1*
X-3800920Y967437D2*
X-3759000D1*
Y1137000D1*
X-3773000Y1123000D1*
D14*
X-3736000Y1086000D1*
X-3695333D1*
X-3651633Y1129700D1*
Y1190750D1*
X-3540497D1*
X-3397607Y603313D2*
D10*
D3*
D14*
X-3080073D1*
Y660520D1*
X-3397607Y603313D2*
D10*
X-3445237D1*
X-3476990Y635067D1*
Y793833D1*
X-3508743Y825587D1*
X-3709070D1*
X-3710920Y827437D1*
X-3397607Y1079613D2*
D14*
X-3080073D1*
Y1143120D1*
X-3397607Y1079613D2*
D10*
X-3476990D1*
X-3667510Y889093D1*
X-3699263D1*
X-3710920Y877437D1*
X771000Y529333D2*
D14*
Y488000D1*
X583520Y300520D1*
X-158767D1*
Y630520D2*
X-36300D1*
X0Y666820D1*
X-158767Y850520D2*
X-22697D1*
X0Y873217D1*
X-158767Y410520D2*
X-13603D1*
X0Y396917D1*
X-3434813Y-714450D2*
Y-227727D1*
X-3016567Y190520D1*
X-2111597D1*
X-2016337Y285780D1*
X-1587667D1*
X-1394000Y-1292333D2*
Y-981207D1*
X-1349517Y-936723D1*
X-2397377Y-828477D2*
Y-651463D1*
X-2396857Y-650943D1*
D61*
X0Y873217D3*
Y666820D3*
Y523930D3*
Y396917D3*
X771000Y529333D3*
X-2699033Y-650943D3*
X-2206857Y-809710D3*
X-1651173Y-984353D3*
X-1349517Y-936723D3*
X-3572250Y666820D3*
X-539807Y333410D3*
X254027Y190520D3*
X-984353Y333410D3*
X-4096180Y1079613D3*
X-952600Y936723D3*
X952600Y-1301887D3*
Y-1428900D3*
X571000Y126000D3*
X-1984583Y142890D3*
X-3826277Y349287D3*
X-2460883Y635067D3*
X-968477D3*
X-4112057Y460423D3*
X-3985043Y349287D3*
X-2635527Y317533D3*
X-1587667Y285780D3*
X-2810000Y50000D3*
X-1942000Y928000D3*
X562000Y-1104667D3*
X-309000Y737000D3*
X841667Y759333D3*
X-4400000Y994667D3*
X-4289000Y1234667D3*
X395667Y1383333D3*
X-4590990Y2196333D2*
D18*
X-3495393D1*
X-627593D2*
X1277000D1*
X-4590990Y2186667D2*
X-3495393D1*
X-627593D2*
X1277000D1*
X-4590990Y2177000D2*
X-3495393D1*
X-627593D2*
X1277000D1*
X-4590990Y2167333D2*
X-3495393D1*
X-627593D2*
X1277000D1*
X-4590990Y2157667D2*
X-3495393D1*
X-627593D2*
X1277000D1*
X-4590990Y2148000D2*
X-3495393D1*
X-627593D2*
X1277000D1*
X-4590990Y2138333D2*
X-3495393D1*
X-627593D2*
X1277000D1*
X-4590990Y2128667D2*
X-3495393D1*
X-627593D2*
X1277000D1*
X-4590990Y2119000D2*
X-3495393D1*
X-627593D2*
X1277000D1*
X-4590990Y2109333D2*
X-3495393D1*
X-627593D2*
X1277000D1*
X-4590990Y2099667D2*
X-4351447D1*
X-4167650D2*
X-4056447D1*
X-3872650D2*
X-3495393D1*
X-627593D2*
X1277000D1*
X-4590990Y2090000D2*
X-4351447D1*
X-4167650D2*
X-4056447D1*
X-3872650D2*
X-3495393D1*
X-627593D2*
X1277000D1*
X-4590990Y2080333D2*
X-4351447D1*
X-3872650D2*
X-3495393D1*
X-627593D2*
X1277000D1*
X-4590990Y2070667D2*
X-4351447D1*
X-3872650D2*
X-3495393D1*
X-627593D2*
X1277000D1*
X-4590990Y2061000D2*
X-4351447D1*
X-3872650D2*
X-3495393D1*
X-627593D2*
X1277000D1*
X-4590990Y2051333D2*
X-4351447D1*
X-3872650D2*
X-3495393D1*
X-627593D2*
X1277000D1*
X-4590990Y2041667D2*
X-4351447D1*
X-3872650D2*
X-3495393D1*
X-627593D2*
X1277000D1*
X-4590990Y2032000D2*
X-4351447D1*
X-3872650D2*
X-3495393D1*
X-627593D2*
X1277000D1*
X-4590990Y2022333D2*
X-4351447D1*
X-3872650D2*
X-3495393D1*
X-627593D2*
X1277000D1*
X-4590990Y2012667D2*
X-4351447D1*
X-3872650D2*
X-3495393D1*
X-627593D2*
X1277000D1*
X-4590990Y2003000D2*
X-4351447D1*
X-3872650D2*
X-3495393D1*
X-627593D2*
X1277000D1*
X-4590990Y1993333D2*
X-4351447D1*
X-3872650D2*
X-3495393D1*
X-627593D2*
X1277000D1*
X-4590990Y1983667D2*
X-4351447D1*
X-3872650D2*
X-3495393D1*
X-627593D2*
X1277000D1*
X-4590990Y1974000D2*
X-4351447D1*
X-3872650D2*
X-3495393D1*
X-627593D2*
X1277000D1*
X-4590990Y1964333D2*
X-4351447D1*
X-3872650D2*
X-3495393D1*
X-627593D2*
X1277000D1*
X-4590990Y1954667D2*
X-4351447D1*
X-3872650D2*
X-3495393D1*
X-627593D2*
X1277000D1*
X-4590990Y1945000D2*
X-4351447D1*
X-3872650D2*
X-3495393D1*
X-627593D2*
X1277000D1*
X-4590990Y1935333D2*
X-4351447D1*
X-3872650D2*
X-3495393D1*
X-627593D2*
X1277000D1*
X-4590990Y1925667D2*
X-4351447D1*
X-3872650D2*
X-3495393D1*
X-627593D2*
X1277000D1*
X-4590990Y1916000D2*
X-4351447D1*
X-3872650D2*
X-3495393D1*
X-627593D2*
X1277000D1*
X-4590990Y1906333D2*
X-4351447D1*
X-3872650D2*
X-3495393D1*
X-627593D2*
X1277000D1*
X-4590990Y1896667D2*
X-4351447D1*
X-3872650D2*
X-3495393D1*
X-627593D2*
X1277000D1*
X-4590990Y1887000D2*
X-4351447D1*
X-3872650D2*
X-3495393D1*
X-627593D2*
X1277000D1*
X-4590990Y1877333D2*
X-4351447D1*
X-3872650D2*
X-3495393D1*
X-627593D2*
X1277000D1*
X-4590990Y1867667D2*
X-4351447D1*
X-3872650D2*
X-3495393D1*
X-627593D2*
X1277000D1*
X-4590990Y1858000D2*
X-4351447D1*
X-3872650D2*
X-3495393D1*
X-627593D2*
X1277000D1*
X-4590990Y1848333D2*
X-4351447D1*
X-3872650D2*
X-3495393D1*
X-627593D2*
X1277000D1*
X-4590990Y1838667D2*
X-4351447D1*
X-3872650D2*
X-3495393D1*
X-627593D2*
X1277000D1*
X-4590990Y1829000D2*
X-4351447D1*
X-3872650D2*
X-3495393D1*
X-627593D2*
X1277000D1*
X-4590990Y1819333D2*
X-4351447D1*
X-3872650D2*
X-3495393D1*
X-627593D2*
X1277000D1*
X-4590990Y1809667D2*
X-4351447D1*
X-3872650D2*
X-3495393D1*
X-627593D2*
X1277000D1*
X-4590990Y1800000D2*
X-4201447D1*
X-4022650D2*
X-3495393D1*
X-627593D2*
X1277000D1*
X-4590990Y1790333D2*
X-4201447D1*
X-4022650D2*
X-3495393D1*
X-627593D2*
X1277000D1*
X-4590990Y1780667D2*
X-4201447D1*
X-4022650D2*
X-3495393D1*
X-627593D2*
X1277000D1*
X-4590990Y1771000D2*
X-4201447D1*
X-4022650D2*
X-3495393D1*
X-627593D2*
X1277000D1*
X-4590990Y1761333D2*
X-4201447D1*
X-4022650D2*
X-3979180D1*
X-3800383D2*
X-3693400D1*
X-3514603D2*
X-3495393D1*
X-627593D2*
X1277000D1*
X-4590990Y1751667D2*
X-4201447D1*
X-4022650D2*
X-3979180D1*
X-3800383D2*
X-3693400D1*
X-3514603D2*
X-3495393D1*
X-627593D2*
X1277000D1*
X-4590990Y1742000D2*
X-4201447D1*
X-4022650D2*
X-3979180D1*
X-3514603D2*
X-3495393D1*
X-627593D2*
X1277000D1*
X-4590990Y1732333D2*
X-4201447D1*
X-4022650D2*
X-3979180D1*
X-3514603D2*
X-3495393D1*
X-627593D2*
X1277000D1*
X-4590990Y1722667D2*
X-4201447D1*
X-4022650D2*
X-3979180D1*
X-3514603D2*
X-3495393D1*
X-627593D2*
X689843D1*
X988640D2*
X1277000D1*
X-4590990Y1713000D2*
X-4201447D1*
X-4022650D2*
X-3979180D1*
X-3514603D2*
X-3495393D1*
X-627593D2*
X689843D1*
X988640D2*
X1277000D1*
X-4590990Y1703333D2*
X-4201447D1*
X-3514603D2*
X-3495393D1*
X-627593D2*
X689843D1*
X988640D2*
X1277000D1*
X-4590990Y1693667D2*
X-4167950D1*
X-3514603D2*
X-3495393D1*
X-627593D2*
X689843D1*
X988640D2*
X1277000D1*
X-4590990Y1684000D2*
X-4167950D1*
X-3514603D2*
X-3495393D1*
X-627593D2*
X689843D1*
X988640D2*
X1277000D1*
X-4590990Y1674333D2*
X-4167950D1*
X-3514603D2*
X-3495393D1*
X-627593D2*
X689843D1*
X988640D2*
X1277000D1*
X-4590990Y1664667D2*
X-4167950D1*
X-3514603D2*
X-3495393D1*
X-627593D2*
X689843D1*
X988640D2*
X1277000D1*
X-4590990Y1655000D2*
X-4167950D1*
X-3514603D2*
X-3495393D1*
X-627593D2*
X689843D1*
X988640D2*
X1277000D1*
X-4590990Y1645333D2*
X-4167950D1*
X-3514603D2*
X-3495393D1*
X-627593D2*
X-220157D1*
X-21360D2*
X689843D1*
X988640D2*
X1277000D1*
X-4590990Y1635667D2*
X-4167950D1*
X-3514603D2*
X-3495393D1*
X-627593D2*
X-220157D1*
X-21360D2*
X689843D1*
X988640D2*
X1277000D1*
X-4590990Y1626000D2*
X-4167950D1*
X-3514603D2*
X-3495393D1*
X-627593D2*
X-220157D1*
X-21360D2*
X689843D1*
X988640D2*
X1277000D1*
X-4590990Y1616333D2*
X-4167950D1*
X-3514603D2*
X-3495393D1*
X-627593D2*
X-220157D1*
X-21360D2*
X689843D1*
X988640D2*
X1277000D1*
X-4590990Y1606667D2*
X-4167950D1*
X-3514603D2*
X-3495393D1*
X-627593D2*
X-220157D1*
X-21360D2*
X689843D1*
X988640D2*
X1277000D1*
X-4590990Y1597000D2*
X-4167950D1*
X-3514603D2*
X-3495393D1*
X-627593D2*
X-220157D1*
X-21360D2*
X689843D1*
X988640D2*
X1277000D1*
X-4590990Y1587333D2*
X-4167950D1*
X-4056167D2*
X-3979180D1*
X-3514603D2*
X-3495393D1*
X-627593D2*
X-220157D1*
X-21360D2*
X689843D1*
X988640D2*
X1277000D1*
X-4590990Y1577667D2*
X-4186447D1*
X-4037650D2*
X-3979180D1*
X-3514603D2*
X-3495393D1*
X-627593D2*
X-220157D1*
X-21360D2*
X689843D1*
X988640D2*
X1277000D1*
X-4590990Y1568000D2*
X-4313480D1*
X-4037650D2*
X-3979180D1*
X-3514603D2*
X-3495393D1*
X-627593D2*
X-220157D1*
X-21360D2*
X689843D1*
X988640D2*
X1277000D1*
X-4590990Y1558333D2*
X-4313480D1*
X-4037650D2*
X-3979180D1*
X-3514603D2*
X-3495393D1*
X-627593D2*
X-220157D1*
X-21360D2*
X689843D1*
X988640D2*
X1277000D1*
X-4590990Y1548667D2*
X-4313480D1*
X-4037650D2*
X-3979180D1*
X-3800383D2*
X-3693400D1*
X-3514603D2*
X-3495393D1*
X-627593D2*
X-220157D1*
X-21360D2*
X689843D1*
X988640D2*
X1277000D1*
X-4590990Y1539000D2*
X-4313480D1*
X-4037650D2*
X-3979180D1*
X-3800383D2*
X-3693400D1*
X-3514603D2*
X-2312403D1*
X-627593D2*
X-220157D1*
X-21360D2*
X689843D1*
X988640D2*
X1277000D1*
X-4590990Y1529333D2*
X-4313480D1*
X-4037650D2*
X-2550510D1*
X-2466517D2*
X-2312403D1*
X-627593D2*
X-220157D1*
X-21360D2*
X689843D1*
X988640D2*
X1277000D1*
X-4590990Y1519667D2*
X-4313480D1*
X-4037650D2*
X-2573890D1*
X-2443140D2*
X-2312403D1*
X-627593D2*
X-220157D1*
X-21360D2*
X1277000D1*
X-4590990Y1510000D2*
X-4313480D1*
X-4037650D2*
X-2589630D1*
X-2427397D2*
X-2312403D1*
X-627593D2*
X-220157D1*
X-21360D2*
X1277000D1*
X-4590990Y1500333D2*
X-4313480D1*
X-4037650D2*
X-2601740D1*
X-2415287D2*
X-2312403D1*
X-627593D2*
X-220157D1*
X-21360D2*
X1277000D1*
X-4590990Y1490667D2*
X-4313480D1*
X-4037650D2*
X-2611543D1*
X-2405483D2*
X-2312403D1*
X-627593D2*
X-220157D1*
X-21360D2*
X1277000D1*
X-4590990Y1481000D2*
X-4313480D1*
X-4037650D2*
X-2619610D1*
X-2397417D2*
X-2312403D1*
X-627593D2*
X-220157D1*
X-21360D2*
X1277000D1*
X-4590990Y1471333D2*
X-4313480D1*
X-4037650D2*
X-2626350D1*
X-2390677D2*
X-2312403D1*
X-627593D2*
X-220157D1*
X-21360D2*
X380077D1*
X411257D2*
X1277000D1*
X-4590990Y1461667D2*
X-4313480D1*
X-4037650D2*
X-2631957D1*
X-2385073D2*
X-2312403D1*
X-627593D2*
X-220157D1*
X-21360D2*
X351990D1*
X439343D2*
X1277000D1*
X-4590990Y1452000D2*
X-4313480D1*
X-4037650D2*
X-2636583D1*
X-2380443D2*
X-2312403D1*
X-627593D2*
X-220157D1*
X-21360D2*
X337733D1*
X453600D2*
X1277000D1*
X-4590990Y1442333D2*
X-4313480D1*
X-4037650D2*
X-2640333D1*
X-2376693D2*
X-2312403D1*
X-627593D2*
X-220157D1*
X-21360D2*
X327770D1*
X463560D2*
X1277000D1*
X-4590990Y1432667D2*
X-4313480D1*
X-3724877D2*
X-2643283D1*
X-2373743D2*
X-220157D1*
X-21360D2*
X320350D1*
X470983D2*
X1277000D1*
X-4590990Y1423000D2*
X-4313480D1*
X-3724877D2*
X-2645470D1*
X-2371557D2*
X-220157D1*
X-21360D2*
X314763D1*
X476570D2*
X1277000D1*
X-4590990Y1413333D2*
X-4313480D1*
X-3724877D2*
X-2646957D1*
X-2370073D2*
X310663D1*
X480670D2*
X712127D1*
X986860D2*
X1277000D1*
X-4590990Y1403667D2*
X-4313480D1*
X-3466087D2*
X-2647757D1*
X-2369270D2*
X307810D1*
X483520D2*
X688083D1*
X1010923D2*
X1277000D1*
X-4590990Y1394000D2*
X-4313480D1*
X-3466087D2*
X-2647873D1*
X-2369153D2*
X306110D1*
X485220D2*
X677360D1*
X1021647D2*
X1277000D1*
X-4590990Y1384333D2*
X-4313480D1*
X-3466087D2*
X-2647327D1*
X-2369700D2*
X305467D1*
X485867D2*
X667693D1*
X1031313D2*
X1277000D1*
X-4590990Y1374667D2*
X-4313480D1*
X-3466087D2*
X-2646077D1*
X-2370950D2*
X305897D1*
X485437D2*
X658027D1*
X1040983D2*
X1277000D1*
X-4590990Y1365000D2*
X-4313480D1*
X-3466087D2*
X-2644123D1*
X-2372903D2*
X307360D1*
X483970D2*
X648357D1*
X1050650D2*
X1277000D1*
X-4590990Y1355333D2*
X-4313480D1*
X-3466087D2*
X-2641447D1*
X-2375580D2*
X309980D1*
X481353D2*
X638690D1*
X1060300D2*
X1277000D1*
X-4590990Y1345667D2*
X-4313480D1*
X-3466087D2*
X-2637990D1*
X-2379037D2*
X313807D1*
X477527D2*
X629020D1*
X1069967D2*
X1277000D1*
X-4590990Y1336000D2*
X-4313480D1*
X-3466087D2*
X-2633673D1*
X-2383353D2*
X319060D1*
X472270D2*
X619353D1*
X1079633D2*
X1277000D1*
X-4590990Y1326333D2*
X-4313480D1*
X-3466087D2*
X-2628420D1*
X-2388607D2*
X326053D1*
X465280D2*
X609687D1*
X1089303D2*
X1277000D1*
X-4590990Y1316667D2*
X-4325100D1*
X-3466087D2*
X-2622110D1*
X-2394917D2*
X335407D1*
X455923D2*
X600017D1*
X1098970D2*
X1277000D1*
X-4590990Y1307000D2*
X-4342190D1*
X-3466087D2*
X-2614533D1*
X-2402493D2*
X348513D1*
X442820D2*
X590350D1*
X1108640D2*
X1277000D1*
X-4590990Y1297333D2*
X-4353480D1*
X-3466087D2*
X-2605393D1*
X-2411633D2*
X370993D1*
X420337D2*
X580700D1*
X737973D2*
X961033D1*
X1118307D2*
X1277000D1*
X-4590990Y1287667D2*
X-4361740D1*
X-3466087D2*
X-2594180D1*
X-2422847D2*
X571033D1*
X728307D2*
X970700D1*
X1127740D2*
X1277000D1*
X-4590990Y1278000D2*
X-4367970D1*
X-4210033D2*
X-4076310D1*
X-3466087D2*
X-2648907D1*
X-2370110D2*
X561367D1*
X718640D2*
X980350D1*
X1134360D2*
X1277000D1*
X-4590990Y1268333D2*
X-4372600D1*
X-4205403D2*
X-4076310D1*
X-3466087D2*
X-2648907D1*
X-2370110D2*
X-1603030D1*
X708970D2*
X990017D1*
X1138423D2*
X1277000D1*
X-4590990Y1258667D2*
X-4375920D1*
X-4202083D2*
X-4076310D1*
X-3466087D2*
X-2648907D1*
X-2370110D2*
X-1615980D1*
X699303D2*
X999687D1*
X1140493D2*
X1277000D1*
X-4590990Y1249000D2*
X-4378050D1*
X-4199957D2*
X-4076310D1*
X-3466087D2*
X-2648907D1*
X-2370110D2*
X-1625647D1*
X689633D2*
X1009353D1*
X1140903D2*
X1277000D1*
X-4590990Y1239333D2*
X-4379083D1*
X-4198920D2*
X-4076310D1*
X-3466087D2*
X-3105880D1*
X-3054270D2*
X-2648907D1*
X-2370110D2*
X-1635313D1*
X679967D2*
X1019020D1*
X1140903D2*
X1277000D1*
X-4590990Y1229667D2*
X-4379063D1*
X-4198940D2*
X-4076310D1*
X-3466087D2*
X-3129883D1*
X-3030267D2*
X-2648907D1*
X-2370110D2*
X-1644983D1*
X670300D2*
X874550D1*
X903930D2*
X1028690D1*
X1140903D2*
X1277000D1*
X-4590990Y1220000D2*
X-4377990D1*
X-4200013D2*
X-4076310D1*
X-3466087D2*
X-3144027D1*
X-3016127D2*
X-2648907D1*
X-2370110D2*
X-1654650D1*
X660650D2*
X849157D1*
X929323D2*
X1029100D1*
X1140903D2*
X1277000D1*
X-4590990Y1210333D2*
X-4375823D1*
X-4202180D2*
X-4076310D1*
X-3466087D2*
X-3154240D1*
X-3005893D2*
X-2648907D1*
X-2370110D2*
X-1664300D1*
X650983D2*
X836463D1*
X942017D2*
X1029100D1*
X1140903D2*
X1277000D1*
X-4590990Y1200667D2*
X-4372463D1*
X-4205540D2*
X-3952813D1*
X-3466087D2*
X-3162073D1*
X-2998080D2*
X-2648907D1*
X-2370110D2*
X-1673967D1*
X641313D2*
X827850D1*
X950630D2*
X1029100D1*
X1140903D2*
X1277000D1*
X-4590990Y1191000D2*
X-4367777D1*
X-4210230D2*
X-3952813D1*
X-3466087D2*
X-3168127D1*
X-2992007D2*
X-2648907D1*
X-2370110D2*
X-1683633D1*
X631647D2*
X821697D1*
X956763D2*
X1029100D1*
X1140903D2*
X1277000D1*
X-4590990Y1181333D2*
X-4361507D1*
X-4216497D2*
X-3952813D1*
X-3466087D2*
X-3172793D1*
X-2987357D2*
X-2648907D1*
X-2370110D2*
X-1693303D1*
X621980D2*
X817380D1*
X961080D2*
X1029100D1*
X1140903D2*
X1277000D1*
X-4590990Y1171667D2*
X-4353147D1*
X-4224857D2*
X-3952813D1*
X-3466087D2*
X-3176253D1*
X-2983900D2*
X-2648907D1*
X-2370110D2*
X-1702970D1*
X609030D2*
X814587D1*
X963893D2*
X1029100D1*
X1140903D2*
X1277000D1*
X-4590990Y1162000D2*
X-4341740D1*
X-4236263D2*
X-4131370D1*
X-4060990D2*
X-3952813D1*
X-3323197D2*
X-3178617D1*
X-2981517D2*
X-2648907D1*
X-2370110D2*
X-1712640D1*
X-1555367D2*
X-527190D1*
X-298393D2*
X813103D1*
X965357D2*
X1029100D1*
X1140903D2*
X1277000D1*
X-4590990Y1152333D2*
X-4324320D1*
X-4253687D2*
X-4148830D1*
X-4043530D2*
X-3952813D1*
X-3323197D2*
X-3180003D1*
X-2980150D2*
X-2648907D1*
X-2370110D2*
X-1722307D1*
X-1565033D2*
X-527190D1*
X-298393D2*
X812907D1*
X965573D2*
X1029100D1*
X1140903D2*
X1277000D1*
X-4590990Y1142667D2*
X-4160277D1*
X-4032083D2*
X-3952813D1*
X-3323197D2*
X-3180430D1*
X-2979720D2*
X-2648907D1*
X-2370110D2*
X-1731973D1*
X-1574700D2*
X-527190D1*
X-298393D2*
X813943D1*
X964537D2*
X1029100D1*
X1140903D2*
X1277000D1*
X-4590990Y1133000D2*
X-4466233D1*
X-4265307D2*
X-4168633D1*
X-4023723D2*
X-3952813D1*
X-2980230D2*
X-2648907D1*
X-2370110D2*
X-1741643D1*
X-1584350D2*
X-678733D1*
X-298393D2*
X816267D1*
X962193D2*
X1029100D1*
X1140903D2*
X1277000D1*
X-4590990Y1123333D2*
X-4489280D1*
X-4242260D2*
X-4174923D1*
X-4017437D2*
X-3952813D1*
X-2981713D2*
X-2648907D1*
X-2370110D2*
X-1751310D1*
X-1594017D2*
X-700843D1*
X-298393D2*
X-267170D1*
X-54370D2*
X820057D1*
X958423D2*
X1029100D1*
X1140903D2*
X1277000D1*
X-4590990Y1113667D2*
X-4499650D1*
X-4231890D2*
X-4179630D1*
X-4012730D2*
X-3952813D1*
X-2984173D2*
X-2648907D1*
X-2370110D2*
X-1760980D1*
X-1603687D2*
X-711407D1*
X-298393D2*
X-267170D1*
X-54370D2*
X825527D1*
X952957D2*
X1029100D1*
X1140903D2*
X1277000D1*
X-4590990Y1104000D2*
X-4509320D1*
X-4222220D2*
X-4182990D1*
X-4009370D2*
X-3952813D1*
X-3602123D2*
X-3525587D1*
X-2987747D2*
X-2648907D1*
X-2370110D2*
X-1770647D1*
X-1613353D2*
X-721077D1*
X-298393D2*
X-267170D1*
X-54370D2*
X833180D1*
X945280D2*
X1029100D1*
X1140903D2*
X1277000D1*
X-4590990Y1094333D2*
X-4518987D1*
X-4212553D2*
X-4185157D1*
X-4007200D2*
X-3952813D1*
X-3608647D2*
X-3535257D1*
X-2992513D2*
X-2648907D1*
X-2370110D2*
X-1780313D1*
X-1623020D2*
X-730743D1*
X-298393D2*
X-267170D1*
X-54370D2*
X844177D1*
X934303D2*
X1029100D1*
X1140903D2*
X1277000D1*
X-4590990Y1084667D2*
X-4528653D1*
X-4202883D2*
X-4186233D1*
X-4006127D2*
X-3952813D1*
X-3618020D2*
X-3544923D1*
X-2998723D2*
X-2648907D1*
X-2370110D2*
X-1789983D1*
X-1632690D2*
X-740413D1*
X-298393D2*
X-267170D1*
X-54370D2*
X862440D1*
X916020D2*
X1029100D1*
X1140903D2*
X1277000D1*
X-4590990Y1075000D2*
X-4538323D1*
X-4193217D2*
X-4186253D1*
X-4006107D2*
X-3952813D1*
X-3627690D2*
X-3554593D1*
X-3006733D2*
X-2648907D1*
X-2370110D2*
X-1799650D1*
X-1642357D2*
X-750080D1*
X-298393D2*
X-267170D1*
X-54370D2*
X1029100D1*
X1140903D2*
X1277000D1*
X-4590990Y1065333D2*
X-4547873D1*
X-4007123D2*
X-3952813D1*
X-3637357D2*
X-3564260D1*
X-3017260D2*
X-2648907D1*
X-2370110D2*
X-1809300D1*
X-1652027D2*
X-759747D1*
X-298393D2*
X-267170D1*
X-54370D2*
X1029100D1*
X1140903D2*
X1277000D1*
X-4590990Y1055667D2*
X-4554690D1*
X-4009253D2*
X-3952813D1*
X-3647027D2*
X-3573927D1*
X-3029663D2*
X-2648907D1*
X-2370110D2*
X-1818967D1*
X-1661693D2*
X-769417D1*
X-298393D2*
X-267170D1*
X-54370D2*
X1029100D1*
X1140903D2*
X1277000D1*
X-4590990Y1046000D2*
X-4558733D1*
X-3984290D2*
X-3967540D1*
X-3656733D2*
X-3583597D1*
X-3035657D2*
X-2648907D1*
X-2370110D2*
X-1828633D1*
X-1671360D2*
X-779063D1*
X-298393D2*
X-267170D1*
X-54370D2*
X1029100D1*
X1140903D2*
X1277000D1*
X-4590990Y1036333D2*
X-4560627D1*
X-3670930D2*
X-3593263D1*
X-3045287D2*
X-2648907D1*
X-2370110D2*
X-1838303D1*
X-1681030D2*
X-788733D1*
X-298393D2*
X-267170D1*
X-54370D2*
X1029100D1*
X1140903D2*
X1277000D1*
X-4590990Y1026667D2*
X-4560880D1*
X-3707103D2*
X-3602913D1*
X-3064563D2*
X-2648907D1*
X-2370110D2*
X-1847970D1*
X-1690697D2*
X-798400D1*
X-298393D2*
X-267170D1*
X-54370D2*
X1029100D1*
X1140903D2*
X1277000D1*
X-4590990Y1017000D2*
X-4560880D1*
X-3707103D2*
X-3612580D1*
X-3323197D2*
X-2648907D1*
X-2370110D2*
X-1948967D1*
X-1935033D2*
X-1857640D1*
X-1700367D2*
X-992483D1*
X-912710D2*
X-808070D1*
X-650793D2*
X-527190D1*
X-298393D2*
X-267170D1*
X-52357D2*
X1029100D1*
X1140903D2*
X1277000D1*
X-4590990Y1007333D2*
X-4560880D1*
X-3707103D2*
X-3622247D1*
X-3476283D2*
X-3472013D1*
X-3323197D2*
X-2648907D1*
X-2370110D2*
X-1983770D1*
X-1900230D2*
X-1867307D1*
X-1710033D2*
X-1008107D1*
X-897103D2*
X-817737D1*
X-660463D2*
X-527190D1*
X-298393D2*
X-265157D1*
X-52357D2*
X1029100D1*
X1140903D2*
X1277000D1*
X-4590990Y997667D2*
X-4560880D1*
X-3707103D2*
X-3631917D1*
X-3485950D2*
X-3472013D1*
X-3323197D2*
X-1998713D1*
X-1885287D2*
X-1876973D1*
X-1719700D2*
X-1018733D1*
X-886460D2*
X-827403D1*
X-670130D2*
X-527190D1*
X-298393D2*
X-265157D1*
X-52357D2*
X1029100D1*
X1140903D2*
X1277000D1*
X-4590990Y988000D2*
X-4560880D1*
X-3707103D2*
X-3641583D1*
X-3495620D2*
X-3472013D1*
X-3323197D2*
X-2009007D1*
X-1729350D2*
X-1026583D1*
X-679800D2*
X-527190D1*
X-298393D2*
X-265157D1*
X-52357D2*
X1029100D1*
X1140903D2*
X1277000D1*
X-4590990Y978333D2*
X-4560880D1*
X-3707103D2*
X-3651253D1*
X-3505287D2*
X-3472013D1*
X-3323197D2*
X-2016643D1*
X-1739017D2*
X-1032503D1*
X-689467D2*
X-527190D1*
X-298393D2*
X-265157D1*
X-52357D2*
X1029100D1*
X1140903D2*
X1277000D1*
X-4590990Y968667D2*
X-4560880D1*
X-3707103D2*
X-3660920D1*
X-3514957D2*
X-3472013D1*
X-3323197D2*
X-2022383D1*
X-1748687D2*
X-1036877D1*
X-699133D2*
X-527190D1*
X-298393D2*
X-265157D1*
X-52357D2*
X1029100D1*
X1140903D2*
X1277000D1*
X-4590990Y959000D2*
X-4560880D1*
X-3707807D2*
X-3670587D1*
X-3524623D2*
X-3472013D1*
X-3323197D2*
X-2026643D1*
X-1758353D2*
X-1039983D1*
X-708783D2*
X-527190D1*
X-298393D2*
X-265157D1*
X-52357D2*
X-25450D1*
X25457D2*
X1029100D1*
X1140903D2*
X1277000D1*
X-4590990Y949333D2*
X-4560880D1*
X-3710423D2*
X-3680257D1*
X-3534290D2*
X-3472013D1*
X-3323197D2*
X-2029610D1*
X-1768020D2*
X-1041897D1*
X-718450D2*
X-527190D1*
X-298393D2*
X-265157D1*
X-52357D2*
X-47503D1*
X47507D2*
X1029100D1*
X1140903D2*
X1277000D1*
X-4590990Y939667D2*
X-4560880D1*
X-3715347D2*
X-3706017D1*
X-3543960D2*
X-3472013D1*
X-3323197D2*
X-2031427D1*
X-1777690D2*
X-1042757D1*
X-728120D2*
X-527190D1*
X-298393D2*
X-265157D1*
X60513D2*
X1029100D1*
X1140903D2*
X1277000D1*
X-4590990Y930000D2*
X-4560880D1*
X-3553627D2*
X-3472013D1*
X-3323197D2*
X-2032170D1*
X-1787357D2*
X-1042540D1*
X-737787D2*
X-527190D1*
X-298393D2*
X-265157D1*
X69790D2*
X1029100D1*
X1140903D2*
X1277000D1*
X-4590990Y920333D2*
X-4560880D1*
X-3563293D2*
X-3472013D1*
X-3323197D2*
X-2031877D1*
X-1797027D2*
X-1041290D1*
X-747457D2*
X-527190D1*
X-298393D2*
X-278167D1*
X76743D2*
X1029100D1*
X1140903D2*
X1277000D1*
X-4590990Y910667D2*
X-4560880D1*
X-3572943D2*
X-3472013D1*
X-3323197D2*
X-2030490D1*
X-1806693D2*
X-1038907D1*
X-757123D2*
X-527190D1*
X-298393D2*
X-278167D1*
X81960D2*
X1029100D1*
X1140903D2*
X1277000D1*
X-4590990Y901000D2*
X-4560880D1*
X-3582610D2*
X-3472013D1*
X-3323197D2*
X-2028010D1*
X-1816360D2*
X-1035333D1*
X-766790D2*
X-527190D1*
X-298393D2*
X-278167D1*
X85767D2*
X1029100D1*
X1140903D2*
X1277000D1*
X-4590990Y891333D2*
X-4560880D1*
X-3592280D2*
X-3472013D1*
X-3323197D2*
X-2024320D1*
X-1826030D2*
X-1030393D1*
X-777827D2*
X-527190D1*
X-298393D2*
X-278167D1*
X88347D2*
X1029100D1*
X1140903D2*
X1277000D1*
X-4590990Y881667D2*
X-4560880D1*
X-3601947D2*
X-3472013D1*
X-3323197D2*
X-2019220D1*
X-1837553D2*
X-1023770D1*
X-881420D2*
X-527190D1*
X-298393D2*
X-278167D1*
X89790D2*
X1029100D1*
X1140903D2*
X1277000D1*
X-4590990Y872000D2*
X-4560880D1*
X-3486850D2*
X-3472013D1*
X-3323197D2*
X-2012423D1*
X-1871577D2*
X-1014983D1*
X-890230D2*
X-527190D1*
X-298393D2*
X-278167D1*
X90200D2*
X1029100D1*
X1140903D2*
X1277000D1*
X-4590990Y862333D2*
X-4560880D1*
X-3472513D2*
X-2003360D1*
X-1880640D2*
X-1002813D1*
X-902377D2*
X-527190D1*
X-298393D2*
X-278167D1*
X89537D2*
X1029100D1*
X1140903D2*
X1277000D1*
X-4590990Y852667D2*
X-4560880D1*
X-3462847D2*
X-1990763D1*
X-1893237D2*
X-983460D1*
X-921753D2*
X-527190D1*
X-298393D2*
X-278167D1*
X87800D2*
X1029100D1*
X1140903D2*
X1277000D1*
X-4590990Y843000D2*
X-4560880D1*
X-3453177D2*
X-1970040D1*
X-1913960D2*
X-527190D1*
X-298393D2*
X-278167D1*
X84927D2*
X809743D1*
X873600D2*
X1029100D1*
X1140903D2*
X1277000D1*
X-4590990Y833333D2*
X-4560880D1*
X-3443510D2*
X-527190D1*
X-298393D2*
X-278167D1*
X80787D2*
X790857D1*
X892467D2*
X1029100D1*
X1140903D2*
X1277000D1*
X-4590990Y823667D2*
X-4560880D1*
X-3434740D2*
X-527190D1*
X-286890D2*
X-278167D1*
X75163D2*
X778883D1*
X904460D2*
X1029100D1*
X1140903D2*
X1277000D1*
X-4590990Y814000D2*
X-4560880D1*
X-3323197D2*
X-527190D1*
X67700D2*
X770173D1*
X913150D2*
X1029100D1*
X1140903D2*
X1277000D1*
X-4590990Y804333D2*
X-4560587D1*
X-3323197D2*
X-527190D1*
X57680D2*
X763650D1*
X919693D2*
X1029100D1*
X1140903D2*
X1277000D1*
X-4590990Y794667D2*
X-4558597D1*
X-3323197D2*
X-527190D1*
X43267D2*
X758767D1*
X924577D2*
X1029100D1*
X1140903D2*
X1277000D1*
X-4590990Y785000D2*
X-4554473D1*
X-3323197D2*
X-468693D1*
X-39370D2*
X-14200D1*
X14207D2*
X755233D1*
X928093D2*
X1029100D1*
X1140903D2*
X1277000D1*
X-4590990Y775333D2*
X-4547503D1*
X-3323197D2*
X-468693D1*
X-39370D2*
X752907D1*
X930417D2*
X1029100D1*
X1140903D2*
X1277000D1*
X-4590990Y765667D2*
X-4537913D1*
X-3323197D2*
X-468693D1*
X-39370D2*
X751697D1*
X931647D2*
X1029100D1*
X1140903D2*
X1277000D1*
X-4590990Y756000D2*
X-4528243D1*
X-3323197D2*
X-3108577D1*
X-3051577D2*
X-468693D1*
X-39370D2*
X751520D1*
X931803D2*
X1029100D1*
X1140903D2*
X1277000D1*
X-4590990Y746333D2*
X-4518577D1*
X-3323197D2*
X-3131153D1*
X-3028997D2*
X-468693D1*
X41430D2*
X752420D1*
X930923D2*
X1029100D1*
X1140903D2*
X1277000D1*
X-4590990Y736667D2*
X-4507990D1*
X-3323197D2*
X-3144903D1*
X-3015247D2*
X-468693D1*
X56470D2*
X754393D1*
X928930D2*
X1029100D1*
X1140903D2*
X1277000D1*
X-4590990Y727000D2*
X-4488107D1*
X-3323197D2*
X-3154923D1*
X-3005230D2*
X-468693D1*
X66843D2*
X757537D1*
X925807D2*
X1029100D1*
X1140903D2*
X1277000D1*
X-4590990Y717333D2*
X-4488107D1*
X-3323197D2*
X-3162580D1*
X-2997553D2*
X-2496370D1*
X-2425403D2*
X-1003947D1*
X-933003D2*
X-468693D1*
X74517D2*
X761970D1*
X921353D2*
X1029100D1*
X1140903D2*
X1277000D1*
X-4590990Y707667D2*
X-4488107D1*
X-3323197D2*
X-3168537D1*
X-2991617D2*
X-2513713D1*
X-2408060D2*
X-1021310D1*
X-915657D2*
X-468693D1*
X80300D2*
X767947D1*
X915377D2*
X1029100D1*
X1140903D2*
X1277000D1*
X-4590990Y698000D2*
X-4488107D1*
X-3323197D2*
X-3173087D1*
X-2987043D2*
X-2525100D1*
X-2396673D2*
X-1032697D1*
X-904270D2*
X-468693D1*
X84577D2*
X775897D1*
X907427D2*
X1029100D1*
X1140903D2*
X1277000D1*
X-4590990Y688333D2*
X-4488107D1*
X-3323197D2*
X-3176467D1*
X-2983687D2*
X-2533440D1*
X-895930D2*
X-468693D1*
X87563D2*
X786677D1*
X896667D2*
X1029100D1*
X1140903D2*
X1277000D1*
X-4590990Y678667D2*
X-4488107D1*
X-3323197D2*
X-3178770D1*
X-2981380D2*
X-2539710D1*
X-889663D2*
X-468693D1*
X89400D2*
X802597D1*
X880747D2*
X1029100D1*
X1140903D2*
X1277000D1*
X-4590990Y669000D2*
X-4488107D1*
X-3323197D2*
X-3180080D1*
X-2980073D2*
X-2544377D1*
X-884973D2*
X-468693D1*
X90180D2*
X1029100D1*
X1140903D2*
X1277000D1*
X-4590990Y659333D2*
X-4488107D1*
X-3323197D2*
X-3180430D1*
X-2979720D2*
X-2547717D1*
X-881633D2*
X-468693D1*
X89890D2*
X1029100D1*
X1140903D2*
X1277000D1*
X-4590990Y649667D2*
X-4488107D1*
X-2980307D2*
X-2549883D1*
X-879487D2*
X-468673D1*
X88540D2*
X1029100D1*
X1140903D2*
X1277000D1*
X-4590990Y640000D2*
X-4488107D1*
X-3667240D2*
X-3658323D1*
X-2981850D2*
X-2550940D1*
X-878413D2*
X-467600D1*
X86080D2*
X1029100D1*
X1140903D2*
X1277000D1*
X-4590990Y630333D2*
X-4488107D1*
X-3739017D2*
X-3654650D1*
X-2984407D2*
X-2550960D1*
X-878413D2*
X-464670D1*
X82390D2*
X1029100D1*
X1140903D2*
X1277000D1*
X-4590990Y620667D2*
X-4488107D1*
X-3739017D2*
X-3649573D1*
X-2988060D2*
X-2549903D1*
X-879447D2*
X-459593D1*
X77330D2*
X1029100D1*
X1140903D2*
X1277000D1*
X-4590990Y611000D2*
X-4488107D1*
X-3746517D2*
X-3642833D1*
X-2992923D2*
X-2547777D1*
X-881577D2*
X-451487D1*
X70573D2*
X734120D1*
X807877D2*
X1029100D1*
X1140903D2*
X1277000D1*
X-4590990Y601333D2*
X-4488107D1*
X-3746517D2*
X-3633810D1*
X-2999270D2*
X-2544457D1*
X-884897D2*
X-441820D1*
X61570D2*
X717343D1*
X824653D2*
X1029100D1*
X1140903D2*
X1277000D1*
X-4590990Y591667D2*
X-4488107D1*
X-3746517D2*
X-3621290D1*
X-3523197D2*
X-3506563D1*
X-3007437D2*
X-2539807D1*
X-889543D2*
X-432150D1*
X59030D2*
X706190D1*
X835807D2*
X1029100D1*
X1140903D2*
X1277000D1*
X-4590990Y582000D2*
X-4488107D1*
X-3746517D2*
X-3600860D1*
X-3543647D2*
X-3496917D1*
X-3018197D2*
X-2533577D1*
X-895777D2*
X-422483D1*
X68717D2*
X698007D1*
X843990D2*
X1029100D1*
X1140903D2*
X1277000D1*
X-4590990Y572333D2*
X-4488107D1*
X-3746517D2*
X-3487247D1*
X-3033293D2*
X-2525293D1*
X-2396480D2*
X-1032893D1*
X-904057D2*
X-412813D1*
X75923D2*
X691853D1*
X850143D2*
X1029100D1*
X1140903D2*
X1277000D1*
X-4590990Y562667D2*
X-4485217D1*
X-3744407D2*
X-3476877D1*
X-3042163D2*
X-2513987D1*
X-2407787D2*
X-1021583D1*
X-915367D2*
X-403167D1*
X81353D2*
X687263D1*
X854733D2*
X1029100D1*
X1140903D2*
X1277000D1*
X-4590990Y553000D2*
X-4485217D1*
X-3734740D2*
X-3472013D1*
X-3057103D2*
X-2496837D1*
X-2424937D2*
X-1004437D1*
X-932533D2*
X-393497D1*
X85337D2*
X684003D1*
X857993D2*
X1029100D1*
X1140903D2*
X1277000D1*
X-4590990Y543333D2*
X-4485217D1*
X-566517D2*
X-383830D1*
X88073D2*
X681913D1*
X860103D2*
X1029100D1*
X1140903D2*
X1277000D1*
X-4590990Y533667D2*
X-4485217D1*
X-550483D2*
X-374163D1*
X89673D2*
X680897D1*
X861100D2*
X1029100D1*
X1140903D2*
X1277000D1*
X-4590990Y524000D2*
X-4485217D1*
X-540620D2*
X-364493D1*
X90200D2*
X680957D1*
X861040D2*
X1029100D1*
X1140903D2*
X1277000D1*
X-4590990Y514333D2*
X-4485217D1*
X-530950D2*
X-354827D1*
X89673D2*
X682070D1*
X859927D2*
X1029100D1*
X1140903D2*
X1277000D1*
X-4590990Y504667D2*
X-4485217D1*
X-521283D2*
X-345157D1*
X88093D2*
X684277D1*
X857720D2*
X1029100D1*
X1140903D2*
X1277000D1*
X-4590990Y495000D2*
X-4485217D1*
X-511617D2*
X-335490D1*
X85377D2*
X687673D1*
X854323D2*
X1029100D1*
X1140903D2*
X1277000D1*
X-4590990Y485333D2*
X-4485217D1*
X-501947D2*
X-325823D1*
X81413D2*
X689687D1*
X849597D2*
X1029100D1*
X1140903D2*
X1277000D1*
X-4590990Y475667D2*
X-4485217D1*
X-493587D2*
X-315020D1*
X76020D2*
X680017D1*
X843247D2*
X1029100D1*
X1140903D2*
X1277000D1*
X-4590990Y466000D2*
X-4202093D1*
X-488277D2*
X-289827D1*
X68833D2*
X670370D1*
X834810D2*
X1029100D1*
X1140903D2*
X1277000D1*
X-4590990Y456333D2*
X-4202170D1*
X-485190D2*
X-278167D1*
X67527D2*
X660700D1*
X823267D2*
X1029100D1*
X1140903D2*
X1277000D1*
X-4590990Y446667D2*
X-4201193D1*
X-483940D2*
X-278167D1*
X75043D2*
X651033D1*
X808307D2*
X1029100D1*
X1140903D2*
X1277000D1*
X-4590990Y437000D2*
X-4199123D1*
X-1009310D2*
X-610900D1*
X-483900D2*
X-278167D1*
X80690D2*
X641367D1*
X798640D2*
X1029100D1*
X1140903D2*
X1277000D1*
X-4590990Y427333D2*
X-4195900D1*
X-999643D2*
X-601233D1*
X-483900D2*
X-278167D1*
X84850D2*
X631697D1*
X788970D2*
X868260D1*
X916217D2*
X1029100D1*
X1140903D2*
X1277000D1*
X-4590990Y417667D2*
X-4191350D1*
X-954077D2*
X-595707D1*
X-483900D2*
X-278167D1*
X87760D2*
X622030D1*
X779303D2*
X848533D1*
X935923D2*
X1029100D1*
X1140903D2*
X1277000D1*
X-4590990Y408000D2*
X-4185217D1*
X-934427D2*
X-595707D1*
X-483900D2*
X-278167D1*
X89517D2*
X612360D1*
X769633D2*
X837087D1*
X947370D2*
X1029100D1*
X1140903D2*
X1277000D1*
X-4590990Y398333D2*
X-4177093D1*
X-922180D2*
X-601973D1*
X-477630D2*
X-278167D1*
X90180D2*
X602693D1*
X759967D2*
X829157D1*
X955300D2*
X1029100D1*
X1140903D2*
X1277000D1*
X-4590990Y388667D2*
X-4166037D1*
X-913333D2*
X-610823D1*
X-468783D2*
X-278167D1*
X89810D2*
X593027D1*
X750300D2*
X823513D1*
X960963D2*
X1029100D1*
X1140903D2*
X1277000D1*
X-4590990Y379000D2*
X-4149473D1*
X-4074623D2*
X-4070140D1*
X-906693D2*
X-617483D1*
X-462143D2*
X-278167D1*
X88383D2*
X583357D1*
X740630D2*
X819587D1*
X964890D2*
X1029100D1*
X1140903D2*
X1277000D1*
X-4590990Y369333D2*
X-4072970D1*
X-3738353D2*
X-3575570D1*
X-2561907D2*
X-1619903D1*
X-1555443D2*
X-1098907D1*
X-901713D2*
X-622463D1*
X-457163D2*
X-278167D1*
X85827D2*
X573690D1*
X730983D2*
X817107D1*
X967350D2*
X1029100D1*
X1140903D2*
X1277000D1*
X-4590990Y359667D2*
X-4074630D1*
X-3736673D2*
X-3592560D1*
X-2555913D2*
X-1638633D1*
X-1536693D2*
X-1089260D1*
X-898100D2*
X-626057D1*
X-453570D2*
X-278167D1*
X82057D2*
X564020D1*
X721313D2*
X815957D1*
X968520D2*
X1029100D1*
X1140903D2*
X1277000D1*
X-4590990Y350000D2*
X-4075237D1*
X-3736087D2*
X-3602540D1*
X-2551440D2*
X-1650570D1*
X-1524760D2*
X-1079593D1*
X-895717D2*
X-628460D1*
X-451167D2*
X-278167D1*
X711647D2*
X816033D1*
X968423D2*
X1029100D1*
X1140903D2*
X1277000D1*
X-4590990Y340333D2*
X-4074787D1*
X-3736517D2*
X-3612210D1*
X-2548293D2*
X-2023497D1*
X-1516087D2*
X-1074280D1*
X-894427D2*
X-629730D1*
X-449877D2*
X-278167D1*
X701980D2*
X817380D1*
X967097D2*
X1029100D1*
X1140903D2*
X1277000D1*
X-4590990Y330667D2*
X-4073283D1*
X-3738040D2*
X-3621877D1*
X-2546303D2*
X-2048947D1*
X-1509583D2*
X-1074513D1*
X-894193D2*
X-629963D1*
X-449643D2*
X-278167D1*
X692310D2*
X820057D1*
X964420D2*
X1029100D1*
X1140903D2*
X1277000D1*
X-4590990Y321000D2*
X-4070647D1*
X-3740677D2*
X-3631543D1*
X-2545383D2*
X-2059747D1*
X-1504720D2*
X-1073693D1*
X-895013D2*
X-629143D1*
X-450483D2*
X-278167D1*
X682643D2*
X824197D1*
X960260D2*
X1029100D1*
X1140903D2*
X1277000D1*
X-4590990Y311333D2*
X-4066760D1*
X-3744543D2*
X-3641213D1*
X-2545540D2*
X-2069417D1*
X-1501207D2*
X-1071780D1*
X-896927D2*
X-627230D1*
X-452377D2*
X-278167D1*
X672973D2*
X830133D1*
X954323D2*
X1029100D1*
X1140903D2*
X1277000D1*
X-4590990Y301667D2*
X-4061467D1*
X-3908627D2*
X-3902697D1*
X-3749857D2*
X-3650880D1*
X-2546753D2*
X-2079083D1*
X-1498900D2*
X-1068713D1*
X-899993D2*
X-624163D1*
X-455443D2*
X-278167D1*
X663307D2*
X838457D1*
X946003D2*
X1029100D1*
X1140903D2*
X1277000D1*
X-4590990Y292000D2*
X-4054417D1*
X-3915677D2*
X-3895647D1*
X-3756907D2*
X-3660550D1*
X-2549057D2*
X-2088753D1*
X-1497690D2*
X-1064357D1*
X-904350D2*
X-619807D1*
X-459800D2*
X-278167D1*
X653640D2*
X850603D1*
X933853D2*
X1029100D1*
X1140903D2*
X1277000D1*
X-4590990Y282333D2*
X-4044983D1*
X-3925110D2*
X-3886213D1*
X-3766343D2*
X-3670217D1*
X-2552573D2*
X-2098420D1*
X-1497533D2*
X-1058480D1*
X-910230D2*
X-613927D1*
X-465677D2*
X-278167D1*
X643970D2*
X873103D1*
X911373D2*
X1029100D1*
X1140903D2*
X1277000D1*
X-4590990Y272667D2*
X-4031720D1*
X-3938373D2*
X-3872950D1*
X-3779603D2*
X-3679883D1*
X-2557437D2*
X-2108087D1*
X-1498430D2*
X-1050667D1*
X-918040D2*
X-606133D1*
X-473490D2*
X-278167D1*
X634303D2*
X1029100D1*
X1140903D2*
X1277000D1*
X-4590990Y263000D2*
X-4008653D1*
X-3961440D2*
X-3849883D1*
X-3802670D2*
X-3689553D1*
X-2563940D2*
X-2117757D1*
X-1500423D2*
X-1040120D1*
X-928587D2*
X-595707D1*
X-483900D2*
X-278167D1*
X624633D2*
X1029100D1*
X1140903D2*
X1277000D1*
X-4590990Y253333D2*
X-3699220D1*
X-3541927D2*
X-2698460D1*
X-2572593D2*
X-2127423D1*
X-1503570D2*
X-1024650D1*
X-944057D2*
X-595707D1*
X-483900D2*
X-278167D1*
X612583D2*
X1029100D1*
X1140903D2*
X1277000D1*
X-4590990Y243667D2*
X-3708890D1*
X-3551597D2*
X-3031330D1*
X-1508040D2*
X-595707D1*
X-483900D2*
X-278167D1*
X-39370D2*
X181383D1*
X326667D2*
X1029100D1*
X1140903D2*
X1277000D1*
X-4590990Y234000D2*
X-3718557D1*
X-3561263D2*
X-3051077D1*
X-1514037D2*
X-595707D1*
X-483900D2*
X-278167D1*
X-39370D2*
X175133D1*
X332917D2*
X1029100D1*
X1140903D2*
X1277000D1*
X-4590990Y224333D2*
X-3728207D1*
X-3570930D2*
X-3061390D1*
X-1947200D2*
X-1653323D1*
X-1522007D2*
X-595707D1*
X-483900D2*
X-265157D1*
X-52357D2*
X170487D1*
X337563D2*
X1029100D1*
X1140903D2*
X1277000D1*
X-4590990Y214667D2*
X-3737873D1*
X-3580600D2*
X-3071057D1*
X-1930620D2*
X-1642520D1*
X-1532827D2*
X-595707D1*
X-483900D2*
X-265157D1*
X-52357D2*
X167167D1*
X340903D2*
X560253D1*
X581743D2*
X1029100D1*
X1140903D2*
X1277000D1*
X-4590990Y205000D2*
X-3747540D1*
X-3590267D2*
X-3080723D1*
X-1919563D2*
X-1626507D1*
X-1548843D2*
X-595707D1*
X-475640D2*
X-265157D1*
X-52357D2*
X165017D1*
X343053D2*
X528573D1*
X613423D2*
X1029100D1*
X1140903D2*
X1277000D1*
X-4590990Y195333D2*
X-3757210D1*
X-3599937D2*
X-3090393D1*
X-1911420D2*
X-595707D1*
X-465970D2*
X-265157D1*
X-52357D2*
X163963D1*
X344087D2*
X513883D1*
X628110D2*
X1029100D1*
X1140903D2*
X1277000D1*
X-4590990Y185667D2*
X-3766877D1*
X-3609603D2*
X-3100060D1*
X-1905307D2*
X-595490D1*
X-456323D2*
X-265157D1*
X-52357D2*
X163963D1*
X344087D2*
X503690D1*
X638307D2*
X1029100D1*
X1140903D2*
X1277000D1*
X-4590990Y176000D2*
X-3776543D1*
X-3619270D2*
X-3109730D1*
X-656907D2*
X-593753D1*
X-446653D2*
X-265157D1*
X-52357D2*
X165017D1*
X645867D2*
X1029100D1*
X1140903D2*
X1277000D1*
X-4590990Y166333D2*
X-3786213D1*
X-3628940D2*
X-3119397D1*
X-643373D2*
X-590100D1*
X-436987D2*
X-265157D1*
X10630D2*
X167070D1*
X651570D2*
X701833D1*
X1000630D2*
X1029100D1*
X1140903D2*
X1277000D1*
X-4590990Y156667D2*
X-3795880D1*
X-3638607D2*
X-3129063D1*
X-633707D2*
X-584027D1*
X-427320D2*
X-265157D1*
X10630D2*
X157400D1*
X655767D2*
X701833D1*
X1000630D2*
X1029100D1*
X1140903D2*
X1277000D1*
X-4590990Y147000D2*
X-3805550D1*
X-3648277D2*
X-3138733D1*
X-624037D2*
X-574923D1*
X-417650D2*
X-265157D1*
X10630D2*
X147753D1*
X658697D2*
X701833D1*
X1000630D2*
X1029100D1*
X1140903D2*
X1277000D1*
X-4590990Y137333D2*
X-3815217D1*
X-3657923D2*
X-3148400D1*
X-2096987D2*
X-2074610D1*
X-614370D2*
X-565257D1*
X-407983D2*
X-265157D1*
X10630D2*
X138083D1*
X660473D2*
X701833D1*
X1000630D2*
X1029100D1*
X1140903D2*
X1277000D1*
X-4590990Y127667D2*
X-3824883D1*
X-3667593D2*
X-3158070D1*
X-3000777D2*
X-2854867D1*
X-2765130D2*
X-2073480D1*
X-604700D2*
X-555587D1*
X-398313D2*
X-208167D1*
X10630D2*
X128417D1*
X661177D2*
X701833D1*
X1000630D2*
X1029100D1*
X1140903D2*
X1277000D1*
X-4590990Y118000D2*
X-3834553D1*
X-3677260D2*
X-3167737D1*
X-3010443D2*
X-2868733D1*
X-2751263D2*
X-2071233D1*
X-595053D2*
X-545920D1*
X-388647D2*
X-208167D1*
X10630D2*
X118747D1*
X660847D2*
X701833D1*
X1000630D2*
X1029100D1*
X1140903D2*
X1277000D1*
X-4590990Y108333D2*
X-3844220D1*
X-3686927D2*
X-3177383D1*
X-3020110D2*
X-2878480D1*
X-2741517D2*
X-2067813D1*
X-585383D2*
X-536253D1*
X-378980D2*
X-208167D1*
X10630D2*
X109080D1*
X659440D2*
X701833D1*
X1000630D2*
X1029100D1*
X1140903D2*
X1277000D1*
X-4590990Y98667D2*
X-3853890D1*
X-3696597D2*
X-3187053D1*
X-3029780D2*
X-2885763D1*
X-2734253D2*
X-2063050D1*
X-575717D2*
X-526583D1*
X-369310D2*
X-208167D1*
X10630D2*
X99413D1*
X656900D2*
X701833D1*
X1000630D2*
X1029100D1*
X1140903D2*
X1277000D1*
X-4590990Y89000D2*
X-3863557D1*
X-3706263D2*
X-3196720D1*
X-3039447D2*
X-2891213D1*
X-2728783D2*
X-2056663D1*
X-566050D2*
X-516937D1*
X-359643D2*
X-208167D1*
X10630D2*
X89743D1*
X653170D2*
X701833D1*
X1000630D2*
X1029100D1*
X1140903D2*
X1277000D1*
X-4590990Y79333D2*
X-3873207D1*
X-3715930D2*
X-3206390D1*
X-3049117D2*
X-2895237D1*
X-2724760D2*
X-2048167D1*
X-556380D2*
X-507267D1*
X-349973D2*
X-208167D1*
X10630D2*
X80077D1*
X665043D2*
X701833D1*
X1000630D2*
X1029100D1*
X1140903D2*
X1277000D1*
X-4590990Y69667D2*
X-3882873D1*
X-3725600D2*
X-3216057D1*
X-3058783D2*
X-2898010D1*
X-2721987D2*
X-2036527D1*
X-1932650D2*
X-703987D1*
X-546713D2*
X-497600D1*
X-340307D2*
X-208167D1*
X10630D2*
X70407D1*
X677973D2*
X701833D1*
X1000630D2*
X1029100D1*
X1140903D2*
X1277000D1*
X-4590990Y60000D2*
X-3892540D1*
X-3735267D2*
X-3225723D1*
X-3068450D2*
X-2899630D1*
X-2720367D2*
X-2018537D1*
X-1950640D2*
X-694320D1*
X-537043D2*
X-487930D1*
X-330640D2*
X-208167D1*
X10630D2*
X60740D1*
X687643D2*
X701833D1*
X1000630D2*
X1029100D1*
X1140903D2*
X1277000D1*
X-4590990Y50333D2*
X-3902210D1*
X-3744937D2*
X-3235393D1*
X-3078120D2*
X-2900197D1*
X-2719800D2*
X-684650D1*
X-527377D2*
X-478263D1*
X-320970D2*
X-208167D1*
X10630D2*
X51073D1*
X697310D2*
X701830D1*
X1000630D2*
X1029100D1*
X1140903D2*
X1277000D1*
X-4590990Y40667D2*
X-3911877D1*
X-3754603D2*
X-3245060D1*
X-3087787D2*
X-2899710D1*
X-2720287D2*
X-674983D1*
X-517710D2*
X-468597D1*
X-311323D2*
X-208167D1*
X10630D2*
X41403D1*
X1000630D2*
X1029100D1*
X1140903D2*
X1277000D1*
X-4590990Y31000D2*
X-3921543D1*
X-3764270D2*
X-3254730D1*
X-3097457D2*
X-2898147D1*
X-2721850D2*
X-665313D1*
X-508040D2*
X-458927D1*
X-301653D2*
X-208167D1*
X10630D2*
X31737D1*
X1000630D2*
X1029100D1*
X1140903D2*
X1277000D1*
X-4590990Y21333D2*
X-3931213D1*
X-3773940D2*
X-3264397D1*
X-3107103D2*
X-2895470D1*
X-2724527D2*
X-655667D1*
X-498373D2*
X-449260D1*
X-291987D2*
X-208167D1*
X10630D2*
X22070D1*
X1000630D2*
X1029100D1*
X1140903D2*
X1277000D1*
X-4590990Y11667D2*
X-3940880D1*
X-3783607D2*
X-3274063D1*
X-3116770D2*
X-2891543D1*
X-2728450D2*
X-645997D1*
X-488707D2*
X-439593D1*
X-282320D2*
X-208167D1*
X1000630D2*
X1029100D1*
X1140903D2*
X1277000D1*
X-4590990Y2000D2*
X-3950550D1*
X-3793277D2*
X-3283733D1*
X-3126440D2*
X-2886193D1*
X-2733823D2*
X-636330D1*
X-479037D2*
X-429923D1*
X1000630D2*
X1029100D1*
X1140903D2*
X1277000D1*
X-4590990Y-7667D2*
X-3960217D1*
X-3802923D2*
X-3293400D1*
X-3136107D2*
X-2879043D1*
X-2726030D2*
X-626663D1*
X-469370D2*
X-420257D1*
X1000630D2*
X1029100D1*
X1140903D2*
X1277000D1*
X-4590990Y-17333D2*
X-3969883D1*
X-3812593D2*
X-3303070D1*
X-3145777D2*
X-2869513D1*
X-2716360D2*
X-616993D1*
X-459700D2*
X-410587D1*
X1000630D2*
X1029100D1*
X1140903D2*
X1277000D1*
X-4590990Y-27000D2*
X-3979553D1*
X-3822260D2*
X-3312737D1*
X-3155443D2*
X-2860040D1*
X-2706693D2*
X-607327D1*
X-450053D2*
X-400920D1*
X355650D2*
X617360D1*
X774633D2*
X1029100D1*
X1140903D2*
X1277000D1*
X-4590990Y-36667D2*
X-3989220D1*
X-3831927D2*
X-3322383D1*
X-3165110D2*
X-2853850D1*
X-2697027D2*
X-597657D1*
X-440383D2*
X-391253D1*
X345983D2*
X627030D1*
X784303D2*
X1029100D1*
X1140903D2*
X1277000D1*
X-4590990Y-46333D2*
X-3998890D1*
X-3841597D2*
X-3332053D1*
X-3174780D2*
X-2844650D1*
X-2687357D2*
X-587990D1*
X-430717D2*
X-381583D1*
X336313D2*
X636697D1*
X793970D2*
X1029100D1*
X1140903D2*
X1277000D1*
X-4590990Y-56000D2*
X-4008557D1*
X-3851263D2*
X-3341720D1*
X-3184447D2*
X-2834983D1*
X-2677690D2*
X-578323D1*
X-421050D2*
X-371937D1*
X326647D2*
X646367D1*
X803640D2*
X1029100D1*
X1140903D2*
X1277000D1*
X-4590990Y-65667D2*
X-4018207D1*
X-3860930D2*
X-3351390D1*
X-3194117D2*
X-2825313D1*
X-2668020D2*
X-568653D1*
X316980D2*
X656033D1*
X813307D2*
X1029100D1*
X1140903D2*
X1277000D1*
X-4590990Y-75333D2*
X-4027873D1*
X-3870600D2*
X-3361057D1*
X-3203783D2*
X-2815647D1*
X-2658353D2*
X-558987D1*
X307310D2*
X665700D1*
X822973D2*
X1029100D1*
X1140903D2*
X1277000D1*
X-4590990Y-85000D2*
X-4037540D1*
X-3880267D2*
X-3370723D1*
X-3213450D2*
X-2805980D1*
X-2648687D2*
X-549320D1*
X297643D2*
X675350D1*
X832643D2*
X1029100D1*
X1140903D2*
X1277000D1*
X-4590990Y-94667D2*
X-4047210D1*
X-3889937D2*
X-3380393D1*
X-3223120D2*
X-2796310D1*
X-2639017D2*
X-539650D1*
X287973D2*
X685017D1*
X842310D2*
X1029100D1*
X1140903D2*
X1277000D1*
X-4590990Y-104333D2*
X-4056877D1*
X-3899603D2*
X-3390060D1*
X-3232787D2*
X-2786643D1*
X-2629350D2*
X-529983D1*
X471843D2*
X551110D1*
X623757D2*
X694687D1*
X877663D2*
X1029100D1*
X1140903D2*
X1277000D1*
X-4590990Y-114000D2*
X-4066543D1*
X-3909270D2*
X-3399730D1*
X-3242457D2*
X-2776973D1*
X-2619700D2*
X-520313D1*
X471843D2*
X525270D1*
X649597D2*
X704353D1*
X903560D2*
X1029100D1*
X1157563D2*
X1277000D1*
X-4590990Y-123667D2*
X-4076213D1*
X-3918940D2*
X-3409397D1*
X-3252103D2*
X-2767307D1*
X471843D2*
X508670D1*
X666197D2*
X714020D1*
X920180D2*
X1016697D1*
X1174167D2*
X1277000D1*
X-4590990Y-133333D2*
X-4085880D1*
X-3928607D2*
X-3419063D1*
X-3261770D2*
X-2757640D1*
X471843D2*
X496053D1*
X678813D2*
X723690D1*
X932780D2*
X1004080D1*
X1186783D2*
X1277000D1*
X-4590990Y-143000D2*
X-4095550D1*
X-3938277D2*
X-3428733D1*
X-3271440D2*
X-2747970D1*
X471843D2*
X485937D1*
X688930D2*
X733357D1*
X942917D2*
X993963D1*
X1196920D2*
X1277000D1*
X-4590990Y-152667D2*
X-4105217D1*
X-3947923D2*
X-3438400D1*
X-3281107D2*
X-2738303D1*
X471843D2*
X477597D1*
X697290D2*
X731620D1*
X951257D2*
X985603D1*
X1205260D2*
X1277000D1*
X-4590990Y-162333D2*
X-4114883D1*
X-3957593D2*
X-3448070D1*
X-3290777D2*
X-2728633D1*
X704223D2*
X724667D1*
X958210D2*
X978670D1*
X1212213D2*
X1277000D1*
X-4590990Y-172000D2*
X-4124553D1*
X-3967260D2*
X-3457737D1*
X-3300443D2*
X-2718967D1*
X710007D2*
X718883D1*
X963990D2*
X972890D1*
X1217993D2*
X1277000D1*
X-4590990Y-181667D2*
X-4134220D1*
X-3976927D2*
X-3467383D1*
X-3310110D2*
X-2709300D1*
X1222780D2*
X1277000D1*
X-4590990Y-191333D2*
X-4143890D1*
X-3986597D2*
X-3476917D1*
X-3319780D2*
X-2699650D1*
X1226667D2*
X1277000D1*
X-4590990Y-201000D2*
X-4153480D1*
X-3996263D2*
X-3483770D1*
X-3329447D2*
X-2689983D1*
X181647D2*
X193043D1*
X1229753D2*
X1277000D1*
X-4590990Y-210667D2*
X-4160587D1*
X-4005930D2*
X-3487990D1*
X-3339117D2*
X-2680313D1*
X171980D2*
X193043D1*
X1232077D2*
X1277000D1*
X-4590990Y-220333D2*
X-4164983D1*
X-4015600D2*
X-3490217D1*
X-3348783D2*
X-2668577D1*
X160260D2*
X193043D1*
X1233677D2*
X1277000D1*
X-4590990Y-230000D2*
X-4167347D1*
X-4025267D2*
X-3490707D1*
X-3358450D2*
X193043D1*
X1234597D2*
X1277000D1*
X-4590990Y-239667D2*
X-4167950D1*
X-4034937D2*
X-3490707D1*
X-3368120D2*
X193043D1*
X1234830D2*
X1277000D1*
X-4590990Y-249333D2*
X-4167950D1*
X-4044603D2*
X-3490707D1*
X-3377787D2*
X193043D1*
X1234380D2*
X1277000D1*
X-4590990Y-259000D2*
X-4167950D1*
X-4054270D2*
X-3490707D1*
X-3378920D2*
X193043D1*
X1233267D2*
X1277000D1*
X-4590990Y-268667D2*
X-4167950D1*
X-4056167D2*
X-3490707D1*
X-3378920D2*
X-1323207D1*
X123210D2*
X193043D1*
X1231430D2*
X1277000D1*
X-4590990Y-278333D2*
X-4167950D1*
X-4056167D2*
X-3490707D1*
X-3378920D2*
X-1332697D1*
X132700D2*
X193043D1*
X1228873D2*
X1277000D1*
X-4590990Y-288000D2*
X-4167950D1*
X-4056167D2*
X-3490707D1*
X-3378920D2*
X-1337483D1*
X137487D2*
X193043D1*
X1225553D2*
X1277000D1*
X-4590990Y-297667D2*
X-4167950D1*
X-4056167D2*
X-3490707D1*
X-3378920D2*
X-1339337D1*
X139323D2*
X193043D1*
X1221393D2*
X1277000D1*
X-4590990Y-307333D2*
X-4167950D1*
X-4056167D2*
X-3490707D1*
X-3378920D2*
X-1339397D1*
X139400D2*
X193043D1*
X1216313D2*
X1277000D1*
X-4590990Y-317000D2*
X-4167950D1*
X-4056167D2*
X-3490707D1*
X-3378920D2*
X-1339397D1*
X139400D2*
X193043D1*
X1210200D2*
X1277000D1*
X-4590990Y-326667D2*
X-4167950D1*
X-4056167D2*
X-3490707D1*
X-3378920D2*
X-1339397D1*
X139400D2*
X193043D1*
X1202857D2*
X1277000D1*
X-4590990Y-336333D2*
X-4167950D1*
X-4056167D2*
X-3490707D1*
X-3378920D2*
X-1339397D1*
X139400D2*
X193043D1*
X1194010D2*
X1277000D1*
X-4590990Y-346000D2*
X-4167950D1*
X-4056167D2*
X-3490707D1*
X-3378920D2*
X-1339397D1*
X139400D2*
X193043D1*
X1183210D2*
X1277000D1*
X-4590990Y-355667D2*
X-4167950D1*
X-4056167D2*
X-3490707D1*
X-3378920D2*
X-1339397D1*
X139400D2*
X193043D1*
X1169577D2*
X1277000D1*
X-4590990Y-365333D2*
X-4167950D1*
X-4056167D2*
X-3490707D1*
X-3378920D2*
X-1339397D1*
X139400D2*
X193043D1*
X1151743D2*
X1277000D1*
X-4590990Y-375000D2*
X-4167950D1*
X-4056167D2*
X-3490707D1*
X-3378920D2*
X-1339397D1*
X139400D2*
X193043D1*
X1170043D2*
X1277000D1*
X-4590990Y-384667D2*
X-4167950D1*
X-4056167D2*
X-3490707D1*
X-3378920D2*
X-1339397D1*
X139400D2*
X193043D1*
X1183560D2*
X1277000D1*
X-4590990Y-394333D2*
X-4167950D1*
X-4056167D2*
X-3490707D1*
X-3378920D2*
X-1339397D1*
X139400D2*
X193043D1*
X1194303D2*
X1277000D1*
X-4590990Y-404000D2*
X-4167950D1*
X-4056167D2*
X-3490707D1*
X-3378920D2*
X-1339397D1*
X139400D2*
X193043D1*
X1203093D2*
X1277000D1*
X-4590990Y-413667D2*
X-4167950D1*
X-4056167D2*
X-3490707D1*
X-3378920D2*
X-1339397D1*
X139400D2*
X193043D1*
X1210397D2*
X1277000D1*
X-4590990Y-423333D2*
X-4167950D1*
X-4056167D2*
X-3490707D1*
X-3378920D2*
X-1339397D1*
X139400D2*
X193043D1*
X1216490D2*
X1277000D1*
X-4590990Y-433000D2*
X-4167950D1*
X-4056167D2*
X-3490707D1*
X-3378920D2*
X-1339397D1*
X139400D2*
X193043D1*
X1221530D2*
X1277000D1*
X-4590990Y-442667D2*
X-4167950D1*
X-4056167D2*
X-3490707D1*
X-3378920D2*
X-1339397D1*
X139400D2*
X193043D1*
X1225670D2*
X1277000D1*
X-4590990Y-452333D2*
X-4167950D1*
X-4056167D2*
X-3490707D1*
X-3378920D2*
X-1339397D1*
X139400D2*
X193043D1*
X1228970D2*
X1277000D1*
X-4590990Y-462000D2*
X-4167950D1*
X-4056167D2*
X-3490707D1*
X-3378920D2*
X-1339397D1*
X139400D2*
X193043D1*
X1231510D2*
X1277000D1*
X-4590990Y-471667D2*
X-4167950D1*
X-4056167D2*
X-3490707D1*
X-3378920D2*
X-1339397D1*
X139400D2*
X193043D1*
X1233307D2*
X1277000D1*
X-4590990Y-481333D2*
X-4167950D1*
X-4056167D2*
X-3490707D1*
X-3378920D2*
X-1339397D1*
X139400D2*
X193043D1*
X1234400D2*
X1277000D1*
X-4590990Y-491000D2*
X-4167950D1*
X-4056167D2*
X-3490707D1*
X-3378920D2*
X-1339397D1*
X139400D2*
X193043D1*
X1234830D2*
X1277000D1*
X-4590990Y-500667D2*
X-4167950D1*
X-4056167D2*
X-3490707D1*
X-3378920D2*
X-1339397D1*
X139400D2*
X193043D1*
X1234577D2*
X1277000D1*
X-4590990Y-510333D2*
X-4167950D1*
X-4056167D2*
X-3490707D1*
X-3378920D2*
X-1339397D1*
X139400D2*
X193043D1*
X1233640D2*
X1277000D1*
X-4590990Y-520000D2*
X-4167950D1*
X-4056167D2*
X-3490707D1*
X-3378920D2*
X-1339397D1*
X139400D2*
X193043D1*
X1232017D2*
X1277000D1*
X-4590990Y-529667D2*
X-4167950D1*
X-4056167D2*
X-3490707D1*
X-3378920D2*
X-1339397D1*
X139400D2*
X193043D1*
X1229673D2*
X1277000D1*
X-4590990Y-539333D2*
X-4167950D1*
X-4056167D2*
X-3490707D1*
X-3378920D2*
X-2501253D1*
X-2102457D2*
X-1339397D1*
X139400D2*
X193043D1*
X1226570D2*
X1277000D1*
X-4590990Y-549000D2*
X-4167950D1*
X-4056167D2*
X-3490707D1*
X-3378920D2*
X-2501253D1*
X-2102457D2*
X-1339397D1*
X139400D2*
X193043D1*
X1222643D2*
X1277000D1*
X-4590990Y-558667D2*
X-4167950D1*
X-4056167D2*
X-3490707D1*
X-3378920D2*
X-2501253D1*
X-2102457D2*
X-1339397D1*
X139400D2*
X193043D1*
X1217837D2*
X1277000D1*
X-4590990Y-568333D2*
X-4167950D1*
X-4056167D2*
X-3490707D1*
X-3378920D2*
X-2733673D1*
X-2664390D2*
X-2501253D1*
X-2102457D2*
X-1339397D1*
X139400D2*
X193043D1*
X1212017D2*
X1277000D1*
X-4590990Y-578000D2*
X-4167950D1*
X-4056167D2*
X-3490707D1*
X-3378920D2*
X-2751370D1*
X-2646693D2*
X-2501253D1*
X-2102457D2*
X-1339397D1*
X139400D2*
X193043D1*
X1205027D2*
X1277000D1*
X-4590990Y-587667D2*
X-4167950D1*
X-4056167D2*
X-3490707D1*
X-3378920D2*
X-2762913D1*
X-2635170D2*
X-2501253D1*
X-2102457D2*
X-1339397D1*
X139400D2*
X193043D1*
X1196647D2*
X1277000D1*
X-4590990Y-597333D2*
X-4167950D1*
X-4056167D2*
X-3490707D1*
X-3378920D2*
X-2771330D1*
X-2626733D2*
X-2501253D1*
X-2102457D2*
X-1339397D1*
X139400D2*
X193043D1*
X1186450D2*
X1277000D1*
X-4590990Y-607000D2*
X-4167950D1*
X-4056167D2*
X-3696390D1*
X-3627730D2*
X-3490707D1*
X-3378920D2*
X-3022073D1*
X-2947573D2*
X-2777657D1*
X-2620403D2*
X-2501253D1*
X-2102457D2*
X-1339397D1*
X139400D2*
X193043D1*
X1173737D2*
X1277000D1*
X-4590990Y-616667D2*
X-4168850D1*
X-4055267D2*
X-3718850D1*
X-3605267D2*
X-3493243D1*
X-3376380D2*
X-3043243D1*
X-2926380D2*
X-2782383D1*
X-2615677D2*
X-2501253D1*
X-2102457D2*
X-1339397D1*
X139400D2*
X193043D1*
X1156960D2*
X1277000D1*
X-4590990Y-626333D2*
X-4183263D1*
X-4040853D2*
X-3733263D1*
X-3590853D2*
X-3507190D1*
X-3362437D2*
X-3057190D1*
X-2912437D2*
X-2785763D1*
X-2612300D2*
X-2501253D1*
X-2102457D2*
X-1339397D1*
X139400D2*
X193043D1*
X1165573D2*
X1277000D1*
X-4590990Y-636000D2*
X-4194027D1*
X-4030093D2*
X-3744027D1*
X-3580093D2*
X-3517697D1*
X-3351927D2*
X-3067697D1*
X-2901927D2*
X-2787970D1*
X-2610093D2*
X-2501253D1*
X-2102457D2*
X-1339397D1*
X139400D2*
X193043D1*
X1180123D2*
X1277000D1*
X-4590990Y-645667D2*
X-4202483D1*
X-4021633D2*
X-3752483D1*
X-3571633D2*
X-3525980D1*
X-3343647D2*
X-3075980D1*
X-2893647D2*
X-2789083D1*
X-2608997D2*
X-2501253D1*
X-2102457D2*
X-1339397D1*
X139400D2*
X193043D1*
X1191530D2*
X1277000D1*
X-4590990Y-655333D2*
X-4209240D1*
X-4014877D2*
X-3759240D1*
X-3564877D2*
X-3532580D1*
X-3337043D2*
X-3082580D1*
X-2887043D2*
X-2789123D1*
X-2608940D2*
X-2501253D1*
X-2102457D2*
X-1339397D1*
X139400D2*
X193043D1*
X1200807D2*
X1277000D1*
X-4590990Y-665000D2*
X-4214650D1*
X-4009467D2*
X-3764650D1*
X-3559467D2*
X-3537873D1*
X-3331770D2*
X-3087873D1*
X-2881770D2*
X-2788127D1*
X-2609957D2*
X-2501253D1*
X-2102457D2*
X-1339397D1*
X139400D2*
X193043D1*
X1208503D2*
X1277000D1*
X-4590990Y-674667D2*
X-4218890D1*
X-4005230D2*
X-3768890D1*
X-3555230D2*
X-3542013D1*
X-3327610D2*
X-3092013D1*
X-2877610D2*
X-2786017D1*
X-2612043D2*
X-2501253D1*
X-2102457D2*
X-1339397D1*
X139400D2*
X193043D1*
X1214907D2*
X1277000D1*
X-4590990Y-684333D2*
X-4222110D1*
X-4001987D2*
X-3772110D1*
X-3551987D2*
X-3545140D1*
X-3324487D2*
X-3095140D1*
X-2874487D2*
X-2782757D1*
X-2615327D2*
X-2501253D1*
X-2102457D2*
X-1339397D1*
X139400D2*
X193043D1*
X1220220D2*
X1277000D1*
X-4590990Y-694000D2*
X-4224417D1*
X-3999700D2*
X-3774417D1*
X-3322280D2*
X-3097347D1*
X-2872280D2*
X-2778147D1*
X-2619917D2*
X-2501253D1*
X-2102457D2*
X-1339397D1*
X1224597D2*
X1277000D1*
X-4590990Y-703667D2*
X-4225843D1*
X-3998257D2*
X-3775843D1*
X-3320930D2*
X-3098693D1*
X-2870930D2*
X-2771973D1*
X-2626087D2*
X-2501253D1*
X-2102457D2*
X-1339397D1*
X1228130D2*
X1277000D1*
X-4590990Y-713333D2*
X-4226447D1*
X-3997670D2*
X-3776447D1*
X-3320423D2*
X-3099200D1*
X-2870423D2*
X-2763790D1*
X-2634290D2*
X-2501253D1*
X-2102457D2*
X-1339397D1*
X1230867D2*
X1277000D1*
X-4590990Y-723000D2*
X-4226193D1*
X-3997903D2*
X-3776193D1*
X-3320737D2*
X-3098890D1*
X-2870737D2*
X-2754943D1*
X-2643140D2*
X-2501253D1*
X-2102457D2*
X-1339397D1*
X1232877D2*
X1277000D1*
X-4590990Y-732667D2*
X-4225140D1*
X-3998980D2*
X-3775140D1*
X-3321890D2*
X-3097737D1*
X-2871890D2*
X-2754943D1*
X-2643140D2*
X-2501253D1*
X-2102457D2*
X-1339397D1*
X1234167D2*
X1277000D1*
X-4590990Y-742333D2*
X-4223207D1*
X-4000913D2*
X-3773207D1*
X-3550913D2*
X-3545730D1*
X-3323900D2*
X-3095723D1*
X-2873900D2*
X-2754943D1*
X-2643140D2*
X-2501780D1*
X-2102457D2*
X-1339397D1*
X1234790D2*
X1277000D1*
X-4590990Y-752000D2*
X-4220393D1*
X-4003723D2*
X-3770393D1*
X-3553723D2*
X-3542813D1*
X-3326810D2*
X-3092813D1*
X-2876810D2*
X-2754943D1*
X-2643140D2*
X-2501780D1*
X-2102457D2*
X-1339397D1*
X1234713D2*
X1277000D1*
X-4590990Y-761667D2*
X-4216583D1*
X-4007533D2*
X-3766583D1*
X-3557533D2*
X-3538907D1*
X-3330717D2*
X-3088907D1*
X-2880717D2*
X-2754943D1*
X-2643140D2*
X-2501780D1*
X-2102457D2*
X-1339397D1*
X1233970D2*
X1277000D1*
X-4590990Y-771333D2*
X-4211700D1*
X-4012417D2*
X-3761700D1*
X-3562417D2*
X-3533907D1*
X-3335717D2*
X-3083907D1*
X-2885717D2*
X-2754943D1*
X-2643140D2*
X-2501780D1*
X-2125327D2*
X-1339397D1*
X1232543D2*
X1277000D1*
X-4590990Y-781000D2*
X-4205550D1*
X-4018570D2*
X-3755550D1*
X-3568570D2*
X-3527640D1*
X-3341987D2*
X-3077640D1*
X-2891987D2*
X-2754943D1*
X-2643140D2*
X-2501780D1*
X-2121400D2*
X-1339397D1*
X1230397D2*
X1277000D1*
X-4590990Y-790667D2*
X-4197873D1*
X-4026243D2*
X-3747873D1*
X-3576243D2*
X-3519787D1*
X-3349837D2*
X-3069787D1*
X-2899837D2*
X-2754943D1*
X-2643140D2*
X-2501780D1*
X-2118707D2*
X-1339397D1*
X1227507D2*
X1277000D1*
X-4590990Y-800333D2*
X-4188187D1*
X-4035930D2*
X-3738187D1*
X-3585930D2*
X-3509867D1*
X-3359760D2*
X-3059867D1*
X-2909760D2*
X-2754943D1*
X-2643140D2*
X-2501780D1*
X-2117143D2*
X-1339397D1*
X1223813D2*
X1277000D1*
X-4590990Y-810000D2*
X-4175587D1*
X-4048530D2*
X-3725587D1*
X-3598530D2*
X-3496877D1*
X-3372747D2*
X-3046877D1*
X-2922747D2*
X-2754943D1*
X-2643140D2*
X-2501780D1*
X-2116653D2*
X-1338070D1*
X139400D2*
X193043D1*
X711257D2*
X717597D1*
X965260D2*
X971607D1*
X1219263D2*
X1277000D1*
X-4590990Y-819667D2*
X-4157620D1*
X-4066480D2*
X-3707620D1*
X-3616480D2*
X-3478107D1*
X-3391517D2*
X-3028107D1*
X-2941517D2*
X-2754943D1*
X-2643140D2*
X-2501780D1*
X-2117220D2*
X-1333987D1*
X139400D2*
X193043D1*
X705730D2*
X723123D1*
X959753D2*
X977127D1*
X1213737D2*
X1277000D1*
X-4590990Y-829333D2*
X-2754943D1*
X-2643140D2*
X-2501780D1*
X-2118843D2*
X-1325980D1*
X139400D2*
X193043D1*
X471843D2*
X475783D1*
X699087D2*
X729763D1*
X953110D2*
X983767D1*
X1207117D2*
X1277000D1*
X-4590990Y-839000D2*
X-2754943D1*
X-2643140D2*
X-2501780D1*
X-2121597D2*
X-1316310D1*
X139400D2*
X193043D1*
X471843D2*
X483747D1*
X691120D2*
X737733D1*
X945143D2*
X991737D1*
X1199147D2*
X1277000D1*
X-4590990Y-848667D2*
X-2754943D1*
X-2643140D2*
X-2501780D1*
X-2292983D2*
X-2288097D1*
X-2125620D2*
X-1364747D1*
X-1334270D2*
X-1306643D1*
X139400D2*
X193043D1*
X471843D2*
X493397D1*
X681470D2*
X747380D1*
X935493D2*
X1001367D1*
X1189497D2*
X1277000D1*
X-4590990Y-858333D2*
X-2754943D1*
X-2643140D2*
X-2501780D1*
X-2292983D2*
X-2282640D1*
X-2131070D2*
X-1393087D1*
X-1305950D2*
X-1296973D1*
X139400D2*
X193043D1*
X471843D2*
X505310D1*
X669557D2*
X759277D1*
X923600D2*
X1013280D1*
X1177603D2*
X1277000D1*
X-4590990Y-868000D2*
X-2754943D1*
X-2643140D2*
X-2501780D1*
X-2292983D2*
X-2275373D1*
X-2138333D2*
X-1407383D1*
X-1291653D2*
X-1287307D1*
X139400D2*
X193043D1*
X471843D2*
X520700D1*
X654167D2*
X774667D1*
X908210D2*
X1028670D1*
X1162213D2*
X1277000D1*
X-4590990Y-877667D2*
X-2754943D1*
X-2643140D2*
X-2501780D1*
X-2292983D2*
X-2265627D1*
X-2148080D2*
X-1417367D1*
X-1281673D2*
X-1277640D1*
X139400D2*
X193043D1*
X471843D2*
X543163D1*
X631707D2*
X797107D1*
X885767D2*
X1051093D1*
X1139770D2*
X1277000D1*
X-4590990Y-887333D2*
X-2754943D1*
X-2643140D2*
X-2501780D1*
X-2292983D2*
X-2251800D1*
X-2161907D2*
X-1424787D1*
X-1274233D2*
X-1267970D1*
X139400D2*
X369277D1*
X518073D2*
X1277000D1*
X-4590990Y-897000D2*
X-2754943D1*
X-2643140D2*
X-2501780D1*
X-2292983D2*
X-2226213D1*
X-2187493D2*
X-1670237D1*
X-1632123D2*
X-1430393D1*
X-1268647D2*
X-1258303D1*
X139400D2*
X369277D1*
X518073D2*
X614177D1*
X912973D2*
X1277000D1*
X-4590990Y-906667D2*
X-2754943D1*
X-2643140D2*
X-2501780D1*
X-2292983D2*
X-1695997D1*
X-1606343D2*
X-1434493D1*
X-1264527D2*
X-1248633D1*
X139400D2*
X369277D1*
X518073D2*
X614177D1*
X912973D2*
X1277000D1*
X-4590990Y-916333D2*
X-2754943D1*
X-2643140D2*
X-2501780D1*
X-2292983D2*
X-1709883D1*
X-1592473D2*
X-1437347D1*
X-1261673D2*
X-1238967D1*
X139400D2*
X369277D1*
X518073D2*
X614177D1*
X912973D2*
X1277000D1*
X-4590990Y-926000D2*
X-2754943D1*
X-2643140D2*
X-2501780D1*
X-2292983D2*
X-1719630D1*
X-1582710D2*
X-1439063D1*
X-1259957D2*
X-1229300D1*
X139400D2*
X369277D1*
X912973D2*
X1277000D1*
X-4590990Y-935667D2*
X-2754943D1*
X-2643140D2*
X-2501780D1*
X-2292983D2*
X-1726917D1*
X-1575423D2*
X-1439710D1*
X-1259330D2*
X-1219630D1*
X139400D2*
X369277D1*
X912973D2*
X1277000D1*
X-4590990Y-945333D2*
X-2754943D1*
X-2643140D2*
X-2501780D1*
X-2292983D2*
X-1732383D1*
X-1569957D2*
X-1439300D1*
X-1259740D2*
X-1209983D1*
X139400D2*
X369277D1*
X912973D2*
X1277000D1*
X-4590990Y-955000D2*
X-2754943D1*
X-2643140D2*
X-2501780D1*
X-2292983D2*
X-1736407D1*
X-1565950D2*
X-1443243D1*
X-1261207D2*
X-1200313D1*
X139400D2*
X369277D1*
X912973D2*
X1277000D1*
X-4590990Y-964667D2*
X-2754943D1*
X-2643140D2*
X-2501780D1*
X-2292983D2*
X-1739180D1*
X-1563177D2*
X-1447347D1*
X-1263803D2*
X-1190647D1*
X216040D2*
X369277D1*
X912973D2*
X1277000D1*
X-4590990Y-974333D2*
X-2754943D1*
X-2643140D2*
X-2501780D1*
X-2292983D2*
X-1740803D1*
X-1561537D2*
X-1449473D1*
X-1267630D2*
X-1180980D1*
X229557D2*
X369277D1*
X912973D2*
X1277000D1*
X-4590990Y-984000D2*
X-2754943D1*
X-2643140D2*
X-2501780D1*
X-2292983D2*
X-1741370D1*
X-1560970D2*
X-1449903D1*
X-1272883D2*
X-1171310D1*
X235903D2*
X369277D1*
X912973D2*
X1277000D1*
X-4590990Y-993667D2*
X-2754943D1*
X-2643140D2*
X-2501780D1*
X-2292983D2*
X-1740880D1*
X-1561460D2*
X-1449903D1*
X-1279857D2*
X-1161643D1*
X238873D2*
X369277D1*
X912973D2*
X1277000D1*
X-4590990Y-1003333D2*
X-2754943D1*
X-2643140D2*
X-2501780D1*
X-2292983D2*
X-1739337D1*
X-1563020D2*
X-1449903D1*
X-1289193D2*
X-1151973D1*
X239263D2*
X369277D1*
X912973D2*
X1277000D1*
X-4590990Y-1013000D2*
X-2754943D1*
X-2643140D2*
X-2501780D1*
X-2292983D2*
X-1736643D1*
X-1565697D2*
X-1449903D1*
X-1302280D2*
X-1142307D1*
X237133D2*
X369277D1*
X912973D2*
X1277000D1*
X-4590990Y-1022667D2*
X-2754943D1*
X-2643140D2*
X-2501780D1*
X-2292983D2*
X-1732717D1*
X-1569623D2*
X-1449903D1*
X-1324643D2*
X-1132640D1*
X231997D2*
X369277D1*
X912973D2*
X1277000D1*
X-4590990Y-1032333D2*
X-2754943D1*
X-2643140D2*
X-2501780D1*
X-2292983D2*
X-1727367D1*
X-1574973D2*
X-1449903D1*
X-1338100D2*
X-1121720D1*
X221723D2*
X369277D1*
X912973D2*
X1277000D1*
X-4590990Y-1042000D2*
X-2754943D1*
X-2643140D2*
X-2501780D1*
X-2292983D2*
X-1720237D1*
X-1582103D2*
X-1449903D1*
X-1338100D2*
X-483810D1*
X-310013D2*
X-253810D1*
X-80013D2*
X-23810D1*
X149987D2*
X369277D1*
X905867D2*
X1277000D1*
X-4590990Y-1051667D2*
X-2754943D1*
X-2643140D2*
X-2501780D1*
X-2292983D2*
X-1710707D1*
X-1591653D2*
X-1449903D1*
X-1338100D2*
X-483810D1*
X-310013D2*
X-253810D1*
X-80013D2*
X-23810D1*
X149987D2*
X369277D1*
X905867D2*
X1277000D1*
X-4590990Y-1061333D2*
X-2754943D1*
X-2643140D2*
X-1709903D1*
X-1598100D2*
X-1449903D1*
X-1338100D2*
X-483810D1*
X-310013D2*
X-253810D1*
X-80013D2*
X-23810D1*
X149987D2*
X369277D1*
X905867D2*
X1277000D1*
X-4590990Y-1071000D2*
X-2754943D1*
X-2643140D2*
X-1709903D1*
X-1598100D2*
X-1449903D1*
X-1338100D2*
X-483810D1*
X-310013D2*
X-253810D1*
X-80013D2*
X-23810D1*
X149987D2*
X369277D1*
X905867D2*
X1277000D1*
X-4590990Y-1080667D2*
X-2754943D1*
X-2643140D2*
X-1709903D1*
X-1598100D2*
X-1449903D1*
X-1338100D2*
X-483810D1*
X-310013D2*
X-253810D1*
X-80013D2*
X-23810D1*
X236450D2*
X369277D1*
X905867D2*
X1084587D1*
X1233403D2*
X1277000D1*
X-4590990Y-1090333D2*
X-2754943D1*
X-2643140D2*
X-1709903D1*
X-1598100D2*
X-1449903D1*
X-1338100D2*
X-483810D1*
X-310013D2*
X-253810D1*
X-80013D2*
X-23810D1*
X248130D2*
X369277D1*
X905867D2*
X1084587D1*
X1233403D2*
X1277000D1*
X-4590990Y-1100000D2*
X-2754943D1*
X-2643140D2*
X-1709903D1*
X-1598100D2*
X-1449903D1*
X-1338100D2*
X-483810D1*
X-310013D2*
X-253810D1*
X-80013D2*
X-23810D1*
X257800D2*
X369277D1*
X1233403D2*
X1277000D1*
X-4590990Y-1109667D2*
X-2754943D1*
X-2643140D2*
X-1709903D1*
X-1598100D2*
X-1449903D1*
X-1338100D2*
X-483810D1*
X-310013D2*
X-253810D1*
X-80013D2*
X-23810D1*
X267467D2*
X369277D1*
X1233403D2*
X1277000D1*
X-4590990Y-1119333D2*
X-2754943D1*
X-2643140D2*
X-1709903D1*
X-1598100D2*
X-1449903D1*
X-1338100D2*
X-483810D1*
X-310013D2*
X-253810D1*
X-80013D2*
X-23810D1*
X277133D2*
X369277D1*
X1233403D2*
X1277000D1*
X-4590990Y-1129000D2*
X-2754943D1*
X-2643140D2*
X-1709903D1*
X-1598100D2*
X-1449903D1*
X-1338100D2*
X-483810D1*
X-310013D2*
X-253810D1*
X-80013D2*
X-23810D1*
X286803D2*
X369277D1*
X1233403D2*
X1277000D1*
X-4590990Y-1138667D2*
X-2754943D1*
X-2643140D2*
X-1709903D1*
X-1598100D2*
X-1449903D1*
X-1338100D2*
X-483810D1*
X-310013D2*
X-253810D1*
X-80013D2*
X-23810D1*
X296293D2*
X369277D1*
X1233403D2*
X1277000D1*
X-4590990Y-1148333D2*
X-2754943D1*
X-2643140D2*
X-1709903D1*
X-1598100D2*
X-1449903D1*
X-1338100D2*
X-483810D1*
X-310013D2*
X-253810D1*
X-80013D2*
X-23810D1*
X303093D2*
X369277D1*
X1233403D2*
X1277000D1*
X-4590990Y-1158000D2*
X-2754943D1*
X-2643140D2*
X-1709903D1*
X-1598100D2*
X-1449903D1*
X-1338100D2*
X-483810D1*
X-310013D2*
X-253810D1*
X-80013D2*
X-23810D1*
X1233403D2*
X1277000D1*
X-4590990Y-1167667D2*
X-2754943D1*
X-2643140D2*
X-1709903D1*
X-1598100D2*
X-1449903D1*
X-1338100D2*
X-670490D1*
X-663150D2*
X-483810D1*
X-310013D2*
X-253810D1*
X-80013D2*
X-23810D1*
X1233403D2*
X1277000D1*
X-4590990Y-1177333D2*
X-2754943D1*
X-2643140D2*
X-1709903D1*
X-1598100D2*
X-1449903D1*
X-1338100D2*
X-714747D1*
X-618900D2*
X-483810D1*
X-310013D2*
X-253810D1*
X-80013D2*
X-23810D1*
X1233403D2*
X1277000D1*
X-4590990Y-1187000D2*
X-2754943D1*
X-2643140D2*
X-1713400D1*
X-1594603D2*
X-1453400D1*
X-1334603D2*
X-732697D1*
X-600930D2*
X-483810D1*
X-310013D2*
X-253810D1*
X-80013D2*
X-23810D1*
X373423D2*
X391777D1*
X1233403D2*
X1277000D1*
X-4590990Y-1196667D2*
X-2795940D1*
X-2602143D2*
X-2495940D1*
X-2302143D2*
X-1713400D1*
X-1594603D2*
X-1453400D1*
X-1334603D2*
X-745490D1*
X-588157D2*
X-483810D1*
X-310013D2*
X-253810D1*
X-80013D2*
X-23810D1*
X373423D2*
X392050D1*
X1233403D2*
X1277000D1*
X-4590990Y-1206333D2*
X-2795940D1*
X-2602143D2*
X-2495940D1*
X-2302143D2*
X-1713400D1*
X-1334603D2*
X-755373D1*
X-578257D2*
X-483810D1*
X-310013D2*
X-253810D1*
X-80013D2*
X-23810D1*
X373423D2*
X394020D1*
X1233403D2*
X1277000D1*
X-4590990Y-1216000D2*
X-2795940D1*
X-2602143D2*
X-2495940D1*
X-2302143D2*
X-1963400D1*
X-1724603D2*
X-1713400D1*
X-1334603D2*
X-1323400D1*
X-1084603D2*
X-763283D1*
X-570367D2*
X-483810D1*
X-310013D2*
X-253810D1*
X-80013D2*
X-23810D1*
X373423D2*
X398143D1*
X1233403D2*
X1277000D1*
X-4590990Y-1225667D2*
X-2795940D1*
X-2602143D2*
X-2495940D1*
X-2302143D2*
X-1963400D1*
X-1724603D2*
X-1713400D1*
X-1334603D2*
X-1323400D1*
X-1084603D2*
X-769670D1*
X-563960D2*
X-483810D1*
X-310013D2*
X-253810D1*
X-80013D2*
X-23810D1*
X373423D2*
X405097D1*
X1233403D2*
X1277000D1*
X-4590990Y-1235333D2*
X-2795940D1*
X-2602143D2*
X-2495940D1*
X-2302143D2*
X-1963400D1*
X-1724603D2*
X-1713400D1*
X-1334603D2*
X-1323400D1*
X-1084603D2*
X-774807D1*
X-558823D2*
X-483810D1*
X-310013D2*
X-253810D1*
X-80013D2*
X-23810D1*
X373423D2*
X414687D1*
X1233403D2*
X1277000D1*
X-4590990Y-1245000D2*
X-2795940D1*
X-2602143D2*
X-2495940D1*
X-2302143D2*
X-1963400D1*
X-1724603D2*
X-1713400D1*
X-1334603D2*
X-1323400D1*
X-1084603D2*
X-778890D1*
X-554760D2*
X-483810D1*
X-310013D2*
X-253810D1*
X-80013D2*
X-23810D1*
X373423D2*
X424353D1*
X1233403D2*
X1277000D1*
X-4590990Y-1254667D2*
X-4137540D1*
X-4086577D2*
X-3687540D1*
X-3636577D2*
X-3464220D1*
X-3405403D2*
X-3014220D1*
X-2955403D2*
X-2795940D1*
X-2602143D2*
X-2495940D1*
X-2302143D2*
X-1963400D1*
X-1724603D2*
X-1713400D1*
X-1334603D2*
X-1323400D1*
X-1084603D2*
X-781993D1*
X-551653D2*
X-483810D1*
X-310013D2*
X-253810D1*
X-80013D2*
X-23810D1*
X373423D2*
X434020D1*
X1233403D2*
X1277000D1*
X-4590990Y-1264333D2*
X-4164493D1*
X-4059603D2*
X-3714493D1*
X-3609603D2*
X-3489063D1*
X-3380560D2*
X-3039063D1*
X-2930560D2*
X-2795940D1*
X-2602143D2*
X-2495940D1*
X-2302143D2*
X-1963400D1*
X-1724603D2*
X-1713400D1*
X-1334603D2*
X-1323400D1*
X-1084603D2*
X-784220D1*
X-549427D2*
X-483810D1*
X-310013D2*
X-253810D1*
X-80013D2*
X-23810D1*
X373423D2*
X443690D1*
X1233403D2*
X1277000D1*
X-4590990Y-1274000D2*
X-4180197D1*
X-4043920D2*
X-3730197D1*
X-3593920D2*
X-3504220D1*
X-3365423D2*
X-3054220D1*
X-2915423D2*
X-2795940D1*
X-2602143D2*
X-2495940D1*
X-2302143D2*
X-1963400D1*
X-1724603D2*
X-1713400D1*
X-1334603D2*
X-1323400D1*
X-1084603D2*
X-785607D1*
X-548040D2*
X-483810D1*
X-310013D2*
X-253810D1*
X-80013D2*
X-23810D1*
X373423D2*
X453357D1*
X1233403D2*
X1277000D1*
X-4590990Y-1283667D2*
X-4191663D1*
X-4032437D2*
X-3741663D1*
X-3582437D2*
X-3515393D1*
X-3354233D2*
X-3065393D1*
X-2904233D2*
X-2795940D1*
X-2602143D2*
X-2495940D1*
X-2302143D2*
X-1963400D1*
X-1724603D2*
X-1713400D1*
X-1334603D2*
X-1323400D1*
X-1084603D2*
X-786193D1*
X-547437D2*
X-483810D1*
X-310013D2*
X-253810D1*
X-80013D2*
X-23810D1*
X373423D2*
X463027D1*
X1233403D2*
X1277000D1*
X-4590990Y-1293333D2*
X-4200627D1*
X-4023490D2*
X-3750627D1*
X-3573490D2*
X-3524143D1*
X-3345483D2*
X-3074143D1*
X-2895483D2*
X-2795940D1*
X-2602143D2*
X-2495940D1*
X-2302143D2*
X-1963400D1*
X-1724603D2*
X-1713400D1*
X-1334603D2*
X-1323400D1*
X-1084603D2*
X-785997D1*
X-547650D2*
X-483810D1*
X-310013D2*
X-253810D1*
X-80013D2*
X-23810D1*
X373423D2*
X472673D1*
X1233403D2*
X1277000D1*
X-4590990Y-1303000D2*
X-4207757D1*
X-4016360D2*
X-3757757D1*
X-3566360D2*
X-3531117D1*
X-3338510D2*
X-3081117D1*
X-2888510D2*
X-2795940D1*
X-2602143D2*
X-2495940D1*
X-2302143D2*
X-1963400D1*
X-1724603D2*
X-1713400D1*
X-1334603D2*
X-1323400D1*
X-1084603D2*
X-785003D1*
X-548647D2*
X-483810D1*
X-310013D2*
X-253810D1*
X-80013D2*
X-23810D1*
X373423D2*
X482343D1*
X1233403D2*
X1277000D1*
X-4590990Y-1312667D2*
X-4213460D1*
X-4010657D2*
X-3763460D1*
X-3560657D2*
X-3536700D1*
X-3332923D2*
X-3086700D1*
X-2882923D2*
X-2795940D1*
X-2602143D2*
X-2495940D1*
X-2302143D2*
X-1963400D1*
X-1724603D2*
X-1713400D1*
X-1334603D2*
X-1323400D1*
X-1084603D2*
X-783187D1*
X-550463D2*
X-214670D1*
X-102867D2*
X134627D1*
X373423D2*
X492147D1*
X1233403D2*
X1277000D1*
X-4590990Y-1322333D2*
X-4217970D1*
X-4006147D2*
X-3767970D1*
X-3556147D2*
X-3541097D1*
X-3328530D2*
X-3091097D1*
X-2878530D2*
X-2795940D1*
X-2602143D2*
X-2495940D1*
X-2302143D2*
X-1963400D1*
X-1724603D2*
X-1713400D1*
X-1334603D2*
X-1323400D1*
X-1084603D2*
X-780510D1*
X-553120D2*
X-214670D1*
X-102867D2*
X134627D1*
X373423D2*
X508240D1*
X1233403D2*
X1277000D1*
X-4590990Y-1332000D2*
X-4221427D1*
X-4002690D2*
X-3771427D1*
X-3552690D2*
X-3544473D1*
X-3325150D2*
X-3094473D1*
X-2875150D2*
X-2795940D1*
X-2602143D2*
X-2495940D1*
X-2302143D2*
X-1963400D1*
X-1724603D2*
X-1713400D1*
X-1334603D2*
X-1323400D1*
X-1084603D2*
X-776937D1*
X-556713D2*
X-214670D1*
X-102867D2*
X134627D1*
X373423D2*
X614177D1*
X1233403D2*
X1277000D1*
X-4590990Y-1341667D2*
X-4223947D1*
X-4000170D2*
X-3773947D1*
X-3550170D2*
X-3546887D1*
X-3322730D2*
X-3096897D1*
X-2872730D2*
X-2795940D1*
X-2602143D2*
X-2495940D1*
X-2302143D2*
X-1963400D1*
X-1724603D2*
X-1713400D1*
X-1334603D2*
X-1323400D1*
X-1084603D2*
X-772347D1*
X-561303D2*
X-214670D1*
X-102867D2*
X134627D1*
X373423D2*
X614177D1*
X1233403D2*
X1277000D1*
X-4590990Y-1351333D2*
X-4225587D1*
X-3998530D2*
X-3775587D1*
X-3321167D2*
X-3098460D1*
X-2871167D2*
X-2795940D1*
X-2602143D2*
X-2495940D1*
X-2302143D2*
X-1963400D1*
X-1724603D2*
X-1713400D1*
X-1334603D2*
X-1323400D1*
X-1084603D2*
X-766583D1*
X-567043D2*
X-214670D1*
X-102867D2*
X134627D1*
X373423D2*
X614177D1*
X1233403D2*
X1277000D1*
X-4590990Y-1361000D2*
X-4226370D1*
X-3997747D2*
X-3776370D1*
X-3320463D2*
X-3099163D1*
X-2870463D2*
X-2795940D1*
X-2602143D2*
X-2495940D1*
X-2302143D2*
X-1963400D1*
X-1724603D2*
X-1713400D1*
X-1334603D2*
X-1323400D1*
X-1084603D2*
X-759473D1*
X-574173D2*
X-214670D1*
X-102867D2*
X134627D1*
X373423D2*
X614177D1*
X1233403D2*
X1277000D1*
X-4590990Y-1370667D2*
X-4226330D1*
X-3997787D2*
X-3776330D1*
X-3320580D2*
X-3099043D1*
X-2870580D2*
X-2795940D1*
X-2602143D2*
X-2495940D1*
X-2302143D2*
X-1963400D1*
X-1724603D2*
X-1713400D1*
X-1334603D2*
X-1323400D1*
X-1084603D2*
X-750627D1*
X-583020D2*
X-214670D1*
X-102867D2*
X134627D1*
X373423D2*
X614177D1*
X1210903D2*
X1277000D1*
X-4590990Y-1380333D2*
X-4225470D1*
X-3998647D2*
X-3775470D1*
X-3321537D2*
X-3098087D1*
X-2871537D2*
X-2795940D1*
X-2602143D2*
X-2495940D1*
X-2302143D2*
X-1963400D1*
X-1724603D2*
X-1713400D1*
X-1334603D2*
X-1323400D1*
X-1084603D2*
X-739417D1*
X-594213D2*
X-214670D1*
X-102867D2*
X134627D1*
X373423D2*
X614177D1*
X1210903D2*
X1277000D1*
X-4590990Y-1390000D2*
X-4223753D1*
X-4000367D2*
X-3773753D1*
X-3550367D2*
X-3546310D1*
X-3323333D2*
X-3096290D1*
X-2873333D2*
X-2795940D1*
X-2602143D2*
X-2495940D1*
X-2302143D2*
X-1963400D1*
X-1724603D2*
X-1713400D1*
X-1594603D2*
X-1453400D1*
X-1334603D2*
X-1323400D1*
X-1084603D2*
X-724473D1*
X-609153D2*
X-214670D1*
X-102867D2*
X614177D1*
X1210903D2*
X1277000D1*
X-4590990Y-1399667D2*
X-4221153D1*
X-4002963D2*
X-3771153D1*
X-3552963D2*
X-3543617D1*
X-3326030D2*
X-3093617D1*
X-2876030D2*
X-2795940D1*
X-2602143D2*
X-2495940D1*
X-2302143D2*
X-1963400D1*
X-1724603D2*
X-1323400D1*
X-1084603D2*
X-701097D1*
X-632553D2*
X-214670D1*
X-102867D2*
X614177D1*
X1210903D2*
X1277000D1*
X-4590990Y-1409333D2*
X-4217600D1*
X-4006517D2*
X-3767600D1*
X-3556517D2*
X-3539943D1*
X-3329680D2*
X-3089943D1*
X-2879680D2*
X-2795940D1*
X-2602143D2*
X-2495940D1*
X-2302143D2*
X-1963400D1*
X-1724603D2*
X-1323400D1*
X-1084603D2*
X-214670D1*
X-102867D2*
X224060D1*
X284010D2*
X614177D1*
X1210903D2*
X1277000D1*
X-4590990Y-1419000D2*
X-4212990D1*
X-4011127D2*
X-3762990D1*
X-3561127D2*
X-3535237D1*
X-3334390D2*
X-3085237D1*
X-2884390D2*
X-2795940D1*
X-2602143D2*
X-2495940D1*
X-2302143D2*
X-1963400D1*
X-1724603D2*
X-1323400D1*
X-1084603D2*
X-214670D1*
X-102867D2*
X198573D1*
X309480D2*
X614177D1*
X1210903D2*
X1277000D1*
X-4590990Y-1428667D2*
X-4207170D1*
X-4016947D2*
X-3757170D1*
X-3566947D2*
X-3529280D1*
X-3340347D2*
X-3079280D1*
X-2890347D2*
X-2795940D1*
X-2602143D2*
X-2495940D1*
X-2302143D2*
X-1778400D1*
X-1269603D2*
X-786213D1*
X-547417D2*
X-214670D1*
X-102867D2*
X182987D1*
X325063D2*
X614177D1*
X1210903D2*
X1277000D1*
X-4590990Y-1438333D2*
X-4199883D1*
X-4024233D2*
X-3749883D1*
X-3574233D2*
X-3521837D1*
X-3347787D2*
X-3071837D1*
X-2897787D2*
X-2795940D1*
X-2602143D2*
X-2495940D1*
X-2302143D2*
X-1778400D1*
X-1269603D2*
X-786213D1*
X-547417D2*
X-214670D1*
X-102867D2*
X171443D1*
X336607D2*
X614177D1*
X1210903D2*
X1277000D1*
X-4590990Y-1448000D2*
X-4190743D1*
X-4033373D2*
X-3740743D1*
X-3583373D2*
X-3512483D1*
X-3357143D2*
X-3062483D1*
X-2907143D2*
X-2795940D1*
X-2602143D2*
X-2495940D1*
X-2302143D2*
X-1778400D1*
X-1269603D2*
X-786213D1*
X-547417D2*
X-214670D1*
X-102867D2*
X162343D1*
X345710D2*
X614177D1*
X1210903D2*
X1277000D1*
X-4590990Y-1457667D2*
X-4178967D1*
X-4045130D2*
X-3728967D1*
X-3595130D2*
X-3500393D1*
X-3369233D2*
X-3050393D1*
X-2919233D2*
X-2795940D1*
X-2602143D2*
X-2495940D1*
X-2302143D2*
X-1978400D1*
X-1069603D2*
X-786213D1*
X-547417D2*
X-214670D1*
X-102867D2*
X155037D1*
X353013D2*
X646677D1*
X1210903D2*
X1277000D1*
X-4590990Y-1467333D2*
X-4162737D1*
X-4061380D2*
X-3712737D1*
X-3611380D2*
X-3483497D1*
X-3386127D2*
X-3033497D1*
X-2936127D2*
X-2795940D1*
X-2602143D2*
X-2495940D1*
X-2302143D2*
X-1978400D1*
X-1069603D2*
X-786213D1*
X-547417D2*
X-214670D1*
X-102867D2*
X149140D1*
X358913D2*
X614177D1*
X1210903D2*
X1277000D1*
X-4590990Y-1477000D2*
X-4133147D1*
X-4090970D2*
X-3683147D1*
X-3640970D2*
X-3449670D1*
X-3419957D2*
X-2999670D1*
X-2969957D2*
X-2795940D1*
X-2602143D2*
X-2495940D1*
X-2302143D2*
X-1978400D1*
X-1069603D2*
X-786213D1*
X-547417D2*
X-214670D1*
X-102867D2*
X144413D1*
X363640D2*
X614177D1*
X1210903D2*
X1277000D1*
X-4590990Y-1486667D2*
X-2795940D1*
X-2602143D2*
X-2495940D1*
X-2302143D2*
X-1978400D1*
X-1069603D2*
X-786213D1*
X-102867D2*
X140720D1*
X367350D2*
X614177D1*
X1210903D2*
X1277000D1*
X-4590990Y-1496333D2*
X-2795940D1*
X-2602143D2*
X-2495940D1*
X-2302143D2*
X-1978400D1*
X-1069603D2*
X-786213D1*
X-102867D2*
X137927D1*
X370123D2*
X614177D1*
X1210903D2*
X1277000D1*
X-4590990Y-1506000D2*
X-2795940D1*
X-2602143D2*
X-2495940D1*
X-2302143D2*
X-1978400D1*
X-1069603D2*
X-786213D1*
X-102867D2*
X136033D1*
X372037D2*
X614177D1*
X1210903D2*
X1277000D1*
X-4590990Y-1515667D2*
X-2795940D1*
X-2602143D2*
X-2495940D1*
X-2302143D2*
X-1978400D1*
X-1069603D2*
X-786213D1*
X-102867D2*
X134940D1*
X373130D2*
X614177D1*
X1210357D2*
X1277000D1*
X-4590990Y-1525333D2*
X-2795940D1*
X-2602143D2*
X-2495940D1*
X-2302143D2*
X-1978400D1*
X-1069603D2*
X-786213D1*
X-102867D2*
X134627D1*
X373423D2*
X614177D1*
X1207957D2*
X1277000D1*
X-4590990Y-1535000D2*
X-2795940D1*
X-2602143D2*
X-2495940D1*
X-2302143D2*
X-1978400D1*
X-1069603D2*
X-786213D1*
X-102867D2*
X135133D1*
X372937D2*
X614177D1*
X1203327D2*
X1277000D1*
X-4590990Y-1544667D2*
X-1978400D1*
X-1069603D2*
X-786213D1*
X-103060D2*
X136423D1*
X371627D2*
X614177D1*
X1195593D2*
X1277000D1*
X-4590990Y-1554333D2*
X-1978400D1*
X-1069603D2*
X-786213D1*
X-104760D2*
X138553D1*
X369517D2*
X614177D1*
X1185923D2*
X1277000D1*
X-4590990Y-1564000D2*
X-1978400D1*
X-1069603D2*
X-786213D1*
X-108373D2*
X141540D1*
X366510D2*
X614177D1*
X1176257D2*
X1277000D1*
X-4590990Y-1573667D2*
X-1978400D1*
X-1069603D2*
X-786213D1*
X-109370D2*
X145487D1*
X362563D2*
X614177D1*
X1166587D2*
X1277000D1*
X-4590990Y-1583333D2*
X-1978400D1*
X-1069603D2*
X-786213D1*
X-109370D2*
X150487D1*
X357563D2*
X614177D1*
X1156940D2*
X1277000D1*
X-4590990Y-1593000D2*
X-1978400D1*
X-1069603D2*
X-786213D1*
X-109213D2*
X156717D1*
X351333D2*
X614177D1*
X1147270D2*
X1277000D1*
X-4590990Y-1602667D2*
X-1978400D1*
X-1069603D2*
X-786213D1*
X-547417D2*
X-208167D1*
X1137603D2*
X1277000D1*
X-4590990Y-1612333D2*
X-1978400D1*
X-1069603D2*
X-786213D1*
X-547417D2*
X-208167D1*
X1127937D2*
X1277000D1*
X-4590990Y-1622000D2*
X-1978400D1*
X-1069603D2*
X-786213D1*
X-547417D2*
X-207307D1*
X1118267D2*
X1277000D1*
X-4590990Y-1631667D2*
X-1978400D1*
X-1069603D2*
X-786213D1*
X-547417D2*
X-204377D1*
X1108600D2*
X1277000D1*
X-4590990Y-1641333D2*
X-1978400D1*
X-1069603D2*
X-786213D1*
X-547417D2*
X-198927D1*
X1098930D2*
X1277000D1*
X-4590990Y-1651000D2*
X-1978400D1*
X-1069603D2*
X-786213D1*
X-547417D2*
X-190120D1*
X1089263D2*
X1277000D1*
X-4590990Y-1660667D2*
X-1978400D1*
X-1069603D2*
X-180450D1*
X1078520D2*
X1277000D1*
X620173Y-895077D2*
X911973D1*
Y-1041877D1*
X904860D1*
X904863Y-1092693D1*
X1085583Y-1092713D1*
X1085597Y-1072610D1*
X1232397D1*
Y-1369410D1*
X1209877D1*
X1209897Y-1508283D1*
X1209740Y-1512277D1*
X1209270Y-1516247D1*
X1208490Y-1520167D1*
X1207407Y-1524013D1*
X1206023Y-1527763D1*
X1204350Y-1531390D1*
X1202397Y-1534880D1*
X1200177Y-1538200D1*
X1197700Y-1541340D1*
X1191453Y-1547810D1*
X1084273Y-1654993D1*
X1081337Y-1657703D1*
X1078197Y-1660180D1*
X1074860Y-1662407D1*
X1073000Y-1664000D1*
X1278000D1*
Y2206000D1*
X-628583D1*
X-628600Y1439600D1*
X-2311400D1*
Y1542277D1*
X-3494400Y1542267D1*
Y2205997D1*
X-4591980Y2206000D1*
X-4592000Y-1664020D1*
X-1777410Y-1664000D1*
X-1777400Y-1663230D1*
X-1977400Y-1663233D1*
Y-1456433D1*
X-1777397D1*
X-1777400Y-1426433D1*
X-1270600D1*
Y-1456430D1*
X-1070600Y-1456433D1*
Y-1663233D1*
X-1270597D1*
X-1270600Y-1664000D1*
X-176120D1*
X-192990Y-1647123D1*
X-195570Y-1644333D1*
X-197923Y-1641350D1*
X-200033Y-1638190D1*
X-201893Y-1634873D1*
X-203483Y-1631423D1*
X-204797Y-1627857D1*
X-205830Y-1624200D1*
X-206570Y-1620470D1*
X-207017Y-1616697D1*
X-207167Y-1607900D1*
Y-1594950D1*
X-548433Y-1594937D1*
X-548420Y-1658437D1*
X-785220D1*
Y-1421637D1*
X-548420D1*
Y-1485133D1*
X-213667Y-1485037D1*
Y-1304900D1*
X-252817Y-1304897D1*
Y-1038393D1*
X-311037Y-1038400D1*
X-311017Y-1304897D1*
X-482817D1*
Y-1038400D1*
X-1103013Y-1038283D1*
X-1108963Y-1037340D1*
X-1114697Y-1035477D1*
X-1120063Y-1032740D1*
X-1124940Y-1029200D1*
X-1134223Y-1020083D1*
X-1329200Y-824940D1*
X-1332740Y-820063D1*
X-1335477Y-814697D1*
X-1337340Y-808963D1*
X-1338283Y-803013D1*
X-1338400Y-790000D1*
X-1338283Y-296987D1*
X-1337340Y-291037D1*
X-1335477Y-285303D1*
X-1332740Y-279937D1*
X-1329200Y-275060D1*
X-1324940Y-270800D1*
X-1320063Y-267260D1*
X-1314697Y-264523D1*
X-1308963Y-262660D1*
X-1303013Y-261717D1*
X-1290000Y-261600D1*
X103013Y-261717D1*
X108963Y-262660D1*
X114697Y-264523D1*
X120063Y-267257D1*
X124940Y-270800D1*
X129200Y-275060D1*
X132743Y-279937D1*
X135477Y-285303D1*
X137340Y-291037D1*
X138283Y-296987D1*
X138400Y-310000D1*
Y-691310D1*
X194040Y-691300D1*
X194037Y-187620D1*
X169153Y-212487D1*
X165987Y-215413D1*
X162603Y-218083D1*
X159020Y-220477D1*
X155257Y-222583D1*
X151343Y-224387D1*
X147300Y-225880D1*
X143150Y-227050D1*
X138920Y-227890D1*
X134640Y-228397D1*
X125333Y-228567D1*
X-2638667D1*
X-2642973Y-228397D1*
X-2647253Y-227890D1*
X-2651483Y-227050D1*
X-2655633Y-225880D1*
X-2659677Y-224387D1*
X-2663590Y-222583D1*
X-2667353Y-220477D1*
X-2670937Y-218083D1*
X-2674320Y-215413D1*
X-2681023Y-208950D1*
X-2848820Y-41153D1*
X-2851747Y-37987D1*
X-2854417Y-34603D1*
X-2856810Y-31020D1*
X-2861487Y-22840D1*
X-2865487Y-19843D1*
X-2869313Y-16623D1*
X-2872953Y-13197D1*
X-2876393Y-9570D1*
X-2879627Y-5757D1*
X-2882640Y-1767D1*
X-2885427Y2383D1*
X-2887977Y6683D1*
X-2890280Y11120D1*
X-2892333Y15680D1*
X-2894127Y20347D1*
X-2895657Y25107D1*
X-2896917Y29943D1*
X-2897903Y34843D1*
X-2898613Y39793D1*
X-2899047Y44773D1*
X-2899200Y49770D1*
X-2899073Y54767D1*
X-2898667Y59750D1*
X-2897980Y64703D1*
X-2897017Y69610D1*
X-2895783Y74453D1*
X-2894277Y79220D1*
X-2892510Y83897D1*
X-2890480Y88467D1*
X-2888200Y92913D1*
X-2885673Y97227D1*
X-2882907Y101393D1*
X-2879913Y105397D1*
X-2876700Y109227D1*
X-2873277Y112870D1*
X-2869657Y116317D1*
X-2865847Y119553D1*
X-2861863Y122573D1*
X-2857713Y125367D1*
X-2853417Y127920D1*
X-2848983Y130230D1*
X-2844427Y132290D1*
X-2839763Y134087D1*
X-2835023Y135617D1*
X-2993843Y135620D1*
X-3379900Y-250453D1*
X-3379913Y-615207D1*
X-3372800Y-619510D1*
X-3364680Y-625340D1*
X-3357103Y-631863D1*
X-3350130Y-639027D1*
X-3343817Y-646780D1*
X-3338213Y-655057D1*
X-3333357Y-663793D1*
X-3329290Y-672927D1*
X-3326043Y-682380D1*
X-3323640Y-692083D1*
X-3322103Y-701963D1*
X-3321440Y-711937D1*
X-3321523Y-719450D1*
X-3322403Y-729407D1*
X-3324157Y-739247D1*
X-3326773Y-748897D1*
X-3330227Y-758277D1*
X-3334490Y-767320D1*
X-3339537Y-775950D1*
X-3345323Y-784100D1*
X-3351807Y-791710D1*
X-3358933Y-798720D1*
X-3366650Y-805077D1*
X-3374897Y-810727D1*
X-3383607Y-815630D1*
X-3392717Y-819747D1*
X-3402153Y-823047D1*
X-3411847Y-825500D1*
X-3421713Y-827090D1*
X-3431687Y-827807D1*
X-3441680Y-827643D1*
X-3451623Y-826597D1*
X-3461433Y-824680D1*
X-3471040Y-821907D1*
X-3480363Y-818300D1*
X-3489330Y-813887D1*
X-3497877Y-808697D1*
X-3505930Y-802777D1*
X-3513433Y-796170D1*
X-3520327Y-788930D1*
X-3526553Y-781110D1*
X-3532067Y-772770D1*
X-3536827Y-763980D1*
X-3540790Y-754803D1*
X-3543933Y-745313D1*
X-3546227Y-735583D1*
X-3547657Y-725687D1*
X-3548207Y-715707D1*
X-3547877Y-705717D1*
X-3546667Y-695793D1*
X-3544590Y-686013D1*
X-3541660Y-676457D1*
X-3537897Y-667193D1*
X-3533337Y-658300D1*
X-3528007Y-649840D1*
X-3521957Y-641883D1*
X-3515227Y-634490D1*
X-3507870Y-627720D1*
X-3499950Y-621623D1*
X-3491520Y-616247D1*
X-3489723Y-615260D1*
X-3489713Y-227727D1*
X-3489543Y-223420D1*
X-3489037Y-219140D1*
X-3488197Y-214910D1*
X-3487027Y-210760D1*
X-3485533Y-206717D1*
X-3483730Y-202803D1*
X-3481623Y-199040D1*
X-3479230Y-195457D1*
X-3476560Y-192073D1*
X-3470097Y-185370D1*
X-3055387Y229340D1*
X-3052220Y232267D1*
X-3048837Y234937D1*
X-3045253Y237330D1*
X-3041490Y239437D1*
X-3037577Y241240D1*
X-3033533Y242733D1*
X-3029383Y243903D1*
X-3025153Y244743D1*
X-3020873Y245250D1*
X-3011567Y245420D1*
X-2688030D1*
X-2694840Y250910D1*
X-2698480Y254337D1*
X-2701920Y257963D1*
X-2705800Y262633D1*
X-3533633D1*
X-4057150Y-260883D1*
X-4057157Y-616177D1*
X-4050043Y-620453D1*
X-4041923Y-626283D1*
X-4034347Y-632807D1*
X-4027373Y-639970D1*
X-4021060Y-647723D1*
X-4015457Y-656000D1*
X-4010600Y-664737D1*
X-4006533Y-673870D1*
X-4003287Y-683323D1*
X-4000883Y-693027D1*
X-3999347Y-702907D1*
X-3998683Y-712880D1*
X-3998767Y-720393D1*
X-3999647Y-730350D1*
X-4001400Y-740190D1*
X-4004017Y-749840D1*
X-4007470Y-759220D1*
X-4011733Y-768263D1*
X-4016780Y-776893D1*
X-4022567Y-785043D1*
X-4029050Y-792653D1*
X-4036177Y-799663D1*
X-4043893Y-806020D1*
X-4052140Y-811670D1*
X-4060850Y-816573D1*
X-4069960Y-820690D1*
X-4079397Y-823990D1*
X-4089090Y-826443D1*
X-4098957Y-828033D1*
X-4108930Y-828750D1*
X-4118923Y-828587D1*
X-4128867Y-827540D1*
X-4138677Y-825623D1*
X-4148283Y-822850D1*
X-4157607Y-819243D1*
X-4166573Y-814830D1*
X-4175120Y-809640D1*
X-4183173Y-803720D1*
X-4190677Y-797113D1*
X-4197570Y-789873D1*
X-4203797Y-782053D1*
X-4209310Y-773713D1*
X-4214070Y-764923D1*
X-4218033Y-755747D1*
X-4221177Y-746257D1*
X-4223470Y-736527D1*
X-4224900Y-726630D1*
X-4225450Y-716650D1*
X-4225120Y-706660D1*
X-4223910Y-696737D1*
X-4221833Y-686957D1*
X-4218903Y-677400D1*
X-4215140Y-668137D1*
X-4210580Y-659243D1*
X-4205250Y-650783D1*
X-4199200Y-642827D1*
X-4192470Y-635433D1*
X-4185113Y-628663D1*
X-4177193Y-622567D1*
X-4168763Y-617190D1*
X-4166967Y-616203D1*
X-4166957Y-238150D1*
X-4166787Y-233843D1*
X-4166280Y-229563D1*
X-4165440Y-225333D1*
X-4164270Y-221183D1*
X-4162777Y-217140D1*
X-4160973Y-213227D1*
X-4158867Y-209463D1*
X-4156473Y-205880D1*
X-4153803Y-202497D1*
X-4147340Y-195793D1*
X-3595193Y356353D1*
X-3592027Y359280D1*
X-3588643Y361950D1*
X-3585060Y364343D1*
X-3581297Y366450D1*
X-3577383Y368253D1*
X-3573340Y369747D1*
X-3569190Y370917D1*
X-3564960Y371757D1*
X-3560680Y372263D1*
X-3551373Y372433D1*
X-2705847D1*
X-2704723Y373783D1*
X-3740493Y373770D1*
X-3738413Y364670D1*
X-3737690Y359723D1*
X-3737243Y354743D1*
X-3737077Y349287D1*
X-3737217Y344290D1*
X-3737637Y339307D1*
X-3738333Y334357D1*
X-3739310Y329453D1*
X-3740557Y324613D1*
X-3742073Y319850D1*
X-3743857Y315177D1*
X-3745897Y310613D1*
X-3748190Y306170D1*
X-3750727Y301863D1*
X-3753503Y297707D1*
X-3756507Y293710D1*
X-3759730Y289890D1*
X-3763163Y286253D1*
X-3766793Y282817D1*
X-3770610Y279587D1*
X-3774603Y276580D1*
X-3778757Y273797D1*
X-3783060Y271253D1*
X-3787500Y268957D1*
X-3792060Y266910D1*
X-3796730Y265123D1*
X-3801493Y263600D1*
X-3806333Y262347D1*
X-3811233Y261363D1*
X-3816183Y260660D1*
X-3821163Y260233D1*
X-3826160Y260087D1*
X-3831160Y260220D1*
X-3836140Y260633D1*
X-3841093Y261327D1*
X-3845997Y262293D1*
X-3850840Y263537D1*
X-3855607Y265047D1*
X-3860280Y266823D1*
X-3864847Y268857D1*
X-3869290Y271143D1*
X-3873603Y273677D1*
X-3877763Y276447D1*
X-3881763Y279443D1*
X-3885590Y282663D1*
X-3889230Y286090D1*
X-3892670Y289717D1*
X-3895903Y293530D1*
X-3898917Y297520D1*
X-3901703Y301670D1*
X-3905647Y308657D1*
X-3909493Y301863D1*
X-3912270Y297707D1*
X-3915273Y293710D1*
X-3918497Y289890D1*
X-3921930Y286253D1*
X-3925560Y282817D1*
X-3929377Y279587D1*
X-3933370Y276580D1*
X-3937523Y273797D1*
X-3941827Y271253D1*
X-3946267Y268957D1*
X-3950827Y266910D1*
X-3955497Y265123D1*
X-3960260Y263600D1*
X-3965100Y262347D1*
X-3970000Y261363D1*
X-3974950Y260660D1*
X-3979930Y260233D1*
X-3984927Y260087D1*
X-3989927Y260220D1*
X-3994907Y260633D1*
X-3999860Y261327D1*
X-4004763Y262293D1*
X-4009607Y263537D1*
X-4014373Y265047D1*
X-4019047Y266823D1*
X-4023613Y268857D1*
X-4028057Y271143D1*
X-4032370Y273677D1*
X-4036530Y276447D1*
X-4040530Y279443D1*
X-4044357Y282663D1*
X-4047997Y286090D1*
X-4051437Y289717D1*
X-4054670Y293530D1*
X-4057683Y297520D1*
X-4060470Y301670D1*
X-4063020Y305970D1*
X-4065323Y310407D1*
X-4067377Y314967D1*
X-4069170Y319633D1*
X-4070700Y324393D1*
X-4071960Y329230D1*
X-4072947Y334130D1*
X-4073657Y339080D1*
X-4074090Y344060D1*
X-4074243Y349057D1*
X-4074117Y354053D1*
X-4073710Y359037D1*
X-4073023Y363990D1*
X-4072060Y368897D1*
X-4070827Y373740D1*
X-4069320Y378507D1*
X-4067587Y383090D1*
X-4073280Y380093D1*
X-4077840Y378047D1*
X-4082510Y376260D1*
X-4087273Y374737D1*
X-4092113Y373483D1*
X-4097013Y372500D1*
X-4101963Y371797D1*
X-4106943Y371370D1*
X-4111940Y371223D1*
X-4116940Y371357D1*
X-4121920Y371770D1*
X-4126873Y372463D1*
X-4131777Y373430D1*
X-4136620Y374673D1*
X-4141387Y376183D1*
X-4146060Y377960D1*
X-4150627Y379993D1*
X-4155070Y382280D1*
X-4159383Y384813D1*
X-4163543Y387583D1*
X-4167543Y390580D1*
X-4171370Y393800D1*
X-4175010Y397227D1*
X-4178450Y400853D1*
X-4181683Y404667D1*
X-4184697Y408657D1*
X-4187483Y412807D1*
X-4190033Y417107D1*
X-4192337Y421543D1*
X-4194390Y426103D1*
X-4196183Y430770D1*
X-4197713Y435530D1*
X-4198973Y440367D1*
X-4199960Y445267D1*
X-4200670Y450217D1*
X-4201103Y455197D1*
X-4201257Y460193D1*
X-4201030Y466417D1*
X-4484223Y466407D1*
X-4484313Y564557D1*
X-4487113D1*
Y728013D1*
X-4492950Y729547D1*
X-4496700Y730930D1*
X-4500327Y732603D1*
X-4503817Y734557D1*
X-4507140Y736777D1*
X-4510277Y739253D1*
X-4516747Y745500D1*
X-4544967Y773717D1*
X-4547677Y776653D1*
X-4550153Y779790D1*
X-4552373Y783113D1*
X-4554327Y786603D1*
X-4556000Y790230D1*
X-4557383Y793980D1*
X-4558467Y797827D1*
X-4559247Y801747D1*
X-4559717Y805717D1*
X-4559873Y814710D1*
Y1031360D1*
X-4559717Y1035353D1*
X-4559247Y1039323D1*
X-4558467Y1043243D1*
X-4557383Y1047090D1*
X-4556000Y1050840D1*
X-4554327Y1054467D1*
X-4552373Y1057957D1*
X-4550153Y1061280D1*
X-4547677Y1064417D1*
X-4541430Y1070887D1*
X-4493660Y1118660D1*
X-4490723Y1121370D1*
X-4487587Y1123847D1*
X-4484263Y1126067D1*
X-4480773Y1128020D1*
X-4477147Y1129693D1*
X-4473397Y1131077D1*
X-4469550Y1132160D1*
X-4465630Y1132940D1*
X-4461660Y1133410D1*
X-4452667Y1133567D1*
X-4273877D1*
X-4269883Y1133410D1*
X-4265913Y1132940D1*
X-4261993Y1132160D1*
X-4258147Y1131077D1*
X-4254397Y1129693D1*
X-4250770Y1128020D1*
X-4247280Y1126067D1*
X-4243957Y1123847D1*
X-4240820Y1121370D1*
X-4234350Y1115123D1*
X-4184177Y1064950D1*
X-4185227Y1074387D1*
X-4185380Y1079383D1*
X-4185253Y1084380D1*
X-4184847Y1089363D1*
X-4184160Y1094317D1*
X-4183197Y1099223D1*
X-4181963Y1104067D1*
X-4180457Y1108833D1*
X-4178690Y1113510D1*
X-4176660Y1118080D1*
X-4174380Y1122527D1*
X-4171853Y1126840D1*
X-4169087Y1131007D1*
X-4166093Y1135010D1*
X-4162880Y1138840D1*
X-4159457Y1142483D1*
X-4155837Y1145930D1*
X-4152027Y1149167D1*
X-4148043Y1152187D1*
X-4143893Y1154980D1*
X-4139597Y1157533D1*
X-4135163Y1159843D1*
X-4130607Y1161903D1*
X-4125943Y1163700D1*
X-4121187Y1165237D1*
X-4116350Y1166503D1*
X-4111450Y1167497D1*
X-4106503Y1168213D1*
X-4101523Y1168653D1*
X-4096527Y1168813D1*
X-4091527Y1168693D1*
X-4086543Y1168290D1*
X-4081590Y1167613D1*
X-4076683Y1166657D1*
X-4071837Y1165427D1*
X-4067070Y1163930D1*
X-4062390Y1162167D1*
X-4057820Y1160143D1*
X-4053367Y1157867D1*
X-4049050Y1155347D1*
X-4044880Y1152587D1*
X-4040873Y1149597D1*
X-4037040Y1146390D1*
X-4033390Y1142970D1*
X-4029940Y1139353D1*
X-4026697Y1135550D1*
X-4023673Y1131570D1*
X-4020877Y1127423D1*
X-4018317Y1123130D1*
X-4016000Y1118700D1*
X-4013937Y1114147D1*
X-4012130Y1109483D1*
X-4010590Y1104730D1*
X-4009317Y1099893D1*
X-4008317Y1094997D1*
X-4007593Y1090050D1*
X-4007147Y1085070D1*
X-4006980Y1079613D1*
X-4007120Y1074617D1*
X-4007540Y1069633D1*
X-4008237Y1064683D1*
X-4009213Y1059780D1*
X-4010460Y1054940D1*
X-4013223Y1046910D1*
X-4009273Y1047680D1*
X-4005110Y1048173D1*
X-4000920Y1048337D1*
X-3996730Y1048173D1*
X-3992567Y1047680D1*
X-3988453Y1046860D1*
X-3984420Y1045723D1*
X-3980483Y1044273D1*
X-3975947Y1042107D1*
X-3971050Y1044397D1*
X-3966340Y1046063D1*
X-3961490Y1047280D1*
X-3956550Y1048040D1*
X-3951823Y1048327D1*
X-3951820Y1202223D1*
X-4075320Y1202233D1*
Y1281980D1*
X-4165667Y1281993D1*
X-4165670Y1279007D1*
X-4211603D1*
X-4208387Y1272853D1*
X-4205640Y1266417D1*
X-4203410Y1259783D1*
X-4201703Y1252997D1*
X-4200537Y1246097D1*
X-4199910Y1239123D1*
X-4199823Y1232667D1*
X-4200253Y1225683D1*
X-4201230Y1218753D1*
X-4202750Y1211920D1*
X-4204797Y1205230D1*
X-4207363Y1198720D1*
X-4210433Y1192430D1*
X-4213987Y1186400D1*
X-4218000Y1180667D1*
X-4222453Y1175270D1*
X-4227313Y1170233D1*
X-4232557Y1165597D1*
X-4238143Y1161383D1*
X-4244047Y1157623D1*
X-4250223Y1154337D1*
X-4256640Y1151543D1*
X-4263257Y1149263D1*
X-4270030Y1147507D1*
X-4276923Y1146287D1*
X-4283887Y1145613D1*
X-4290883Y1145487D1*
X-4297870Y1145910D1*
X-4304800Y1146877D1*
X-4311633Y1148387D1*
X-4318330Y1150427D1*
X-4324843Y1152983D1*
X-4331137Y1156047D1*
X-4337170Y1159590D1*
X-4342907Y1163600D1*
X-4348313Y1168043D1*
X-4353353Y1172897D1*
X-4357997Y1178133D1*
X-4362217Y1183717D1*
X-4365987Y1189613D1*
X-4369280Y1195787D1*
X-4372080Y1202200D1*
X-4374370Y1208813D1*
X-4376137Y1215587D1*
X-4377363Y1222473D1*
X-4378047Y1229440D1*
X-4378183Y1236437D1*
X-4377770Y1243423D1*
X-4376810Y1250353D1*
X-4375310Y1257190D1*
X-4373277Y1263887D1*
X-4370727Y1270403D1*
X-4367673Y1276700D1*
X-4364137Y1282740D1*
X-4360137Y1288483D1*
X-4355700Y1293893D1*
X-4350850Y1298940D1*
X-4345623Y1303590D1*
X-4340043Y1307817D1*
X-4334153Y1311593D1*
X-4327983Y1314897D1*
X-4321573Y1317707D1*
X-4314963Y1320003D1*
X-4312467Y1320723D1*
X-4312470Y1575807D1*
X-4185457D1*
Y1578793D1*
X-4166960D1*
X-4166957Y1703160D1*
X-4200457Y1703163D1*
Y1803183D1*
X-4350457Y1803163D1*
Y2099963D1*
X-4168657D1*
Y2086560D1*
X-4055453Y2086563D1*
X-4055457Y2099963D1*
X-3873657D1*
Y1803163D1*
X-4023660D1*
X-4023657Y1706077D1*
X-3978177Y1706073D1*
X-3978180Y1764573D1*
X-3801380D1*
Y1751583D1*
X-3692393Y1751573D1*
X-3692403Y1764573D1*
X-3515603D1*
Y1537773D1*
X-3692403D1*
Y1550770D1*
X-3801363Y1550773D1*
X-3801380Y1537773D1*
X-3978180D1*
Y1596270D1*
X-4057143Y1596273D1*
X-4057157Y1578803D1*
X-4038657Y1578793D1*
Y1434047D1*
X-3957683Y1434033D1*
Y1439793D1*
X-3725883D1*
Y1363873D1*
X-3725033Y1364350D1*
Y1404150D1*
X-3467097D1*
Y1162997D1*
X-3324207Y1163013D1*
Y1134517D1*
X-3179070Y1134513D1*
X-3179410Y1140970D1*
X-3179393Y1145970D1*
X-3179123Y1150963D1*
X-3178603Y1155937D1*
X-3177833Y1160877D1*
X-3176817Y1165770D1*
X-3175557Y1170607D1*
X-3174053Y1175377D1*
X-3172310Y1180063D1*
X-3170337Y1184657D1*
X-3168133Y1189143D1*
X-3165707Y1193513D1*
X-3163063Y1197757D1*
X-3160210Y1201863D1*
X-3157153Y1205820D1*
X-3153900Y1209617D1*
X-3150463Y1213247D1*
X-3146847Y1216700D1*
X-3143060Y1219963D1*
X-3139117Y1223037D1*
X-3135020Y1225903D1*
X-3130787Y1228563D1*
X-3126427Y1231007D1*
X-3121947Y1233227D1*
X-3117360Y1235217D1*
X-3112680Y1236977D1*
X-3107917Y1238500D1*
X-3103087Y1239780D1*
X-3098193Y1240813D1*
X-3093257Y1241600D1*
X-3088287Y1242140D1*
X-3083297Y1242427D1*
X-3078297Y1242463D1*
X-3073300Y1242250D1*
X-3068323Y1241783D1*
X-3063377Y1241067D1*
X-3058470Y1240103D1*
X-3053620Y1238893D1*
X-3048837Y1237443D1*
X-3044130Y1235750D1*
X-3039517Y1233827D1*
X-3035007Y1231670D1*
X-3030607Y1229293D1*
X-3026337Y1226693D1*
X-3022200Y1223887D1*
X-3018210Y1220873D1*
X-3014377Y1217663D1*
X-3010713Y1214263D1*
X-3007220Y1210683D1*
X-3003913Y1206933D1*
X-3000800Y1203023D1*
X-2997890Y1198960D1*
X-2995183Y1194753D1*
X-2992693Y1190420D1*
X-2990427Y1185963D1*
X-2988383Y1181400D1*
X-2986573Y1176740D1*
X-2985000Y1171993D1*
X-2983670Y1167177D1*
X-2982580Y1162297D1*
X-2981740Y1157367D1*
X-2981147Y1152403D1*
X-2980713Y1143120D1*
X-2980840Y1138123D1*
X-2981217Y1133137D1*
X-2981843Y1128177D1*
X-2982720Y1123253D1*
X-2983843Y1118383D1*
X-2985207Y1113573D1*
X-2986813Y1108840D1*
X-2988657Y1104193D1*
X-2990730Y1099643D1*
X-2993030Y1095203D1*
X-2995550Y1090887D1*
X-2998287Y1086700D1*
X-3001227Y1082657D1*
X-3004367Y1078770D1*
X-3007700Y1075043D1*
X-3011217Y1071487D1*
X-3014907Y1068113D1*
X-3018763Y1064933D1*
X-3022773Y1061947D1*
X-3029860Y1057413D1*
X-3033263Y1050927D1*
X-3035657Y1047343D1*
X-3038327Y1043960D1*
X-3041253Y1040793D1*
X-3044420Y1037867D1*
X-3047803Y1035197D1*
X-3051387Y1032803D1*
X-3055150Y1030697D1*
X-3059063Y1028893D1*
X-3063107Y1027400D1*
X-3067257Y1026230D1*
X-3071487Y1025390D1*
X-3075767Y1024883D1*
X-3085073Y1024713D1*
X-3324193D1*
X-3324207Y866213D1*
X-3471007D1*
Y1013613D1*
X-3608120Y876497D1*
X-3508743Y876487D1*
X-3504750Y876330D1*
X-3500780Y875860D1*
X-3496860Y875080D1*
X-3493013Y873997D1*
X-3489263Y872613D1*
X-3485637Y870940D1*
X-3482147Y868987D1*
X-3478823Y866767D1*
X-3475687Y864290D1*
X-3469217Y858043D1*
X-3440997Y829827D1*
X-3438287Y826890D1*
X-3435810Y823753D1*
X-3433590Y820430D1*
X-3431630Y816927D1*
X-3431007Y816713D1*
X-3324207D1*
Y658217D1*
X-3179423Y658213D1*
X-3179393Y663370D1*
X-3179123Y668363D1*
X-3178603Y673337D1*
X-3177833Y678277D1*
X-3176817Y683170D1*
X-3175557Y688007D1*
X-3174053Y692777D1*
X-3172310Y697463D1*
X-3170337Y702057D1*
X-3168133Y706543D1*
X-3165707Y710913D1*
X-3163063Y715157D1*
X-3160210Y719263D1*
X-3157153Y723220D1*
X-3153900Y727017D1*
X-3150463Y730647D1*
X-3146847Y734100D1*
X-3143060Y737363D1*
X-3139117Y740437D1*
X-3135020Y743303D1*
X-3130787Y745963D1*
X-3126427Y748407D1*
X-3121947Y750627D1*
X-3117360Y752617D1*
X-3112680Y754377D1*
X-3107917Y755900D1*
X-3103087Y757180D1*
X-3098193Y758213D1*
X-3093257Y759000D1*
X-3088287Y759540D1*
X-3083297Y759827D1*
X-3078297Y759863D1*
X-3073300Y759650D1*
X-3068323Y759183D1*
X-3063377Y758467D1*
X-3058470Y757503D1*
X-3053620Y756293D1*
X-3048837Y754843D1*
X-3044130Y753150D1*
X-3039517Y751227D1*
X-3035007Y749070D1*
X-3030607Y746693D1*
X-3026337Y744093D1*
X-3022200Y741287D1*
X-3018210Y738273D1*
X-3014377Y735063D1*
X-3010713Y731663D1*
X-3007220Y728083D1*
X-3003913Y724333D1*
X-3000800Y720423D1*
X-2997890Y716360D1*
X-2995183Y712153D1*
X-2992693Y707820D1*
X-2990427Y703363D1*
X-2988383Y698800D1*
X-2986573Y694140D1*
X-2985000Y689393D1*
X-2983670Y684577D1*
X-2982580Y679697D1*
X-2981740Y674767D1*
X-2981147Y669803D1*
X-2980713Y660520D1*
X-2980840Y655523D1*
X-2981217Y650537D1*
X-2981843Y645577D1*
X-2982720Y640653D1*
X-2983843Y635783D1*
X-2985207Y630973D1*
X-2986813Y626240D1*
X-2988657Y621593D1*
X-2990730Y617043D1*
X-2993030Y612603D1*
X-2995550Y608287D1*
X-2998287Y604100D1*
X-3001227Y600057D1*
X-3004367Y596170D1*
X-3007700Y592443D1*
X-3011217Y588887D1*
X-3014907Y585513D1*
X-3018763Y582333D1*
X-3022773Y579347D1*
X-3026930Y576567D1*
X-3034993Y571993D1*
X-3038327Y567660D1*
X-3041253Y564493D1*
X-3044420Y561567D1*
X-3047803Y558897D1*
X-3051387Y556503D1*
X-3055150Y554397D1*
X-3059063Y552593D1*
X-3063107Y551100D1*
X-3067257Y549930D1*
X-3071487Y549090D1*
X-3075767Y548583D1*
X-3085073Y548413D1*
X-3324193D1*
X-3321893Y547077D1*
X-2475700Y547107D1*
X-2480603Y548073D1*
X-2485447Y549317D1*
X-2490213Y550827D1*
X-2494887Y552603D1*
X-2499453Y554637D1*
X-2503897Y556923D1*
X-2508210Y559457D1*
X-2512370Y562227D1*
X-2516370Y565223D1*
X-2520197Y568443D1*
X-2523837Y571870D1*
X-2527277Y575497D1*
X-2530510Y579310D1*
X-2533523Y583300D1*
X-2536310Y587450D1*
X-2538860Y591750D1*
X-2541163Y596187D1*
X-2543217Y600747D1*
X-2545010Y605413D1*
X-2546540Y610173D1*
X-2547800Y615010D1*
X-2548787Y619910D1*
X-2549497Y624860D1*
X-2549930Y629840D1*
X-2550083Y634837D1*
X-2549957Y639833D1*
X-2549550Y644817D1*
X-2548863Y649770D1*
X-2547900Y654677D1*
X-2546667Y659520D1*
X-2545160Y664287D1*
X-2543393Y668963D1*
X-2541363Y673533D1*
X-2539083Y677980D1*
X-2536557Y682293D1*
X-2533790Y686460D1*
X-2530797Y690463D1*
X-2527583Y694293D1*
X-2524160Y697937D1*
X-2520540Y701383D1*
X-2516730Y704620D1*
X-2512747Y707640D1*
X-2508597Y710433D1*
X-2504300Y712987D1*
X-2499867Y715297D1*
X-2495310Y717357D1*
X-2490647Y719153D1*
X-2485890Y720690D1*
X-2481053Y721957D1*
X-2476153Y722950D1*
X-2471207Y723667D1*
X-2466227Y724107D1*
X-2461230Y724267D1*
X-2456230Y724147D1*
X-2451247Y723743D1*
X-2446293Y723067D1*
X-2441387Y722110D1*
X-2436540Y720880D1*
X-2431773Y719383D1*
X-2427093Y717620D1*
X-2422523Y715597D1*
X-2418070Y713320D1*
X-2413753Y710800D1*
X-2409583Y708040D1*
X-2405577Y705050D1*
X-2401743Y701843D1*
X-2398093Y698423D1*
X-2394643Y694807D1*
X-2390610Y689960D1*
X-1038793Y689967D1*
X-1035177Y694293D1*
X-1031753Y697937D1*
X-1028133Y701383D1*
X-1024323Y704620D1*
X-1020340Y707640D1*
X-1016190Y710433D1*
X-1011893Y712987D1*
X-1007460Y715297D1*
X-1002903Y717357D1*
X-998240Y719153D1*
X-993483Y720690D1*
X-988647Y721957D1*
X-983747Y722950D1*
X-978800Y723667D1*
X-973820Y724107D1*
X-968823Y724267D1*
X-963823Y724147D1*
X-958840Y723743D1*
X-953887Y723067D1*
X-948980Y722110D1*
X-944133Y720880D1*
X-939367Y719383D1*
X-934687Y717620D1*
X-930117Y715597D1*
X-925663Y713320D1*
X-921347Y710800D1*
X-917177Y708040D1*
X-913170Y705050D1*
X-909337Y701843D1*
X-905687Y698423D1*
X-902237Y694807D1*
X-898993Y691003D1*
X-895970Y687023D1*
X-893173Y682877D1*
X-890613Y678583D1*
X-888297Y674153D1*
X-886233Y669600D1*
X-884427Y664937D1*
X-882887Y660183D1*
X-881613Y655347D1*
X-880613Y650450D1*
X-879890Y645503D1*
X-879443Y640523D1*
X-879277Y635067D1*
X-879417Y630070D1*
X-879837Y625087D1*
X-880533Y620137D1*
X-881510Y615233D1*
X-882757Y610393D1*
X-884273Y605630D1*
X-886057Y600957D1*
X-888097Y596393D1*
X-890390Y591950D1*
X-892927Y587643D1*
X-895703Y583487D1*
X-898707Y579490D1*
X-901930Y575670D1*
X-905363Y572033D1*
X-908993Y568597D1*
X-912810Y565367D1*
X-916803Y562360D1*
X-920957Y559577D1*
X-925260Y557033D1*
X-929700Y554737D1*
X-934260Y552690D1*
X-938930Y550903D1*
X-943693Y549380D1*
X-948533Y548127D1*
X-953917Y547077D1*
X-587437D1*
X-583130Y546907D1*
X-578850Y546400D1*
X-574620Y545560D1*
X-570470Y544390D1*
X-566427Y542897D1*
X-562513Y541093D1*
X-558750Y538987D1*
X-555167Y536593D1*
X-551783Y533923D1*
X-545080Y527460D1*
X-500987Y483367D1*
X-498060Y480200D1*
X-495390Y476817D1*
X-492997Y473233D1*
X-490890Y469470D1*
X-489087Y465557D1*
X-487593Y461513D1*
X-486423Y457363D1*
X-485583Y453133D1*
X-485077Y448853D1*
X-484907Y439547D1*
Y403707D1*
X-480667Y400187D1*
X-477017Y396767D1*
X-473567Y393150D1*
X-470323Y389347D1*
X-467300Y385367D1*
X-464503Y381220D1*
X-461943Y376927D1*
X-459627Y372497D1*
X-457563Y367943D1*
X-455757Y363280D1*
X-454217Y358527D1*
X-452943Y353690D1*
X-451943Y348793D1*
X-451220Y343847D1*
X-450773Y338867D1*
X-450607Y333410D1*
X-450747Y328413D1*
X-451167Y323430D1*
X-451863Y318480D1*
X-452840Y313577D1*
X-454087Y308737D1*
X-455603Y303973D1*
X-457387Y299300D1*
X-459427Y294737D1*
X-461720Y290293D1*
X-464257Y285987D1*
X-467033Y281830D1*
X-470037Y277833D1*
X-473260Y274013D1*
X-476693Y270377D1*
X-480323Y266940D1*
X-484903Y263137D1*
X-484907Y213273D1*
X-278923Y7277D1*
X-207183Y7270D1*
X-207167Y130123D1*
X-264167Y130120D1*
Y227130D1*
X-277167Y227120D1*
Y465617D1*
X-286677Y465790D1*
X-290957Y466297D1*
X-295187Y467137D1*
X-299337Y468307D1*
X-303380Y469800D1*
X-307293Y471603D1*
X-311057Y473710D1*
X-314640Y476103D1*
X-318023Y478773D1*
X-324727Y485237D1*
X-451613Y612123D1*
X-454540Y615290D1*
X-457210Y618673D1*
X-459603Y622257D1*
X-461710Y626020D1*
X-463513Y629933D1*
X-465007Y633977D1*
X-466177Y638127D1*
X-467017Y642357D1*
X-467523Y646637D1*
X-467693Y655943D1*
Y785690D1*
X-526193Y785693D1*
Y1024190D1*
X-644610Y1024193D1*
X-770890Y897903D1*
X-774057Y894977D1*
X-777440Y892307D1*
X-781023Y889913D1*
X-784787Y887807D1*
X-788700Y886003D1*
X-792743Y884510D1*
X-796893Y883340D1*
X-801123Y882500D1*
X-805403Y881993D1*
X-814710Y881823D1*
X-882307D1*
X-886053Y877327D1*
X-889487Y873690D1*
X-893117Y870253D1*
X-896933Y867023D1*
X-900927Y864017D1*
X-905080Y861233D1*
X-909383Y858690D1*
X-913823Y856393D1*
X-918383Y854347D1*
X-923053Y852560D1*
X-927817Y851037D1*
X-932657Y849783D1*
X-937557Y848800D1*
X-942507Y848097D1*
X-947487Y847670D1*
X-952483Y847523D1*
X-957483Y847657D1*
X-962463Y848070D1*
X-967417Y848763D1*
X-972320Y849730D1*
X-977163Y850973D1*
X-981930Y852483D1*
X-986603Y854260D1*
X-991170Y856293D1*
X-995613Y858580D1*
X-999927Y861113D1*
X-1004087Y863883D1*
X-1008087Y866880D1*
X-1011913Y870100D1*
X-1015553Y873527D1*
X-1018993Y877153D1*
X-1022227Y880967D1*
X-1025240Y884957D1*
X-1028027Y889107D1*
X-1030577Y893407D1*
X-1032880Y897843D1*
X-1034933Y902403D1*
X-1036727Y907070D1*
X-1038257Y911830D1*
X-1039517Y916667D1*
X-1040503Y921567D1*
X-1041213Y926517D1*
X-1041647Y931497D1*
X-1041800Y936493D1*
X-1041673Y941490D1*
X-1041267Y946473D1*
X-1040580Y951427D1*
X-1039617Y956333D1*
X-1038383Y961177D1*
X-1036877Y965943D1*
X-1035110Y970620D1*
X-1033080Y975190D1*
X-1030800Y979637D1*
X-1028273Y983950D1*
X-1025507Y988117D1*
X-1022513Y992120D1*
X-1019300Y995950D1*
X-1015877Y999593D1*
X-1012257Y1003040D1*
X-1008447Y1006277D1*
X-1004463Y1009297D1*
X-1000313Y1012090D1*
X-996017Y1014643D1*
X-991583Y1016953D1*
X-987027Y1019013D1*
X-982363Y1020810D1*
X-977607Y1022347D1*
X-972770Y1023613D1*
X-967870Y1024607D1*
X-962923Y1025323D1*
X-957943Y1025763D1*
X-952947Y1025923D1*
X-947947Y1025803D1*
X-942963Y1025400D1*
X-938010Y1024723D1*
X-933103Y1023767D1*
X-928257Y1022537D1*
X-923490Y1021040D1*
X-918810Y1019277D1*
X-914240Y1017253D1*
X-909787Y1014977D1*
X-905470Y1012457D1*
X-901300Y1009697D1*
X-897293Y1006707D1*
X-893460Y1003500D1*
X-889810Y1000080D1*
X-886360Y996463D1*
X-882327Y991617D1*
X-832463Y991623D1*
X-706160Y1117913D1*
X-702993Y1120840D1*
X-699610Y1123510D1*
X-696027Y1125903D1*
X-692263Y1128010D1*
X-688350Y1129813D1*
X-684307Y1131307D1*
X-680157Y1132477D1*
X-675927Y1133317D1*
X-671647Y1133823D1*
X-662340Y1133993D1*
X-526187D1*
X-526193Y1165087D1*
X-1553253Y1165100D1*
X-1829180Y889180D1*
X-1832347Y886253D1*
X-1835730Y883583D1*
X-1839313Y881190D1*
X-1843077Y879083D1*
X-1846990Y877280D1*
X-1851033Y875787D1*
X-1855183Y874617D1*
X-1859413Y873777D1*
X-1863693Y873270D1*
X-1868017Y873100D1*
X-1872230Y872423D1*
X-1875453Y868603D1*
X-1878887Y864967D1*
X-1882517Y861530D1*
X-1886333Y858300D1*
X-1890327Y855293D1*
X-1894480Y852510D1*
X-1898783Y849967D1*
X-1903223Y847670D1*
X-1907783Y845623D1*
X-1912453Y843837D1*
X-1917217Y842313D1*
X-1922057Y841060D1*
X-1926957Y840077D1*
X-1931907Y839373D1*
X-1936887Y838947D1*
X-1941883Y838800D1*
X-1946883Y838933D1*
X-1951863Y839347D1*
X-1956817Y840040D1*
X-1961720Y841007D1*
X-1966563Y842250D1*
X-1971330Y843760D1*
X-1976003Y845537D1*
X-1980570Y847570D1*
X-1985013Y849857D1*
X-1989327Y852390D1*
X-1993487Y855160D1*
X-1997487Y858157D1*
X-2001313Y861377D1*
X-2004953Y864803D1*
X-2008393Y868430D1*
X-2011627Y872243D1*
X-2014640Y876233D1*
X-2017427Y880383D1*
X-2019977Y884683D1*
X-2022280Y889120D1*
X-2024333Y893680D1*
X-2026127Y898347D1*
X-2027657Y903107D1*
X-2028917Y907943D1*
X-2029903Y912843D1*
X-2030613Y917793D1*
X-2031047Y922773D1*
X-2031200Y927770D1*
X-2031073Y932767D1*
X-2030667Y937750D1*
X-2029980Y942703D1*
X-2029017Y947610D1*
X-2027783Y952453D1*
X-2026277Y957220D1*
X-2024510Y961897D1*
X-2022480Y966467D1*
X-2020200Y970913D1*
X-2017673Y975227D1*
X-2014907Y979393D1*
X-2011913Y983397D1*
X-2008700Y987227D1*
X-2005277Y990870D1*
X-2001657Y994317D1*
X-1997847Y997553D1*
X-1993863Y1000573D1*
X-1989713Y1003367D1*
X-1985417Y1005920D1*
X-1980983Y1008230D1*
X-1976427Y1010290D1*
X-1971763Y1012087D1*
X-1967007Y1013623D1*
X-1962170Y1014890D1*
X-1957270Y1015883D1*
X-1952323Y1016600D1*
X-1947343Y1017040D1*
X-1942347Y1017200D1*
X-1937347Y1017080D1*
X-1932363Y1016677D1*
X-1927410Y1016000D1*
X-1922503Y1015043D1*
X-1917657Y1013813D1*
X-1912890Y1012317D1*
X-1908210Y1010553D1*
X-1903640Y1008530D1*
X-1899187Y1006253D1*
X-1894870Y1003733D1*
X-1890700Y1000973D1*
X-1886693Y997983D1*
X-1880793Y992840D1*
X-1614820Y1258820D1*
X-1611653Y1261747D1*
X-1608270Y1264417D1*
X-1604687Y1266810D1*
X-1600923Y1268917D1*
X-1597010Y1270720D1*
X-1592967Y1272213D1*
X-1588817Y1273383D1*
X-1584587Y1274223D1*
X-1580307Y1274730D1*
X-1571000Y1274900D1*
X559253D1*
X682180Y1397820D1*
X685347Y1400747D1*
X688730Y1403417D1*
X692313Y1405810D1*
X696077Y1407917D1*
X699990Y1409720D1*
X704033Y1411213D1*
X708183Y1412383D1*
X712413Y1413223D1*
X716693Y1413730D1*
X726000Y1413900D1*
X978000D1*
X982307Y1413730D1*
X986587Y1413223D1*
X990817Y1412383D1*
X994967Y1411213D1*
X999010Y1409720D1*
X1002923Y1407917D1*
X1006687Y1405810D1*
X1010270Y1403417D1*
X1013653Y1400747D1*
X1020357Y1394283D1*
X1123820Y1290820D1*
X1126747Y1287653D1*
X1129417Y1284270D1*
X1131810Y1280687D1*
X1133917Y1276923D1*
X1135720Y1273010D1*
X1137213Y1268967D1*
X1138383Y1264817D1*
X1139223Y1260587D1*
X1139730Y1256307D1*
X1139900Y1247000D1*
Y-107120D1*
X1146970Y-109727D1*
X1156110Y-113780D1*
X1164930Y-118487D1*
X1173390Y-123813D1*
X1181443Y-129740D1*
X1189047Y-136233D1*
X1196160Y-143257D1*
X1202750Y-150777D1*
X1208780Y-158750D1*
X1214217Y-167140D1*
X1219037Y-175900D1*
X1223207Y-184987D1*
X1226713Y-194347D1*
X1229537Y-203940D1*
X1231657Y-213710D1*
X1233067Y-223607D1*
X1233760Y-233580D1*
X1233747Y-243173D1*
X1233023Y-253143D1*
X1231583Y-263037D1*
X1229433Y-272800D1*
X1226587Y-282383D1*
X1223050Y-291737D1*
X1218850Y-300810D1*
X1214007Y-309557D1*
X1208543Y-317930D1*
X1202493Y-325887D1*
X1195880Y-333387D1*
X1188743Y-340390D1*
X1181123Y-346860D1*
X1173053Y-352760D1*
X1164577Y-358067D1*
X1155743Y-362743D1*
X1150393Y-365180D1*
X1156110Y-367807D1*
X1164930Y-372513D1*
X1173390Y-377840D1*
X1181443Y-383767D1*
X1189047Y-390260D1*
X1196160Y-397283D1*
X1202750Y-404803D1*
X1208780Y-412777D1*
X1214217Y-421167D1*
X1219037Y-429927D1*
X1223207Y-439013D1*
X1226713Y-448373D1*
X1229537Y-457967D1*
X1231657Y-467737D1*
X1233067Y-477633D1*
X1233760Y-487607D1*
X1233747Y-497200D1*
X1233023Y-507170D1*
X1231583Y-517063D1*
X1229433Y-526827D1*
X1226587Y-536410D1*
X1223050Y-545763D1*
X1218850Y-554837D1*
X1214007Y-563583D1*
X1208543Y-571957D1*
X1202493Y-579913D1*
X1195880Y-587413D1*
X1188743Y-594417D1*
X1181123Y-600887D1*
X1173053Y-606787D1*
X1164577Y-612093D1*
X1155743Y-616770D1*
X1150393Y-619207D1*
X1156110Y-621833D1*
X1164930Y-626540D1*
X1173390Y-631867D1*
X1181443Y-637793D1*
X1189047Y-644287D1*
X1196160Y-651310D1*
X1202750Y-658830D1*
X1208780Y-666803D1*
X1214217Y-675193D1*
X1219037Y-683953D1*
X1223207Y-693040D1*
X1226713Y-702400D1*
X1229537Y-711993D1*
X1231657Y-721763D1*
X1233067Y-731660D1*
X1233760Y-741633D1*
X1233747Y-751227D1*
X1233023Y-761197D1*
X1231583Y-771090D1*
X1229433Y-780853D1*
X1226587Y-790437D1*
X1223050Y-799790D1*
X1218850Y-808863D1*
X1214007Y-817610D1*
X1208543Y-825983D1*
X1202493Y-833940D1*
X1195880Y-841440D1*
X1188743Y-848443D1*
X1181123Y-854913D1*
X1173053Y-860813D1*
X1164577Y-866120D1*
X1155743Y-870797D1*
X1146593Y-874827D1*
X1137173Y-878183D1*
X1127540Y-880853D1*
X1117737Y-882817D1*
X1107817Y-884073D1*
X1097833Y-884607D1*
X1087840Y-884417D1*
X1077883Y-883510D1*
X1068017Y-881883D1*
X1058297Y-879550D1*
X1048767Y-876520D1*
X1039483Y-872813D1*
X1030490Y-868443D1*
X1021837Y-863433D1*
X1013567Y-857817D1*
X1005727Y-851613D1*
X998353Y-844863D1*
X991483Y-837597D1*
X985160Y-829853D1*
X979410Y-821673D1*
X974267Y-813103D1*
X969753Y-804180D1*
X968443Y-801193D1*
X964850Y-808863D1*
X960007Y-817610D1*
X954543Y-825983D1*
X948493Y-833940D1*
X941880Y-841440D1*
X934743Y-848443D1*
X927123Y-854913D1*
X919053Y-860813D1*
X910577Y-866120D1*
X901743Y-870797D1*
X892593Y-874827D1*
X883173Y-878183D1*
X873540Y-880853D1*
X863737Y-882817D1*
X853817Y-884073D1*
X843833Y-884607D1*
X833840Y-884417D1*
X823883Y-883510D1*
X814017Y-881883D1*
X804297Y-879550D1*
X794767Y-876520D1*
X785483Y-872813D1*
X776490Y-868443D1*
X767837Y-863433D1*
X759567Y-857817D1*
X751727Y-851613D1*
X744353Y-844863D1*
X737483Y-837597D1*
X731160Y-829853D1*
X725410Y-821673D1*
X720267Y-813103D1*
X715753Y-804180D1*
X714443Y-801193D1*
X710850Y-808840D1*
X707027Y-815867D1*
X702803Y-822657D1*
X698193Y-829193D1*
X693213Y-835453D1*
X687880Y-841417D1*
X682213Y-847060D1*
X676227Y-852367D1*
X669947Y-857320D1*
X663390Y-861900D1*
X656577Y-866097D1*
X649537Y-869890D1*
X642287Y-873270D1*
X634853Y-876227D1*
X627263Y-878750D1*
X619540Y-880830D1*
X611710Y-882460D1*
X603797Y-883633D1*
X595830Y-884350D1*
X587833Y-884603D1*
X579840Y-884393D1*
X571867Y-883723D1*
X563950Y-882597D1*
X556110Y-881010D1*
X548373Y-878977D1*
X540767Y-876497D1*
X533320Y-873583D1*
X526050Y-870243D1*
X518987Y-866490D1*
X512150Y-862337D1*
X505567Y-857793D1*
X499260Y-852877D1*
X493243Y-847603D1*
X487543Y-841993D1*
X482177Y-836063D1*
X477160Y-829830D1*
X472513Y-823320D1*
X470837Y-820763D1*
Y-884600D1*
X194037D1*
Y-801103D1*
X138393Y-801100D1*
X138400Y-961583D1*
X200000Y-961600D1*
X206007Y-962073D1*
X211867Y-963480D1*
X217433Y-965787D1*
X222570Y-968933D1*
X227153Y-972847D1*
X231067Y-977430D1*
X234213Y-982567D1*
X236520Y-988133D1*
X237927Y-993993D1*
X238400Y-1000000D1*
X237927Y-1006007D1*
X236520Y-1011867D1*
X234213Y-1017433D1*
X231067Y-1022570D1*
X227153Y-1027153D1*
X222570Y-1031067D1*
X217433Y-1034213D1*
X211867Y-1036520D1*
X206007Y-1037927D1*
X200000Y-1038400D1*
X148963D1*
X148983Y-1072337D1*
X206397Y-1072343D1*
X210703Y-1072513D1*
X214983Y-1073020D1*
X219213Y-1073860D1*
X223363Y-1075030D1*
X227407Y-1076523D1*
X231320Y-1078327D1*
X235083Y-1080433D1*
X238667Y-1082827D1*
X242050Y-1085497D1*
X248753Y-1091960D1*
X292847Y-1136053D1*
X295773Y-1139220D1*
X298443Y-1142603D1*
X300837Y-1146187D1*
X302950Y-1149963D1*
X305627Y-1151733D1*
X370257D1*
X370267Y-885267D1*
X517067D1*
Y-917747D1*
X615170Y-917767D1*
X615173Y-895077D1*
X620173D1*
X-3521257Y1107350D2*
X-3601490D1*
X-3604823Y1101013D1*
X-3607217Y1097430D1*
X-3609887Y1094047D1*
X-3616350Y1087343D1*
X-3656513Y1047180D1*
X-3659680Y1044253D1*
X-3663063Y1041583D1*
X-3666647Y1039190D1*
X-3670410Y1037083D1*
X-3674323Y1035280D1*
X-3678367Y1033787D1*
X-3682517Y1032617D1*
X-3686747Y1031777D1*
X-3691027Y1031270D1*
X-3700333Y1031100D1*
X-3708087D1*
X-3708100Y967437D1*
X-3708257Y963443D1*
X-3708727Y959473D1*
X-3709507Y955553D1*
X-3710590Y951707D1*
X-3711973Y947957D1*
X-3713647Y944330D1*
X-3715600Y940840D1*
X-3718743Y936120D1*
X-3714993Y937503D1*
X-3711147Y938587D1*
X-3707227Y939367D1*
X-3703257Y939837D1*
X-3694263Y939993D1*
X-3688580D1*
X-3521243Y1107343D1*
X-3471007Y547080D2*
Y559423D1*
X-3475157Y562133D1*
X-3478293Y564610D1*
X-3484763Y570857D1*
X-3512993Y599087D1*
X-3516583Y597120D1*
X-3520577Y594113D1*
X-3524730Y591330D1*
X-3529033Y588787D1*
X-3533473Y586490D1*
X-3538033Y584443D1*
X-3542703Y582657D1*
X-3547467Y581133D1*
X-3552307Y579880D1*
X-3557207Y578897D1*
X-3562157Y578193D1*
X-3567137Y577767D1*
X-3572133Y577620D1*
X-3577133Y577753D1*
X-3582113Y578167D1*
X-3587067Y578860D1*
X-3591970Y579827D1*
X-3596813Y581070D1*
X-3601580Y582580D1*
X-3606253Y584357D1*
X-3610820Y586390D1*
X-3615263Y588677D1*
X-3619577Y591210D1*
X-3623737Y593980D1*
X-3627737Y596977D1*
X-3631563Y600197D1*
X-3635203Y603623D1*
X-3638643Y607250D1*
X-3641877Y611063D1*
X-3644890Y615053D1*
X-3647677Y619203D1*
X-3650227Y623503D1*
X-3652530Y627940D1*
X-3654583Y632500D1*
X-3656377Y637167D1*
X-3658807Y645383D1*
X-3662310Y642990D1*
X-3667960Y640113D1*
X-3673990Y638153D1*
X-3680250Y637160D1*
X-3693420Y637037D1*
X-3740017Y637100D1*
X-3740020Y616537D1*
X-3747547D1*
X-3747520Y564800D1*
X-3729807Y547073D1*
X-3471013Y547077D1*
X159630Y-1595600D2*
X155150Y-1589263D1*
X150980Y-1582440D1*
X147277Y-1575350D1*
X144063Y-1568023D1*
X141350Y-1560500D1*
X139153Y-1552810D1*
X137477Y-1544990D1*
X136337Y-1537073D1*
X135730Y-1529097D1*
X135667Y-1521097D1*
X136140Y-1513113D1*
X137153Y-1505180D1*
X138700Y-1497333D1*
X140773Y-1489607D1*
X143363Y-1482040D1*
X146457Y-1474663D1*
X150043Y-1467513D1*
X154103Y-1460623D1*
X158617Y-1454020D1*
X163570Y-1447740D1*
X168933Y-1441807D1*
X174687Y-1436250D1*
X180800Y-1431093D1*
X187250Y-1426360D1*
X194003Y-1422077D1*
X201030Y-1418257D1*
X208300Y-1414920D1*
X215780Y-1412080D1*
X223430Y-1409753D1*
X231223Y-1407950D1*
X239120Y-1406677D1*
X247083Y-1405937D1*
X255080Y-1405737D1*
X263070Y-1406080D1*
X271020Y-1406960D1*
X278893Y-1408373D1*
X286653Y-1410317D1*
X294263Y-1412780D1*
X301690Y-1415750D1*
X308897Y-1419217D1*
X315857Y-1423160D1*
X322533Y-1427563D1*
X328897Y-1432410D1*
X334917Y-1437673D1*
X340570Y-1443333D1*
X345830Y-1449360D1*
X350667Y-1455730D1*
X355067Y-1462410D1*
X359003Y-1469373D1*
X362460Y-1476587D1*
X365423Y-1484013D1*
X367877Y-1491627D1*
X369813Y-1499387D1*
X371220Y-1507263D1*
X372090Y-1515213D1*
X372423Y-1523203D1*
X372220Y-1531130D1*
X371477Y-1539093D1*
X370200Y-1546990D1*
X368390Y-1554780D1*
X366060Y-1562433D1*
X363220Y-1569910D1*
X359880Y-1577177D1*
X356057Y-1584203D1*
X351770Y-1590953D1*
X348427Y-1595597D1*
X615167Y-1595600D1*
X615173Y-1466637D1*
X647653D1*
X647673Y-1454667D1*
X615173Y-1454670D1*
Y-1325510D1*
X526947Y-1325513D1*
X522953Y-1325357D1*
X518983Y-1324887D1*
X515063Y-1324107D1*
X511217Y-1323023D1*
X507467Y-1321640D1*
X503840Y-1319967D1*
X500350Y-1318013D1*
X497027Y-1315793D1*
X493890Y-1313317D1*
X487420Y-1307070D1*
X407673Y-1227327D1*
X404963Y-1224390D1*
X402487Y-1221253D1*
X400267Y-1217930D1*
X398313Y-1214440D1*
X396640Y-1210813D1*
X395257Y-1207063D1*
X394173Y-1203217D1*
X393393Y-1199297D1*
X392923Y-1195327D1*
X392767Y-1186333D1*
Y-1182057D1*
X372427Y-1182067D1*
Y-1388533D1*
X135627D1*
Y-1304880D1*
X-22817Y-1304897D1*
Y-1038393D1*
X-81037Y-1038400D1*
X-81017Y-1304897D1*
X-103850D1*
X-103867Y-1540037D1*
X-104037Y-1544343D1*
X-104543Y-1548623D1*
X-105383Y-1552853D1*
X-106553Y-1557003D1*
X-108047Y-1561047D1*
X-109860Y-1564977D1*
X-110367Y-1570037D1*
Y-1592870D1*
X-107607Y-1595600D1*
X159620D1*
X-548423Y-1287037D2*
X-548763Y-1295027D1*
X-549640Y-1302977D1*
X-551050Y-1310850D1*
X-552990Y-1318610D1*
X-555447Y-1326223D1*
X-558417Y-1333650D1*
X-561877Y-1340860D1*
X-565820Y-1347820D1*
X-570220Y-1354500D1*
X-575063Y-1360863D1*
X-580323Y-1366890D1*
X-585980Y-1372543D1*
X-592007Y-1377803D1*
X-598373Y-1382647D1*
X-605050Y-1387047D1*
X-612013Y-1390987D1*
X-619223Y-1394447D1*
X-626650Y-1397413D1*
X-634263Y-1399873D1*
X-642023Y-1401810D1*
X-649897Y-1403220D1*
X-657847Y-1404097D1*
X-665837Y-1404433D1*
X-673833Y-1404230D1*
X-681797Y-1403487D1*
X-689693Y-1402207D1*
X-697483Y-1400397D1*
X-705137Y-1398067D1*
X-712613Y-1395223D1*
X-719880Y-1391883D1*
X-726903Y-1388060D1*
X-733657Y-1383770D1*
X-740100Y-1379033D1*
X-746213Y-1373873D1*
X-751963Y-1368313D1*
X-757323Y-1362377D1*
X-762270Y-1356093D1*
X-766783Y-1349487D1*
X-770840Y-1342593D1*
X-774420Y-1335443D1*
X-777510Y-1328063D1*
X-780093Y-1320497D1*
X-782163Y-1312770D1*
X-783703Y-1304920D1*
X-784713Y-1296987D1*
X-785183Y-1289000D1*
X-785113Y-1281003D1*
X-784503Y-1273027D1*
X-783357Y-1265113D1*
X-781677Y-1257290D1*
X-779473Y-1249603D1*
X-776757Y-1242080D1*
X-773540Y-1234757D1*
X-769833Y-1227670D1*
X-765657Y-1220847D1*
X-761030Y-1214323D1*
X-755973Y-1208127D1*
X-750510Y-1202283D1*
X-744663Y-1196823D1*
X-738463Y-1191773D1*
X-731937Y-1187150D1*
X-725110Y-1182980D1*
X-718020Y-1179280D1*
X-710697Y-1176067D1*
X-703170Y-1173353D1*
X-695480Y-1171157D1*
X-687657Y-1169483D1*
X-679740Y-1168343D1*
X-671767Y-1167740D1*
X-663767Y-1167677D1*
X-655783Y-1168153D1*
X-647850Y-1169167D1*
X-640000Y-1170713D1*
X-632277Y-1172787D1*
X-624710Y-1175380D1*
X-617333Y-1178473D1*
X-610183Y-1182060D1*
X-603293Y-1186120D1*
X-596693Y-1190640D1*
X-590413Y-1195590D1*
X-584480Y-1200957D1*
X-578923Y-1206710D1*
X-573770Y-1212823D1*
X-569037Y-1219273D1*
X-564753Y-1226030D1*
X-560933Y-1233057D1*
X-557600Y-1240327D1*
X-554763Y-1247807D1*
X-552437Y-1255457D1*
X-550633Y-1263250D1*
X-549360Y-1271147D1*
X-548623Y-1279110D1*
X-548423Y-1287037D1*
X-2293977Y-916877D2*
Y-1056877D1*
X-2500777D1*
Y-740077D1*
X-2500250D1*
X-2500257Y-537543D1*
X-2103457D1*
Y-764343D1*
X-2130040D1*
X-2126677Y-770623D1*
X-2124613Y-775177D1*
X-2122807Y-779840D1*
X-2121267Y-784593D1*
X-2119993Y-789430D1*
X-2118993Y-794327D1*
X-2118270Y-799273D1*
X-2117823Y-804253D1*
X-2117657Y-809710D1*
X-2117797Y-814707D1*
X-2118217Y-819690D1*
X-2118913Y-824640D1*
X-2119890Y-829543D1*
X-2121137Y-834383D1*
X-2122653Y-839147D1*
X-2124437Y-843820D1*
X-2126477Y-848383D1*
X-2128770Y-852827D1*
X-2131307Y-857133D1*
X-2134083Y-861290D1*
X-2137087Y-865287D1*
X-2140310Y-869107D1*
X-2143743Y-872743D1*
X-2147373Y-876180D1*
X-2151190Y-879410D1*
X-2155183Y-882417D1*
X-2159337Y-885200D1*
X-2163640Y-887743D1*
X-2168080Y-890040D1*
X-2172640Y-892087D1*
X-2177310Y-893873D1*
X-2182073Y-895397D1*
X-2186913Y-896650D1*
X-2191813Y-897633D1*
X-2196763Y-898337D1*
X-2201743Y-898763D1*
X-2206740Y-898910D1*
X-2211740Y-898777D1*
X-2216720Y-898363D1*
X-2221673Y-897670D1*
X-2226577Y-896703D1*
X-2231420Y-895460D1*
X-2236187Y-893950D1*
X-2240860Y-892173D1*
X-2245427Y-890140D1*
X-2249870Y-887853D1*
X-2254183Y-885320D1*
X-2258343Y-882550D1*
X-2262343Y-879553D1*
X-2266170Y-876333D1*
X-2269810Y-872907D1*
X-2273250Y-869280D1*
X-2276483Y-865467D1*
X-2279497Y-861477D1*
X-2282283Y-857327D1*
X-2284833Y-853027D1*
X-2287137Y-848590D1*
X-2289190Y-844030D1*
X-2290983Y-839363D1*
X-2292513Y-834603D1*
X-2293977Y-828753D1*
X-2293997Y-916877D1*
X-2789933Y-1191993D2*
X-2753937D1*
X-2753933Y-721233D1*
X-2758347Y-717567D1*
X-2761987Y-714140D1*
X-2765427Y-710513D1*
X-2768660Y-706700D1*
X-2771673Y-702710D1*
X-2774460Y-698560D1*
X-2777010Y-694260D1*
X-2779313Y-689823D1*
X-2781367Y-685263D1*
X-2783160Y-680597D1*
X-2784690Y-675837D1*
X-2785950Y-671000D1*
X-2786937Y-666100D1*
X-2787647Y-661150D1*
X-2788080Y-656170D1*
X-2788233Y-651173D1*
X-2788107Y-646177D1*
X-2787700Y-641193D1*
X-2787013Y-636240D1*
X-2786050Y-631333D1*
X-2784817Y-626490D1*
X-2783310Y-621723D1*
X-2781543Y-617047D1*
X-2779513Y-612477D1*
X-2777233Y-608030D1*
X-2774707Y-603717D1*
X-2771940Y-599550D1*
X-2768947Y-595547D1*
X-2765733Y-591717D1*
X-2762310Y-588073D1*
X-2758690Y-584627D1*
X-2754880Y-581390D1*
X-2750897Y-578370D1*
X-2746747Y-575577D1*
X-2742450Y-573023D1*
X-2738017Y-570713D1*
X-2733460Y-568653D1*
X-2728797Y-566857D1*
X-2724040Y-565320D1*
X-2719203Y-564053D1*
X-2714303Y-563060D1*
X-2709357Y-562343D1*
X-2704377Y-561903D1*
X-2699380Y-561743D1*
X-2694380Y-561863D1*
X-2689397Y-562267D1*
X-2684443Y-562943D1*
X-2679537Y-563900D1*
X-2674690Y-565130D1*
X-2669923Y-566627D1*
X-2665243Y-568390D1*
X-2660673Y-570413D1*
X-2656220Y-572690D1*
X-2651903Y-575210D1*
X-2647733Y-577970D1*
X-2643727Y-580960D1*
X-2639893Y-584167D1*
X-2636243Y-587587D1*
X-2632793Y-591203D1*
X-2629550Y-595007D1*
X-2626527Y-598987D1*
X-2623730Y-603133D1*
X-2621170Y-607427D1*
X-2618853Y-611857D1*
X-2616790Y-616410D1*
X-2614983Y-621073D1*
X-2613443Y-625827D1*
X-2612170Y-630663D1*
X-2611170Y-635560D1*
X-2610447Y-640507D1*
X-2610000Y-645487D1*
X-2609833Y-650943D1*
X-2609973Y-655940D1*
X-2610393Y-660923D1*
X-2611090Y-665873D1*
X-2612067Y-670777D1*
X-2613313Y-675617D1*
X-2614830Y-680380D1*
X-2616613Y-685053D1*
X-2618653Y-689617D1*
X-2620947Y-694060D1*
X-2623483Y-698367D1*
X-2626260Y-702523D1*
X-2629263Y-706520D1*
X-2632487Y-710340D1*
X-2635920Y-713977D1*
X-2639550Y-717413D1*
X-2644130Y-721217D1*
X-2644133Y-1191980D1*
X-2603133Y-1191993D1*
Y-1538793D1*
X-2794933D1*
Y-1191993D1*
X-2789933D1*
X-2493933D2*
X-2303133D1*
Y-1538793D1*
X-2494933D1*
Y-1191993D1*
X-2493933D1*
X-53367Y227110D2*
Y173907D1*
X9633Y173920D1*
Y7893D1*
X168150Y166407D1*
X166123Y175363D1*
X165413Y180313D1*
X164980Y185293D1*
X164827Y190290D1*
X164953Y195287D1*
X165360Y200270D1*
X166047Y205223D1*
X167010Y210130D1*
X168243Y214973D1*
X169750Y219740D1*
X171517Y224417D1*
X173547Y228987D1*
X175827Y233433D1*
X178353Y237747D1*
X181120Y241913D1*
X183890Y245620D1*
X-40367D1*
Y227120D1*
X-53353D1*
X-40367Y777120D2*
Y746360D1*
X-34427Y749110D1*
X-29763Y750907D1*
X-25007Y752443D1*
X-20170Y753710D1*
X-15270Y754703D1*
X-10323Y755420D1*
X-5343Y755860D1*
X-347Y756020D1*
X4653Y755900D1*
X9637Y755497D1*
X14590Y754820D1*
X19497Y753863D1*
X24343Y752633D1*
X29110Y751137D1*
X33790Y749373D1*
X38360Y747350D1*
X42813Y745073D1*
X47130Y742553D1*
X51300Y739793D1*
X55307Y736803D1*
X59140Y733597D1*
X62790Y730177D1*
X66240Y726560D1*
X69483Y722757D1*
X72507Y718777D1*
X75303Y714630D1*
X77863Y710337D1*
X80180Y705907D1*
X82243Y701353D1*
X84050Y696690D1*
X85590Y691937D1*
X86863Y687100D1*
X87863Y682203D1*
X88587Y677257D1*
X89033Y672277D1*
X89200Y666820D1*
X89060Y661823D1*
X88640Y656840D1*
X87943Y651890D1*
X86967Y646987D1*
X85720Y642147D1*
X84203Y637383D1*
X82420Y632710D1*
X80380Y628147D1*
X78087Y623703D1*
X75550Y619397D1*
X72773Y615240D1*
X69770Y611243D1*
X66547Y607423D1*
X63113Y603787D1*
X59483Y600350D1*
X53373Y595393D1*
X59140Y590707D1*
X62790Y587287D1*
X66240Y583670D1*
X69483Y579867D1*
X72507Y575887D1*
X75303Y571740D1*
X77863Y567447D1*
X80180Y563017D1*
X82243Y558463D1*
X84050Y553800D1*
X85590Y549047D1*
X86863Y544210D1*
X87863Y539313D1*
X88587Y534367D1*
X89033Y529387D1*
X89200Y523930D1*
X89060Y518933D1*
X88640Y513950D1*
X87943Y509000D1*
X86967Y504097D1*
X85720Y499257D1*
X84203Y494493D1*
X82420Y489820D1*
X80380Y485257D1*
X78087Y480813D1*
X75550Y476507D1*
X72773Y472350D1*
X69770Y468353D1*
X66547Y464533D1*
X62617Y460427D1*
X66240Y456657D1*
X69483Y452853D1*
X72507Y448873D1*
X75303Y444727D1*
X77863Y440433D1*
X80180Y436003D1*
X82243Y431450D1*
X84050Y426787D1*
X85590Y422033D1*
X86863Y417197D1*
X87863Y412300D1*
X88587Y407353D1*
X89033Y402373D1*
X89200Y396917D1*
X89060Y391920D1*
X88640Y386937D1*
X87943Y381987D1*
X86967Y377083D1*
X85720Y372243D1*
X84203Y367480D1*
X82420Y362807D1*
X78920Y355417D1*
X560783Y355420D1*
X692433Y487073D1*
X688667Y495013D1*
X686873Y499680D1*
X685343Y504440D1*
X684083Y509277D1*
X683097Y514177D1*
X682387Y519127D1*
X681953Y524107D1*
X681800Y529103D1*
X681927Y534100D1*
X682333Y539083D1*
X683020Y544037D1*
X683983Y548943D1*
X685217Y553787D1*
X686723Y558553D1*
X688490Y563230D1*
X690520Y567800D1*
X692800Y572247D1*
X695327Y576560D1*
X698093Y580727D1*
X701087Y584730D1*
X704300Y588560D1*
X707723Y592203D1*
X711343Y595650D1*
X715153Y598887D1*
X719137Y601907D1*
X723287Y604700D1*
X727583Y607253D1*
X732017Y609563D1*
X736573Y611623D1*
X741237Y613420D1*
X745993Y614957D1*
X750830Y616223D1*
X755730Y617217D1*
X760677Y617933D1*
X765657Y618373D1*
X770653Y618533D1*
X775653Y618413D1*
X780637Y618010D1*
X785590Y617333D1*
X790497Y616377D1*
X795343Y615147D1*
X800110Y613650D1*
X804790Y611887D1*
X809360Y609863D1*
X813813Y607587D1*
X818130Y605067D1*
X822300Y602307D1*
X826307Y599317D1*
X830140Y596110D1*
X833790Y592690D1*
X837240Y589073D1*
X840483Y585270D1*
X843507Y581290D1*
X846303Y577143D1*
X848863Y572850D1*
X851180Y568420D1*
X853243Y563867D1*
X855050Y559203D1*
X856590Y554450D1*
X857863Y549613D1*
X858863Y544717D1*
X859587Y539770D1*
X860033Y534790D1*
X860200Y529333D1*
X860060Y524337D1*
X859640Y519353D1*
X858943Y514403D1*
X857967Y509500D1*
X856720Y504660D1*
X855203Y499897D1*
X853420Y495223D1*
X851380Y490660D1*
X849087Y486217D1*
X846550Y481910D1*
X843773Y477753D1*
X840770Y473757D1*
X837547Y469937D1*
X834113Y466300D1*
X830483Y462863D1*
X826667Y459633D1*
X822673Y456627D1*
X818520Y453843D1*
X814217Y451300D1*
X809543Y448900D1*
X622340Y261700D1*
X619173Y258773D1*
X615790Y256103D1*
X612207Y253710D1*
X608443Y251603D1*
X604530Y249800D1*
X600487Y248307D1*
X596337Y247137D1*
X592107Y246297D1*
X587827Y245790D1*
X578520Y245620D1*
X324163D1*
X329330Y238330D1*
X331890Y234037D1*
X334207Y229607D1*
X336270Y225053D1*
X338077Y220390D1*
X339617Y215637D1*
X340890Y210800D1*
X341890Y205903D1*
X342613Y200957D1*
X343060Y195977D1*
X343227Y190520D1*
X343087Y185523D1*
X342697Y180910D1*
X500713Y180900D1*
X504300Y185227D1*
X507723Y188870D1*
X511343Y192317D1*
X515153Y195553D1*
X519137Y198573D1*
X523287Y201367D1*
X527583Y203920D1*
X532017Y206230D1*
X536573Y208290D1*
X541237Y210087D1*
X545993Y211623D1*
X550830Y212890D1*
X555730Y213883D1*
X560677Y214600D1*
X565657Y215040D1*
X570653Y215200D1*
X575653Y215080D1*
X580637Y214677D1*
X585590Y214000D1*
X590497Y213043D1*
X595343Y211813D1*
X600110Y210317D1*
X604790Y208553D1*
X609360Y206530D1*
X613813Y204253D1*
X618130Y201733D1*
X622300Y198973D1*
X626307Y195983D1*
X630140Y192777D1*
X633790Y189357D1*
X637240Y185740D1*
X640483Y181937D1*
X643507Y177957D1*
X646303Y173810D1*
X648863Y169517D1*
X651180Y165087D1*
X653243Y160533D1*
X655050Y155870D1*
X656590Y151117D1*
X657863Y146280D1*
X658863Y141383D1*
X659587Y136437D1*
X660033Y131457D1*
X660200Y126000D1*
X660060Y121003D1*
X659640Y116020D1*
X658943Y111070D1*
X657967Y106167D1*
X656720Y101327D1*
X655203Y96563D1*
X653420Y91890D1*
X649957Y84567D1*
X654967Y83213D1*
X659010Y81720D1*
X662923Y79917D1*
X666687Y77810D1*
X670270Y75417D1*
X673653Y72747D1*
X680357Y66283D1*
X702827Y43813D1*
X702833Y173920D1*
X999633D1*
Y-22880D1*
X769520D1*
X846513Y-99870D1*
X854223Y-100367D1*
X864140Y-101647D1*
X873937Y-103643D1*
X883563Y-106340D1*
X892970Y-109727D1*
X902110Y-113780D1*
X910930Y-118487D1*
X919390Y-123813D1*
X927443Y-129740D1*
X935047Y-136233D1*
X942160Y-143257D1*
X948750Y-150777D1*
X954780Y-158750D1*
X960217Y-167140D1*
X965037Y-175900D1*
X968417Y-183177D1*
X972113Y-175357D1*
X976970Y-166617D1*
X982447Y-158250D1*
X988510Y-150303D1*
X995133Y-142813D1*
X1002280Y-135820D1*
X1009910Y-129363D1*
X1017990Y-123473D1*
X1026473Y-118180D1*
X1030117Y-116173D1*
X1030100Y1229277D1*
X955263Y1304097D1*
X743723Y1304100D1*
X620820Y1181180D1*
X617653Y1178253D1*
X614270Y1175583D1*
X610687Y1173190D1*
X606923Y1171083D1*
X603010Y1169280D1*
X598967Y1167787D1*
X594817Y1166617D1*
X590587Y1165777D1*
X586307Y1165270D1*
X577000Y1165100D1*
X-299387D1*
X-299363Y825677D1*
X-292443Y824650D1*
X-285620Y823083D1*
X-278943Y820983D1*
X-277167Y820327D1*
Y923920D1*
X-264177D1*
X-264167Y1010100D1*
X-266167Y1010120D1*
Y1130920D1*
X-55367D1*
Y1020940D1*
X-53367Y1020920D1*
Y944690D1*
X-47713Y948583D1*
X-43417Y951137D1*
X-38983Y953447D1*
X-34427Y955507D1*
X-29763Y957303D1*
X-25007Y958840D1*
X-20170Y960107D1*
X-15270Y961100D1*
X-10323Y961817D1*
X-5343Y962257D1*
X-347Y962417D1*
X4653Y962297D1*
X9637Y961893D1*
X14590Y961217D1*
X19497Y960260D1*
X24343Y959030D1*
X29110Y957533D1*
X33790Y955770D1*
X38360Y953747D1*
X42813Y951470D1*
X47130Y948950D1*
X51300Y946190D1*
X55307Y943200D1*
X59140Y939993D1*
X62790Y936573D1*
X66240Y932957D1*
X69483Y929153D1*
X72507Y925173D1*
X75303Y921027D1*
X77863Y916733D1*
X80180Y912303D1*
X82243Y907750D1*
X84050Y903087D1*
X85590Y898333D1*
X86863Y893497D1*
X87863Y888600D1*
X88587Y883653D1*
X89033Y878673D1*
X89200Y873217D1*
X89060Y868220D1*
X88640Y863237D1*
X87943Y858287D1*
X86967Y853383D1*
X85720Y848543D1*
X84203Y843780D1*
X82420Y839107D1*
X80380Y834543D1*
X78087Y830100D1*
X75550Y825793D1*
X72773Y821637D1*
X69770Y817640D1*
X66547Y813820D1*
X63113Y810183D1*
X59483Y806747D1*
X55667Y803517D1*
X51673Y800510D1*
X47520Y797727D1*
X43217Y795183D1*
X38777Y792887D1*
X34217Y790840D1*
X29547Y789053D1*
X24783Y787530D1*
X19943Y786277D1*
X15043Y785293D1*
X10093Y784590D1*
X5113Y784163D1*
X117Y784017D1*
X-4883Y784150D1*
X-9863Y784563D1*
X-14817Y785257D1*
X-19720Y786223D1*
X-24563Y787467D1*
X-29330Y788977D1*
X-34003Y790753D1*
X-40357Y793707D1*
X-40387Y777120D1*
X-218167Y1653920D2*
X-22367D1*
Y1417120D1*
X-219167D1*
Y1653920D1*
X-218167D1*
X691833Y1723920D2*
X987633D1*
Y1527120D1*
X690833D1*
Y1723920D1*
X691833D1*
X967467Y350523D2*
X966970Y345550D1*
X966147Y340620D1*
X964997Y335753D1*
X963527Y330977D1*
X961743Y326307D1*
X959653Y321763D1*
X957270Y317370D1*
X954600Y313143D1*
X951653Y309103D1*
X948447Y305270D1*
X944993Y301653D1*
X941310Y298277D1*
X937407Y295150D1*
X933307Y292290D1*
X929027Y289707D1*
X924587Y287413D1*
X920003Y285420D1*
X915297Y283733D1*
X910487Y282363D1*
X905600Y281313D1*
X900653Y280590D1*
X895670Y280200D1*
X890670Y280137D1*
X885680Y280407D1*
X880717Y281003D1*
X875803Y281930D1*
X870963Y283183D1*
X866217Y284750D1*
X861587Y286630D1*
X857087Y288813D1*
X852743Y291287D1*
X848573Y294047D1*
X844597Y297073D1*
X840830Y300360D1*
X837287Y303887D1*
X833987Y307640D1*
X830940Y311607D1*
X828167Y315763D1*
X825673Y320097D1*
X823470Y324583D1*
X821573Y329210D1*
X819983Y333950D1*
X818713Y338783D1*
X817767Y343693D1*
X817147Y348653D1*
X816857Y353643D1*
X816897Y358643D1*
X817270Y363627D1*
X817973Y368577D1*
X819000Y373470D1*
X820350Y378283D1*
X822017Y382997D1*
X823993Y387590D1*
X826267Y392040D1*
X828833Y396330D1*
X831677Y400443D1*
X834787Y404357D1*
X838150Y408057D1*
X841750Y411523D1*
X845570Y414747D1*
X849597Y417710D1*
X853813Y420397D1*
X858197Y422800D1*
X862730Y424907D1*
X867393Y426710D1*
X872163Y428200D1*
X877023Y429370D1*
X881950Y430217D1*
X886923Y430733D1*
X891920Y430920D1*
X896917Y430773D1*
X901893Y430300D1*
X906827Y429493D1*
X911697Y428363D1*
X916480Y426913D1*
X921157Y425150D1*
X925710Y423080D1*
X930113Y420713D1*
X934350Y418060D1*
X938400Y415133D1*
X942250Y411943D1*
X945877Y408503D1*
X949270Y404833D1*
X952413Y400947D1*
X955290Y396857D1*
X957893Y392590D1*
X960203Y388157D1*
X962217Y383580D1*
X963923Y378880D1*
X965313Y374080D1*
X966383Y369197D1*
X967127Y364253D1*
X967633Y355520D1*
X967467Y350523D1*
X964467Y1150523D2*
X963970Y1145550D1*
X963147Y1140620D1*
X961997Y1135753D1*
X960527Y1130977D1*
X958743Y1126307D1*
X956653Y1121763D1*
X954270Y1117370D1*
X951600Y1113143D1*
X948653Y1109103D1*
X945447Y1105270D1*
X941993Y1101653D1*
X938310Y1098277D1*
X934407Y1095150D1*
X930307Y1092290D1*
X926027Y1089707D1*
X921587Y1087413D1*
X917003Y1085420D1*
X912297Y1083733D1*
X907487Y1082363D1*
X902600Y1081313D1*
X897653Y1080590D1*
X892670Y1080200D1*
X887670Y1080137D1*
X882680Y1080407D1*
X877717Y1081003D1*
X872803Y1081930D1*
X867963Y1083183D1*
X863217Y1084750D1*
X858587Y1086630D1*
X854087Y1088813D1*
X849743Y1091287D1*
X845573Y1094047D1*
X841597Y1097073D1*
X837830Y1100360D1*
X834287Y1103887D1*
X830987Y1107640D1*
X827940Y1111607D1*
X825167Y1115763D1*
X822673Y1120097D1*
X820470Y1124583D1*
X818573Y1129210D1*
X816983Y1133950D1*
X815713Y1138783D1*
X814767Y1143693D1*
X814147Y1148653D1*
X813857Y1153643D1*
X813897Y1158643D1*
X814270Y1163627D1*
X814973Y1168577D1*
X816000Y1173470D1*
X817350Y1178283D1*
X819017Y1182997D1*
X820993Y1187590D1*
X823267Y1192040D1*
X825833Y1196330D1*
X828677Y1200443D1*
X831787Y1204357D1*
X835150Y1208057D1*
X838750Y1211523D1*
X842570Y1214747D1*
X846597Y1217710D1*
X850813Y1220397D1*
X855197Y1222800D1*
X859730Y1224907D1*
X864393Y1226710D1*
X869163Y1228200D1*
X874023Y1229370D1*
X878950Y1230217D1*
X883923Y1230733D1*
X888920Y1230920D1*
X893917Y1230773D1*
X898893Y1230300D1*
X903827Y1229493D1*
X908697Y1228363D1*
X913480Y1226913D1*
X918157Y1225150D1*
X922710Y1223080D1*
X927113Y1220713D1*
X931350Y1218060D1*
X935400Y1215133D1*
X939250Y1211943D1*
X942877Y1208503D1*
X946270Y1204833D1*
X949413Y1200947D1*
X952290Y1196857D1*
X954893Y1192590D1*
X957203Y1188157D1*
X959217Y1183580D1*
X960923Y1178880D1*
X962313Y1174080D1*
X963383Y1169197D1*
X964127Y1164253D1*
X964633Y1155520D1*
X964467Y1150523D1*
X-1599100Y-1186433D2*
X-1595600D1*
Y-1199420D1*
X-1452387Y-1199433D1*
X-1452400Y-1186433D1*
X-1448903D1*
X-1448900Y-981207D1*
X-1448730Y-976900D1*
X-1448223Y-972620D1*
X-1447383Y-968390D1*
X-1446213Y-964240D1*
X-1444720Y-960197D1*
X-1442917Y-956283D1*
X-1440810Y-952520D1*
X-1438403Y-948923D1*
X-1438130Y-946930D1*
X-1438563Y-941950D1*
X-1438717Y-936953D1*
X-1438590Y-931957D1*
X-1438183Y-926973D1*
X-1437497Y-922020D1*
X-1436533Y-917113D1*
X-1435300Y-912270D1*
X-1433793Y-907503D1*
X-1432027Y-902827D1*
X-1429997Y-898257D1*
X-1427717Y-893810D1*
X-1425190Y-889497D1*
X-1422423Y-885330D1*
X-1419430Y-881327D1*
X-1416217Y-877497D1*
X-1412793Y-873853D1*
X-1409173Y-870407D1*
X-1405363Y-867170D1*
X-1401380Y-864150D1*
X-1397230Y-861357D1*
X-1392933Y-858803D1*
X-1388500Y-856493D1*
X-1383943Y-854433D1*
X-1379280Y-852637D1*
X-1374523Y-851100D1*
X-1369687Y-849833D1*
X-1364787Y-848840D1*
X-1359840Y-848123D1*
X-1354860Y-847683D1*
X-1349863Y-847523D1*
X-1344863Y-847643D1*
X-1339880Y-848047D1*
X-1334927Y-848723D1*
X-1330020Y-849680D1*
X-1325173Y-850910D1*
X-1320407Y-852407D1*
X-1315727Y-854170D1*
X-1311157Y-856193D1*
X-1306703Y-858470D1*
X-1302387Y-860990D1*
X-1298217Y-863750D1*
X-1294210Y-866740D1*
X-1290377Y-869947D1*
X-1286727Y-873367D1*
X-1283277Y-876983D1*
X-1280033Y-880787D1*
X-1277010Y-884767D1*
X-1274213Y-888913D1*
X-1271653Y-893207D1*
X-1269337Y-897637D1*
X-1267273Y-902190D1*
X-1265467Y-906853D1*
X-1263927Y-911607D1*
X-1262653Y-916443D1*
X-1261653Y-921340D1*
X-1260930Y-926287D1*
X-1260483Y-931267D1*
X-1260317Y-936723D1*
X-1260457Y-941720D1*
X-1260877Y-946703D1*
X-1261573Y-951653D1*
X-1262550Y-956557D1*
X-1263797Y-961397D1*
X-1265313Y-966160D1*
X-1267097Y-970833D1*
X-1269137Y-975397D1*
X-1271430Y-979840D1*
X-1273967Y-984147D1*
X-1276743Y-988303D1*
X-1279747Y-992300D1*
X-1282970Y-996120D1*
X-1286403Y-999757D1*
X-1290033Y-1003193D1*
X-1293850Y-1006423D1*
X-1297843Y-1009430D1*
X-1301997Y-1012213D1*
X-1306300Y-1014757D1*
X-1310740Y-1017053D1*
X-1315300Y-1019100D1*
X-1319970Y-1020887D1*
X-1324733Y-1022410D1*
X-1329573Y-1023663D1*
X-1334473Y-1024647D1*
X-1339093Y-1025303D1*
X-1339100Y-1186420D1*
X-1335600Y-1186433D1*
Y-1398233D1*
X-1452400D1*
Y-1385247D1*
X-1595610Y-1385233D1*
X-1595600Y-1398233D1*
X-1712400D1*
Y-1186433D1*
X-1708903D1*
X-1708900Y-1052353D1*
X-1714127Y-1047550D1*
X-1717567Y-1043923D1*
X-1720800Y-1040110D1*
X-1723813Y-1036120D1*
X-1726600Y-1031970D1*
X-1729150Y-1027670D1*
X-1731453Y-1023233D1*
X-1733507Y-1018673D1*
X-1735300Y-1014007D1*
X-1736830Y-1009247D1*
X-1738090Y-1004410D1*
X-1739077Y-999510D1*
X-1739787Y-994560D1*
X-1740220Y-989580D1*
X-1740373Y-984583D1*
X-1740247Y-979587D1*
X-1739840Y-974603D1*
X-1739153Y-969650D1*
X-1738190Y-964743D1*
X-1736957Y-959900D1*
X-1735450Y-955133D1*
X-1733683Y-950457D1*
X-1731653Y-945887D1*
X-1729373Y-941440D1*
X-1726847Y-937127D1*
X-1724080Y-932960D1*
X-1721087Y-928957D1*
X-1717873Y-925127D1*
X-1714450Y-921483D1*
X-1710830Y-918037D1*
X-1707020Y-914800D1*
X-1703037Y-911780D1*
X-1698887Y-908987D1*
X-1694590Y-906433D1*
X-1690157Y-904123D1*
X-1685600Y-902063D1*
X-1680937Y-900267D1*
X-1676180Y-898730D1*
X-1671343Y-897463D1*
X-1666443Y-896470D1*
X-1661497Y-895753D1*
X-1656517Y-895313D1*
X-1651520Y-895153D1*
X-1646520Y-895273D1*
X-1641537Y-895677D1*
X-1636583Y-896353D1*
X-1631677Y-897310D1*
X-1626830Y-898540D1*
X-1622063Y-900037D1*
X-1617383Y-901800D1*
X-1612813Y-903823D1*
X-1608360Y-906100D1*
X-1604043Y-908620D1*
X-1599873Y-911380D1*
X-1595867Y-914370D1*
X-1592033Y-917577D1*
X-1588383Y-920997D1*
X-1584933Y-924613D1*
X-1581690Y-928417D1*
X-1578667Y-932397D1*
X-1575870Y-936543D1*
X-1573310Y-940837D1*
X-1570993Y-945267D1*
X-1568930Y-949820D1*
X-1567123Y-954483D1*
X-1565583Y-959237D1*
X-1564310Y-964073D1*
X-1563310Y-968970D1*
X-1562587Y-973917D1*
X-1562140Y-978897D1*
X-1561973Y-984353D1*
X-1562113Y-989350D1*
X-1562533Y-994333D1*
X-1563230Y-999283D1*
X-1564207Y-1004187D1*
X-1565453Y-1009027D1*
X-1566970Y-1013790D1*
X-1568753Y-1018463D1*
X-1570793Y-1023027D1*
X-1573087Y-1027470D1*
X-1575623Y-1031777D1*
X-1578400Y-1035933D1*
X-1581403Y-1039930D1*
X-1584627Y-1043750D1*
X-1588060Y-1047387D1*
X-1591690Y-1050823D1*
X-1595507Y-1054053D1*
X-1599110Y-1056767D1*
X-1599100Y-1186443D1*
X-1961400Y-1206433D2*
X-1725600D1*
Y-1423233D1*
X-1962400D1*
Y-1206433D1*
X-1961400D1*
X-1321400D2*
X-1085600D1*
Y-1423233D1*
X-1322400D1*
Y-1206433D1*
X-1321400D1*
X-594717Y263133D2*
X-599120Y266787D1*
X-602760Y270213D1*
X-606200Y273840D1*
X-609433Y277653D1*
X-612447Y281643D1*
X-615233Y285793D1*
X-617783Y290093D1*
X-620087Y294530D1*
X-622140Y299090D1*
X-623933Y303757D1*
X-625463Y308517D1*
X-626723Y313353D1*
X-627710Y318253D1*
X-628420Y323203D1*
X-628853Y328183D1*
X-629007Y333180D1*
X-628880Y338177D1*
X-628473Y343160D1*
X-627787Y348113D1*
X-626823Y353020D1*
X-625590Y357863D1*
X-624083Y362630D1*
X-622317Y367307D1*
X-620287Y371877D1*
X-618007Y376323D1*
X-615480Y380637D1*
X-612713Y384803D1*
X-609720Y388807D1*
X-606507Y392637D1*
X-603083Y396280D1*
X-599463Y399727D1*
X-594703Y403683D1*
X-594707Y421790D1*
X-610183Y437283D1*
X-1010580Y437277D1*
X-995230Y421930D1*
X-989697Y422450D1*
X-984700Y422610D1*
X-979700Y422490D1*
X-974717Y422087D1*
X-969763Y421410D1*
X-964857Y420453D1*
X-960010Y419223D1*
X-955243Y417727D1*
X-950563Y415963D1*
X-945993Y413940D1*
X-941540Y411663D1*
X-937223Y409143D1*
X-933053Y406383D1*
X-929047Y403393D1*
X-925213Y400187D1*
X-921563Y396767D1*
X-918113Y393150D1*
X-914870Y389347D1*
X-911847Y385367D1*
X-909050Y381220D1*
X-906490Y376927D1*
X-904173Y372497D1*
X-902110Y367943D1*
X-900303Y363280D1*
X-898763Y358527D1*
X-897490Y353690D1*
X-896490Y348793D1*
X-895767Y343847D1*
X-895320Y338867D1*
X-895153Y333410D1*
X-895293Y328413D1*
X-895713Y323430D1*
X-896410Y318480D1*
X-897387Y313577D1*
X-898633Y308737D1*
X-900150Y303973D1*
X-901933Y299300D1*
X-903973Y294737D1*
X-906267Y290293D1*
X-908803Y285987D1*
X-911580Y281830D1*
X-914583Y277833D1*
X-917807Y274013D1*
X-921240Y270377D1*
X-924870Y266940D1*
X-928687Y263710D1*
X-932680Y260703D1*
X-936833Y257920D1*
X-941137Y255377D1*
X-945577Y253080D1*
X-950137Y251033D1*
X-954807Y249247D1*
X-959570Y247723D1*
X-964410Y246470D1*
X-969310Y245487D1*
X-974260Y244783D1*
X-979240Y244357D1*
X-984237Y244210D1*
X-989237Y244343D1*
X-994217Y244757D1*
X-999170Y245450D1*
X-1004073Y246417D1*
X-1008917Y247660D1*
X-1013683Y249170D1*
X-1018357Y250947D1*
X-1022923Y252980D1*
X-1027367Y255267D1*
X-1031680Y257800D1*
X-1035840Y260570D1*
X-1039840Y263567D1*
X-1043667Y266787D1*
X-1047307Y270213D1*
X-1050747Y273840D1*
X-1053980Y277653D1*
X-1056993Y281643D1*
X-1059780Y285793D1*
X-1062330Y290093D1*
X-1064633Y294530D1*
X-1066687Y299090D1*
X-1068480Y303757D1*
X-1070010Y308517D1*
X-1071270Y313353D1*
X-1072257Y318253D1*
X-1072967Y323203D1*
X-1073400Y328183D1*
X-1073553Y333180D1*
X-1073427Y338177D1*
X-1072867Y344263D1*
X-1102350Y373767D1*
X-1573030Y373770D1*
X-1568170Y372823D1*
X-1563323Y371593D1*
X-1558557Y370097D1*
X-1553877Y368333D1*
X-1549307Y366310D1*
X-1544853Y364033D1*
X-1540537Y361513D1*
X-1536367Y358753D1*
X-1532360Y355763D1*
X-1528527Y352557D1*
X-1524877Y349137D1*
X-1521427Y345520D1*
X-1518183Y341717D1*
X-1515160Y337737D1*
X-1512363Y333590D1*
X-1509803Y329297D1*
X-1507487Y324867D1*
X-1505423Y320313D1*
X-1503617Y315650D1*
X-1502077Y310897D1*
X-1500803Y306060D1*
X-1499803Y301163D1*
X-1499080Y296217D1*
X-1498633Y291237D1*
X-1498467Y285780D1*
X-1498607Y280783D1*
X-1499027Y275800D1*
X-1499723Y270850D1*
X-1500700Y265947D1*
X-1501947Y261107D1*
X-1503463Y256343D1*
X-1505247Y251670D1*
X-1507287Y247107D1*
X-1509580Y242663D1*
X-1512117Y238357D1*
X-1514893Y234200D1*
X-1517897Y230203D1*
X-1521120Y226383D1*
X-1524553Y222747D1*
X-1528183Y219310D1*
X-1532000Y216080D1*
X-1535993Y213073D1*
X-1540147Y210290D1*
X-1544450Y207747D1*
X-1548890Y205450D1*
X-1553450Y203403D1*
X-1558120Y201617D1*
X-1562883Y200093D1*
X-1567723Y198840D1*
X-1572623Y197857D1*
X-1577573Y197153D1*
X-1582553Y196727D1*
X-1587550Y196580D1*
X-1592550Y196713D1*
X-1597530Y197127D1*
X-1602483Y197820D1*
X-1607387Y198787D1*
X-1612230Y200030D1*
X-1616997Y201540D1*
X-1621670Y203317D1*
X-1626237Y205350D1*
X-1630680Y207637D1*
X-1634993Y210170D1*
X-1639153Y212940D1*
X-1643153Y215937D1*
X-1646980Y219157D1*
X-1650620Y222583D1*
X-1654060Y226210D1*
X-1657940Y230880D1*
X-1969953D1*
X-1965087Y229933D1*
X-1960240Y228703D1*
X-1955473Y227207D1*
X-1950793Y225443D1*
X-1946223Y223420D1*
X-1941770Y221143D1*
X-1937453Y218623D1*
X-1933283Y215863D1*
X-1929277Y212873D1*
X-1925443Y209667D1*
X-1921793Y206247D1*
X-1918343Y202630D1*
X-1915100Y198827D1*
X-1912077Y194847D1*
X-1909280Y190700D1*
X-1906720Y186407D1*
X-1904380Y181923D1*
X-682697Y181913D1*
X-678390Y181743D1*
X-674110Y181237D1*
X-669880Y180397D1*
X-665730Y179227D1*
X-661687Y177733D1*
X-657773Y175930D1*
X-654010Y173823D1*
X-650427Y171430D1*
X-647043Y168760D1*
X-640340Y162297D1*
X-421813Y-56230D1*
X-370700Y-56237D1*
X-578627Y151700D1*
X-581553Y154867D1*
X-584223Y158250D1*
X-586617Y161833D1*
X-588723Y165597D1*
X-590527Y169510D1*
X-592020Y173553D1*
X-593190Y177703D1*
X-594030Y181933D1*
X-594537Y186213D1*
X-594707Y195520D1*
Y263117D1*
X-1930337Y72123D2*
X-1937063Y67400D1*
X-1941367Y64857D1*
X-1945807Y62560D1*
X-1950367Y60513D1*
X-1955037Y58727D1*
X-1959800Y57203D1*
X-1964640Y55950D1*
X-1969540Y54967D1*
X-1974490Y54263D1*
X-1979470Y53837D1*
X-1984467Y53690D1*
X-1989467Y53823D1*
X-1994447Y54237D1*
X-1999400Y54930D1*
X-2004303Y55897D1*
X-2009147Y57140D1*
X-2013913Y58650D1*
X-2018587Y60427D1*
X-2023153Y62460D1*
X-2027597Y64747D1*
X-2031910Y67280D1*
X-2036070Y70050D1*
X-2040070Y73047D1*
X-2043897Y76267D1*
X-2047537Y79693D1*
X-2050977Y83320D1*
X-2054210Y87133D1*
X-2057223Y91123D1*
X-2060010Y95273D1*
X-2062560Y99573D1*
X-2064863Y104010D1*
X-2066917Y108570D1*
X-2068710Y113237D1*
X-2070240Y117997D1*
X-2071500Y122833D1*
X-2072487Y127733D1*
X-2073197Y132683D1*
X-2073630Y137663D1*
X-2073783Y142660D1*
X-2073373Y151103D1*
X-2075943Y148773D1*
X-2079327Y146103D1*
X-2082910Y143710D1*
X-2086673Y141603D1*
X-2090587Y139800D1*
X-2094630Y138307D1*
X-2098780Y137137D1*
X-2103010Y136297D1*
X-2107290Y135790D1*
X-2116597Y135620D1*
X-2784977D1*
X-2776210Y132553D1*
X-2771640Y130530D1*
X-2767187Y128253D1*
X-2762870Y125733D1*
X-2758700Y122973D1*
X-2754693Y119983D1*
X-2750860Y116777D1*
X-2747210Y113357D1*
X-2743760Y109740D1*
X-2740517Y105937D1*
X-2737493Y101957D1*
X-2734697Y97810D1*
X-2732137Y93517D1*
X-2729820Y89087D1*
X-2727757Y84533D1*
X-2725950Y79870D1*
X-2724410Y75117D1*
X-2723137Y70280D1*
X-2722137Y65383D1*
X-2721413Y60437D1*
X-2720967Y55457D1*
X-2720800Y50000D1*
X-2720940Y45003D1*
X-2721360Y40020D1*
X-2722057Y35070D1*
X-2723033Y30167D1*
X-2724280Y25327D1*
X-2725797Y20563D1*
X-2727580Y15890D1*
X-2729620Y11327D1*
X-2731913Y6883D1*
X-2735590Y873D1*
X-2615933Y-118760D1*
X-514547Y-118767D1*
X-705430Y72107D1*
X-1930293Y72113D1*
X-2390610Y580160D2*
X-2394337Y575670D1*
X-2397770Y572033D1*
X-2401400Y568597D1*
X-2405217Y565367D1*
X-2409210Y562360D1*
X-2413363Y559577D1*
X-2417667Y557033D1*
X-2422107Y554737D1*
X-2426667Y552690D1*
X-2431337Y550903D1*
X-2436100Y549380D1*
X-2440940Y548127D1*
X-2446323Y547077D1*
X-983293Y547107D1*
X-988197Y548073D1*
X-993040Y549317D1*
X-997807Y550827D1*
X-1002480Y552603D1*
X-1007047Y554637D1*
X-1011490Y556923D1*
X-1015803Y559457D1*
X-1019963Y562227D1*
X-1023963Y565223D1*
X-1027790Y568443D1*
X-1031430Y571870D1*
X-1034870Y575497D1*
X-1038750Y580167D1*
X-2390567D1*
X-2546467Y312537D2*
X-2546887Y307553D1*
X-2547583Y302603D1*
X-2548560Y297700D1*
X-2549807Y292860D1*
X-2551323Y288097D1*
X-2553107Y283423D1*
X-2555147Y278860D1*
X-2557440Y274417D1*
X-2559977Y270110D1*
X-2562753Y265953D1*
X-2565757Y261957D1*
X-2568980Y258137D1*
X-2572413Y254500D1*
X-2576043Y251063D1*
X-2583057Y245427D1*
X-2134320Y245420D1*
X-2055157Y324600D1*
X-2051990Y327527D1*
X-2048607Y330197D1*
X-2045023Y332590D1*
X-2041260Y334697D1*
X-2037347Y336500D1*
X-2033303Y337993D1*
X-2029153Y339163D1*
X-2024923Y340003D1*
X-2020643Y340510D1*
X-2011337Y340680D1*
X-1657957D1*
X-1654367Y345007D1*
X-1650943Y348650D1*
X-1647323Y352097D1*
X-1643513Y355333D1*
X-1639530Y358353D1*
X-1635380Y361147D1*
X-1631083Y363700D1*
X-1626650Y366010D1*
X-1622093Y368070D1*
X-1617430Y369867D1*
X-1612673Y371403D1*
X-1607837Y372670D1*
X-1602220Y373767D1*
X-2566273Y373770D1*
X-2563020Y369490D1*
X-2560223Y365343D1*
X-2557663Y361050D1*
X-2555347Y356620D1*
X-2553283Y352067D1*
X-2551477Y347403D1*
X-2549937Y342650D1*
X-2548663Y337813D1*
X-2547663Y332917D1*
X-2546940Y327970D1*
X-2546493Y322990D1*
X-2546327Y317533D1*
X-2546467Y312537D1*
X930860Y758333D2*
X930507Y751343D1*
X929610Y744403D1*
X928167Y737557D1*
X926193Y730840D1*
X923700Y724303D1*
X920700Y717980D1*
X917217Y711910D1*
X913267Y706133D1*
X908877Y700683D1*
X904070Y695597D1*
X898883Y690900D1*
X893340Y686627D1*
X887483Y682800D1*
X881340Y679443D1*
X874957Y676577D1*
X868367Y674223D1*
X861610Y672393D1*
X854733Y671097D1*
X847777Y670343D1*
X840783Y670137D1*
X833793Y670480D1*
X826850Y671373D1*
X820000Y672803D1*
X813283Y674770D1*
X806743Y677253D1*
X800413Y680247D1*
X794340Y683723D1*
X788560Y687667D1*
X783103Y692050D1*
X778010Y696847D1*
X773307Y702030D1*
X769027Y707567D1*
X765190Y713420D1*
X761827Y719557D1*
X758953Y725937D1*
X756590Y732523D1*
X754750Y739277D1*
X753447Y746153D1*
X752683Y753107D1*
X752470Y760103D1*
X752803Y767093D1*
X753687Y774037D1*
X755110Y780887D1*
X757067Y787607D1*
X759543Y794153D1*
X762527Y800483D1*
X765993Y806560D1*
X769930Y812347D1*
X774307Y817807D1*
X779100Y822910D1*
X784277Y827620D1*
X789803Y831907D1*
X795653Y835750D1*
X801787Y839123D1*
X808163Y842003D1*
X814747Y844373D1*
X821497Y846223D1*
X828370Y847537D1*
X835327Y848307D1*
X842320Y848530D1*
X849313Y848207D1*
X856257Y847333D1*
X863110Y845917D1*
X869830Y843970D1*
X876380Y841503D1*
X882713Y838527D1*
X888797Y835067D1*
X894590Y831137D1*
X900053Y826767D1*
X905160Y821983D1*
X909877Y816813D1*
X914173Y811290D1*
X918023Y805443D1*
X921403Y799317D1*
X924293Y792943D1*
X926673Y786363D1*
X928530Y779613D1*
X929853Y772743D1*
X930633Y765787D1*
X930867Y759333D1*
X930860Y758333D1*
X484860Y1382333D2*
X484507Y1375343D1*
X483610Y1368403D1*
X482167Y1361557D1*
X480193Y1354840D1*
X477700Y1348303D1*
X474700Y1341980D1*
X471217Y1335910D1*
X467267Y1330133D1*
X462877Y1324683D1*
X458070Y1319597D1*
X452883Y1314900D1*
X447340Y1310627D1*
X441483Y1306800D1*
X435340Y1303443D1*
X428957Y1300577D1*
X422367Y1298223D1*
X415610Y1296393D1*
X408733Y1295097D1*
X401777Y1294343D1*
X394783Y1294137D1*
X387793Y1294480D1*
X380850Y1295373D1*
X374000Y1296803D1*
X367283Y1298770D1*
X360743Y1301253D1*
X354413Y1304247D1*
X348340Y1307723D1*
X342560Y1311667D1*
X337103Y1316050D1*
X332010Y1320847D1*
X327307Y1326030D1*
X323027Y1331567D1*
X319190Y1337420D1*
X315827Y1343557D1*
X312953Y1349937D1*
X310590Y1356523D1*
X308750Y1363277D1*
X307447Y1370153D1*
X306683Y1377107D1*
X306470Y1384103D1*
X306803Y1391093D1*
X307687Y1398037D1*
X309110Y1404887D1*
X311067Y1411607D1*
X313543Y1418153D1*
X316527Y1424483D1*
X319993Y1430560D1*
X323930Y1436347D1*
X328307Y1441807D1*
X333100Y1446910D1*
X338277Y1451620D1*
X343803Y1455907D1*
X349653Y1459750D1*
X355787Y1463123D1*
X362163Y1466003D1*
X368747Y1468373D1*
X375497Y1470223D1*
X382370Y1471537D1*
X389327Y1472307D1*
X396320Y1472530D1*
X403313Y1472207D1*
X410257Y1471333D1*
X417110Y1469917D1*
X423830Y1467970D1*
X430380Y1465503D1*
X436713Y1462527D1*
X442797Y1459067D1*
X448590Y1455137D1*
X454053Y1450767D1*
X459160Y1445983D1*
X463877Y1440813D1*
X468173Y1435290D1*
X472023Y1429443D1*
X475403Y1423317D1*
X478293Y1416943D1*
X480673Y1410363D1*
X482530Y1403613D1*
X483853Y1396743D1*
X484633Y1389787D1*
X484867Y1383333D1*
X484860Y1382333D1*
X470837Y-163590D2*
X475613Y-156603D1*
X480510Y-150280D1*
X485767Y-144250D1*
X491360Y-138530D1*
X497277Y-133147D1*
X503493Y-128113D1*
X509990Y-123450D1*
X516747Y-119167D1*
X523737Y-115280D1*
X530943Y-111807D1*
X538337Y-108753D1*
X545893Y-106133D1*
X553590Y-103953D1*
X561397Y-102220D1*
X569293Y-100943D1*
X577250Y-100127D1*
X585243Y-99767D1*
X593240Y-99873D1*
X601220Y-100437D1*
X609153Y-101463D1*
X617013Y-102947D1*
X624773Y-104880D1*
X632410Y-107260D1*
X639897Y-110077D1*
X647207Y-113323D1*
X654320Y-116983D1*
X661207Y-121050D1*
X667850Y-125507D1*
X674223Y-130340D1*
X680307Y-135537D1*
X686080Y-141073D1*
X691523Y-146933D1*
X696620Y-153097D1*
X701350Y-159547D1*
X705700Y-166260D1*
X709657Y-173213D1*
X713203Y-180380D1*
X714440Y-183153D1*
X718113Y-175357D1*
X722970Y-166617D1*
X728447Y-158250D1*
X734510Y-150303D1*
X737793Y-146453D1*
X615247Y-23887D1*
X357747Y-23900D1*
X281883Y-99757D1*
X470837Y-99747D1*
Y-163597D1*
X-2871417Y-715450D2*
X-2871770Y-723440D1*
X-2872687Y-731387D1*
X-2874157Y-739247D1*
X-2876180Y-746987D1*
X-2878743Y-754563D1*
X-2881837Y-761940D1*
X-2885440Y-769080D1*
X-2889537Y-775950D1*
X-2894110Y-782510D1*
X-2899133Y-788737D1*
X-2904583Y-794590D1*
X-2910430Y-800047D1*
X-2916650Y-805077D1*
X-2923207Y-809657D1*
X-2930070Y-813763D1*
X-2937207Y-817373D1*
X-2944580Y-820473D1*
X-2952153Y-823047D1*
X-2959890Y-825077D1*
X-2967750Y-826560D1*
X-2975693Y-827483D1*
X-2983687Y-827843D1*
X-2991680Y-827643D1*
X-2999643Y-826877D1*
X-3007530Y-825550D1*
X-3015307Y-823673D1*
X-3022927Y-821253D1*
X-3030363Y-818300D1*
X-3037570Y-814830D1*
X-3044513Y-810863D1*
X-3051160Y-806417D1*
X-3057477Y-801510D1*
X-3063433Y-796170D1*
X-3069000Y-790427D1*
X-3074143Y-784303D1*
X-3078847Y-777833D1*
X-3083080Y-771047D1*
X-3086827Y-763980D1*
X-3090063Y-756667D1*
X-3092777Y-749140D1*
X-3094953Y-741443D1*
X-3096583Y-733613D1*
X-3097657Y-725687D1*
X-3098167Y-717707D1*
X-3098113Y-709707D1*
X-3097497Y-701733D1*
X-3096320Y-693823D1*
X-3094590Y-686013D1*
X-3092313Y-678347D1*
X-3089500Y-670860D1*
X-3086167Y-663587D1*
X-3082330Y-656570D1*
X-3078007Y-649840D1*
X-3073220Y-643433D1*
X-3067997Y-637377D1*
X-3062357Y-631707D1*
X-3056330Y-626447D1*
X-3049950Y-621623D1*
X-3043243Y-617263D1*
X-3036247Y-613387D1*
X-3028997Y-610010D1*
X-3021523Y-607157D1*
X-3013870Y-604837D1*
X-3006073Y-603060D1*
X-2998167Y-601840D1*
X-2990197Y-601177D1*
X-2982200Y-601080D1*
X-2974213Y-601547D1*
X-2966283Y-602573D1*
X-2958443Y-604160D1*
X-2950733Y-606293D1*
X-2943193Y-608963D1*
X-2935863Y-612160D1*
X-2928773Y-615863D1*
X-2921963Y-620060D1*
X-2915467Y-624723D1*
X-2909313Y-629837D1*
X-2903537Y-635367D1*
X-2898167Y-641293D1*
X-2893223Y-647583D1*
X-2888740Y-654207D1*
X-2884733Y-661127D1*
X-2881223Y-668313D1*
X-2878227Y-675730D1*
X-2875763Y-683340D1*
X-2873843Y-691103D1*
X-2872473Y-698987D1*
X-2871663Y-706943D1*
X-2871413Y-714450D1*
X-2871417Y-715450D1*
Y-1365450D2*
X-2871770Y-1373440D1*
X-2872687Y-1381387D1*
X-2874157Y-1389247D1*
X-2876180Y-1396987D1*
X-2878743Y-1404563D1*
X-2881837Y-1411940D1*
X-2885440Y-1419080D1*
X-2889537Y-1425950D1*
X-2894110Y-1432510D1*
X-2899133Y-1438737D1*
X-2904583Y-1444590D1*
X-2910430Y-1450047D1*
X-2916650Y-1455077D1*
X-2923207Y-1459657D1*
X-2930070Y-1463763D1*
X-2937207Y-1467373D1*
X-2944580Y-1470473D1*
X-2952153Y-1473047D1*
X-2959890Y-1475077D1*
X-2967750Y-1476560D1*
X-2975693Y-1477483D1*
X-2983687Y-1477843D1*
X-2991680Y-1477643D1*
X-2999643Y-1476877D1*
X-3007530Y-1475550D1*
X-3015307Y-1473673D1*
X-3022927Y-1471253D1*
X-3030363Y-1468300D1*
X-3037570Y-1464830D1*
X-3044513Y-1460863D1*
X-3051160Y-1456417D1*
X-3057477Y-1451510D1*
X-3063433Y-1446170D1*
X-3069000Y-1440427D1*
X-3074143Y-1434303D1*
X-3078847Y-1427833D1*
X-3083080Y-1421047D1*
X-3086827Y-1413980D1*
X-3090063Y-1406667D1*
X-3092777Y-1399140D1*
X-3094953Y-1391443D1*
X-3096583Y-1383613D1*
X-3097657Y-1375687D1*
X-3098167Y-1367707D1*
X-3098113Y-1359707D1*
X-3097497Y-1351733D1*
X-3096320Y-1343823D1*
X-3094590Y-1336013D1*
X-3092313Y-1328347D1*
X-3089500Y-1320860D1*
X-3086167Y-1313587D1*
X-3082330Y-1306570D1*
X-3078007Y-1299840D1*
X-3073220Y-1293433D1*
X-3067997Y-1287377D1*
X-3062357Y-1281707D1*
X-3056330Y-1276447D1*
X-3049950Y-1271623D1*
X-3043243Y-1267263D1*
X-3036247Y-1263387D1*
X-3028997Y-1260010D1*
X-3021523Y-1257157D1*
X-3013870Y-1254837D1*
X-3006073Y-1253060D1*
X-2998167Y-1251840D1*
X-2990197Y-1251177D1*
X-2982200Y-1251080D1*
X-2974213Y-1251547D1*
X-2966283Y-1252573D1*
X-2958443Y-1254160D1*
X-2950733Y-1256293D1*
X-2943193Y-1258963D1*
X-2935863Y-1262160D1*
X-2928773Y-1265863D1*
X-2921963Y-1270060D1*
X-2915467Y-1274723D1*
X-2909313Y-1279837D1*
X-2903537Y-1285367D1*
X-2898167Y-1291293D1*
X-2893223Y-1297583D1*
X-2888740Y-1304207D1*
X-2884733Y-1311127D1*
X-2881223Y-1318313D1*
X-2878227Y-1325730D1*
X-2875763Y-1333340D1*
X-2873843Y-1341103D1*
X-2872473Y-1348987D1*
X-2871663Y-1356943D1*
X-2871413Y-1364450D1*
X-2871417Y-1365450D1*
X-3321523Y-1369450D2*
X-3322403Y-1379407D1*
X-3324157Y-1389247D1*
X-3326773Y-1398897D1*
X-3330227Y-1408277D1*
X-3334490Y-1417320D1*
X-3339537Y-1425950D1*
X-3345323Y-1434100D1*
X-3351807Y-1441710D1*
X-3358933Y-1448720D1*
X-3366650Y-1455077D1*
X-3374897Y-1460727D1*
X-3383607Y-1465630D1*
X-3392717Y-1469747D1*
X-3402153Y-1473047D1*
X-3411847Y-1475500D1*
X-3421713Y-1477090D1*
X-3431687Y-1477807D1*
X-3441680Y-1477643D1*
X-3451623Y-1476597D1*
X-3461433Y-1474680D1*
X-3471040Y-1471907D1*
X-3480363Y-1468300D1*
X-3489330Y-1463887D1*
X-3497877Y-1458697D1*
X-3505930Y-1452777D1*
X-3513433Y-1446170D1*
X-3520327Y-1438930D1*
X-3526553Y-1431110D1*
X-3532067Y-1422770D1*
X-3536827Y-1413980D1*
X-3540790Y-1404803D1*
X-3543933Y-1395313D1*
X-3546227Y-1385583D1*
X-3547657Y-1375687D1*
X-3548207Y-1365707D1*
X-3547877Y-1355717D1*
X-3546667Y-1345793D1*
X-3544590Y-1336013D1*
X-3541660Y-1326457D1*
X-3537897Y-1317193D1*
X-3533337Y-1308300D1*
X-3528007Y-1299840D1*
X-3521957Y-1291883D1*
X-3515227Y-1284490D1*
X-3507870Y-1277720D1*
X-3499950Y-1271623D1*
X-3491520Y-1266247D1*
X-3482653Y-1261633D1*
X-3473410Y-1257820D1*
X-3463870Y-1254837D1*
X-3454103Y-1252703D1*
X-3444187Y-1251437D1*
X-3434197Y-1251053D1*
X-3424213Y-1251547D1*
X-3414310Y-1252920D1*
X-3404570Y-1255157D1*
X-3395060Y-1258247D1*
X-3385863Y-1262160D1*
X-3377043Y-1266867D1*
X-3368673Y-1272333D1*
X-3360820Y-1278517D1*
X-3353537Y-1285367D1*
X-3346890Y-1292833D1*
X-3340923Y-1300857D1*
X-3335687Y-1309370D1*
X-3331223Y-1318313D1*
X-3327563Y-1327617D1*
X-3324733Y-1337207D1*
X-3322763Y-1347007D1*
X-3321663Y-1356943D1*
X-3321413Y-1364450D1*
X-3321523Y-1369450D1*
X-3998767Y-1370393D2*
X-3999647Y-1380350D1*
X-4001400Y-1390190D1*
X-4004017Y-1399840D1*
X-4007470Y-1409220D1*
X-4011733Y-1418263D1*
X-4016780Y-1426893D1*
X-4022567Y-1435043D1*
X-4029050Y-1442653D1*
X-4036177Y-1449663D1*
X-4043893Y-1456020D1*
X-4052140Y-1461670D1*
X-4060850Y-1466573D1*
X-4069960Y-1470690D1*
X-4079397Y-1473990D1*
X-4089090Y-1476443D1*
X-4098957Y-1478033D1*
X-4108930Y-1478750D1*
X-4118923Y-1478587D1*
X-4128867Y-1477540D1*
X-4138677Y-1475623D1*
X-4148283Y-1472850D1*
X-4157607Y-1469243D1*
X-4166573Y-1464830D1*
X-4175120Y-1459640D1*
X-4183173Y-1453720D1*
X-4190677Y-1447113D1*
X-4197570Y-1439873D1*
X-4203797Y-1432053D1*
X-4209310Y-1423713D1*
X-4214070Y-1414923D1*
X-4218033Y-1405747D1*
X-4221177Y-1396257D1*
X-4223470Y-1386527D1*
X-4224900Y-1376630D1*
X-4225450Y-1366650D1*
X-4225120Y-1356660D1*
X-4223910Y-1346737D1*
X-4221833Y-1336957D1*
X-4218903Y-1327400D1*
X-4215140Y-1318137D1*
X-4210580Y-1309243D1*
X-4205250Y-1300783D1*
X-4199200Y-1292827D1*
X-4192470Y-1285433D1*
X-4185113Y-1278663D1*
X-4177193Y-1272567D1*
X-4168763Y-1267190D1*
X-4159897Y-1262577D1*
X-4150653Y-1258763D1*
X-4141113Y-1255780D1*
X-4131347Y-1253647D1*
X-4121430Y-1252380D1*
X-4111440Y-1251997D1*
X-4101457Y-1252490D1*
X-4091553Y-1253863D1*
X-4081813Y-1256100D1*
X-4072303Y-1259190D1*
X-4063107Y-1263103D1*
X-4054287Y-1267810D1*
X-4045917Y-1273277D1*
X-4038063Y-1279460D1*
X-4030780Y-1286310D1*
X-4024133Y-1293777D1*
X-4018167Y-1301800D1*
X-4012930Y-1310313D1*
X-4008467Y-1319257D1*
X-4004807Y-1328560D1*
X-4001977Y-1338150D1*
X-4000007Y-1347950D1*
X-3998907Y-1357887D1*
X-3998657Y-1365393D1*
X-3998767Y-1370393D1*
X-3548660Y-1366393D2*
X-3549013Y-1374383D1*
X-3549930Y-1382330D1*
X-3551400Y-1390190D1*
X-3553423Y-1397930D1*
X-3555987Y-1405507D1*
X-3559080Y-1412883D1*
X-3562683Y-1420023D1*
X-3566780Y-1426893D1*
X-3571353Y-1433453D1*
X-3576377Y-1439680D1*
X-3581827Y-1445533D1*
X-3587673Y-1450990D1*
X-3593893Y-1456020D1*
X-3600450Y-1460600D1*
X-3607313Y-1464707D1*
X-3614450Y-1468317D1*
X-3621823Y-1471417D1*
X-3629397Y-1473990D1*
X-3637133Y-1476020D1*
X-3644993Y-1477503D1*
X-3652937Y-1478427D1*
X-3660930Y-1478787D1*
X-3668923Y-1478587D1*
X-3676887Y-1477820D1*
X-3684773Y-1476493D1*
X-3692550Y-1474617D1*
X-3700170Y-1472197D1*
X-3707607Y-1469243D1*
X-3714813Y-1465773D1*
X-3721757Y-1461807D1*
X-3728403Y-1457360D1*
X-3734720Y-1452453D1*
X-3740677Y-1447113D1*
X-3746243Y-1441370D1*
X-3751387Y-1435247D1*
X-3756090Y-1428777D1*
X-3760323Y-1421990D1*
X-3764070Y-1414923D1*
X-3767307Y-1407610D1*
X-3770020Y-1400083D1*
X-3772197Y-1392387D1*
X-3773827Y-1384557D1*
X-3774900Y-1376630D1*
X-3775410Y-1368650D1*
X-3775357Y-1360650D1*
X-3774740Y-1352677D1*
X-3773563Y-1344767D1*
X-3771833Y-1336957D1*
X-3769557Y-1329290D1*
X-3766743Y-1321803D1*
X-3763410Y-1314530D1*
X-3759573Y-1307513D1*
X-3755250Y-1300783D1*
X-3750463Y-1294377D1*
X-3745240Y-1288320D1*
X-3739600Y-1282650D1*
X-3733573Y-1277390D1*
X-3727193Y-1272567D1*
X-3720487Y-1268207D1*
X-3713490Y-1264330D1*
X-3706240Y-1260953D1*
X-3698767Y-1258100D1*
X-3691113Y-1255780D1*
X-3683317Y-1254003D1*
X-3675410Y-1252783D1*
X-3667440Y-1252120D1*
X-3659443Y-1252023D1*
X-3651457Y-1252490D1*
X-3643527Y-1253517D1*
X-3635687Y-1255103D1*
X-3627977Y-1257237D1*
X-3620437Y-1259907D1*
X-3613107Y-1263103D1*
X-3606017Y-1266807D1*
X-3599207Y-1271003D1*
X-3592710Y-1275667D1*
X-3586557Y-1280780D1*
X-3580780Y-1286310D1*
X-3575410Y-1292237D1*
X-3570467Y-1298527D1*
X-3565983Y-1305150D1*
X-3561977Y-1312070D1*
X-3558467Y-1319257D1*
X-3555470Y-1326673D1*
X-3553007Y-1334283D1*
X-3551087Y-1342047D1*
X-3549717Y-1349930D1*
X-3548907Y-1357887D1*
X-3548657Y-1365393D1*
X-3548660Y-1366393D1*
Y-716393D2*
X-3549013Y-724383D1*
X-3549930Y-732330D1*
X-3551400Y-740190D1*
X-3553423Y-747930D1*
X-3555987Y-755507D1*
X-3559080Y-762883D1*
X-3562683Y-770023D1*
X-3566780Y-776893D1*
X-3571353Y-783453D1*
X-3576377Y-789680D1*
X-3581827Y-795533D1*
X-3587673Y-800990D1*
X-3593893Y-806020D1*
X-3600450Y-810600D1*
X-3607313Y-814707D1*
X-3614450Y-818317D1*
X-3621823Y-821417D1*
X-3629397Y-823990D1*
X-3637133Y-826020D1*
X-3644993Y-827503D1*
X-3652937Y-828427D1*
X-3660930Y-828787D1*
X-3668923Y-828587D1*
X-3676887Y-827820D1*
X-3684773Y-826493D1*
X-3692550Y-824617D1*
X-3700170Y-822197D1*
X-3707607Y-819243D1*
X-3714813Y-815773D1*
X-3721757Y-811807D1*
X-3728403Y-807360D1*
X-3734720Y-802453D1*
X-3740677Y-797113D1*
X-3746243Y-791370D1*
X-3751387Y-785247D1*
X-3756090Y-778777D1*
X-3760323Y-771990D1*
X-3764070Y-764923D1*
X-3767307Y-757610D1*
X-3770020Y-750083D1*
X-3772197Y-742387D1*
X-3773827Y-734557D1*
X-3774900Y-726630D1*
X-3775410Y-718650D1*
X-3775357Y-710650D1*
X-3774740Y-702677D1*
X-3773563Y-694767D1*
X-3771833Y-686957D1*
X-3769557Y-679290D1*
X-3766743Y-671803D1*
X-3763410Y-664530D1*
X-3759573Y-657513D1*
X-3755250Y-650783D1*
X-3750463Y-644377D1*
X-3745240Y-638320D1*
X-3739600Y-632650D1*
X-3733573Y-627390D1*
X-3727193Y-622567D1*
X-3720487Y-618207D1*
X-3713490Y-614330D1*
X-3706240Y-610953D1*
X-3698767Y-608100D1*
X-3691113Y-605780D1*
X-3683317Y-604003D1*
X-3675410Y-602783D1*
X-3667440Y-602120D1*
X-3659443Y-602023D1*
X-3651457Y-602490D1*
X-3643527Y-603517D1*
X-3635687Y-605103D1*
X-3627977Y-607237D1*
X-3620437Y-609907D1*
X-3613107Y-613103D1*
X-3606017Y-616807D1*
X-3599207Y-621003D1*
X-3592710Y-625667D1*
X-3586557Y-630780D1*
X-3580780Y-636310D1*
X-3575410Y-642237D1*
X-3570467Y-648527D1*
X-3565983Y-655150D1*
X-3561977Y-662070D1*
X-3558467Y-669257D1*
X-3555470Y-676673D1*
X-3553007Y-684283D1*
X-3551087Y-692047D1*
X-3549717Y-699930D1*
X-3548907Y-707887D1*
X-3548657Y-715393D1*
X-3548660Y-716393D1*
X-2370203Y1392147D2*
X-2370927Y1382177D1*
X-2372367Y1372283D1*
X-2374517Y1362520D1*
X-2377363Y1352937D1*
X-2380900Y1343583D1*
X-2385100Y1334510D1*
X-2389943Y1325763D1*
X-2395407Y1317390D1*
X-2401457Y1309433D1*
X-2408070Y1301933D1*
X-2415207Y1294930D1*
X-2422827Y1288460D1*
X-2430897Y1282560D1*
X-2432453Y1281547D1*
X-2371113Y1281550D1*
Y1004750D1*
X-2647913D1*
Y1281550D1*
X-2584613D1*
X-2590383Y1285557D1*
X-2598223Y1291760D1*
X-2605597Y1298510D1*
X-2612467Y1305777D1*
X-2618790Y1313520D1*
X-2624540Y1321700D1*
X-2629683Y1330270D1*
X-2634197Y1339193D1*
X-2638050Y1348417D1*
X-2641230Y1357897D1*
X-2643717Y1367580D1*
X-2645500Y1377417D1*
X-2646567Y1387360D1*
X-2646913Y1397350D1*
X-2646537Y1407340D1*
X-2645440Y1417280D1*
X-2643630Y1427110D1*
X-2641113Y1436787D1*
X-2637907Y1446257D1*
X-2634023Y1455470D1*
X-2629487Y1464377D1*
X-2624317Y1472937D1*
X-2618543Y1481097D1*
X-2612197Y1488823D1*
X-2605307Y1496067D1*
X-2597913Y1502797D1*
X-2590053Y1508977D1*
X-2581767Y1514570D1*
X-2573100Y1519553D1*
X-2564093Y1523897D1*
X-2554800Y1527577D1*
X-2545263Y1530580D1*
X-2535533Y1532883D1*
X-2525663Y1534480D1*
X-2515703Y1535360D1*
X-2505707Y1535517D1*
X-2495727Y1534953D1*
X-2485810Y1533673D1*
X-2476013Y1531677D1*
X-2466387Y1528980D1*
X-2456980Y1525593D1*
X-2447840Y1521540D1*
X-2439020Y1516833D1*
X-2430560Y1511507D1*
X-2422507Y1505580D1*
X-2414903Y1499087D1*
X-2407790Y1492063D1*
X-2401200Y1484543D1*
X-2395170Y1476570D1*
X-2389733Y1468180D1*
X-2384913Y1459420D1*
X-2380743Y1450333D1*
X-2377237Y1440973D1*
X-2374413Y1431380D1*
X-2372293Y1421610D1*
X-2370883Y1411713D1*
X-2370190Y1401740D1*
X-2370203Y1392147D1*
X828573Y-895097D2*
D15*
Y-968477D1*
X-4400823Y539807D2*
Y466427D1*
X-3651633Y1404130D2*
Y1320750D1*
X-3540497Y1404130D2*
Y1320750D1*
X-3397607Y816693D2*
Y733313D1*
Y949613D2*
Y866233D1*
X254027Y-1405753D2*
Y-1524133D1*
X-666820Y-1167657D2*
Y-1404417D1*
X-2397377Y-968477D2*
Y-1056857D1*
X-2399033Y-1192013D2*
Y-1538773D1*
X851233Y173900D2*
Y-22860D1*
X-120767Y1653900D2*
Y1417140D1*
X839233Y1723900D2*
Y1527140D1*
X-3964557Y2099943D2*
Y1803183D1*
X-4259557Y2099943D2*
Y1803183D1*
X-1844000Y-1206453D2*
Y-1423213D1*
X-1204000Y-1206453D2*
Y-1423213D1*
X-1866500Y-1456453D2*
Y-1663213D1*
X-1181500Y-1456453D2*
Y-1663213D1*
X-1644000Y-1426453D2*
Y-1559833D1*
X-1404000Y-1426453D2*
Y-1559833D1*
X841667Y848513D2*
Y670153D1*
X-4289000Y1234667D2*
Y1145487D1*
X395667Y1472513D2*
Y1294153D1*
X-3950920Y1048317D2*
Y967437D1*
X587437Y-99770D2*
Y-238150D1*
Y-746203D2*
Y-884583D1*
X-2984813Y-601070D2*
Y-827830D1*
Y-1251070D2*
Y-1477830D1*
X-3662057Y-1252013D2*
Y-1478773D1*
Y-602013D2*
Y-828773D1*
X-396917Y-1158997D2*
Y-1304877D1*
X-3604003Y1764553D2*
Y1537793D1*
D19*
X698573Y-968477D3*
X828573D3*
X-4270823Y539807D3*
X-4400823D3*
D20*
X-4270823Y777957D3*
Y647957D3*
X-4413713Y777957D3*
Y647957D3*
X-4112057Y1365393D3*
Y1495393D3*
X-4239070Y1492407D3*
Y1362407D3*
X-3651633Y1190750D3*
Y1320750D3*
X-3540497Y1190750D3*
Y1320750D3*
X-3397607Y603313D3*
Y733313D3*
Y1079613D3*
Y949613D3*
D21*
X254027Y-1270133D3*
D22*
Y-1524133D3*
D21*
X-666820Y-1540037D3*
D22*
Y-1286037D3*
D23*
X-2397377Y-968477D3*
Y-828477D3*
D24*
X-2699033Y-1365393D3*
X-2399033D3*
D26*
X-158767Y190520D3*
Y300520D3*
Y410520D3*
Y520520D3*
Y630520D3*
Y740520D3*
Y850520D3*
Y960520D3*
X-160767Y1070520D3*
D27*
X-98767Y75520D3*
D28*
X851233D3*
D29*
X-120767Y1535520D3*
D28*
X839233Y1625520D3*
D30*
X-4112057Y1794063D3*
D31*
X-3964557Y1951563D3*
X-4259557D3*
D33*
X-1654000Y-1292333D3*
X-1589000D3*
X-1524000D3*
X-1459000D3*
X-1394000D3*
D34*
X-1844000Y-1314833D3*
X-1204000D3*
D35*
X-1866500Y-1559833D3*
X-1181500D3*
D36*
X-1644000D3*
X-1404000D3*
D37*
X-4000920Y1270133D3*
Y1366133D3*
X-3773000Y1123000D3*
Y1219000D3*
D38*
X-3889783Y1365393D3*
X-3793783D3*
D20*
X1158997Y-1286010D3*
Y-1156010D3*
D19*
X698573Y-1540037D3*
X828573D3*
X698573Y-1381270D3*
X828573D3*
D20*
X443667Y-1098667D3*
Y-968667D3*
D19*
X-4413713Y889093D3*
X-4283713D3*
D39*
X-412793D3*
Y1079093D3*
D40*
X-2206857Y-650943D3*
X-2396857D3*
D44*
X841463Y-1079613D3*
Y-1143613D3*
Y-1209613D3*
Y-1274613D3*
X681463D3*
Y-1209613D3*
Y-1143613D3*
Y-1079613D3*
D46*
X-4000920Y587437D3*
X-3950920D3*
X-3900920D3*
X-3850920D3*
X-3800920D3*
D47*
X-3710920Y677437D3*
Y727437D3*
Y777437D3*
Y827437D3*
Y877437D3*
D46*
X-3800920Y967437D3*
X-3850920D3*
X-3900920D3*
X-3950920D3*
X-4000920D3*
D47*
X-4090920Y877437D3*
Y827437D3*
Y777437D3*
Y727437D3*
Y677437D3*
D48*
X-3900920Y777437D3*
D50*
X587437Y-238150D3*
X841437Y-238173D3*
X1095437D3*
D51*
X332437Y-238147D3*
D50*
X587437Y-492177D3*
X841437Y-492200D3*
X1095437D3*
D51*
X332437Y-492173D3*
D50*
X587437Y-746203D3*
X841437Y-746227D3*
X1095437D3*
D51*
X332437Y-746200D3*
D54*
X-2984813Y-714450D3*
Y-1364450D3*
X-3434813Y-714450D3*
Y-1364450D3*
X-4112057Y-1365393D3*
Y-715393D3*
X-3662057Y-1365393D3*
Y-715393D3*
D56*
X-396917Y-1158997D3*
X-166917D3*
X63083D3*
D57*
X-166917Y-578997D3*
D58*
X-3604003Y1651173D3*
X-3889780D3*
D59*
X-3719903D3*
X-3751703D3*
X-3783403D3*
X-3688103D3*
X-3815103D3*
D50*
X-2508513Y1397147D3*
D51*
X-2509513Y1143150D3*
D60*
X-3080073Y660520D3*
Y1143120D3*
G36*
X200000Y-1000000D2*
X-1100000D1*
X-1300000Y-800000D1*
D1*
Y-300000D1*
X100000D1*
Y-1000000D1*
D1*
X200000D1*
G37*
M02*
