G04 DipTrace 3.0.0.1*
G04 ProjectXNew.gbo*
%MOMM*%
G04 #@! TF.FileFunction,Legend,Bot*
G04 #@! TF.Part,Single*
%ADD10C,0.25*%
%ADD18C,0.1*%
%ADD41C,0.15*%
%ADD43C,0.01*%
%ADD141C,0.19608*%
%FSLAX35Y35*%
G04*
G71*
G90*
G75*
G01*
G04 BotSilk*
%LPD*%
X284049Y-1067235D2*
D10*
X224004D1*
X254027Y-1037215D2*
Y-1097193D1*
X27Y-1397208D2*
X645Y-1379496D1*
X2499Y-1361870D1*
X5577Y-1344417D1*
X9866Y-1327221D1*
X15345Y-1310365D1*
X21986Y-1293933D1*
X29758Y-1278004D1*
X38622Y-1262656D1*
X48536Y-1247963D1*
X59451Y-1233997D1*
X71314Y-1220827D1*
X84067Y-1208516D1*
X97649Y-1197124D1*
X111992Y-1186707D1*
X127027Y-1177315D1*
X142680Y-1168995D1*
X158877Y-1161786D1*
X175536Y-1155725D1*
X192579Y-1150840D1*
X209920Y-1147155D1*
X227476Y-1144688D1*
X245162Y-1143452D1*
X262891D1*
X280577Y-1144688D1*
X298133Y-1147155D1*
X315475Y-1150840D1*
X332517Y-1155725D1*
X349177Y-1161786D1*
X365373Y-1168995D1*
X381027Y-1177315D1*
X396062Y-1186707D1*
X410405Y-1197124D1*
X423986Y-1208516D1*
X436739Y-1220827D1*
X448602Y-1233997D1*
X459517Y-1247963D1*
X469431Y-1262656D1*
X478295Y-1278004D1*
X486067Y-1293933D1*
X492709Y-1310365D1*
X498187Y-1327221D1*
X502476Y-1344417D1*
X505555Y-1361870D1*
X507408Y-1379496D1*
X508027Y-1397208D1*
X507408Y-1414920D1*
X505555Y-1432545D1*
X502476Y-1449999D1*
X498187Y-1467195D1*
X492709Y-1484050D1*
X486067Y-1500483D1*
X478295Y-1516412D1*
X469431Y-1531760D1*
X459517Y-1546453D1*
X448602Y-1560418D1*
X436739Y-1573589D1*
X423986Y-1585900D1*
X410405Y-1597292D1*
X396062Y-1607709D1*
X381027Y-1617101D1*
X365373Y-1625421D1*
X349177Y-1632630D1*
X332517Y-1638691D1*
X315475Y-1643576D1*
X298133Y-1647261D1*
X280577Y-1649727D1*
X262891Y-1650964D1*
X245162D1*
X227476Y-1649727D1*
X209920Y-1647261D1*
X192579Y-1643576D1*
X175536Y-1638691D1*
X158877Y-1632630D1*
X142680Y-1625421D1*
X127027Y-1617101D1*
X111992Y-1607709D1*
X97649Y-1597292D1*
X84067Y-1585900D1*
X71314Y-1573589D1*
X59451Y-1560418D1*
X48536Y-1546453D1*
X38622Y-1531760D1*
X29758Y-1516412D1*
X21986Y-1500483D1*
X15345Y-1484050D1*
X9866Y-1467195D1*
X5577Y-1449999D1*
X2499Y-1432545D1*
X645Y-1414920D1*
X27Y-1397208D1*
X-696843Y-1742935D2*
X-636797D1*
X-666820Y-1772955D2*
Y-1712977D1*
X-920820Y-1412962D2*
X-920201Y-1395250D1*
X-918348Y-1377625D1*
X-915269Y-1360171D1*
X-910980Y-1342975D1*
X-905502Y-1326120D1*
X-898861Y-1309687D1*
X-891089Y-1293758D1*
X-882224Y-1278410D1*
X-872310Y-1263717D1*
X-861395Y-1249752D1*
X-849532Y-1236581D1*
X-836779Y-1224270D1*
X-823198Y-1212878D1*
X-808855Y-1202461D1*
X-793820Y-1193069D1*
X-778166Y-1184749D1*
X-761970Y-1177540D1*
X-745310Y-1171479D1*
X-728268Y-1166594D1*
X-710927Y-1162909D1*
X-693370Y-1160443D1*
X-675684Y-1159206D1*
X-657956D1*
X-640270Y-1160443D1*
X-622713Y-1162909D1*
X-605372Y-1166594D1*
X-588330Y-1171479D1*
X-571670Y-1177540D1*
X-555474Y-1184749D1*
X-539820Y-1193069D1*
X-524785Y-1202461D1*
X-510442Y-1212878D1*
X-496861Y-1224270D1*
X-484108Y-1236581D1*
X-472245Y-1249752D1*
X-461330Y-1263717D1*
X-451416Y-1278410D1*
X-442551Y-1293758D1*
X-434779Y-1309687D1*
X-428138Y-1326120D1*
X-422660Y-1342975D1*
X-418371Y-1360171D1*
X-415292Y-1377625D1*
X-413439Y-1395250D1*
X-412820Y-1412962D1*
X-413439Y-1430674D1*
X-415292Y-1448300D1*
X-418371Y-1465753D1*
X-422660Y-1482949D1*
X-428138Y-1499805D1*
X-434779Y-1516237D1*
X-442551Y-1532166D1*
X-451416Y-1547514D1*
X-461330Y-1562207D1*
X-472245Y-1576173D1*
X-484108Y-1589343D1*
X-496861Y-1601654D1*
X-510442Y-1613046D1*
X-524785Y-1623463D1*
X-539820Y-1632855D1*
X-555474Y-1641175D1*
X-571670Y-1648384D1*
X-588330Y-1654445D1*
X-605372Y-1659330D1*
X-622713Y-1663015D1*
X-640270Y-1665482D1*
X-657956Y-1666718D1*
X-675684D1*
X-693370Y-1665482D1*
X-710927Y-1663015D1*
X-728268Y-1659330D1*
X-745310Y-1654445D1*
X-761970Y-1648384D1*
X-778166Y-1641175D1*
X-793820Y-1632855D1*
X-808855Y-1623463D1*
X-823198Y-1613046D1*
X-836779Y-1601654D1*
X-849532Y-1589343D1*
X-861395Y-1576173D1*
X-872310Y-1562207D1*
X-882224Y-1547514D1*
X-891089Y-1532166D1*
X-898861Y-1516237D1*
X-905502Y-1499805D1*
X-910980Y-1482949D1*
X-915269Y-1465753D1*
X-918348Y-1448300D1*
X-920201Y-1430674D1*
X-920820Y-1412962D1*
X-1988857Y-1072011D2*
D41*
X-2893860D1*
Y-382083D1*
X-1988857D1*
Y-1072011D1*
X-1991853Y-904051D2*
X-2896857D1*
Y-549055D1*
X-1991853D1*
Y-904051D1*
X-2132865Y-831015D2*
D18*
X-2777818D1*
Y-615023D1*
X-2132865D1*
Y-831015D1*
G36*
X-2167823Y-802059D2*
X-2307837D1*
Y-641015D1*
X-2167823D1*
Y-802059D1*
G37*
X199025Y981347D2*
D10*
X699028D1*
X199025Y661387D2*
X699028D1*
Y981347D2*
Y661387D1*
X199025Y981347D2*
Y871375D1*
Y771359D2*
Y661387D1*
Y871375D2*
G02X199025Y771359I-8J-50008D01*
G01*
X-666060Y2183640D2*
D43*
X-2265900D1*
Y-216336D1*
X-666060D1*
Y2183640D1*
X693170Y1284638D2*
D141*
X681097Y1290674D1*
X668883Y1302888D1*
X662847Y1314961D1*
Y1339247D1*
X668883Y1351461D1*
X681097Y1363534D1*
X693170Y1369711D1*
X711420Y1375747D1*
X741883D1*
X759993Y1369711D1*
X772206Y1363534D1*
X784279Y1351461D1*
X790456Y1339247D1*
Y1314961D1*
X784280Y1302888D1*
X772206Y1290674D1*
X759993Y1284638D1*
X687274Y1245422D2*
X681097Y1233209D1*
X662987Y1214959D1*
X790456D1*
X687274Y1175743D2*
X681097Y1163530D1*
X662987Y1145280D1*
X790456D1*
X26789Y-986551D2*
X32826Y-974478D1*
X45039Y-962265D1*
X57112Y-956228D1*
X81399D1*
X93612Y-962265D1*
X105685Y-974478D1*
X111862Y-986551D1*
X117899Y-1004801D1*
Y-1035265D1*
X111862Y-1053375D1*
X105685Y-1065588D1*
X93612Y-1077661D1*
X81399Y-1083838D1*
X57112D1*
X45039Y-1077661D1*
X32826Y-1065588D1*
X26789Y-1053375D1*
X-12427Y-980655D2*
X-24640Y-974478D1*
X-42890Y-956369D1*
Y-1083838D1*
X-88283Y-986692D2*
Y-980655D1*
X-94319Y-968442D1*
X-100356Y-962405D1*
X-112569Y-956369D1*
X-136856D1*
X-148929Y-962405D1*
X-154965Y-968442D1*
X-161142Y-980655D1*
Y-992728D1*
X-154965Y-1004942D1*
X-142892Y-1023051D1*
X-82106Y-1083838D1*
X-167179D1*
X-621391Y-991388D2*
X-615354Y-979315D1*
X-603141Y-967102D1*
X-591068Y-961065D1*
X-566781D1*
X-554568Y-967102D1*
X-542495Y-979315D1*
X-536318Y-991388D1*
X-530281Y-1009638D1*
Y-1040102D1*
X-536318Y-1058211D1*
X-542495Y-1070425D1*
X-554568Y-1082498D1*
X-566781Y-1088675D1*
X-591068D1*
X-603141Y-1082498D1*
X-615354Y-1070425D1*
X-621391Y-1058211D1*
X-660607Y-985492D2*
X-672820Y-979315D1*
X-691070Y-961205D1*
Y-1088675D1*
X-742499Y-961205D2*
X-809182D1*
X-772822Y-1009779D1*
X-791072D1*
X-803145Y-1015815D1*
X-809182Y-1021852D1*
X-815359Y-1040102D1*
Y-1052175D1*
X-809182Y-1070425D1*
X-797109Y-1082638D1*
X-778859Y-1088675D1*
X-760609D1*
X-742499Y-1082638D1*
X-736463Y-1076461D1*
X-730286Y-1064388D1*
X-3240273Y1008056D2*
Y953446D1*
X-3246450Y935196D1*
X-3252487Y929019D1*
X-3264560Y922983D1*
X-3276773D1*
X-3288846Y929019D1*
X-3295023Y935196D1*
X-3301060Y953446D1*
Y1008056D1*
X-3173450D1*
X-3240273Y965519D2*
X-3173450Y922983D1*
X-3282810Y810908D2*
X-3294883Y816944D1*
X-3300920Y835194D1*
X-3300919Y847267D1*
X-3294883Y865517D1*
X-3276633Y877731D1*
X-3246310Y883767D1*
X-3215987D1*
X-3191700Y877731D1*
X-3179487Y865517D1*
X-3173450Y847267D1*
Y841231D1*
X-3179487Y823121D1*
X-3191700Y810908D1*
X-3209950Y804871D1*
X-3215987D1*
X-3234237Y810908D1*
X-3246310Y823121D1*
X-3252346Y841231D1*
Y847267D1*
X-3246310Y865517D1*
X-3234237Y877731D1*
X-3215987Y883767D1*
X68467Y1474681D2*
Y1420071D1*
X62290Y1401821D1*
X56253Y1395645D1*
X44180Y1389608D1*
X31967D1*
X19894Y1395645D1*
X13717Y1401822D1*
X7680Y1420071D1*
Y1474681D1*
X135290D1*
X68467Y1432144D2*
X135290Y1389608D1*
Y1326106D2*
X7820Y1265319D1*
X7821Y1350392D1*
X436800Y1580944D2*
Y1526335D1*
X430623Y1508085D1*
X424587Y1501908D1*
X412514Y1495871D1*
X400300D1*
X388227Y1501908D1*
X382050Y1508085D1*
X376014Y1526335D1*
Y1580944D1*
X503623D1*
X436800Y1538408D2*
X503623Y1495871D1*
X376154Y1426333D2*
X382190Y1444442D1*
X394264Y1450619D1*
X406477D1*
X418550Y1444442D1*
X424727Y1432369D1*
X430763Y1408083D1*
X436800Y1389833D1*
X449013Y1377759D1*
X461086Y1371723D1*
X479336D1*
X491410Y1377759D1*
X497587Y1383796D1*
X503623Y1402046D1*
Y1426332D1*
X497587Y1444442D1*
X491410Y1450619D1*
X479337Y1456655D1*
X461087D1*
X449014Y1450619D1*
X436800Y1438406D1*
X430764Y1420296D1*
X424727Y1396009D1*
X418550Y1383796D1*
X406477Y1377759D1*
X394263D1*
X382190Y1383796D1*
X376154Y1402046D1*
Y1426333D1*
X731360Y368603D2*
Y313993D1*
X725183Y295743D1*
X719147Y289566D1*
X707074Y283530D1*
X694860D1*
X682787Y289566D1*
X676610Y295743D1*
X670574Y313993D1*
Y368603D1*
X798183D1*
X731360Y326066D2*
X798183Y283530D1*
X713110Y165278D2*
X731360Y171455D1*
X743573Y183528D1*
X749610Y201778D1*
Y207814D1*
X743574Y226064D1*
X731360Y238137D1*
X713110Y244314D1*
X707074D1*
X688824Y238137D1*
X676750Y226064D1*
X670714Y207814D1*
Y201778D1*
X676750Y183528D1*
X688823Y171455D1*
X713110Y165278D1*
X743573D1*
X773896Y171455D1*
X792147Y183528D1*
X798183Y201778D1*
Y213851D1*
X792147Y232101D1*
X779933Y238137D1*
X-83813Y299523D2*
X-138422D1*
X-156672Y305700D1*
X-162849Y311737D1*
X-168886Y323810D1*
Y336023D1*
X-162849Y348096D1*
X-156672Y354273D1*
X-138422Y360310D1*
X-83813D1*
Y232700D1*
X-126349Y299523D2*
X-168886Y232700D1*
X-208102Y335883D2*
X-220315Y342060D1*
X-238565Y360170D1*
Y232700D1*
X-314281Y360170D2*
X-296031Y354133D1*
X-283817Y335883D1*
X-277781Y305560D1*
Y287310D1*
X-283817Y256987D1*
X-296031Y238737D1*
X-314281Y232700D1*
X-326354D1*
X-344604Y238737D1*
X-356677Y256987D1*
X-362854Y287310D1*
Y305560D1*
X-356677Y335883D1*
X-344604Y354133D1*
X-326354Y360170D1*
X-314281D1*
X-356677Y335883D2*
X-283817Y256987D1*
X471882Y178200D2*
X417273D1*
X399023Y184377D1*
X392846Y190414D1*
X386809Y202487D1*
Y214700D1*
X392846Y226773D1*
X399023Y232950D1*
X417273Y238987D1*
X471882D1*
Y111377D1*
X429346Y178200D2*
X386809Y111377D1*
X347594Y214560D2*
X335380Y220737D1*
X317130Y238846D1*
Y111377D1*
X277914Y214560D2*
X265701Y220737D1*
X247451Y238846D1*
Y111377D1*
X-3194320Y-847660D2*
X-3248929D1*
X-3267179Y-841483D1*
X-3273356Y-835446D1*
X-3279393Y-823373D1*
Y-811160D1*
X-3273356Y-799087D1*
X-3267179Y-792910D1*
X-3248929Y-786873D1*
X-3194320D1*
Y-914483D1*
X-3236856Y-847660D2*
X-3279393Y-914483D1*
X-3318608Y-811300D2*
X-3330822Y-805123D1*
X-3349072Y-787014D1*
Y-914483D1*
X-3400501Y-787014D2*
X-3467184D1*
X-3430824Y-835587D1*
X-3449074D1*
X-3461147Y-841623D1*
X-3467184Y-847660D1*
X-3473360Y-865910D1*
Y-877983D1*
X-3467184Y-896233D1*
X-3455110Y-908446D1*
X-3436860Y-914483D1*
X-3418610D1*
X-3400501Y-908446D1*
X-3394464Y-902270D1*
X-3388287Y-890196D1*
X-2397988Y136693D2*
X-2452598D1*
X-2470848Y142870D1*
X-2477024Y148907D1*
X-2483061Y160980D1*
Y173193D1*
X-2477024Y185266D1*
X-2470848Y191443D1*
X-2452598Y197480D1*
X-2397988D1*
Y69870D1*
X-2440524Y136693D2*
X-2483061Y69870D1*
X-2522277Y173053D2*
X-2534490Y179230D1*
X-2552740Y197340D1*
Y69870D1*
X-2652742D2*
Y197340D1*
X-2591956Y112407D1*
X-2683065D1*
X-2370159Y-179310D2*
X-2358086Y-167097D1*
X-2339836Y-161060D1*
X-2315550D1*
X-2297300Y-167097D1*
X-2285086Y-179310D1*
Y-191383D1*
X-2291263Y-203597D1*
X-2297300Y-209633D1*
X-2309373Y-215670D1*
X-2345873Y-227883D1*
X-2358086Y-233920D1*
X-2364123Y-240097D1*
X-2370159Y-252170D1*
Y-270420D1*
X-2358086Y-282493D1*
X-2339836Y-288670D1*
X-2315550D1*
X-2297300Y-282493D1*
X-2285086Y-270420D1*
X-2409375Y-161060D2*
X-2439838Y-288670D1*
X-2470161Y-161060D1*
X-2500485Y-288670D1*
X-2530948Y-161060D1*
X-2570164Y-185487D2*
X-2582377Y-179310D1*
X-2600627Y-161200D1*
Y-288670D1*
X981708Y885020D2*
Y793910D1*
X975671Y775660D1*
X963458Y763587D1*
X945208Y757410D1*
X933135D1*
X914885Y763587D1*
X902671Y775660D1*
X896635Y793910D1*
Y885020D1*
X845205Y884880D2*
X778523D1*
X814882Y836306D1*
X796632D1*
X784559Y830270D1*
X778523Y824233D1*
X772346Y805983D1*
Y793910D1*
X778523Y775660D1*
X790596Y763447D1*
X808846Y757410D1*
X827096D1*
X845205Y763447D1*
X851242Y769624D1*
X857419Y781697D1*
X-1361299Y2369627D2*
Y2278517D1*
X-1367336Y2260267D1*
X-1379549Y2248194D1*
X-1397799Y2242017D1*
X-1409872D1*
X-1428122Y2248194D1*
X-1440336Y2260267D1*
X-1446372Y2278517D1*
Y2369627D1*
X-1509874Y2242017D2*
X-1570661Y2369486D1*
X-1485588D1*
M02*
