G04 DipTrace 3.0.0.1*
G04 ProjectXNew.gto*
%MOMM*%
G04 #@! TF.FileFunction,Legend,Top*
G04 #@! TF.Part,Single*
%ADD10C,0.25*%
%ADD15C,0.2*%
%ADD25C,0.05*%
%ADD32C,0.4005*%
%ADD43C,0.01*%
%ADD45O,0.25063X0.24977*%
%ADD55O,0.39124X0.39194*%
%ADD141C,0.19608*%
%ADD142C,0.11765*%
%ADD143C,0.16667*%
%FSLAX35Y35*%
G04*
G71*
G90*
G75*
G01*
G04 TopSilk*
%LPD*%
X-2342387Y-1048523D2*
D10*
X-2452367D1*
X-2589122Y-1490403D2*
X-2509152D1*
X-2589122Y-1240383D2*
X-2509152D1*
X-199791Y117557D2*
D25*
X1271233D1*
Y1588493D1*
X-199791D1*
Y117557D1*
D32*
X-1654005Y-1174859D3*
X-1903980Y-1427853D2*
D10*
Y-1451857D1*
Y-1669865D2*
Y-1834833D1*
X-1144020D1*
Y-1669865D1*
Y-1427853D2*
Y-1451857D1*
X661461Y-1052113D2*
D43*
X861465D1*
Y-1302113D1*
X661461D1*
Y-1052113D1*
X-4050929Y577367D2*
D10*
X-4100917Y627372D1*
X-3700923Y577367D2*
Y627372D1*
Y577367D2*
X-3750958D1*
X-3700923Y927401D2*
Y977456D1*
X-3750958D1*
X-4100917D2*
X-4050882D1*
X-4100917D2*
Y927401D1*
D45*
X-4001430Y518852D3*
X205437Y-114273D2*
D15*
X1221437D1*
Y-368273D1*
X205437D1*
Y-114273D1*
Y-368300D2*
X1221437D1*
Y-622300D1*
X205437D1*
Y-368300D1*
Y-622327D2*
X1221437D1*
Y-876327D1*
X205437D1*
Y-622327D1*
D55*
X-494273Y-1235690D3*
X-496913Y-1008996D2*
D10*
X163055D1*
X-496913Y-728997D2*
X163055D1*
Y-1008996D2*
Y-728997D1*
X-496913Y-1008996D2*
Y-728997D1*
X-3524653Y1540048D2*
D15*
X-3969153D1*
Y1762298D1*
X-3524653D1*
Y1540048D1*
X-2636513Y1521023D2*
X-2382513D1*
Y1013023D1*
X-2636513D1*
Y1521023D1*
X-2864173Y597002D2*
D10*
Y1206638D1*
X-3295973Y597002D2*
Y1206638D1*
X-2914953Y597002D2*
Y1206638D1*
X-3245194D2*
Y597002D1*
X-3156286Y876410D2*
Y927230D1*
X-3003861D1*
Y876410D1*
X-3156286D1*
Y965345D2*
X-3080073D1*
X-3003861D1*
X-3156286Y838295D2*
X-3080073D1*
X-3003861D1*
X-3080073Y965345D2*
Y1028871D1*
Y838295D2*
Y774769D1*
X-3295973Y597002D2*
G03X-2864173Y597002I215900J18D01*
G01*
Y1206638D2*
G03X-3295973Y1206638I-215900J-18D01*
G01*
X-3245194Y597002D2*
G03X-2914953Y597002I165120J58D01*
G01*
Y1206638D2*
G03X-3245194Y1206638I-165120J-58D01*
G01*
X997622Y-950480D2*
D141*
X991585Y-938407D1*
X979372Y-926193D1*
X967299Y-920157D1*
X943012D1*
X930799Y-926193D1*
X918726Y-938407D1*
X912549Y-950480D1*
X906512Y-968730D1*
Y-999193D1*
X912549Y-1017303D1*
X918726Y-1029516D1*
X930799Y-1041589D1*
X943012Y-1047766D1*
X967299D1*
X979372Y-1041589D1*
X991585Y-1029516D1*
X997622Y-1017303D1*
X1036838Y-944584D2*
X1049051Y-938407D1*
X1067301Y-920297D1*
Y-1047766D1*
X-4356413Y-4530D2*
X-4362449Y7543D1*
X-4374663Y19757D1*
X-4386736Y25793D1*
X-4411023D1*
X-4423236Y19757D1*
X-4435309Y7543D1*
X-4441486Y-4530D1*
X-4447523Y-22780D1*
Y-53243D1*
X-4441486Y-71353D1*
X-4435309Y-83566D1*
X-4423236Y-95639D1*
X-4411023Y-101816D1*
X-4386736D1*
X-4374663Y-95639D1*
X-4362449Y-83566D1*
X-4356413Y-71353D1*
X-4311020Y-4670D2*
Y1366D1*
X-4304984Y13580D1*
X-4298947Y19616D1*
X-4286734Y25653D1*
X-4262447D1*
X-4250374Y19616D1*
X-4244338Y13580D1*
X-4238161Y1366D1*
Y-10707D1*
X-4244338Y-22920D1*
X-4256411Y-41030D1*
X-4317197Y-101816D1*
X-4232124D1*
X-4285487Y182367D2*
X-4297560Y176331D1*
X-4309773Y164117D1*
X-4315810Y152044D1*
Y127758D1*
X-4309773Y115544D1*
X-4297560Y103471D1*
X-4285487Y97294D1*
X-4267237Y91258D1*
X-4236773D1*
X-4218664Y97294D1*
X-4206450Y103471D1*
X-4194377Y115544D1*
X-4188200Y127758D1*
Y152044D1*
X-4194377Y164117D1*
X-4206450Y176331D1*
X-4218664Y182367D1*
X-4315669Y233796D2*
Y300479D1*
X-4267096Y264119D1*
Y282369D1*
X-4261060Y294442D1*
X-4255023Y300479D1*
X-4236773Y306656D1*
X-4224700D1*
X-4206450Y300479D1*
X-4194237Y288406D1*
X-4188200Y270156D1*
Y251906D1*
X-4194237Y233796D1*
X-4200414Y227760D1*
X-4212487Y221583D1*
X-4473377Y183682D2*
X-4485450Y177646D1*
X-4497663Y165432D1*
X-4503700Y153359D1*
Y129073D1*
X-4497663Y116859D1*
X-4485450Y104786D1*
X-4473377Y98609D1*
X-4455127Y92573D1*
X-4424663D1*
X-4406554Y98609D1*
X-4394340Y104786D1*
X-4382267Y116859D1*
X-4376090Y129073D1*
Y153359D1*
X-4382267Y165432D1*
X-4394340Y177646D1*
X-4406554Y183682D1*
X-4376090Y283684D2*
X-4503559Y283685D1*
X-4418627Y222898D1*
Y314008D1*
X-4341387Y1642137D2*
X-4353460Y1636101D1*
X-4365673Y1623887D1*
X-4371710Y1611814D1*
Y1587528D1*
X-4365673Y1575314D1*
X-4353460Y1563241D1*
X-4341387Y1557064D1*
X-4323137Y1551028D1*
X-4292673D1*
X-4274564Y1557064D1*
X-4262350Y1563241D1*
X-4250277Y1575314D1*
X-4244100Y1587528D1*
Y1611814D1*
X-4250277Y1623887D1*
X-4262350Y1636101D1*
X-4274564Y1642137D1*
X-4371569Y1754213D2*
Y1693566D1*
X-4316960Y1687530D1*
X-4322996Y1693566D1*
X-4329173Y1711816D1*
Y1729926D1*
X-4322996Y1748176D1*
X-4310923Y1760389D1*
X-4292673Y1766426D1*
X-4280600D1*
X-4262350Y1760389D1*
X-4250137Y1748176D1*
X-4244100Y1729926D1*
Y1711816D1*
X-4250137Y1693566D1*
X-4256314Y1687530D1*
X-4268387Y1681353D1*
X-4529400Y1645572D2*
X-4541473Y1639536D1*
X-4553687Y1627323D1*
X-4559723Y1615249D1*
Y1590963D1*
X-4553687Y1578749D1*
X-4541473Y1566676D1*
X-4529400Y1560499D1*
X-4511150Y1554463D1*
X-4480687D1*
X-4462577Y1560499D1*
X-4450364Y1566676D1*
X-4438290Y1578749D1*
X-4432114Y1590963D1*
Y1615249D1*
X-4438290Y1627322D1*
X-4450364Y1639536D1*
X-4462577Y1645572D1*
X-4541473Y1757648D2*
X-4553546Y1751611D1*
X-4559583Y1733361D1*
Y1721288D1*
X-4553546Y1703038D1*
X-4535296Y1690825D1*
X-4504973Y1684788D1*
X-4474650D1*
X-4450364Y1690825D1*
X-4438150Y1703038D1*
X-4432114Y1721288D1*
Y1727324D1*
X-4438150Y1745434D1*
X-4450364Y1757648D1*
X-4468614Y1763684D1*
X-4474650D1*
X-4492900Y1757648D1*
X-4504973Y1745434D1*
X-4511010Y1727325D1*
Y1721288D1*
X-4504973Y1703038D1*
X-4492900Y1690825D1*
X-4474650Y1684788D1*
X-2163630Y1318161D2*
X-2175703Y1312124D1*
X-2187917Y1299911D1*
X-2193953Y1287838D1*
Y1263551D1*
X-2187917Y1251338D1*
X-2175703Y1239265D1*
X-2163630Y1233088D1*
X-2145380Y1227051D1*
X-2114917D1*
X-2096807Y1233088D1*
X-2084594Y1239265D1*
X-2072520Y1251338D1*
X-2066344Y1263551D1*
Y1287837D1*
X-2072520Y1299911D1*
X-2084594Y1312124D1*
X-2096807Y1318161D1*
X-2066344Y1381663D2*
X-2193813Y1442449D1*
Y1357376D1*
X-1973827Y1318231D2*
X-1985900Y1312194D1*
X-1998113Y1299981D1*
X-2004150Y1287908D1*
Y1263621D1*
X-1998113Y1251408D1*
X-1985900Y1239335D1*
X-1973827Y1233158D1*
X-1955577Y1227121D1*
X-1925113D1*
X-1907004Y1233158D1*
X-1894790Y1239335D1*
X-1882717Y1251408D1*
X-1876540Y1263621D1*
Y1287908D1*
X-1882717Y1299981D1*
X-1894790Y1312194D1*
X-1907004Y1318231D1*
X-2004009Y1387770D2*
X-1997973Y1369660D1*
X-1985900Y1363483D1*
X-1973686D1*
X-1961613Y1369660D1*
X-1955436Y1381733D1*
X-1949400Y1406019D1*
X-1943363Y1424269D1*
X-1931150Y1436343D1*
X-1919077Y1442379D1*
X-1900827D1*
X-1888754Y1436342D1*
X-1882577Y1430306D1*
X-1876540Y1412056D1*
Y1387769D1*
X-1882577Y1369660D1*
X-1888754Y1363483D1*
X-1900827Y1357446D1*
X-1919077D1*
X-1931150Y1363483D1*
X-1943363Y1375696D1*
X-1949400Y1393806D1*
X-1955436Y1418093D1*
X-1961613Y1430306D1*
X-1973686Y1436343D1*
X-1985900D1*
X-1997973Y1430306D1*
X-2004009Y1412056D1*
Y1387770D1*
X-3457603Y382076D2*
X-3469676Y376039D1*
X-3481890Y363826D1*
X-3487927Y351753D1*
Y327466D1*
X-3481890Y315253D1*
X-3469677Y303180D1*
X-3457604Y297003D1*
X-3439354Y290966D1*
X-3408890D1*
X-3390780Y297003D1*
X-3378567Y303180D1*
X-3366494Y315253D1*
X-3360317Y327466D1*
Y351752D1*
X-3366494Y363825D1*
X-3378567Y376039D1*
X-3390780Y382076D1*
X-3445390Y500328D2*
X-3427140Y494151D1*
X-3414926Y482078D1*
X-3408890Y463828D1*
Y457791D1*
X-3414926Y439541D1*
X-3427140Y427468D1*
X-3445390Y421291D1*
X-3451426D1*
X-3469676Y427468D1*
X-3481750Y439541D1*
X-3487786Y457791D1*
Y463828D1*
X-3481750Y482078D1*
X-3469676Y494151D1*
X-3445390Y500328D1*
X-3414926D1*
X-3384603Y494151D1*
X-3366353Y482078D1*
X-3360317Y463828D1*
Y451755D1*
X-3366353Y433505D1*
X-3378567Y427468D1*
X-3434937Y1266184D2*
X-3447010Y1260148D1*
X-3459223Y1247934D1*
X-3465260Y1235861D1*
Y1211575D1*
X-3459223Y1199361D1*
X-3447010Y1187288D1*
X-3434937Y1181111D1*
X-3416687Y1175075D1*
X-3386223D1*
X-3368114Y1181111D1*
X-3355900Y1187288D1*
X-3343827Y1199361D1*
X-3337650Y1211575D1*
Y1235861D1*
X-3343827Y1247934D1*
X-3355900Y1260148D1*
X-3368114Y1266184D1*
X-3440833Y1305400D2*
X-3447010Y1317614D1*
X-3465119Y1335864D1*
X-3337650Y1335863D1*
X-3465119Y1411579D2*
X-3459083Y1393329D1*
X-3440833Y1381116D1*
X-3410510Y1375079D1*
X-3392260D1*
X-3361937Y1381116D1*
X-3343687Y1393329D1*
X-3337650Y1411579D1*
Y1423652D1*
X-3343687Y1441902D1*
X-3361937Y1453975D1*
X-3392260Y1460152D1*
X-3410510D1*
X-3440833Y1453975D1*
X-3459083Y1441902D1*
X-3465119Y1423652D1*
Y1411579D1*
X-3440833Y1453975D2*
X-3361937Y1381116D1*
X-2648363Y-958542D2*
X-2520754D1*
X-2520753Y-916006D1*
X-2526930Y-897756D1*
X-2539003Y-885543D1*
X-2551217Y-879506D1*
X-2569327Y-873470D1*
X-2599790Y-873469D1*
X-2618040Y-879506D1*
X-2630113Y-885543D1*
X-2642327Y-897756D1*
X-2648363Y-916006D1*
Y-958542D1*
X-2623936Y-834254D2*
X-2630113Y-822040D1*
X-2648223Y-803790D1*
X-2520754Y-803791D1*
X-2570021Y-1030740D2*
X-2649058D1*
Y-1158350D1*
Y-1091527D2*
X-2600485D1*
X-2530806Y-1055167D2*
X-2518592Y-1048990D1*
X-2500342Y-1030880D1*
Y-1158350D1*
X471787Y909173D2*
Y812027D1*
X465750Y793777D1*
X459574Y787741D1*
X447500Y781564D1*
X435287D1*
X423214Y787741D1*
X417177Y793777D1*
X411000Y812027D1*
Y824100D1*
X511003Y884746D2*
X523216Y890923D1*
X541466Y909033D1*
Y781564D1*
X-4495141Y2026883D2*
Y1929737D1*
X-4501178Y1911487D1*
X-4507355Y1905451D1*
X-4519428Y1899274D1*
X-4531641D1*
X-4543714Y1905451D1*
X-4549751Y1911487D1*
X-4555928Y1929737D1*
Y1941810D1*
X-4449749Y1996420D2*
Y2002456D1*
X-4443712Y2014670D1*
X-4437675Y2020706D1*
X-4425462Y2026743D1*
X-4401175D1*
X-4389102Y2020706D1*
X-4383066Y2014670D1*
X-4376889Y2002456D1*
Y1990383D1*
X-4383066Y1978170D1*
X-4395139Y1960060D1*
X-4455925Y1899274D1*
X-4370852D1*
X-1951751Y-990847D2*
Y-1087993D1*
X-1957788Y-1106243D1*
X-1963965Y-1112279D1*
X-1976038Y-1118456D1*
X-1988251D1*
X-2000324Y-1112279D1*
X-2006361Y-1106243D1*
X-2012538Y-1087993D1*
Y-1075920D1*
X-1900322Y-990987D2*
X-1833639D1*
X-1869999Y-1039560D1*
X-1851749D1*
X-1839676Y-1045597D1*
X-1833639Y-1051633D1*
X-1827462Y-1069883D1*
Y-1081956D1*
X-1833639Y-1100206D1*
X-1845712Y-1112420D1*
X-1863962Y-1118456D1*
X-1882212D1*
X-1900322Y-1112420D1*
X-1906359Y-1106243D1*
X-1912535Y-1094170D1*
X-4537907Y1120198D2*
X-4410297D1*
Y1193057D1*
X-4513480Y1232273D2*
X-4519656Y1244486D1*
X-4537766Y1262736D1*
X-4410297D1*
X-4235320Y1096093D2*
X-4107710D1*
Y1168952D1*
X-4204856Y1214345D2*
X-4210893D1*
X-4223106Y1220381D1*
X-4229143Y1226418D1*
X-4235179Y1238631D1*
Y1262918D1*
X-4229143Y1274991D1*
X-4223106Y1281028D1*
X-4210893Y1287204D1*
X-4198820D1*
X-4186606Y1281028D1*
X-4168497Y1268954D1*
X-4107710Y1208168D1*
Y1293241D1*
X-4420024Y1501713D2*
Y1374104D1*
X-4347165D1*
X-4295735Y1501573D2*
X-4229053D1*
X-4265412Y1453000D1*
X-4247162D1*
X-4235089Y1446963D1*
X-4229053Y1440927D1*
X-4222876Y1422677D1*
Y1410604D1*
X-4229053Y1392354D1*
X-4241126Y1380140D1*
X-4259376Y1374104D1*
X-4277626D1*
X-4295735Y1380140D1*
X-4301772Y1386317D1*
X-4307949Y1398390D1*
X1095130Y-1525386D2*
Y-1470776D1*
X1088953Y-1452526D1*
X1082917Y-1446349D1*
X1070844Y-1440313D1*
X1058630D1*
X1046557Y-1446349D1*
X1040380Y-1452526D1*
X1034343Y-1470776D1*
Y-1525386D1*
X1161953D1*
X1095130Y-1482849D2*
X1161953Y-1440313D1*
X1058770Y-1401097D2*
X1052594Y-1388884D1*
X1034484Y-1370634D1*
X1161953D1*
X415226Y-1527170D2*
X469835D1*
X488085Y-1520993D1*
X494262Y-1514956D1*
X500299Y-1502883D1*
Y-1490670D1*
X494262Y-1478597D1*
X488085Y-1472420D1*
X469835Y-1466383D1*
X415226D1*
Y-1593993D1*
X457762Y-1527170D2*
X500299Y-1593993D1*
X545691Y-1496847D2*
Y-1490810D1*
X551728Y-1478597D1*
X557765Y-1472560D1*
X569978Y-1466524D1*
X594265D1*
X606338Y-1472560D1*
X612374Y-1478597D1*
X618551Y-1490810D1*
Y-1502883D1*
X612374Y-1515097D1*
X600301Y-1533206D1*
X539515Y-1593993D1*
X624588D1*
X409892Y-1361737D2*
X464502D1*
X482752Y-1355560D1*
X488929Y-1349523D1*
X494965Y-1337450D1*
Y-1325237D1*
X488929Y-1313164D1*
X482752Y-1306987D1*
X464502Y-1300950D1*
X409892D1*
Y-1428560D1*
X452429Y-1361737D2*
X494965Y-1428560D1*
X546395Y-1301090D2*
X613077D1*
X576718Y-1349664D1*
X594968D1*
X607041Y-1355700D1*
X613077Y-1361737D1*
X619254Y-1379987D1*
Y-1392060D1*
X613077Y-1410310D1*
X601004Y-1422523D1*
X582754Y-1428560D1*
X564504D1*
X546395Y-1422523D1*
X540358Y-1416346D1*
X534181Y-1404273D1*
X291800Y-1132699D2*
Y-1078089D1*
X285623Y-1059839D1*
X279587Y-1053662D1*
X267514Y-1047626D1*
X255300D1*
X243227Y-1053662D1*
X237050Y-1059839D1*
X231013Y-1078089D1*
Y-1132699D1*
X358623D1*
X291800Y-1090162D2*
X358623Y-1047626D1*
Y-947624D2*
X231154D1*
X316087Y-1008410D1*
Y-917301D1*
X-4453394Y426627D2*
X-4398785D1*
X-4380535Y432804D1*
X-4374358Y438840D1*
X-4368321Y450913D1*
Y463127D1*
X-4374358Y475200D1*
X-4380535Y481377D1*
X-4398785Y487413D1*
X-4453394D1*
Y359804D1*
X-4410858Y426627D2*
X-4368321Y359804D1*
X-4256246Y487273D2*
X-4316892D1*
X-4322929Y432663D1*
X-4316892Y438700D1*
X-4298642Y444877D1*
X-4280532D1*
X-4262282Y438700D1*
X-4250069Y426627D1*
X-4244032Y408377D1*
Y396304D1*
X-4250069Y378054D1*
X-4262282Y365840D1*
X-4280532Y359804D1*
X-4298642D1*
X-4316892Y365840D1*
X-4322929Y372017D1*
X-4329105Y384090D1*
X-612993Y844573D2*
Y899183D1*
X-619170Y917433D1*
X-625207Y923610D1*
X-637280Y929646D1*
X-649493D1*
X-661566Y923610D1*
X-667743Y917433D1*
X-673780Y899183D1*
Y844573D1*
X-546170D1*
X-612993Y887110D2*
X-546170Y929646D1*
X-649353Y968862D2*
X-655530Y981075D1*
X-673639Y999325D1*
X-546170D1*
X-643316Y1044718D2*
X-649353D1*
X-661566Y1050754D1*
X-667603Y1056791D1*
X-673639Y1069004D1*
Y1093291D1*
X-667603Y1105364D1*
X-661566Y1111400D1*
X-649353Y1117577D1*
X-637280D1*
X-625066Y1111400D1*
X-606957Y1099327D1*
X-546170Y1038541D1*
Y1123614D1*
X-2441377Y-450743D2*
X-2386768D1*
X-2368518Y-444566D1*
X-2362341Y-438530D1*
X-2356304Y-426457D1*
Y-414243D1*
X-2362341Y-402170D1*
X-2368518Y-395993D1*
X-2386768Y-389957D1*
X-2441377D1*
Y-517566D1*
X-2398841Y-450743D2*
X-2356304Y-517566D1*
X-2317088Y-414384D2*
X-2304875Y-408207D1*
X-2286625Y-390097D1*
Y-517566D1*
X-2174550Y-390097D2*
X-2235196D1*
X-2241232Y-444707D1*
X-2235196Y-438670D1*
X-2216946Y-432493D1*
X-2198836D1*
X-2180586Y-438670D1*
X-2168373Y-450743D1*
X-2162336Y-468993D1*
Y-481066D1*
X-2168373Y-499316D1*
X-2180586Y-511530D1*
X-2198836Y-517566D1*
X-2216946D1*
X-2235196Y-511530D1*
X-2241232Y-505353D1*
X-2247409Y-493280D1*
X919143Y-1262822D2*
X1010253D1*
X1028503Y-1256786D1*
X1040576Y-1244572D1*
X1046753Y-1226323D1*
Y-1214250D1*
X1040576Y-1196000D1*
X1028503Y-1183786D1*
X1010253Y-1177750D1*
X919144Y-1177749D1*
X943570Y-1138534D2*
X937394Y-1126320D1*
X919284Y-1108070D1*
X1046753Y-1108071D1*
X-4005601Y1195923D2*
Y1104814D1*
X-3999564Y1086564D1*
X-3987351Y1074491D1*
X-3969101Y1068314D1*
X-3957028D1*
X-3938778Y1074491D1*
X-3926564Y1086564D1*
X-3920528Y1104814D1*
Y1195923D1*
X-3875135Y1165460D2*
Y1171496D1*
X-3869099Y1183710D1*
X-3863062Y1189746D1*
X-3850849Y1195783D1*
X-3826562D1*
X-3814489Y1189746D1*
X-3808453Y1183710D1*
X-3802276Y1171496D1*
Y1159423D1*
X-3808453Y1147210D1*
X-3820526Y1129100D1*
X-3881312Y1068314D1*
X-3796239D1*
X-82596Y-14620D2*
Y-105730D1*
X-76559Y-123980D1*
X-64346Y-136053D1*
X-46096Y-142230D1*
X-34023D1*
X-15773Y-136053D1*
X-3559Y-123980D1*
X2477Y-105730D1*
Y-14620D1*
X102479Y-142230D2*
Y-14760D1*
X41693Y-99693D1*
X132803D1*
X-86911Y-180647D2*
Y-271756D1*
X-80874Y-290006D1*
X-68661Y-302079D1*
X-50411Y-308256D1*
X-38338D1*
X-20088Y-302079D1*
X-7874Y-290006D1*
X-1838Y-271756D1*
Y-180647D1*
X110237Y-180787D2*
X49591D1*
X43555Y-235397D1*
X49591Y-229360D1*
X67841Y-223183D1*
X85951D1*
X104201Y-229360D1*
X116414Y-241433D1*
X122451Y-259683D1*
Y-271756D1*
X116414Y-290006D1*
X104201Y-302220D1*
X85951Y-308256D1*
X67841D1*
X49591Y-302220D1*
X43555Y-296043D1*
X37378Y-283970D1*
X-86489Y-341673D2*
Y-432783D1*
X-80453Y-451033D1*
X-68239Y-463106D1*
X-49989Y-469283D1*
X-37916D1*
X-19666Y-463106D1*
X-7453Y-451033D1*
X-1416Y-432783D1*
Y-341673D1*
X110659Y-359923D2*
X104623Y-347850D1*
X86373Y-341814D1*
X74300D1*
X56050Y-347850D1*
X43836Y-366100D1*
X37800Y-396423D1*
Y-426746D1*
X43836Y-451033D1*
X56050Y-463246D1*
X74300Y-469283D1*
X80336D1*
X98446Y-463246D1*
X110659Y-451033D1*
X116696Y-432783D1*
Y-426746D1*
X110659Y-408496D1*
X98446Y-396423D1*
X80336Y-390387D1*
X74300D1*
X56050Y-396423D1*
X43836Y-408496D1*
X37800Y-426746D1*
X-3334091Y-967797D2*
Y-1058906D1*
X-3328054Y-1077156D1*
X-3315841Y-1089229D1*
X-3297591Y-1095406D1*
X-3285518D1*
X-3267268Y-1089229D1*
X-3255054Y-1077156D1*
X-3249018Y-1058906D1*
Y-967797D1*
X-3179479Y-967937D2*
X-3197589Y-973974D1*
X-3203765Y-986047D1*
Y-998260D1*
X-3197589Y-1010333D1*
X-3185515Y-1016510D1*
X-3161229Y-1022547D1*
X-3142979Y-1028583D1*
X-3130906Y-1040797D1*
X-3124869Y-1052870D1*
Y-1071120D1*
X-3130906Y-1083193D1*
X-3136942Y-1089370D1*
X-3155192Y-1095406D1*
X-3179479D1*
X-3197589Y-1089370D1*
X-3203765Y-1083193D1*
X-3209802Y-1071120D1*
Y-1052870D1*
X-3203765Y-1040797D1*
X-3191552Y-1028583D1*
X-3173442Y-1022547D1*
X-3149156Y-1016510D1*
X-3136942Y-1010333D1*
X-3130906Y-998260D1*
Y-986047D1*
X-3136942Y-973974D1*
X-3155192Y-967937D1*
X-3179479D1*
X-3988719Y-972073D2*
Y-1063183D1*
X-3982683Y-1081433D1*
X-3970469Y-1093506D1*
X-3952219Y-1099683D1*
X-3940146D1*
X-3921896Y-1093506D1*
X-3909683Y-1081433D1*
X-3903646Y-1063183D1*
Y-972073D1*
X-3785394Y-1014610D2*
X-3791571Y-1032860D1*
X-3803644Y-1045073D1*
X-3821894Y-1051110D1*
X-3827931D1*
X-3846181Y-1045073D1*
X-3858254Y-1032860D1*
X-3864431Y-1014610D1*
Y-1008573D1*
X-3858254Y-990323D1*
X-3846181Y-978250D1*
X-3827931Y-972214D1*
X-3821894D1*
X-3803644Y-978250D1*
X-3791571Y-990323D1*
X-3785394Y-1014610D1*
Y-1045073D1*
X-3791571Y-1075396D1*
X-3803644Y-1093646D1*
X-3821894Y-1099683D1*
X-3833967D1*
X-3852217Y-1093646D1*
X-3858254Y-1081433D1*
X-749910Y-497510D2*
Y-588620D1*
X-743874Y-606870D1*
X-731660Y-618943D1*
X-713410Y-625120D1*
X-701337D1*
X-683087Y-618943D1*
X-670874Y-606870D1*
X-664837Y-588620D1*
Y-497510D1*
X-625622Y-521937D2*
X-613408Y-515760D1*
X-595158Y-497650D1*
Y-625120D1*
X-519443Y-497650D2*
X-537693Y-503687D1*
X-549906Y-521937D1*
X-555943Y-552260D1*
Y-570510D1*
X-549906Y-600833D1*
X-537693Y-619083D1*
X-519443Y-625120D1*
X-507370D1*
X-489120Y-619083D1*
X-477046Y-600833D1*
X-470870Y-570510D1*
Y-552260D1*
X-477046Y-521937D1*
X-489120Y-503687D1*
X-507370Y-497650D1*
X-519443D1*
X-477046Y-521937D2*
X-549906Y-600833D1*
X-3859119Y1948285D2*
Y1857175D1*
X-3853082Y1838925D1*
X-3840869Y1826852D1*
X-3822619Y1820675D1*
X-3810546D1*
X-3792296Y1826852D1*
X-3780082Y1838925D1*
X-3774046Y1857175D1*
Y1948285D1*
X-3734830Y1923858D2*
X-3722617Y1930035D1*
X-3704367Y1948145D1*
Y1820675D1*
X-3665151Y1923858D2*
X-3652938Y1930035D1*
X-3634688Y1948145D1*
Y1820675D1*
X-2598833Y655837D2*
X-2471224Y740909D1*
X-2598833Y740910D2*
X-2471224Y655837D1*
X-2532010Y780125D2*
Y834875D1*
X-2538047Y852985D1*
X-2544224Y859162D1*
X-2556297Y865198D1*
X-2574547D1*
X-2586620Y859162D1*
X-2592797Y852985D1*
X-2598833Y834875D1*
Y780125D1*
X-2471224D1*
X-2574406Y904414D2*
X-2580583Y916627D1*
X-2598693Y934877D1*
X-2471224D1*
X-3163486Y1608507D2*
X-3114913Y1547720D1*
Y1480897D1*
X-3066340Y1608507D2*
X-3114913Y1547720D1*
X-3027124Y1584080D2*
X-3014911Y1590257D1*
X-2996661Y1608366D1*
Y1480897D1*
X-3990578Y-395629D2*
D142*
X-4038000D1*
Y-472195D1*
Y-432101D2*
X-4008856D1*
X-3967049Y-395629D2*
Y-472195D1*
X-3923333D1*
X-3841432D2*
X-3870660Y-395629D1*
X-3899803Y-472195D1*
X-3888853Y-446673D2*
X-3852382D1*
X-3766858Y-406579D2*
X-3774102Y-399251D1*
X-3785052Y-395629D1*
X-3799624D1*
X-3810574Y-399251D1*
X-3817902Y-406579D1*
Y-413823D1*
X-3814196Y-421151D1*
X-3810574Y-424773D1*
X-3803330Y-428395D1*
X-3781430Y-435723D1*
X-3774102Y-439345D1*
X-3770480Y-443051D1*
X-3766858Y-450295D1*
Y-461245D1*
X-3774102Y-468489D1*
X-3785052Y-472195D1*
X-3799624D1*
X-3810574Y-468489D1*
X-3817902Y-461245D1*
X-3743329Y-395629D2*
Y-472195D1*
X-3692285Y-395629D2*
Y-472195D1*
X-3743329Y-432101D2*
X-3692285D1*
X-3335667Y-422101D2*
X-3302901D1*
X-3291951Y-418395D1*
X-3288245Y-414773D1*
X-3284623Y-407529D1*
Y-400201D1*
X-3288245Y-392957D1*
X-3291951Y-389251D1*
X-3302901Y-385629D1*
X-3335667D1*
Y-462195D1*
X-3310145Y-422101D2*
X-3284623Y-462195D1*
X-3213756Y-385629D2*
X-3261093D1*
Y-462195D1*
X-3213756D1*
X-3261093Y-422101D2*
X-3231950D1*
X-3139182Y-396579D2*
X-3146426Y-389251D1*
X-3157376Y-385629D1*
X-3171948D1*
X-3182898Y-389251D1*
X-3190226Y-396579D1*
Y-403823D1*
X-3186520Y-411151D1*
X-3182898Y-414773D1*
X-3175654Y-418395D1*
X-3153754Y-425723D1*
X-3146426Y-429345D1*
X-3142804Y-433051D1*
X-3139182Y-440295D1*
Y-451245D1*
X-3146426Y-458489D1*
X-3157376Y-462195D1*
X-3171948D1*
X-3182898Y-458489D1*
X-3190226Y-451245D1*
X-3068315Y-385629D2*
X-3115653D1*
Y-462195D1*
X-3068315D1*
X-3115653Y-422101D2*
X-3086509D1*
X-3019264Y-385629D2*
Y-462195D1*
X-3044786Y-385629D2*
X-2993742D1*
X-421505Y1992970D2*
D143*
X-428749Y2000298D1*
X-439699Y2003920D1*
X-454271D1*
X-465221Y2000298D1*
X-472549Y1992970D1*
Y1985726D1*
X-468843Y1978398D1*
X-465221Y1974776D1*
X-457977Y1971154D1*
X-436077Y1963826D1*
X-428749Y1960204D1*
X-425127Y1956498D1*
X-421505Y1949254D1*
Y1938304D1*
X-428749Y1931060D1*
X-439699Y1927354D1*
X-454271D1*
X-465221Y1931060D1*
X-472549Y1938304D1*
X-388172Y1956498D2*
X-344456D1*
Y1963826D1*
X-348078Y1971154D1*
X-351700Y1974776D1*
X-359028Y1978398D1*
X-369978D1*
X-377222Y1974776D1*
X-384550Y1967448D1*
X-388172Y1956498D1*
Y1949254D1*
X-384550Y1938304D1*
X-377222Y1931060D1*
X-369978Y1927354D1*
X-359028D1*
X-351700Y1931060D1*
X-344456Y1938304D1*
X-311123Y1978398D2*
Y1927354D1*
Y1963826D2*
X-300173Y1974776D1*
X-292845Y1978398D1*
X-281979D1*
X-274651Y1974776D1*
X-271029Y1963826D1*
Y1927354D1*
X-197602Y1967448D2*
X-201224Y1974776D1*
X-212174Y1978398D1*
X-223124D1*
X-234074Y1974776D1*
X-237696Y1967448D1*
X-234074Y1960204D1*
X-226746Y1956498D1*
X-208552Y1952876D1*
X-201224Y1949254D1*
X-197602Y1941926D1*
Y1938304D1*
X-201224Y1931060D1*
X-212174Y1927354D1*
X-223124D1*
X-234074Y1931060D1*
X-237696Y1938304D1*
X-146075Y1978398D2*
X-153318Y1974776D1*
X-160646Y1967448D1*
X-164268Y1956498D1*
Y1949254D1*
X-160646Y1938304D1*
X-153318Y1931060D1*
X-146075Y1927354D1*
X-135125D1*
X-127796Y1931060D1*
X-120553Y1938304D1*
X-116846Y1949254D1*
Y1956498D1*
X-120553Y1967448D1*
X-127796Y1974776D1*
X-135125Y1978398D1*
X-146075D1*
X-83513D2*
Y1927354D1*
Y1963826D2*
X-72563Y1974776D1*
X-65235Y1978398D1*
X-54369D1*
X-47041Y1974776D1*
X-43419Y1963826D1*
Y1927354D1*
Y1963826D2*
X-32469Y1974776D1*
X-25141Y1978398D1*
X-14275D1*
X-6947Y1974776D1*
X-3241Y1963826D1*
Y1927354D1*
X30092Y1956498D2*
X73808D1*
Y1963826D1*
X70186Y1971154D1*
X66564Y1974776D1*
X59236Y1978398D1*
X48286D1*
X41042Y1974776D1*
X33714Y1967448D1*
X30092Y1956498D1*
Y1949254D1*
X33714Y1938304D1*
X41042Y1931060D1*
X48286Y1927354D1*
X59236D1*
X66564Y1931060D1*
X73808Y1938304D1*
X107141Y1978398D2*
Y1927354D1*
Y1956498D2*
X110847Y1967448D1*
X118091Y1974776D1*
X125419Y1978398D1*
X136369D1*
X169703Y2003920D2*
X173325Y2000298D1*
X177031Y2003920D1*
X173325Y2007626D1*
X169703Y2003920D1*
X173325Y1978398D2*
Y1927354D1*
X254164Y1967448D2*
X246836Y1974776D1*
X239508Y1978398D1*
X228642D1*
X221314Y1974776D1*
X214070Y1967448D1*
X210364Y1956498D1*
Y1949254D1*
X214070Y1938304D1*
X221314Y1931060D1*
X228642Y1927354D1*
X239508D1*
X246836Y1931060D1*
X254164Y1938304D1*
X371369Y2003920D2*
X400513Y1927354D1*
X429657Y2003920D1*
X462990Y1989264D2*
X470318Y1992970D1*
X481268Y2003835D1*
Y1927354D1*
X518224Y1934682D2*
X514602Y1930976D1*
X518224Y1927354D1*
X521930Y1930976D1*
X518224Y1934682D1*
X591735Y1927354D2*
Y2003835D1*
X555263Y1952876D1*
X609929D1*
X785506Y1927354D2*
X756278Y2003920D1*
X727134Y1927354D1*
X738084Y1952876D2*
X774556D1*
X818839Y1978398D2*
Y1927354D1*
Y1956498D2*
X822545Y1967448D1*
X829789Y1974776D1*
X837117Y1978398D1*
X848067D1*
X906923Y2003920D2*
Y1927354D1*
X881401Y2003920D2*
X932444D1*
X965778Y1956498D2*
X1009494D1*
Y1963826D1*
X1005872Y1971154D1*
X1002250Y1974776D1*
X994922Y1978398D1*
X983972D1*
X976728Y1974776D1*
X969400Y1967448D1*
X965778Y1956498D1*
Y1949254D1*
X969400Y1938304D1*
X976728Y1931060D1*
X983972Y1927354D1*
X994922D1*
X1002250Y1931060D1*
X1009494Y1938304D1*
X1086627Y1967448D2*
X1079299Y1974776D1*
X1071971Y1978398D1*
X1061105D1*
X1053777Y1974776D1*
X1046533Y1967448D1*
X1042827Y1956498D1*
Y1949254D1*
X1046533Y1938304D1*
X1053777Y1931060D1*
X1061105Y1927354D1*
X1071971D1*
X1079299Y1931060D1*
X1086627Y1938304D1*
X1119960Y2003920D2*
Y1927354D1*
Y1963826D2*
X1130910Y1974776D1*
X1138238Y1978398D1*
X1149188D1*
X1156432Y1974776D1*
X1160054Y1963826D1*
Y1927354D1*
M02*
