G04 DipTrace 3.0.0.1*
G04 ProjectXNew.gbl*
%MOMM*%
G04 #@! TF.FileFunction,Copper,L2,Bot*
G04 #@! TF.Part,Single*
G04 #@! TA.AperFunction,Conductor*
%ADD14C,0.33*%
G04 #@! TA.AperFunction,CopperBalancing*
%ADD15C,0.2*%
%ADD18C,0.1*%
%ADD19R,0.9X0.7*%
%ADD20R,0.7X0.9*%
G04 #@! TA.AperFunction,ComponentPad*
%ADD21R,1.6X1.6*%
%ADD22C,1.6*%
%ADD40R,1.3X1.5*%
%ADD42R,1.1X1.95*%
%ADD49R,0.4X1.8*%
G04 #@! TA.AperFunction,ComponentPad*
%ADD50C,2.0*%
%ADD51R,2.0X2.0*%
%ADD52R,2.0X1.5*%
%ADD53R,1.5X1.5*%
G04 #@! TA.AperFunction,ComponentPad*
%ADD54C,1.5*%
%ADD60C,1.2192*%
G04 #@! TA.AperFunction,ViaPad*
%ADD61C,1.016*%
%FSLAX35Y35*%
G04*
G71*
G90*
G75*
G01*
G04 Bottom*
%LPD*%
X0Y523930D2*
D14*
X246590D1*
X254027Y531367D1*
X-740980Y-66360D2*
X-447400D1*
X-285780Y95260D1*
Y333410D1*
X-95260Y523930D1*
X0D1*
X-3572250Y666820D2*
Y920847D1*
X-3731017Y1079613D1*
X-4096180D1*
X793833Y920847D2*
X603313D1*
X433133Y750667D1*
X353750D1*
X254027Y650943D1*
Y531367D1*
X332437Y-238147D2*
Y-127987D1*
X308000Y-103550D1*
Y-66360D1*
Y43000D1*
X-4096180Y1079613D2*
Y635067D1*
X-4207317Y523930D1*
Y365163D1*
X-4096180Y254027D1*
X-3365853D1*
X-3238840Y127013D1*
Y-1047860D1*
Y-1413023D1*
X-3127703Y-1524160D1*
X-682697D1*
X-666820Y-1540037D1*
X-447400Y-66360D2*
X308000D1*
X-2445527Y-63507D2*
X-2193833D1*
X-2190980Y-66360D1*
X793833Y1050847D2*
X774970D1*
X714470Y1111347D1*
X644027D1*
X-3662057Y-1365393D2*
Y-715393D1*
X-2445527Y-63507D2*
X-2462667Y-80647D1*
Y-221000D1*
X-2814667D1*
X-2984813Y-391147D1*
Y-714450D1*
Y-1364450D1*
X-666820Y-1286037D2*
X-428723Y-1524133D1*
X254027D1*
X341493Y-1436667D1*
X522333D1*
X567000Y-1392000D1*
Y-1104667D1*
X563000D1*
Y-746203D1*
X587437D1*
X562000Y-1104667D2*
X563000D1*
X319027Y531367D2*
X321000Y533340D1*
Y638333D1*
X360667Y678000D1*
X514027D1*
X774667D1*
X893333Y796667D1*
Y1045667D1*
X888153Y1050847D1*
X793833D1*
X514027Y531367D2*
Y678000D1*
X254027Y1111367D2*
X230993Y1088333D1*
X-162667D1*
X-309000Y942000D1*
Y737000D1*
X841667Y759333D2*
X1052333Y548667D1*
Y545000D1*
X1055000Y542333D1*
Y91667D1*
X906333Y-57000D1*
X646000D1*
X587437Y-115563D1*
Y-238150D1*
X-4400000Y994667D2*
X-4289000Y1105667D1*
Y1234667D1*
X587437Y-746203D2*
Y-492177D1*
Y-238150D1*
X793833Y1050847D2*
D3*
X449027Y1111367D2*
X449333Y1111673D1*
Y1277000D1*
X395667Y1330667D1*
Y1383333D1*
X-740980Y333640D2*
X-540037D1*
X-539807Y333410D1*
X449027Y531367D2*
Y274383D1*
X365163Y190520D1*
X254027D1*
X237667Y1439333D2*
X-243593D1*
X-412793Y1270133D1*
Y254027D1*
X-523930Y142890D1*
X-731730D1*
X-740980Y133640D1*
X-984353Y333410D2*
Y222273D1*
X-889093Y127013D1*
X-747607D1*
X-740980Y133640D1*
X-4112057Y460423D2*
X-4016797D1*
X-3953290Y523930D1*
X-3000690D1*
X-2587897Y936723D1*
X-2194063D1*
X-2190980Y933640D1*
X-3985043Y349287D2*
Y365163D1*
X-3905660Y444547D1*
X-2937183D1*
X-2651403Y730327D1*
X-2194293D1*
X-2190980Y733640D1*
X-740980Y533640D2*
X-734813Y539807D1*
X-523930D1*
X-492177Y571560D1*
Y1317763D1*
X-269903Y1540037D1*
X476300D1*
X477597Y1541333D1*
X597000D1*
X-3826277Y349287D2*
X-2921307D1*
X-2635527Y635067D1*
X-2460883D1*
X-968477D2*
Y619190D1*
X-873217Y523930D1*
X-750690D1*
X-740980Y533640D1*
X952600Y-1428900D2*
X1031983D1*
X1079613Y-1381270D1*
Y-984403D1*
X841437Y-746227D1*
X-4112057Y-715393D2*
Y-1365393D1*
X-2635527Y317533D2*
Y428670D1*
X-2524390Y539807D1*
X-2197147D1*
X-2190980Y533640D1*
X-2810000Y50000D2*
X-2635527Y224473D1*
Y317533D1*
X438000Y43000D2*
X574547D1*
Y126000D1*
Y219287D1*
X571560Y222273D1*
X571000Y126000D2*
X574547D1*
X-1984583Y142890D2*
X-2181730D1*
X-2190980Y133640D1*
X-2565393D1*
X-2635527Y63507D1*
Y-63507D1*
X952600Y-1301887D2*
X873217D1*
X825587Y-1349517D1*
Y-1492407D1*
X873217Y-1540037D1*
X1063737D1*
X1190750Y-1413023D1*
Y-841540D1*
X1095437Y-746227D1*
X-1942000Y928000D2*
X-1970000Y900000D1*
Y392000D1*
X-2022000Y340000D1*
X-2031000D1*
X-2037360Y333640D1*
X-2190980D1*
X-952600Y936723D2*
X-744063D1*
X-740980Y933640D1*
X-1651173Y-984353D2*
Y-1190750D1*
X-1682927Y-1222503D1*
X-2397377D1*
X-2460883Y-1158997D1*
Y-1013573D1*
X-2456857Y-1009547D1*
X-2206857Y-809710D2*
Y-1009547D1*
X254027Y-1270133D2*
X-174643D1*
X-333410Y-1111367D1*
X-1413023D1*
X-1492407Y-1031983D1*
Y-904970D1*
X-1587667Y-809710D1*
X-2206857D1*
X-2699033Y-650943D2*
Y-452370D1*
X-2706857Y-444547D1*
X-3080073Y841463D2*
Y660520D1*
Y971463D2*
Y1143120D1*
X319027Y1111367D2*
Y1227973D1*
X237667Y1309333D1*
X514027Y1111367D2*
Y1328360D1*
X597000Y1411333D1*
X579027Y531367D2*
Y356753D1*
X574547Y352273D1*
X571560D1*
X384027Y531367D2*
Y415780D1*
X269903Y301657D1*
X130000D1*
X644027Y531367D2*
X771000Y529333D1*
X579027Y1111367D2*
Y1007697D1*
X381040Y809710D1*
X63507D1*
X0Y746203D1*
Y666820D1*
X384027Y1111367D2*
Y971463D1*
X285780Y873217D1*
X0D1*
Y396917D2*
Y301657D1*
X-740980Y733640D2*
X-615877D1*
X-571560Y777957D1*
Y1286010D1*
X-619190Y1333640D1*
X-740980D1*
X-3434813Y-1364450D2*
Y-1053833D1*
X-3428840Y-1047860D1*
X-3434813Y-714450D2*
Y-1041887D1*
X-3428840Y-1047860D1*
X-1587667Y285780D2*
Y587437D1*
X-1428900Y746203D1*
X-753543D1*
X-740980Y733640D1*
X-2190980Y1133640D2*
X-2200490Y1143150D1*
X-2509513D1*
X-2508513Y1397147D2*
X-2438367Y1327000D1*
X-2328000D1*
X-2321360Y1333640D1*
X-2190980D1*
X-1349517Y-936723D2*
Y-873217D1*
X-1524160Y-698573D1*
X-2381500D1*
X-2460883Y-619190D1*
Y-448573D1*
X-2456857Y-444547D1*
D61*
X0Y873217D3*
Y666820D3*
Y523930D3*
Y396917D3*
X771000Y529333D3*
X-2699033Y-650943D3*
X-2206857Y-809710D3*
X-1651173Y-984353D3*
X-1349517Y-936723D3*
X-3572250Y666820D3*
X-539807Y333410D3*
X254027Y190520D3*
X-984353Y333410D3*
X-4096180Y1079613D3*
X-952600Y936723D3*
X952600Y-1301887D3*
Y-1428900D3*
X571000Y126000D3*
X-1984583Y142890D3*
X-3826277Y349287D3*
X-2460883Y635067D3*
X-968477D3*
X-4112057Y460423D3*
X-3985043Y349287D3*
X-2635527Y317533D3*
X-1587667Y285780D3*
X-2810000Y50000D3*
X-1942000Y928000D3*
X562000Y-1104667D3*
X-309000Y737000D3*
X841667Y759333D3*
X-4400000Y994667D3*
X-4289000Y1234667D3*
X395667Y1383333D3*
X-4590990Y2196333D2*
D18*
X-3498400D1*
X-629603D2*
X1276990D1*
X-4590990Y2186667D2*
X-3498400D1*
X-629603D2*
X1276990D1*
X-4590990Y2177000D2*
X-3498400D1*
X-629603D2*
X1276990D1*
X-4590990Y2167333D2*
X-3498400D1*
X-629603D2*
X1276990D1*
X-4590990Y2157667D2*
X-3498400D1*
X-629603D2*
X1276990D1*
X-4590990Y2148000D2*
X-3498400D1*
X-629603D2*
X1276990D1*
X-4590990Y2138333D2*
X-3498400D1*
X-629603D2*
X1276990D1*
X-4590990Y2128667D2*
X-3498400D1*
X-629603D2*
X1276990D1*
X-4590990Y2119000D2*
X-3498400D1*
X-629603D2*
X1276990D1*
X-4590990Y2109333D2*
X-3498400D1*
X-629603D2*
X1276990D1*
X-4590990Y2099667D2*
X-3498400D1*
X-629603D2*
X1276990D1*
X-4590990Y2090000D2*
X-3498400D1*
X-629603D2*
X1276990D1*
X-4590990Y2080333D2*
X-3498400D1*
X-629603D2*
X1276990D1*
X-4590990Y2070667D2*
X-3498400D1*
X-629603D2*
X1276990D1*
X-4590990Y2061000D2*
X-3498400D1*
X-629603D2*
X1276990D1*
X-4590990Y2051333D2*
X-3498400D1*
X-629603D2*
X1276990D1*
X-4590990Y2041667D2*
X-3498400D1*
X-629603D2*
X1276990D1*
X-4590990Y2032000D2*
X-3498400D1*
X-629603D2*
X1276990D1*
X-4590990Y2022333D2*
X-3498400D1*
X-629603D2*
X1276990D1*
X-4590990Y2012667D2*
X-3498400D1*
X-629603D2*
X1276990D1*
X-4590990Y2003000D2*
X-3498400D1*
X-629603D2*
X1276990D1*
X-4590990Y1993333D2*
X-3498400D1*
X-629603D2*
X1276990D1*
X-4590990Y1983667D2*
X-3498400D1*
X-629603D2*
X1276990D1*
X-4590990Y1974000D2*
X-3498400D1*
X-629603D2*
X1276990D1*
X-4590990Y1964333D2*
X-3498400D1*
X-629603D2*
X1276990D1*
X-4590990Y1954667D2*
X-3498400D1*
X-629603D2*
X1276990D1*
X-4590990Y1945000D2*
X-3498400D1*
X-629603D2*
X1276990D1*
X-4590990Y1935333D2*
X-3498400D1*
X-629603D2*
X1276990D1*
X-4590990Y1925667D2*
X-3498400D1*
X-629603D2*
X1276990D1*
X-4590990Y1916000D2*
X-3498400D1*
X-629603D2*
X1276990D1*
X-4590990Y1906333D2*
X-3498400D1*
X-629603D2*
X1276990D1*
X-4590990Y1896667D2*
X-3498400D1*
X-629603D2*
X1276990D1*
X-4590990Y1887000D2*
X-3498400D1*
X-629603D2*
X1276990D1*
X-4590990Y1877333D2*
X-3498400D1*
X-629603D2*
X1276990D1*
X-4590990Y1867667D2*
X-3498400D1*
X-629603D2*
X1276990D1*
X-4590990Y1858000D2*
X-3498400D1*
X-629603D2*
X1276990D1*
X-4590990Y1848333D2*
X-3498400D1*
X-629603D2*
X1276990D1*
X-4590990Y1838667D2*
X-3498400D1*
X-629603D2*
X1276990D1*
X-4590990Y1829000D2*
X-3498400D1*
X-629603D2*
X1276990D1*
X-4590990Y1819333D2*
X-3498400D1*
X-629603D2*
X1276990D1*
X-4590990Y1809667D2*
X-3498400D1*
X-629603D2*
X1276990D1*
X-4590990Y1800000D2*
X-3498400D1*
X-629603D2*
X1276990D1*
X-4590990Y1790333D2*
X-3498400D1*
X-629603D2*
X1276990D1*
X-4590990Y1780667D2*
X-3498400D1*
X-629603D2*
X1276990D1*
X-4590990Y1771000D2*
X-3498400D1*
X-629603D2*
X1276990D1*
X-4590990Y1761333D2*
X-3498400D1*
X-629603D2*
X1276990D1*
X-4590990Y1751667D2*
X-3498400D1*
X-629603D2*
X1276990D1*
X-4590990Y1742000D2*
X-3498400D1*
X-629603D2*
X1276990D1*
X-4590990Y1732333D2*
X-3498400D1*
X-629603D2*
X1276990D1*
X-4590990Y1722667D2*
X-3498400D1*
X-629603D2*
X1276990D1*
X-4590990Y1713000D2*
X-3498400D1*
X-629603D2*
X1276990D1*
X-4590990Y1703333D2*
X-3498400D1*
X-629603D2*
X1276990D1*
X-4590990Y1693667D2*
X-3498400D1*
X-629603D2*
X1276990D1*
X-4590990Y1684000D2*
X-3498400D1*
X-629603D2*
X1276990D1*
X-4590990Y1674333D2*
X-3498400D1*
X-629603D2*
X1276990D1*
X-4590990Y1664667D2*
X-3498400D1*
X-629603D2*
X1276990D1*
X-4590990Y1655000D2*
X-3498400D1*
X-629603D2*
X1276990D1*
X-4590990Y1645333D2*
X-3498400D1*
X-629603D2*
X1276990D1*
X-4590990Y1635667D2*
X-3498400D1*
X-629603D2*
X1276990D1*
X-4590990Y1626000D2*
X-3498400D1*
X-629603D2*
X1276990D1*
X-4590990Y1616333D2*
X-3498400D1*
X-629603D2*
X522597D1*
X671393D2*
X1276990D1*
X-4590990Y1606667D2*
X-3498400D1*
X-629603D2*
X522597D1*
X671393D2*
X1276990D1*
X-4590990Y1597000D2*
X-3498400D1*
X-629603D2*
X522597D1*
X671393D2*
X1276990D1*
X-4590990Y1587333D2*
X-3498400D1*
X-629603D2*
X-298770D1*
X671393D2*
X1276990D1*
X-4590990Y1577667D2*
X-3498400D1*
X-629603D2*
X-310920D1*
X671393D2*
X1276990D1*
X-4590990Y1568000D2*
X-3498400D1*
X-629603D2*
X-320587D1*
X671393D2*
X1276990D1*
X-4590990Y1558333D2*
X-3498400D1*
X-629603D2*
X-330257D1*
X671393D2*
X1276990D1*
X-4590990Y1548667D2*
X-3498400D1*
X-629603D2*
X-339903D1*
X671393D2*
X1276990D1*
X-4590990Y1539000D2*
X-2314397D1*
X-629603D2*
X-349573D1*
X671393D2*
X1276990D1*
X-4590990Y1529333D2*
X-2550510D1*
X-2466517D2*
X-2314397D1*
X-629603D2*
X-359240D1*
X671393D2*
X1276990D1*
X-4590990Y1519667D2*
X-2573890D1*
X-2443140D2*
X-2314397D1*
X-629603D2*
X-368907D1*
X671393D2*
X1276990D1*
X-4590990Y1510000D2*
X-2589630D1*
X-2427397D2*
X-2314397D1*
X-629603D2*
X-378577D1*
X671393D2*
X1276990D1*
X-4590990Y1500333D2*
X-2601740D1*
X-2415287D2*
X-2314397D1*
X-629603D2*
X-388243D1*
X671393D2*
X1276990D1*
X-4590990Y1490667D2*
X-2611543D1*
X-2405483D2*
X-2314397D1*
X-629603D2*
X-397913D1*
X671393D2*
X1276990D1*
X-4590990Y1481000D2*
X-2619610D1*
X-2397417D2*
X-2314397D1*
X-629603D2*
X-407580D1*
X312077D2*
X522597D1*
X671393D2*
X1276990D1*
X-4590990Y1471333D2*
X-2626350D1*
X-2390677D2*
X-2314397D1*
X-629603D2*
X-417247D1*
X312077D2*
X522597D1*
X671393D2*
X1276990D1*
X-4590990Y1461667D2*
X-2631957D1*
X-2385073D2*
X-2314397D1*
X-629603D2*
X-426917D1*
X312077D2*
X522597D1*
X671393D2*
X1276990D1*
X-4590990Y1452000D2*
X-2636583D1*
X-2380443D2*
X-2314397D1*
X-629603D2*
X-436583D1*
X312077D2*
X522597D1*
X671393D2*
X1276990D1*
X-4590990Y1442333D2*
X-2640333D1*
X-2376693D2*
X-2330373D1*
X-601577D2*
X-446253D1*
X312077D2*
X522597D1*
X671393D2*
X1276990D1*
X-4590990Y1432667D2*
X-2643283D1*
X-2373743D2*
X-2330373D1*
X-2051577D2*
X-880373D1*
X-601577D2*
X-455920D1*
X312077D2*
X522597D1*
X671393D2*
X1276990D1*
X-4590990Y1423000D2*
X-2645470D1*
X-2371557D2*
X-2330373D1*
X-2051577D2*
X-880373D1*
X-601577D2*
X-465587D1*
X312077D2*
X522597D1*
X671393D2*
X1276990D1*
X-4590990Y1413333D2*
X-2646957D1*
X-2370073D2*
X-2330373D1*
X-2051577D2*
X-880373D1*
X-601577D2*
X-475257D1*
X312077D2*
X520370D1*
X671393D2*
X1276990D1*
X-4590990Y1403667D2*
X-2647757D1*
X-2369270D2*
X-2330373D1*
X-2051577D2*
X-880373D1*
X-601577D2*
X-484903D1*
X312077D2*
X510700D1*
X671393D2*
X1276990D1*
X-4590990Y1394000D2*
X-2647873D1*
X-2369153D2*
X-2330373D1*
X-2051577D2*
X-880373D1*
X-601577D2*
X-494573D1*
X312077D2*
X501033D1*
X671393D2*
X1276990D1*
X-4590990Y1384333D2*
X-2647327D1*
X-2369700D2*
X-2343440D1*
X-2051577D2*
X-880373D1*
X-597123D2*
X-504240D1*
X-219957D2*
X163260D1*
X312077D2*
X491367D1*
X671393D2*
X1276990D1*
X-4590990Y1374667D2*
X-2646077D1*
X-2051577D2*
X-880373D1*
X-581713D2*
X-513907D1*
X-229623D2*
X163260D1*
X312077D2*
X481697D1*
X671393D2*
X1276990D1*
X-4590990Y1365000D2*
X-2644123D1*
X-2051577D2*
X-880373D1*
X-571907D2*
X-523577D1*
X-239290D2*
X163260D1*
X312077D2*
X472147D1*
X671393D2*
X1276990D1*
X-4590990Y1355333D2*
X-2641447D1*
X-2051577D2*
X-880373D1*
X-562240D2*
X-533207D1*
X-248960D2*
X163260D1*
X312077D2*
X465213D1*
X671393D2*
X1276990D1*
X-4590990Y1345667D2*
X-2637990D1*
X-2051577D2*
X-880373D1*
X-552573D2*
X-540450D1*
X-258627D2*
X163260D1*
X312077D2*
X460917D1*
X671393D2*
X1276990D1*
X-4590990Y1336000D2*
X-2633673D1*
X-2051577D2*
X-880373D1*
X-268293D2*
X163260D1*
X312077D2*
X458670D1*
X671393D2*
X1276990D1*
X-4590990Y1326333D2*
X-2628420D1*
X-2051577D2*
X-880373D1*
X-277943D2*
X163260D1*
X312077D2*
X458123D1*
X590630D2*
X1276990D1*
X-4590990Y1316667D2*
X-2622110D1*
X-2051577D2*
X-880373D1*
X-287610D2*
X163260D1*
X312077D2*
X458123D1*
X580983D2*
X1276990D1*
X-4590990Y1307000D2*
X-2614533D1*
X-2051577D2*
X-880373D1*
X-297280D2*
X163260D1*
X318640D2*
X458123D1*
X571313D2*
X1276990D1*
X-4590990Y1297333D2*
X-2605393D1*
X-2051577D2*
X-880373D1*
X-306947D2*
X163260D1*
X328307D2*
X458123D1*
X569927D2*
X1276990D1*
X-4590990Y1287667D2*
X-2594180D1*
X-2051577D2*
X-880373D1*
X-316617D2*
X163260D1*
X337973D2*
X458123D1*
X569927D2*
X1276990D1*
X-4590990Y1278000D2*
X-2648907D1*
X-2051577D2*
X-880373D1*
X-326283D2*
X163260D1*
X347643D2*
X458123D1*
X569927D2*
X1276990D1*
X-4590990Y1268333D2*
X-2648907D1*
X-2051577D2*
X-880373D1*
X-335950D2*
X163260D1*
X357310D2*
X458123D1*
X569927D2*
X1276990D1*
X-4590990Y1258667D2*
X-2648907D1*
X-2051577D2*
X-880373D1*
X-345620D2*
X163260D1*
X365553D2*
X458123D1*
X569927D2*
X1276990D1*
X-4590990Y1249000D2*
X-2648907D1*
X-2051577D2*
X-880373D1*
X-355287D2*
X163260D1*
X370747D2*
X458123D1*
X569927D2*
X1276990D1*
X-4590990Y1239333D2*
X-3105880D1*
X-3054270D2*
X-2648907D1*
X-2051577D2*
X-880373D1*
X-356890D2*
X163260D1*
X703423D2*
X1276990D1*
X-4590990Y1229667D2*
X-3129883D1*
X-3030267D2*
X-2648907D1*
X-2051577D2*
X-880373D1*
X-356890D2*
X163260D1*
X703423D2*
X874550D1*
X903930D2*
X1276990D1*
X-4590990Y1220000D2*
X-3144027D1*
X-3016127D2*
X-2648907D1*
X-2051577D2*
X-867383D1*
X-356890D2*
X194627D1*
X703423D2*
X849157D1*
X929323D2*
X1276990D1*
X-4590990Y1210333D2*
X-3154240D1*
X-3005893D2*
X-2648907D1*
X-2051577D2*
X-867383D1*
X-356890D2*
X194627D1*
X703423D2*
X836463D1*
X942017D2*
X1276990D1*
X-4590990Y1200667D2*
X-3162073D1*
X-2998080D2*
X-2648907D1*
X-2051577D2*
X-867383D1*
X-356890D2*
X194627D1*
X703423D2*
X827850D1*
X950630D2*
X1276990D1*
X-4590990Y1191000D2*
X-3168127D1*
X-2992007D2*
X-2648907D1*
X-2051577D2*
X-867383D1*
X-356890D2*
X194627D1*
X703423D2*
X821697D1*
X956763D2*
X1276990D1*
X-4590990Y1181333D2*
X-3172793D1*
X-2987357D2*
X-2648907D1*
X-2051577D2*
X-867383D1*
X-356890D2*
X194627D1*
X703423D2*
X817380D1*
X961080D2*
X1276990D1*
X-4590990Y1171667D2*
X-3176253D1*
X-2983900D2*
X-2648907D1*
X-2051577D2*
X-867383D1*
X-356890D2*
X194627D1*
X703423D2*
X814587D1*
X963893D2*
X1276990D1*
X-4590990Y1162000D2*
X-4131370D1*
X-4060990D2*
X-3178617D1*
X-2981517D2*
X-2648907D1*
X-2051577D2*
X-867383D1*
X-356890D2*
X194627D1*
X703423D2*
X813103D1*
X965357D2*
X1276990D1*
X-4590990Y1152333D2*
X-4148830D1*
X-4043530D2*
X-3180003D1*
X-2980150D2*
X-2648907D1*
X-2051577D2*
X-867383D1*
X-356890D2*
X194627D1*
X703423D2*
X812907D1*
X965573D2*
X1276990D1*
X-4590990Y1142667D2*
X-4160277D1*
X-4032083D2*
X-3180430D1*
X-2979720D2*
X-2648907D1*
X-2051577D2*
X-867383D1*
X-356890D2*
X194627D1*
X703423D2*
X813943D1*
X964537D2*
X1276990D1*
X-4590990Y1133000D2*
X-4168633D1*
X-3717220D2*
X-3179923D1*
X-2980230D2*
X-2648907D1*
X-2051577D2*
X-867383D1*
X-356890D2*
X194627D1*
X703423D2*
X719430D1*
X962193D2*
X1276990D1*
X-4590990Y1123333D2*
X-4174923D1*
X-3696810D2*
X-3178440D1*
X-2981713D2*
X-2648907D1*
X-2051577D2*
X-867383D1*
X-356890D2*
X194627D1*
X703423D2*
X719430D1*
X958423D2*
X1276990D1*
X-4590990Y1113667D2*
X-4179630D1*
X-3686420D2*
X-3175960D1*
X-2984173D2*
X-2648907D1*
X-2051577D2*
X-867383D1*
X-356890D2*
X194627D1*
X703423D2*
X719430D1*
X952957D2*
X1276990D1*
X-4590990Y1104000D2*
X-4182990D1*
X-3676770D2*
X-3172403D1*
X-2987747D2*
X-2648907D1*
X-2051577D2*
X-867383D1*
X-356890D2*
X194627D1*
X703423D2*
X719430D1*
X945280D2*
X1276990D1*
X-4590990Y1094333D2*
X-4185157D1*
X-3667103D2*
X-3167640D1*
X-2992513D2*
X-2648907D1*
X-2051577D2*
X-867383D1*
X-356890D2*
X194627D1*
X703423D2*
X719430D1*
X934303D2*
X1276990D1*
X-4590990Y1084667D2*
X-4186233D1*
X-3657437D2*
X-3161427D1*
X-2998723D2*
X-2648907D1*
X-2370110D2*
X-2330373D1*
X-2051577D2*
X-867383D1*
X-356890D2*
X194627D1*
X703423D2*
X719430D1*
X916020D2*
X1276990D1*
X-4590990Y1075000D2*
X-4186253D1*
X-3647767D2*
X-3153400D1*
X-3006733D2*
X-2648907D1*
X-2370110D2*
X-2330373D1*
X-2051577D2*
X-867383D1*
X-356890D2*
X194627D1*
X703423D2*
X719430D1*
X868230D2*
X1276990D1*
X-4590990Y1065333D2*
X-4185237D1*
X-3638100D2*
X-3142893D1*
X-3017260D2*
X-2648907D1*
X-2370110D2*
X-2330373D1*
X-2051577D2*
X-867383D1*
X-356890D2*
X194627D1*
X703423D2*
X719430D1*
X868230D2*
X1276990D1*
X-4590990Y1055667D2*
X-4183107D1*
X-3628430D2*
X-3135980D1*
X-3024173D2*
X-2648907D1*
X-2370110D2*
X-2330373D1*
X-2051577D2*
X-867383D1*
X-356890D2*
X194627D1*
X703423D2*
X719430D1*
X868230D2*
X1276990D1*
X-4590990Y1046000D2*
X-4179807D1*
X-3618763D2*
X-3154473D1*
X-3005677D2*
X-2648907D1*
X-2370110D2*
X-2330373D1*
X-2051577D2*
X-880373D1*
X-356890D2*
X194627D1*
X703423D2*
X719430D1*
X868230D2*
X1276990D1*
X-4590990Y1036333D2*
X-4175177D1*
X-3609097D2*
X-3154473D1*
X-3005677D2*
X-2648907D1*
X-2370110D2*
X-2330373D1*
X-2051577D2*
X-880373D1*
X-356890D2*
X194627D1*
X703423D2*
X719430D1*
X868230D2*
X1276990D1*
X-4590990Y1026667D2*
X-4168967D1*
X-3599427D2*
X-3154473D1*
X-3005677D2*
X-2648907D1*
X-2370110D2*
X-2330373D1*
X-2051577D2*
X-880373D1*
X-356890D2*
X194627D1*
X703423D2*
X719430D1*
X868230D2*
X1276990D1*
X-4590990Y1017000D2*
X-4160707D1*
X-4031653D2*
X-3747053D1*
X-3589760D2*
X-3154473D1*
X-3005677D2*
X-2648907D1*
X-2370110D2*
X-2330373D1*
X-2051577D2*
X-1948967D1*
X-1935033D2*
X-992483D1*
X-912710D2*
X-880373D1*
X-356890D2*
X194627D1*
X703423D2*
X719430D1*
X868230D2*
X1276990D1*
X-4590990Y1007333D2*
X-4152073D1*
X-4040287D2*
X-3737383D1*
X-3580093D2*
X-3154473D1*
X-3005677D2*
X-2648907D1*
X-2370110D2*
X-2330373D1*
X-2051577D2*
X-1983770D1*
X-1900230D2*
X-1008107D1*
X-897103D2*
X-880373D1*
X-356890D2*
X194627D1*
X703423D2*
X719430D1*
X868230D2*
X1276990D1*
X-4590990Y997667D2*
X-4152073D1*
X-4040287D2*
X-3727717D1*
X-3570423D2*
X-3154473D1*
X-3005677D2*
X-2330373D1*
X-2051577D2*
X-1998713D1*
X-1885287D2*
X-1018733D1*
X-886460D2*
X-880373D1*
X-356890D2*
X194627D1*
X703423D2*
X719430D1*
X868230D2*
X1276990D1*
X-4590990Y988000D2*
X-4152073D1*
X-4040287D2*
X-3718050D1*
X-3560757D2*
X-3154473D1*
X-3005677D2*
X-2608517D1*
X-2051577D2*
X-2009007D1*
X-1874993D2*
X-1026583D1*
X-356890D2*
X194627D1*
X703423D2*
X719430D1*
X868230D2*
X1276990D1*
X-4590990Y978333D2*
X-4152073D1*
X-4040287D2*
X-3708380D1*
X-3551087D2*
X-3154473D1*
X-3005677D2*
X-2624710D1*
X-2051577D2*
X-2016643D1*
X-1867357D2*
X-1032503D1*
X-356890D2*
X312263D1*
X626413D2*
X719430D1*
X868230D2*
X1276990D1*
X-4590990Y968667D2*
X-4152073D1*
X-4040287D2*
X-3698713D1*
X-3541420D2*
X-3154473D1*
X-3005677D2*
X-2634593D1*
X-2051577D2*
X-2022383D1*
X-1861617D2*
X-1036877D1*
X-356890D2*
X302597D1*
X868230D2*
X1276990D1*
X-4590990Y959000D2*
X-4152073D1*
X-4040287D2*
X-3689043D1*
X-3531770D2*
X-3154473D1*
X-3005677D2*
X-2644260D1*
X-2051577D2*
X-2026643D1*
X-1857357D2*
X-1039983D1*
X-356890D2*
X-25450D1*
X25457D2*
X292927D1*
X868230D2*
X1276990D1*
X-4590990Y949333D2*
X-4152073D1*
X-4040287D2*
X-3679377D1*
X-3524310D2*
X-3154473D1*
X-3005677D2*
X-2653927D1*
X-2051577D2*
X-2029610D1*
X-1854390D2*
X-1041897D1*
X-356890D2*
X-47503D1*
X47507D2*
X283260D1*
X868230D2*
X1276990D1*
X-4590990Y939667D2*
X-4152073D1*
X-4040287D2*
X-3669710D1*
X-3519680D2*
X-3154473D1*
X-3005677D2*
X-2663597D1*
X-2051577D2*
X-2031427D1*
X-1852573D2*
X-1042757D1*
X-356890D2*
X-60510D1*
X60513D2*
X273593D1*
X868230D2*
X1276990D1*
X-4590990Y930000D2*
X-4152073D1*
X-4040287D2*
X-3660040D1*
X-3517123D2*
X-3154473D1*
X-3005677D2*
X-2673263D1*
X-2051577D2*
X-2032170D1*
X-1851830D2*
X-1042540D1*
X-356890D2*
X-69787D1*
X69790D2*
X263923D1*
X868230D2*
X1276990D1*
X-4590990Y920333D2*
X-4152073D1*
X-4040287D2*
X-3650373D1*
X-3516343D2*
X-3154473D1*
X-3005677D2*
X-2682930D1*
X-2051577D2*
X-2031877D1*
X-1852123D2*
X-1041290D1*
X-356890D2*
X-76740D1*
X868230D2*
X1276990D1*
X-4590990Y910667D2*
X-4152073D1*
X-4040287D2*
X-3640707D1*
X-3516343D2*
X-3154473D1*
X-3005677D2*
X-2692600D1*
X-2051577D2*
X-2030490D1*
X-1853510D2*
X-1038907D1*
X-356890D2*
X-81957D1*
X868230D2*
X1276990D1*
X-4590990Y901000D2*
X-4152073D1*
X-4040287D2*
X-3631037D1*
X-3516343D2*
X-3154473D1*
X-3005677D2*
X-2702267D1*
X-2051577D2*
X-2028010D1*
X-1855990D2*
X-1035333D1*
X-356890D2*
X-85763D1*
X868230D2*
X1276990D1*
X-4590990Y891333D2*
X-4152073D1*
X-4040287D2*
X-3628147D1*
X-3516343D2*
X-3154473D1*
X-3005677D2*
X-2711937D1*
X-2051577D2*
X-2025900D1*
X-1859680D2*
X-1030393D1*
X-356890D2*
X-88343D1*
X868230D2*
X1276990D1*
X-4590990Y881667D2*
X-4152073D1*
X-4040287D2*
X-3628147D1*
X-3516343D2*
X-3154473D1*
X-3005677D2*
X-2721603D1*
X-2564310D2*
X-2330373D1*
X-2051577D2*
X-2025900D1*
X-1864780D2*
X-1023770D1*
X-356890D2*
X-89807D1*
X868230D2*
X1276990D1*
X-4590990Y872000D2*
X-4152073D1*
X-4040287D2*
X-3628147D1*
X-3516343D2*
X-3154473D1*
X-3005677D2*
X-2731253D1*
X-2573980D2*
X-2330373D1*
X-2051577D2*
X-2025900D1*
X-1871577D2*
X-1014983D1*
X-890230D2*
X-880373D1*
X-356890D2*
X-90197D1*
X868230D2*
X1276990D1*
X-4590990Y862333D2*
X-4152073D1*
X-4040287D2*
X-3628147D1*
X-3516343D2*
X-3154473D1*
X-3005677D2*
X-2740920D1*
X-2583647D2*
X-2330373D1*
X-2051577D2*
X-2025900D1*
X-1880640D2*
X-1002813D1*
X-902377D2*
X-880373D1*
X-356890D2*
X-89533D1*
X623443D2*
X719430D1*
X868230D2*
X1276990D1*
X-4590990Y852667D2*
X-4152073D1*
X-4040287D2*
X-3628147D1*
X-3516343D2*
X-3154473D1*
X-3005677D2*
X-2750587D1*
X-2593313D2*
X-2330373D1*
X-2051577D2*
X-2025900D1*
X-1893237D2*
X-983460D1*
X-921753D2*
X-880373D1*
X-356890D2*
X-87793D1*
X613777D2*
X719430D1*
X868230D2*
X1276990D1*
X-4590990Y843000D2*
X-4152073D1*
X-4040287D2*
X-3628147D1*
X-3516343D2*
X-3154473D1*
X-3005677D2*
X-2760257D1*
X-2602983D2*
X-2330373D1*
X-2051577D2*
X-2025900D1*
X-1913960D2*
X-880373D1*
X-356890D2*
X-84923D1*
X604107D2*
X719430D1*
X868230D2*
X1276990D1*
X-4590990Y833333D2*
X-4152073D1*
X-4040287D2*
X-3628147D1*
X-3516343D2*
X-3154473D1*
X-3005677D2*
X-2769923D1*
X-2612650D2*
X-2330373D1*
X-2051577D2*
X-2025900D1*
X-1914097D2*
X-880373D1*
X-356890D2*
X-80783D1*
X594440D2*
X1276990D1*
X-4590990Y823667D2*
X-4152073D1*
X-4040287D2*
X-3628147D1*
X-3516343D2*
X-3154473D1*
X-3005677D2*
X-2779593D1*
X-2622320D2*
X-2330373D1*
X-2051577D2*
X-2025900D1*
X-1914097D2*
X-880373D1*
X-356890D2*
X-75177D1*
X584770D2*
X1276990D1*
X-4590990Y814000D2*
X-4152073D1*
X-4040287D2*
X-3628147D1*
X-3516343D2*
X-3154473D1*
X-3005677D2*
X-2789260D1*
X-2631987D2*
X-2330373D1*
X-2051577D2*
X-2025900D1*
X-1914097D2*
X-880373D1*
X-356890D2*
X-67717D1*
X575103D2*
X1276990D1*
X-4590990Y804333D2*
X-4152073D1*
X-4040287D2*
X-3628147D1*
X-3516343D2*
X-3154473D1*
X-3005677D2*
X-2798927D1*
X-2641653D2*
X-2330373D1*
X-2051577D2*
X-2025900D1*
X-1914097D2*
X-880373D1*
X-356890D2*
X-57677D1*
X565437D2*
X1276990D1*
X-4590990Y794667D2*
X-4152073D1*
X-4040287D2*
X-3628147D1*
X-3516343D2*
X-3154473D1*
X-3005677D2*
X-2808597D1*
X-2651323D2*
X-2330373D1*
X-2051577D2*
X-2025900D1*
X-1914097D2*
X-1455687D1*
X-356890D2*
X-43263D1*
X555767D2*
X1276990D1*
X-4590990Y785000D2*
X-4152073D1*
X-4040287D2*
X-3628147D1*
X-3516343D2*
X-3154473D1*
X-3005677D2*
X-2818263D1*
X-2660970D2*
X-2657380D1*
X-2051577D2*
X-2025900D1*
X-1914097D2*
X-1468753D1*
X-356890D2*
X-39847D1*
X546100D2*
X1276990D1*
X-4590990Y775333D2*
X-4152073D1*
X-4040287D2*
X-3628147D1*
X-3516343D2*
X-3154473D1*
X-3005677D2*
X-2827930D1*
X-2051577D2*
X-2025900D1*
X-1914097D2*
X-1478420D1*
X-356890D2*
X-47540D1*
X536430D2*
X1276990D1*
X-4590990Y765667D2*
X-4152073D1*
X-4040287D2*
X-3628147D1*
X-3516343D2*
X-3154473D1*
X-3005677D2*
X-2837600D1*
X-2051577D2*
X-2025900D1*
X-1914097D2*
X-1488070D1*
X-356890D2*
X-52327D1*
X526783D2*
X1276990D1*
X-4590990Y756000D2*
X-4152073D1*
X-4040287D2*
X-3628147D1*
X-3516343D2*
X-3135980D1*
X-3024173D2*
X-2847267D1*
X-2051577D2*
X-2025900D1*
X-1914097D2*
X-1497737D1*
X-356890D2*
X-55020D1*
X517117D2*
X1276990D1*
X-4590990Y746333D2*
X-4152073D1*
X-4040287D2*
X-3628147D1*
X-3516343D2*
X-3135980D1*
X-3024173D2*
X-2856937D1*
X-2051577D2*
X-2025900D1*
X-1914097D2*
X-1507403D1*
X-356890D2*
X-55900D1*
X78777D2*
X270780D1*
X507447D2*
X1276990D1*
X-4590990Y736667D2*
X-4152073D1*
X-4040287D2*
X-3628733D1*
X-3515777D2*
X-3144903D1*
X-3015247D2*
X-2866603D1*
X-2051577D2*
X-2025900D1*
X-1914097D2*
X-1517073D1*
X-356890D2*
X-56487D1*
X69107D2*
X261110D1*
X497780D2*
X1276990D1*
X-4590990Y727000D2*
X-4152073D1*
X-4040287D2*
X-3639083D1*
X-3505403D2*
X-3154923D1*
X-3005230D2*
X-2876253D1*
X-2051577D2*
X-2025900D1*
X-1914097D2*
X-1526740D1*
X-356890D2*
X-66837D1*
X66843D2*
X251443D1*
X488110D2*
X1276990D1*
X-4590990Y717333D2*
X-4152073D1*
X-4040287D2*
X-3646760D1*
X-3497730D2*
X-3162580D1*
X-2997553D2*
X-2885920D1*
X-2051577D2*
X-2025900D1*
X-1914097D2*
X-1536407D1*
X-356890D2*
X-74513D1*
X74517D2*
X241777D1*
X478443D2*
X1276990D1*
X-4590990Y707667D2*
X-4152073D1*
X-4040287D2*
X-3652540D1*
X-3491947D2*
X-3168537D1*
X-2991617D2*
X-2895587D1*
X-2051577D2*
X-2025900D1*
X-1914097D2*
X-1546077D1*
X-356890D2*
X-80293D1*
X80300D2*
X232107D1*
X468267D2*
X1276990D1*
X-4590990Y698000D2*
X-4152073D1*
X-4040287D2*
X-3656820D1*
X-3487670D2*
X-3173087D1*
X-2987043D2*
X-2905257D1*
X-2051577D2*
X-2025900D1*
X-1914097D2*
X-1555743D1*
X-356890D2*
X-84573D1*
X84577D2*
X222440D1*
X449633D2*
X1276990D1*
X-4590990Y688333D2*
X-4152073D1*
X-4040287D2*
X-3659827D1*
X-3484680D2*
X-3176467D1*
X-2983687D2*
X-2914923D1*
X-2051577D2*
X-2025900D1*
X-1914097D2*
X-1565413D1*
X-1408140D2*
X-1041017D1*
X-356890D2*
X-87560D1*
X87563D2*
X212830D1*
X370063D2*
X1276990D1*
X-4590990Y678667D2*
X-4152073D1*
X-4040287D2*
X-3661663D1*
X-3482847D2*
X-3178770D1*
X-2981380D2*
X-2924593D1*
X-2051577D2*
X-2025900D1*
X-1914097D2*
X-1575080D1*
X-1417787D2*
X-1047287D1*
X-356890D2*
X-89417D1*
X89400D2*
X205643D1*
X360397D2*
X1276990D1*
X-4590990Y669000D2*
X-4152073D1*
X-4040287D2*
X-3662423D1*
X-3482083D2*
X-3180080D1*
X-2980073D2*
X-2934260D1*
X-2051577D2*
X-2025900D1*
X-1914097D2*
X-1584747D1*
X-1427457D2*
X-1051973D1*
X-356890D2*
X-90177D1*
X90180D2*
X201190D1*
X350730D2*
X1276990D1*
X-4590990Y659333D2*
X-4152073D1*
X-4040287D2*
X-3662130D1*
X-3482357D2*
X-3180430D1*
X-2979720D2*
X-2943927D1*
X-2051577D2*
X-2025900D1*
X-1914097D2*
X-1594417D1*
X-1437123D2*
X-1055313D1*
X-356890D2*
X-89883D1*
X89890D2*
X194627D1*
X703423D2*
X1276990D1*
X-4590990Y649667D2*
X-4160217D1*
X-4040287D2*
X-3660783D1*
X-3483723D2*
X-3179847D1*
X-2980307D2*
X-2953597D1*
X-2051577D2*
X-2025900D1*
X-1914097D2*
X-1604083D1*
X-1446790D2*
X-1057483D1*
X-356890D2*
X-88537D1*
X88540D2*
X194627D1*
X703423D2*
X1276990D1*
X-4590990Y640000D2*
X-4169883D1*
X-4040287D2*
X-3658323D1*
X-3486187D2*
X-3178283D1*
X-2981850D2*
X-2963263D1*
X-2051577D2*
X-2025900D1*
X-1914097D2*
X-1613753D1*
X-1456460D2*
X-1058537D1*
X-356890D2*
X-86077D1*
X86080D2*
X194627D1*
X703423D2*
X1276990D1*
X-4590990Y630333D2*
X-4179553D1*
X-4040483D2*
X-3654650D1*
X-3489857D2*
X-3175743D1*
X-2984407D2*
X-2972930D1*
X-2051577D2*
X-2025900D1*
X-1914097D2*
X-1623420D1*
X-1466127D2*
X-1058557D1*
X-356890D2*
X-82403D1*
X82390D2*
X194627D1*
X703423D2*
X1276990D1*
X-4590990Y620667D2*
X-4189220D1*
X-4042200D2*
X-3649573D1*
X-3494917D2*
X-3172093D1*
X-2988060D2*
X-2982600D1*
X-2051577D2*
X-2025900D1*
X-1914097D2*
X-1632367D1*
X-1475793D2*
X-1057503D1*
X-356890D2*
X-77327D1*
X77330D2*
X194627D1*
X703423D2*
X1276990D1*
X-4590990Y611000D2*
X-4198890D1*
X-4045833D2*
X-3642833D1*
X-3501673D2*
X-3167210D1*
X-2051577D2*
X-2025900D1*
X-1914097D2*
X-1638243D1*
X-1485463D2*
X-1055373D1*
X-356890D2*
X-70570D1*
X70573D2*
X194627D1*
X703423D2*
X734120D1*
X807877D2*
X1276990D1*
X-4590990Y601333D2*
X-4208557D1*
X-4051870D2*
X-3633810D1*
X-3510677D2*
X-3160880D1*
X-2051577D2*
X-2025900D1*
X-1914097D2*
X-1641780D1*
X-1495130D2*
X-1052053D1*
X-356890D2*
X-61563D1*
X61570D2*
X194627D1*
X703423D2*
X717343D1*
X824653D2*
X1276990D1*
X-4590990Y591667D2*
X-4218223D1*
X-4060930D2*
X-3621290D1*
X-3523197D2*
X-3152717D1*
X-2051577D2*
X-2025900D1*
X-1914097D2*
X-1643400D1*
X-1504800D2*
X-1047403D1*
X-356890D2*
X-59043D1*
X59030D2*
X194627D1*
X835807D2*
X1276990D1*
X-4590990Y582000D2*
X-4227893D1*
X-4070600D2*
X-3600860D1*
X-3543647D2*
X-3141957D1*
X-2051577D2*
X-2025900D1*
X-1914097D2*
X-1643577D1*
X-1514467D2*
X-1041173D1*
X-356890D2*
X-68713D1*
X68717D2*
X194627D1*
X843990D2*
X1276990D1*
X-4590990Y572333D2*
X-4237560D1*
X-4080267D2*
X-3980197D1*
X-2619623D2*
X-2570510D1*
X-2051577D2*
X-2025900D1*
X-1914097D2*
X-1643577D1*
X-1524133D2*
X-1032893D1*
X-356890D2*
X-122170D1*
X850143D2*
X1276990D1*
X-4590990Y562667D2*
X-4247230D1*
X-4089937D2*
X-3993187D1*
X-2629290D2*
X-2580177D1*
X-2051577D2*
X-2025900D1*
X-1914097D2*
X-1643577D1*
X-1531770D2*
X-1021583D1*
X-356890D2*
X-135157D1*
X854733D2*
X1276990D1*
X-4590990Y553000D2*
X-4254883D1*
X-4099603D2*
X-4002853D1*
X-2638960D2*
X-2589847D1*
X-2051577D2*
X-2025900D1*
X-1914097D2*
X-1643577D1*
X-1531770D2*
X-1004437D1*
X-356890D2*
X-144827D1*
X857993D2*
X1276990D1*
X-4590990Y543333D2*
X-4259670D1*
X-4078157D2*
X-4012520D1*
X-2648627D2*
X-2599513D1*
X-2051577D2*
X-2025900D1*
X-1914097D2*
X-1643577D1*
X-1531770D2*
X-971253D1*
X-356890D2*
X-154493D1*
X860103D2*
X1276990D1*
X-4590990Y533667D2*
X-4262347D1*
X-4060150D2*
X-4022190D1*
X-2658293D2*
X-2609163D1*
X-2051577D2*
X-2025900D1*
X-1914097D2*
X-1643577D1*
X-1531770D2*
X-961603D1*
X-356890D2*
X-164163D1*
X861100D2*
X1276990D1*
X-4590990Y524000D2*
X-4263223D1*
X-4048490D2*
X-4031857D1*
X-2667943D2*
X-2618830D1*
X-2051577D2*
X-2025900D1*
X-1914097D2*
X-1643577D1*
X-1531770D2*
X-951937D1*
X-356890D2*
X-173830D1*
X861040D2*
X1276990D1*
X-4590990Y514333D2*
X-4263223D1*
X-2677610D2*
X-2628497D1*
X-2051577D2*
X-2025900D1*
X-1914097D2*
X-1643577D1*
X-1531770D2*
X-942267D1*
X-356890D2*
X-183497D1*
X859927D2*
X1276990D1*
X-4590990Y504667D2*
X-4263223D1*
X-2687280D2*
X-2638167D1*
X-2051577D2*
X-2025900D1*
X-1914097D2*
X-1643577D1*
X-1531770D2*
X-932600D1*
X-480423D2*
X-468693D1*
X-356890D2*
X-193167D1*
X857720D2*
X1276990D1*
X-4590990Y495000D2*
X-4263223D1*
X-2696947D2*
X-2647833D1*
X-2051577D2*
X-2025900D1*
X-1914097D2*
X-1643577D1*
X-1531770D2*
X-922930D1*
X-491207D2*
X-468693D1*
X-356890D2*
X-202833D1*
X854323D2*
X1276990D1*
X-4590990Y485333D2*
X-4263223D1*
X-2706617D2*
X-2657503D1*
X-2051577D2*
X-2025900D1*
X-1914097D2*
X-1643577D1*
X-1531770D2*
X-913263D1*
X-516087D2*
X-468693D1*
X-356890D2*
X-212503D1*
X849597D2*
X1276990D1*
X-4590990Y475667D2*
X-4263223D1*
X-2716283D2*
X-2667170D1*
X-2509897D2*
X-2330373D1*
X-2051577D2*
X-2025900D1*
X-1914097D2*
X-1643577D1*
X-1531770D2*
X-900393D1*
X-601577D2*
X-468693D1*
X-356890D2*
X-222170D1*
X843247D2*
X1276990D1*
X-4590990Y466000D2*
X-4263223D1*
X-2725950D2*
X-2676780D1*
X-2519563D2*
X-2330373D1*
X-2051577D2*
X-2025900D1*
X-1914097D2*
X-1643577D1*
X-1531770D2*
X-880373D1*
X-601577D2*
X-468693D1*
X-356890D2*
X-231837D1*
X-74543D2*
X-68817D1*
X68833D2*
X194627D1*
X703423D2*
X707187D1*
X834810D2*
X1276990D1*
X-4590990Y456333D2*
X-4263223D1*
X-2735620D2*
X-2683947D1*
X-2529213D2*
X-2330373D1*
X-2051577D2*
X-2025900D1*
X-1914097D2*
X-1643577D1*
X-1531770D2*
X-880373D1*
X-601577D2*
X-468693D1*
X-356890D2*
X-241507D1*
X-84213D2*
X-67520D1*
X67527D2*
X194627D1*
X703423D2*
X718747D1*
X823267D2*
X1276990D1*
X-4590990Y446667D2*
X-4263223D1*
X-2745287D2*
X-2688400D1*
X-2538880D2*
X-2330373D1*
X-2051577D2*
X-2025900D1*
X-1914097D2*
X-1643577D1*
X-1531770D2*
X-880373D1*
X-601577D2*
X-468693D1*
X-356890D2*
X-251153D1*
X-93880D2*
X-75040D1*
X75043D2*
X194627D1*
X703423D2*
X736483D1*
X805513D2*
X1276990D1*
X-4590990Y437000D2*
X-4263223D1*
X-2754957D2*
X-2690783D1*
X-2548550D2*
X-2330373D1*
X-2051577D2*
X-2025900D1*
X-1914097D2*
X-1643577D1*
X-1531770D2*
X-880373D1*
X-601577D2*
X-468693D1*
X-356890D2*
X-260823D1*
X-103550D2*
X-80687D1*
X80690D2*
X194627D1*
X703423D2*
X1276990D1*
X-4590990Y427333D2*
X-4263223D1*
X-2764623D2*
X-2691427D1*
X-2558217D2*
X-2330373D1*
X-2051577D2*
X-2025900D1*
X-1914097D2*
X-1643577D1*
X-1531770D2*
X-880373D1*
X-601577D2*
X-468693D1*
X-356890D2*
X-270490D1*
X-113217D2*
X-84847D1*
X84850D2*
X194627D1*
X703423D2*
X868260D1*
X916217D2*
X1276990D1*
X-4590990Y417667D2*
X-4263223D1*
X-2774290D2*
X-2691427D1*
X-2567883D2*
X-2330373D1*
X-2051577D2*
X-2025900D1*
X-1914097D2*
X-1643577D1*
X-1531770D2*
X-1014630D1*
X-954077D2*
X-880373D1*
X-601577D2*
X-570080D1*
X-509527D2*
X-468693D1*
X-356890D2*
X-280157D1*
X-122883D2*
X-87757D1*
X87760D2*
X194627D1*
X703423D2*
X848533D1*
X935923D2*
X1276990D1*
X-4590990Y408000D2*
X-4263223D1*
X-2783960D2*
X-2691427D1*
X-2577553D2*
X-2330373D1*
X-2051577D2*
X-2032640D1*
X-1914097D2*
X-1643577D1*
X-1531770D2*
X-1034280D1*
X-934427D2*
X-880373D1*
X-601577D2*
X-589730D1*
X-489897D2*
X-468693D1*
X-356890D2*
X-289827D1*
X-132553D2*
X-89513D1*
X89517D2*
X194627D1*
X703423D2*
X837087D1*
X947370D2*
X1276990D1*
X-4590990Y398333D2*
X-4263223D1*
X-2793627D2*
X-2691427D1*
X-2579623D2*
X-2330373D1*
X-2051577D2*
X-2042307D1*
X-1914097D2*
X-1643577D1*
X-1531770D2*
X-1046527D1*
X-922180D2*
X-880373D1*
X-477630D2*
X-468693D1*
X-356890D2*
X-299493D1*
X-142220D2*
X-90197D1*
X90180D2*
X287947D1*
X645963D2*
X829157D1*
X955300D2*
X1276990D1*
X-4590990Y388667D2*
X-4263223D1*
X-2803293D2*
X-2691427D1*
X-2579623D2*
X-2330373D1*
X-1914193D2*
X-1643577D1*
X-1531770D2*
X-1055373D1*
X-913333D2*
X-880373D1*
X-356890D2*
X-309163D1*
X-151890D2*
X-89827D1*
X89810D2*
X278280D1*
X645963D2*
X823513D1*
X960963D2*
X1276990D1*
X-4590990Y379000D2*
X-4263223D1*
X-2812943D2*
X-2701173D1*
X-2569877D2*
X-2330373D1*
X-1915657D2*
X-1643577D1*
X-1531770D2*
X-1062013D1*
X-906693D2*
X-880373D1*
X-356890D2*
X-318830D1*
X-161557D2*
X-88380D1*
X88383D2*
X268610D1*
X645963D2*
X819587D1*
X964890D2*
X1276990D1*
X-4590990Y369333D2*
X-4263223D1*
X-2822610D2*
X-2709143D1*
X-2561907D2*
X-2330373D1*
X-1918997D2*
X-1643577D1*
X-1531770D2*
X-1066993D1*
X-901713D2*
X-880373D1*
X-356890D2*
X-328303D1*
X-171223D2*
X-85823D1*
X214400D2*
X258943D1*
X645963D2*
X817107D1*
X967350D2*
X1276990D1*
X-4590990Y359667D2*
X-4262930D1*
X-2832280D2*
X-2715157D1*
X-2555913D2*
X-2330373D1*
X-1924623D2*
X-1643577D1*
X-1531770D2*
X-1070607D1*
X-898100D2*
X-880373D1*
X-356890D2*
X-335003D1*
X-180873D2*
X-84397D1*
X214400D2*
X249277D1*
X645963D2*
X815957D1*
X968520D2*
X1276990D1*
X-4590990Y350000D2*
X-4261077D1*
X-2841947D2*
X-2719610D1*
X-2551440D2*
X-2330373D1*
X-1933353D2*
X-1650570D1*
X-1524760D2*
X-1072990D1*
X-895717D2*
X-880373D1*
X-356890D2*
X-339123D1*
X-190540D2*
X-84397D1*
X645963D2*
X816033D1*
X968423D2*
X1276990D1*
X-4590990Y340333D2*
X-4257287D1*
X-2851617D2*
X-2722757D1*
X-2548293D2*
X-2330373D1*
X-1943020D2*
X-1659240D1*
X-1516087D2*
X-1074280D1*
X-894427D2*
X-880373D1*
X-356890D2*
X-341233D1*
X-200210D2*
X-84397D1*
X645963D2*
X817380D1*
X967097D2*
X1276990D1*
X-4590990Y330667D2*
X-4251017D1*
X-2861283D2*
X-2724747D1*
X-2546303D2*
X-2330373D1*
X-1952690D2*
X-1665743D1*
X-1509583D2*
X-1074513D1*
X-894193D2*
X-880373D1*
X-356890D2*
X-341680D1*
X-209877D2*
X-84397D1*
X645963D2*
X820057D1*
X964420D2*
X1276990D1*
X-4590990Y321000D2*
X-4241800D1*
X-2870950D2*
X-2725667D1*
X-2545383D2*
X-2330373D1*
X-1962357D2*
X-1670627D1*
X-1504720D2*
X-1073693D1*
X-895013D2*
X-880373D1*
X-356890D2*
X-341680D1*
X-219543D2*
X-84397D1*
X645963D2*
X824197D1*
X960260D2*
X1276990D1*
X-4590990Y311333D2*
X-4232130D1*
X-2880620D2*
X-2725510D1*
X-2545540D2*
X-2330373D1*
X-1972027D2*
X-1674123D1*
X-1501207D2*
X-1071780D1*
X-896927D2*
X-880373D1*
X-356890D2*
X-341680D1*
X-229213D2*
X-84397D1*
X645963D2*
X830133D1*
X954323D2*
X1276990D1*
X-4590990Y301667D2*
X-4222463D1*
X-2892983D2*
X-2724300D1*
X-2546753D2*
X-2330373D1*
X-1981693D2*
X-1676447D1*
X-1498900D2*
X-1068713D1*
X-899993D2*
X-880373D1*
X-356890D2*
X-341680D1*
X-229877D2*
X-84397D1*
X645963D2*
X838457D1*
X946003D2*
X1276990D1*
X-4590990Y292000D2*
X-4212793D1*
X-3325190D2*
X-2721993D1*
X-2549057D2*
X-2330373D1*
X-1994350D2*
X-1677657D1*
X-1497690D2*
X-1064357D1*
X-904350D2*
X-880373D1*
X-356890D2*
X-341680D1*
X-229877D2*
X-84397D1*
X645963D2*
X850603D1*
X933853D2*
X1276990D1*
X-4590990Y282333D2*
X-4203127D1*
X-3315520D2*
X-2718480D1*
X-2552573D2*
X-2330373D1*
X-2016830D2*
X-1677793D1*
X-1497533D2*
X-1058480D1*
X-910230D2*
X-880373D1*
X-356890D2*
X-341680D1*
X-229877D2*
X-84397D1*
X645963D2*
X873103D1*
X911373D2*
X1276990D1*
X-4590990Y272667D2*
X-4193460D1*
X-3305853D2*
X-2713617D1*
X-2557437D2*
X-2330373D1*
X-2051577D2*
X-1676897D1*
X-1498430D2*
X-1050667D1*
X-918040D2*
X-880373D1*
X-356890D2*
X-341680D1*
X-229877D2*
X-84397D1*
X645963D2*
X1276990D1*
X-4590990Y263000D2*
X-4183790D1*
X-3296187D2*
X-2707110D1*
X-2563940D2*
X-2330373D1*
X-2051577D2*
X-1674903D1*
X-1500423D2*
X-1040257D1*
X-928450D2*
X-880373D1*
X-356890D2*
X-341680D1*
X-229877D2*
X-84397D1*
X645963D2*
X1276990D1*
X-4590990Y253333D2*
X-4174123D1*
X-3286517D2*
X-2698460D1*
X-2572593D2*
X-2330373D1*
X-2051577D2*
X-1671760D1*
X-1503570D2*
X-1040257D1*
X-928450D2*
X-880373D1*
X-356890D2*
X-341680D1*
X-229877D2*
X-84397D1*
X645963D2*
X1276990D1*
X-4590990Y243667D2*
X-4164457D1*
X-3276850D2*
X-2694983D1*
X-2579623D2*
X-2330373D1*
X-2051577D2*
X-1667307D1*
X-1508040D2*
X-1040257D1*
X-927103D2*
X-880373D1*
X-357883D2*
X-341680D1*
X-229877D2*
X-84397D1*
X645963D2*
X1276990D1*
X-4590990Y234000D2*
X-4154787D1*
X-3267180D2*
X-2704630D1*
X-2579623D2*
X-2330373D1*
X-2051577D2*
X-1661290D1*
X-1514037D2*
X-1040257D1*
X-917437D2*
X-880373D1*
X-360677D2*
X-341680D1*
X-229877D2*
X-84397D1*
X487290D2*
X497167D1*
X645963D2*
X1276990D1*
X-4590990Y224333D2*
X-4145120D1*
X-3257513D2*
X-2714300D1*
X-2579623D2*
X-2330373D1*
X-2051577D2*
X-2021973D1*
X-1947200D2*
X-1653323D1*
X-1522007D2*
X-1040257D1*
X-907767D2*
X-880373D1*
X-365620D2*
X-341680D1*
X-229877D2*
X170487D1*
X477623D2*
X497167D1*
X645963D2*
X1276990D1*
X-4590990Y214667D2*
X-4135450D1*
X-3247847D2*
X-2723967D1*
X-2580503D2*
X-2330373D1*
X-2051577D2*
X-2038537D1*
X-1930620D2*
X-1642520D1*
X-1532827D2*
X-1039730D1*
X-898100D2*
X-880373D1*
X-373510D2*
X-341680D1*
X-229877D2*
X167167D1*
X467957D2*
X497167D1*
X645963D2*
X1276990D1*
X-4590990Y205000D2*
X-4121877D1*
X-3238177D2*
X-2733633D1*
X-2583197D2*
X-2330373D1*
X-1919563D2*
X-1626507D1*
X-1548843D2*
X-1037463D1*
X-888430D2*
X-880373D1*
X-383177D2*
X-341680D1*
X-229877D2*
X165017D1*
X458287D2*
X497167D1*
X645963D2*
X1276990D1*
X-4590990Y195333D2*
X-3385803D1*
X-3228510D2*
X-2743303D1*
X-2588003D2*
X-2330373D1*
X-1911420D2*
X-1033187D1*
X-392847D2*
X-341680D1*
X-229877D2*
X163963D1*
X448620D2*
X497167D1*
X645963D2*
X1276990D1*
X-4590990Y185667D2*
X-3376133D1*
X-3218860D2*
X-2752970D1*
X-2595697D2*
X-2583927D1*
X-1905307D2*
X-1026270D1*
X-402513D2*
X-341680D1*
X-229877D2*
X163963D1*
X438950D2*
X497167D1*
X645963D2*
X1276990D1*
X-4590990Y176000D2*
X-3366467D1*
X-3209193D2*
X-2762640D1*
X-2605367D2*
X-2601310D1*
X-1900757D2*
X-1016720D1*
X-412180D2*
X-341680D1*
X-229877D2*
X165017D1*
X429283D2*
X496130D1*
X645963D2*
X1276990D1*
X-4590990Y166333D2*
X-3356800D1*
X-3199527D2*
X-2772307D1*
X-2615033D2*
X-2611333D1*
X-1897513D2*
X-1007053D1*
X-421850D2*
X-341680D1*
X-229877D2*
X167167D1*
X419617D2*
X490447D1*
X651570D2*
X1276990D1*
X-4590990Y156667D2*
X-3347130D1*
X-3191633D2*
X-2781973D1*
X-2624700D2*
X-2621007D1*
X-1895463D2*
X-997383D1*
X-431517D2*
X-341680D1*
X-229877D2*
X170507D1*
X409947D2*
X486230D1*
X655767D2*
X1276990D1*
X-4590990Y147000D2*
X-3337463D1*
X-3186713D2*
X-2791643D1*
X-2634370D2*
X-2630663D1*
X-1894487D2*
X-987717D1*
X-441187D2*
X-341680D1*
X-229877D2*
X175153D1*
X399633D2*
X483300D1*
X658697D2*
X1276990D1*
X-4590990Y137333D2*
X-3327793D1*
X-3183920D2*
X-2829163D1*
X-2644017D2*
X-2640333D1*
X-1894563D2*
X-978050D1*
X-450853D2*
X-341680D1*
X-229877D2*
X181423D1*
X379770D2*
X481520D1*
X660473D2*
X1276990D1*
X-4590990Y127667D2*
X-3318127D1*
X-3182943D2*
X-2854867D1*
X-2653687D2*
X-2649997D1*
X-1895697D2*
X-968380D1*
X-460520D2*
X-341680D1*
X-229877D2*
X189723D1*
X318327D2*
X480820D1*
X661177D2*
X1276990D1*
X-4590990Y118000D2*
X-3308460D1*
X-3182943D2*
X-2868733D1*
X-2663353D2*
X-2659680D1*
X-1897923D2*
X-958713D1*
X-470190D2*
X-341680D1*
X-229877D2*
X201093D1*
X306960D2*
X481150D1*
X660847D2*
X1276990D1*
X-4590990Y108333D2*
X-3298790D1*
X-3182943D2*
X-2878480D1*
X-2673020D2*
X-2669330D1*
X-1901343D2*
X-949043D1*
X-479837D2*
X-351350D1*
X-229877D2*
X218357D1*
X659440D2*
X1276990D1*
X-4590990Y98667D2*
X-3294747D1*
X-3182943D2*
X-2885763D1*
X-2682690D2*
X-2678693D1*
X-1906127D2*
X-939397D1*
X-490403D2*
X-361017D1*
X-229877D2*
X223593D1*
X656900D2*
X1276990D1*
X-4590990Y89000D2*
X-3294747D1*
X-3182943D2*
X-2891213D1*
X-2692357D2*
X-2685157D1*
X-1912493D2*
X-929730D1*
X-512457D2*
X-370687D1*
X-230230D2*
X223593D1*
X653170D2*
X1276990D1*
X-4590990Y79333D2*
X-3294747D1*
X-3182943D2*
X-2895237D1*
X-2702027D2*
X-2689103D1*
X-2051577D2*
X-2048163D1*
X-1920990D2*
X-917307D1*
X-601577D2*
X-380353D1*
X-232240D2*
X223593D1*
X648013D2*
X1276990D1*
X-4590990Y69667D2*
X-3294747D1*
X-3182943D2*
X-2898010D1*
X-2711693D2*
X-2691077D1*
X-2550717D2*
X-2330373D1*
X-2051577D2*
X-2036527D1*
X-1932650D2*
X-880373D1*
X-601577D2*
X-390020D1*
X-236207D2*
X223593D1*
X641157D2*
X1276990D1*
X-4590990Y60000D2*
X-3294747D1*
X-3182943D2*
X-2899630D1*
X-2720367D2*
X-2691427D1*
X-2560383D2*
X-2330373D1*
X-2051577D2*
X-2018537D1*
X-1950640D2*
X-880373D1*
X-601577D2*
X-399690D1*
X-242710D2*
X223593D1*
X631997D2*
X1276990D1*
X-4590990Y50333D2*
X-3294747D1*
X-3182943D2*
X-2900197D1*
X-2719800D2*
X-2691427D1*
X-2570053D2*
X-2330373D1*
X-2051577D2*
X-880373D1*
X-601577D2*
X-409337D1*
X-252063D2*
X223593D1*
X630457D2*
X1276990D1*
X-4590990Y40667D2*
X-3294747D1*
X-3182943D2*
X-2899710D1*
X-2341127D2*
X-2330373D1*
X-2051577D2*
X-880373D1*
X-601577D2*
X-419007D1*
X-261733D2*
X223593D1*
X630397D2*
X1276990D1*
X-4590990Y31000D2*
X-3294747D1*
X-3182943D2*
X-2898147D1*
X-2341127D2*
X-2330373D1*
X-2051577D2*
X-880373D1*
X-601577D2*
X-428673D1*
X-271400D2*
X223593D1*
X629127D2*
X1276990D1*
X-4590990Y21333D2*
X-3294747D1*
X-3182943D2*
X-2895470D1*
X-2341127D2*
X-2330373D1*
X-2051577D2*
X-880373D1*
X-601577D2*
X-438343D1*
X-281070D2*
X223593D1*
X625983D2*
X1276990D1*
X-4590990Y11667D2*
X-3294747D1*
X-3182943D2*
X-2891543D1*
X-2341127D2*
X-2330373D1*
X-2051577D2*
X-880373D1*
X-601577D2*
X-448010D1*
X-290737D2*
X223593D1*
X620630D2*
X1276990D1*
X-4590990Y2000D2*
X-3294747D1*
X-3182943D2*
X-2886193D1*
X-2341127D2*
X-2330373D1*
X-2051577D2*
X-880373D1*
X-601577D2*
X-457677D1*
X-300403D2*
X223593D1*
X612057D2*
X1276990D1*
X-4590990Y-7667D2*
X-3294747D1*
X-3182943D2*
X-2879043D1*
X-2341127D2*
X-2330373D1*
X-2051577D2*
X-880373D1*
X-601577D2*
X-467347D1*
X-310073D2*
X223593D1*
X596687D2*
X1276990D1*
X-4590990Y-17333D2*
X-3294747D1*
X-3182943D2*
X-2869513D1*
X-2750503D2*
X-2739923D1*
X-2341127D2*
X-2330373D1*
X-2051577D2*
X-880373D1*
X522407D2*
X1276990D1*
X-4590990Y-27000D2*
X-3294747D1*
X-3182943D2*
X-2856037D1*
X-2763980D2*
X-2739923D1*
X-2341127D2*
X-2330373D1*
X-2051577D2*
X-880373D1*
X522407D2*
X1276990D1*
X-4590990Y-36667D2*
X-3294747D1*
X-3182943D2*
X-2832110D1*
X-2787883D2*
X-2739923D1*
X-2341127D2*
X-2330373D1*
X-2051577D2*
X-880373D1*
X363893D2*
X1276990D1*
X-4590990Y-46333D2*
X-3294747D1*
X-3182943D2*
X-2739923D1*
X-2341127D2*
X-2330373D1*
X-2051577D2*
X-880373D1*
X363893D2*
X1276990D1*
X-4590990Y-56000D2*
X-3294747D1*
X-3182943D2*
X-2739923D1*
X-2341127D2*
X-2330373D1*
X-2051577D2*
X-880373D1*
X363893D2*
X1276990D1*
X-4590990Y-65667D2*
X-3294747D1*
X-3182943D2*
X-2739923D1*
X-2341127D2*
X-2330373D1*
X-2051577D2*
X-880373D1*
X363893D2*
X1276990D1*
X-4590990Y-75333D2*
X-3294747D1*
X-3182943D2*
X-2739923D1*
X-2341127D2*
X-2330373D1*
X-2051577D2*
X-880373D1*
X363893D2*
X1276990D1*
X-4590990Y-85000D2*
X-3294747D1*
X-3182943D2*
X-2739923D1*
X-2341127D2*
X-2330373D1*
X368093D2*
X1276990D1*
X-4590990Y-94667D2*
X-3294747D1*
X-3182943D2*
X-2739923D1*
X-2341127D2*
X-2330373D1*
X377077D2*
X1276990D1*
X-4590990Y-104333D2*
X-3294747D1*
X-3182943D2*
X-2739923D1*
X-2341127D2*
X-2330373D1*
X471843D2*
X551110D1*
X623757D2*
X805193D1*
X877663D2*
X1059197D1*
X1131667D2*
X1276990D1*
X-4590990Y-114000D2*
X-3294747D1*
X-3182943D2*
X-2739923D1*
X-2341127D2*
X-2330373D1*
X471843D2*
X525270D1*
X649597D2*
X779313D1*
X903560D2*
X1033320D1*
X1157563D2*
X1276990D1*
X-4590990Y-123667D2*
X-3294747D1*
X-3182943D2*
X-2739923D1*
X-2341127D2*
X-2330373D1*
X-601577D2*
X193043D1*
X471843D2*
X508670D1*
X666197D2*
X762693D1*
X920180D2*
X1016697D1*
X1174167D2*
X1276990D1*
X-4590990Y-133333D2*
X-3294747D1*
X-3182943D2*
X-2739923D1*
X-2341127D2*
X-2330373D1*
X-601577D2*
X193043D1*
X471843D2*
X496053D1*
X678813D2*
X750097D1*
X932780D2*
X1004080D1*
X1186783D2*
X1276990D1*
X-4590990Y-143000D2*
X-3294747D1*
X-3182943D2*
X-2739923D1*
X-2341127D2*
X-2330373D1*
X-601577D2*
X193043D1*
X471843D2*
X485937D1*
X688930D2*
X739960D1*
X942917D2*
X993963D1*
X1196920D2*
X1276990D1*
X-4590990Y-152667D2*
X-3294747D1*
X-3182943D2*
X-2739923D1*
X-2341127D2*
X-2330373D1*
X-601577D2*
X193043D1*
X471843D2*
X477597D1*
X697290D2*
X731620D1*
X951257D2*
X985603D1*
X1205260D2*
X1276990D1*
X-4590990Y-162333D2*
X-3294747D1*
X-3182943D2*
X-2739923D1*
X-2341127D2*
X-2330373D1*
X-601577D2*
X193043D1*
X704223D2*
X724667D1*
X958210D2*
X978670D1*
X1212213D2*
X1276990D1*
X-4590990Y-172000D2*
X-3294747D1*
X-3182943D2*
X-2739923D1*
X-2341127D2*
X-2330373D1*
X-601577D2*
X193043D1*
X710007D2*
X718883D1*
X963990D2*
X972890D1*
X1217993D2*
X1276990D1*
X-4590990Y-181667D2*
X-3294747D1*
X-3182943D2*
X-2070373D1*
X-859583D2*
X193043D1*
X1222780D2*
X1276990D1*
X-4590990Y-191333D2*
X-3294747D1*
X-3182943D2*
X-2070373D1*
X-859583D2*
X193043D1*
X1226667D2*
X1276990D1*
X-4590990Y-201000D2*
X-3294747D1*
X-3182943D2*
X-2070373D1*
X-859583D2*
X193043D1*
X1229753D2*
X1276990D1*
X-4590990Y-210667D2*
X-3294747D1*
X-3182943D2*
X-2070373D1*
X-859583D2*
X193043D1*
X1232077D2*
X1276990D1*
X-4590990Y-220333D2*
X-3294747D1*
X-3182943D2*
X-2070373D1*
X-859583D2*
X193043D1*
X1233677D2*
X1276990D1*
X-4590990Y-230000D2*
X-3294747D1*
X-3182943D2*
X-2070373D1*
X-859583D2*
X193043D1*
X1234597D2*
X1276990D1*
X-4590990Y-239667D2*
X-3294747D1*
X-3182943D2*
X-2070373D1*
X-859583D2*
X193043D1*
X1234830D2*
X1276990D1*
X-4590990Y-249333D2*
X-3294747D1*
X-3182943D2*
X-2070373D1*
X-859583D2*
X193043D1*
X1234380D2*
X1276990D1*
X-4590990Y-259000D2*
X-3294747D1*
X-3182943D2*
X-2070373D1*
X-859583D2*
X193043D1*
X1233267D2*
X1276990D1*
X-4590990Y-268667D2*
X-3294747D1*
X-3182943D2*
X-2070373D1*
X123190D2*
X193043D1*
X1231430D2*
X1276990D1*
X-4590990Y-278333D2*
X-3294747D1*
X-3182943D2*
X-2070373D1*
X132700D2*
X193043D1*
X1228873D2*
X1276990D1*
X-4590990Y-288000D2*
X-3294747D1*
X-3182943D2*
X-1337483D1*
X137487D2*
X193043D1*
X1225553D2*
X1276990D1*
X-4590990Y-297667D2*
X-3294747D1*
X-3182943D2*
X-1339337D1*
X139323D2*
X193043D1*
X1221393D2*
X1276990D1*
X-4590990Y-307333D2*
X-3294747D1*
X-3182943D2*
X-1339397D1*
X139400D2*
X193043D1*
X1216313D2*
X1276990D1*
X-4590990Y-317000D2*
X-3294747D1*
X-3182943D2*
X-2801253D1*
X-2612457D2*
X-2551253D1*
X-2362457D2*
X-1339397D1*
X139400D2*
X193043D1*
X1210200D2*
X1276990D1*
X-4590990Y-326667D2*
X-3294747D1*
X-3182943D2*
X-2801253D1*
X-2612457D2*
X-2551253D1*
X-2362457D2*
X-2288263D1*
X-2125463D2*
X-1339397D1*
X139400D2*
X193043D1*
X1202857D2*
X1276990D1*
X-4590990Y-336333D2*
X-3294747D1*
X-3182943D2*
X-2801253D1*
X-2612457D2*
X-2551253D1*
X-2362457D2*
X-2288263D1*
X-2125463D2*
X-1339397D1*
X139400D2*
X193043D1*
X1194010D2*
X1276990D1*
X-4590990Y-346000D2*
X-3294747D1*
X-3182943D2*
X-2801253D1*
X-2612457D2*
X-2551253D1*
X-2362457D2*
X-2288263D1*
X-2125463D2*
X-1339397D1*
X139400D2*
X193043D1*
X1183210D2*
X1276990D1*
X-4590990Y-355667D2*
X-3294747D1*
X-3182943D2*
X-2801253D1*
X-2612457D2*
X-2551253D1*
X-2362457D2*
X-2288263D1*
X-2125463D2*
X-1339397D1*
X139400D2*
X193043D1*
X1169577D2*
X1276990D1*
X-4590990Y-365333D2*
X-3294747D1*
X-3182943D2*
X-2801253D1*
X-2612457D2*
X-2551253D1*
X-2362457D2*
X-2288263D1*
X-2125463D2*
X-1339397D1*
X139400D2*
X193043D1*
X1151743D2*
X1276990D1*
X-4590990Y-375000D2*
X-3294747D1*
X-3182943D2*
X-2801253D1*
X-2612457D2*
X-2551253D1*
X-2362457D2*
X-2288263D1*
X-2125463D2*
X-1339397D1*
X139400D2*
X193043D1*
X1170043D2*
X1276990D1*
X-4590990Y-384667D2*
X-3294747D1*
X-3182943D2*
X-2801253D1*
X-2612457D2*
X-2551253D1*
X-2362457D2*
X-2288263D1*
X-2125463D2*
X-1339397D1*
X139400D2*
X193043D1*
X1183560D2*
X1276990D1*
X-4590990Y-394333D2*
X-3294747D1*
X-3182943D2*
X-2801253D1*
X-2612457D2*
X-2551253D1*
X-2362457D2*
X-2288263D1*
X-2125463D2*
X-1339397D1*
X139400D2*
X193043D1*
X1194303D2*
X1276990D1*
X-4590990Y-404000D2*
X-3294747D1*
X-3182943D2*
X-2801253D1*
X-2612457D2*
X-2551253D1*
X-2362457D2*
X-2288263D1*
X-2125463D2*
X-1339397D1*
X139400D2*
X193043D1*
X1203093D2*
X1276990D1*
X-4590990Y-413667D2*
X-3294747D1*
X-3182943D2*
X-2801253D1*
X-2612457D2*
X-2551253D1*
X-2362457D2*
X-2288263D1*
X-2125463D2*
X-1339397D1*
X139400D2*
X193043D1*
X1210397D2*
X1276990D1*
X-4590990Y-423333D2*
X-3294747D1*
X-3182943D2*
X-2801253D1*
X-2612457D2*
X-2551253D1*
X-2362457D2*
X-2288263D1*
X-2125463D2*
X-1339397D1*
X139400D2*
X193043D1*
X1216490D2*
X1276990D1*
X-4590990Y-433000D2*
X-3294747D1*
X-3182943D2*
X-2801253D1*
X-2612457D2*
X-2551253D1*
X-2362457D2*
X-2288263D1*
X-2125463D2*
X-1339397D1*
X139400D2*
X193043D1*
X1221530D2*
X1276990D1*
X-4590990Y-442667D2*
X-3294747D1*
X-3182943D2*
X-2801253D1*
X-2612457D2*
X-2551253D1*
X-2362457D2*
X-2288263D1*
X-2125463D2*
X-1339397D1*
X139400D2*
X193043D1*
X1225670D2*
X1276990D1*
X-4590990Y-452333D2*
X-3294747D1*
X-3182943D2*
X-2801253D1*
X-2612457D2*
X-2551253D1*
X-2362457D2*
X-2288263D1*
X-2125463D2*
X-1339397D1*
X139400D2*
X193043D1*
X1228970D2*
X1276990D1*
X-4590990Y-462000D2*
X-3294747D1*
X-3182943D2*
X-2801253D1*
X-2612457D2*
X-2551253D1*
X-2362457D2*
X-2288263D1*
X-2125463D2*
X-1339397D1*
X139400D2*
X193043D1*
X1231510D2*
X1276990D1*
X-4590990Y-471667D2*
X-3294747D1*
X-3182943D2*
X-2801253D1*
X-2612457D2*
X-2551253D1*
X-2362457D2*
X-2288263D1*
X-2125463D2*
X-1339397D1*
X139400D2*
X193043D1*
X1233307D2*
X1276990D1*
X-4590990Y-481333D2*
X-3294747D1*
X-3182943D2*
X-2801253D1*
X-2612457D2*
X-2551253D1*
X-2362457D2*
X-2288263D1*
X-2125463D2*
X-1339397D1*
X139400D2*
X193043D1*
X1234400D2*
X1276990D1*
X-4590990Y-491000D2*
X-3294747D1*
X-3182943D2*
X-2801253D1*
X-2612457D2*
X-2551253D1*
X-2362457D2*
X-2288263D1*
X-2125463D2*
X-1339397D1*
X139400D2*
X193043D1*
X1234830D2*
X1276990D1*
X-4590990Y-500667D2*
X-3294747D1*
X-3182943D2*
X-2801253D1*
X-2612457D2*
X-2551253D1*
X-2362457D2*
X-2288263D1*
X-2125463D2*
X-1339397D1*
X139400D2*
X193043D1*
X1234577D2*
X1276990D1*
X-4590990Y-510333D2*
X-3294747D1*
X-3182943D2*
X-2801253D1*
X-2612457D2*
X-2551253D1*
X-2362457D2*
X-2288263D1*
X-2125463D2*
X-1339397D1*
X139400D2*
X193043D1*
X1233640D2*
X1276990D1*
X-4590990Y-520000D2*
X-3294747D1*
X-3182943D2*
X-2801253D1*
X-2612457D2*
X-2551253D1*
X-2362457D2*
X-2288263D1*
X-2125463D2*
X-1339397D1*
X139400D2*
X193043D1*
X1232017D2*
X1276990D1*
X-4590990Y-529667D2*
X-3294747D1*
X-3182943D2*
X-2801253D1*
X-2612457D2*
X-2551253D1*
X-2362457D2*
X-2288263D1*
X-2125463D2*
X-1339397D1*
X139400D2*
X193043D1*
X1229673D2*
X1276990D1*
X-4590990Y-539333D2*
X-3294747D1*
X-3182943D2*
X-2801253D1*
X-2612457D2*
X-2551253D1*
X-2362457D2*
X-2288263D1*
X-2125463D2*
X-1339397D1*
X139400D2*
X193043D1*
X1226570D2*
X1276990D1*
X-4590990Y-549000D2*
X-3294747D1*
X-3182943D2*
X-2801253D1*
X-2612457D2*
X-2551253D1*
X-2362457D2*
X-2288263D1*
X-2125463D2*
X-1339397D1*
X139400D2*
X193043D1*
X1222643D2*
X1276990D1*
X-4590990Y-558667D2*
X-3294747D1*
X-3182943D2*
X-2801253D1*
X-2612457D2*
X-2551253D1*
X-2362457D2*
X-2288263D1*
X-2125463D2*
X-1339397D1*
X139400D2*
X193043D1*
X1217837D2*
X1276990D1*
X-4590990Y-568333D2*
X-3294747D1*
X-3182943D2*
X-2801253D1*
X-2612457D2*
X-2551253D1*
X-2362457D2*
X-1339397D1*
X139400D2*
X193043D1*
X1212017D2*
X1276990D1*
X-4590990Y-578000D2*
X-3294747D1*
X-3182943D2*
X-2801253D1*
X-2612457D2*
X-2551253D1*
X-2362457D2*
X-1339397D1*
X139400D2*
X193043D1*
X1205027D2*
X1276990D1*
X-4590990Y-587667D2*
X-3294747D1*
X-3182943D2*
X-2762913D1*
X-2635170D2*
X-2516780D1*
X-2404973D2*
X-1339397D1*
X139400D2*
X193043D1*
X1196647D2*
X1276990D1*
X-4590990Y-597333D2*
X-3294747D1*
X-3182943D2*
X-2771330D1*
X-2626733D2*
X-2516780D1*
X-2404097D2*
X-1339397D1*
X139400D2*
X193043D1*
X1186450D2*
X1276990D1*
X-4590990Y-607000D2*
X-4146390D1*
X-4077730D2*
X-3696390D1*
X-3627730D2*
X-3472073D1*
X-3397573D2*
X-3294747D1*
X-3182943D2*
X-3022073D1*
X-2947573D2*
X-2777657D1*
X-2620403D2*
X-2516780D1*
X-2394427D2*
X-1339397D1*
X139400D2*
X193043D1*
X1173737D2*
X1276990D1*
X-4590990Y-616667D2*
X-4168850D1*
X-4055267D2*
X-3718850D1*
X-3605267D2*
X-3493243D1*
X-3376380D2*
X-3294747D1*
X-3182943D2*
X-3043243D1*
X-2926380D2*
X-2782383D1*
X-2615677D2*
X-2516780D1*
X-2384760D2*
X-1339397D1*
X139400D2*
X193043D1*
X1156960D2*
X1276990D1*
X-4590990Y-626333D2*
X-4183263D1*
X-4040853D2*
X-3733263D1*
X-3590853D2*
X-3507190D1*
X-3362437D2*
X-3294747D1*
X-3182943D2*
X-3057190D1*
X-2912437D2*
X-2785763D1*
X-2612300D2*
X-2516310D1*
X-2375093D2*
X-1339397D1*
X139400D2*
X193043D1*
X1165573D2*
X1276990D1*
X-4590990Y-636000D2*
X-4194027D1*
X-4030093D2*
X-3744027D1*
X-3580093D2*
X-3517697D1*
X-3351927D2*
X-3294747D1*
X-3182943D2*
X-3067697D1*
X-2901927D2*
X-2787970D1*
X-2610093D2*
X-2514143D1*
X-2365423D2*
X-1339397D1*
X139400D2*
X193043D1*
X1180123D2*
X1276990D1*
X-4590990Y-645667D2*
X-4202483D1*
X-4021633D2*
X-3752483D1*
X-3571633D2*
X-3525980D1*
X-3343647D2*
X-3294747D1*
X-3182943D2*
X-3075980D1*
X-2893647D2*
X-2789083D1*
X-2608997D2*
X-2509983D1*
X-1508510D2*
X-1339397D1*
X139400D2*
X193043D1*
X1191530D2*
X1276990D1*
X-4590990Y-655333D2*
X-4209240D1*
X-4014877D2*
X-3759240D1*
X-3564877D2*
X-3532580D1*
X-3337043D2*
X-3294747D1*
X-3182943D2*
X-3082580D1*
X-2887043D2*
X-2789123D1*
X-2608940D2*
X-2503207D1*
X-1489330D2*
X-1339397D1*
X139400D2*
X193043D1*
X1200807D2*
X1276990D1*
X-4590990Y-665000D2*
X-4214650D1*
X-4009467D2*
X-3764650D1*
X-3559467D2*
X-3537873D1*
X-3331770D2*
X-3294747D1*
X-3182943D2*
X-3087873D1*
X-2881770D2*
X-2788127D1*
X-2609957D2*
X-2493713D1*
X-1479097D2*
X-1339397D1*
X139400D2*
X193043D1*
X1208503D2*
X1276990D1*
X-4590990Y-674667D2*
X-4218890D1*
X-4005230D2*
X-3768890D1*
X-3555230D2*
X-3542013D1*
X-3327610D2*
X-3294747D1*
X-3182943D2*
X-3092013D1*
X-2877610D2*
X-2786017D1*
X-2612043D2*
X-2484043D1*
X-1469427D2*
X-1339397D1*
X139400D2*
X193043D1*
X1214907D2*
X1276990D1*
X-4590990Y-684333D2*
X-4222110D1*
X-4001987D2*
X-3772110D1*
X-3551987D2*
X-3545140D1*
X-3324487D2*
X-3294747D1*
X-3182943D2*
X-3095140D1*
X-2874487D2*
X-2782757D1*
X-2615327D2*
X-2474377D1*
X-1459760D2*
X-1339397D1*
X139400D2*
X193043D1*
X1220220D2*
X1276990D1*
X-4590990Y-694000D2*
X-4224417D1*
X-3999700D2*
X-3774417D1*
X-3322280D2*
X-3294747D1*
X-3182943D2*
X-3097347D1*
X-2872280D2*
X-2778147D1*
X-2619917D2*
X-2464710D1*
X-1450093D2*
X-1339397D1*
X139400D2*
X193043D1*
X1224597D2*
X1276990D1*
X-4590990Y-703667D2*
X-4225843D1*
X-3998257D2*
X-3775843D1*
X-3320930D2*
X-3294747D1*
X-3182943D2*
X-3098693D1*
X-2870930D2*
X-2771973D1*
X-2626087D2*
X-2455040D1*
X-1440423D2*
X-1339397D1*
X139400D2*
X193043D1*
X1228130D2*
X1276990D1*
X-4590990Y-713333D2*
X-4226447D1*
X-3997670D2*
X-3776447D1*
X-3320423D2*
X-3294747D1*
X-3182943D2*
X-3099200D1*
X-2870423D2*
X-2763790D1*
X-2634290D2*
X-2445373D1*
X-1430757D2*
X-1339397D1*
X139400D2*
X193043D1*
X1230867D2*
X1276990D1*
X-4590990Y-723000D2*
X-4226193D1*
X-3997903D2*
X-3776193D1*
X-3320737D2*
X-3294747D1*
X-3182943D2*
X-3098890D1*
X-2870737D2*
X-2752620D1*
X-2645463D2*
X-2435707D1*
X-1421087D2*
X-1339397D1*
X139400D2*
X193043D1*
X1232877D2*
X1276990D1*
X-4590990Y-732667D2*
X-4225140D1*
X-3998980D2*
X-3775140D1*
X-3321890D2*
X-3294747D1*
X-3182943D2*
X-3097737D1*
X-2871890D2*
X-2735783D1*
X-2662280D2*
X-2426057D1*
X-1411420D2*
X-1339397D1*
X139400D2*
X193043D1*
X1234167D2*
X1276990D1*
X-4590990Y-742333D2*
X-4223207D1*
X-4000913D2*
X-3773207D1*
X-3550913D2*
X-3545730D1*
X-3323900D2*
X-3294747D1*
X-3182943D2*
X-3095723D1*
X-2873900D2*
X-2415647D1*
X-1401753D2*
X-1339397D1*
X139400D2*
X193043D1*
X1234790D2*
X1276990D1*
X-4590990Y-752000D2*
X-4220393D1*
X-4003723D2*
X-3770393D1*
X-3553723D2*
X-3542813D1*
X-3326810D2*
X-3294747D1*
X-3182943D2*
X-3092813D1*
X-2876810D2*
X-2395140D1*
X-1392083D2*
X-1339397D1*
X139400D2*
X193043D1*
X1234713D2*
X1276990D1*
X-4590990Y-761667D2*
X-4216583D1*
X-4007533D2*
X-3766583D1*
X-3557533D2*
X-3538907D1*
X-3330717D2*
X-3294747D1*
X-3182943D2*
X-3088907D1*
X-2880717D2*
X-2283010D1*
X-1560093D2*
X-1539710D1*
X-1382437D2*
X-1339397D1*
X139400D2*
X193043D1*
X1233970D2*
X1276990D1*
X-4590990Y-771333D2*
X-4211700D1*
X-4012417D2*
X-3761700D1*
X-3562417D2*
X-3533907D1*
X-3335717D2*
X-3294747D1*
X-3182943D2*
X-3083907D1*
X-2885717D2*
X-2288380D1*
X-1547397D2*
X-1530040D1*
X-1372767D2*
X-1339397D1*
X139400D2*
X193043D1*
X1232543D2*
X1276990D1*
X-4590990Y-781000D2*
X-4205550D1*
X-4018570D2*
X-3755550D1*
X-3568570D2*
X-3527640D1*
X-3341987D2*
X-3294747D1*
X-3182943D2*
X-3077640D1*
X-2891987D2*
X-2292307D1*
X-1537730D2*
X-1520373D1*
X-1363100D2*
X-1339397D1*
X139400D2*
X193043D1*
X1230397D2*
X1276990D1*
X-4590990Y-790667D2*
X-4197873D1*
X-4026243D2*
X-3747873D1*
X-3576243D2*
X-3519787D1*
X-3349837D2*
X-3294747D1*
X-3182943D2*
X-3069787D1*
X-2899837D2*
X-2295003D1*
X-1528060D2*
X-1510707D1*
X-1353430D2*
X-1339397D1*
X139400D2*
X193043D1*
X1227507D2*
X1276990D1*
X-4590990Y-800333D2*
X-4188187D1*
X-4035930D2*
X-3738187D1*
X-3585930D2*
X-3509867D1*
X-3359760D2*
X-3294747D1*
X-3182943D2*
X-3059867D1*
X-2909760D2*
X-2296563D1*
X-1518413D2*
X-1501037D1*
X-1343763D2*
X-1339410D1*
X139400D2*
X193043D1*
X1228190D2*
X1276990D1*
X-4590990Y-810000D2*
X-4175587D1*
X-4048530D2*
X-3725587D1*
X-3598530D2*
X-3496877D1*
X-3372747D2*
X-3294747D1*
X-3182943D2*
X-3046877D1*
X-2922747D2*
X-2297053D1*
X-1508743D2*
X-1491370D1*
X139400D2*
X193043D1*
X711257D2*
X717597D1*
X1236687D2*
X1276990D1*
X-4590990Y-819667D2*
X-4167950D1*
X-4056167D2*
X-3707620D1*
X-3616480D2*
X-3490707D1*
X-3378920D2*
X-3294747D1*
X-3182943D2*
X-3028107D1*
X-2941517D2*
X-2296507D1*
X-1499077D2*
X-1481700D1*
X139400D2*
X193043D1*
X705730D2*
X723123D1*
X1242097D2*
X1276990D1*
X-4590990Y-829333D2*
X-4167950D1*
X-4056167D2*
X-3490707D1*
X-3378920D2*
X-3294747D1*
X-3182943D2*
X-2294867D1*
X-1489407D2*
X-1472033D1*
X139400D2*
X193043D1*
X471843D2*
X475783D1*
X699087D2*
X729763D1*
X1245280D2*
X1276990D1*
X-4590990Y-839000D2*
X-4167950D1*
X-4056167D2*
X-3490707D1*
X-3378920D2*
X-3294747D1*
X-3182943D2*
X-2292110D1*
X-1479740D2*
X-1462367D1*
X139400D2*
X193043D1*
X471843D2*
X483747D1*
X691120D2*
X737733D1*
X1246587D2*
X1276990D1*
X-4590990Y-848667D2*
X-4167950D1*
X-4056167D2*
X-3490707D1*
X-3378920D2*
X-3294747D1*
X-3182943D2*
X-2288107D1*
X-1470073D2*
X-1452697D1*
X139400D2*
X193043D1*
X471843D2*
X493397D1*
X681470D2*
X747380D1*
X1246647D2*
X1276990D1*
X-4590990Y-858333D2*
X-4167950D1*
X-4056167D2*
X-3490707D1*
X-3378920D2*
X-3294747D1*
X-3182943D2*
X-2282640D1*
X-1460403D2*
X-1443050D1*
X139400D2*
X193043D1*
X471843D2*
X505310D1*
X669557D2*
X759277D1*
X1246647D2*
X1276990D1*
X-4590990Y-868000D2*
X-4167950D1*
X-4056167D2*
X-3490707D1*
X-3378920D2*
X-3294747D1*
X-3182943D2*
X-2275373D1*
X-2138333D2*
X-1608010D1*
X-1450813D2*
X-1433380D1*
X-1291653D2*
X-1287307D1*
X139400D2*
X193043D1*
X471843D2*
X520700D1*
X654167D2*
X774667D1*
X1246647D2*
X1276990D1*
X-4590990Y-877667D2*
X-4167950D1*
X-4056167D2*
X-3490707D1*
X-3378920D2*
X-3294747D1*
X-3182943D2*
X-2551253D1*
X-2362457D2*
X-2301253D1*
X-2112457D2*
X-1598343D1*
X-1443783D2*
X-1423713D1*
X-1281673D2*
X-1277640D1*
X139400D2*
X193043D1*
X471843D2*
X543163D1*
X631707D2*
X797107D1*
X885767D2*
X894237D1*
X1246647D2*
X1276990D1*
X-4590990Y-887333D2*
X-4167950D1*
X-4056167D2*
X-3490707D1*
X-3378920D2*
X-3294747D1*
X-3182943D2*
X-2788263D1*
X-2625463D2*
X-2551253D1*
X-2362457D2*
X-2301253D1*
X-2112457D2*
X-1588693D1*
X-1439407D2*
X-1424787D1*
X-1274233D2*
X-1267970D1*
X139400D2*
X903903D1*
X1246647D2*
X1276990D1*
X-4590990Y-897000D2*
X-4167950D1*
X-4056167D2*
X-3490707D1*
X-3378920D2*
X-3294747D1*
X-3182943D2*
X-2788263D1*
X-2625463D2*
X-2551253D1*
X-2362457D2*
X-2301253D1*
X-2112457D2*
X-1670237D1*
X-1632123D2*
X-1579027D1*
X-1437083D2*
X-1430393D1*
X-1268647D2*
X-1258303D1*
X139400D2*
X913573D1*
X1246647D2*
X1276990D1*
X-4590990Y-906667D2*
X-4167950D1*
X-4056167D2*
X-3490707D1*
X-3378920D2*
X-3294747D1*
X-3182943D2*
X-2788263D1*
X-2625463D2*
X-2551253D1*
X-2362457D2*
X-2301253D1*
X-2112457D2*
X-1695997D1*
X-1606343D2*
X-1569357D1*
X-1264527D2*
X-1248633D1*
X139400D2*
X923240D1*
X1246647D2*
X1276990D1*
X-4590990Y-916333D2*
X-4167950D1*
X-4056167D2*
X-3490707D1*
X-3378920D2*
X-3294747D1*
X-3182943D2*
X-2788263D1*
X-2625463D2*
X-2551253D1*
X-2362457D2*
X-2301253D1*
X-2112457D2*
X-1709883D1*
X-1592473D2*
X-1559690D1*
X-1261673D2*
X-1238967D1*
X139400D2*
X932907D1*
X1246647D2*
X1276990D1*
X-4590990Y-926000D2*
X-4167950D1*
X-4056167D2*
X-3490707D1*
X-3378920D2*
X-3294747D1*
X-3182943D2*
X-2788263D1*
X-2625463D2*
X-2551253D1*
X-2362457D2*
X-2301253D1*
X-2112457D2*
X-1719630D1*
X-1582710D2*
X-1550020D1*
X-1259957D2*
X-1229300D1*
X139400D2*
X942577D1*
X1246647D2*
X1276990D1*
X-4590990Y-935667D2*
X-4167950D1*
X-4056167D2*
X-3533243D1*
X-3134447D2*
X-2788263D1*
X-2625463D2*
X-2551253D1*
X-2362457D2*
X-2301253D1*
X-2112457D2*
X-1726917D1*
X-1575423D2*
X-1548303D1*
X-1259330D2*
X-1219630D1*
X139400D2*
X952243D1*
X1246647D2*
X1276990D1*
X-4590990Y-945333D2*
X-4167950D1*
X-4056167D2*
X-3533243D1*
X-3134447D2*
X-2788263D1*
X-2625463D2*
X-2551253D1*
X-2362457D2*
X-2301253D1*
X-2112457D2*
X-1732383D1*
X-1569957D2*
X-1548303D1*
X-1259740D2*
X-1209963D1*
X139400D2*
X961913D1*
X1246647D2*
X1276990D1*
X-4590990Y-955000D2*
X-4167950D1*
X-4056167D2*
X-3533243D1*
X-3134447D2*
X-2788263D1*
X-2625463D2*
X-2551253D1*
X-2362457D2*
X-2301253D1*
X-2112457D2*
X-1736407D1*
X-1565950D2*
X-1548303D1*
X-1261207D2*
X-1200313D1*
X139400D2*
X971560D1*
X1246647D2*
X1276990D1*
X-4590990Y-964667D2*
X-4167950D1*
X-4056167D2*
X-3533243D1*
X-3134447D2*
X-2788263D1*
X-2625463D2*
X-2551253D1*
X-2362457D2*
X-2301253D1*
X-2112457D2*
X-1739180D1*
X-1563177D2*
X-1548303D1*
X-1263803D2*
X-1190647D1*
X216040D2*
X981230D1*
X1246647D2*
X1276990D1*
X-4590990Y-974333D2*
X-4167950D1*
X-4056167D2*
X-3533243D1*
X-3134447D2*
X-2788263D1*
X-2625463D2*
X-2551253D1*
X-2362457D2*
X-2301253D1*
X-2112457D2*
X-1740803D1*
X-1561537D2*
X-1548303D1*
X-1436497D2*
X-1431407D1*
X-1267630D2*
X-1180980D1*
X229557D2*
X990897D1*
X1246647D2*
X1276990D1*
X-4590990Y-984000D2*
X-4167950D1*
X-4056167D2*
X-3533243D1*
X-3134447D2*
X-2788263D1*
X-2625463D2*
X-2551253D1*
X-2362457D2*
X-2301253D1*
X-2112457D2*
X-1741370D1*
X-1560970D2*
X-1548303D1*
X-1436497D2*
X-1426153D1*
X-1272883D2*
X-1171310D1*
X235903D2*
X1000563D1*
X1246647D2*
X1276990D1*
X-4590990Y-993667D2*
X-4167950D1*
X-4056167D2*
X-3533243D1*
X-3134447D2*
X-2788263D1*
X-2625463D2*
X-2551253D1*
X-2362457D2*
X-2301253D1*
X-2112457D2*
X-1740880D1*
X-1561460D2*
X-1548303D1*
X-1436497D2*
X-1419180D1*
X-1279857D2*
X-1161643D1*
X238873D2*
X1010233D1*
X1246647D2*
X1276990D1*
X-4590990Y-1003333D2*
X-4167950D1*
X-4056167D2*
X-3533243D1*
X-3134447D2*
X-2788263D1*
X-2625463D2*
X-2551253D1*
X-2362457D2*
X-2301253D1*
X-2112457D2*
X-1739337D1*
X-1563020D2*
X-1548303D1*
X-1436497D2*
X-1409847D1*
X-1289193D2*
X-1151973D1*
X239263D2*
X1019900D1*
X1246647D2*
X1276990D1*
X-4590990Y-1013000D2*
X-4167950D1*
X-4056167D2*
X-3533243D1*
X-3134447D2*
X-2788263D1*
X-2625463D2*
X-2551253D1*
X-2362457D2*
X-2301253D1*
X-2112457D2*
X-1736643D1*
X-1565697D2*
X-1548303D1*
X-1432747D2*
X-1396760D1*
X-1302280D2*
X-1142307D1*
X237133D2*
X1023710D1*
X1246647D2*
X1276990D1*
X-4590990Y-1022667D2*
X-4167950D1*
X-4056167D2*
X-3533243D1*
X-3134447D2*
X-2788263D1*
X-2625463D2*
X-2551253D1*
X-2362457D2*
X-2301253D1*
X-2112457D2*
X-1732717D1*
X-1569623D2*
X-1548303D1*
X-1423080D2*
X-1374397D1*
X-1324643D2*
X-1132640D1*
X231997D2*
X1023710D1*
X1246647D2*
X1276990D1*
X-4590990Y-1032333D2*
X-4167950D1*
X-4056167D2*
X-3533243D1*
X-3134447D2*
X-2788263D1*
X-2625463D2*
X-2551253D1*
X-2362457D2*
X-2301253D1*
X-2112457D2*
X-1727367D1*
X-1574973D2*
X-1548303D1*
X-1413413D2*
X-1121720D1*
X221723D2*
X1023710D1*
X1246647D2*
X1276990D1*
X-4590990Y-1042000D2*
X-4167950D1*
X-4056167D2*
X-3533243D1*
X-3134447D2*
X-2788263D1*
X-2625463D2*
X-2551253D1*
X-2362457D2*
X-2301253D1*
X-2112457D2*
X-1720237D1*
X-1582103D2*
X-1547383D1*
X-1403743D2*
X1023710D1*
X1246647D2*
X1276990D1*
X-4590990Y-1051667D2*
X-4167950D1*
X-4056167D2*
X-3533243D1*
X-3134447D2*
X-2788263D1*
X-2625463D2*
X-2551253D1*
X-2362457D2*
X-2301253D1*
X-2112457D2*
X-1710707D1*
X-1591653D2*
X-1544650D1*
X-1394077D2*
X1023710D1*
X1246647D2*
X1276990D1*
X-4590990Y-1061333D2*
X-4167950D1*
X-4056167D2*
X-3533243D1*
X-3134447D2*
X-2788263D1*
X-2625463D2*
X-2551253D1*
X-2362457D2*
X-2301253D1*
X-2112457D2*
X-1707073D1*
X-1595267D2*
X-1539807D1*
X-309820D2*
X1023710D1*
X1246647D2*
X1276990D1*
X-4590990Y-1071000D2*
X-4167950D1*
X-4056167D2*
X-3533243D1*
X-3134447D2*
X-2788263D1*
X-2625463D2*
X-2551253D1*
X-2362457D2*
X-2301253D1*
X-2112457D2*
X-1707073D1*
X-1595267D2*
X-1532033D1*
X-295210D2*
X1023710D1*
X1246647D2*
X1276990D1*
X-4590990Y-1080667D2*
X-4167950D1*
X-4056167D2*
X-3533243D1*
X-3134447D2*
X-2788263D1*
X-2625463D2*
X-2551253D1*
X-2362457D2*
X-2301253D1*
X-2112457D2*
X-1707073D1*
X-1595267D2*
X-1522367D1*
X-285463D2*
X1023710D1*
X1246647D2*
X1276990D1*
X-4590990Y-1090333D2*
X-4167950D1*
X-4056167D2*
X-3533243D1*
X-3134447D2*
X-2788263D1*
X-2625463D2*
X-2551253D1*
X-2362457D2*
X-2301253D1*
X-2112457D2*
X-1707073D1*
X-1595267D2*
X-1512697D1*
X-275793D2*
X1023710D1*
X1246647D2*
X1276990D1*
X-4590990Y-1100000D2*
X-4167950D1*
X-4056167D2*
X-3533243D1*
X-3134447D2*
X-2788263D1*
X-2625463D2*
X-2551253D1*
X-2362457D2*
X-2301253D1*
X-2112457D2*
X-1707073D1*
X-1595267D2*
X-1503030D1*
X-266127D2*
X1023710D1*
X1246647D2*
X1276990D1*
X-4590990Y-1109667D2*
X-4167950D1*
X-4056167D2*
X-3533243D1*
X-3134447D2*
X-2788263D1*
X-2625463D2*
X-2551253D1*
X-2362457D2*
X-2301253D1*
X-2112457D2*
X-1707073D1*
X-1595267D2*
X-1493360D1*
X-256480D2*
X1023710D1*
X1246647D2*
X1276990D1*
X-4590990Y-1119333D2*
X-4167950D1*
X-4056167D2*
X-3533243D1*
X-3134447D2*
X-2788263D1*
X-2625463D2*
X-2551253D1*
X-2362457D2*
X-2301253D1*
X-2112457D2*
X-1707073D1*
X-1595267D2*
X-1483693D1*
X-246810D2*
X1023710D1*
X1246647D2*
X1276990D1*
X-4590990Y-1129000D2*
X-4167950D1*
X-4056167D2*
X-3533243D1*
X-3134447D2*
X-2788263D1*
X-2625463D2*
X-2551253D1*
X-2362457D2*
X-2301253D1*
X-2112457D2*
X-1707073D1*
X-1595267D2*
X-1474027D1*
X-237143D2*
X1023710D1*
X1246647D2*
X1276990D1*
X-4590990Y-1138667D2*
X-4167950D1*
X-4056167D2*
X-3533243D1*
X-3134447D2*
X-2551253D1*
X-2362457D2*
X-2301253D1*
X-2112457D2*
X-1707073D1*
X-1595267D2*
X-1464357D1*
X-227473D2*
X1023710D1*
X1246647D2*
X1276990D1*
X-4590990Y-1148333D2*
X-4167950D1*
X-4056167D2*
X-3533243D1*
X-3134447D2*
X-2516780D1*
X-2392903D2*
X-1707073D1*
X-1595267D2*
X-1454690D1*
X-217807D2*
X1023710D1*
X1246647D2*
X1276990D1*
X-4590990Y-1158000D2*
X-4167950D1*
X-4056167D2*
X-3533243D1*
X-3134447D2*
X-2516780D1*
X-2383237D2*
X-1707073D1*
X-1595267D2*
X-1442990D1*
X-208140D2*
X134627D1*
X373423D2*
X1023710D1*
X1246647D2*
X1276990D1*
X-4590990Y-1167667D2*
X-4167950D1*
X-4056167D2*
X-3490707D1*
X-3378920D2*
X-3294747D1*
X-3182943D2*
X-2516097D1*
X-1595267D2*
X-670490D1*
X-663150D2*
X-355743D1*
X-198470D2*
X134627D1*
X373423D2*
X1023710D1*
X1246647D2*
X1276990D1*
X-4590990Y-1177333D2*
X-4167950D1*
X-4056167D2*
X-3490707D1*
X-3378920D2*
X-3294747D1*
X-3182943D2*
X-2513633D1*
X-1595267D2*
X-714747D1*
X-618900D2*
X-346077D1*
X-188803D2*
X134627D1*
X373423D2*
X1023710D1*
X1246647D2*
X1276990D1*
X-4590990Y-1187000D2*
X-4167950D1*
X-4056167D2*
X-3490707D1*
X-3378920D2*
X-3294747D1*
X-3182943D2*
X-2509103D1*
X-1595267D2*
X-732697D1*
X-600930D2*
X-336407D1*
X-179133D2*
X134627D1*
X373423D2*
X1023710D1*
X1246647D2*
X1276990D1*
X-4590990Y-1196667D2*
X-4167950D1*
X-4056167D2*
X-3490707D1*
X-3378920D2*
X-3294747D1*
X-3182943D2*
X-2501820D1*
X-1595600D2*
X-745490D1*
X-588157D2*
X-326760D1*
X-169467D2*
X134627D1*
X373423D2*
X1023710D1*
X1246647D2*
X1276990D1*
X-4590990Y-1206333D2*
X-4167950D1*
X-4056167D2*
X-3490707D1*
X-3378920D2*
X-3294747D1*
X-3182943D2*
X-2492190D1*
X-1597533D2*
X-755373D1*
X-578257D2*
X-317093D1*
X-159800D2*
X134627D1*
X373423D2*
X1023710D1*
X1246647D2*
X1276990D1*
X-4590990Y-1216000D2*
X-4167950D1*
X-4056167D2*
X-3490707D1*
X-3378920D2*
X-3294747D1*
X-3182943D2*
X-2482520D1*
X-1601420D2*
X-763283D1*
X-570367D2*
X-307423D1*
X373423D2*
X927517D1*
X977680D2*
X1023710D1*
X1246647D2*
X1276990D1*
X-4590990Y-1225667D2*
X-4167950D1*
X-4056167D2*
X-3490707D1*
X-3378920D2*
X-3294747D1*
X-3182943D2*
X-2472853D1*
X-1607807D2*
X-769670D1*
X-563960D2*
X-297757D1*
X373423D2*
X905270D1*
X999927D2*
X1023710D1*
X1246647D2*
X1276990D1*
X-4590990Y-1235333D2*
X-4167950D1*
X-4056167D2*
X-3490707D1*
X-3378920D2*
X-3294747D1*
X-3182943D2*
X-2463187D1*
X-1617123D2*
X-774807D1*
X-558823D2*
X-288087D1*
X373423D2*
X892207D1*
X1012993D2*
X1023710D1*
X1246647D2*
X1276990D1*
X-4590990Y-1245000D2*
X-4167950D1*
X-4056167D2*
X-3490707D1*
X-3378920D2*
X-3294747D1*
X-3182943D2*
X-2453517D1*
X-1626790D2*
X-778890D1*
X-554760D2*
X-278420D1*
X373423D2*
X882890D1*
X1246647D2*
X1276990D1*
X-4590990Y-1254667D2*
X-4167950D1*
X-4056167D2*
X-3687540D1*
X-3636577D2*
X-3490707D1*
X-3378920D2*
X-3294747D1*
X-3182943D2*
X-3014220D1*
X-2955403D2*
X-2443850D1*
X-1636460D2*
X-781993D1*
X-551653D2*
X-268753D1*
X373423D2*
X844217D1*
X1246647D2*
X1276990D1*
X-4590990Y-1264333D2*
X-4167950D1*
X-4056167D2*
X-3714493D1*
X-3609603D2*
X-3490707D1*
X-3378920D2*
X-3294747D1*
X-3182943D2*
X-3039063D1*
X-2930560D2*
X-2433927D1*
X-1646360D2*
X-784220D1*
X-549427D2*
X-259083D1*
X373423D2*
X832127D1*
X1246647D2*
X1276990D1*
X-4590990Y-1274000D2*
X-4180197D1*
X-4043920D2*
X-3730197D1*
X-3593920D2*
X-3504220D1*
X-3365423D2*
X-3294747D1*
X-3182943D2*
X-3054220D1*
X-2915423D2*
X-2417403D1*
X-1662903D2*
X-785607D1*
X-548040D2*
X-249417D1*
X373423D2*
X822460D1*
X1246647D2*
X1276990D1*
X-4590990Y-1283667D2*
X-4191663D1*
X-4032437D2*
X-3741663D1*
X-3582437D2*
X-3515393D1*
X-3354233D2*
X-3294747D1*
X-3182943D2*
X-3065393D1*
X-2904233D2*
X-786193D1*
X-547437D2*
X-239747D1*
X373423D2*
X812790D1*
X1246647D2*
X1276990D1*
X-4590990Y-1293333D2*
X-4200627D1*
X-4023490D2*
X-3750627D1*
X-3573490D2*
X-3524143D1*
X-3345483D2*
X-3294747D1*
X-3182943D2*
X-3074143D1*
X-2895483D2*
X-785997D1*
X-547650D2*
X-230080D1*
X373423D2*
X803123D1*
X1246647D2*
X1276990D1*
X-4590990Y-1303000D2*
X-4207757D1*
X-4016360D2*
X-3757757D1*
X-3566360D2*
X-3531117D1*
X-3338510D2*
X-3294747D1*
X-3182943D2*
X-3081117D1*
X-2888510D2*
X-785003D1*
X-548647D2*
X-220413D1*
X373423D2*
X793457D1*
X1246647D2*
X1276990D1*
X-4590990Y-1312667D2*
X-4213460D1*
X-4010657D2*
X-3763460D1*
X-3560657D2*
X-3536700D1*
X-3332923D2*
X-3294747D1*
X-3182943D2*
X-3086700D1*
X-2882923D2*
X-783187D1*
X-550463D2*
X-210353D1*
X373423D2*
X783883D1*
X1246647D2*
X1276990D1*
X-4590990Y-1322333D2*
X-4217970D1*
X-4006147D2*
X-3767970D1*
X-3556147D2*
X-3541097D1*
X-3328530D2*
X-3294747D1*
X-3182943D2*
X-3091097D1*
X-2878530D2*
X-780510D1*
X-553120D2*
X-192657D1*
X373423D2*
X776893D1*
X1246647D2*
X1276990D1*
X-4590990Y-1332000D2*
X-4221427D1*
X-4002690D2*
X-3771427D1*
X-3552690D2*
X-3544473D1*
X-3325150D2*
X-3294747D1*
X-3182943D2*
X-3094473D1*
X-2875150D2*
X-776937D1*
X-556713D2*
X134627D1*
X373423D2*
X772557D1*
X1246647D2*
X1276990D1*
X-4590990Y-1341667D2*
X-4223947D1*
X-4000170D2*
X-3773947D1*
X-3550170D2*
X-3546887D1*
X-3322730D2*
X-3294747D1*
X-3182943D2*
X-3096897D1*
X-2872730D2*
X-772347D1*
X-561303D2*
X134627D1*
X373423D2*
X770253D1*
X1246647D2*
X1276990D1*
X-4590990Y-1351333D2*
X-4225587D1*
X-3998530D2*
X-3775587D1*
X-3321167D2*
X-3294747D1*
X-3182943D2*
X-3098460D1*
X-2871167D2*
X-766583D1*
X-567043D2*
X134627D1*
X373423D2*
X769687D1*
X1246647D2*
X1276990D1*
X-4590990Y-1361000D2*
X-4226370D1*
X-3997747D2*
X-3776370D1*
X-3320463D2*
X-3294747D1*
X-3182943D2*
X-3099163D1*
X-2870463D2*
X-759473D1*
X-574173D2*
X134627D1*
X373423D2*
X769687D1*
X1246647D2*
X1276990D1*
X-4590990Y-1370667D2*
X-4226330D1*
X-3997787D2*
X-3776330D1*
X-3320580D2*
X-3294747D1*
X-3182943D2*
X-3099043D1*
X-2870580D2*
X-750627D1*
X-583020D2*
X134627D1*
X373423D2*
X769687D1*
X1246647D2*
X1276990D1*
X-4590990Y-1380333D2*
X-4225470D1*
X-3998647D2*
X-3775470D1*
X-3321537D2*
X-3294747D1*
X-3182943D2*
X-3098087D1*
X-2871537D2*
X-739417D1*
X-594213D2*
X134627D1*
X373423D2*
X769687D1*
X1246647D2*
X1276990D1*
X-4590990Y-1390000D2*
X-4223753D1*
X-4000367D2*
X-3773753D1*
X-3550367D2*
X-3546310D1*
X-3323333D2*
X-3294747D1*
X-3182943D2*
X-3096290D1*
X-2873333D2*
X-724473D1*
X-609153D2*
X769687D1*
X1246647D2*
X1276990D1*
X-4590990Y-1399667D2*
X-4221153D1*
X-4002963D2*
X-3771153D1*
X-3552963D2*
X-3543617D1*
X-3326030D2*
X-3294747D1*
X-3173550D2*
X-3093617D1*
X-2876030D2*
X-701097D1*
X-632553D2*
X769687D1*
X1246647D2*
X1276990D1*
X-4590990Y-1409333D2*
X-4217600D1*
X-4006517D2*
X-3767600D1*
X-3556517D2*
X-3539943D1*
X-3329680D2*
X-3294747D1*
X-3163880D2*
X-3089943D1*
X-2879680D2*
X224060D1*
X284010D2*
X769687D1*
X1246647D2*
X1276990D1*
X-4590990Y-1419000D2*
X-4212990D1*
X-4011127D2*
X-3762990D1*
X-3561127D2*
X-3535237D1*
X-3334390D2*
X-3294417D1*
X-3154233D2*
X-3085237D1*
X-2884390D2*
X198573D1*
X309480D2*
X769687D1*
X1246313D2*
X1276990D1*
X-4590990Y-1428667D2*
X-4207170D1*
X-4016947D2*
X-3757170D1*
X-3566947D2*
X-3529280D1*
X-3340347D2*
X-3292463D1*
X-3144563D2*
X-3079280D1*
X-2890347D2*
X-786213D1*
X-547417D2*
X182987D1*
X325063D2*
X769687D1*
X1244380D2*
X1276990D1*
X-4590990Y-1438333D2*
X-4199883D1*
X-4024233D2*
X-3749883D1*
X-3574233D2*
X-3521837D1*
X-3347787D2*
X-3288557D1*
X-3134897D2*
X-3071837D1*
X-2897787D2*
X-786213D1*
X-547417D2*
X171443D1*
X336607D2*
X769687D1*
X1240473D2*
X1276990D1*
X-4590990Y-1448000D2*
X-4190743D1*
X-4033373D2*
X-3740743D1*
X-3583373D2*
X-3512483D1*
X-3357143D2*
X-3282150D1*
X-3125230D2*
X-3062483D1*
X-2907143D2*
X-786213D1*
X-547417D2*
X162343D1*
X345710D2*
X769687D1*
X1234070D2*
X1276990D1*
X-4590990Y-1457667D2*
X-4178967D1*
X-4045130D2*
X-3728967D1*
X-3595130D2*
X-3500393D1*
X-3369233D2*
X-3272833D1*
X-3115560D2*
X-3050393D1*
X-2919233D2*
X-786213D1*
X-547417D2*
X155037D1*
X353013D2*
X769687D1*
X1224753D2*
X1276990D1*
X-4590990Y-1467333D2*
X-4162737D1*
X-4061380D2*
X-3712737D1*
X-3611380D2*
X-3483497D1*
X-3386127D2*
X-3263167D1*
X-3105893D2*
X-3033497D1*
X-2936127D2*
X-786213D1*
X-547417D2*
X149140D1*
X358913D2*
X769687D1*
X1215083D2*
X1276990D1*
X-4590990Y-1477000D2*
X-4133147D1*
X-4090970D2*
X-3683147D1*
X-3640970D2*
X-3449670D1*
X-3419957D2*
X-3253497D1*
X-547417D2*
X144413D1*
X363640D2*
X769687D1*
X1205417D2*
X1276990D1*
X-4590990Y-1486667D2*
X-3243830D1*
X-547417D2*
X140720D1*
X367350D2*
X769687D1*
X1195747D2*
X1276990D1*
X-4590990Y-1496333D2*
X-3234163D1*
X-547417D2*
X137927D1*
X370123D2*
X769823D1*
X1186080D2*
X1276990D1*
X-4590990Y-1506000D2*
X-3224493D1*
X-547417D2*
X136033D1*
X372037D2*
X771403D1*
X1176413D2*
X1276990D1*
X-4590990Y-1515667D2*
X-3214847D1*
X-547417D2*
X134940D1*
X373130D2*
X774860D1*
X1166743D2*
X1276990D1*
X-4590990Y-1525333D2*
X-3205177D1*
X-547417D2*
X134627D1*
X373423D2*
X780663D1*
X1157077D2*
X1276990D1*
X-4590990Y-1535000D2*
X-3195510D1*
X-547417D2*
X135133D1*
X372937D2*
X789550D1*
X1147407D2*
X1276990D1*
X-4590990Y-1544667D2*
X-3185843D1*
X-547417D2*
X136423D1*
X371627D2*
X799197D1*
X1137740D2*
X1276990D1*
X-4590990Y-1554333D2*
X-3176173D1*
X-547417D2*
X138553D1*
X369517D2*
X808867D1*
X1128073D2*
X1276990D1*
X-4590990Y-1564000D2*
X-3166467D1*
X-547417D2*
X141540D1*
X366510D2*
X818533D1*
X1118423D2*
X1276990D1*
X-4590990Y-1573667D2*
X-3152423D1*
X-547417D2*
X145487D1*
X362563D2*
X828200D1*
X1108757D2*
X1276990D1*
X-4590990Y-1583333D2*
X-786213D1*
X-547417D2*
X150487D1*
X357563D2*
X838457D1*
X1098503D2*
X1276990D1*
X-4590990Y-1593000D2*
X-786213D1*
X-547417D2*
X156717D1*
X351333D2*
X857770D1*
X1079187D2*
X1276990D1*
X-4590990Y-1602667D2*
X-786213D1*
X-547417D2*
X164413D1*
X343640D2*
X1276990D1*
X-4590990Y-1612333D2*
X-786213D1*
X-547417D2*
X174040D1*
X334010D2*
X1276990D1*
X-4590990Y-1622000D2*
X-786213D1*
X-547417D2*
X186383D1*
X321667D2*
X1276990D1*
X-4590990Y-1631667D2*
X-786213D1*
X-547417D2*
X203473D1*
X304577D2*
X1276990D1*
X-4590990Y-1641333D2*
X-786213D1*
X-547417D2*
X236210D1*
X271843D2*
X1276990D1*
X-4590990Y-1651000D2*
X-786213D1*
X-547417D2*
X1276990D1*
X-4590990Y-1660667D2*
X1276990D1*
X372423Y-1525133D2*
X372083Y-1533123D1*
X371207Y-1541073D1*
X369797Y-1548947D1*
X367857Y-1556707D1*
X365400Y-1564320D1*
X362430Y-1571747D1*
X358970Y-1578957D1*
X355027Y-1585917D1*
X350627Y-1592597D1*
X345783Y-1598960D1*
X340523Y-1604987D1*
X334867Y-1610640D1*
X328840Y-1615900D1*
X322473Y-1620743D1*
X315797Y-1625143D1*
X308833Y-1629083D1*
X301623Y-1632543D1*
X294197Y-1635510D1*
X286583Y-1637970D1*
X278823Y-1639907D1*
X270950Y-1641317D1*
X263000Y-1642193D1*
X255010Y-1642530D1*
X247013Y-1642327D1*
X239050Y-1641583D1*
X231153Y-1640303D1*
X223363Y-1638493D1*
X215710Y-1636163D1*
X208233Y-1633320D1*
X200967Y-1629980D1*
X193943Y-1626157D1*
X187190Y-1621867D1*
X180747Y-1617130D1*
X174633Y-1611970D1*
X168883Y-1606410D1*
X163523Y-1600473D1*
X158577Y-1594190D1*
X154063Y-1587583D1*
X150007Y-1580690D1*
X146427Y-1573540D1*
X143337Y-1566160D1*
X140753Y-1558593D1*
X138683Y-1550867D1*
X137143Y-1543017D1*
X136133Y-1535083D1*
X135663Y-1527097D1*
X135733Y-1519100D1*
X136343Y-1511123D1*
X137490Y-1503210D1*
X139170Y-1495387D1*
X141373Y-1487700D1*
X144090Y-1480177D1*
X147307Y-1472853D1*
X151013Y-1465767D1*
X155190Y-1458943D1*
X159817Y-1452420D1*
X164873Y-1446223D1*
X170337Y-1440380D1*
X176183Y-1434920D1*
X182383Y-1429870D1*
X188910Y-1425247D1*
X195737Y-1421077D1*
X202827Y-1417377D1*
X210150Y-1414163D1*
X217677Y-1411450D1*
X225367Y-1409253D1*
X233190Y-1407580D1*
X241107Y-1406440D1*
X249080Y-1405837D1*
X257080Y-1405773D1*
X265063Y-1406250D1*
X272997Y-1407263D1*
X280847Y-1408810D1*
X288570Y-1410883D1*
X296137Y-1413477D1*
X303513Y-1416570D1*
X310663Y-1420157D1*
X317553Y-1424217D1*
X324153Y-1428737D1*
X330433Y-1433687D1*
X336367Y-1439053D1*
X341923Y-1444807D1*
X347077Y-1450920D1*
X351810Y-1457370D1*
X356093Y-1464127D1*
X359913Y-1471153D1*
X363247Y-1478423D1*
X366083Y-1485903D1*
X368410Y-1493553D1*
X370213Y-1501347D1*
X371487Y-1509243D1*
X372223Y-1517207D1*
X372423Y-1525133D1*
X-548423Y-1287037D2*
X-548763Y-1295027D1*
X-549640Y-1302977D1*
X-551050Y-1310850D1*
X-552990Y-1318610D1*
X-555447Y-1326223D1*
X-558417Y-1333650D1*
X-561877Y-1340860D1*
X-565820Y-1347820D1*
X-570220Y-1354500D1*
X-575063Y-1360863D1*
X-580323Y-1366890D1*
X-585980Y-1372543D1*
X-592007Y-1377803D1*
X-598373Y-1382647D1*
X-605050Y-1387047D1*
X-612013Y-1390987D1*
X-619223Y-1394447D1*
X-626650Y-1397413D1*
X-634263Y-1399873D1*
X-642023Y-1401810D1*
X-649897Y-1403220D1*
X-657847Y-1404097D1*
X-665837Y-1404433D1*
X-673833Y-1404230D1*
X-681797Y-1403487D1*
X-689693Y-1402207D1*
X-697483Y-1400397D1*
X-705137Y-1398067D1*
X-712613Y-1395223D1*
X-719880Y-1391883D1*
X-726903Y-1388060D1*
X-733657Y-1383770D1*
X-740100Y-1379033D1*
X-746213Y-1373873D1*
X-751963Y-1368313D1*
X-757323Y-1362377D1*
X-762270Y-1356093D1*
X-766783Y-1349487D1*
X-770840Y-1342593D1*
X-774420Y-1335443D1*
X-777510Y-1328063D1*
X-780093Y-1320497D1*
X-782163Y-1312770D1*
X-783703Y-1304920D1*
X-784713Y-1296987D1*
X-785183Y-1289000D1*
X-785113Y-1281003D1*
X-784503Y-1273027D1*
X-783357Y-1265113D1*
X-781677Y-1257290D1*
X-779473Y-1249603D1*
X-776757Y-1242080D1*
X-773540Y-1234757D1*
X-769833Y-1227670D1*
X-765657Y-1220847D1*
X-761030Y-1214323D1*
X-755973Y-1208127D1*
X-750510Y-1202283D1*
X-744663Y-1196823D1*
X-738463Y-1191773D1*
X-731937Y-1187150D1*
X-725110Y-1182980D1*
X-718020Y-1179280D1*
X-710697Y-1176067D1*
X-703170Y-1173353D1*
X-695480Y-1171157D1*
X-687657Y-1169483D1*
X-679740Y-1168343D1*
X-671767Y-1167740D1*
X-663767Y-1167677D1*
X-655783Y-1168153D1*
X-647850Y-1169167D1*
X-640000Y-1170713D1*
X-632277Y-1172787D1*
X-624710Y-1175380D1*
X-617333Y-1178473D1*
X-610183Y-1182060D1*
X-603293Y-1186120D1*
X-596693Y-1190640D1*
X-590413Y-1195590D1*
X-584480Y-1200957D1*
X-578923Y-1206710D1*
X-573770Y-1212823D1*
X-569037Y-1219273D1*
X-564753Y-1226030D1*
X-560933Y-1233057D1*
X-557600Y-1240327D1*
X-554763Y-1247807D1*
X-552437Y-1255457D1*
X-550633Y-1263250D1*
X-549360Y-1271147D1*
X-548623Y-1279110D1*
X-548423Y-1287037D1*
X967467Y350523D2*
X966970Y345550D1*
X966147Y340620D1*
X964997Y335753D1*
X963527Y330977D1*
X961743Y326307D1*
X959653Y321763D1*
X957270Y317370D1*
X954600Y313143D1*
X951653Y309103D1*
X948447Y305270D1*
X944993Y301653D1*
X941310Y298277D1*
X937407Y295150D1*
X933307Y292290D1*
X929027Y289707D1*
X924587Y287413D1*
X920003Y285420D1*
X915297Y283733D1*
X910487Y282363D1*
X905600Y281313D1*
X900653Y280590D1*
X895670Y280200D1*
X890670Y280137D1*
X885680Y280407D1*
X880717Y281003D1*
X875803Y281930D1*
X870963Y283183D1*
X866217Y284750D1*
X861587Y286630D1*
X857087Y288813D1*
X852743Y291287D1*
X848573Y294047D1*
X844597Y297073D1*
X840830Y300360D1*
X837287Y303887D1*
X833987Y307640D1*
X830940Y311607D1*
X828167Y315763D1*
X825673Y320097D1*
X823470Y324583D1*
X821573Y329210D1*
X819983Y333950D1*
X818713Y338783D1*
X817767Y343693D1*
X817147Y348653D1*
X816857Y353643D1*
X816897Y358643D1*
X817270Y363627D1*
X817973Y368577D1*
X819000Y373470D1*
X820350Y378283D1*
X822017Y382997D1*
X823993Y387590D1*
X826267Y392040D1*
X828833Y396330D1*
X831677Y400443D1*
X834787Y404357D1*
X838150Y408057D1*
X841750Y411523D1*
X845570Y414747D1*
X849597Y417710D1*
X853813Y420397D1*
X858197Y422800D1*
X862730Y424907D1*
X867393Y426710D1*
X872163Y428200D1*
X877023Y429370D1*
X881950Y430217D1*
X886923Y430733D1*
X891920Y430920D1*
X896917Y430773D1*
X901893Y430300D1*
X906827Y429493D1*
X911697Y428363D1*
X916480Y426913D1*
X921157Y425150D1*
X925710Y423080D1*
X930113Y420713D1*
X934350Y418060D1*
X938400Y415133D1*
X942250Y411943D1*
X945877Y408503D1*
X949270Y404833D1*
X952413Y400947D1*
X955290Y396857D1*
X957893Y392590D1*
X960203Y388157D1*
X962217Y383580D1*
X963923Y378880D1*
X965313Y374080D1*
X966383Y369197D1*
X967127Y364253D1*
X967633Y355520D1*
X967467Y350523D1*
X311067Y1485137D2*
Y1313573D1*
X357847Y1266793D1*
X360773Y1263627D1*
X363443Y1260243D1*
X365837Y1256660D1*
X367943Y1252897D1*
X369747Y1248983D1*
X371240Y1244940D1*
X372413Y1240773D1*
X375627Y1239767D1*
X459123D1*
X459127Y1328360D1*
X459297Y1332667D1*
X459803Y1336947D1*
X460643Y1341177D1*
X461813Y1345327D1*
X463307Y1349370D1*
X465110Y1353283D1*
X467217Y1357047D1*
X469610Y1360630D1*
X472280Y1364013D1*
X478743Y1370717D1*
X523613Y1415587D1*
X523600Y1486430D1*
X488153Y1486433D1*
X482730Y1485513D1*
X477853Y1485160D1*
X311087Y1485137D1*
X164273Y1355933D2*
X164267Y1384430D1*
X-220870Y1384433D1*
X-357893Y1247393D1*
Y254027D1*
X-358063Y249720D1*
X-358570Y245440D1*
X-359410Y241210D1*
X-360580Y237060D1*
X-362073Y233017D1*
X-363877Y229103D1*
X-365983Y225340D1*
X-368377Y221757D1*
X-371047Y218373D1*
X-377510Y211670D1*
X-485110Y104070D1*
X-488277Y101143D1*
X-491660Y98473D1*
X-495243Y96080D1*
X-499007Y93973D1*
X-502920Y92170D1*
X-506963Y90677D1*
X-511113Y89507D1*
X-515343Y88667D1*
X-519623Y88160D1*
X-528930Y87990D1*
X-602583D1*
X-602580Y-11457D1*
X-470140Y-11460D1*
X-340670Y118010D1*
X-340680Y333410D1*
X-340510Y337717D1*
X-340003Y341997D1*
X-339163Y346227D1*
X-337993Y350377D1*
X-336500Y354420D1*
X-334697Y358333D1*
X-332590Y362097D1*
X-330197Y365680D1*
X-327527Y369063D1*
X-321063Y375767D1*
X-134080Y562750D1*
X-130913Y565677D1*
X-127530Y568347D1*
X-123947Y570740D1*
X-120183Y572847D1*
X-116270Y574650D1*
X-112227Y576143D1*
X-108077Y577313D1*
X-103847Y578153D1*
X-99567Y578660D1*
X-90260Y578830D1*
X-70320D1*
X-66700Y583157D1*
X-63277Y586800D1*
X-59657Y590247D1*
X-53370Y595360D1*
X-59313Y600197D1*
X-62953Y603623D1*
X-66393Y607250D1*
X-69627Y611063D1*
X-72640Y615053D1*
X-75427Y619203D1*
X-77977Y623503D1*
X-80280Y627940D1*
X-82333Y632500D1*
X-84127Y637167D1*
X-85657Y641927D1*
X-86917Y646763D1*
X-87903Y651663D1*
X-88613Y656613D1*
X-89047Y661593D1*
X-89200Y666590D1*
X-89073Y671587D1*
X-88667Y676570D1*
X-87980Y681523D1*
X-87017Y686430D1*
X-85783Y691273D1*
X-84277Y696040D1*
X-82510Y700717D1*
X-80480Y705287D1*
X-78200Y709733D1*
X-75673Y714047D1*
X-72907Y718213D1*
X-69913Y722217D1*
X-66700Y726047D1*
X-63277Y729690D1*
X-59657Y733137D1*
X-54897Y737093D1*
X-54730Y750510D1*
X-54223Y754790D1*
X-53383Y759020D1*
X-52213Y763170D1*
X-50720Y767213D1*
X-48917Y771127D1*
X-46810Y774890D1*
X-44417Y778473D1*
X-41747Y781857D1*
X-35283Y788560D1*
X-33367Y790480D1*
X-38570Y792787D1*
X-43013Y795073D1*
X-47327Y797607D1*
X-51487Y800377D1*
X-55487Y803373D1*
X-59313Y806593D1*
X-62953Y810020D1*
X-66393Y813647D1*
X-69627Y817460D1*
X-72640Y821450D1*
X-75427Y825600D1*
X-77977Y829900D1*
X-80280Y834337D1*
X-82333Y838897D1*
X-84127Y843563D1*
X-85657Y848323D1*
X-86917Y853160D1*
X-87903Y858060D1*
X-88613Y863010D1*
X-89047Y867990D1*
X-89200Y872987D1*
X-89073Y877983D1*
X-88667Y882967D1*
X-87980Y887920D1*
X-87017Y892827D1*
X-85783Y897670D1*
X-84277Y902437D1*
X-82510Y907113D1*
X-80480Y911683D1*
X-78200Y916130D1*
X-75673Y920443D1*
X-72907Y924610D1*
X-69913Y928613D1*
X-66700Y932443D1*
X-63277Y936087D1*
X-59657Y939533D1*
X-55847Y942770D1*
X-51863Y945790D1*
X-47713Y948583D1*
X-43417Y951137D1*
X-38983Y953447D1*
X-34427Y955507D1*
X-29763Y957303D1*
X-25007Y958840D1*
X-20170Y960107D1*
X-15270Y961100D1*
X-10323Y961817D1*
X-5343Y962257D1*
X-347Y962417D1*
X4653Y962297D1*
X9637Y961893D1*
X14590Y961217D1*
X19497Y960260D1*
X24343Y959030D1*
X29110Y957533D1*
X33790Y955770D1*
X38360Y953747D1*
X42813Y951470D1*
X47130Y948950D1*
X51300Y946190D1*
X55307Y943200D1*
X59140Y939993D1*
X62790Y936573D1*
X66240Y932957D1*
X70273Y928110D1*
X263027Y928117D1*
X317877Y982953D1*
X195627Y982967D1*
Y1225930D1*
X164267Y1225933D1*
Y1355953D1*
X498160Y177487D2*
Y249907D1*
X495837Y245697D1*
X493443Y242113D1*
X490773Y238730D1*
X484310Y232027D1*
X403983Y151700D1*
X400817Y148773D1*
X397433Y146103D1*
X393850Y143710D1*
X390087Y141603D1*
X386173Y139800D1*
X382130Y138307D1*
X377980Y137137D1*
X373750Y136297D1*
X369470Y135790D1*
X360163Y135620D1*
X324323D1*
X320573Y131123D1*
X317140Y127487D1*
X313510Y124050D1*
X309693Y120820D1*
X303577Y116390D1*
X482317Y116400D1*
X481800Y125770D1*
X481927Y130767D1*
X482333Y135750D1*
X483020Y140703D1*
X483983Y145610D1*
X485217Y150453D1*
X486723Y155220D1*
X488490Y159897D1*
X490520Y164467D1*
X492800Y168913D1*
X495327Y173227D1*
X498150Y177470D1*
X46583Y228257D2*
X-83400D1*
Y365267D1*
X-85657Y372023D1*
X-86917Y376860D1*
X-87903Y381760D1*
X-88613Y386710D1*
X-89047Y391690D1*
X-89200Y396687D1*
X-89073Y401683D1*
X-88667Y406667D1*
X-87980Y411620D1*
X-87017Y416527D1*
X-85783Y421370D1*
X-84277Y426137D1*
X-82510Y430813D1*
X-80480Y435383D1*
X-78200Y439830D1*
X-75673Y444143D1*
X-72907Y448310D1*
X-69913Y452313D1*
X-66700Y456143D1*
X-62613Y460420D1*
X-66393Y464360D1*
X-70273Y469030D1*
X-74117Y467433D1*
X-230883Y310667D1*
X-230880Y95260D1*
X-231050Y90953D1*
X-231557Y86673D1*
X-232397Y82443D1*
X-233567Y78293D1*
X-235060Y74250D1*
X-236863Y70337D1*
X-238970Y66573D1*
X-241363Y62990D1*
X-244033Y59607D1*
X-250497Y52903D1*
X-314867Y-11467D1*
X224613Y-11460D1*
X224600Y106300D1*
X220023Y108057D1*
X215457Y110090D1*
X211013Y112377D1*
X206700Y114910D1*
X202540Y117680D1*
X198540Y120677D1*
X194713Y123897D1*
X191073Y127323D1*
X187633Y130950D1*
X184400Y134763D1*
X181387Y138753D1*
X178600Y142903D1*
X176050Y147203D1*
X173747Y151640D1*
X171693Y156200D1*
X169900Y160867D1*
X168370Y165627D1*
X167110Y170463D1*
X166123Y175363D1*
X165413Y180313D1*
X164980Y185293D1*
X164827Y190290D1*
X164953Y195287D1*
X165360Y200270D1*
X166047Y205223D1*
X167010Y210130D1*
X168243Y214973D1*
X169750Y219740D1*
X171517Y224417D1*
X173220Y228253D1*
X46600Y228277D1*
X86463Y375057D2*
X213400D1*
Y356560D1*
X247167Y356557D1*
X293577Y402970D1*
X195627Y402967D1*
Y469040D1*
X70320Y469030D1*
X66547Y464533D1*
X62617Y460427D1*
X66240Y456657D1*
X69483Y452853D1*
X72507Y448873D1*
X75303Y444727D1*
X77863Y440433D1*
X80180Y436003D1*
X82243Y431450D1*
X84050Y426787D1*
X85590Y422033D1*
X86863Y417197D1*
X87863Y412300D1*
X88587Y407353D1*
X89033Y402373D1*
X89200Y396917D1*
X89060Y391920D1*
X88640Y386937D1*
X87943Y381987D1*
X86447Y375060D1*
X-2720780Y49893D2*
X-2690430D1*
X-2690427Y63507D1*
X-2690257Y67813D1*
X-2689750Y72093D1*
X-2688910Y76323D1*
X-2687740Y80473D1*
X-2686247Y84517D1*
X-2684443Y88430D1*
X-2682337Y92193D1*
X-2679943Y95777D1*
X-2677273Y99160D1*
X-2670810Y105863D1*
X-2604213Y172460D1*
X-2601047Y175387D1*
X-2597663Y178057D1*
X-2594080Y180450D1*
X-2590317Y182557D1*
X-2586403Y184360D1*
X-2582360Y185853D1*
X-2578210Y187023D1*
X-2573980Y187863D1*
X-2569700Y188370D1*
X-2560393Y188540D1*
X-2329397D1*
X-2329380Y484907D1*
X-2501660D1*
X-2580630Y405927D1*
X-2580627Y387830D1*
X-2576387Y384310D1*
X-2572737Y380890D1*
X-2569287Y377273D1*
X-2566043Y373470D1*
X-2563020Y369490D1*
X-2560223Y365343D1*
X-2557663Y361050D1*
X-2555347Y356620D1*
X-2553283Y352067D1*
X-2551477Y347403D1*
X-2549937Y342650D1*
X-2548663Y337813D1*
X-2547663Y332917D1*
X-2546940Y327970D1*
X-2546493Y322990D1*
X-2546327Y317533D1*
X-2546467Y312537D1*
X-2546887Y307553D1*
X-2547583Y302603D1*
X-2548560Y297700D1*
X-2549807Y292860D1*
X-2551323Y288097D1*
X-2553107Y283423D1*
X-2555147Y278860D1*
X-2557440Y274417D1*
X-2559977Y270110D1*
X-2562753Y265953D1*
X-2565757Y261957D1*
X-2568980Y258137D1*
X-2572413Y254500D1*
X-2576043Y251063D1*
X-2580623Y247260D1*
X-2580627Y224473D1*
X-2580797Y220167D1*
X-2581303Y215887D1*
X-2582143Y211657D1*
X-2583313Y207507D1*
X-2584807Y203463D1*
X-2586610Y199550D1*
X-2588717Y195787D1*
X-2591110Y192203D1*
X-2593780Y188820D1*
X-2600243Y182117D1*
X-2721460Y60900D1*
X-2720967Y55457D1*
X-2720803Y49903D1*
X89060Y661823D2*
X88640Y656840D1*
X87943Y651890D1*
X86967Y646987D1*
X85720Y642147D1*
X84203Y637383D1*
X82420Y632710D1*
X80380Y628147D1*
X78087Y623703D1*
X75550Y619397D1*
X72773Y615240D1*
X69770Y611243D1*
X66547Y607423D1*
X63113Y603787D1*
X59483Y600350D1*
X53373Y595393D1*
X59140Y590707D1*
X62790Y587287D1*
X66240Y583670D1*
X70273Y578823D1*
X195643Y578830D1*
X195627Y659767D1*
X199827D1*
X200643Y663760D1*
X201813Y667910D1*
X203307Y671953D1*
X205110Y675867D1*
X207217Y679630D1*
X209610Y683213D1*
X212280Y686597D1*
X218743Y693300D1*
X280240Y754797D1*
X86253Y754810D1*
X62207Y730770D1*
X66240Y726560D1*
X69483Y722757D1*
X72507Y718777D1*
X75303Y714630D1*
X77863Y710337D1*
X80180Y705907D1*
X82243Y701353D1*
X84050Y696690D1*
X85590Y691937D1*
X86863Y687100D1*
X87863Y682203D1*
X88587Y677257D1*
X89033Y672277D1*
X89200Y666820D1*
X89060Y661823D1*
X-2609973Y-655940D2*
X-2610393Y-660923D1*
X-2611090Y-665873D1*
X-2612067Y-670777D1*
X-2613313Y-675617D1*
X-2614830Y-680380D1*
X-2616613Y-685053D1*
X-2618653Y-689617D1*
X-2620947Y-694060D1*
X-2623483Y-698367D1*
X-2626260Y-702523D1*
X-2629263Y-706520D1*
X-2632487Y-710340D1*
X-2635920Y-713977D1*
X-2639550Y-717413D1*
X-2643367Y-720643D1*
X-2647360Y-723650D1*
X-2651513Y-726433D1*
X-2655817Y-728977D1*
X-2660257Y-731273D1*
X-2664817Y-733320D1*
X-2669487Y-735107D1*
X-2674250Y-736630D1*
X-2679090Y-737883D1*
X-2683990Y-738867D1*
X-2688940Y-739570D1*
X-2693920Y-739997D1*
X-2698917Y-740143D1*
X-2703917Y-740010D1*
X-2708897Y-739597D1*
X-2713850Y-738903D1*
X-2718753Y-737937D1*
X-2723597Y-736693D1*
X-2728363Y-735183D1*
X-2733037Y-733407D1*
X-2737603Y-731373D1*
X-2742047Y-729087D1*
X-2746360Y-726553D1*
X-2750520Y-723783D1*
X-2754520Y-720787D1*
X-2758347Y-717567D1*
X-2761987Y-714140D1*
X-2765427Y-710513D1*
X-2768660Y-706700D1*
X-2771673Y-702710D1*
X-2774460Y-698560D1*
X-2777010Y-694260D1*
X-2779313Y-689823D1*
X-2781367Y-685263D1*
X-2783160Y-680597D1*
X-2784690Y-675837D1*
X-2785950Y-671000D1*
X-2786937Y-666100D1*
X-2787647Y-661150D1*
X-2788080Y-656170D1*
X-2788233Y-651173D1*
X-2788107Y-646177D1*
X-2787700Y-641193D1*
X-2787013Y-636240D1*
X-2786050Y-631333D1*
X-2784817Y-626490D1*
X-2783310Y-621723D1*
X-2781543Y-617047D1*
X-2779513Y-612477D1*
X-2777233Y-608030D1*
X-2774707Y-603717D1*
X-2771940Y-599550D1*
X-2768947Y-595547D1*
X-2765733Y-591717D1*
X-2762310Y-588073D1*
X-2758690Y-584627D1*
X-2753930Y-580670D1*
X-2763457Y-580447D1*
X-2800257D1*
Y-308647D1*
X-2613457D1*
Y-580447D1*
X-2644140D1*
X-2639893Y-584167D1*
X-2636243Y-587587D1*
X-2632793Y-591203D1*
X-2629550Y-595007D1*
X-2626527Y-598987D1*
X-2623730Y-603133D1*
X-2621170Y-607427D1*
X-2618853Y-611857D1*
X-2616790Y-616410D1*
X-2614983Y-621073D1*
X-2613443Y-625827D1*
X-2612170Y-630663D1*
X-2611170Y-635560D1*
X-2610447Y-640507D1*
X-2610000Y-645487D1*
X-2609833Y-650943D1*
X-2609973Y-655940D1*
X-2137640Y-753463D2*
X-2136583Y-754817D1*
X-2134160Y-753473D1*
X-2137617D1*
X-2131857Y-754810D1*
X-1587667D1*
X-1583360Y-754980D1*
X-1579080Y-755487D1*
X-1574850Y-756327D1*
X-1570700Y-757497D1*
X-1566657Y-758990D1*
X-1562743Y-760793D1*
X-1558980Y-762900D1*
X-1555397Y-765293D1*
X-1552013Y-767963D1*
X-1545310Y-774427D1*
X-1453587Y-866150D1*
X-1450660Y-869317D1*
X-1447990Y-872700D1*
X-1445597Y-876283D1*
X-1443490Y-880047D1*
X-1441687Y-883960D1*
X-1440193Y-888003D1*
X-1439023Y-892153D1*
X-1438183Y-896383D1*
X-1437677Y-900663D1*
X-1437507Y-909970D1*
X-1437497Y-922020D1*
X-1436533Y-917113D1*
X-1435300Y-912270D1*
X-1433793Y-907503D1*
X-1432027Y-902827D1*
X-1429997Y-898257D1*
X-1427717Y-893810D1*
X-1425190Y-889497D1*
X-1422423Y-885330D1*
X-1419267Y-881133D1*
X-1546897Y-753477D1*
X-2134160Y-753473D1*
X-1562113Y-989350D2*
X-1562533Y-994333D1*
X-1563230Y-999283D1*
X-1564207Y-1004187D1*
X-1565453Y-1009027D1*
X-1566970Y-1013790D1*
X-1568753Y-1018463D1*
X-1570793Y-1023027D1*
X-1573087Y-1027470D1*
X-1575623Y-1031777D1*
X-1578400Y-1035933D1*
X-1581403Y-1039930D1*
X-1584627Y-1043750D1*
X-1588060Y-1047387D1*
X-1591690Y-1050823D1*
X-1596270Y-1054627D1*
X-1596273Y-1190750D1*
X-1596443Y-1195057D1*
X-1596950Y-1199337D1*
X-1597790Y-1203567D1*
X-1598960Y-1207717D1*
X-1600453Y-1211760D1*
X-1602257Y-1215673D1*
X-1604363Y-1219437D1*
X-1606757Y-1223020D1*
X-1609427Y-1226403D1*
X-1615890Y-1233107D1*
X-1644107Y-1261323D1*
X-1647273Y-1264250D1*
X-1650657Y-1266920D1*
X-1654240Y-1269313D1*
X-1658003Y-1271420D1*
X-1661917Y-1273223D1*
X-1665960Y-1274717D1*
X-1670110Y-1275887D1*
X-1674340Y-1276727D1*
X-1678620Y-1277233D1*
X-1687927Y-1277403D1*
X-2397377D1*
X-2401683Y-1277233D1*
X-2405963Y-1276727D1*
X-2410193Y-1275887D1*
X-2414343Y-1274717D1*
X-2418387Y-1273223D1*
X-2422300Y-1271420D1*
X-2426063Y-1269313D1*
X-2429647Y-1266920D1*
X-2433030Y-1264250D1*
X-2439733Y-1257787D1*
X-2499703Y-1197817D1*
X-2502630Y-1194650D1*
X-2505300Y-1191267D1*
X-2507693Y-1187683D1*
X-2509800Y-1183920D1*
X-2511603Y-1180007D1*
X-2513097Y-1175963D1*
X-2514267Y-1171813D1*
X-2515107Y-1167583D1*
X-2515613Y-1163303D1*
X-2515783Y-1153997D1*
Y-1145460D1*
X-2550257Y-1145447D1*
Y-873647D1*
X-2363457D1*
Y-1145447D1*
X-2396797D1*
X-2374623Y-1167617D1*
X-1706067Y-1167603D1*
X-1706073Y-1054677D1*
X-1710487Y-1050977D1*
X-1714127Y-1047550D1*
X-1717567Y-1043923D1*
X-1720800Y-1040110D1*
X-1723813Y-1036120D1*
X-1726600Y-1031970D1*
X-1729150Y-1027670D1*
X-1731453Y-1023233D1*
X-1733507Y-1018673D1*
X-1735300Y-1014007D1*
X-1736830Y-1009247D1*
X-1738090Y-1004410D1*
X-1739077Y-999510D1*
X-1739787Y-994560D1*
X-1740220Y-989580D1*
X-1740373Y-984583D1*
X-1740247Y-979587D1*
X-1739840Y-974603D1*
X-1739153Y-969650D1*
X-1738190Y-964743D1*
X-1736957Y-959900D1*
X-1735450Y-955133D1*
X-1733683Y-950457D1*
X-1731653Y-945887D1*
X-1729373Y-941440D1*
X-1726847Y-937127D1*
X-1724080Y-932960D1*
X-1721087Y-928957D1*
X-1717873Y-925127D1*
X-1714450Y-921483D1*
X-1710830Y-918037D1*
X-1707020Y-914800D1*
X-1703037Y-911780D1*
X-1698887Y-908987D1*
X-1694590Y-906433D1*
X-1690157Y-904123D1*
X-1685600Y-902063D1*
X-1680937Y-900267D1*
X-1676180Y-898730D1*
X-1671343Y-897463D1*
X-1666443Y-896470D1*
X-1661497Y-895753D1*
X-1656517Y-895313D1*
X-1651520Y-895153D1*
X-1646520Y-895273D1*
X-1641537Y-895677D1*
X-1636583Y-896353D1*
X-1631677Y-897310D1*
X-1626830Y-898540D1*
X-1622063Y-900037D1*
X-1617383Y-901800D1*
X-1612813Y-903823D1*
X-1608360Y-906100D1*
X-1604043Y-908620D1*
X-1599873Y-911380D1*
X-1595867Y-914370D1*
X-1592033Y-917577D1*
X-1588383Y-920997D1*
X-1584933Y-924613D1*
X-1581690Y-928417D1*
X-1578667Y-932397D1*
X-1575870Y-936543D1*
X-1573310Y-940837D1*
X-1570993Y-945267D1*
X-1568930Y-949820D1*
X-1567123Y-954483D1*
X-1565583Y-959237D1*
X-1564310Y-964073D1*
X-1563310Y-968970D1*
X-1562587Y-973917D1*
X-1562140Y-978897D1*
X-1561973Y-984353D1*
X-1562113Y-989350D1*
X-3586853Y578830D2*
X-3591970Y579827D1*
X-3596813Y581070D1*
X-3601580Y582580D1*
X-3606253Y584357D1*
X-3610820Y586390D1*
X-3615263Y588677D1*
X-3619577Y591210D1*
X-3623737Y593980D1*
X-3627737Y596977D1*
X-3631563Y600197D1*
X-3635203Y603623D1*
X-3638643Y607250D1*
X-3641877Y611063D1*
X-3644890Y615053D1*
X-3647677Y619203D1*
X-3650227Y623503D1*
X-3652530Y627940D1*
X-3654583Y632500D1*
X-3656377Y637167D1*
X-3657907Y641927D1*
X-3659167Y646763D1*
X-3660153Y651663D1*
X-3660863Y656613D1*
X-3661297Y661593D1*
X-3661450Y666590D1*
X-3661323Y671587D1*
X-3660917Y676570D1*
X-3660230Y681523D1*
X-3659267Y686430D1*
X-3658033Y691273D1*
X-3656527Y696040D1*
X-3654760Y700717D1*
X-3652730Y705287D1*
X-3650450Y709733D1*
X-3647923Y714047D1*
X-3645157Y718213D1*
X-3642163Y722217D1*
X-3638950Y726047D1*
X-3635527Y729690D1*
X-3631907Y733137D1*
X-3627147Y737093D1*
X-3627150Y898090D1*
X-3753750Y1024703D1*
X-4025880Y1024713D1*
X-4029633Y1020217D1*
X-4033067Y1016580D1*
X-4036697Y1013143D1*
X-4041277Y1009340D1*
X-4041280Y635067D1*
X-4041450Y630760D1*
X-4041957Y626480D1*
X-4042797Y622250D1*
X-4043967Y618100D1*
X-4045460Y614057D1*
X-4047263Y610143D1*
X-4049370Y606380D1*
X-4051763Y602797D1*
X-4054433Y599413D1*
X-4060897Y592710D1*
X-4104330Y549277D1*
X-4097467Y548423D1*
X-4092560Y547467D1*
X-4087713Y546237D1*
X-4082947Y544740D1*
X-4078267Y542977D1*
X-4073697Y540953D1*
X-4069243Y538677D1*
X-4064927Y536157D1*
X-4060757Y533397D1*
X-4056750Y530407D1*
X-4052917Y527200D1*
X-4049267Y523780D1*
X-4045817Y520163D1*
X-4041783Y515317D1*
X-4037940Y516920D1*
X-3992110Y562750D1*
X-3988943Y565677D1*
X-3985560Y568347D1*
X-3981977Y570740D1*
X-3978213Y572847D1*
X-3974300Y574650D1*
X-3970257Y576143D1*
X-3966107Y577313D1*
X-3961877Y578153D1*
X-3957597Y578660D1*
X-3948290Y578830D1*
X-3586903D1*
X-602590Y396750D2*
X-599463Y399727D1*
X-595653Y402963D1*
X-591670Y405983D1*
X-587520Y408777D1*
X-583223Y411330D1*
X-578790Y413640D1*
X-574233Y415700D1*
X-569570Y417497D1*
X-564813Y419033D1*
X-559977Y420300D1*
X-555077Y421293D1*
X-550130Y422010D1*
X-545150Y422450D1*
X-540153Y422610D1*
X-535153Y422490D1*
X-530170Y422087D1*
X-525217Y421410D1*
X-520310Y420453D1*
X-515463Y419223D1*
X-510697Y417727D1*
X-506017Y415963D1*
X-501447Y413940D1*
X-496993Y411663D1*
X-492677Y409143D1*
X-488507Y406383D1*
X-484500Y403393D1*
X-480667Y400187D1*
X-477017Y396767D1*
X-473567Y393150D1*
X-470323Y389347D1*
X-467690Y385880D1*
X-467693Y518420D1*
X-485110Y500987D1*
X-488277Y498060D1*
X-491660Y495390D1*
X-495243Y492997D1*
X-499007Y490890D1*
X-502920Y489087D1*
X-506963Y487593D1*
X-511113Y486423D1*
X-515343Y485583D1*
X-519623Y485077D1*
X-528930Y484907D1*
X-602583D1*
X-602580Y396787D1*
X-2782257Y-886647D2*
X-2626457D1*
Y-1132447D1*
X-2787257D1*
Y-886647D1*
X-2782257D1*
X-2282257Y-321647D2*
X-2126457D1*
Y-567447D1*
X-2287257D1*
Y-321647D1*
X-2282257D1*
X-2329373Y820240D2*
X-2329380Y881820D1*
X-2565137Y881823D1*
X-2663000Y783980D1*
X-2659990Y784550D1*
X-2655710Y785057D1*
X-2646403Y785227D1*
X-2329380Y785240D1*
Y820260D1*
X-2871417Y-715450D2*
X-2871770Y-723440D1*
X-2872687Y-731387D1*
X-2874157Y-739247D1*
X-2876180Y-746987D1*
X-2878743Y-754563D1*
X-2881837Y-761940D1*
X-2885440Y-769080D1*
X-2889537Y-775950D1*
X-2894110Y-782510D1*
X-2899133Y-788737D1*
X-2904583Y-794590D1*
X-2910430Y-800047D1*
X-2916650Y-805077D1*
X-2923207Y-809657D1*
X-2930070Y-813763D1*
X-2937207Y-817373D1*
X-2944580Y-820473D1*
X-2952153Y-823047D1*
X-2959890Y-825077D1*
X-2967750Y-826560D1*
X-2975693Y-827483D1*
X-2983687Y-827843D1*
X-2991680Y-827643D1*
X-2999643Y-826877D1*
X-3007530Y-825550D1*
X-3015307Y-823673D1*
X-3022927Y-821253D1*
X-3030363Y-818300D1*
X-3037570Y-814830D1*
X-3044513Y-810863D1*
X-3051160Y-806417D1*
X-3057477Y-801510D1*
X-3063433Y-796170D1*
X-3069000Y-790427D1*
X-3074143Y-784303D1*
X-3078847Y-777833D1*
X-3083080Y-771047D1*
X-3086827Y-763980D1*
X-3090063Y-756667D1*
X-3092777Y-749140D1*
X-3094953Y-741443D1*
X-3096583Y-733613D1*
X-3097657Y-725687D1*
X-3098167Y-717707D1*
X-3098113Y-709707D1*
X-3097497Y-701733D1*
X-3096320Y-693823D1*
X-3094590Y-686013D1*
X-3092313Y-678347D1*
X-3089500Y-670860D1*
X-3086167Y-663587D1*
X-3082330Y-656570D1*
X-3078007Y-649840D1*
X-3073220Y-643433D1*
X-3067997Y-637377D1*
X-3062357Y-631707D1*
X-3056330Y-626447D1*
X-3049950Y-621623D1*
X-3043243Y-617263D1*
X-3036247Y-613387D1*
X-3028997Y-610010D1*
X-3021523Y-607157D1*
X-3013870Y-604837D1*
X-3006073Y-603060D1*
X-2998167Y-601840D1*
X-2990197Y-601177D1*
X-2982200Y-601080D1*
X-2974213Y-601547D1*
X-2966283Y-602573D1*
X-2958443Y-604160D1*
X-2950733Y-606293D1*
X-2943193Y-608963D1*
X-2935863Y-612160D1*
X-2928773Y-615863D1*
X-2921963Y-620060D1*
X-2915467Y-624723D1*
X-2909313Y-629837D1*
X-2903537Y-635367D1*
X-2898167Y-641293D1*
X-2893223Y-647583D1*
X-2888740Y-654207D1*
X-2884733Y-661127D1*
X-2881223Y-668313D1*
X-2878227Y-675730D1*
X-2875763Y-683340D1*
X-2873843Y-691103D1*
X-2872473Y-698987D1*
X-2871663Y-706943D1*
X-2871413Y-714450D1*
X-2871417Y-715450D1*
X-3998767Y-1370393D2*
X-3999647Y-1380350D1*
X-4001400Y-1390190D1*
X-4004017Y-1399840D1*
X-4007470Y-1409220D1*
X-4011733Y-1418263D1*
X-4016780Y-1426893D1*
X-4022567Y-1435043D1*
X-4029050Y-1442653D1*
X-4036177Y-1449663D1*
X-4043893Y-1456020D1*
X-4052140Y-1461670D1*
X-4060850Y-1466573D1*
X-4069960Y-1470690D1*
X-4079397Y-1473990D1*
X-4089090Y-1476443D1*
X-4098957Y-1478033D1*
X-4108930Y-1478750D1*
X-4118923Y-1478587D1*
X-4128867Y-1477540D1*
X-4138677Y-1475623D1*
X-4148283Y-1472850D1*
X-4157607Y-1469243D1*
X-4166573Y-1464830D1*
X-4175120Y-1459640D1*
X-4183173Y-1453720D1*
X-4190677Y-1447113D1*
X-4197570Y-1439873D1*
X-4203797Y-1432053D1*
X-4209310Y-1423713D1*
X-4214070Y-1414923D1*
X-4218033Y-1405747D1*
X-4221177Y-1396257D1*
X-4223470Y-1386527D1*
X-4224900Y-1376630D1*
X-4225450Y-1366650D1*
X-4225120Y-1356660D1*
X-4223910Y-1346737D1*
X-4221833Y-1336957D1*
X-4218903Y-1327400D1*
X-4215140Y-1318137D1*
X-4210580Y-1309243D1*
X-4205250Y-1300783D1*
X-4199200Y-1292827D1*
X-4192470Y-1285433D1*
X-4185113Y-1278663D1*
X-4177193Y-1272567D1*
X-4168763Y-1267190D1*
X-4166967Y-1266203D1*
X-4166957Y-814630D1*
X-4175120Y-809640D1*
X-4183173Y-803720D1*
X-4190677Y-797113D1*
X-4197570Y-789873D1*
X-4203797Y-782053D1*
X-4209310Y-773713D1*
X-4214070Y-764923D1*
X-4218033Y-755747D1*
X-4221177Y-746257D1*
X-4223470Y-736527D1*
X-4224900Y-726630D1*
X-4225450Y-716650D1*
X-4225120Y-706660D1*
X-4223910Y-696737D1*
X-4221833Y-686957D1*
X-4218903Y-677400D1*
X-4215140Y-668137D1*
X-4210580Y-659243D1*
X-4205250Y-650783D1*
X-4199200Y-642827D1*
X-4192470Y-635433D1*
X-4185113Y-628663D1*
X-4177193Y-622567D1*
X-4168763Y-617190D1*
X-4159897Y-612577D1*
X-4150653Y-608763D1*
X-4141113Y-605780D1*
X-4131347Y-603647D1*
X-4121430Y-602380D1*
X-4111440Y-601997D1*
X-4101457Y-602490D1*
X-4091553Y-603863D1*
X-4081813Y-606100D1*
X-4072303Y-609190D1*
X-4063107Y-613103D1*
X-4054287Y-617810D1*
X-4045917Y-623277D1*
X-4038063Y-629460D1*
X-4030780Y-636310D1*
X-4024133Y-643777D1*
X-4018167Y-651800D1*
X-4012930Y-660313D1*
X-4008467Y-669257D1*
X-4004807Y-678560D1*
X-4001977Y-688150D1*
X-4000007Y-697950D1*
X-3998907Y-707887D1*
X-3998657Y-715393D1*
X-3999097Y-725380D1*
X-4000417Y-735290D1*
X-4002603Y-745043D1*
X-4005640Y-754570D1*
X-4009503Y-763790D1*
X-4014163Y-772633D1*
X-4019583Y-781033D1*
X-4025723Y-788920D1*
X-4032537Y-796237D1*
X-4039963Y-802927D1*
X-4047953Y-808937D1*
X-4056440Y-814220D1*
X-4057147Y-814597D1*
X-4057157Y-1266157D1*
X-4050043Y-1270453D1*
X-4041923Y-1276283D1*
X-4034347Y-1282807D1*
X-4027373Y-1289970D1*
X-4021060Y-1297723D1*
X-4015457Y-1306000D1*
X-4010600Y-1314737D1*
X-4006533Y-1323870D1*
X-4003287Y-1333323D1*
X-4000883Y-1343027D1*
X-3999347Y-1352907D1*
X-3998683Y-1362880D1*
X-3998767Y-1370393D1*
X-3548660Y-1366393D2*
X-3549013Y-1374383D1*
X-3549930Y-1382330D1*
X-3551400Y-1390190D1*
X-3553423Y-1397930D1*
X-3555987Y-1405507D1*
X-3559080Y-1412883D1*
X-3562683Y-1420023D1*
X-3566780Y-1426893D1*
X-3571353Y-1433453D1*
X-3576377Y-1439680D1*
X-3581827Y-1445533D1*
X-3587673Y-1450990D1*
X-3593893Y-1456020D1*
X-3600450Y-1460600D1*
X-3607313Y-1464707D1*
X-3614450Y-1468317D1*
X-3621823Y-1471417D1*
X-3629397Y-1473990D1*
X-3637133Y-1476020D1*
X-3644993Y-1477503D1*
X-3652937Y-1478427D1*
X-3660930Y-1478787D1*
X-3668923Y-1478587D1*
X-3676887Y-1477820D1*
X-3684773Y-1476493D1*
X-3692550Y-1474617D1*
X-3700170Y-1472197D1*
X-3707607Y-1469243D1*
X-3714813Y-1465773D1*
X-3721757Y-1461807D1*
X-3728403Y-1457360D1*
X-3734720Y-1452453D1*
X-3740677Y-1447113D1*
X-3746243Y-1441370D1*
X-3751387Y-1435247D1*
X-3756090Y-1428777D1*
X-3760323Y-1421990D1*
X-3764070Y-1414923D1*
X-3767307Y-1407610D1*
X-3770020Y-1400083D1*
X-3772197Y-1392387D1*
X-3773827Y-1384557D1*
X-3774900Y-1376630D1*
X-3775410Y-1368650D1*
X-3775357Y-1360650D1*
X-3774740Y-1352677D1*
X-3773563Y-1344767D1*
X-3771833Y-1336957D1*
X-3769557Y-1329290D1*
X-3766743Y-1321803D1*
X-3763410Y-1314530D1*
X-3759573Y-1307513D1*
X-3755250Y-1300783D1*
X-3750463Y-1294377D1*
X-3745240Y-1288320D1*
X-3739600Y-1282650D1*
X-3733573Y-1277390D1*
X-3727193Y-1272567D1*
X-3720487Y-1268207D1*
X-3713490Y-1264330D1*
X-3706240Y-1260953D1*
X-3698767Y-1258100D1*
X-3691113Y-1255780D1*
X-3683317Y-1254003D1*
X-3675410Y-1252783D1*
X-3667440Y-1252120D1*
X-3659443Y-1252023D1*
X-3651457Y-1252490D1*
X-3643527Y-1253517D1*
X-3635687Y-1255103D1*
X-3627977Y-1257237D1*
X-3620437Y-1259907D1*
X-3613107Y-1263103D1*
X-3606017Y-1266807D1*
X-3599207Y-1271003D1*
X-3592710Y-1275667D1*
X-3586557Y-1280780D1*
X-3580780Y-1286310D1*
X-3575410Y-1292237D1*
X-3570467Y-1298527D1*
X-3565983Y-1305150D1*
X-3561977Y-1312070D1*
X-3558467Y-1319257D1*
X-3555470Y-1326673D1*
X-3553007Y-1334283D1*
X-3551087Y-1342047D1*
X-3549717Y-1349930D1*
X-3548907Y-1357887D1*
X-3548657Y-1365393D1*
X-3548660Y-1366393D1*
Y-716393D2*
X-3549013Y-724383D1*
X-3549930Y-732330D1*
X-3551400Y-740190D1*
X-3553423Y-747930D1*
X-3555987Y-755507D1*
X-3559080Y-762883D1*
X-3562683Y-770023D1*
X-3566780Y-776893D1*
X-3571353Y-783453D1*
X-3576377Y-789680D1*
X-3581827Y-795533D1*
X-3587673Y-800990D1*
X-3593893Y-806020D1*
X-3600450Y-810600D1*
X-3607313Y-814707D1*
X-3614450Y-818317D1*
X-3621823Y-821417D1*
X-3629397Y-823990D1*
X-3637133Y-826020D1*
X-3644993Y-827503D1*
X-3652937Y-828427D1*
X-3660930Y-828787D1*
X-3668923Y-828587D1*
X-3676887Y-827820D1*
X-3684773Y-826493D1*
X-3692550Y-824617D1*
X-3700170Y-822197D1*
X-3707607Y-819243D1*
X-3714813Y-815773D1*
X-3721757Y-811807D1*
X-3728403Y-807360D1*
X-3734720Y-802453D1*
X-3740677Y-797113D1*
X-3746243Y-791370D1*
X-3751387Y-785247D1*
X-3756090Y-778777D1*
X-3760323Y-771990D1*
X-3764070Y-764923D1*
X-3767307Y-757610D1*
X-3770020Y-750083D1*
X-3772197Y-742387D1*
X-3773827Y-734557D1*
X-3774900Y-726630D1*
X-3775410Y-718650D1*
X-3775357Y-710650D1*
X-3774740Y-702677D1*
X-3773563Y-694767D1*
X-3771833Y-686957D1*
X-3769557Y-679290D1*
X-3766743Y-671803D1*
X-3763410Y-664530D1*
X-3759573Y-657513D1*
X-3755250Y-650783D1*
X-3750463Y-644377D1*
X-3745240Y-638320D1*
X-3739600Y-632650D1*
X-3733573Y-627390D1*
X-3727193Y-622567D1*
X-3720487Y-618207D1*
X-3713490Y-614330D1*
X-3706240Y-610953D1*
X-3698767Y-608100D1*
X-3691113Y-605780D1*
X-3683317Y-604003D1*
X-3675410Y-602783D1*
X-3667440Y-602120D1*
X-3659443Y-602023D1*
X-3651457Y-602490D1*
X-3643527Y-603517D1*
X-3635687Y-605103D1*
X-3627977Y-607237D1*
X-3620437Y-609907D1*
X-3613107Y-613103D1*
X-3606017Y-616807D1*
X-3599207Y-621003D1*
X-3592710Y-625667D1*
X-3586557Y-630780D1*
X-3580780Y-636310D1*
X-3575410Y-642237D1*
X-3570467Y-648527D1*
X-3565983Y-655150D1*
X-3561977Y-662070D1*
X-3558467Y-669257D1*
X-3555470Y-676673D1*
X-3553007Y-684283D1*
X-3551087Y-692047D1*
X-3549717Y-699930D1*
X-3548907Y-707887D1*
X-3548657Y-715393D1*
X-3548660Y-716393D1*
X-2042360Y278740D2*
X-2052580D1*
X-2052577Y200577D1*
X-2047860Y205760D1*
X-2044240Y209207D1*
X-2040430Y212443D1*
X-2036447Y215463D1*
X-2032297Y218257D1*
X-2028000Y220810D1*
X-2023567Y223120D1*
X-2019010Y225180D1*
X-2014347Y226977D1*
X-2009590Y228513D1*
X-2004753Y229780D1*
X-1999853Y230773D1*
X-1994907Y231490D1*
X-1989927Y231930D1*
X-1984930Y232090D1*
X-1979930Y231970D1*
X-1974947Y231567D1*
X-1969993Y230890D1*
X-1965087Y229933D1*
X-1960240Y228703D1*
X-1955473Y227207D1*
X-1950793Y225443D1*
X-1946223Y223420D1*
X-1941770Y221143D1*
X-1937453Y218623D1*
X-1933283Y215863D1*
X-1929277Y212873D1*
X-1925443Y209667D1*
X-1921793Y206247D1*
X-1918343Y202630D1*
X-1915100Y198827D1*
X-1912077Y194847D1*
X-1909280Y190700D1*
X-1906720Y186407D1*
X-1904403Y181977D1*
X-1902340Y177423D1*
X-1900533Y172760D1*
X-1898993Y168007D1*
X-1897720Y163170D1*
X-1896720Y158273D1*
X-1895997Y153327D1*
X-1895550Y148347D1*
X-1895383Y142890D1*
X-1895523Y137893D1*
X-1895943Y132910D1*
X-1896640Y127960D1*
X-1897617Y123057D1*
X-1898863Y118217D1*
X-1900380Y113453D1*
X-1902163Y108780D1*
X-1904203Y104217D1*
X-1906497Y99773D1*
X-1909033Y95467D1*
X-1911810Y91310D1*
X-1914813Y87313D1*
X-1918037Y83493D1*
X-1921470Y79857D1*
X-1925100Y76420D1*
X-1928917Y73190D1*
X-1932910Y70183D1*
X-1937063Y67400D1*
X-1941367Y64857D1*
X-1945807Y62560D1*
X-1950367Y60513D1*
X-1955037Y58727D1*
X-1959800Y57203D1*
X-1964640Y55950D1*
X-1969540Y54967D1*
X-1974490Y54263D1*
X-1979470Y53837D1*
X-1984467Y53690D1*
X-1989467Y53823D1*
X-1994447Y54237D1*
X-1999400Y54930D1*
X-2004303Y55897D1*
X-2009147Y57140D1*
X-2013913Y58650D1*
X-2018587Y60427D1*
X-2023153Y62460D1*
X-2027597Y64747D1*
X-2031910Y67280D1*
X-2036070Y70050D1*
X-2040070Y73047D1*
X-2043897Y76267D1*
X-2047537Y79693D1*
X-2052580Y85213D1*
Y-79957D1*
X-1468580Y-79960D1*
Y-280760D1*
X-2069380D1*
Y-179763D1*
X-2329380Y-179760D1*
Y78737D1*
X-2542640Y78740D1*
X-2571483Y49893D1*
X-2342127D1*
Y-176907D1*
X-2738927D1*
Y-3880D1*
X-2743453Y-9397D1*
X-2746887Y-13033D1*
X-2750517Y-16470D1*
X-2754333Y-19700D1*
X-2758327Y-22707D1*
X-2762480Y-25490D1*
X-2766783Y-28033D1*
X-2771223Y-30330D1*
X-2775783Y-32377D1*
X-2780453Y-34163D1*
X-2785217Y-35687D1*
X-2790057Y-36940D1*
X-2794957Y-37923D1*
X-2799907Y-38627D1*
X-2804887Y-39053D1*
X-2809883Y-39200D1*
X-2814883Y-39067D1*
X-2819863Y-38653D1*
X-2824817Y-37960D1*
X-2829720Y-36993D1*
X-2834563Y-35750D1*
X-2839330Y-34240D1*
X-2844003Y-32463D1*
X-2848570Y-30430D1*
X-2853013Y-28143D1*
X-2857327Y-25610D1*
X-2861487Y-22840D1*
X-2865487Y-19843D1*
X-2869313Y-16623D1*
X-2872953Y-13197D1*
X-2876393Y-9570D1*
X-2879627Y-5757D1*
X-2882640Y-1767D1*
X-2885427Y2383D1*
X-2887977Y6683D1*
X-2890280Y11120D1*
X-2892333Y15680D1*
X-2894127Y20347D1*
X-2895657Y25107D1*
X-2896917Y29943D1*
X-2897903Y34843D1*
X-2898613Y39793D1*
X-2899047Y44773D1*
X-2899200Y49770D1*
X-2899073Y54767D1*
X-2898667Y59750D1*
X-2897980Y64703D1*
X-2897017Y69610D1*
X-2895783Y74453D1*
X-2894277Y79220D1*
X-2892510Y83897D1*
X-2890480Y88467D1*
X-2888200Y92913D1*
X-2885673Y97227D1*
X-2882907Y101393D1*
X-2879913Y105397D1*
X-2876700Y109227D1*
X-2873277Y112870D1*
X-2869657Y116317D1*
X-2865847Y119553D1*
X-2861863Y122573D1*
X-2857713Y125367D1*
X-2853417Y127920D1*
X-2848983Y130230D1*
X-2844427Y132290D1*
X-2839763Y134087D1*
X-2835007Y135623D1*
X-2830170Y136890D1*
X-2825270Y137883D1*
X-2820323Y138600D1*
X-2815343Y139040D1*
X-2810347Y139200D1*
X-2805347Y139080D1*
X-2799147Y138510D1*
X-2690427Y247213D1*
X-2694840Y250910D1*
X-2698480Y254337D1*
X-2701920Y257963D1*
X-2705153Y261777D1*
X-2708167Y265767D1*
X-2710953Y269917D1*
X-2713503Y274217D1*
X-2715807Y278653D1*
X-2717860Y283213D1*
X-2719653Y287880D1*
X-2721183Y292640D1*
X-2722443Y297477D1*
X-2723430Y302377D1*
X-2724140Y307327D1*
X-2724573Y312307D1*
X-2724727Y317303D1*
X-2724600Y322300D1*
X-2724193Y327283D1*
X-2723507Y332237D1*
X-2722543Y337143D1*
X-2721310Y341987D1*
X-2719803Y346753D1*
X-2718037Y351430D1*
X-2716007Y356000D1*
X-2713727Y360447D1*
X-2711200Y364760D1*
X-2708433Y368927D1*
X-2705440Y372930D1*
X-2702227Y376760D1*
X-2698803Y380403D1*
X-2695183Y383850D1*
X-2690423Y387807D1*
X-2690427Y428670D1*
X-2690257Y432977D1*
X-2689750Y437257D1*
X-2688910Y441487D1*
X-2687740Y445637D1*
X-2686247Y449680D1*
X-2684443Y453593D1*
X-2682337Y457357D1*
X-2679943Y460940D1*
X-2677273Y464323D1*
X-2670810Y471027D1*
X-2563197Y578640D1*
X-2565883Y580167D1*
X-2612777D1*
X-2882487Y310467D1*
X-2885653Y307540D1*
X-2889037Y304870D1*
X-2892620Y302477D1*
X-2896383Y300370D1*
X-2900297Y298567D1*
X-2904340Y297073D1*
X-2908490Y295903D1*
X-2912720Y295063D1*
X-2917000Y294557D1*
X-2926307Y294387D1*
X-3328630D1*
X-3263393Y229207D1*
X-3200020Y165833D1*
X-3197093Y162667D1*
X-3194423Y159283D1*
X-3192030Y155700D1*
X-3189923Y151937D1*
X-3188120Y148023D1*
X-3186627Y143980D1*
X-3185457Y139830D1*
X-3184617Y135600D1*
X-3184110Y131320D1*
X-3183940Y122013D1*
Y-934460D1*
X-3135440D1*
Y-1161260D1*
X-3183937D1*
X-3183940Y-1390300D1*
X-3104960Y-1469263D1*
X-3028113Y-1469260D1*
X-3034893Y-1466193D1*
X-3041943Y-1462410D1*
X-3048703Y-1458137D1*
X-3055150Y-1453400D1*
X-3061243Y-1448223D1*
X-3066960Y-1442627D1*
X-3072267Y-1436640D1*
X-3077137Y-1430297D1*
X-3081550Y-1423627D1*
X-3085480Y-1416660D1*
X-3088910Y-1409433D1*
X-3091820Y-1401987D1*
X-3094200Y-1394350D1*
X-3096037Y-1386563D1*
X-3097320Y-1378670D1*
X-3098040Y-1370703D1*
X-3098200Y-1362707D1*
X-3097797Y-1354720D1*
X-3096827Y-1346780D1*
X-3095303Y-1338927D1*
X-3093230Y-1331203D1*
X-3090617Y-1323643D1*
X-3087477Y-1316287D1*
X-3083827Y-1309170D1*
X-3079683Y-1302327D1*
X-3075070Y-1295797D1*
X-3070007Y-1289603D1*
X-3064517Y-1283787D1*
X-3058633Y-1278367D1*
X-3052383Y-1273380D1*
X-3045793Y-1268843D1*
X-3038903Y-1264780D1*
X-3031743Y-1261217D1*
X-3024350Y-1258167D1*
X-3016760Y-1255643D1*
X-3009010Y-1253663D1*
X-3001140Y-1252230D1*
X-2993190Y-1251360D1*
X-2985197Y-1251050D1*
X-2977203Y-1251307D1*
X-2969247Y-1252123D1*
X-2961370Y-1253500D1*
X-2953607Y-1255430D1*
X-2946000Y-1257900D1*
X-2938587Y-1260900D1*
X-2931400Y-1264417D1*
X-2924483Y-1268430D1*
X-2917863Y-1272923D1*
X-2911580Y-1277870D1*
X-2905660Y-1283247D1*
X-2900130Y-1289027D1*
X-2895027Y-1295183D1*
X-2890367Y-1301687D1*
X-2886177Y-1308500D1*
X-2882480Y-1315590D1*
X-2879290Y-1322927D1*
X-2876623Y-1330467D1*
X-2874500Y-1338177D1*
X-2872920Y-1346020D1*
X-2871900Y-1353953D1*
X-2871440Y-1361937D1*
X-2871523Y-1369450D1*
X-2872157Y-1377420D1*
X-2873353Y-1385330D1*
X-2875100Y-1393133D1*
X-2877397Y-1400797D1*
X-2880227Y-1408277D1*
X-2883573Y-1415540D1*
X-2887427Y-1422550D1*
X-2891767Y-1429270D1*
X-2896567Y-1435667D1*
X-2901807Y-1441710D1*
X-2907457Y-1447370D1*
X-2913497Y-1452617D1*
X-2919887Y-1457423D1*
X-2926603Y-1461770D1*
X-2933607Y-1465630D1*
X-2940867Y-1468987D1*
X-2941520Y-1469260D1*
X-785220Y-1469277D1*
Y-1421637D1*
X-548420D1*
Y-1658437D1*
X-785220D1*
Y-1579043D1*
X-3127703Y-1579060D1*
X-3132010Y-1578890D1*
X-3136290Y-1578383D1*
X-3140520Y-1577543D1*
X-3144670Y-1576373D1*
X-3148713Y-1574880D1*
X-3152627Y-1573077D1*
X-3156390Y-1570970D1*
X-3159973Y-1568577D1*
X-3163357Y-1565907D1*
X-3170060Y-1559443D1*
X-3277660Y-1451843D1*
X-3280587Y-1448677D1*
X-3283257Y-1445293D1*
X-3285650Y-1441710D1*
X-3287757Y-1437947D1*
X-3289560Y-1434033D1*
X-3291053Y-1429990D1*
X-3292223Y-1425840D1*
X-3293063Y-1421610D1*
X-3293570Y-1417330D1*
X-3293740Y-1408023D1*
Y-1161247D1*
X-3379913Y-1161260D1*
Y-1265220D1*
X-3372800Y-1269510D1*
X-3364680Y-1275340D1*
X-3357103Y-1281863D1*
X-3350130Y-1289027D1*
X-3343817Y-1296780D1*
X-3338213Y-1305057D1*
X-3333357Y-1313793D1*
X-3329290Y-1322927D1*
X-3326043Y-1332380D1*
X-3323640Y-1342083D1*
X-3322103Y-1351963D1*
X-3321440Y-1361937D1*
X-3321523Y-1369450D1*
X-3322403Y-1379407D1*
X-3324157Y-1389247D1*
X-3326773Y-1398897D1*
X-3330227Y-1408277D1*
X-3334490Y-1417320D1*
X-3339537Y-1425950D1*
X-3345323Y-1434100D1*
X-3351807Y-1441710D1*
X-3358933Y-1448720D1*
X-3366650Y-1455077D1*
X-3374897Y-1460727D1*
X-3383607Y-1465630D1*
X-3392717Y-1469747D1*
X-3402153Y-1473047D1*
X-3411847Y-1475500D1*
X-3421713Y-1477090D1*
X-3431687Y-1477807D1*
X-3441680Y-1477643D1*
X-3451623Y-1476597D1*
X-3461433Y-1474680D1*
X-3471040Y-1471907D1*
X-3480363Y-1468300D1*
X-3489330Y-1463887D1*
X-3497877Y-1458697D1*
X-3505930Y-1452777D1*
X-3513433Y-1446170D1*
X-3520327Y-1438930D1*
X-3526553Y-1431110D1*
X-3532067Y-1422770D1*
X-3536827Y-1413980D1*
X-3540790Y-1404803D1*
X-3543933Y-1395313D1*
X-3546227Y-1385583D1*
X-3547657Y-1375687D1*
X-3548207Y-1365707D1*
X-3547877Y-1355717D1*
X-3546667Y-1345793D1*
X-3544590Y-1336013D1*
X-3541660Y-1326457D1*
X-3537897Y-1317193D1*
X-3533337Y-1308300D1*
X-3528007Y-1299840D1*
X-3521957Y-1291883D1*
X-3515227Y-1284490D1*
X-3507870Y-1277720D1*
X-3499950Y-1271623D1*
X-3491520Y-1266247D1*
X-3489723Y-1265260D1*
X-3489713Y-1161267D1*
X-3532240Y-1161260D1*
Y-934460D1*
X-3489720D1*
X-3489713Y-813663D1*
X-3497877Y-808697D1*
X-3505930Y-802777D1*
X-3513433Y-796170D1*
X-3520327Y-788930D1*
X-3526553Y-781110D1*
X-3532067Y-772770D1*
X-3536827Y-763980D1*
X-3540790Y-754803D1*
X-3543933Y-745313D1*
X-3546227Y-735583D1*
X-3547657Y-725687D1*
X-3548207Y-715707D1*
X-3547877Y-705717D1*
X-3546667Y-695793D1*
X-3544590Y-686013D1*
X-3541660Y-676457D1*
X-3537897Y-667193D1*
X-3533337Y-658300D1*
X-3528007Y-649840D1*
X-3521957Y-641883D1*
X-3515227Y-634490D1*
X-3507870Y-627720D1*
X-3499950Y-621623D1*
X-3491520Y-616247D1*
X-3482653Y-611633D1*
X-3473410Y-607820D1*
X-3463870Y-604837D1*
X-3454103Y-602703D1*
X-3444187Y-601437D1*
X-3434197Y-601053D1*
X-3424213Y-601547D1*
X-3414310Y-602920D1*
X-3404570Y-605157D1*
X-3395060Y-608247D1*
X-3385863Y-612160D1*
X-3377043Y-616867D1*
X-3368673Y-622333D1*
X-3360820Y-628517D1*
X-3353537Y-635367D1*
X-3346890Y-642833D1*
X-3340923Y-650857D1*
X-3335687Y-659370D1*
X-3331223Y-668313D1*
X-3327563Y-677617D1*
X-3324733Y-687207D1*
X-3322763Y-697007D1*
X-3321663Y-706943D1*
X-3321413Y-714450D1*
X-3321853Y-724437D1*
X-3323173Y-734347D1*
X-3325360Y-744100D1*
X-3328397Y-753627D1*
X-3332260Y-762847D1*
X-3336920Y-771690D1*
X-3342340Y-780090D1*
X-3348480Y-787977D1*
X-3355293Y-795293D1*
X-3362720Y-801983D1*
X-3370710Y-807993D1*
X-3379197Y-813277D1*
X-3379903Y-813653D1*
X-3379913Y-934470D1*
X-3293743Y-934460D1*
X-3293740Y104270D1*
X-3388600Y199133D1*
X-4096180Y199127D1*
X-4100487Y199297D1*
X-4104767Y199803D1*
X-4108997Y200643D1*
X-4113147Y201813D1*
X-4117190Y203307D1*
X-4121103Y205110D1*
X-4124867Y207217D1*
X-4128450Y209610D1*
X-4131833Y212280D1*
X-4138537Y218743D1*
X-4246137Y326343D1*
X-4249063Y329510D1*
X-4251733Y332893D1*
X-4254127Y336477D1*
X-4256233Y340240D1*
X-4258037Y344153D1*
X-4259530Y348197D1*
X-4260700Y352347D1*
X-4261540Y356577D1*
X-4262047Y360857D1*
X-4262217Y370163D1*
Y523930D1*
X-4262047Y528237D1*
X-4261540Y532517D1*
X-4260700Y536747D1*
X-4259530Y540897D1*
X-4258037Y544940D1*
X-4256233Y548853D1*
X-4254127Y552617D1*
X-4251733Y556200D1*
X-4249063Y559583D1*
X-4242600Y566287D1*
X-4151077Y657810D1*
X-4151080Y1009303D1*
X-4155493Y1012990D1*
X-4159133Y1016417D1*
X-4162573Y1020043D1*
X-4165807Y1023857D1*
X-4168820Y1027847D1*
X-4171607Y1031997D1*
X-4174157Y1036297D1*
X-4176460Y1040733D1*
X-4178513Y1045293D1*
X-4180307Y1049960D1*
X-4181837Y1054720D1*
X-4183097Y1059557D1*
X-4184083Y1064457D1*
X-4184793Y1069407D1*
X-4185227Y1074387D1*
X-4185380Y1079383D1*
X-4185253Y1084380D1*
X-4184847Y1089363D1*
X-4184160Y1094317D1*
X-4183197Y1099223D1*
X-4181963Y1104067D1*
X-4180457Y1108833D1*
X-4178690Y1113510D1*
X-4176660Y1118080D1*
X-4174380Y1122527D1*
X-4171853Y1126840D1*
X-4169087Y1131007D1*
X-4166093Y1135010D1*
X-4162880Y1138840D1*
X-4159457Y1142483D1*
X-4155837Y1145930D1*
X-4152027Y1149167D1*
X-4148043Y1152187D1*
X-4143893Y1154980D1*
X-4139597Y1157533D1*
X-4135163Y1159843D1*
X-4130607Y1161903D1*
X-4125943Y1163700D1*
X-4121187Y1165237D1*
X-4116350Y1166503D1*
X-4111450Y1167497D1*
X-4106503Y1168213D1*
X-4101523Y1168653D1*
X-4096527Y1168813D1*
X-4091527Y1168693D1*
X-4086543Y1168290D1*
X-4081590Y1167613D1*
X-4076683Y1166657D1*
X-4071837Y1165427D1*
X-4067070Y1163930D1*
X-4062390Y1162167D1*
X-4057820Y1160143D1*
X-4053367Y1157867D1*
X-4049050Y1155347D1*
X-4044880Y1152587D1*
X-4040873Y1149597D1*
X-4037040Y1146390D1*
X-4033390Y1142970D1*
X-4029940Y1139353D1*
X-4025907Y1134507D1*
X-3731017Y1134513D1*
X-3726710Y1134343D1*
X-3722430Y1133837D1*
X-3718200Y1132997D1*
X-3714050Y1131827D1*
X-3710007Y1130333D1*
X-3706093Y1128530D1*
X-3702330Y1126423D1*
X-3698747Y1124030D1*
X-3695363Y1121360D1*
X-3688660Y1114897D1*
X-3533430Y959667D1*
X-3530503Y956500D1*
X-3527833Y953117D1*
X-3525440Y949533D1*
X-3523333Y945770D1*
X-3521530Y941857D1*
X-3520037Y937813D1*
X-3518867Y933663D1*
X-3518027Y929433D1*
X-3517520Y925153D1*
X-3517350Y915847D1*
Y737117D1*
X-3513110Y733597D1*
X-3509460Y730177D1*
X-3506010Y726560D1*
X-3502767Y722757D1*
X-3499743Y718777D1*
X-3496947Y714630D1*
X-3494387Y710337D1*
X-3492070Y705907D1*
X-3490007Y701353D1*
X-3488200Y696690D1*
X-3486660Y691937D1*
X-3485387Y687100D1*
X-3484387Y682203D1*
X-3483663Y677257D1*
X-3483217Y672277D1*
X-3483050Y666820D1*
X-3483190Y661823D1*
X-3483610Y656840D1*
X-3484307Y651890D1*
X-3485283Y646987D1*
X-3486530Y642147D1*
X-3488047Y637383D1*
X-3489830Y632710D1*
X-3491870Y628147D1*
X-3494163Y623703D1*
X-3496700Y619397D1*
X-3499477Y615240D1*
X-3502480Y611243D1*
X-3505703Y607423D1*
X-3509137Y603787D1*
X-3512767Y600350D1*
X-3516583Y597120D1*
X-3520577Y594113D1*
X-3524730Y591330D1*
X-3529033Y588787D1*
X-3533473Y586490D1*
X-3538033Y584443D1*
X-3542703Y582657D1*
X-3547467Y581133D1*
X-3552307Y579880D1*
X-3557690Y578830D1*
X-3136630D1*
X-3143603Y584123D1*
X-3147363Y587417D1*
X-3150957Y590893D1*
X-3154370Y594547D1*
X-3157593Y598367D1*
X-3160623Y602347D1*
X-3163447Y606470D1*
X-3166060Y610733D1*
X-3168457Y615120D1*
X-3170627Y619623D1*
X-3172570Y624230D1*
X-3174277Y628930D1*
X-3175747Y633707D1*
X-3176973Y638553D1*
X-3177957Y643457D1*
X-3178690Y648400D1*
X-3179177Y653377D1*
X-3179410Y658370D1*
X-3179393Y663370D1*
X-3179123Y668363D1*
X-3178603Y673337D1*
X-3177833Y678277D1*
X-3176817Y683170D1*
X-3175557Y688007D1*
X-3174053Y692777D1*
X-3172310Y697463D1*
X-3170337Y702057D1*
X-3168133Y706543D1*
X-3165707Y710913D1*
X-3163063Y715157D1*
X-3160210Y719263D1*
X-3157153Y723220D1*
X-3153900Y727017D1*
X-3150463Y730647D1*
X-3146847Y734100D1*
X-3143060Y737363D1*
X-3139117Y740437D1*
X-3134970Y743333D1*
X-3134973Y758080D1*
X-3153473Y758063D1*
Y1054863D1*
X-3134977D1*
X-3134973Y1060310D1*
X-3139680Y1063623D1*
X-3143603Y1066723D1*
X-3147363Y1070017D1*
X-3150957Y1073493D1*
X-3154370Y1077147D1*
X-3157593Y1080967D1*
X-3160623Y1084947D1*
X-3163447Y1089070D1*
X-3166060Y1093333D1*
X-3168457Y1097720D1*
X-3170627Y1102223D1*
X-3172570Y1106830D1*
X-3174277Y1111530D1*
X-3175747Y1116307D1*
X-3176973Y1121153D1*
X-3177957Y1126057D1*
X-3178690Y1131000D1*
X-3179177Y1135977D1*
X-3179410Y1140970D1*
X-3179393Y1145970D1*
X-3179123Y1150963D1*
X-3178603Y1155937D1*
X-3177833Y1160877D1*
X-3176817Y1165770D1*
X-3175557Y1170607D1*
X-3174053Y1175377D1*
X-3172310Y1180063D1*
X-3170337Y1184657D1*
X-3168133Y1189143D1*
X-3165707Y1193513D1*
X-3163063Y1197757D1*
X-3160210Y1201863D1*
X-3157153Y1205820D1*
X-3153900Y1209617D1*
X-3150463Y1213247D1*
X-3146847Y1216700D1*
X-3143060Y1219963D1*
X-3139117Y1223037D1*
X-3135020Y1225903D1*
X-3130787Y1228563D1*
X-3126427Y1231007D1*
X-3121947Y1233227D1*
X-3117360Y1235217D1*
X-3112680Y1236977D1*
X-3107917Y1238500D1*
X-3103087Y1239780D1*
X-3098193Y1240813D1*
X-3093257Y1241600D1*
X-3088287Y1242140D1*
X-3083297Y1242427D1*
X-3078297Y1242463D1*
X-3073300Y1242250D1*
X-3068323Y1241783D1*
X-3063377Y1241067D1*
X-3058470Y1240103D1*
X-3053620Y1238893D1*
X-3048837Y1237443D1*
X-3044130Y1235750D1*
X-3039517Y1233827D1*
X-3035007Y1231670D1*
X-3030607Y1229293D1*
X-3026337Y1226693D1*
X-3022200Y1223887D1*
X-3018210Y1220873D1*
X-3014377Y1217663D1*
X-3010713Y1214263D1*
X-3007220Y1210683D1*
X-3003913Y1206933D1*
X-3000800Y1203023D1*
X-2997890Y1198960D1*
X-2995183Y1194753D1*
X-2992693Y1190420D1*
X-2990427Y1185963D1*
X-2988383Y1181400D1*
X-2986573Y1176740D1*
X-2985000Y1171993D1*
X-2983670Y1167177D1*
X-2982580Y1162297D1*
X-2981740Y1157367D1*
X-2981147Y1152403D1*
X-2980713Y1143120D1*
X-2980840Y1138123D1*
X-2981217Y1133137D1*
X-2981843Y1128177D1*
X-2982720Y1123253D1*
X-2983843Y1118383D1*
X-2985207Y1113573D1*
X-2986813Y1108840D1*
X-2988657Y1104193D1*
X-2990730Y1099643D1*
X-2993030Y1095203D1*
X-2995550Y1090887D1*
X-2998287Y1086700D1*
X-3001227Y1082657D1*
X-3004367Y1078770D1*
X-3007700Y1075043D1*
X-3011217Y1071487D1*
X-3014907Y1068113D1*
X-3018763Y1064933D1*
X-3025160Y1060350D1*
X-3025173Y1054857D1*
X-3006673Y1054863D1*
Y758063D1*
X-3025170D1*
X-3025173Y743320D1*
X-3018210Y738273D1*
X-3014377Y735063D1*
X-3010713Y731663D1*
X-3007220Y728083D1*
X-3003913Y724333D1*
X-3000800Y720423D1*
X-2997890Y716360D1*
X-2995183Y712153D1*
X-2992693Y707820D1*
X-2990427Y703363D1*
X-2988383Y698800D1*
X-2986573Y694140D1*
X-2985000Y689393D1*
X-2983670Y684577D1*
X-2982580Y679697D1*
X-2981740Y674767D1*
X-2981147Y669803D1*
X-2980713Y660520D1*
X-2980840Y655523D1*
X-2981217Y650537D1*
X-2981843Y645577D1*
X-2982720Y640653D1*
X-2983843Y635783D1*
X-2985207Y630973D1*
X-2986813Y626240D1*
X-2988657Y621593D1*
X-2990730Y617043D1*
X-2993030Y612603D1*
X-2995550Y608287D1*
X-2998620Y603643D1*
X-2626717Y975543D1*
X-2623550Y978470D1*
X-2620167Y981140D1*
X-2616583Y983533D1*
X-2612820Y985640D1*
X-2608907Y987443D1*
X-2604863Y988937D1*
X-2600713Y990107D1*
X-2596483Y990947D1*
X-2592203Y991453D1*
X-2582897Y991623D1*
X-2329360D1*
X-2329380Y1088267D1*
X-2371097Y1088250D1*
X-2371113Y1004750D1*
X-2647913D1*
Y1281550D1*
X-2584613D1*
X-2590383Y1285557D1*
X-2598223Y1291760D1*
X-2605597Y1298510D1*
X-2612467Y1305777D1*
X-2618790Y1313520D1*
X-2624540Y1321700D1*
X-2629683Y1330270D1*
X-2634197Y1339193D1*
X-2638050Y1348417D1*
X-2641230Y1357897D1*
X-2643717Y1367580D1*
X-2645500Y1377417D1*
X-2646567Y1387360D1*
X-2646913Y1397350D1*
X-2646537Y1407340D1*
X-2645440Y1417280D1*
X-2643630Y1427110D1*
X-2641113Y1436787D1*
X-2637907Y1446257D1*
X-2634023Y1455470D1*
X-2629487Y1464377D1*
X-2624317Y1472937D1*
X-2618543Y1481097D1*
X-2612197Y1488823D1*
X-2605307Y1496067D1*
X-2597913Y1502797D1*
X-2590053Y1508977D1*
X-2581767Y1514570D1*
X-2573100Y1519553D1*
X-2564093Y1523897D1*
X-2554800Y1527577D1*
X-2545263Y1530580D1*
X-2535533Y1532883D1*
X-2525663Y1534480D1*
X-2515703Y1535360D1*
X-2505707Y1535517D1*
X-2495727Y1534953D1*
X-2485810Y1533673D1*
X-2476013Y1531677D1*
X-2466387Y1528980D1*
X-2456980Y1525593D1*
X-2447840Y1521540D1*
X-2439020Y1516833D1*
X-2430560Y1511507D1*
X-2422507Y1505580D1*
X-2414903Y1499087D1*
X-2407790Y1492063D1*
X-2401200Y1484543D1*
X-2395170Y1476570D1*
X-2389733Y1468180D1*
X-2384913Y1459420D1*
X-2380743Y1450333D1*
X-2377237Y1440973D1*
X-2374413Y1431380D1*
X-2372293Y1421610D1*
X-2370883Y1411713D1*
X-2370190Y1401740D1*
X-2370203Y1392147D1*
X-2370963Y1381887D1*
X-2347527Y1381900D1*
X-2342370Y1384360D1*
X-2338327Y1385853D1*
X-2334177Y1387023D1*
X-2329930Y1387867D1*
X-2329380Y1390240D1*
Y1447040D1*
X-2313383D1*
X-2313400Y1544587D1*
X-3497400Y1544600D1*
Y2205987D1*
X-4591980Y2206000D1*
X-4592000Y-1663980D1*
X278000Y-1664000D1*
X1277980D1*
X1278000Y2205980D1*
X-630613Y2206000D1*
X-630600Y1447030D1*
X-602580Y1447040D1*
Y1385967D1*
X-598180Y1384360D1*
X-594267Y1382557D1*
X-590503Y1380450D1*
X-586920Y1378057D1*
X-583537Y1375387D1*
X-576833Y1368923D1*
X-543950Y1336040D1*
X-541093Y1342687D1*
X-538987Y1346450D1*
X-536593Y1350033D1*
X-533923Y1353417D1*
X-527460Y1360120D1*
X-308723Y1578857D1*
X-305557Y1581783D1*
X-302173Y1584453D1*
X-298590Y1586847D1*
X-294827Y1588953D1*
X-290913Y1590757D1*
X-286870Y1592250D1*
X-282720Y1593420D1*
X-278490Y1594260D1*
X-274210Y1594767D1*
X-264903Y1594937D1*
X465740D1*
X471167Y1595857D1*
X476043Y1596210D1*
X523593Y1596233D1*
X523600Y1624733D1*
X670400D1*
Y1327933D1*
X591240D1*
X568937Y1305627D1*
X568927Y1239747D1*
X702427D1*
Y982947D1*
X628033D1*
X625827Y978997D1*
X628313Y975747D1*
X720433D1*
Y1134247D1*
X816897D1*
X815713Y1138783D1*
X814767Y1143693D1*
X814147Y1148653D1*
X813857Y1153643D1*
X813897Y1158643D1*
X814270Y1163627D1*
X814973Y1168577D1*
X816000Y1173470D1*
X817350Y1178283D1*
X819017Y1182997D1*
X820993Y1187590D1*
X823267Y1192040D1*
X825833Y1196330D1*
X828677Y1200443D1*
X831787Y1204357D1*
X835150Y1208057D1*
X838750Y1211523D1*
X842570Y1214747D1*
X846597Y1217710D1*
X850813Y1220397D1*
X855197Y1222800D1*
X859730Y1224907D1*
X864393Y1226710D1*
X869163Y1228200D1*
X874023Y1229370D1*
X878950Y1230217D1*
X883923Y1230733D1*
X888920Y1230920D1*
X893917Y1230773D1*
X898893Y1230300D1*
X903827Y1229493D1*
X908697Y1228363D1*
X913480Y1226913D1*
X918157Y1225150D1*
X922710Y1223080D1*
X927113Y1220713D1*
X931350Y1218060D1*
X935400Y1215133D1*
X939250Y1211943D1*
X942877Y1208503D1*
X946270Y1204833D1*
X949413Y1200947D1*
X952290Y1196857D1*
X954893Y1192590D1*
X957203Y1188157D1*
X959217Y1183580D1*
X960923Y1178880D1*
X962313Y1174080D1*
X963383Y1169197D1*
X964127Y1164253D1*
X964633Y1155520D1*
X964467Y1150523D1*
X963970Y1145550D1*
X963147Y1140620D1*
X961997Y1135753D1*
X960527Y1130977D1*
X958743Y1126307D1*
X956653Y1121763D1*
X954270Y1117370D1*
X951600Y1113143D1*
X948653Y1109103D1*
X945447Y1105270D1*
X941993Y1101653D1*
X938310Y1098277D1*
X934407Y1095150D1*
X930307Y1092290D1*
X926027Y1089707D1*
X921587Y1087413D1*
X917003Y1085420D1*
X912297Y1083733D1*
X907487Y1082363D1*
X902600Y1081313D1*
X897653Y1080590D1*
X892670Y1080200D1*
X887670Y1080137D1*
X882680Y1080407D1*
X877717Y1081003D1*
X872803Y1081930D1*
X867240Y1083420D1*
X867233Y837447D1*
X720433D1*
Y865943D1*
X626040Y865947D1*
X471953Y711847D1*
X468787Y708920D1*
X465403Y706250D1*
X461820Y703857D1*
X458057Y701750D1*
X454143Y699947D1*
X450100Y698453D1*
X445950Y697283D1*
X441720Y696443D1*
X437440Y695937D1*
X428133Y695767D1*
X376473D1*
X340490Y659767D1*
X702427D1*
Y586387D1*
X707723Y592203D1*
X711343Y595650D1*
X715153Y598887D1*
X719137Y601907D1*
X723287Y604700D1*
X727583Y607253D1*
X732017Y609563D1*
X736573Y611623D1*
X741237Y613420D1*
X745993Y614957D1*
X750830Y616223D1*
X755730Y617217D1*
X760677Y617933D1*
X765657Y618373D1*
X770653Y618533D1*
X775653Y618413D1*
X780637Y618010D1*
X785590Y617333D1*
X790497Y616377D1*
X795343Y615147D1*
X800110Y613650D1*
X804790Y611887D1*
X809360Y609863D1*
X813813Y607587D1*
X818130Y605067D1*
X822300Y602307D1*
X826307Y599317D1*
X830140Y596110D1*
X833790Y592690D1*
X837240Y589073D1*
X840483Y585270D1*
X843507Y581290D1*
X846303Y577143D1*
X848863Y572850D1*
X851180Y568420D1*
X853243Y563867D1*
X855050Y559203D1*
X856590Y554450D1*
X857863Y549613D1*
X858863Y544717D1*
X859587Y539770D1*
X860033Y534790D1*
X860200Y529333D1*
X860060Y524337D1*
X859640Y519353D1*
X858943Y514403D1*
X857967Y509500D1*
X856720Y504660D1*
X855203Y499897D1*
X853420Y495223D1*
X851380Y490660D1*
X849087Y486217D1*
X846550Y481910D1*
X843773Y477753D1*
X840770Y473757D1*
X837547Y469937D1*
X834113Y466300D1*
X830483Y462863D1*
X826667Y459633D1*
X822673Y456627D1*
X818520Y453843D1*
X814217Y451300D1*
X809777Y449003D1*
X805217Y446957D1*
X800547Y445170D1*
X795783Y443647D1*
X790943Y442393D1*
X786043Y441410D1*
X781093Y440707D1*
X776113Y440280D1*
X771117Y440133D1*
X766117Y440267D1*
X761137Y440680D1*
X756183Y441373D1*
X751280Y442340D1*
X746437Y443583D1*
X741670Y445093D1*
X736997Y446870D1*
X732430Y448903D1*
X727987Y451190D1*
X723673Y453723D1*
X719513Y456493D1*
X715513Y459490D1*
X711687Y462710D1*
X708047Y466137D1*
X702423Y472340D1*
X702427Y402967D1*
X644947D1*
X644960Y175850D1*
X648863Y169517D1*
X651180Y165087D1*
X653243Y160533D1*
X655050Y155870D1*
X656590Y151117D1*
X657863Y146280D1*
X658863Y141383D1*
X659587Y136437D1*
X660033Y131457D1*
X660200Y126000D1*
X660060Y121003D1*
X659640Y116020D1*
X658943Y111070D1*
X657967Y106167D1*
X656720Y101327D1*
X655203Y96563D1*
X653420Y91890D1*
X651380Y87327D1*
X649087Y82883D1*
X646550Y78577D1*
X643773Y74420D1*
X640770Y70423D1*
X637547Y66603D1*
X634113Y62967D1*
X629457Y58660D1*
X629447Y43000D1*
X629277Y38693D1*
X628770Y34413D1*
X627930Y30183D1*
X626760Y26033D1*
X625267Y21990D1*
X623463Y18077D1*
X621357Y14313D1*
X618963Y10730D1*
X616293Y7347D1*
X613367Y4180D1*
X610200Y1253D1*
X606817Y-1417D1*
X603233Y-3810D1*
X599470Y-5917D1*
X595557Y-7720D1*
X591513Y-9213D1*
X587363Y-10383D1*
X583133Y-11223D1*
X578853Y-11730D1*
X569547Y-11900D1*
X521403D1*
X521400Y-30400D1*
X362903D1*
X362900Y-80793D1*
X371257Y-89167D1*
X374183Y-92333D1*
X376853Y-95717D1*
X379257Y-99317D1*
X384037Y-99747D1*
X470837D1*
Y-163597D1*
X475613Y-156603D1*
X480510Y-150280D1*
X485767Y-144250D1*
X491360Y-138530D1*
X497277Y-133147D1*
X503493Y-128113D1*
X509990Y-123450D1*
X516747Y-119167D1*
X523737Y-115280D1*
X530943Y-111807D1*
X538337Y-108753D1*
X545893Y-106133D1*
X553590Y-103953D1*
X561397Y-102220D1*
X569293Y-100943D1*
X577250Y-100127D1*
X585243Y-99767D1*
X593240Y-99873D1*
X601220Y-100437D1*
X609153Y-101463D1*
X617013Y-102947D1*
X624773Y-104880D1*
X632410Y-107260D1*
X639897Y-110077D1*
X647207Y-113323D1*
X654320Y-116983D1*
X661207Y-121050D1*
X667850Y-125507D1*
X674223Y-130340D1*
X680307Y-135537D1*
X686080Y-141073D1*
X691523Y-146933D1*
X696620Y-153097D1*
X701350Y-159547D1*
X705700Y-166260D1*
X709657Y-173213D1*
X713203Y-180380D1*
X714440Y-183153D1*
X718113Y-175357D1*
X722970Y-166617D1*
X728447Y-158250D1*
X734510Y-150303D1*
X741133Y-142813D1*
X748280Y-135820D1*
X755910Y-129363D1*
X763990Y-123473D1*
X772473Y-118180D1*
X781313Y-113513D1*
X790470Y-109500D1*
X799893Y-106157D1*
X809530Y-103500D1*
X819337Y-101550D1*
X829257Y-100310D1*
X839243Y-99790D1*
X849237Y-99993D1*
X859193Y-100917D1*
X869057Y-102557D1*
X878773Y-104903D1*
X888297Y-107947D1*
X897577Y-111670D1*
X906563Y-116053D1*
X915207Y-121073D1*
X923470Y-126703D1*
X931303Y-132917D1*
X938667Y-139680D1*
X945523Y-146957D1*
X951837Y-154707D1*
X957573Y-162897D1*
X962707Y-171477D1*
X967203Y-180403D1*
X968417Y-183177D1*
X972113Y-175357D1*
X976970Y-166617D1*
X982447Y-158250D1*
X988510Y-150303D1*
X995133Y-142813D1*
X1002280Y-135820D1*
X1009910Y-129363D1*
X1017990Y-123473D1*
X1026473Y-118180D1*
X1035313Y-113513D1*
X1044470Y-109500D1*
X1053893Y-106157D1*
X1063530Y-103500D1*
X1073337Y-101550D1*
X1083257Y-100310D1*
X1093243Y-99790D1*
X1103237Y-99993D1*
X1113193Y-100917D1*
X1123057Y-102557D1*
X1132773Y-104903D1*
X1142297Y-107947D1*
X1151577Y-111670D1*
X1160563Y-116053D1*
X1169207Y-121073D1*
X1177470Y-126703D1*
X1185303Y-132917D1*
X1192667Y-139680D1*
X1199523Y-146957D1*
X1205837Y-154707D1*
X1211573Y-162897D1*
X1216707Y-171477D1*
X1221203Y-180403D1*
X1225047Y-189633D1*
X1228213Y-199117D1*
X1230683Y-208807D1*
X1232453Y-218647D1*
X1233503Y-228587D1*
X1233837Y-238173D1*
X1233477Y-248163D1*
X1232393Y-258103D1*
X1230597Y-267940D1*
X1228097Y-277620D1*
X1224903Y-287093D1*
X1221033Y-296310D1*
X1216510Y-305227D1*
X1211353Y-313793D1*
X1205590Y-321963D1*
X1199253Y-329697D1*
X1192377Y-336953D1*
X1184993Y-343693D1*
X1177140Y-349883D1*
X1168863Y-355490D1*
X1160203Y-360483D1*
X1151203Y-364840D1*
X1150393Y-365180D1*
X1156110Y-367807D1*
X1164930Y-372513D1*
X1173390Y-377840D1*
X1181443Y-383767D1*
X1189047Y-390260D1*
X1196160Y-397283D1*
X1202750Y-404803D1*
X1208780Y-412777D1*
X1214217Y-421167D1*
X1219037Y-429927D1*
X1223207Y-439013D1*
X1226713Y-448373D1*
X1229537Y-457967D1*
X1231657Y-467737D1*
X1233067Y-477633D1*
X1233760Y-487607D1*
X1233747Y-497200D1*
X1233023Y-507170D1*
X1231583Y-517063D1*
X1229433Y-526827D1*
X1226587Y-536410D1*
X1223050Y-545763D1*
X1218850Y-554837D1*
X1214007Y-563583D1*
X1208543Y-571957D1*
X1202493Y-579913D1*
X1195880Y-587413D1*
X1188743Y-594417D1*
X1181123Y-600887D1*
X1173053Y-606787D1*
X1164577Y-612093D1*
X1155743Y-616770D1*
X1150393Y-619207D1*
X1156110Y-621833D1*
X1164930Y-626540D1*
X1173390Y-631867D1*
X1181443Y-637793D1*
X1189047Y-644287D1*
X1196160Y-651310D1*
X1202750Y-658830D1*
X1208780Y-666803D1*
X1214217Y-675193D1*
X1219037Y-683953D1*
X1223207Y-693040D1*
X1226713Y-702400D1*
X1229537Y-711993D1*
X1231657Y-721763D1*
X1233067Y-731660D1*
X1233760Y-741633D1*
X1233747Y-751227D1*
X1233023Y-761197D1*
X1231583Y-771090D1*
X1229433Y-780853D1*
X1226587Y-790437D1*
X1224070Y-797233D1*
X1232497Y-805887D1*
X1235167Y-809270D1*
X1237560Y-812853D1*
X1239667Y-816617D1*
X1241470Y-820530D1*
X1242963Y-824573D1*
X1244133Y-828723D1*
X1244973Y-832953D1*
X1245480Y-837233D1*
X1245650Y-846540D1*
Y-1413023D1*
X1245480Y-1417330D1*
X1244973Y-1421610D1*
X1244133Y-1425840D1*
X1242963Y-1429990D1*
X1241470Y-1434033D1*
X1239667Y-1437947D1*
X1237560Y-1441710D1*
X1235167Y-1445293D1*
X1232497Y-1448677D1*
X1226033Y-1455380D1*
X1102557Y-1578857D1*
X1099390Y-1581783D1*
X1096007Y-1584453D1*
X1092423Y-1586847D1*
X1088660Y-1588953D1*
X1084747Y-1590757D1*
X1080703Y-1592250D1*
X1076553Y-1593420D1*
X1072323Y-1594260D1*
X1068043Y-1594767D1*
X1058737Y-1594937D1*
X873217D1*
X868910Y-1594767D1*
X864630Y-1594260D1*
X860400Y-1593420D1*
X856250Y-1592250D1*
X852207Y-1590757D1*
X848293Y-1588953D1*
X844530Y-1586847D1*
X840947Y-1584453D1*
X837563Y-1581783D1*
X830860Y-1575320D1*
X786767Y-1531227D1*
X783840Y-1528060D1*
X781170Y-1524677D1*
X778777Y-1521093D1*
X776670Y-1517330D1*
X774867Y-1513417D1*
X773373Y-1509373D1*
X772203Y-1505223D1*
X771363Y-1500993D1*
X770857Y-1496713D1*
X770687Y-1487407D1*
Y-1349517D1*
X770857Y-1345210D1*
X771363Y-1340930D1*
X772203Y-1336700D1*
X773373Y-1332550D1*
X774867Y-1328507D1*
X776670Y-1324593D1*
X778777Y-1320830D1*
X781170Y-1317247D1*
X783840Y-1313863D1*
X790303Y-1307160D1*
X834397Y-1263067D1*
X837563Y-1260140D1*
X840947Y-1257470D1*
X844530Y-1255077D1*
X848293Y-1252970D1*
X852207Y-1251167D1*
X856250Y-1249673D1*
X860400Y-1248503D1*
X864630Y-1247663D1*
X868910Y-1247157D1*
X878217Y-1246987D1*
X882300D1*
X885900Y-1242660D1*
X889323Y-1239017D1*
X892943Y-1235570D1*
X896753Y-1232333D1*
X900737Y-1229313D1*
X904887Y-1226520D1*
X909183Y-1223967D1*
X913617Y-1221657D1*
X918173Y-1219597D1*
X922837Y-1217800D1*
X927593Y-1216263D1*
X932430Y-1214997D1*
X937330Y-1214003D1*
X942277Y-1213287D1*
X947257Y-1212847D1*
X952253Y-1212687D1*
X957253Y-1212807D1*
X962237Y-1213210D1*
X967190Y-1213887D1*
X972097Y-1214843D1*
X976943Y-1216073D1*
X981710Y-1217570D1*
X986390Y-1219333D1*
X990960Y-1221357D1*
X995413Y-1223633D1*
X999730Y-1226153D1*
X1003900Y-1228913D1*
X1007907Y-1231903D1*
X1011740Y-1235110D1*
X1015390Y-1238530D1*
X1018840Y-1242147D1*
X1022083Y-1245950D1*
X1024717Y-1249417D1*
X1024713Y-1007150D1*
X892453Y-874883D1*
X883173Y-878183D1*
X873540Y-880853D1*
X863737Y-882817D1*
X853817Y-884073D1*
X843833Y-884607D1*
X833840Y-884417D1*
X823883Y-883510D1*
X814017Y-881883D1*
X804297Y-879550D1*
X794767Y-876520D1*
X785483Y-872813D1*
X776490Y-868443D1*
X767837Y-863433D1*
X759567Y-857817D1*
X751727Y-851613D1*
X744353Y-844863D1*
X737483Y-837597D1*
X731160Y-829853D1*
X725410Y-821673D1*
X720267Y-813103D1*
X715753Y-804180D1*
X714443Y-801193D1*
X710850Y-808840D1*
X707027Y-815867D1*
X702803Y-822657D1*
X698193Y-829193D1*
X693213Y-835453D1*
X687880Y-841417D1*
X682213Y-847060D1*
X676227Y-852367D1*
X669947Y-857320D1*
X663390Y-861900D1*
X656577Y-866097D1*
X649537Y-869890D1*
X642287Y-873270D1*
X634853Y-876227D1*
X627263Y-878750D1*
X619540Y-880830D1*
X611710Y-882460D1*
X603797Y-883633D1*
X595830Y-884350D1*
X587833Y-884603D1*
X579840Y-884393D1*
X571867Y-883723D1*
X563950Y-882597D1*
X556110Y-881010D1*
X548373Y-878977D1*
X540767Y-876497D1*
X533320Y-873583D1*
X526050Y-870243D1*
X518987Y-866490D1*
X512150Y-862337D1*
X505567Y-857793D1*
X499260Y-852877D1*
X493243Y-847603D1*
X487543Y-841993D1*
X482177Y-836063D1*
X477160Y-829830D1*
X472513Y-823320D1*
X470837Y-820763D1*
Y-884600D1*
X194037D1*
Y-121253D1*
X-602577Y-121260D1*
X-602580Y-179760D1*
X-860567D1*
X-860580Y-261583D1*
X100000Y-261600D1*
X106007Y-262073D1*
X111867Y-263480D1*
X117433Y-265787D1*
X122570Y-268933D1*
X127153Y-272847D1*
X131067Y-277430D1*
X134213Y-282567D1*
X136520Y-288133D1*
X137927Y-293993D1*
X138400Y-300000D1*
Y-961583D1*
X200000Y-961600D1*
X206007Y-962073D1*
X211867Y-963480D1*
X217433Y-965787D1*
X222570Y-968933D1*
X227153Y-972847D1*
X231067Y-977430D1*
X234213Y-982567D1*
X236520Y-988133D1*
X237927Y-993993D1*
X238400Y-1000000D1*
X237927Y-1006007D1*
X236520Y-1011867D1*
X234213Y-1017433D1*
X231067Y-1022570D1*
X227153Y-1027153D1*
X222570Y-1031067D1*
X217433Y-1034213D1*
X211867Y-1036520D1*
X206007Y-1037927D1*
X200000Y-1038400D1*
X-1103013Y-1038283D1*
X-1108963Y-1037340D1*
X-1114697Y-1035477D1*
X-1120063Y-1032740D1*
X-1124940Y-1029200D1*
X-1134223Y-1020083D1*
X-1296957Y-857350D1*
X-1295290Y-864647D1*
X-1294210Y-866740D1*
X-1290377Y-869947D1*
X-1286727Y-873367D1*
X-1283277Y-876983D1*
X-1280033Y-880787D1*
X-1277010Y-884767D1*
X-1274213Y-888913D1*
X-1271653Y-893207D1*
X-1269337Y-897637D1*
X-1267273Y-902190D1*
X-1265467Y-906853D1*
X-1263927Y-911607D1*
X-1262653Y-916443D1*
X-1261653Y-921340D1*
X-1260930Y-926287D1*
X-1260483Y-931267D1*
X-1260317Y-936723D1*
X-1260457Y-941720D1*
X-1260877Y-946703D1*
X-1261573Y-951653D1*
X-1262550Y-956557D1*
X-1263797Y-961397D1*
X-1265313Y-966160D1*
X-1267097Y-970833D1*
X-1269137Y-975397D1*
X-1271430Y-979840D1*
X-1273967Y-984147D1*
X-1276743Y-988303D1*
X-1279747Y-992300D1*
X-1282970Y-996120D1*
X-1286403Y-999757D1*
X-1290033Y-1003193D1*
X-1293850Y-1006423D1*
X-1297843Y-1009430D1*
X-1301997Y-1012213D1*
X-1306300Y-1014757D1*
X-1310740Y-1017053D1*
X-1315300Y-1019100D1*
X-1319970Y-1020887D1*
X-1324733Y-1022410D1*
X-1329573Y-1023663D1*
X-1334473Y-1024647D1*
X-1339423Y-1025350D1*
X-1344403Y-1025777D1*
X-1349400Y-1025923D1*
X-1354400Y-1025790D1*
X-1359380Y-1025377D1*
X-1364333Y-1024683D1*
X-1369237Y-1023717D1*
X-1374080Y-1022473D1*
X-1378847Y-1020963D1*
X-1383520Y-1019187D1*
X-1388087Y-1017153D1*
X-1392530Y-1014867D1*
X-1396843Y-1012333D1*
X-1401003Y-1009563D1*
X-1405003Y-1006567D1*
X-1408830Y-1003347D1*
X-1412470Y-999920D1*
X-1415910Y-996293D1*
X-1419143Y-992480D1*
X-1422157Y-988490D1*
X-1424943Y-984340D1*
X-1427493Y-980040D1*
X-1429797Y-975603D1*
X-1431850Y-971043D1*
X-1433643Y-966377D1*
X-1435173Y-961617D1*
X-1436433Y-956780D1*
X-1437507Y-951280D1*
Y-1009247D1*
X-1390293Y-1056457D1*
X-333410Y-1056467D1*
X-329103Y-1056637D1*
X-324823Y-1057143D1*
X-320593Y-1057983D1*
X-316443Y-1059153D1*
X-312400Y-1060647D1*
X-308487Y-1062450D1*
X-304723Y-1064557D1*
X-301140Y-1066950D1*
X-297757Y-1069620D1*
X-291053Y-1076083D1*
X-151910Y-1215223D1*
X135610Y-1215233D1*
X135627Y-1151733D1*
X372427D1*
Y-1388533D1*
X135627D1*
Y-1325037D1*
X-174643Y-1325033D1*
X-178950Y-1324863D1*
X-183230Y-1324357D1*
X-187460Y-1323517D1*
X-191610Y-1322347D1*
X-195653Y-1320853D1*
X-199567Y-1319050D1*
X-203330Y-1316943D1*
X-206913Y-1314550D1*
X-210297Y-1311880D1*
X-217000Y-1305417D1*
X-356143Y-1166277D1*
X-1413023Y-1166267D1*
X-1417330Y-1166097D1*
X-1421610Y-1165590D1*
X-1425840Y-1164750D1*
X-1429990Y-1163580D1*
X-1434033Y-1162087D1*
X-1437947Y-1160283D1*
X-1441710Y-1158177D1*
X-1445293Y-1155783D1*
X-1448677Y-1153113D1*
X-1455380Y-1146650D1*
X-1531227Y-1070803D1*
X-1534153Y-1067637D1*
X-1536823Y-1064253D1*
X-1539217Y-1060670D1*
X-1541323Y-1056907D1*
X-1543127Y-1052993D1*
X-1544620Y-1048950D1*
X-1545790Y-1044800D1*
X-1546630Y-1040570D1*
X-1547137Y-1036290D1*
X-1547307Y-1026983D1*
Y-927707D1*
X-1610403Y-864613D1*
X-2136553Y-864610D1*
X-2140310Y-869107D1*
X-2144693Y-873643D1*
X-2113457Y-873647D1*
Y-1145447D1*
X-2300257D1*
Y-873647D1*
X-2269067D1*
X-2273250Y-869280D1*
X-2276483Y-865467D1*
X-2279497Y-861477D1*
X-2282283Y-857327D1*
X-2284833Y-853027D1*
X-2287137Y-848590D1*
X-2289190Y-844030D1*
X-2290983Y-839363D1*
X-2292513Y-834603D1*
X-2293773Y-829767D1*
X-2294760Y-824867D1*
X-2295470Y-819917D1*
X-2295903Y-814937D1*
X-2296057Y-809940D1*
X-2295930Y-804943D1*
X-2295523Y-799960D1*
X-2294837Y-795007D1*
X-2293873Y-790100D1*
X-2292640Y-785257D1*
X-2291133Y-780490D1*
X-2289367Y-775813D1*
X-2287337Y-771243D1*
X-2285057Y-766797D1*
X-2282530Y-762483D1*
X-2279763Y-758317D1*
X-2276053Y-753460D1*
X-2381500Y-753473D1*
X-2385807Y-753303D1*
X-2390087Y-752797D1*
X-2394317Y-751957D1*
X-2398467Y-750787D1*
X-2402510Y-749293D1*
X-2406423Y-747490D1*
X-2410187Y-745383D1*
X-2413770Y-742990D1*
X-2417153Y-740320D1*
X-2423857Y-733857D1*
X-2499703Y-658010D1*
X-2502630Y-654843D1*
X-2505300Y-651460D1*
X-2507693Y-647877D1*
X-2509800Y-644113D1*
X-2511603Y-640200D1*
X-2513097Y-636157D1*
X-2514267Y-632007D1*
X-2515107Y-627777D1*
X-2515613Y-623497D1*
X-2515783Y-614190D1*
Y-580460D1*
X-2550257Y-580447D1*
Y-308647D1*
X-2363457D1*
Y-580447D1*
X-2405977D1*
X-2405983Y-596443D1*
X-2358770Y-643663D1*
X-1524160Y-643673D1*
X-1519853Y-643843D1*
X-1515573Y-644350D1*
X-1511343Y-645190D1*
X-1507193Y-646360D1*
X-1503150Y-647853D1*
X-1499237Y-649657D1*
X-1495473Y-651763D1*
X-1491890Y-654157D1*
X-1488507Y-656827D1*
X-1481803Y-663290D1*
X-1337690Y-807403D1*
X-1338283Y-803013D1*
X-1338400Y-790000D1*
Y-300000D1*
X-1337927Y-293993D1*
X-1336520Y-288133D1*
X-1334210Y-282557D1*
X-1334580Y-280760D1*
X-1465380D1*
Y-79960D1*
X-1264580D1*
Y-261583D1*
X-1261380Y-260760D1*
Y-79960D1*
X-879367D1*
X-879380Y72097D1*
X-889093Y72113D1*
X-893400Y72283D1*
X-897680Y72790D1*
X-901910Y73630D1*
X-906060Y74800D1*
X-910103Y76293D1*
X-914017Y78097D1*
X-917780Y80203D1*
X-921363Y82597D1*
X-924747Y85267D1*
X-931450Y91730D1*
X-1023173Y183453D1*
X-1026100Y186620D1*
X-1028770Y190003D1*
X-1031163Y193587D1*
X-1033270Y197350D1*
X-1035073Y201263D1*
X-1036567Y205307D1*
X-1037737Y209457D1*
X-1038577Y213687D1*
X-1039083Y217967D1*
X-1039253Y227273D1*
Y263113D1*
X-1043667Y266787D1*
X-1047307Y270213D1*
X-1050747Y273840D1*
X-1053980Y277653D1*
X-1056993Y281643D1*
X-1059780Y285793D1*
X-1062330Y290093D1*
X-1064633Y294530D1*
X-1066687Y299090D1*
X-1068480Y303757D1*
X-1070010Y308517D1*
X-1071270Y313353D1*
X-1072257Y318253D1*
X-1072967Y323203D1*
X-1073400Y328183D1*
X-1073553Y333180D1*
X-1073427Y338177D1*
X-1073020Y343160D1*
X-1072333Y348113D1*
X-1071370Y353020D1*
X-1070137Y357863D1*
X-1068630Y362630D1*
X-1066863Y367307D1*
X-1064833Y371877D1*
X-1062553Y376323D1*
X-1060027Y380637D1*
X-1057260Y384803D1*
X-1054267Y388807D1*
X-1051053Y392637D1*
X-1047630Y396280D1*
X-1044010Y399727D1*
X-1040200Y402963D1*
X-1036217Y405983D1*
X-1032067Y408777D1*
X-1027770Y411330D1*
X-1023337Y413640D1*
X-1018780Y415700D1*
X-1014117Y417497D1*
X-1009360Y419033D1*
X-1004523Y420300D1*
X-999623Y421293D1*
X-994677Y422010D1*
X-989697Y422450D1*
X-984700Y422610D1*
X-979700Y422490D1*
X-974717Y422087D1*
X-969763Y421410D1*
X-964857Y420453D1*
X-960010Y419223D1*
X-955243Y417727D1*
X-950563Y415963D1*
X-945993Y413940D1*
X-941540Y411663D1*
X-937223Y409143D1*
X-933053Y406383D1*
X-929047Y403393D1*
X-925213Y400187D1*
X-921563Y396767D1*
X-918113Y393150D1*
X-914870Y389347D1*
X-911847Y385367D1*
X-909050Y381220D1*
X-906490Y376927D1*
X-904173Y372497D1*
X-902110Y367943D1*
X-900303Y363280D1*
X-898763Y358527D1*
X-897490Y353690D1*
X-896490Y348793D1*
X-895767Y343847D1*
X-895320Y338867D1*
X-895153Y333410D1*
X-895293Y328413D1*
X-895713Y323430D1*
X-896410Y318480D1*
X-897387Y313577D1*
X-898633Y308737D1*
X-900150Y303973D1*
X-901933Y299300D1*
X-903973Y294737D1*
X-906267Y290293D1*
X-908803Y285987D1*
X-911580Y281830D1*
X-914583Y277833D1*
X-917807Y274013D1*
X-921240Y270377D1*
X-924870Y266940D1*
X-929450Y263137D1*
X-929453Y245030D1*
X-879367Y194927D1*
X-879380Y469360D1*
X-886033Y470547D1*
X-890183Y471717D1*
X-894227Y473210D1*
X-898140Y475013D1*
X-901903Y477120D1*
X-905487Y479513D1*
X-908870Y482183D1*
X-915573Y488647D1*
X-972900Y545973D1*
X-978340Y546413D1*
X-983293Y547107D1*
X-988197Y548073D1*
X-993040Y549317D1*
X-997807Y550827D1*
X-1002480Y552603D1*
X-1007047Y554637D1*
X-1011490Y556923D1*
X-1015803Y559457D1*
X-1019963Y562227D1*
X-1023963Y565223D1*
X-1027790Y568443D1*
X-1031430Y571870D1*
X-1034870Y575497D1*
X-1038103Y579310D1*
X-1041117Y583300D1*
X-1043903Y587450D1*
X-1046453Y591750D1*
X-1048757Y596187D1*
X-1050810Y600747D1*
X-1052603Y605413D1*
X-1054133Y610173D1*
X-1055393Y615010D1*
X-1056380Y619910D1*
X-1057090Y624860D1*
X-1057523Y629840D1*
X-1057677Y634837D1*
X-1057550Y639833D1*
X-1057143Y644817D1*
X-1056457Y649770D1*
X-1055493Y654677D1*
X-1054260Y659520D1*
X-1052753Y664287D1*
X-1050987Y668963D1*
X-1048957Y673533D1*
X-1046677Y677980D1*
X-1044150Y682293D1*
X-1041383Y686460D1*
X-1037673Y691317D1*
X-1406140Y691303D1*
X-1532757Y564703D1*
X-1532767Y356090D1*
X-1528527Y352557D1*
X-1524877Y349137D1*
X-1521427Y345520D1*
X-1518183Y341717D1*
X-1515160Y337737D1*
X-1512363Y333590D1*
X-1509803Y329297D1*
X-1507487Y324867D1*
X-1505423Y320313D1*
X-1503617Y315650D1*
X-1502077Y310897D1*
X-1500803Y306060D1*
X-1499803Y301163D1*
X-1499080Y296217D1*
X-1498633Y291237D1*
X-1498467Y285780D1*
X-1498607Y280783D1*
X-1499027Y275800D1*
X-1499723Y270850D1*
X-1500700Y265947D1*
X-1501947Y261107D1*
X-1503463Y256343D1*
X-1505247Y251670D1*
X-1507287Y247107D1*
X-1509580Y242663D1*
X-1512117Y238357D1*
X-1514893Y234200D1*
X-1517897Y230203D1*
X-1521120Y226383D1*
X-1524553Y222747D1*
X-1528183Y219310D1*
X-1532000Y216080D1*
X-1535993Y213073D1*
X-1540147Y210290D1*
X-1544450Y207747D1*
X-1548890Y205450D1*
X-1553450Y203403D1*
X-1558120Y201617D1*
X-1562883Y200093D1*
X-1567723Y198840D1*
X-1572623Y197857D1*
X-1577573Y197153D1*
X-1582553Y196727D1*
X-1587550Y196580D1*
X-1592550Y196713D1*
X-1597530Y197127D1*
X-1602483Y197820D1*
X-1607387Y198787D1*
X-1612230Y200030D1*
X-1616997Y201540D1*
X-1621670Y203317D1*
X-1626237Y205350D1*
X-1630680Y207637D1*
X-1634993Y210170D1*
X-1639153Y212940D1*
X-1643153Y215937D1*
X-1646980Y219157D1*
X-1650620Y222583D1*
X-1654060Y226210D1*
X-1657293Y230023D1*
X-1660307Y234013D1*
X-1663093Y238163D1*
X-1665643Y242463D1*
X-1667947Y246900D1*
X-1670000Y251460D1*
X-1671793Y256127D1*
X-1673323Y260887D1*
X-1674583Y265723D1*
X-1675570Y270623D1*
X-1676280Y275573D1*
X-1676713Y280553D1*
X-1676867Y285550D1*
X-1676740Y290547D1*
X-1676333Y295530D1*
X-1675647Y300483D1*
X-1674683Y305390D1*
X-1673450Y310233D1*
X-1671943Y315000D1*
X-1670177Y319677D1*
X-1668147Y324247D1*
X-1665867Y328693D1*
X-1663340Y333007D1*
X-1660573Y337173D1*
X-1657580Y341177D1*
X-1654367Y345007D1*
X-1650943Y348650D1*
X-1647323Y352097D1*
X-1642563Y356053D1*
X-1642567Y587437D1*
X-1642397Y591743D1*
X-1641890Y596023D1*
X-1641050Y600253D1*
X-1639880Y604403D1*
X-1638387Y608447D1*
X-1636583Y612360D1*
X-1634477Y616123D1*
X-1632083Y619707D1*
X-1629413Y623090D1*
X-1622950Y629793D1*
X-1467720Y785023D1*
X-1464553Y787950D1*
X-1461170Y790620D1*
X-1457587Y793013D1*
X-1453823Y795120D1*
X-1449910Y796923D1*
X-1445867Y798417D1*
X-1441717Y799587D1*
X-1437487Y800427D1*
X-1433207Y800933D1*
X-1423900Y801103D1*
X-879387D1*
X-879380Y881823D1*
X-882830Y881147D1*
X-886053Y877327D1*
X-889487Y873690D1*
X-893117Y870253D1*
X-896933Y867023D1*
X-900927Y864017D1*
X-905080Y861233D1*
X-909383Y858690D1*
X-913823Y856393D1*
X-918383Y854347D1*
X-923053Y852560D1*
X-927817Y851037D1*
X-932657Y849783D1*
X-937557Y848800D1*
X-942507Y848097D1*
X-947487Y847670D1*
X-952483Y847523D1*
X-957483Y847657D1*
X-962463Y848070D1*
X-967417Y848763D1*
X-972320Y849730D1*
X-977163Y850973D1*
X-981930Y852483D1*
X-986603Y854260D1*
X-991170Y856293D1*
X-995613Y858580D1*
X-999927Y861113D1*
X-1004087Y863883D1*
X-1008087Y866880D1*
X-1011913Y870100D1*
X-1015553Y873527D1*
X-1018993Y877153D1*
X-1022227Y880967D1*
X-1025240Y884957D1*
X-1028027Y889107D1*
X-1030577Y893407D1*
X-1032880Y897843D1*
X-1034933Y902403D1*
X-1036727Y907070D1*
X-1038257Y911830D1*
X-1039517Y916667D1*
X-1040503Y921567D1*
X-1041213Y926517D1*
X-1041647Y931497D1*
X-1041800Y936493D1*
X-1041673Y941490D1*
X-1041267Y946473D1*
X-1040580Y951427D1*
X-1039617Y956333D1*
X-1038383Y961177D1*
X-1036877Y965943D1*
X-1035110Y970620D1*
X-1033080Y975190D1*
X-1030800Y979637D1*
X-1028273Y983950D1*
X-1025507Y988117D1*
X-1022513Y992120D1*
X-1019300Y995950D1*
X-1015877Y999593D1*
X-1012257Y1003040D1*
X-1008447Y1006277D1*
X-1004463Y1009297D1*
X-1000313Y1012090D1*
X-996017Y1014643D1*
X-991583Y1016953D1*
X-987027Y1019013D1*
X-982363Y1020810D1*
X-977607Y1022347D1*
X-972770Y1023613D1*
X-967870Y1024607D1*
X-962923Y1025323D1*
X-957943Y1025763D1*
X-952947Y1025923D1*
X-947947Y1025803D1*
X-942963Y1025400D1*
X-938010Y1024723D1*
X-933103Y1023767D1*
X-928257Y1022537D1*
X-923490Y1021040D1*
X-918810Y1019277D1*
X-914240Y1017253D1*
X-909787Y1014977D1*
X-905470Y1012457D1*
X-901300Y1009697D1*
X-897293Y1006707D1*
X-893460Y1003500D1*
X-889810Y1000080D1*
X-886360Y996463D1*
X-882327Y991617D1*
X-879380Y995240D1*
Y1047040D1*
X-866390D1*
X-866380Y1220250D1*
X-879380Y1220240D1*
Y1441587D1*
X-2052573Y1441600D1*
X-2052580Y390497D1*
X-2047950Y392217D1*
X-2046677Y392963D1*
X-2024900Y414743D1*
Y895067D1*
X-2027657Y903107D1*
X-2028917Y907943D1*
X-2029903Y912843D1*
X-2030613Y917793D1*
X-2031047Y922773D1*
X-2031200Y927770D1*
X-2031073Y932767D1*
X-2030667Y937750D1*
X-2029980Y942703D1*
X-2029017Y947610D1*
X-2027783Y952453D1*
X-2026277Y957220D1*
X-2024510Y961897D1*
X-2022480Y966467D1*
X-2020200Y970913D1*
X-2017673Y975227D1*
X-2014907Y979393D1*
X-2011913Y983397D1*
X-2008700Y987227D1*
X-2005277Y990870D1*
X-2001657Y994317D1*
X-1997847Y997553D1*
X-1993863Y1000573D1*
X-1989713Y1003367D1*
X-1985417Y1005920D1*
X-1980983Y1008230D1*
X-1976427Y1010290D1*
X-1971763Y1012087D1*
X-1967007Y1013623D1*
X-1962170Y1014890D1*
X-1957270Y1015883D1*
X-1952323Y1016600D1*
X-1947343Y1017040D1*
X-1942347Y1017200D1*
X-1937347Y1017080D1*
X-1932363Y1016677D1*
X-1927410Y1016000D1*
X-1922503Y1015043D1*
X-1917657Y1013813D1*
X-1912890Y1012317D1*
X-1908210Y1010553D1*
X-1903640Y1008530D1*
X-1899187Y1006253D1*
X-1894870Y1003733D1*
X-1890700Y1000973D1*
X-1886693Y997983D1*
X-1882860Y994777D1*
X-1879210Y991357D1*
X-1875760Y987740D1*
X-1872517Y983937D1*
X-1869493Y979957D1*
X-1866697Y975810D1*
X-1864137Y971517D1*
X-1861820Y967087D1*
X-1859757Y962533D1*
X-1857950Y957870D1*
X-1856410Y953117D1*
X-1855137Y948280D1*
X-1854137Y943383D1*
X-1853413Y938437D1*
X-1852967Y933457D1*
X-1852800Y928000D1*
X-1852940Y923003D1*
X-1853360Y918020D1*
X-1854057Y913070D1*
X-1855033Y908167D1*
X-1856280Y903327D1*
X-1857797Y898563D1*
X-1859580Y893890D1*
X-1861620Y889327D1*
X-1863913Y884883D1*
X-1866450Y880577D1*
X-1869227Y876420D1*
X-1872230Y872423D1*
X-1875453Y868603D1*
X-1878887Y864967D1*
X-1882517Y861530D1*
X-1886333Y858300D1*
X-1890327Y855293D1*
X-1894480Y852510D1*
X-1898783Y849967D1*
X-1903223Y847670D1*
X-1907783Y845623D1*
X-1915113Y842983D1*
X-1915100Y392000D1*
X-1915270Y387693D1*
X-1915777Y383413D1*
X-1916617Y379183D1*
X-1917787Y375033D1*
X-1919280Y370990D1*
X-1921083Y367077D1*
X-1923190Y363313D1*
X-1925583Y359730D1*
X-1928253Y356347D1*
X-1934717Y349643D1*
X-1983180Y301180D1*
X-1986347Y298253D1*
X-1989730Y295583D1*
X-1993313Y293190D1*
X-1997077Y291083D1*
X-2000990Y289280D1*
X-2005050Y287783D1*
X720453Y1050847D2*
D15*
X867213D1*
X135647Y-1524133D2*
X372407D1*
X-785200Y-1286037D2*
X-548440D1*
X-2445527Y-63507D2*
X-2342147D1*
X195647Y1111367D2*
X254027D1*
X644027Y1111347D2*
X702407D1*
X-2329360Y-66360D2*
X-2052600D1*
X-3098193Y-714450D2*
X-2871433D1*
X-3098193Y-1364450D2*
X-2871433D1*
X-3775437Y-1365393D2*
X-3548677D1*
X-3775437Y-715393D2*
X-3548677D1*
D20*
X793833Y920847D3*
Y1050847D3*
D21*
X254027Y-1270133D3*
D22*
Y-1524133D3*
D21*
X-666820Y-1540037D3*
D22*
Y-1286037D3*
D20*
X-3080073Y841463D3*
Y971463D3*
X237667Y1439333D3*
Y1309333D3*
X597000Y1541333D3*
Y1411333D3*
X571560Y222273D3*
Y352273D3*
D19*
X0Y301657D3*
X130000D3*
X308000Y43000D3*
X438000D3*
D40*
X-3238840Y-1047860D3*
X-3428840D3*
X-2635527Y-63507D3*
X-2445527D3*
D42*
X-2206857Y-1009547D3*
X-2456857D3*
X-2706857D3*
Y-444547D3*
X-2456857D3*
X-2206857D3*
D49*
X254027Y1111367D3*
X319027D3*
X384027D3*
X449027D3*
X514027D3*
X579027D3*
X644027Y1111347D3*
Y531367D3*
X579027D3*
X514027D3*
X449027D3*
X384027D3*
X319027D3*
X254027D3*
D50*
X587437Y-238150D3*
X841437Y-238173D3*
X1095437D3*
D51*
X332437Y-238147D3*
D50*
X587437Y-492177D3*
X841437Y-492200D3*
X1095437D3*
D51*
X332437Y-492173D3*
D50*
X587437Y-746203D3*
X841437Y-746227D3*
X1095437D3*
D51*
X332437Y-746200D3*
D52*
X-740980Y1333640D3*
Y1133640D3*
Y933640D3*
Y733640D3*
Y533640D3*
Y333640D3*
Y133640D3*
Y-66360D3*
X-2190980Y1333640D3*
Y1133640D3*
Y933640D3*
Y733640D3*
Y533640D3*
Y333640D3*
Y133640D3*
Y-66360D3*
D53*
X-960980Y-180360D3*
X-1160980D3*
X-1364980D3*
X-1568980D3*
X-1768980D3*
X-1968980D3*
D54*
X-2984813Y-714450D3*
Y-1364450D3*
X-3434813Y-714450D3*
Y-1364450D3*
X-4112057Y-1365393D3*
Y-715393D3*
X-3662057Y-1365393D3*
Y-715393D3*
D50*
X-2508513Y1397147D3*
D51*
X-2509513Y1143150D3*
D60*
X-3080073Y660520D3*
Y1143120D3*
G36*
X200000Y-1000000D2*
X-1100000D1*
X-1300000Y-800000D1*
D1*
Y-300000D1*
X100000D1*
Y-1000000D1*
D1*
X200000D1*
G37*
M02*
