M48
METRIC,0000.00
T01C0.486
T02C0.813
T03C0.9
T04C1.0
%
T01
X+000000Y+000873
X+000000Y+000667
X+000000Y+000524
X+000000Y+000397
X+000254Y+000191
X+000571Y+000126
X+000771Y+000529
X+000842Y+000759
X+000396Y+001383
X-000309Y+000737
X-000540Y+000333
X-000984Y+000333
X-000968Y+000635
X-000953Y+000937
X-001588Y+000286
X-001985Y+000143
X-002636Y+000318
X-002810Y+000050
X-002461Y+000635
X-001942Y+000928
X-003572Y+000667
X-003826Y+000349
X-003985Y+000349
X-004112Y+000460
X-004400Y+000995
X-004289Y+001235
X-004096Y+001080
X-002699Y-000651
X-002207Y-000810
X-001651Y-000984
X-001350Y-000937
X+000562Y-001105
X+000953Y-001302
X+000953Y-001429
T02
X-003080Y+000661
X-003080Y+001143
T03
X+000254Y-001270
X+000254Y-001524
X+000332Y-000746
X+000332Y-000492
X+000332Y-000238
X+000587Y-000238
X+000841Y-000238
X+001095Y-000238
X+001095Y-000492
X+000841Y-000492
X+000587Y-000492
X+000587Y-000746
X+000841Y-000746
X+001095Y-000746
X-000667Y-001286
X-000667Y-001540
X-002985Y-001364
X-003435Y-001364
X-003662Y-001365
X-004112Y-001365
X-004112Y-000715
X-003662Y-000715
X-003435Y-000714
X-002985Y-000714
X-002510Y+001143
X-002509Y+001397
T04
X+000892Y+000356
X+000889Y+001156
T00
M30
