G04 DipTrace 3.0.0.1*
G04 ESP-12E_BASE_V2.2-2.gbo*
%MOMM*%
G04 #@! TF.FileFunction,Legend,Bot*
G04 #@! TF.Part,Single*
%ADD10C,0.25*%
%ADD17O,0.50012X0.5*%
%ADD28C,0.05*%
%ADD48O,0.39124X0.39194*%
%ADD124C,0.07843*%
%ADD125C,0.15686*%
%ADD126C,0.23529*%
%FSLAX35Y35*%
G04*
G71*
G90*
G75*
G01*
G04 BotSilk*
%LPD*%
D17*
X1848806Y1655800D3*
X2104800Y3110880D2*
D10*
Y3270720D1*
X2123720Y3110880D2*
Y3270720D1*
Y3110880D2*
X2063880D1*
X2123720Y3270720D2*
X2063880D1*
D17*
X2992794Y2690800D3*
X4465853Y2584850D2*
D10*
Y2714750D1*
X4669750Y1496853D2*
X4539850D1*
X1497837Y3390775D2*
D28*
X2968773D1*
Y4861800D1*
X1497837D1*
Y3390775D1*
X3263300Y5122800D2*
D10*
X4763300D1*
Y1022800D1*
X3263300D1*
Y5122800D1*
D48*
X2360156Y1820106D3*
X2362796Y2046801D2*
D10*
X1702828D1*
X2362796Y2326799D2*
X1702828D1*
Y2046801D2*
Y2326799D1*
X2362796Y2046801D2*
Y2326799D1*
D48*
X2505444Y2539494D3*
X2502804Y2312799D2*
D10*
X3162772D1*
X2502804Y2032801D2*
X3162772D1*
Y2312799D2*
Y2032801D1*
X2502804Y2312799D2*
Y2032801D1*
X1594826Y1561808D2*
Y1261792D1*
X1374774D2*
Y1561808D1*
Y1261792D2*
X1594826D1*
Y1561808D2*
X1524820D1*
X1444780D2*
X1374774D1*
X1524820D2*
G02X1444780Y1561808I-40020J28D01*
G01*
X2088936Y1519565D2*
D124*
X2091350Y1524395D1*
X2096236Y1529280D1*
X2101065Y1531695D1*
X2110780D1*
X2115665Y1529280D1*
X2120494Y1524395D1*
X2122965Y1519565D1*
X2125380Y1512265D1*
Y1500080D1*
X2122965Y1492836D1*
X2120494Y1487951D1*
X2115665Y1483122D1*
X2110780Y1480651D1*
X2101065D1*
X2096236Y1483122D1*
X2091350Y1487951D1*
X2088936Y1492836D1*
X2068364Y1531638D2*
X2041691D1*
X2056235Y1512209D1*
X2048935D1*
X2044106Y1509795D1*
X2041691Y1507380D1*
X2039220Y1500080D1*
Y1495251D1*
X2041691Y1487951D1*
X2046520Y1483065D1*
X2053820Y1480651D1*
X2061120D1*
X2068364Y1483065D1*
X2070779Y1485536D1*
X2073250Y1490365D1*
X2433643Y3182065D2*
X2436058Y3186895D1*
X2440943Y3191780D1*
X2445772Y3194195D1*
X2455487D1*
X2460372Y3191780D1*
X2465202Y3186895D1*
X2467672Y3182065D1*
X2470087Y3174765D1*
Y3162580D1*
X2467672Y3155336D1*
X2465202Y3150451D1*
X2460372Y3145622D1*
X2455487Y3143151D1*
X2445772D1*
X2440943Y3145622D1*
X2436058Y3150451D1*
X2433643Y3155336D1*
X2393642Y3143151D2*
Y3194138D1*
X2417957Y3160165D1*
X2381513D1*
X2693936Y2880565D2*
X2696350Y2885395D1*
X2701236Y2890280D1*
X2706065Y2892695D1*
X2715780D1*
X2720665Y2890280D1*
X2725494Y2885395D1*
X2727965Y2880565D1*
X2730380Y2873265D1*
Y2861080D1*
X2727965Y2853836D1*
X2725494Y2848951D1*
X2720665Y2844122D1*
X2715780Y2841651D1*
X2706065D1*
X2701236Y2844122D1*
X2696350Y2848951D1*
X2693936Y2853836D1*
X2649106Y2892638D2*
X2673364D1*
X2675779Y2870795D1*
X2673364Y2873209D1*
X2666064Y2875680D1*
X2658820D1*
X2651520Y2873209D1*
X2646635Y2868380D1*
X2644220Y2861080D1*
Y2856251D1*
X2646635Y2848951D1*
X2651520Y2844065D1*
X2658820Y2841651D1*
X2666064D1*
X2673364Y2844065D1*
X2675779Y2846536D1*
X2678250Y2851365D1*
X1184200Y1814065D2*
X1186615Y1818895D1*
X1191500Y1823780D1*
X1196330Y1826195D1*
X1206044D1*
X1210930Y1823780D1*
X1215759Y1818895D1*
X1218230Y1814065D1*
X1220644Y1806765D1*
Y1794580D1*
X1218230Y1787336D1*
X1215759Y1782451D1*
X1210930Y1777622D1*
X1206044Y1775151D1*
X1196330D1*
X1191500Y1777622D1*
X1186615Y1782451D1*
X1184200Y1787336D1*
X1139370Y1818895D2*
X1141785Y1823724D1*
X1149085Y1826138D1*
X1153914D1*
X1161214Y1823724D1*
X1166100Y1816424D1*
X1168514Y1804295D1*
Y1792165D1*
X1166100Y1782451D1*
X1161214Y1777565D1*
X1153914Y1775151D1*
X1151500D1*
X1144256Y1777565D1*
X1139370Y1782451D1*
X1136956Y1789751D1*
Y1792165D1*
X1139370Y1799465D1*
X1144256Y1804295D1*
X1151500Y1806709D1*
X1153914D1*
X1161214Y1804295D1*
X1166100Y1799465D1*
X1168514Y1792165D1*
X1866436Y1193065D2*
X1868850Y1197895D1*
X1873736Y1202780D1*
X1878565Y1205195D1*
X1888280D1*
X1893165Y1202780D1*
X1897994Y1197895D1*
X1900465Y1193065D1*
X1902880Y1185765D1*
Y1173580D1*
X1900465Y1166336D1*
X1897994Y1161451D1*
X1893165Y1156622D1*
X1888280Y1154151D1*
X1878565D1*
X1873736Y1156622D1*
X1868850Y1161451D1*
X1866436Y1166336D1*
X1841035Y1154151D2*
X1816720Y1205138D1*
X1850750D1*
X4582434Y2678065D2*
X4584849Y2682895D1*
X4589734Y2687780D1*
X4594564Y2690195D1*
X4604278D1*
X4609164Y2687780D1*
X4613993Y2682895D1*
X4616464Y2678065D1*
X4618878Y2670765D1*
Y2658580D1*
X4616464Y2651336D1*
X4613993Y2646451D1*
X4609164Y2641622D1*
X4604278Y2639151D1*
X4594564D1*
X4589734Y2641622D1*
X4584849Y2646451D1*
X4582434Y2651336D1*
X4554619Y2690138D2*
X4561863Y2687724D1*
X4564334Y2682895D1*
Y2678009D1*
X4561863Y2673180D1*
X4557034Y2670709D1*
X4547319Y2668295D1*
X4540019Y2665880D1*
X4535190Y2660995D1*
X4532775Y2656165D1*
Y2648865D1*
X4535190Y2644036D1*
X4537604Y2641565D1*
X4544904Y2639151D1*
X4554619D1*
X4561863Y2641565D1*
X4564334Y2644036D1*
X4566748Y2648865D1*
Y2656165D1*
X4564334Y2660995D1*
X4559448Y2665880D1*
X4552204Y2668295D1*
X4542490Y2670709D1*
X4537604Y2673180D1*
X4535190Y2678009D1*
Y2682895D1*
X4537604Y2687724D1*
X4544904Y2690138D1*
X4554619D1*
X4610229Y1598119D2*
X4612643Y1602948D1*
X4617529Y1607833D1*
X4622358Y1610248D1*
X4632072D1*
X4636958Y1607833D1*
X4641787Y1602948D1*
X4644258Y1598119D1*
X4646672Y1590819D1*
Y1578633D1*
X4644258Y1571390D1*
X4641787Y1566504D1*
X4636958Y1561675D1*
X4632072Y1559204D1*
X4622358D1*
X4617529Y1561675D1*
X4612643Y1566504D1*
X4610229Y1571390D1*
X4562928Y1593233D2*
X4565398Y1585933D1*
X4570228Y1581048D1*
X4577528Y1578633D1*
X4579942D1*
X4587242Y1581048D1*
X4592071Y1585933D1*
X4594542Y1593233D1*
Y1595648D1*
X4592071Y1602948D1*
X4587242Y1607777D1*
X4579942Y1610192D1*
X4577528D1*
X4570228Y1607777D1*
X4565398Y1602948D1*
X4562928Y1593233D1*
Y1581048D1*
X4565398Y1568919D1*
X4570228Y1561619D1*
X4577528Y1559204D1*
X4582357D1*
X4589657Y1561619D1*
X4592071Y1566504D1*
X2248579Y4963195D2*
Y4924336D1*
X2250993Y4917036D1*
X2253464Y4914622D1*
X2258293Y4912151D1*
X2263179D1*
X2268008Y4914622D1*
X2270422Y4917036D1*
X2272893Y4924336D1*
Y4929165D1*
X2232892Y4953424D2*
X2228007Y4955895D1*
X2220707Y4963138D1*
Y4912151D1*
X4007807Y5146151D2*
Y5197195D1*
X4027236Y5146151D1*
X4046665Y5197195D1*
Y5146151D1*
X3992120Y5187424D2*
X3987235Y5189895D1*
X3979935Y5197138D1*
Y5146151D1*
X1758672Y3285880D2*
X1736829D1*
X1729529Y3288351D1*
X1727058Y3290765D1*
X1724643Y3295595D1*
Y3300480D1*
X1727058Y3305309D1*
X1729529Y3307780D1*
X1736829Y3310195D1*
X1758672D1*
Y3259151D1*
X1741658Y3285880D2*
X1724643Y3259151D1*
X1706486Y3298009D2*
Y3300424D1*
X1704071Y3305309D1*
X1701657Y3307724D1*
X1696771Y3310138D1*
X1687057D1*
X1682228Y3307724D1*
X1679813Y3305309D1*
X1677342Y3300424D1*
Y3295595D1*
X1679813Y3290709D1*
X1684642Y3283465D1*
X1708957Y3259151D1*
X1674928D1*
X1164672Y4101880D2*
X1142829D1*
X1135529Y4104351D1*
X1133058Y4106765D1*
X1130643Y4111595D1*
Y4116480D1*
X1133058Y4121309D1*
X1135529Y4123780D1*
X1142829Y4126195D1*
X1164672D1*
Y4075151D1*
X1147658Y4101880D2*
X1130643Y4075151D1*
X1110071Y4126138D2*
X1083398D1*
X1097942Y4106709D1*
X1090642D1*
X1085813Y4104295D1*
X1083398Y4101880D1*
X1080928Y4094580D1*
Y4089751D1*
X1083398Y4082451D1*
X1088228Y4077565D1*
X1095528Y4075151D1*
X1102828D1*
X1110071Y4077565D1*
X1112486Y4080036D1*
X1114957Y4084865D1*
X1176880Y1174880D2*
X1155036D1*
X1147736Y1177351D1*
X1145265Y1179765D1*
X1142850Y1184595D1*
Y1189480D1*
X1145265Y1194309D1*
X1147736Y1196780D1*
X1155036Y1199195D1*
X1176880D1*
Y1148151D1*
X1159865Y1174880D2*
X1142850Y1148151D1*
X1102850D2*
Y1199138D1*
X1127164Y1165165D1*
X1090720D1*
X1606224Y2093695D2*
Y2057251D1*
X1603809Y2049951D1*
X1598924Y2045122D1*
X1591624Y2042651D1*
X1586795D1*
X1579495Y2045122D1*
X1574609Y2049951D1*
X1572195Y2057251D1*
Y2093695D1*
X1556508Y2083924D2*
X1551623Y2086395D1*
X1544323Y2093638D1*
Y2042651D1*
X3205199Y2792695D2*
Y2756251D1*
X3202784Y2748951D1*
X3197899Y2744122D1*
X3190599Y2741651D1*
X3185770D1*
X3178470Y2744122D1*
X3173584Y2748951D1*
X3171170Y2756251D1*
Y2792695D1*
X3153013Y2780509D2*
Y2782924D1*
X3150598Y2787809D1*
X3148184Y2790224D1*
X3143298Y2792638D1*
X3133584D1*
X3128754Y2790224D1*
X3126340Y2787809D1*
X3123869Y2782924D1*
Y2778095D1*
X3126340Y2773209D1*
X3131169Y2765965D1*
X3155484Y2741651D1*
X3121454D1*
X1454672Y1681203D2*
Y1644759D1*
X1452258Y1637459D1*
X1447372Y1632630D1*
X1440072Y1630159D1*
X1435243D1*
X1427943Y1632630D1*
X1423058Y1637459D1*
X1420643Y1644759D1*
Y1681203D1*
X1400071Y1681147D2*
X1373398D1*
X1387942Y1661718D1*
X1380642D1*
X1375813Y1659303D1*
X1373398Y1656888D1*
X1370928Y1649588D1*
Y1644759D1*
X1373398Y1637459D1*
X1378228Y1632574D1*
X1385528Y1630159D1*
X1392828D1*
X1400071Y1632574D1*
X1402486Y1635045D1*
X1404957Y1639874D1*
X4164800Y4848096D2*
D125*
X4203771Y4950183D1*
X4242629Y4848096D1*
X4228029Y4882125D2*
X4179400D1*
X4129765Y5004953D2*
D126*
Y4851822D1*
X4180809Y5004953D2*
X4078721D1*
X4024491Y4950183D2*
D125*
X4087608D1*
Y4848096D1*
X4024491D1*
X4087608Y4901554D2*
X4048750D1*
X3920231Y4925925D2*
X3925060Y4935583D1*
X3934831Y4945354D1*
X3944489Y4950183D1*
X3963919D1*
X3973689Y4945354D1*
X3983348Y4935583D1*
X3988289Y4925925D1*
X3993119Y4911325D1*
Y4886954D1*
X3988289Y4872466D1*
X3983348Y4862696D1*
X3973689Y4853037D1*
X3963919Y4848096D1*
X3944489D1*
X3934831Y4853037D1*
X3925060Y4862696D1*
X3920231Y4872466D1*
X3888858Y4950183D2*
Y4848096D1*
X3820800Y4950183D2*
Y4848096D1*
X3888858Y4901554D2*
X3820800D1*
X4379378Y4797453D2*
D124*
X4410936D1*
Y4746409D1*
X4379378D1*
X4410936Y4773139D2*
X4391507D1*
X4329662Y4790153D2*
X4334492Y4795039D1*
X4341792Y4797453D1*
X4351506D1*
X4358806Y4795039D1*
X4363692Y4790153D1*
Y4785324D1*
X4361221Y4780439D1*
X4358806Y4778024D1*
X4353977Y4775609D1*
X4339377Y4770724D1*
X4334492Y4768309D1*
X4332077Y4765839D1*
X4329662Y4761009D1*
Y4753709D1*
X4334492Y4748880D1*
X4341792Y4746409D1*
X4351506D1*
X4358806Y4748880D1*
X4363692Y4753709D1*
X4313976Y4770724D2*
X4292076D1*
X4284832Y4773139D1*
X4282361Y4775609D1*
X4279947Y4780439D1*
Y4787739D1*
X4282361Y4792568D1*
X4284832Y4795039D1*
X4292076Y4797453D1*
X4313976D1*
Y4746409D1*
X4264261Y4771903D2*
X4236184D1*
X4220497Y4787683D2*
X4215612Y4790153D1*
X4208312Y4797397D1*
Y4746409D1*
X4190155Y4785268D2*
Y4787683D1*
X4187740Y4792568D1*
X4185326Y4794983D1*
X4180440Y4797397D1*
X4170726D1*
X4165896Y4794983D1*
X4163482Y4792568D1*
X4161011Y4787683D1*
Y4782853D1*
X4163482Y4777968D1*
X4168311Y4770724D1*
X4192626Y4746409D1*
X4158596D1*
X4111352Y4797453D2*
X4142910D1*
Y4746409D1*
X4111352D1*
X4142910Y4773139D2*
X4123481D1*
X4095665Y4737986D2*
X4049507D1*
X4033821Y4797453D2*
Y4746409D1*
X4011921D1*
X4004621Y4748880D1*
X4002206Y4751295D1*
X3999792Y4756124D1*
Y4763424D1*
X4002206Y4768309D1*
X4004621Y4770724D1*
X4011921Y4773139D1*
X4004621Y4775609D1*
X4002206Y4778024D1*
X3999792Y4782853D1*
Y4787739D1*
X4002206Y4792568D1*
X4004621Y4795039D1*
X4011921Y4797453D1*
X4033821D1*
Y4773139D2*
X4011921D1*
X3945191Y4746409D2*
X3964676Y4797453D1*
X3984105Y4746409D1*
X3976805Y4763424D2*
X3952491D1*
X3895475Y4790153D2*
X3900304Y4795039D1*
X3907604Y4797453D1*
X3917319D1*
X3924619Y4795039D1*
X3929504Y4790153D1*
Y4785324D1*
X3927034Y4780439D1*
X3924619Y4778024D1*
X3919790Y4775609D1*
X3905190Y4770724D1*
X3900304Y4768309D1*
X3897890Y4765839D1*
X3895475Y4761009D1*
Y4753709D1*
X3900304Y4748880D1*
X3907604Y4746409D1*
X3917319D1*
X3924619Y4748880D1*
X3929504Y4753709D1*
X3848230Y4797453D2*
X3879789D1*
Y4746409D1*
X3848230D1*
X3879789Y4773139D2*
X3860360D1*
X3832544Y4737986D2*
X3786386D1*
X3770699Y4797453D2*
X3751270Y4746409D1*
X3731841Y4797453D1*
X3713684Y4785268D2*
Y4787683D1*
X3711269Y4792568D1*
X3708855Y4794983D1*
X3703969Y4797397D1*
X3694255D1*
X3689425Y4794983D1*
X3687011Y4792568D1*
X3684540Y4787683D1*
Y4782853D1*
X3687011Y4777968D1*
X3691840Y4770724D1*
X3716155Y4746409D1*
X3682125D1*
X3664025Y4751295D2*
X3666439Y4748824D1*
X3664025Y4746409D1*
X3661554Y4748824D1*
X3664025Y4751295D1*
X3643397Y4785268D2*
Y4787683D1*
X3640982Y4792568D1*
X3638567Y4794983D1*
X3633682Y4797397D1*
X3623967D1*
X3619138Y4794983D1*
X3616724Y4792568D1*
X3614253Y4787683D1*
Y4782853D1*
X3616724Y4777968D1*
X3621553Y4770724D1*
X3645867Y4746409D1*
X3611838D1*
M02*
