G04 DipTrace 3.0.0.1*
G04 ESP-12E_BASE_V2.2-2.gts*
%MOMM*%
G04 #@! TF.FileFunction,Soldermask,Top*
G04 #@! TF.Part,Single*
%ADD59C,1.0*%
%ADD64R,1.004X2.204*%
%ADD66R,1.704X1.704*%
%ADD68R,2.204X1.704*%
%ADD76R,2.154X1.304*%
%ADD78R,1.604X1.804*%
%ADD80R,2.204X2.204*%
%ADD82C,2.204*%
%ADD84R,1.254X2.404*%
%ADD86R,1.204X1.254*%
%ADD88R,2.104X2.104*%
%ADD90R,1.654X1.504*%
%ADD92R,1.804X1.604*%
%ADD94R,0.604X1.554*%
%ADD104R,3.804X1.704*%
%ADD106R,1.204X1.304*%
%ADD108R,0.904X1.104*%
%ADD110R,1.704X1.504*%
%ADD116R,1.104X0.904*%
%ADD120R,2.004X1.804*%
%ADD122R,2.004X1.454*%
%FSLAX35Y35*%
G04*
G71*
G90*
G75*
G01*
G04 TopMask*
%LPD*%
D122*
X2366800Y1326800D3*
X2106800D3*
D120*
X2364800Y1557800D3*
Y1837800D3*
D108*
X2145800Y1770800D3*
Y1900800D3*
D106*
X3022800Y3665800D3*
Y3835800D3*
D104*
X2101800Y2066800D3*
Y2516800D3*
D59*
X1735800Y4482800D3*
X2535800Y4479800D3*
D94*
X1401800Y1410800D3*
X1466800D3*
X1531800D3*
X1596800D3*
X1661800D3*
D92*
X1211800Y1388300D3*
X1851800D3*
D90*
X1189300Y1143300D3*
X1874300D3*
D88*
X1411800D3*
X1651800D3*
D86*
X3209800Y4841800D3*
D84*
X3357300Y4999300D3*
X3062300D3*
D82*
X4129800Y1185800D3*
Y1439800D3*
X3875800Y1185800D3*
Y1439800D3*
X4383800D3*
X3621800Y1185800D3*
Y1439800D3*
D80*
X4384800Y1185803D3*
D108*
X2003800Y1772800D3*
Y1902800D3*
X3018800Y4122800D3*
Y3992800D3*
D110*
X2971800Y3120800D3*
Y2930800D3*
D116*
X3657800Y2821800D3*
X3787800D3*
D108*
X3430800Y1299800D3*
Y1169800D3*
D116*
X4693800Y2747800D3*
X4563800D3*
D78*
X3107800Y1925800D3*
Y1125800D3*
X2657800Y1925800D3*
Y1125800D3*
D92*
X2471800Y2580800D3*
X3271800D3*
X2471800Y2130800D3*
X3271800D3*
D76*
X1785800Y1769800D3*
Y2019800D3*
Y2269800D3*
X1220800D3*
Y2019800D3*
Y1769800D3*
D68*
X1285800Y4319800D3*
Y4119800D3*
Y3919800D3*
Y3719800D3*
Y3519800D3*
Y3319800D3*
Y3119800D3*
Y2919800D3*
X2735800Y4319800D3*
Y4119800D3*
Y3919800D3*
Y3719800D3*
Y3519800D3*
Y3319800D3*
Y3119800D3*
Y2919800D3*
D66*
X1505800Y2805800D3*
X1705800D3*
X1909800D3*
X2113800D3*
X2313800D3*
X2513800D3*
D64*
X3212800Y3091800D3*
X3339800D3*
X3466800D3*
X3593800D3*
X3720800D3*
X3847800D3*
X3974800D3*
X4101800D3*
X4228800D3*
X4355800D3*
X4482800D3*
X4609800D3*
X3212800Y4615800D3*
X3339800D3*
D82*
X4127800Y2409800D3*
X3873800Y2409823D3*
X3619800D3*
D80*
X4382800Y2409797D3*
D82*
X4129800Y1803800D3*
X3875800Y1803823D3*
X3621800D3*
D80*
X4384800Y1803797D3*
M02*
