G04 DipTrace 3.0.0.1*
G04 ESP-12E_BASE_V2.2-2.gtl*
%MOMM*%
G04 #@! TF.FileFunction,Copper,L1,Top*
G04 #@! TF.Part,Single*
G04 #@! TA.AperFunction,Conductor*
%ADD10C,0.25*%
%ADD14C,0.33*%
G04 #@! TA.AperFunction,CopperBalancing*
%ADD16C,0.18*%
%ADD18R,1.8X1.25*%
%ADD19R,1.8X1.6*%
%ADD21R,0.9X0.7*%
%ADD24R,1.5X1.3*%
%ADD25R,0.7X0.9*%
%ADD26R,1.0X1.1*%
%ADD27R,3.6X1.5*%
%ADD34R,0.4X1.35*%
%ADD35R,1.6X1.4*%
%ADD36R,1.45X1.3*%
%ADD37R,1.9X1.9*%
%ADD38R,1.0X1.05*%
%ADD39R,1.05X2.2*%
G04 #@! TA.AperFunction,ComponentPad*
%ADD40C,2.0*%
%ADD41R,2.0X2.0*%
%ADD44R,1.4X1.6*%
%ADD47R,1.95X1.1*%
%ADD53R,2.0X1.5*%
%ADD54R,1.5X1.5*%
%ADD55R,0.8X2.0*%
G04 #@! TA.AperFunction,ViaPad*
%ADD57C,1.016*%
%FSLAX35Y35*%
G04*
G71*
G90*
G75*
G01*
G04 Top*
%LPD*%
X1276800Y2749800D2*
D14*
Y2910800D1*
X1285800Y2919800D1*
X1473800Y3933800D2*
X1299800D1*
X1285800Y3919800D1*
X1473800Y3933800D2*
X1868800D1*
X1983800Y3818800D1*
Y3395800D1*
X1539800Y2951800D1*
X1317800D1*
X1285800Y2919800D1*
X4382800Y2409797D2*
Y1803797D1*
X4384800D1*
Y1440800D1*
X4383800Y1439800D1*
X3719800Y3308800D2*
Y3092800D1*
X3720800Y3091800D1*
X3265800Y2911800D2*
D10*
X3699800D1*
X3723800Y2935800D1*
Y3091800D1*
X3720800D1*
X2840800Y1740800D2*
D14*
X2940800D1*
Y1840800D1*
Y1640800D2*
X2840800Y1740800D1*
X2940800Y1640800D2*
X2840800Y1540800D1*
X2940800Y1440800D1*
X2840800Y1340800D1*
X2940800Y1240800D1*
X1785800Y1769800D2*
X2000800D1*
X2003800Y1772800D1*
X2366800Y1326800D2*
Y1555800D1*
X2364800Y1557800D1*
X2003800Y1772800D2*
Y1687800D1*
X2129800Y1561800D1*
X2360800D1*
X2364800Y1557800D1*
X1594800Y1786800D2*
X1768800D1*
X1785800Y1769800D1*
X2364800Y1557800D2*
X2485800D1*
X2532800Y1604800D1*
Y1706800D1*
X2539800Y1713800D1*
X2971800Y3120800D2*
X2736800D1*
X2735800Y3119800D1*
X2486800D1*
X2427800Y3178800D1*
Y3267800D1*
X2419800Y3275800D1*
X1211800Y1388300D2*
Y1165800D1*
X1189300Y1143300D1*
X1411800D1*
X1651800D1*
X1874300D1*
Y1350800D1*
Y1365800D1*
X1851800Y1388300D1*
Y1410800D1*
X1661800D1*
X1596800D1*
X4129800Y1803800D2*
Y2407800D1*
X4127800Y2409800D1*
Y2470800D1*
X4260800Y2603800D1*
X4460800D1*
X4567800D1*
X4594800Y2576800D1*
Y1227800D1*
X4542800Y1175800D1*
X4394803D1*
X4384800Y1185803D1*
X4482800Y3091800D2*
X4485800D1*
X4609800D1*
X1220800Y2019800D2*
Y2026800D1*
X1366800D1*
X1452800Y2112800D1*
X2055800D1*
X2101800Y2066800D1*
X2106800Y1326800D2*
Y1350800D1*
X1874300D1*
X2101800Y2066800D2*
X2292800D1*
X2359800Y1999800D1*
Y1842800D1*
X2364800Y1837800D1*
X2145800Y1770800D2*
X2195800D1*
X2262800Y1837800D1*
X2364800D1*
X2106800Y1326800D2*
Y1200800D1*
X2182800Y1124800D1*
X2650800D1*
X2656800D1*
X2657800Y1125800D1*
Y1925800D1*
X2364800Y1837800D2*
X2451800D1*
X2538800Y1924800D1*
X2656800D1*
X2657800Y1925800D1*
X2471800Y2130800D2*
X2659013D1*
X3271800D1*
X2659013D2*
Y1927013D1*
X2971800Y2930800D2*
X2746800D1*
X2735800Y2919800D1*
X2303800Y2348800D2*
X2215800D1*
X2119800Y2252800D1*
Y2084800D1*
X2101800Y2066800D1*
X1848800Y1406800D2*
Y1388300D1*
X1851800D1*
X4485800Y3091800D2*
X4460800D1*
Y2603800D1*
X3022800Y3665800D2*
X3158800D1*
X3207800Y3616800D1*
Y3264800D1*
Y3096800D1*
X3212800Y3091800D1*
X2735800Y2919800D2*
X2665800D1*
X2558800Y3026800D1*
X3208800Y3264800D2*
X3207800D1*
X4126800Y1635800D2*
X3887800D1*
X3882800Y1630800D1*
X3611800Y3455800D2*
Y3395800D1*
X3476800Y3260800D1*
X3212800D1*
X3208800Y3264800D1*
X1120800Y1550800D2*
Y1540800D1*
X1211800Y1449800D1*
Y1388300D1*
X2650800Y1130800D2*
Y1124800D1*
X3430800Y1299800D2*
D10*
X3424800D1*
Y1366800D1*
X3391800Y1399800D1*
Y2248800D1*
X2556800D1*
X2346800Y2458800D1*
Y2579800D1*
X2280800Y2645800D1*
X1192800D1*
X1124800Y2713800D1*
Y3274800D1*
X1169800Y3319800D1*
X1285800D1*
X3657800Y2821800D2*
X3461800D1*
X3391800Y2751800D1*
Y2248800D1*
X1285800Y3319800D2*
D14*
X1430800D1*
X1454800Y3295800D1*
X3974800Y3091800D2*
D10*
Y2862800D1*
X3855800Y2743800D1*
X3510800D1*
X3436800Y2669800D1*
Y1426800D1*
X3551800Y1311800D1*
D16*
X3747800D1*
D10*
X3875800Y1439800D1*
X1285800Y3119800D2*
D14*
X1493800D1*
X1888800Y3514800D1*
Y3707800D1*
X3957800Y3382800D2*
Y3108800D1*
X3974800Y3091800D1*
X4693800Y2747800D2*
D10*
Y1138800D1*
X4606800Y1051800D1*
X4211800D1*
X4129800Y1133800D1*
Y1185800D1*
X4693800Y2747800D2*
D14*
Y2908800D1*
X4691800Y2910800D1*
X2908800Y4209800D2*
Y4284800D1*
X2868800Y4324800D1*
X2740800D1*
X2735800Y4319800D1*
X4101800Y3091800D2*
Y2842800D1*
X3998800Y2739800D1*
X1285800Y3519800D2*
X1697800D1*
X1780800Y3602800D1*
X4101800Y3091800D2*
Y3274800D1*
X4098800Y3277800D1*
X2126800Y3598800D2*
X2331800D1*
X2335800Y3602800D1*
X3875800Y1803823D2*
Y2407823D1*
X3873800Y2409823D1*
X2735800Y3919800D2*
X2862800D1*
X2906800Y3963800D1*
X3619800Y2409823D2*
X3621800Y1803823D1*
X2735800Y3719800D2*
X2887800D1*
X2898800Y3730800D1*
X4355800Y3091800D2*
D10*
Y2853800D1*
X4134800Y2632800D1*
X3609800D1*
X3484800Y2507800D1*
Y1576800D1*
X3621800Y1439800D1*
X1285800Y4119800D2*
D14*
X1870800D1*
X2329800Y4578800D1*
X2845800D1*
X3057800Y4366800D1*
X4155800D1*
X4351800Y4170800D1*
Y3095800D1*
X4355800Y3091800D1*
X2735800Y4119800D2*
X3018800D1*
Y4122800D1*
X2527800Y4032800D2*
Y4052800D1*
X2587800Y4112800D1*
X2728800D1*
X2735800Y4119800D1*
X1531800Y1410800D2*
Y1506800D1*
X1619800Y1594800D1*
X1699800D1*
Y1601800D1*
X1466800Y1410800D2*
Y1611800D1*
X1515800Y1660800D1*
X1401800Y1410800D2*
Y1824800D1*
X1599800Y2022800D1*
X1782800D1*
X1785800Y2019800D1*
X3018800Y3992800D2*
Y3835800D1*
X3022800D1*
X3621800Y1185800D2*
X3446800D1*
X3430800Y1169800D1*
X3847800Y3091800D2*
D10*
Y2911800D1*
X3787800Y2851800D1*
Y2821800D1*
X3212800Y4615800D2*
D14*
Y4838800D1*
X3209800Y4841800D1*
X3339800Y4615800D2*
Y4981800D1*
X3357300Y4999300D1*
X3062300D1*
X3081800D1*
Y4501800D1*
X3128800Y4454800D1*
X3296800D1*
X3336800Y4494800D1*
Y4612800D1*
X3339800Y4615800D1*
X2101800Y2516800D2*
X1117800D1*
X1070800Y2469800D1*
Y1796800D1*
X1094800Y1772800D1*
X1217800D1*
X1220800Y1769800D1*
X2735800Y3519800D2*
X2964800D1*
X3105800Y3378800D1*
Y2872800D1*
X3276800Y2701800D1*
Y2585800D1*
X3271800Y2580800D1*
X2471800D1*
X3107800Y1125800D2*
Y1925800D1*
X1292800Y4513800D2*
Y4326800D1*
X1285800Y4319800D1*
X1292800Y4513800D2*
X1183800D1*
X1120800Y4450800D1*
Y3755800D1*
X1153800Y3722800D1*
X1282800D1*
X1285800Y3719800D1*
X3290800Y1890800D2*
X3142800D1*
X3107800Y1925800D1*
X2551800Y3309800D2*
Y3674800D1*
X2309800Y3916800D1*
X4227800Y3091800D2*
D10*
X4228800D1*
X4229800Y3305800D2*
D14*
Y3092800D1*
X4228800Y3091800D1*
X4552800Y2875800D2*
Y2758800D1*
X4563800Y2747800D1*
X2003800Y1902800D2*
X2143800D1*
X2145800Y1900800D1*
D57*
X1515800Y1660800D3*
X1699800Y1601800D3*
X1594800Y1786800D3*
X2539800Y1713800D3*
X2303800Y2348800D3*
X1848800Y1406800D3*
X1276800Y2749800D3*
X3998800Y2739800D3*
X2906800Y3963800D3*
X2898800Y3730800D3*
X3719800Y3308800D3*
X4691800Y2910800D3*
X2908800Y4209800D3*
X1292800Y4513800D3*
X1473800Y3933800D3*
X1454800Y3295800D3*
X1888800Y3707800D3*
X1780800Y3602800D3*
X2527800Y4032800D3*
X3290800Y1890800D3*
X4098800Y3277800D3*
X3957800Y3382800D3*
X2126800Y3598800D3*
X2335800Y3602800D3*
X2419800Y3275800D3*
X2551800Y3309800D3*
X2309800Y3916800D3*
X3265800Y2911800D3*
X2558800Y3026800D3*
X3208800Y3264800D3*
X3882800Y1630800D3*
X4126800Y1635800D3*
X3611800Y3455800D3*
X4229800Y3305800D3*
X4552800Y2875800D3*
X1120800Y1550800D3*
X2650800Y1130800D3*
X2940800Y1840800D3*
X2840800Y1340800D3*
X2940800Y1240800D3*
Y1440800D3*
Y1640800D3*
X2840800Y1540800D3*
Y1740800D3*
X1051618Y5114133D2*
D16*
X2965264D1*
X3454336D2*
X4730002D1*
X1051618Y5096467D2*
X2965264D1*
X3454336D2*
X4730002D1*
X1051618Y5078800D2*
X2965264D1*
X3454336D2*
X4730002D1*
X1051618Y5061133D2*
X2965264D1*
X3454336D2*
X4730002D1*
X1051618Y5043467D2*
X2965264D1*
X3454336D2*
X4730002D1*
X1051618Y5025800D2*
X2965264D1*
X3454336D2*
X4730002D1*
X1051618Y5008133D2*
X2965264D1*
X3454336D2*
X4730002D1*
X1051618Y4990467D2*
X2965264D1*
X3454336D2*
X4730002D1*
X1051618Y4972800D2*
X2965264D1*
X3454336D2*
X4730002D1*
X1051618Y4955133D2*
X2965264D1*
X3454336D2*
X4730002D1*
X1051618Y4937467D2*
X2965264D1*
X3454336D2*
X4730002D1*
X1051618Y4919800D2*
X2965264D1*
X3454336D2*
X4730002D1*
X1051618Y4902133D2*
X2965264D1*
X3454336D2*
X4730002D1*
X1051618Y4884467D2*
X2965264D1*
X3454336D2*
X4730002D1*
X1051618Y4866800D2*
X2965264D1*
X3454336D2*
X4730002D1*
X1051618Y4849133D2*
X2965264D1*
X3454336D2*
X4730002D1*
X1051618Y4831467D2*
X3020775D1*
X3400829D2*
X4730002D1*
X1051618Y4813800D2*
X3020775D1*
X3400829D2*
X4730002D1*
X1051618Y4796133D2*
X3020775D1*
X3400829D2*
X4730002D1*
X1051618Y4778467D2*
X3020775D1*
X3400829D2*
X4730002D1*
X1051618Y4760800D2*
X3020775D1*
X3400829D2*
X4730002D1*
X1051618Y4743133D2*
X3020775D1*
X3424313D2*
X4730002D1*
X1051618Y4725467D2*
X3020775D1*
X3424313D2*
X4730002D1*
X1051618Y4707800D2*
X3020775D1*
X3424313D2*
X4730002D1*
X1051618Y4690133D2*
X3020775D1*
X3424313D2*
X4730002D1*
X1051618Y4672467D2*
X3020775D1*
X3424313D2*
X4730002D1*
X1051618Y4654800D2*
X3020775D1*
X3424313D2*
X4730002D1*
X1051618Y4637133D2*
X2317791D1*
X2857805D2*
X3020775D1*
X3424313D2*
X4730002D1*
X1051618Y4619467D2*
X2284920D1*
X2890676D2*
X3020775D1*
X3424313D2*
X4730002D1*
X1051618Y4601800D2*
X1259342D1*
X1326258D2*
X2267236D1*
X2908360D2*
X3020775D1*
X3424313D2*
X4730002D1*
X1051618Y4584133D2*
X1229354D1*
X1356246D2*
X2249588D1*
X2926008D2*
X3020775D1*
X3424313D2*
X4730002D1*
X1051618Y4566467D2*
X1154928D1*
X1371891D2*
X2231904D1*
X2943692D2*
X3020775D1*
X3424313D2*
X4730002D1*
X1051618Y4548800D2*
X1133236D1*
X1381313D2*
X1692959D1*
X1778649D2*
X2214256D1*
X2961340D2*
X3020775D1*
X3424313D2*
X4730002D1*
X1051618Y4531133D2*
X1115588D1*
X1386516D2*
X1673131D1*
X1798477D2*
X2196572D1*
X2979024D2*
X3020775D1*
X3424313D2*
X4730002D1*
X1051618Y4513467D2*
X1097904D1*
X1388133D2*
X1662584D1*
X1809024D2*
X2178924D1*
X2350008D2*
X2463936D1*
X2607633D2*
X2825588D1*
X2996672D2*
X3020775D1*
X3424313D2*
X4730002D1*
X1051618Y4495800D2*
X1080256D1*
X1386375D2*
X1657381D1*
X1814227D2*
X2161240D1*
X2332360D2*
X2457959D1*
X2613645D2*
X2843236D1*
X3014356D2*
X3021096D1*
X3424313D2*
X4730002D1*
X1051618Y4478133D2*
X1066475D1*
X1381067D2*
X1656432D1*
X1815176D2*
X2143592D1*
X2314676D2*
X2456307D1*
X2615297D2*
X2860920D1*
X3424313D2*
X4730002D1*
X1051618Y4460467D2*
X1060556D1*
X1371434D2*
X1659561D1*
X1812047D2*
X2125908D1*
X2297028D2*
X2458732D1*
X2612871D2*
X2878568D1*
X3386836D2*
X4730002D1*
X1051618Y4442800D2*
X1059783D1*
X1198360D2*
X1230127D1*
X1355473D2*
X1667365D1*
X1804243D2*
X2108260D1*
X2279344D2*
X2465658D1*
X2605946D2*
X2896252D1*
X3370348D2*
X4730002D1*
X1051618Y4425133D2*
X1059783D1*
X1430321D2*
X1681885D1*
X1789688D2*
X2090576D1*
X2261696D2*
X2478771D1*
X2880305D2*
X2913900D1*
X4167797D2*
X4730002D1*
X1051618Y4407467D2*
X1059783D1*
X1430321D2*
X1714896D1*
X1756711D2*
X2072928D1*
X2244012D2*
X2505561D1*
X2566043D2*
X2591271D1*
X2880305D2*
X2931584D1*
X4200668D2*
X4730002D1*
X1051618Y4389800D2*
X1059783D1*
X1430321D2*
X2055244D1*
X2226364D2*
X2591271D1*
X2880305D2*
X2949268D1*
X4218352D2*
X4730002D1*
X1051618Y4372133D2*
X1059783D1*
X1430321D2*
X2037596D1*
X2208680D2*
X2591271D1*
X2906180D2*
X2966916D1*
X4236000D2*
X4730002D1*
X1051618Y4354467D2*
X1059783D1*
X1430321D2*
X2019912D1*
X2191032D2*
X2591271D1*
X2924672D2*
X2984600D1*
X4253684D2*
X4730002D1*
X1051618Y4336800D2*
X1059783D1*
X1430321D2*
X2002264D1*
X2173348D2*
X2591271D1*
X2942356D2*
X3002248D1*
X4271368D2*
X4730002D1*
X1051618Y4319133D2*
X1059783D1*
X1430321D2*
X1984580D1*
X2155700D2*
X2591271D1*
X2958844D2*
X3020846D1*
X4289016D2*
X4730002D1*
X1051618Y4301467D2*
X1059783D1*
X1430321D2*
X1966932D1*
X2138016D2*
X2591271D1*
X2967422D2*
X4135580D1*
X4306700D2*
X4730002D1*
X1051618Y4283800D2*
X1059783D1*
X1430321D2*
X1949248D1*
X2120332D2*
X2591271D1*
X2969813D2*
X4153264D1*
X4324348D2*
X4730002D1*
X1051618Y4266133D2*
X1059783D1*
X1430321D2*
X1931600D1*
X2102684D2*
X2591271D1*
X2985246D2*
X4170912D1*
X4342032D2*
X4730002D1*
X1051618Y4248467D2*
X1059783D1*
X1430321D2*
X1913916D1*
X2085000D2*
X2591271D1*
X2995758D2*
X4188596D1*
X4359680D2*
X4730002D1*
X1051618Y4230800D2*
X1059783D1*
X1430321D2*
X1896268D1*
X2067352D2*
X2591271D1*
X3001735D2*
X4206244D1*
X4377364D2*
X4730002D1*
X1051618Y4213133D2*
X1059783D1*
X1430321D2*
X1878584D1*
X2049668D2*
X2591271D1*
X3004055D2*
X4223928D1*
X4395012D2*
X4730002D1*
X1051618Y4195467D2*
X1059783D1*
X1430321D2*
X1860900D1*
X2032020D2*
X2591271D1*
X3098309D2*
X4241576D1*
X4407422D2*
X4730002D1*
X1051618Y4177800D2*
X1059783D1*
X2014336D2*
X2591271D1*
X3098309D2*
X4259260D1*
X4412414D2*
X4730002D1*
X1051618Y4160133D2*
X1059783D1*
X1996688D2*
X2550420D1*
X3098309D2*
X4276908D1*
X4412836D2*
X4730002D1*
X1051618Y4142467D2*
X1059783D1*
X1979004D2*
X2531928D1*
X3098309D2*
X4290795D1*
X4412836D2*
X4730002D1*
X1051618Y4124800D2*
X1059783D1*
X1961356D2*
X2509217D1*
X3098309D2*
X4290795D1*
X4412836D2*
X4730002D1*
X1051618Y4107133D2*
X1059783D1*
X1943672D2*
X2469244D1*
X3098309D2*
X4290795D1*
X4412836D2*
X4730002D1*
X1051618Y4089467D2*
X1059783D1*
X1926024D2*
X2451596D1*
X3098309D2*
X4290795D1*
X4412836D2*
X4730002D1*
X1051618Y4071800D2*
X1059783D1*
X1907286D2*
X2441014D1*
X3098309D2*
X4290795D1*
X4412836D2*
X4730002D1*
X1051618Y4054133D2*
X1059783D1*
X1430321D2*
X2434932D1*
X3098309D2*
X4290795D1*
X4412836D2*
X4730002D1*
X1051618Y4036467D2*
X1059783D1*
X1430321D2*
X2432541D1*
X3098309D2*
X4290795D1*
X4412836D2*
X4730002D1*
X1051618Y4018800D2*
X1059783D1*
X1514590D2*
X2433525D1*
X3098309D2*
X4290795D1*
X4412836D2*
X4730002D1*
X1051618Y4001133D2*
X1059783D1*
X1540500D2*
X2267588D1*
X2352012D2*
X2437990D1*
X3098309D2*
X4290795D1*
X4412836D2*
X4730002D1*
X1051618Y3983467D2*
X1059783D1*
X1902856D2*
X2242416D1*
X2377184D2*
X2446533D1*
X3098309D2*
X4290795D1*
X4412836D2*
X4730002D1*
X1051618Y3965800D2*
X1059783D1*
X1922368D2*
X2228354D1*
X2391246D2*
X2460771D1*
X3098309D2*
X4290795D1*
X4412836D2*
X4730002D1*
X1051618Y3948133D2*
X1059783D1*
X1940016D2*
X2219881D1*
X2399719D2*
X2486295D1*
X2569313D2*
X2591271D1*
X3098309D2*
X4290795D1*
X4412836D2*
X4730002D1*
X1051618Y3930467D2*
X1059783D1*
X1957700D2*
X2215486D1*
X2404114D2*
X2591271D1*
X3117329D2*
X4290795D1*
X4412836D2*
X4730002D1*
X1051618Y3912800D2*
X1059783D1*
X1975348D2*
X2214572D1*
X2405028D2*
X2591271D1*
X3117329D2*
X4290795D1*
X4412836D2*
X4730002D1*
X1051618Y3895133D2*
X1059783D1*
X1993032D2*
X2217033D1*
X2417016D2*
X2591271D1*
X3117329D2*
X4290795D1*
X4412836D2*
X4730002D1*
X1051618Y3877467D2*
X1059783D1*
X2010680D2*
X2223150D1*
X2434700D2*
X2591271D1*
X3117329D2*
X4290795D1*
X4412836D2*
X4730002D1*
X1051618Y3859800D2*
X1059783D1*
X1532801D2*
X1857244D1*
X2028329D2*
X2233873D1*
X2452348D2*
X2591271D1*
X2880305D2*
X2928279D1*
X3117329D2*
X4290795D1*
X4412836D2*
X4730002D1*
X1051618Y3842133D2*
X1059783D1*
X1430321D2*
X1453475D1*
X1494129D2*
X1874928D1*
X2040036D2*
X2251697D1*
X2470032D2*
X2591271D1*
X2880305D2*
X2928279D1*
X3117329D2*
X4290795D1*
X4412836D2*
X4730002D1*
X1051618Y3824467D2*
X1059783D1*
X1430321D2*
X1892576D1*
X2044536D2*
X2293146D1*
X2487680D2*
X2591271D1*
X2880305D2*
X2928279D1*
X3117329D2*
X4290795D1*
X4412836D2*
X4730002D1*
X1051618Y3806800D2*
X1059783D1*
X1430321D2*
X1910260D1*
X2044817D2*
X2334244D1*
X2505364D2*
X2591271D1*
X3117329D2*
X4290795D1*
X4412836D2*
X4730002D1*
X1051618Y3789133D2*
X1059783D1*
X1430321D2*
X1840826D1*
X2044817D2*
X2351928D1*
X2523012D2*
X2591271D1*
X3117329D2*
X4290795D1*
X4412836D2*
X4730002D1*
X1051618Y3771467D2*
X1059783D1*
X1430321D2*
X1818502D1*
X2044817D2*
X2369576D1*
X2540696D2*
X2591271D1*
X3117329D2*
X4290795D1*
X4412836D2*
X4730002D1*
X1051618Y3753800D2*
X1059783D1*
X1430321D2*
X1805564D1*
X2044817D2*
X2387260D1*
X2558344D2*
X2591271D1*
X3117329D2*
X4290795D1*
X4412836D2*
X4730002D1*
X1051618Y3736133D2*
X1063155D1*
X1430321D2*
X1797865D1*
X2044817D2*
X2404908D1*
X2576028D2*
X2591271D1*
X3117329D2*
X4290795D1*
X4412836D2*
X4730002D1*
X1051618Y3718467D2*
X1073014D1*
X1430321D2*
X1794104D1*
X2044817D2*
X2422592D1*
X3187676D2*
X4290795D1*
X4412836D2*
X4730002D1*
X1051618Y3700800D2*
X1090240D1*
X1430321D2*
X1793752D1*
X2044817D2*
X2440240D1*
X3209368D2*
X4290795D1*
X4412836D2*
X4730002D1*
X1051618Y3683133D2*
X1107924D1*
X1430321D2*
X1731104D1*
X2044817D2*
X2084564D1*
X2169024D2*
X2286115D1*
X2385481D2*
X2457924D1*
X3227016D2*
X4290795D1*
X4412836D2*
X4730002D1*
X1051618Y3665467D2*
X1137174D1*
X1430321D2*
X1709588D1*
X2044817D2*
X2059428D1*
X2194196D2*
X2264564D1*
X2407032D2*
X2475572D1*
X3244700D2*
X4290795D1*
X4412836D2*
X4730002D1*
X1051618Y3647800D2*
X1141287D1*
X1430321D2*
X1697002D1*
X2419582D2*
X2490795D1*
X3260063D2*
X4290795D1*
X4412836D2*
X4730002D1*
X1051618Y3630133D2*
X1141287D1*
X1430321D2*
X1689549D1*
X2427036D2*
X2490795D1*
X2880305D2*
X2928279D1*
X3267305D2*
X4290795D1*
X4412836D2*
X4730002D1*
X1051618Y3612467D2*
X1141287D1*
X1430321D2*
X1685998D1*
X2430621D2*
X2490795D1*
X2880305D2*
X2928279D1*
X3268817D2*
X4290795D1*
X4412836D2*
X4730002D1*
X1051618Y3594800D2*
X1141287D1*
X1430321D2*
X1685822D1*
X2430762D2*
X2490795D1*
X2880305D2*
X2928279D1*
X3117329D2*
X3144244D1*
X3268817D2*
X4290795D1*
X4412836D2*
X4730002D1*
X1051618Y3577133D2*
X1141287D1*
X2427528D2*
X2490795D1*
X3117329D2*
X3146775D1*
X3268817D2*
X4290795D1*
X4412836D2*
X4730002D1*
X1051618Y3559467D2*
X1141287D1*
X2420461D2*
X2490795D1*
X3010700D2*
X3146775D1*
X3268817D2*
X4290795D1*
X4412836D2*
X4730002D1*
X1051618Y3541800D2*
X1141287D1*
X2044817D2*
X2050832D1*
X2408473D2*
X2490795D1*
X3028348D2*
X3146775D1*
X3268817D2*
X3573256D1*
X3650332D2*
X4290795D1*
X4412836D2*
X4730002D1*
X1051618Y3524133D2*
X1141287D1*
X2044817D2*
X2068674D1*
X2184914D2*
X2283443D1*
X2388188D2*
X2490795D1*
X3046032D2*
X3146775D1*
X3268817D2*
X3546150D1*
X3677438D2*
X4290795D1*
X4412836D2*
X4730002D1*
X1051618Y3506467D2*
X1141287D1*
X1770000D2*
X1794912D1*
X2044817D2*
X2110158D1*
X2143465D2*
X2490795D1*
X3063680D2*
X3146775D1*
X3268817D2*
X3531385D1*
X3692204D2*
X4290795D1*
X4412836D2*
X4730002D1*
X1051618Y3488800D2*
X1141287D1*
X1752352D2*
X1777264D1*
X2044817D2*
X2490795D1*
X3081364D2*
X3146775D1*
X3268817D2*
X3522490D1*
X3701098D2*
X4290795D1*
X4412836D2*
X4730002D1*
X1051618Y3471133D2*
X1141287D1*
X1733332D2*
X1759580D1*
X2044817D2*
X2490795D1*
X3099012D2*
X3146775D1*
X3268817D2*
X3517744D1*
X3705844D2*
X3925275D1*
X3990329D2*
X4290795D1*
X4412836D2*
X4730002D1*
X1051618Y3453467D2*
X1141287D1*
X1430321D2*
X1741932D1*
X1913016D2*
X1922775D1*
X2044817D2*
X2490795D1*
X2880305D2*
X2945576D1*
X3116696D2*
X3146775D1*
X3268817D2*
X3516514D1*
X3707075D2*
X3894760D1*
X4020844D2*
X4290795D1*
X4412836D2*
X4730002D1*
X1051618Y3435800D2*
X1141287D1*
X1430321D2*
X1724248D1*
X1895368D2*
X1922775D1*
X2044817D2*
X2490795D1*
X2880305D2*
X2963260D1*
X3134344D2*
X3146775D1*
X3268817D2*
X3518658D1*
X3704965D2*
X3878939D1*
X4036664D2*
X4290795D1*
X4412836D2*
X4730002D1*
X1051618Y3418133D2*
X1141287D1*
X1430321D2*
X1706600D1*
X1877684D2*
X1920596D1*
X2044817D2*
X2490795D1*
X2880305D2*
X2980908D1*
X3268817D2*
X3524389D1*
X3699200D2*
X3869412D1*
X4046192D2*
X4290795D1*
X4412836D2*
X4730002D1*
X1051618Y3400467D2*
X1141287D1*
X1430321D2*
X1688916D1*
X1860000D2*
X1902912D1*
X2044817D2*
X2490795D1*
X2865329D2*
X2998592D1*
X3268817D2*
X3530928D1*
X3689004D2*
X3699460D1*
X3740121D2*
X3864174D1*
X4051430D2*
X4290795D1*
X4412836D2*
X4730002D1*
X1051618Y3382800D2*
X1141287D1*
X1490895D2*
X1671232D1*
X1842352D2*
X1885264D1*
X2043375D2*
X2490795D1*
X2865329D2*
X3016240D1*
X3268817D2*
X3513244D1*
X3778793D2*
X3862486D1*
X4053118D2*
X4174920D1*
X4284692D2*
X4290755D1*
X4412836D2*
X4730002D1*
X1051618Y3365133D2*
X1136471D1*
X1519371D2*
X1653584D1*
X1824668D2*
X1867580D1*
X2036274D2*
X2390318D1*
X2449254D2*
X2474623D1*
X2865329D2*
X3033924D1*
X3268817D2*
X3495596D1*
X3796266D2*
X3864174D1*
X4051430D2*
X4063545D1*
X4134047D2*
X4155725D1*
X4412836D2*
X4730002D1*
X1051618Y3347467D2*
X1117557D1*
X1534559D2*
X1635900D1*
X1807020D2*
X1849932D1*
X2021016D2*
X2357904D1*
X2865329D2*
X3044787D1*
X3268817D2*
X3477912D1*
X3806743D2*
X3869412D1*
X4412836D2*
X4730002D1*
X1051618Y3329800D2*
X1099908D1*
X1543735D2*
X1618252D1*
X1789336D2*
X1832248D1*
X2003368D2*
X2341662D1*
X2865329D2*
X3044787D1*
X3277852D2*
X3460264D1*
X3812719D2*
X3878939D1*
X4412836D2*
X4730002D1*
X1051618Y3312133D2*
X1082295D1*
X1548692D2*
X1600568D1*
X1771688D2*
X1814600D1*
X1985684D2*
X2331818D1*
X2865329D2*
X3044787D1*
X3613700D2*
X3624549D1*
X3815075D2*
X3894760D1*
X4412836D2*
X4730002D1*
X1051618Y3294467D2*
X1071396D1*
X1550098D2*
X1582920D1*
X1754004D2*
X1796916D1*
X1968000D2*
X2326369D1*
X2865329D2*
X3044787D1*
X3596016D2*
X3625568D1*
X3814020D2*
X3896764D1*
X4412836D2*
X4730002D1*
X1051618Y3276800D2*
X1067811D1*
X1548164D2*
X1565236D1*
X1736356D2*
X1779232D1*
X1950352D2*
X2324471D1*
X2865329D2*
X3044787D1*
X3578332D2*
X3630139D1*
X3809485D2*
X3896764D1*
X4412836D2*
X4730002D1*
X1051618Y3259133D2*
X1067775D1*
X1718672D2*
X1761584D1*
X1932668D2*
X2325982D1*
X2865329D2*
X3044787D1*
X3560684D2*
X3638752D1*
X3800836D2*
X3896764D1*
X4412836D2*
X4730002D1*
X1051618Y3241467D2*
X1067775D1*
X1701024D2*
X1743900D1*
X1915020D2*
X2331010D1*
X2865329D2*
X3044787D1*
X3543000D2*
X3653096D1*
X3786493D2*
X3896764D1*
X4412836D2*
X4730002D1*
X1051618Y3223800D2*
X1067775D1*
X1683340D2*
X1726252D1*
X1897336D2*
X2340256D1*
X2499317D2*
X2513260D1*
X3525352D2*
X3636291D1*
X4694332D2*
X4730002D1*
X1051618Y3206133D2*
X1067775D1*
X1483161D2*
X1494572D1*
X1665692D2*
X1708568D1*
X1879688D2*
X2355619D1*
X2488805D2*
X2591271D1*
X4694332D2*
X4730002D1*
X1051618Y3188467D2*
X1067775D1*
X1430321D2*
X1476924D1*
X1648008D2*
X1690920D1*
X1862004D2*
X2366764D1*
X2503676D2*
X2591271D1*
X4694332D2*
X4730002D1*
X1051618Y3170800D2*
X1067775D1*
X1630360D2*
X1673236D1*
X1844356D2*
X2367326D1*
X4694332D2*
X4730002D1*
X1051618Y3153133D2*
X1067775D1*
X1612676D2*
X1655588D1*
X1826672D2*
X2372635D1*
X4694332D2*
X4730002D1*
X1051618Y3135467D2*
X1067775D1*
X1595028D2*
X1637904D1*
X1809024D2*
X2385572D1*
X4694332D2*
X4730002D1*
X1051618Y3117800D2*
X1067775D1*
X1577344D2*
X1620256D1*
X1791340D2*
X2403256D1*
X4694332D2*
X4730002D1*
X1051618Y3100133D2*
X1067775D1*
X1559696D2*
X1602572D1*
X1773692D2*
X2420904D1*
X4694332D2*
X4730002D1*
X1051618Y3082467D2*
X1067775D1*
X1542012D2*
X1584924D1*
X1756008D2*
X2438588D1*
X4694332D2*
X4730002D1*
X1051618Y3064800D2*
X1067775D1*
X1517543D2*
X1567240D1*
X1738360D2*
X2463057D1*
X4694332D2*
X4730002D1*
X1051618Y3047133D2*
X1067775D1*
X1430321D2*
X1549592D1*
X1720676D2*
X2465729D1*
X4694332D2*
X4730002D1*
X1051618Y3029467D2*
X1067775D1*
X1430321D2*
X1531908D1*
X1703028D2*
X2463514D1*
X4694332D2*
X4730002D1*
X1051618Y3011800D2*
X1067775D1*
X1430321D2*
X1514260D1*
X1685344D2*
X2464674D1*
X4694332D2*
X4730002D1*
X1051618Y2994133D2*
X1067775D1*
X1667696D2*
X2469385D1*
X1051618Y2976467D2*
X1067775D1*
X1650012D2*
X2478174D1*
X1051618Y2958800D2*
X1067775D1*
X1632364D2*
X2492799D1*
X1051618Y2941133D2*
X1067775D1*
X1614680D2*
X2519482D1*
X3166829D2*
X3175203D1*
X3904829D2*
X3917785D1*
X4031813D2*
X4040770D1*
X4162805D2*
X4298775D1*
X1051618Y2923467D2*
X1067775D1*
X1597032D2*
X2576576D1*
X3904829D2*
X3917785D1*
X4031813D2*
X4040770D1*
X4162805D2*
X4298775D1*
X1051618Y2905800D2*
X1067775D1*
X3904477D2*
X3917787D1*
X4031813D2*
X4040770D1*
X4162805D2*
X4298775D1*
X1051618Y2888133D2*
X1067775D1*
X3899485D2*
X3917787D1*
X4031813D2*
X4040770D1*
X4162805D2*
X4298775D1*
X1051618Y2870467D2*
X1067775D1*
X3886371D2*
X3902564D1*
X4031813D2*
X4040770D1*
X4162805D2*
X4292588D1*
X1051618Y2852800D2*
X1067775D1*
X3340149D2*
X3412908D1*
X3877336D2*
X3884916D1*
X4162805D2*
X4274904D1*
X1051618Y2835133D2*
X1067775D1*
X3321164D2*
X3395225D1*
X4162313D2*
X4257256D1*
X1051618Y2817467D2*
X1067775D1*
X2880305D2*
X3075584D1*
X3246668D2*
X3377576D1*
X4157145D2*
X4239572D1*
X1051618Y2799800D2*
X1067775D1*
X1181836D2*
X1195955D1*
X1357618D2*
X1401268D1*
X2618321D2*
X3093232D1*
X3264352D2*
X3359893D1*
X4144348D2*
X4221924D1*
X4381688D2*
X4399779D1*
X1051618Y2782133D2*
X1067775D1*
X1181836D2*
X1187242D1*
X1366336D2*
X1401268D1*
X2618321D2*
X3110916D1*
X3282000D2*
X3343861D1*
X4126700D2*
X4204240D1*
X4364039D2*
X4399779D1*
X1051618Y2764467D2*
X1067775D1*
X1370977D2*
X1401268D1*
X2618321D2*
X3128600D1*
X3299684D2*
X3336268D1*
X4109016D2*
X4186557D1*
X4346356D2*
X4399779D1*
X1051618Y2746800D2*
X1067775D1*
X1372067D2*
X1401268D1*
X2618321D2*
X3146248D1*
X3317368D2*
X3334791D1*
X4093864D2*
X4168908D1*
X4328707D2*
X4399779D1*
X1051618Y2729133D2*
X1067775D1*
X1369817D2*
X1401268D1*
X2618321D2*
X3163932D1*
X4093512D2*
X4151225D1*
X4311024D2*
X4399779D1*
X1051618Y2711467D2*
X1067846D1*
X1363911D2*
X1401268D1*
X2618321D2*
X3181580D1*
X4089715D2*
X4133576D1*
X4293375D2*
X4399779D1*
X1051618Y2693800D2*
X1071537D1*
X2309895D2*
X3199264D1*
X3881028D2*
X3915572D1*
X4082016D2*
X4115893D1*
X4275692D2*
X4399779D1*
X1051618Y2676133D2*
X1082611D1*
X2330356D2*
X2347287D1*
X2596313D2*
X3147268D1*
X3523032D2*
X3573783D1*
X4258043D2*
X4399779D1*
X1051618Y2658467D2*
X1100225D1*
X2596313D2*
X3147268D1*
X3505348D2*
X3555572D1*
X4592379D2*
X4636768D1*
X1051618Y2640800D2*
X1117908D1*
X2596313D2*
X3147268D1*
X3493817D2*
X3537924D1*
X4616356D2*
X4636768D1*
X1051618Y2623133D2*
X1135557D1*
X3493817D2*
X3520240D1*
X1051618Y2605467D2*
X1153275D1*
X3493817D2*
X3502546D1*
X1051618Y2587800D2*
X1877283D1*
X1051618Y2570133D2*
X1090275D1*
X3627024D2*
X4141592D1*
X1051618Y2552467D2*
X1067916D1*
X3626292D2*
X3867338D1*
X3880268D2*
X4122115D1*
X3690516Y2534800D2*
X3803072D1*
X3944520D2*
X4057111D1*
X4527305D2*
X4533794D1*
X2596313Y2517133D2*
X3147268D1*
X3715688D2*
X3777900D1*
X3969692D2*
X4031939D1*
X4527305D2*
X4533794D1*
X2596313Y2499467D2*
X3147268D1*
X3732668D2*
X3760955D1*
X3986637D2*
X4014959D1*
X4527305D2*
X4533794D1*
X2596313Y2481800D2*
X3147268D1*
X4527305D2*
X4533794D1*
X2421375Y2464133D2*
X3334791D1*
X4527305D2*
X4533794D1*
X1133004Y2446467D2*
X1877283D1*
X2439024D2*
X3334791D1*
X4527305D2*
X4533794D1*
X1131809Y2428800D2*
X1877283D1*
X2456707D2*
X3334791D1*
X4527305D2*
X4533794D1*
X1131809Y2411133D2*
X1877283D1*
X2474356D2*
X3334791D1*
X4527305D2*
X4533794D1*
X1131809Y2393467D2*
X2175127D1*
X2492039D2*
X3334791D1*
X4527305D2*
X4533794D1*
X1131809Y2375800D2*
X2157268D1*
X2509688D2*
X3334791D1*
X4527305D2*
X4533794D1*
X1131809Y2358133D2*
X2139584D1*
X2527371D2*
X3334791D1*
X4527305D2*
X4533794D1*
X1347809Y2340467D2*
X1658787D1*
X1912805D2*
X2121900D1*
X2545020D2*
X3334791D1*
X4527305D2*
X4533794D1*
X1347809Y2322800D2*
X1658787D1*
X1912805D2*
X2104252D1*
X2395430D2*
X2402882D1*
X2562704D2*
X3334791D1*
X3734707D2*
X3758881D1*
X3988711D2*
X4012850D1*
X4527305D2*
X4533794D1*
X1347809Y2305133D2*
X1658787D1*
X1912805D2*
X2086568D1*
X2388293D2*
X2420588D1*
X2580352D2*
X3334791D1*
X3718606D2*
X3775018D1*
X3972610D2*
X4028986D1*
X4226614D2*
X4238271D1*
X4527305D2*
X4533794D1*
X1347809Y2287467D2*
X1658787D1*
X1912805D2*
X2069975D1*
X2376200D2*
X2438236D1*
X3695086D2*
X3798537D1*
X3949055D2*
X4052506D1*
X4203094D2*
X4238271D1*
X4527305D2*
X4533794D1*
X1347809Y2269800D2*
X1658787D1*
X1912805D2*
X2061256D1*
X2222356D2*
X2251943D1*
X2355633D2*
X2455920D1*
X3541805D2*
X3559229D1*
X3681270D2*
X3814779D1*
X3936821D2*
X4068783D1*
X4190825D2*
X4238271D1*
X4527305D2*
X4533794D1*
X1347809Y2252133D2*
X1658787D1*
X1912805D2*
X2058795D1*
X2204672D2*
X2473568D1*
X3541805D2*
X3559299D1*
X3681340D2*
X3814779D1*
X3936821D2*
X4068783D1*
X4190825D2*
X4321768D1*
X4443809D2*
X4533795D1*
X1347809Y2234467D2*
X1658787D1*
X1912805D2*
X2058795D1*
X2187024D2*
X2347287D1*
X3541805D2*
X3559369D1*
X3681411D2*
X3814779D1*
X3936821D2*
X4068783D1*
X4190825D2*
X4321768D1*
X4443809D2*
X4533795D1*
X1347809Y2216800D2*
X1658787D1*
X1912805D2*
X2058795D1*
X2180836D2*
X2347287D1*
X3541805D2*
X3559404D1*
X3681446D2*
X3814779D1*
X3936821D2*
X4068783D1*
X4190825D2*
X4321768D1*
X4443809D2*
X4533795D1*
X1347809Y2199133D2*
X1658787D1*
X1912805D2*
X2058795D1*
X2180836D2*
X2347287D1*
X3541805D2*
X3559475D1*
X3681516D2*
X3814779D1*
X3936821D2*
X4068783D1*
X4190825D2*
X4321768D1*
X4443809D2*
X4533795D1*
X1131809Y2181467D2*
X1877283D1*
X2326313D2*
X2347287D1*
X3541805D2*
X3559545D1*
X3681586D2*
X3814779D1*
X3936821D2*
X4068783D1*
X4190825D2*
X4321768D1*
X4443809D2*
X4533795D1*
X1131809Y2163800D2*
X1420885D1*
X2326313D2*
X2347287D1*
X3541805D2*
X3559580D1*
X3681621D2*
X3814779D1*
X3936821D2*
X4068783D1*
X4190825D2*
X4321768D1*
X4443809D2*
X4533795D1*
X1131809Y2146133D2*
X1400600D1*
X2326313D2*
X2347287D1*
X3541805D2*
X3559650D1*
X3681692D2*
X3814779D1*
X3936821D2*
X4068783D1*
X4190825D2*
X4321768D1*
X4443809D2*
X4533795D1*
X1131809Y2128467D2*
X1382916D1*
X2326313D2*
X2347287D1*
X3541805D2*
X3559721D1*
X3681762D2*
X3814779D1*
X3936821D2*
X4068783D1*
X4190825D2*
X4321768D1*
X4443809D2*
X4533795D1*
X2334223Y2110800D2*
X2347287D1*
X3541805D2*
X3559756D1*
X3681797D2*
X3814779D1*
X3936821D2*
X4068783D1*
X4190825D2*
X4321768D1*
X4443809D2*
X4533795D1*
X3541805Y2093133D2*
X3559826D1*
X3681868D2*
X3814779D1*
X3936821D2*
X4068783D1*
X4190825D2*
X4321768D1*
X4443809D2*
X4533795D1*
X3541805Y2075467D2*
X3559896D1*
X3681938D2*
X3814779D1*
X3936821D2*
X4068783D1*
X4190825D2*
X4321768D1*
X4443809D2*
X4533795D1*
X2720028Y2057800D2*
X3147268D1*
X3541805D2*
X3559932D1*
X3681973D2*
X3814779D1*
X3936821D2*
X4068783D1*
X4190825D2*
X4321768D1*
X4443809D2*
X4533795D1*
X1465688Y2040133D2*
X1531592D1*
X2772305D2*
X2993283D1*
X3541805D2*
X3560002D1*
X3682043D2*
X3814779D1*
X3936821D2*
X4068783D1*
X4190825D2*
X4321768D1*
X4443809D2*
X4533795D1*
X1448004Y2022467D2*
X1513908D1*
X2772305D2*
X2993283D1*
X3541805D2*
X3560072D1*
X3682114D2*
X3814779D1*
X3936821D2*
X4068783D1*
X4190825D2*
X4321768D1*
X4443809D2*
X4533795D1*
X1430356Y2004800D2*
X1496260D1*
X2420602D2*
X2543283D1*
X2772305D2*
X2993283D1*
X3222305D2*
X3334791D1*
X3541805D2*
X3560107D1*
X3682149D2*
X3814779D1*
X3936821D2*
X4068783D1*
X4190825D2*
X4321768D1*
X4443809D2*
X4533795D1*
X1412672Y1987133D2*
X1478576D1*
X2420813D2*
X2543283D1*
X2772305D2*
X2993283D1*
X3222305D2*
X3334791D1*
X3541805D2*
X3560178D1*
X3682219D2*
X3814779D1*
X3936821D2*
X4068783D1*
X4190825D2*
X4321768D1*
X4443809D2*
X4533795D1*
X1383422Y1969467D2*
X1460928D1*
X2420813D2*
X2498107D1*
X2772305D2*
X2993283D1*
X3222305D2*
X3238428D1*
X3541805D2*
X3560248D1*
X3682289D2*
X3814779D1*
X3936821D2*
X4068783D1*
X4190825D2*
X4321768D1*
X4443809D2*
X4533795D1*
X1362821Y1951800D2*
X1443244D1*
X1614364D2*
X1643775D1*
X2772305D2*
X2993283D1*
X3541805D2*
X3560283D1*
X3682325D2*
X3814779D1*
X3936821D2*
X4068783D1*
X4190825D2*
X4321768D1*
X4443809D2*
X4533795D1*
X1362821Y1934133D2*
X1425596D1*
X1596680D2*
X1643775D1*
X2772305D2*
X2933096D1*
X2948509D2*
X2993283D1*
X3541805D2*
X3560354D1*
X3682395D2*
X3814779D1*
X3936821D2*
X4068783D1*
X4190825D2*
X4240275D1*
X1131809Y1916467D2*
X1407912D1*
X1579032D2*
X1924287D1*
X2772305D2*
X2884053D1*
X3711223D2*
X3786373D1*
X3965227D2*
X4040377D1*
X4219196D2*
X4240275D1*
X1131809Y1898800D2*
X1390264D1*
X1561348D2*
X1924287D1*
X2772305D2*
X2865631D1*
X3730137D2*
X3767459D1*
X3984141D2*
X4021498D1*
X1131809Y1881133D2*
X1372580D1*
X1543700D2*
X1924287D1*
X2772305D2*
X2854627D1*
X3743567D2*
X3754039D1*
X3997571D2*
X4008031D1*
X1526016Y1863467D2*
X1539432D1*
X2772305D2*
X2848264D1*
X1508332Y1845800D2*
X1520447D1*
X2772305D2*
X2845627D1*
X1490684Y1828133D2*
X1509127D1*
X2527688D2*
X2543283D1*
X2772305D2*
X2805549D1*
X1473000Y1810467D2*
X1502518D1*
X2510004D2*
X2543283D1*
X3222305D2*
X3241135D1*
X1462805Y1792800D2*
X1499670D1*
X2718832D2*
X2761287D1*
X3022864D2*
X3046791D1*
X3168832D2*
X3334791D1*
X1462805Y1775133D2*
X1500197D1*
X2718832D2*
X2752006D1*
X3009188D2*
X3046791D1*
X3168832D2*
X3334791D1*
X1462805Y1757467D2*
X1504205D1*
X2718832D2*
X2746979D1*
X3001805D2*
X3046791D1*
X3168832D2*
X3334791D1*
X2718832Y1739800D2*
X2745502D1*
X3001805D2*
X3046791D1*
X3168832D2*
X3334791D1*
X1051618Y1722133D2*
X1062312D1*
X2718832D2*
X2747365D1*
X2998817D2*
X3046791D1*
X3168832D2*
X3334791D1*
X3740614D2*
X3756982D1*
X3994618D2*
X4010951D1*
X1051618Y1704467D2*
X1078779D1*
X2225309D2*
X2444951D1*
X2718832D2*
X2752814D1*
X3011086D2*
X3046791D1*
X3168832D2*
X3334791D1*
X3726059D2*
X3771537D1*
X3980063D2*
X4025506D1*
X4234067D2*
X4240283D1*
X1051618Y1686800D2*
X1078779D1*
X1607438D2*
X1643775D1*
X2225309D2*
X2448467D1*
X2718832D2*
X2762658D1*
X3024024D2*
X3046791D1*
X3168832D2*
X3334791D1*
X3705282D2*
X3792314D1*
X4213325D2*
X4240275D1*
X1051618Y1669133D2*
X1340764D1*
X1610743D2*
X1633088D1*
X1766485D2*
X1945803D1*
X2108028D2*
X2230287D1*
X2718832D2*
X2778900D1*
X3031723D2*
X3046791D1*
X3168832D2*
X3334791D1*
X3541805D2*
X3572799D1*
X3670793D2*
X3795689D1*
X4215961D2*
X4240275D1*
X1051618Y1651467D2*
X1340764D1*
X1780829D2*
X1955225D1*
X2125676D2*
X2230287D1*
X2718832D2*
X2811314D1*
X3035520D2*
X3046791D1*
X3168832D2*
X3334791D1*
X3541805D2*
X3789783D1*
X4220813D2*
X4323771D1*
X4445813D2*
X4533795D1*
X1051618Y1633800D2*
X1075896D1*
X1165700D2*
X1340764D1*
X1789477D2*
X1972240D1*
X2143360D2*
X2230287D1*
X2718832D2*
X2829139D1*
X3035871D2*
X3046791D1*
X3168832D2*
X3334791D1*
X3541805D2*
X3787533D1*
X4222114D2*
X4323771D1*
X4445813D2*
X4533795D1*
X1189500Y1616133D2*
X1340764D1*
X1794012D2*
X1989924D1*
X2718832D2*
X2783576D1*
X3032813D2*
X3046791D1*
X3168832D2*
X3334791D1*
X3541805D2*
X3788623D1*
X4220039D2*
X4323771D1*
X4445813D2*
X4533795D1*
X1203071Y1598467D2*
X1340764D1*
X1795067D2*
X2007572D1*
X2718832D2*
X2765365D1*
X3025993D2*
X3046791D1*
X3168832D2*
X3334791D1*
X3543036D2*
X3793264D1*
X4214344D2*
X4323771D1*
X4445813D2*
X4533795D1*
X1211192Y1580800D2*
X1340764D1*
X1792746D2*
X2025256D1*
X2588754D2*
X2596791D1*
X2718832D2*
X2754467D1*
X3014321D2*
X3046791D1*
X3168832D2*
X3334791D1*
X3560684D2*
X3597900D1*
X3645692D2*
X3801982D1*
X4204254D2*
X4323771D1*
X4445813D2*
X4533795D1*
X1215305Y1563133D2*
X1340764D1*
X1786735D2*
X2042904D1*
X2576696D2*
X2596791D1*
X2718832D2*
X2748174D1*
X2994704D2*
X3046791D1*
X3168832D2*
X3334791D1*
X3695403D2*
X3802193D1*
X3949407D2*
X4066146D1*
X4187485D2*
X4310166D1*
X4457414D2*
X4533795D1*
X1215973Y1545467D2*
X1340764D1*
X1776258D2*
X2060588D1*
X2559012D2*
X2596791D1*
X2718832D2*
X2745607D1*
X2935993D2*
X3046791D1*
X3168832D2*
X3334791D1*
X3719520D2*
X3778076D1*
X3973524D2*
X4056268D1*
X4203340D2*
X4286049D1*
X4481532D2*
X4533795D1*
X1219348Y1527800D2*
X1340764D1*
X1758786D2*
X2078236D1*
X2541364D2*
X2596791D1*
X2718832D2*
X2746381D1*
X2976914D2*
X3046791D1*
X3168832D2*
X3334791D1*
X3735973D2*
X3761623D1*
X3989977D2*
X4035420D1*
X4224153D2*
X4269631D1*
X4497950D2*
X4533795D1*
X1237032Y1510133D2*
X1337283D1*
X1726336D2*
X2099049D1*
X2522731D2*
X2596791D1*
X2718832D2*
X2750635D1*
X3005356D2*
X3046791D1*
X3168832D2*
X3334791D1*
X4001789D2*
X4021393D1*
X4238215D2*
X4257818D1*
X4509797D2*
X4533795D1*
X1976332Y1492467D2*
X2230287D1*
X2499317D2*
X2596791D1*
X2718832D2*
X2758932D1*
X3020543D2*
X3046791D1*
X3168832D2*
X3334791D1*
X4518235D2*
X4533795D1*
X1051618Y1474800D2*
X1064490D1*
X1976332D2*
X2230287D1*
X2499317D2*
X2596791D1*
X2718832D2*
X2772748D1*
X3029719D2*
X3046791D1*
X3168832D2*
X3334791D1*
X4523965D2*
X4533795D1*
X1051618Y1457133D2*
X1087287D1*
X1976332D2*
X2230287D1*
X2499317D2*
X2596791D1*
X2718832D2*
X2797217D1*
X3034676D2*
X3046791D1*
X3168832D2*
X3334791D1*
X4527270D2*
X4533781D1*
X1051618Y1439467D2*
X1087287D1*
X1976332D2*
X2230287D1*
X2499317D2*
X2596791D1*
X2718832D2*
X2845486D1*
X3036118D2*
X3046791D1*
X3168832D2*
X3334791D1*
X4528325D2*
X4533765D1*
X1051618Y1421800D2*
X1087287D1*
X2501321D2*
X2596791D1*
X2718832D2*
X2792260D1*
X3034184D2*
X3046791D1*
X3168832D2*
X3334791D1*
X4527164D2*
X4533805D1*
X1051618Y1404133D2*
X1087287D1*
X2501321D2*
X2596791D1*
X2718832D2*
X2770182D1*
X3028629D2*
X3046791D1*
X3168832D2*
X3334791D1*
X4523789D2*
X4533795D1*
X1051618Y1386467D2*
X1087287D1*
X2501321D2*
X2596791D1*
X2718832D2*
X2757385D1*
X3018715D2*
X3046791D1*
X3168832D2*
X3336408D1*
X4517989D2*
X4533795D1*
X1051618Y1368800D2*
X1087287D1*
X2501321D2*
X2596791D1*
X2718832D2*
X2749756D1*
X3002297D2*
X3046791D1*
X3168832D2*
X3344318D1*
X4001403D2*
X4021850D1*
X4237758D2*
X4258205D1*
X4509411D2*
X4533795D1*
X1051618Y1351133D2*
X1087287D1*
X2501321D2*
X2596791D1*
X2718832D2*
X2746064D1*
X2969180D2*
X3046791D1*
X3168832D2*
X3351279D1*
X3989450D2*
X4036088D1*
X4223520D2*
X4270158D1*
X4497422D2*
X4533795D1*
X1051618Y1333467D2*
X1087287D1*
X2501321D2*
X2596791D1*
X2718832D2*
X2745783D1*
X2955188D2*
X3046791D1*
X3168832D2*
X3351279D1*
X3972786D2*
X4057252D1*
X4202356D2*
X4286787D1*
X4480793D2*
X4533795D1*
X1051618Y1315800D2*
X1087287D1*
X2501321D2*
X2596791D1*
X2718832D2*
X2748877D1*
X2998465D2*
X3046791D1*
X3168832D2*
X3351279D1*
X3948246D2*
X4069100D1*
X4190508D2*
X4240275D1*
X1051618Y1298133D2*
X1087287D1*
X1336313D2*
X1727271D1*
X2501321D2*
X2596791D1*
X2718832D2*
X2755768D1*
X3016500D2*
X3046791D1*
X3168832D2*
X3351279D1*
X3965649D2*
X4039955D1*
X4219653D2*
X4240275D1*
X1051618Y1280467D2*
X1087287D1*
X2501321D2*
X2596791D1*
X2718832D2*
X2767545D1*
X3027293D2*
X3046791D1*
X3168832D2*
X3351279D1*
X3984387D2*
X4021182D1*
X1051618Y1262800D2*
X1150779D1*
X1791305D2*
X1813264D1*
X1935305D2*
X1972275D1*
X2501321D2*
X2596791D1*
X2718832D2*
X2787408D1*
X3033481D2*
X3046791D1*
X3168832D2*
X3351279D1*
X3997782D2*
X4007813D1*
X1051618Y1245133D2*
X1072275D1*
X2501321D2*
X2543283D1*
X2772305D2*
X2845592D1*
X3222305D2*
X3351279D1*
X1051618Y1227467D2*
X1072275D1*
X2501321D2*
X2543283D1*
X2772305D2*
X2846436D1*
X3222305D2*
X3351279D1*
X1051618Y1209800D2*
X1072275D1*
X1991309D2*
X2045787D1*
X2183332D2*
X2543283D1*
X2772305D2*
X2850760D1*
X3222305D2*
X3351279D1*
X1051618Y1192133D2*
X1072275D1*
X1991309D2*
X2046420D1*
X2201016D2*
X2543283D1*
X2772305D2*
X2859127D1*
X3222305D2*
X3351279D1*
X1051618Y1174467D2*
X1072275D1*
X1991309D2*
X2051939D1*
X2772305D2*
X2873084D1*
X3222305D2*
X3351279D1*
X4627008D2*
X4636777D1*
X1051618Y1156800D2*
X1072275D1*
X1991309D2*
X2065264D1*
X2772305D2*
X2897904D1*
X2983700D2*
X2993283D1*
X3222305D2*
X3351279D1*
X4609360D2*
X4631916D1*
X1051618Y1139133D2*
X1072275D1*
X1991309D2*
X2082912D1*
X2772305D2*
X2993283D1*
X3222305D2*
X3351279D1*
X4591676D2*
X4614232D1*
X1051618Y1121467D2*
X1072275D1*
X1991309D2*
X2100596D1*
X2772305D2*
X2993283D1*
X3222305D2*
X3351279D1*
X4568157D2*
X4596584D1*
X1051618Y1103800D2*
X1072275D1*
X1991309D2*
X2118244D1*
X2772305D2*
X2993283D1*
X3222305D2*
X3351279D1*
X3740403D2*
X3757193D1*
X3994407D2*
X4011197D1*
X1051618Y1086133D2*
X1072275D1*
X1991309D2*
X2135928D1*
X2772305D2*
X2993283D1*
X3222305D2*
X3351279D1*
X3510305D2*
X3517876D1*
X3725743D2*
X3771854D1*
X3979746D2*
X4025857D1*
X4721016D2*
X4730002D1*
X1051618Y1068467D2*
X1072275D1*
X1991309D2*
X2162752D1*
X2772305D2*
X2993283D1*
X3222305D2*
X3538732D1*
X3704860D2*
X3792736D1*
X3958864D2*
X4046740D1*
X4703368D2*
X4730002D1*
X1051618Y1050800D2*
X1072275D1*
X1991309D2*
X2543283D1*
X2772305D2*
X2993283D1*
X3222305D2*
X3573713D1*
X3669914D2*
X3827682D1*
X3923918D2*
X4081686D1*
X4685684D2*
X4730002D1*
X2243080Y1432020D2*
X2307592D1*
X2307580Y1435046D1*
X2232080Y1435080D1*
Y1502545D1*
X2129800Y1502580D1*
X2120536Y1503309D1*
X2111500Y1505478D1*
X2102915Y1509034D1*
X2094991Y1513890D1*
X2087925Y1519925D1*
X1958768Y1649339D1*
X1953306Y1656857D1*
X1949088Y1665137D1*
X1946216Y1673975D1*
X1944762Y1683172D1*
X1937520Y1685080D1*
X1926080D1*
X1926020Y1696520D1*
Y1672080D1*
X1761524D1*
X1765929Y1667929D1*
X1770913Y1662536D1*
X1775459Y1656770D1*
X1779539Y1650664D1*
X1783127Y1644257D1*
X1786201Y1637589D1*
X1788743Y1630699D1*
X1790736Y1623632D1*
X1792169Y1616430D1*
X1793032Y1609137D1*
X1793320Y1601800D1*
X1793032Y1594463D1*
X1792169Y1587170D1*
X1790736Y1579968D1*
X1788743Y1572901D1*
X1786201Y1566011D1*
X1783127Y1559343D1*
X1779539Y1552936D1*
X1775459Y1546830D1*
X1770913Y1541064D1*
X1765929Y1535671D1*
X1760536Y1530687D1*
X1754770Y1526141D1*
X1748664Y1522061D1*
X1742257Y1518473D1*
X1735589Y1515399D1*
X1724531Y1511682D1*
X1724521Y1470008D1*
X1729054Y1470020D1*
X1729081Y1501019D1*
X1974521D1*
Y1432008D1*
X2243080Y1432020D1*
X2425998D2*
X2499520D1*
Y1221580D1*
X2169735D1*
X2207318Y1184032D1*
X2545085Y1184020D1*
X2545081Y1248519D1*
X2598553D1*
X2598580Y1641085D1*
X2592027Y1636308D1*
X2591838Y1600154D1*
X2590384Y1590975D1*
X2587512Y1582137D1*
X2583293Y1573858D1*
X2577831Y1566340D1*
X2561947Y1550197D1*
X2524260Y1512769D1*
X2516742Y1507307D1*
X2508463Y1503088D1*
X2499607Y1500213D1*
X2497520Y1491520D1*
Y1435080D1*
X2426047D1*
X2047602Y1221580D2*
X1989524D1*
X1989521Y1049820D1*
X2545101Y1049800D1*
X2545081Y1065552D1*
X2182800Y1065580D1*
X2173536Y1066309D1*
X2164500Y1068478D1*
X2155915Y1072034D1*
X2147991Y1076890D1*
X2140925Y1082925D1*
X2061769Y1162340D1*
X2056306Y1169858D1*
X2052088Y1178137D1*
X2049216Y1186975D1*
X2047762Y1196154D1*
X2047580Y1221577D1*
X1974080Y1251006D2*
Y1275545D1*
X1933493Y1275579D1*
X1933520Y1250991D1*
X1974061Y1251019D1*
X2241080Y1680520D2*
X2452404D1*
X2448864Y1691968D1*
X2447431Y1699170D1*
X2446568Y1706463D1*
X2446331Y1715090D1*
X2232080Y1715080D1*
Y1723974D1*
X2226727Y1720298D1*
X2223520Y1714520D1*
Y1683080D1*
X2092282D1*
X2154335Y1621015D1*
X2232070Y1621020D1*
X2232080Y1680520D1*
X2241080D1*
X2419006Y1960520D2*
X2490795D1*
X2500339Y1969831D1*
X2507857Y1975294D1*
X2516137Y1979512D1*
X2524975Y1982384D1*
X2534154Y1983838D1*
X2545093Y1984020D1*
X2545081Y2018060D1*
X2416102Y2018080D1*
X2418291Y2009064D1*
X2419020Y1999800D1*
Y1960530D1*
X2497520Y1799750D2*
Y1797219D1*
X2497944Y1800193D1*
X2497527Y1799777D1*
X2504011Y1800201D1*
X2510901Y1802743D1*
X2517968Y1804736D1*
X2525170Y1806169D1*
X2532463Y1807032D1*
X2539800Y1807320D1*
X2545102Y1807112D1*
X2545081Y1847341D1*
X2497944Y1800193D1*
X2232080Y1888435D2*
Y1949045D1*
X2223516Y1949080D1*
X2223520Y1882102D1*
X2227991Y1885710D1*
X2231873Y1888302D1*
X3115520Y3738102D2*
Y3725024D1*
X3163446Y3724838D1*
X3172625Y3723384D1*
X3181463Y3720512D1*
X3189742Y3716294D1*
X3197260Y3710831D1*
X3213403Y3694947D1*
X3252831Y3655260D1*
X3258294Y3647742D1*
X3262512Y3639463D1*
X3265384Y3630625D1*
X3266838Y3621446D1*
X3267020Y3598800D1*
Y3337976D1*
X3274929Y3330929D1*
X3279913Y3325536D1*
X3284264Y3320017D1*
X3452249Y3320020D1*
X3534884Y3402634D1*
X3528473Y3413343D1*
X3525399Y3420011D1*
X3522857Y3426901D1*
X3520864Y3433968D1*
X3519431Y3441170D1*
X3518568Y3448463D1*
X3518280Y3455800D1*
X3518568Y3463137D1*
X3519431Y3470430D1*
X3520864Y3477632D1*
X3522857Y3484699D1*
X3525399Y3491589D1*
X3528473Y3498257D1*
X3532061Y3504664D1*
X3536141Y3510770D1*
X3540687Y3516536D1*
X3545671Y3521929D1*
X3551064Y3526913D1*
X3556830Y3531459D1*
X3562936Y3535539D1*
X3569343Y3539127D1*
X3576011Y3542201D1*
X3582901Y3544743D1*
X3589968Y3546736D1*
X3597170Y3548169D1*
X3604463Y3549032D1*
X3611800Y3549320D1*
X3619137Y3549032D1*
X3626430Y3548169D1*
X3633632Y3546736D1*
X3640699Y3544743D1*
X3647589Y3542201D1*
X3654257Y3539127D1*
X3660664Y3535539D1*
X3666770Y3531459D1*
X3672536Y3526913D1*
X3677929Y3521929D1*
X3682913Y3516536D1*
X3687459Y3510770D1*
X3691539Y3504664D1*
X3695127Y3498257D1*
X3698201Y3491589D1*
X3700743Y3484699D1*
X3702736Y3477632D1*
X3704169Y3470430D1*
X3705032Y3463137D1*
X3705320Y3455800D1*
X3705032Y3448463D1*
X3704169Y3441170D1*
X3702736Y3433968D1*
X3700743Y3426901D1*
X3698201Y3420011D1*
X3695127Y3413343D1*
X3691539Y3406936D1*
X3687459Y3400830D1*
X3682426Y3394537D1*
X3690901Y3397743D1*
X3697968Y3399736D1*
X3705170Y3401169D1*
X3712463Y3402032D1*
X3719800Y3402320D1*
X3727137Y3402032D1*
X3734430Y3401169D1*
X3741632Y3399736D1*
X3748699Y3397743D1*
X3755589Y3395201D1*
X3762257Y3392127D1*
X3768664Y3388539D1*
X3774770Y3384459D1*
X3780536Y3379913D1*
X3785929Y3374929D1*
X3790913Y3369536D1*
X3795459Y3363770D1*
X3799539Y3357664D1*
X3803127Y3351257D1*
X3806201Y3344589D1*
X3808743Y3337699D1*
X3810736Y3330632D1*
X3812169Y3323430D1*
X3813032Y3316137D1*
X3813320Y3308800D1*
X3813032Y3301463D1*
X3812169Y3294170D1*
X3810736Y3286968D1*
X3808743Y3279901D1*
X3806201Y3273011D1*
X3803127Y3266343D1*
X3799539Y3259936D1*
X3795459Y3253830D1*
X3790913Y3248064D1*
X3785929Y3242671D1*
X3779027Y3236497D1*
X3782081Y3234519D1*
X3898569D1*
X3898580Y3310421D1*
X3891671Y3316671D1*
X3886687Y3322064D1*
X3882141Y3327830D1*
X3878061Y3333936D1*
X3874473Y3340343D1*
X3871399Y3347011D1*
X3868857Y3353901D1*
X3866864Y3360968D1*
X3865431Y3368170D1*
X3864568Y3375463D1*
X3864280Y3382800D1*
X3864568Y3390137D1*
X3865431Y3397430D1*
X3866864Y3404632D1*
X3868857Y3411699D1*
X3871399Y3418589D1*
X3874473Y3425257D1*
X3878061Y3431664D1*
X3882141Y3437770D1*
X3886687Y3443536D1*
X3891671Y3448929D1*
X3897064Y3453913D1*
X3902830Y3458459D1*
X3908936Y3462539D1*
X3915343Y3466127D1*
X3922011Y3469201D1*
X3928901Y3471743D1*
X3935968Y3473736D1*
X3943170Y3475169D1*
X3950463Y3476032D1*
X3957800Y3476320D1*
X3965137Y3476032D1*
X3972430Y3475169D1*
X3979632Y3473736D1*
X3986699Y3471743D1*
X3993589Y3469201D1*
X4000257Y3466127D1*
X4006664Y3462539D1*
X4012770Y3458459D1*
X4018536Y3453913D1*
X4023929Y3448929D1*
X4028913Y3443536D1*
X4033459Y3437770D1*
X4037539Y3431664D1*
X4041127Y3425257D1*
X4044201Y3418589D1*
X4046743Y3411699D1*
X4048736Y3404632D1*
X4050169Y3397430D1*
X4051032Y3390137D1*
X4051320Y3382800D1*
X4051032Y3375463D1*
X4050169Y3368170D1*
X4048736Y3360968D1*
X4047296Y3355861D1*
X4056343Y3361127D1*
X4063011Y3364201D1*
X4069901Y3366743D1*
X4076968Y3368736D1*
X4084170Y3370169D1*
X4091463Y3371032D1*
X4098800Y3371320D1*
X4106137Y3371032D1*
X4113430Y3370169D1*
X4120632Y3368736D1*
X4127699Y3366743D1*
X4134589Y3364201D1*
X4141257Y3361127D1*
X4150598Y3355579D1*
X4154141Y3360770D1*
X4158687Y3366536D1*
X4163671Y3371929D1*
X4169064Y3376913D1*
X4174830Y3381459D1*
X4180936Y3385539D1*
X4187343Y3389127D1*
X4194011Y3392201D1*
X4200901Y3394743D1*
X4207968Y3396736D1*
X4215170Y3398169D1*
X4222463Y3399032D1*
X4229800Y3399320D1*
X4237137Y3399032D1*
X4244430Y3398169D1*
X4251632Y3396736D1*
X4258699Y3394743D1*
X4265589Y3392201D1*
X4272257Y3389127D1*
X4278664Y3385539D1*
X4284770Y3381459D1*
X4292580Y3375024D1*
Y4146304D1*
X4131262Y4307588D1*
X3053154Y4307762D1*
X3043975Y4309216D1*
X3035137Y4312088D1*
X3026858Y4316306D1*
X3019340Y4321769D1*
X3003197Y4337653D1*
X2821252Y4519598D1*
X2602554Y4519580D1*
X2607604Y4509542D1*
X2609716Y4503817D1*
X2611373Y4497943D1*
X2612563Y4491958D1*
X2613280Y4485898D1*
X2613520Y4479800D1*
X2613280Y4473702D1*
X2612563Y4467642D1*
X2611373Y4461657D1*
X2609716Y4455783D1*
X2607604Y4450058D1*
X2605049Y4444516D1*
X2600941Y4437507D1*
X2878521Y4437519D1*
Y4383203D1*
X2887100Y4381122D1*
X2895685Y4377565D1*
X2903609Y4372710D1*
X2910675Y4366675D1*
X2953831Y4323260D1*
X2959293Y4315742D1*
X2963512Y4307463D1*
X2966384Y4298625D1*
X2967838Y4289446D1*
X2968020Y4282163D1*
X2974929Y4275929D1*
X2979913Y4270536D1*
X2984459Y4264770D1*
X2988539Y4258664D1*
X2992127Y4252257D1*
X2995201Y4245589D1*
X2997743Y4238699D1*
X2999736Y4231632D1*
X3001169Y4224430D1*
X3002032Y4217137D1*
X3002292Y4210517D1*
X3096520Y4210520D1*
Y3933531D1*
X3115520Y3933520D1*
X3115485Y3738080D1*
X3115520Y3606547D2*
Y3568080D1*
X2999118D1*
X3006675Y3561675D1*
X3147687Y3420662D1*
X3148580Y3426800D1*
Y3592280D1*
X3134279Y3606571D1*
X3115523Y3606580D1*
X2930080Y3579013D2*
Y3642646D1*
X2920632Y3639864D1*
X2913430Y3638431D1*
X2906137Y3637568D1*
X2898800Y3637280D1*
X2891463Y3637568D1*
X2884170Y3638431D1*
X2878516Y3639556D1*
X2878520Y3579055D1*
X2930109Y3579020D1*
X2930080Y3818904D2*
Y3873255D1*
X2921430Y3871431D1*
X2914137Y3870568D1*
X2906800Y3870280D1*
X2896244Y3870949D1*
X2889685Y3867034D1*
X2881083Y3863473D1*
X2878521Y3857519D1*
Y3822117D1*
X2891463Y3824032D1*
X2898800Y3824320D1*
X2906137Y3824032D1*
X2913430Y3823169D1*
X2920632Y3821736D1*
X2930094Y3818859D1*
X1888080Y2184520D2*
X2060592D1*
X2060762Y2257446D1*
X2062216Y2266625D1*
X2065088Y2275463D1*
X2069307Y2283742D1*
X2074769Y2291260D1*
X2090653Y2307403D1*
X2177340Y2393831D1*
X2181006Y2396720D1*
X2180520Y2399080D1*
X1879080D1*
Y2457615D1*
X1142351Y2457580D1*
X1130018Y2445268D1*
X1130020Y2352554D1*
X1346020Y2352520D1*
Y2187080D1*
X1129985D1*
X1130020Y2117499D1*
X1361020Y2117520D1*
Y2104758D1*
X1414339Y2157831D1*
X1421857Y2163294D1*
X1430137Y2167512D1*
X1438975Y2170384D1*
X1448154Y2171838D1*
X1470800Y2172020D1*
X1879070D1*
X1879080Y2184520D1*
X1888080D1*
X2178998D2*
X2324520D1*
Y2116774D1*
X2331260Y2111831D1*
X2349068Y2094281D1*
X2349080Y2243520D1*
X2483975D1*
X2395769Y2331738D1*
X2392743Y2319901D1*
X2390201Y2313011D1*
X2387127Y2306343D1*
X2383539Y2299936D1*
X2379459Y2293830D1*
X2374913Y2288064D1*
X2369929Y2282671D1*
X2364536Y2277687D1*
X2358770Y2273141D1*
X2352664Y2269061D1*
X2346257Y2265473D1*
X2339589Y2262399D1*
X2332699Y2259857D1*
X2325632Y2257864D1*
X2318430Y2256431D1*
X2311137Y2255568D1*
X2303800Y2255280D1*
X2296463Y2255568D1*
X2289170Y2256431D1*
X2281968Y2257864D1*
X2274901Y2259857D1*
X2268011Y2262399D1*
X2261343Y2265473D1*
X2254936Y2269061D1*
X2248830Y2273141D1*
X2243064Y2277687D1*
X2235627Y2284883D1*
X2178995Y2228246D1*
X2179020Y2184491D1*
X1879080Y2576021D2*
Y2590576D1*
X1188467Y2590750D1*
X1179909Y2592105D1*
X1171668Y2594783D1*
X1163947Y2598717D1*
X1156937Y2603810D1*
X1141025Y2619481D1*
X1082810Y2677937D1*
X1077717Y2684947D1*
X1073783Y2692668D1*
X1071105Y2700909D1*
X1069750Y2709467D1*
X1069580Y2731800D1*
X1069750Y3279133D1*
X1071105Y3287691D1*
X1073783Y3295932D1*
X1077717Y3303653D1*
X1082810Y3310663D1*
X1098481Y3326575D1*
X1133937Y3361790D1*
X1140962Y3366891D1*
X1143081Y3373079D1*
Y3664552D1*
X1135500Y3666478D1*
X1126915Y3670034D1*
X1118991Y3674890D1*
X1111925Y3680925D1*
X1075769Y3717340D1*
X1070307Y3724858D1*
X1066088Y3733137D1*
X1063216Y3741975D1*
X1061762Y3751154D1*
X1061580Y3773800D1*
X1061762Y4455446D1*
X1063216Y4464625D1*
X1066088Y4473463D1*
X1070307Y4481742D1*
X1075769Y4489260D1*
X1091653Y4505403D1*
X1145340Y4558831D1*
X1152858Y4564293D1*
X1161137Y4568512D1*
X1169975Y4571384D1*
X1179154Y4572838D1*
X1201800Y4573020D1*
X1220398D1*
X1226671Y4579929D1*
X1232064Y4584913D1*
X1237830Y4589459D1*
X1243936Y4593539D1*
X1250343Y4597127D1*
X1257011Y4600201D1*
X1263901Y4602743D1*
X1270968Y4604736D1*
X1278170Y4606169D1*
X1285463Y4607032D1*
X1292800Y4607320D1*
X1300137Y4607032D1*
X1307430Y4606169D1*
X1314632Y4604736D1*
X1321699Y4602743D1*
X1328589Y4600201D1*
X1335257Y4597127D1*
X1341664Y4593539D1*
X1347770Y4589459D1*
X1353536Y4584913D1*
X1358929Y4579929D1*
X1363913Y4574536D1*
X1368459Y4568770D1*
X1372539Y4562664D1*
X1376127Y4556257D1*
X1379201Y4549589D1*
X1381743Y4542699D1*
X1383736Y4535632D1*
X1385169Y4528430D1*
X1386032Y4521137D1*
X1386320Y4513800D1*
X1386032Y4506463D1*
X1385169Y4499170D1*
X1383736Y4491968D1*
X1381743Y4484901D1*
X1379201Y4478011D1*
X1376127Y4471343D1*
X1372539Y4464936D1*
X1368459Y4458830D1*
X1363913Y4453064D1*
X1358929Y4447671D1*
X1352027Y4441497D1*
X1359080Y4437520D1*
X1428520D1*
Y4179055D1*
X1846296Y4179020D1*
X2287925Y4620675D1*
X2294991Y4626710D1*
X2302915Y4631566D1*
X2311500Y4635122D1*
X2320536Y4637291D1*
X2329800Y4638020D1*
X2850446Y4637838D1*
X2859625Y4636384D1*
X2868463Y4633512D1*
X2876742Y4629294D1*
X2884260Y4623831D1*
X2900403Y4607947D1*
X3025818Y4482532D1*
X3024216Y4487975D1*
X3022762Y4497154D1*
X3022580Y4519800D1*
X3022520Y4846580D1*
X2967080D1*
Y5131803D1*
X1049800Y5131800D1*
Y2532523D1*
X1079340Y2561831D1*
X1086858Y2567294D1*
X1095137Y2571512D1*
X1103975Y2574384D1*
X1113154Y2575838D1*
X1135800Y2576020D1*
X1879109D1*
X1813280Y4476702D2*
X1812563Y4470642D1*
X1811373Y4464657D1*
X1809716Y4458783D1*
X1807604Y4453058D1*
X1805049Y4447516D1*
X1802067Y4442191D1*
X1798677Y4437117D1*
X1794899Y4432325D1*
X1790756Y4427844D1*
X1786275Y4423701D1*
X1781483Y4419923D1*
X1776409Y4416533D1*
X1771084Y4413551D1*
X1765542Y4410996D1*
X1759817Y4408884D1*
X1753943Y4407227D1*
X1747958Y4406037D1*
X1741898Y4405320D1*
X1735800Y4405080D1*
X1729702Y4405320D1*
X1723642Y4406037D1*
X1717657Y4407227D1*
X1711783Y4408884D1*
X1706058Y4410996D1*
X1700516Y4413551D1*
X1695191Y4416533D1*
X1690117Y4419923D1*
X1685325Y4423701D1*
X1680844Y4427844D1*
X1676701Y4432325D1*
X1672923Y4437117D1*
X1669533Y4442191D1*
X1666551Y4447516D1*
X1663996Y4453058D1*
X1661884Y4458783D1*
X1660227Y4464657D1*
X1659037Y4470642D1*
X1658320Y4476702D1*
X1658080Y4482800D1*
X1658320Y4488898D1*
X1659037Y4494958D1*
X1660227Y4500943D1*
X1661884Y4506817D1*
X1663996Y4512542D1*
X1666551Y4518084D1*
X1669533Y4523409D1*
X1672923Y4528483D1*
X1676701Y4533275D1*
X1680844Y4537756D1*
X1685325Y4541899D1*
X1690117Y4545677D1*
X1695191Y4549067D1*
X1700516Y4552049D1*
X1706058Y4554604D1*
X1711783Y4556716D1*
X1717657Y4558373D1*
X1723642Y4559563D1*
X1729702Y4560280D1*
X1735800Y4560520D1*
X1741898Y4560280D1*
X1747958Y4559563D1*
X1753943Y4558373D1*
X1759817Y4556716D1*
X1765542Y4554604D1*
X1771084Y4552049D1*
X1776409Y4549067D1*
X1781483Y4545677D1*
X1786275Y4541899D1*
X1790756Y4537756D1*
X1794899Y4533275D1*
X1798677Y4528483D1*
X1802067Y4523409D1*
X1805049Y4518084D1*
X1807604Y4512542D1*
X1809716Y4506817D1*
X1811373Y4500943D1*
X1812563Y4494958D1*
X1813280Y4488898D1*
X1813520Y4482800D1*
X1813280Y4476702D1*
X2593070Y4427347D2*
X2586275Y4420701D1*
X2581483Y4416923D1*
X2576409Y4413533D1*
X2571084Y4410551D1*
X2565542Y4407996D1*
X2559817Y4405884D1*
X2553943Y4404227D1*
X2547958Y4403037D1*
X2541898Y4402320D1*
X2535800Y4402080D1*
X2529702Y4402320D1*
X2523642Y4403037D1*
X2517657Y4404227D1*
X2511783Y4405884D1*
X2506058Y4407996D1*
X2500516Y4410551D1*
X2495191Y4413533D1*
X2490117Y4416923D1*
X2485325Y4420701D1*
X2480844Y4424844D1*
X2476701Y4429325D1*
X2472923Y4434117D1*
X2469533Y4439191D1*
X2466551Y4444516D1*
X2463996Y4450058D1*
X2461884Y4455783D1*
X2460227Y4461657D1*
X2459037Y4467642D1*
X2458320Y4473702D1*
X2458080Y4479800D1*
X2458320Y4485898D1*
X2459037Y4491958D1*
X2460227Y4497943D1*
X2461884Y4503817D1*
X2463996Y4509542D1*
X2469079Y4519597D1*
X2354351Y4519580D1*
X1912675Y4077925D1*
X1905609Y4071890D1*
X1897685Y4067034D1*
X1889100Y4063478D1*
X1880064Y4061309D1*
X1870800Y4060580D1*
X1428499D1*
X1428520Y4015617D1*
X1438011Y4020201D1*
X1444901Y4022743D1*
X1451968Y4024736D1*
X1459170Y4026169D1*
X1466463Y4027032D1*
X1473800Y4027320D1*
X1481137Y4027032D1*
X1488430Y4026169D1*
X1495632Y4024736D1*
X1502699Y4022743D1*
X1509589Y4020201D1*
X1516257Y4017127D1*
X1522664Y4013539D1*
X1528770Y4009459D1*
X1534536Y4004913D1*
X1539929Y3999929D1*
X1546103Y3993027D1*
X1873446Y3992838D1*
X1882625Y3991384D1*
X1891463Y3988512D1*
X1899742Y3984294D1*
X1907260Y3978831D1*
X1923403Y3962947D1*
X2028831Y3857260D1*
X2034294Y3849742D1*
X2038512Y3841463D1*
X2041384Y3832625D1*
X2042838Y3823446D1*
X2043020Y3800800D1*
Y3640382D1*
X2047061Y3647664D1*
X2051141Y3653770D1*
X2055687Y3659536D1*
X2060671Y3664929D1*
X2066064Y3669913D1*
X2071830Y3674459D1*
X2077936Y3678539D1*
X2084343Y3682127D1*
X2091011Y3685201D1*
X2097901Y3687743D1*
X2104968Y3689736D1*
X2112170Y3691169D1*
X2119463Y3692032D1*
X2126800Y3692320D1*
X2134137Y3692032D1*
X2141430Y3691169D1*
X2148632Y3689736D1*
X2155699Y3687743D1*
X2162589Y3685201D1*
X2169257Y3682127D1*
X2175664Y3678539D1*
X2181770Y3674459D1*
X2187536Y3669913D1*
X2192929Y3664929D1*
X2199103Y3658027D1*
X2260359Y3658020D1*
X2264687Y3663536D1*
X2269671Y3668929D1*
X2275064Y3673913D1*
X2280830Y3678459D1*
X2286936Y3682539D1*
X2293343Y3686127D1*
X2300011Y3689201D1*
X2306901Y3691743D1*
X2313968Y3693736D1*
X2321170Y3695169D1*
X2328463Y3696032D1*
X2335800Y3696320D1*
X2343137Y3696032D1*
X2350430Y3695169D1*
X2357632Y3693736D1*
X2364699Y3691743D1*
X2371589Y3689201D1*
X2378257Y3686127D1*
X2384664Y3682539D1*
X2390770Y3678459D1*
X2396536Y3673913D1*
X2401929Y3668929D1*
X2406913Y3663536D1*
X2411459Y3657770D1*
X2415539Y3651664D1*
X2419127Y3645257D1*
X2422201Y3638589D1*
X2424743Y3631699D1*
X2426736Y3624632D1*
X2428169Y3617430D1*
X2429032Y3610137D1*
X2429320Y3602800D1*
X2429032Y3595463D1*
X2428169Y3588170D1*
X2426736Y3580968D1*
X2424743Y3573901D1*
X2422201Y3567011D1*
X2419127Y3560343D1*
X2415539Y3553936D1*
X2411459Y3547830D1*
X2406913Y3542064D1*
X2401929Y3536671D1*
X2396536Y3531687D1*
X2390770Y3527141D1*
X2384664Y3523061D1*
X2378257Y3519473D1*
X2371589Y3516399D1*
X2364699Y3513857D1*
X2357632Y3511864D1*
X2350430Y3510431D1*
X2343137Y3509568D1*
X2335800Y3509280D1*
X2328463Y3509568D1*
X2321170Y3510431D1*
X2313968Y3511864D1*
X2306901Y3513857D1*
X2300011Y3516399D1*
X2293343Y3519473D1*
X2286936Y3523061D1*
X2280830Y3527141D1*
X2275064Y3531687D1*
X2266965Y3539599D1*
X2199155Y3539580D1*
X2192929Y3532671D1*
X2187536Y3527687D1*
X2181770Y3523141D1*
X2175664Y3519061D1*
X2169257Y3515473D1*
X2162589Y3512399D1*
X2155699Y3509857D1*
X2148632Y3507864D1*
X2141430Y3506431D1*
X2134137Y3505568D1*
X2126800Y3505280D1*
X2119463Y3505568D1*
X2112170Y3506431D1*
X2104968Y3507864D1*
X2097901Y3509857D1*
X2091011Y3512399D1*
X2084343Y3515473D1*
X2077936Y3519061D1*
X2071830Y3523141D1*
X2066064Y3527687D1*
X2060671Y3532671D1*
X2055687Y3538064D1*
X2051141Y3543830D1*
X2047061Y3549936D1*
X2043029Y3557307D1*
X2042838Y3391154D1*
X2041384Y3381975D1*
X2038512Y3373137D1*
X2034294Y3364857D1*
X2028831Y3357340D1*
X2012947Y3341197D1*
X1581662Y2909913D1*
X1583080Y2908520D1*
X2216520D1*
X2593084D1*
X2585741Y2916109D1*
X2568116Y2933734D1*
X2558800Y2933280D1*
X2551463Y2933568D1*
X2544170Y2934431D1*
X2536968Y2935864D1*
X2529901Y2937857D1*
X2523011Y2940399D1*
X2516343Y2943473D1*
X2509936Y2947061D1*
X2503830Y2951141D1*
X2498064Y2955687D1*
X2492671Y2960671D1*
X2487687Y2966064D1*
X2483141Y2971830D1*
X2479061Y2977936D1*
X2475473Y2984343D1*
X2472399Y2991011D1*
X2469857Y2997901D1*
X2467864Y3004968D1*
X2466431Y3012170D1*
X2465568Y3019463D1*
X2465280Y3026800D1*
X2465568Y3034137D1*
X2466431Y3041430D1*
X2467864Y3048632D1*
X2469857Y3055699D1*
X2472329Y3062400D1*
X2464137Y3065088D1*
X2455858Y3069307D1*
X2448340Y3074769D1*
X2432197Y3090653D1*
X2382769Y3140340D1*
X2377306Y3147858D1*
X2373088Y3156137D1*
X2370216Y3164975D1*
X2368762Y3174154D1*
X2368580Y3197538D1*
X2359064Y3204687D1*
X2353671Y3209671D1*
X2348687Y3215064D1*
X2344141Y3220830D1*
X2340061Y3226936D1*
X2336473Y3233343D1*
X2333399Y3240011D1*
X2330857Y3246901D1*
X2328864Y3253968D1*
X2327431Y3261170D1*
X2326568Y3268463D1*
X2326280Y3275800D1*
X2326568Y3283137D1*
X2327431Y3290430D1*
X2328864Y3297632D1*
X2330857Y3304699D1*
X2333399Y3311589D1*
X2336473Y3318257D1*
X2340061Y3324664D1*
X2344141Y3330770D1*
X2348687Y3336536D1*
X2353671Y3341929D1*
X2359064Y3346913D1*
X2364830Y3351459D1*
X2370936Y3355539D1*
X2377343Y3359127D1*
X2384011Y3362201D1*
X2390901Y3364743D1*
X2397968Y3366736D1*
X2405170Y3368169D1*
X2412463Y3369032D1*
X2419800Y3369320D1*
X2427137Y3369032D1*
X2434430Y3368169D1*
X2441632Y3366736D1*
X2448699Y3364743D1*
X2455589Y3362201D1*
X2462257Y3359127D1*
X2469785Y3354790D1*
X2476141Y3364770D1*
X2480687Y3370536D1*
X2485671Y3375929D1*
X2492573Y3382103D1*
X2492580Y3650288D1*
X2319130Y3823719D1*
X2309800Y3823280D1*
X2302463Y3823568D1*
X2295170Y3824431D1*
X2287968Y3825864D1*
X2280901Y3827857D1*
X2274011Y3830399D1*
X2267343Y3833473D1*
X2260936Y3837061D1*
X2254830Y3841141D1*
X2249064Y3845687D1*
X2243671Y3850671D1*
X2238687Y3856064D1*
X2234141Y3861830D1*
X2230061Y3867936D1*
X2226473Y3874343D1*
X2223399Y3881011D1*
X2220857Y3887901D1*
X2218864Y3894968D1*
X2217431Y3902170D1*
X2216568Y3909463D1*
X2216280Y3916800D1*
X2216568Y3924137D1*
X2217431Y3931430D1*
X2218864Y3938632D1*
X2220857Y3945699D1*
X2223399Y3952589D1*
X2226473Y3959257D1*
X2230061Y3965664D1*
X2234141Y3971770D1*
X2238687Y3977536D1*
X2243671Y3982929D1*
X2249064Y3987913D1*
X2254830Y3992459D1*
X2260936Y3996539D1*
X2267343Y4000127D1*
X2274011Y4003201D1*
X2280901Y4005743D1*
X2287968Y4007736D1*
X2295170Y4009169D1*
X2302463Y4010032D1*
X2309800Y4010320D1*
X2317137Y4010032D1*
X2324430Y4009169D1*
X2331632Y4007736D1*
X2338699Y4005743D1*
X2345589Y4003201D1*
X2352257Y4000127D1*
X2358664Y3996539D1*
X2364770Y3992459D1*
X2370536Y3987913D1*
X2375929Y3982929D1*
X2380913Y3977536D1*
X2385459Y3971770D1*
X2389539Y3965664D1*
X2393127Y3959257D1*
X2396201Y3952589D1*
X2398743Y3945699D1*
X2400736Y3938632D1*
X2402169Y3931430D1*
X2403032Y3924137D1*
X2403320Y3916800D1*
X2402806Y3907554D1*
X2593083Y3717267D1*
X2593081Y3965802D1*
X2588536Y3961687D1*
X2582770Y3957141D1*
X2576664Y3953061D1*
X2570257Y3949473D1*
X2563589Y3946399D1*
X2556699Y3943857D1*
X2549632Y3941864D1*
X2542430Y3940431D1*
X2535137Y3939568D1*
X2527800Y3939280D1*
X2520463Y3939568D1*
X2513170Y3940431D1*
X2505968Y3941864D1*
X2498901Y3943857D1*
X2492011Y3946399D1*
X2485343Y3949473D1*
X2478936Y3953061D1*
X2472830Y3957141D1*
X2467064Y3961687D1*
X2461671Y3966671D1*
X2456687Y3972064D1*
X2452141Y3977830D1*
X2448061Y3983936D1*
X2444473Y3990343D1*
X2441399Y3997011D1*
X2438857Y4003901D1*
X2436864Y4010968D1*
X2435431Y4018170D1*
X2434568Y4025463D1*
X2434280Y4032800D1*
X2434568Y4040137D1*
X2435431Y4047430D1*
X2436864Y4054632D1*
X2438857Y4061699D1*
X2441399Y4068589D1*
X2444473Y4075257D1*
X2448061Y4081664D1*
X2452141Y4087770D1*
X2456687Y4093536D1*
X2461671Y4098929D1*
X2467064Y4103913D1*
X2472830Y4108459D1*
X2478936Y4112539D1*
X2485343Y4116127D1*
X2492011Y4119201D1*
X2498901Y4121743D1*
X2505968Y4123736D1*
X2516845Y4125604D1*
X2549339Y4157832D1*
X2556857Y4163294D1*
X2565137Y4167512D1*
X2573975Y4170384D1*
X2583154Y4171838D1*
X2593109Y4172020D1*
X2593081Y4427255D1*
X1404087Y1300580D2*
X1339080D1*
Y1521020D1*
X1342561D1*
X1342580Y1672046D1*
X1080580Y1672080D1*
Y1715287D1*
X1072137Y1718088D1*
X1063858Y1722306D1*
X1056340Y1727769D1*
X1049818Y1734032D1*
X1049800Y1611640D1*
X1054671Y1616929D1*
X1060064Y1621913D1*
X1065830Y1626459D1*
X1071936Y1630539D1*
X1078343Y1634127D1*
X1085011Y1637201D1*
X1091901Y1639743D1*
X1098968Y1641736D1*
X1106170Y1643169D1*
X1113463Y1644032D1*
X1120800Y1644320D1*
X1128137Y1644032D1*
X1135430Y1643169D1*
X1142632Y1641736D1*
X1149699Y1639743D1*
X1156589Y1637201D1*
X1163257Y1634127D1*
X1169664Y1630539D1*
X1175770Y1626459D1*
X1181536Y1621913D1*
X1186929Y1616929D1*
X1191913Y1611536D1*
X1196459Y1605770D1*
X1200539Y1599664D1*
X1204127Y1593257D1*
X1207201Y1586589D1*
X1209743Y1579699D1*
X1211736Y1572632D1*
X1213169Y1565430D1*
X1214032Y1558137D1*
X1214320Y1550800D1*
X1214032Y1543463D1*
X1212503Y1532822D1*
X1244337Y1501012D1*
X1334521Y1501019D1*
Y1281047D1*
X1729060Y1281020D1*
X1729081Y1351552D1*
X1724499Y1351580D1*
X1724521Y1300579D1*
X1404080Y1300580D1*
Y1300615D1*
X1152587Y1275579D2*
X1089081D1*
Y1462857D1*
X1078343Y1467473D1*
X1071936Y1471061D1*
X1065830Y1475141D1*
X1060064Y1479687D1*
X1054671Y1484671D1*
X1049784Y1489958D1*
X1049800Y1049773D1*
X1074093Y1049800D1*
X1074081Y1251019D1*
X1152585D1*
X1152580Y1275593D1*
X1815087Y1275579D2*
X1789493D1*
X1789520Y1251032D1*
X1815085Y1251019D1*
X1815080Y1275593D1*
X3452520Y5131805D2*
Y4846580D1*
X3399047D1*
X3399020Y4758523D1*
X3422520Y4758520D1*
Y4473080D1*
X3391899D1*
X3389566Y4467915D1*
X3384710Y4459991D1*
X3378675Y4452925D1*
X3351752Y4426003D1*
X4155800Y4426020D1*
X4165064Y4425291D1*
X4174100Y4423122D1*
X4182685Y4419566D1*
X4190609Y4414710D1*
X4197675Y4408675D1*
X4396831Y4209260D1*
X4402294Y4201743D1*
X4406512Y4193463D1*
X4409384Y4184625D1*
X4410838Y4175446D1*
X4411020Y4152800D1*
Y3234554D1*
X4692520Y3234520D1*
Y3004352D1*
X4699137Y3004032D1*
X4706430Y3003169D1*
X4713632Y3001736D1*
X4720699Y2999743D1*
X4731783Y2995268D1*
X4731800Y5131800D1*
X3452499D1*
X4086687Y1049799D2*
X4076322Y1053478D1*
X4068089Y1057111D1*
X4060102Y1061256D1*
X4052392Y1065896D1*
X4044990Y1071012D1*
X4037925Y1076585D1*
X4031225Y1082592D1*
X4024917Y1089009D1*
X4019025Y1095811D1*
X4013575Y1102971D1*
X4008586Y1110460D1*
X4002842Y1120735D1*
X3996145Y1109079D1*
X3991071Y1101647D1*
X3985538Y1094551D1*
X3979570Y1087816D1*
X3973189Y1081472D1*
X3966421Y1075542D1*
X3959292Y1070050D1*
X3951832Y1065019D1*
X3944069Y1060467D1*
X3936035Y1056414D1*
X3927762Y1052875D1*
X3919045Y1049797D1*
X4086491Y1049800D1*
X4002825Y1250827D2*
X4005656Y1256209D1*
X4010340Y1263892D1*
X4015499Y1271265D1*
X4021112Y1278298D1*
X4027157Y1284964D1*
X4033610Y1291235D1*
X4040446Y1297087D1*
X4047637Y1302497D1*
X4055154Y1307443D1*
X4062968Y1311905D1*
X4071048Y1315866D1*
X4083585Y1320755D1*
X4071646Y1326088D1*
X4063784Y1330464D1*
X4056250Y1335384D1*
X4049080Y1340821D1*
X4042312Y1346750D1*
X4035978Y1353141D1*
X4030109Y1359962D1*
X4024735Y1367179D1*
X4019883Y1374757D1*
X4015576Y1382658D1*
X4010813Y1393574D1*
X4008425Y1387079D1*
X4004839Y1378826D1*
X4000740Y1370815D1*
X3996145Y1363079D1*
X3991071Y1355647D1*
X3985538Y1348551D1*
X3979570Y1341816D1*
X3973189Y1335472D1*
X3966421Y1329542D1*
X3959292Y1324050D1*
X3951832Y1319019D1*
X3940837Y1312836D1*
X3954574Y1304811D1*
X3961917Y1299611D1*
X3968918Y1293957D1*
X3975549Y1287874D1*
X3981783Y1281385D1*
X3987596Y1274516D1*
X3992965Y1267295D1*
X3997868Y1259749D1*
X4002790Y1250865D1*
X4176144Y1320778D2*
X4184788Y1317502D1*
X4192978Y1313775D1*
X4200917Y1309539D1*
X4208574Y1304811D1*
X4215917Y1299611D1*
X4222918Y1293957D1*
X4229549Y1287874D1*
X4235783Y1281385D1*
X4242079Y1273867D1*
X4242080Y1328523D1*
X4294428D1*
X4285225Y1336592D1*
X4278917Y1343009D1*
X4273025Y1349811D1*
X4267575Y1356971D1*
X4262586Y1364460D1*
X4258079Y1372249D1*
X4254072Y1380306D1*
X4248857Y1393545D1*
X4246273Y1387395D1*
X4242295Y1379324D1*
X4237757Y1371553D1*
X4232684Y1364122D1*
X4227101Y1357066D1*
X4221034Y1350420D1*
X4214514Y1344218D1*
X4207574Y1338491D1*
X4200248Y1333266D1*
X4192573Y1328571D1*
X4184585Y1324427D1*
X4176160Y1320798D1*
X4010808Y1486091D2*
X4014918Y1495607D1*
X4019132Y1503558D1*
X4023896Y1511191D1*
X4029185Y1518471D1*
X4034974Y1525360D1*
X4041233Y1531824D1*
X4047932Y1537831D1*
X4055038Y1543352D1*
X4062514Y1548359D1*
X4070325Y1552827D1*
X4077512Y1556291D1*
X4071830Y1560141D1*
X4066064Y1564687D1*
X4060671Y1569671D1*
X4054497Y1576573D1*
X3958999Y1576580D1*
X3953913Y1570064D1*
X3947391Y1563250D1*
X3954574Y1558811D1*
X3961917Y1553611D1*
X3968918Y1547957D1*
X3975549Y1541874D1*
X3981783Y1535385D1*
X3987596Y1528516D1*
X3992965Y1521295D1*
X3997868Y1513749D1*
X4002285Y1505910D1*
X4006200Y1497807D1*
X4010749Y1486042D1*
X4178406Y1557826D2*
X4183237Y1555804D1*
X4191272Y1551753D1*
X4199002Y1547147D1*
X4206389Y1542009D1*
X4213395Y1536362D1*
X4219986Y1530237D1*
X4226130Y1523663D1*
X4231795Y1516672D1*
X4236955Y1509300D1*
X4241582Y1501583D1*
X4245655Y1493559D1*
X4248811Y1486078D1*
X4251786Y1494034D1*
X4255466Y1502245D1*
X4259656Y1510209D1*
X4264340Y1517892D1*
X4269499Y1525265D1*
X4275112Y1532298D1*
X4281157Y1538964D1*
X4287610Y1545235D1*
X4294446Y1551087D1*
X4301637Y1556497D1*
X4309154Y1561443D1*
X4316968Y1565905D1*
X4325600Y1570095D1*
X4325580Y1661054D1*
X4242080Y1661076D1*
Y1715674D1*
X4233570Y1705816D1*
X4227189Y1699472D1*
X4220421Y1693542D1*
X4213292Y1688050D1*
X4207027Y1683824D1*
X4210127Y1678257D1*
X4213201Y1671589D1*
X4215743Y1664699D1*
X4217736Y1657632D1*
X4219169Y1650430D1*
X4220032Y1643137D1*
X4220320Y1635800D1*
X4220032Y1628463D1*
X4219169Y1621170D1*
X4217736Y1613968D1*
X4215743Y1606901D1*
X4213201Y1600011D1*
X4210127Y1593343D1*
X4206539Y1586936D1*
X4202459Y1580830D1*
X4197913Y1575064D1*
X4192929Y1569671D1*
X4187536Y1564687D1*
X4178407Y1557894D1*
X3832687Y1049799D2*
X3822322Y1053478D1*
X3814089Y1057111D1*
X3806102Y1061256D1*
X3798392Y1065896D1*
X3790990Y1071012D1*
X3783925Y1076585D1*
X3777225Y1082592D1*
X3770917Y1089009D1*
X3765025Y1095811D1*
X3759575Y1102971D1*
X3754586Y1110460D1*
X3748842Y1120735D1*
X3742145Y1109079D1*
X3737071Y1101647D1*
X3731538Y1094551D1*
X3725570Y1087816D1*
X3719189Y1081472D1*
X3712421Y1075542D1*
X3705292Y1070050D1*
X3697832Y1065019D1*
X3690069Y1060467D1*
X3682035Y1056414D1*
X3673762Y1052875D1*
X3665045Y1049797D1*
X3832523Y1049800D1*
X3748825Y1504827D2*
X3751656Y1510209D1*
X3756340Y1517892D1*
X3761499Y1525265D1*
X3767112Y1532298D1*
X3773157Y1538964D1*
X3779610Y1545235D1*
X3786446Y1551087D1*
X3793637Y1556497D1*
X3801154Y1561443D1*
X3813419Y1568087D1*
X3807141Y1575830D1*
X3803061Y1581936D1*
X3799473Y1588343D1*
X3796399Y1595011D1*
X3793857Y1601901D1*
X3791864Y1608968D1*
X3790431Y1616170D1*
X3789568Y1623463D1*
X3789280Y1630800D1*
X3789568Y1638137D1*
X3790431Y1645430D1*
X3791864Y1652632D1*
X3793857Y1659699D1*
X3796399Y1666589D1*
X3799473Y1673257D1*
X3803714Y1680642D1*
X3790990Y1689036D1*
X3783925Y1694608D1*
X3777225Y1700615D1*
X3770917Y1707033D1*
X3765025Y1713835D1*
X3759575Y1720994D1*
X3754586Y1728483D1*
X3748842Y1738758D1*
X3742145Y1727102D1*
X3737071Y1719671D1*
X3731538Y1712574D1*
X3725570Y1705840D1*
X3719189Y1699495D1*
X3712421Y1693565D1*
X3705292Y1688073D1*
X3697832Y1683042D1*
X3690069Y1678490D1*
X3682035Y1674437D1*
X3673762Y1670899D1*
X3665282Y1667888D1*
X3656629Y1665418D1*
X3647837Y1663499D1*
X3638943Y1662137D1*
X3629980Y1661338D1*
X3620984Y1661106D1*
X3611992Y1661441D1*
X3603039Y1662342D1*
X3594160Y1663805D1*
X3585391Y1665826D1*
X3576767Y1668394D1*
X3568322Y1671501D1*
X3560089Y1675135D1*
X3552102Y1679279D1*
X3540026Y1686937D1*
X3540020Y1599679D1*
X3567773Y1571920D1*
X3579875Y1576223D1*
X3588556Y1578594D1*
X3597369Y1580413D1*
X3606279Y1581673D1*
X3615250Y1582370D1*
X3624248Y1582499D1*
X3633236Y1582061D1*
X3642178Y1581058D1*
X3651039Y1579493D1*
X3659784Y1577372D1*
X3668379Y1574705D1*
X3676788Y1571502D1*
X3684978Y1567775D1*
X3692917Y1563539D1*
X3700574Y1558811D1*
X3707917Y1553611D1*
X3714918Y1547957D1*
X3721549Y1541874D1*
X3727783Y1535385D1*
X3733596Y1528516D1*
X3738965Y1521295D1*
X3743868Y1513749D1*
X3748790Y1504865D1*
X4526236Y1430806D2*
X4525386Y1421848D1*
X4523974Y1412961D1*
X4522004Y1404181D1*
X4519484Y1395542D1*
X4516425Y1387079D1*
X4512839Y1378826D1*
X4508740Y1370815D1*
X4504145Y1363079D1*
X4499071Y1355647D1*
X4493538Y1348551D1*
X4487570Y1341816D1*
X4481189Y1335472D1*
X4473112Y1328533D1*
X4527520Y1328523D1*
Y1244254D1*
X4535604Y1252354D1*
X4535580Y2544577D1*
X4525507Y2544580D1*
X4525520Y2267077D1*
X4442024D1*
X4442020Y1946543D1*
X4527520Y1946516D1*
Y1661076D1*
X4444024D1*
X4444020Y1569199D1*
X4454917Y1563539D1*
X4462574Y1558811D1*
X4469917Y1553611D1*
X4476918Y1547957D1*
X4483549Y1541874D1*
X4489783Y1535385D1*
X4495596Y1528516D1*
X4500965Y1521295D1*
X4505868Y1513749D1*
X4510285Y1505910D1*
X4514200Y1497807D1*
X4517596Y1489474D1*
X4520461Y1480944D1*
X4522782Y1472250D1*
X4524551Y1463427D1*
X4525760Y1454510D1*
X4526520Y1439800D1*
X4526236Y1430806D1*
X3578687Y1049799D2*
X3568322Y1053478D1*
X3560089Y1057111D1*
X3552102Y1061256D1*
X3544392Y1065896D1*
X3536990Y1071012D1*
X3529925Y1076585D1*
X3523225Y1082592D1*
X3516917Y1089009D1*
X3508534Y1099083D1*
X3508521Y1082079D1*
X3353081D1*
Y1360404D1*
X3347126Y1367342D1*
X3342598Y1374731D1*
X3339282Y1382736D1*
X3337260Y1391162D1*
X3336580Y1399800D1*
Y1809265D1*
X3326589Y1804399D1*
X3319699Y1801857D1*
X3312632Y1799864D1*
X3305430Y1798431D1*
X3298137Y1797568D1*
X3290800Y1797280D1*
X3283463Y1797568D1*
X3276170Y1798431D1*
X3268968Y1799864D1*
X3261901Y1801857D1*
X3255011Y1804399D1*
X3248343Y1807473D1*
X3241936Y1811061D1*
X3235830Y1815141D1*
X3230064Y1819687D1*
X3224671Y1824671D1*
X3220524Y1829158D1*
X3220521Y1803079D1*
X3167048D1*
X3167020Y1248515D1*
X3220521Y1248519D1*
Y1049781D1*
X3578554Y1049800D1*
X4527520Y1116566D2*
Y1107004D1*
X4583929Y1107020D1*
X4638577Y1161671D1*
X4638580Y1187913D1*
X4584675Y1133925D1*
X4577609Y1127890D1*
X4569685Y1123034D1*
X4561100Y1119478D1*
X4552064Y1117309D1*
X4542800Y1116580D1*
X4527507D1*
X1926080Y1860537D2*
X1926020Y1922080D1*
X1645580D1*
Y1963599D1*
X1624351Y1963580D1*
X1461023Y1800273D1*
X1461020Y1736593D1*
X1466936Y1740539D1*
X1473343Y1744127D1*
X1480011Y1747201D1*
X1486901Y1749743D1*
X1493968Y1751736D1*
X1501170Y1753169D1*
X1507238Y1753887D1*
X1503864Y1764968D1*
X1502431Y1772170D1*
X1501568Y1779463D1*
X1501280Y1786800D1*
X1501568Y1794137D1*
X1502431Y1801430D1*
X1503864Y1808632D1*
X1505857Y1815699D1*
X1508399Y1822589D1*
X1511473Y1829257D1*
X1515061Y1835664D1*
X1519141Y1841770D1*
X1523687Y1847536D1*
X1528671Y1852929D1*
X1534064Y1857913D1*
X1539830Y1862459D1*
X1545936Y1866539D1*
X1552343Y1870127D1*
X1559011Y1873201D1*
X1565901Y1875743D1*
X1572968Y1877736D1*
X1580170Y1879169D1*
X1587463Y1880032D1*
X1594800Y1880320D1*
X1602137Y1880032D1*
X1609430Y1879169D1*
X1616632Y1877736D1*
X1623699Y1875743D1*
X1630589Y1873201D1*
X1637257Y1870127D1*
X1645596Y1865248D1*
X1645580Y1867520D1*
X1926020D1*
Y1858520D1*
X2878514Y3228520D2*
X3046561D1*
X3046580Y3354265D1*
X2940250Y3460600D1*
X2878491Y3460580D1*
X2878520Y3402080D1*
X2863508D1*
X2863520Y3237493D1*
X2878520Y3237520D1*
Y3228485D1*
X3071766Y2823080D2*
X2878548D1*
X2878520Y2802080D1*
X2616501D1*
X2616520Y2703080D1*
X2211080Y2703115D1*
X2209800Y2701020D1*
X2285133Y2700850D1*
X2293691Y2699495D1*
X2301932Y2696817D1*
X2309653Y2692883D1*
X2316663Y2687790D1*
X2332575Y2672119D1*
X2349056Y2655637D1*
X2349080Y2693520D1*
X2594520D1*
Y2640047D1*
X3149085Y2640020D1*
X3149080Y2693520D1*
X3201357D1*
X3071774Y2823076D1*
X3875520Y2861445D2*
Y2841617D1*
X3919596Y2885689D1*
X3919580Y2949109D1*
X3903009Y2949079D1*
X3902850Y2907467D1*
X3901495Y2898909D1*
X3898817Y2890668D1*
X3894883Y2882947D1*
X3889790Y2875937D1*
X3875536Y2861442D1*
X4638548Y2670079D2*
X4520001D1*
X4520020Y2662999D1*
X4572446Y2662838D1*
X4581625Y2661384D1*
X4590463Y2658512D1*
X4598742Y2654293D1*
X4606260Y2648831D1*
X4622403Y2632947D1*
X4636687Y2618662D1*
X4638580Y2623800D1*
Y2670101D1*
X3004081Y2048519D2*
X3149100D1*
X3149080Y2071553D1*
X2718265Y2071580D1*
X2718234Y2048499D1*
X2770521Y2048519D1*
Y1803079D1*
X2717048D1*
X2717020Y1248515D1*
X2770521Y1248519D1*
Y1049781D1*
X2995101Y1049800D1*
X2995081Y1164622D1*
X2989664Y1161061D1*
X2983257Y1157473D1*
X2976589Y1154399D1*
X2969699Y1151857D1*
X2962632Y1149864D1*
X2955430Y1148431D1*
X2948137Y1147568D1*
X2940800Y1147280D1*
X2933463Y1147568D1*
X2926170Y1148431D1*
X2918968Y1149864D1*
X2911901Y1151857D1*
X2905011Y1154399D1*
X2898343Y1157473D1*
X2891936Y1161061D1*
X2885830Y1165141D1*
X2880064Y1169687D1*
X2874671Y1174671D1*
X2869687Y1180064D1*
X2865141Y1185830D1*
X2861061Y1191936D1*
X2857473Y1198343D1*
X2854399Y1205011D1*
X2851857Y1211901D1*
X2849864Y1218968D1*
X2848431Y1226170D1*
X2847568Y1233463D1*
X2847280Y1240800D1*
X2847545Y1247536D1*
X2840800Y1247280D1*
X2833463Y1247568D1*
X2826170Y1248431D1*
X2818968Y1249864D1*
X2811901Y1251857D1*
X2805011Y1254399D1*
X2798343Y1257473D1*
X2791936Y1261061D1*
X2785830Y1265141D1*
X2780064Y1269687D1*
X2774671Y1274671D1*
X2769687Y1280064D1*
X2765141Y1285830D1*
X2761061Y1291936D1*
X2757473Y1298343D1*
X2754399Y1305011D1*
X2751857Y1311901D1*
X2749864Y1318968D1*
X2748431Y1326170D1*
X2747568Y1333463D1*
X2747280Y1340800D1*
X2747568Y1348137D1*
X2748431Y1355430D1*
X2749864Y1362632D1*
X2751857Y1369699D1*
X2754399Y1376589D1*
X2757473Y1383257D1*
X2761061Y1389664D1*
X2765141Y1395770D1*
X2769687Y1401536D1*
X2774671Y1406929D1*
X2780064Y1411913D1*
X2785830Y1416459D1*
X2791936Y1420539D1*
X2798343Y1424127D1*
X2805011Y1427201D1*
X2811901Y1429743D1*
X2818968Y1431736D1*
X2826170Y1433169D1*
X2833463Y1434032D1*
X2840800Y1434320D1*
X2847536Y1434055D1*
X2847280Y1440800D1*
X2847545Y1447536D1*
X2840800Y1447280D1*
X2833463Y1447568D1*
X2826170Y1448431D1*
X2818968Y1449864D1*
X2811901Y1451857D1*
X2805011Y1454399D1*
X2798343Y1457473D1*
X2791936Y1461061D1*
X2785830Y1465141D1*
X2780064Y1469687D1*
X2774671Y1474671D1*
X2769687Y1480064D1*
X2765141Y1485830D1*
X2761061Y1491936D1*
X2757473Y1498343D1*
X2754399Y1505011D1*
X2751857Y1511901D1*
X2749864Y1518968D1*
X2748431Y1526170D1*
X2747568Y1533463D1*
X2747280Y1540800D1*
X2747568Y1548137D1*
X2748431Y1555430D1*
X2749864Y1562632D1*
X2751857Y1569699D1*
X2754399Y1576589D1*
X2757473Y1583257D1*
X2761061Y1589664D1*
X2765141Y1595770D1*
X2769687Y1601536D1*
X2774671Y1606929D1*
X2780064Y1611913D1*
X2785830Y1616459D1*
X2791936Y1620539D1*
X2798343Y1624127D1*
X2805011Y1627201D1*
X2811901Y1629743D1*
X2818968Y1631736D1*
X2826170Y1633169D1*
X2833463Y1634032D1*
X2840800Y1634320D1*
X2847536Y1634055D1*
X2847280Y1640800D1*
X2847545Y1647536D1*
X2840800Y1647280D1*
X2833463Y1647568D1*
X2826170Y1648431D1*
X2818968Y1649864D1*
X2811901Y1651857D1*
X2805011Y1654399D1*
X2798343Y1657473D1*
X2791936Y1661061D1*
X2785830Y1665141D1*
X2780064Y1669687D1*
X2774671Y1674671D1*
X2769687Y1680064D1*
X2765141Y1685830D1*
X2761061Y1691936D1*
X2757473Y1698343D1*
X2754399Y1705011D1*
X2751857Y1711901D1*
X2749864Y1718968D1*
X2748431Y1726170D1*
X2747568Y1733463D1*
X2747280Y1740800D1*
X2747568Y1748137D1*
X2748431Y1755430D1*
X2749864Y1762632D1*
X2751857Y1769699D1*
X2754399Y1776589D1*
X2757473Y1783257D1*
X2761061Y1789664D1*
X2765141Y1795770D1*
X2769687Y1801536D1*
X2774671Y1806929D1*
X2780064Y1811913D1*
X2785830Y1816459D1*
X2791936Y1820539D1*
X2798343Y1824127D1*
X2805011Y1827201D1*
X2811901Y1829743D1*
X2818968Y1831736D1*
X2826170Y1833169D1*
X2833463Y1834032D1*
X2840800Y1834320D1*
X2847536Y1834055D1*
X2847280Y1840800D1*
X2847568Y1848137D1*
X2848431Y1855430D1*
X2849864Y1862632D1*
X2851857Y1869699D1*
X2854399Y1876589D1*
X2857473Y1883257D1*
X2861061Y1889664D1*
X2865141Y1895770D1*
X2869687Y1901536D1*
X2874671Y1906929D1*
X2880064Y1911913D1*
X2885830Y1916459D1*
X2891936Y1920539D1*
X2898343Y1924127D1*
X2905011Y1927201D1*
X2911901Y1929743D1*
X2918968Y1931736D1*
X2926170Y1933169D1*
X2933463Y1934032D1*
X2940800Y1934320D1*
X2948137Y1934032D1*
X2955430Y1933169D1*
X2962632Y1931736D1*
X2969699Y1929743D1*
X2976589Y1927201D1*
X2983257Y1924127D1*
X2989664Y1920539D1*
X2995078Y1916921D1*
X2995081Y2048519D1*
X3004081D1*
X3220521Y2018109D2*
Y1952508D1*
X3224671Y1956929D1*
X3230064Y1961913D1*
X3235830Y1966459D1*
X3241936Y1970539D1*
X3248343Y1974127D1*
X3255011Y1977201D1*
X3261901Y1979743D1*
X3268968Y1981736D1*
X3276170Y1983169D1*
X3283463Y1984032D1*
X3290800Y1984320D1*
X3298137Y1984032D1*
X3305430Y1983169D1*
X3312632Y1981736D1*
X3319699Y1979743D1*
X3326589Y1977201D1*
X3336586Y1972263D1*
X3336580Y2018093D1*
X3220532Y2018080D1*
X3048571Y1803079D2*
X3026353D1*
X3020539Y1791936D1*
X3016459Y1785830D1*
X3011913Y1780064D1*
X3006929Y1774671D1*
X3000027Y1768497D1*
X2999838Y1736154D1*
X2998384Y1726975D1*
X2995505Y1718121D1*
X2995770Y1716459D1*
X3001536Y1711913D1*
X3006929Y1706929D1*
X3011913Y1701536D1*
X3016459Y1695770D1*
X3020539Y1689664D1*
X3024127Y1683257D1*
X3027201Y1676589D1*
X3029743Y1669699D1*
X3031736Y1662632D1*
X3033169Y1655430D1*
X3034032Y1648137D1*
X3034320Y1640800D1*
X3034032Y1633463D1*
X3033169Y1626170D1*
X3031736Y1618968D1*
X3029743Y1611901D1*
X3027201Y1605011D1*
X3024127Y1598343D1*
X3020539Y1591936D1*
X3016459Y1585830D1*
X3011913Y1580064D1*
X3006929Y1574671D1*
X3001536Y1569687D1*
X2995770Y1565141D1*
X2989664Y1561061D1*
X2983257Y1557473D1*
X2976589Y1554399D1*
X2969699Y1551857D1*
X2962632Y1549864D1*
X2955430Y1548431D1*
X2948137Y1547568D1*
X2940800Y1547280D1*
X2934064Y1547545D1*
X2934320Y1540800D1*
X2934055Y1534064D1*
X2940800Y1534320D1*
X2948137Y1534032D1*
X2955430Y1533169D1*
X2962632Y1531736D1*
X2969699Y1529743D1*
X2976589Y1527201D1*
X2983257Y1524127D1*
X2989664Y1520539D1*
X2995770Y1516459D1*
X3001536Y1511913D1*
X3006929Y1506929D1*
X3011913Y1501536D1*
X3016459Y1495770D1*
X3020539Y1489664D1*
X3024127Y1483257D1*
X3027201Y1476589D1*
X3029743Y1469699D1*
X3031736Y1462632D1*
X3033169Y1455430D1*
X3034032Y1448137D1*
X3034320Y1440800D1*
X3034032Y1433463D1*
X3033169Y1426170D1*
X3031736Y1418968D1*
X3029743Y1411901D1*
X3027201Y1405011D1*
X3024127Y1398343D1*
X3020539Y1391936D1*
X3016459Y1385830D1*
X3011913Y1380064D1*
X3006929Y1374671D1*
X3001536Y1369687D1*
X2995770Y1365141D1*
X2989664Y1361061D1*
X2983257Y1357473D1*
X2976589Y1354399D1*
X2969699Y1351857D1*
X2962632Y1349864D1*
X2955430Y1348431D1*
X2948137Y1347568D1*
X2940800Y1347280D1*
X2934064Y1347545D1*
X2934320Y1340800D1*
X2934055Y1334064D1*
X2940800Y1334320D1*
X2948137Y1334032D1*
X2955430Y1333169D1*
X2962632Y1331736D1*
X2969699Y1329743D1*
X2976589Y1327201D1*
X2983257Y1324127D1*
X2989664Y1320539D1*
X2995770Y1316459D1*
X3001536Y1311913D1*
X3006929Y1306929D1*
X3011913Y1301536D1*
X3016459Y1295770D1*
X3020539Y1289664D1*
X3024127Y1283257D1*
X3027201Y1276589D1*
X3029743Y1269699D1*
X3031736Y1262632D1*
X3033169Y1255430D1*
X3033988Y1248508D1*
X3048553Y1248519D1*
X3048580Y1803085D1*
X2594520Y2521571D2*
Y2468080D1*
X2415610D1*
X2579674Y2304019D1*
X3336601Y2304020D1*
X3336580Y2468070D1*
X3149080Y2468080D1*
Y2521553D1*
X2594515Y2521580D1*
X1609032Y1653463D2*
X1608981Y1653035D1*
X1615154Y1653837D1*
X1622226Y1654020D1*
X1628687Y1662536D1*
X1633671Y1667929D1*
X1639064Y1672913D1*
X1645570Y1677953D1*
X1645580Y1708256D1*
X1637257Y1703473D1*
X1630589Y1700399D1*
X1623699Y1697857D1*
X1616632Y1695864D1*
X1609430Y1694431D1*
X1603362Y1693713D1*
X1606736Y1682632D1*
X1608169Y1675430D1*
X1609032Y1668137D1*
X1609320Y1660800D1*
X1609032Y1653463D1*
X1185153Y2731541D2*
X1183568Y2742463D1*
X1183280Y2749800D1*
X1183568Y2757137D1*
X1184431Y2764430D1*
X1185864Y2771632D1*
X1187857Y2778699D1*
X1190399Y2785589D1*
X1193473Y2792257D1*
X1199340Y2802075D1*
X1180001Y2802079D1*
X1180020Y2736663D1*
X1185052Y2731642D1*
X4092032Y2732463D2*
X4091169Y2725170D1*
X4089736Y2717968D1*
X4087743Y2710901D1*
X4085201Y2704011D1*
X4082127Y2697343D1*
X4076579Y2688002D1*
X4111937Y2688020D1*
X4300569Y2876662D1*
X4300580Y2949109D1*
X4161017Y2949079D1*
X4160838Y2838154D1*
X4159384Y2828975D1*
X4156512Y2820137D1*
X4152293Y2811858D1*
X4146831Y2804340D1*
X4130947Y2788197D1*
X4091844Y2749094D1*
X4092320Y2739800D1*
X4092032Y2732463D1*
X3921021Y2688002D2*
X3915473Y2697343D1*
X3912399Y2704011D1*
X3909857Y2710901D1*
X3907903Y2717830D1*
X3891663Y2701810D1*
X3884652Y2696717D1*
X3876932Y2692783D1*
X3868691Y2690106D1*
X3860133Y2688750D1*
X3837800Y2688580D1*
X3533663D1*
X3491999Y2646906D1*
X3492020Y2593124D1*
X3573937Y2674790D1*
X3580948Y2679883D1*
X3588668Y2683817D1*
X3596909Y2686494D1*
X3605467Y2687850D1*
X3627800Y2688020D1*
X3920898D1*
X3660573Y3236497D2*
X3653671Y3242671D1*
X3648687Y3248064D1*
X3644141Y3253830D1*
X3640061Y3259936D1*
X3636473Y3266343D1*
X3633399Y3273011D1*
X3630857Y3279901D1*
X3628864Y3286968D1*
X3627431Y3294170D1*
X3626568Y3301463D1*
X3626280Y3308800D1*
X3626568Y3316137D1*
X3627431Y3323430D1*
X3628219Y3328469D1*
X3519274Y3219524D1*
X3638053Y3219519D1*
X3638081Y3234519D1*
X3660545D1*
X1233573Y4441497D2*
X1226671Y4447671D1*
X1220497Y4454573D1*
X1208320Y4454580D1*
X1191245Y4437495D1*
X1233608Y4437520D1*
X1546103Y3874573D2*
X1539929Y3867671D1*
X1534536Y3862687D1*
X1528770Y3858141D1*
X1522664Y3854061D1*
X1516257Y3850473D1*
X1509589Y3847399D1*
X1502699Y3844857D1*
X1495632Y3842864D1*
X1488430Y3841431D1*
X1481137Y3840568D1*
X1473800Y3840280D1*
X1466463Y3840568D1*
X1459170Y3841431D1*
X1451968Y3842864D1*
X1444901Y3844857D1*
X1438011Y3847399D1*
X1428515Y3852057D1*
X1428521Y3579055D1*
X1673257Y3579020D1*
X1687720Y3593470D1*
X1687280Y3602800D1*
X1687568Y3610137D1*
X1688431Y3617430D1*
X1689864Y3624632D1*
X1691857Y3631699D1*
X1694399Y3638589D1*
X1697473Y3645257D1*
X1701061Y3651664D1*
X1705141Y3657770D1*
X1709687Y3663536D1*
X1714671Y3668929D1*
X1720064Y3673913D1*
X1725830Y3678459D1*
X1731936Y3682539D1*
X1738343Y3686127D1*
X1745011Y3689201D1*
X1751901Y3691743D1*
X1758968Y3693736D1*
X1766170Y3695169D1*
X1773463Y3696032D1*
X1780800Y3696320D1*
X1788137Y3696032D1*
X1796133Y3695029D1*
X1795280Y3707800D1*
X1795568Y3715137D1*
X1796431Y3722430D1*
X1797864Y3729632D1*
X1799857Y3736699D1*
X1802399Y3743589D1*
X1805473Y3750257D1*
X1809061Y3756664D1*
X1813141Y3762770D1*
X1817687Y3768536D1*
X1822671Y3773929D1*
X1828064Y3778913D1*
X1833830Y3783459D1*
X1839936Y3787539D1*
X1846343Y3791127D1*
X1853011Y3794201D1*
X1859901Y3796743D1*
X1866968Y3798736D1*
X1874170Y3800169D1*
X1881463Y3801032D1*
X1888800Y3801320D1*
X1896137Y3801032D1*
X1903430Y3800169D1*
X1910632Y3798736D1*
X1917699Y3796743D1*
X1924562Y3794211D1*
X1844253Y3874597D1*
X1546171Y3874580D1*
X1548032Y3288463D2*
X1547169Y3281170D1*
X1545736Y3273968D1*
X1543743Y3266901D1*
X1541201Y3260011D1*
X1538127Y3253343D1*
X1534539Y3246936D1*
X1528133Y3237879D1*
X1801968Y3511718D1*
X1795430Y3510431D1*
X1788137Y3509568D1*
X1780800Y3509280D1*
X1771554Y3509794D1*
X1736260Y3474769D1*
X1728742Y3469306D1*
X1720463Y3465088D1*
X1711625Y3462216D1*
X1702446Y3460762D1*
X1679800Y3460580D1*
X1428538D1*
X1428521Y3385523D1*
X1440170Y3388169D1*
X1447463Y3389032D1*
X1454800Y3389320D1*
X1462137Y3389032D1*
X1469430Y3388169D1*
X1476632Y3386736D1*
X1483699Y3384743D1*
X1490589Y3382201D1*
X1497257Y3379127D1*
X1503664Y3375539D1*
X1509770Y3371459D1*
X1515536Y3366913D1*
X1520929Y3361929D1*
X1525913Y3356536D1*
X1530459Y3350770D1*
X1534539Y3344664D1*
X1538127Y3338257D1*
X1541201Y3331589D1*
X1543743Y3324699D1*
X1545736Y3317632D1*
X1547169Y3310430D1*
X1548032Y3303137D1*
X1548320Y3295800D1*
X1548032Y3288463D1*
X1512721Y3222467D2*
X1503664Y3216061D1*
X1497257Y3212473D1*
X1490589Y3209399D1*
X1483699Y3206857D1*
X1476632Y3204864D1*
X1469430Y3203431D1*
X1462137Y3202568D1*
X1454800Y3202280D1*
X1447463Y3202568D1*
X1440170Y3203431D1*
X1428523Y3206118D1*
X1428521Y3179055D1*
X1469280Y3179020D1*
X1512258Y3222008D1*
X2501711Y3230815D2*
X2495459Y3220830D1*
X2490913Y3215064D1*
X2487038Y3210872D1*
X2487020Y3203359D1*
X2511314Y3179036D1*
X2593077Y3179020D1*
X2593080Y3225849D1*
X2580699Y3220857D1*
X2573632Y3218864D1*
X2566430Y3217431D1*
X2559137Y3216568D1*
X2551800Y3216280D1*
X2544463Y3216568D1*
X2537170Y3217431D1*
X2529968Y3218864D1*
X2522901Y3220857D1*
X2516011Y3223399D1*
X2509343Y3226473D1*
X2501815Y3230810D1*
X3341264Y2856583D2*
X3336913Y2851064D1*
X3331929Y2845671D1*
X3326536Y2840687D1*
X3320770Y2836141D1*
X3314664Y2832061D1*
X3308257Y2828473D1*
X3301589Y2825399D1*
X3294699Y2822857D1*
X3287632Y2820864D1*
X3280430Y2819431D1*
X3273137Y2818568D1*
X3265800Y2818280D1*
X3258463Y2818568D1*
X3251170Y2819431D1*
X3240517Y2821837D1*
X3321832Y2740261D1*
X3327294Y2732743D1*
X3331512Y2724463D1*
X3334384Y2715625D1*
X3335838Y2706446D1*
X3336020Y2693538D1*
X3336580Y2698800D1*
X3336750Y2756133D1*
X3338106Y2764691D1*
X3340783Y2772932D1*
X3344717Y2780652D1*
X3349810Y2787663D1*
X3365481Y2803574D1*
X3418505Y2856598D1*
X3341312Y2856580D1*
X3175837Y2886517D2*
X3173431Y2897170D1*
X3172568Y2904463D1*
X3172280Y2911800D1*
X3172568Y2919137D1*
X3173431Y2926430D1*
X3174864Y2933632D1*
X3176857Y2940699D1*
X3180083Y2949073D1*
X3164985Y2949080D1*
X3165020Y2897335D1*
X3175741Y2886609D1*
X1669580Y2352520D2*
X1911020D1*
Y2187080D1*
X1660580D1*
Y2352520D1*
X1669580D1*
X1361020Y1967578D2*
Y1922080D1*
X1130009D1*
X1130020Y1867538D1*
X1360767Y1867520D1*
X1546842Y2053591D1*
X1477304Y2053580D1*
X1405261Y1981769D1*
X1397743Y1976306D1*
X1389463Y1972088D1*
X1380625Y1969216D1*
X1371446Y1967762D1*
X1360999Y1967580D1*
X1428521Y3060578D2*
Y3011047D1*
X1515273Y3011020D1*
X1924584Y3420334D1*
X1924580Y3466851D1*
X1535675Y3077925D1*
X1528609Y3071890D1*
X1520685Y3067034D1*
X1512100Y3063478D1*
X1503064Y3061309D1*
X1493800Y3060580D1*
X1428515D1*
X2011079Y2703080D2*
X1403080D1*
X1403103Y2802079D1*
X1354260Y2802075D1*
X1360127Y2792257D1*
X1363201Y2785589D1*
X1365743Y2778699D1*
X1367736Y2771632D1*
X1369169Y2764430D1*
X1370032Y2757137D1*
X1370320Y2749800D1*
X1370032Y2742463D1*
X1369169Y2735170D1*
X1367736Y2727968D1*
X1365743Y2720901D1*
X1363201Y2714011D1*
X1360127Y2707343D1*
X1356581Y2701011D1*
X2209800Y2701020D1*
X2211071Y2703080D1*
X2011080Y2703115D1*
X4042595Y2949079D2*
X4030009D1*
X4029850Y2858467D1*
X4029337Y2854145D1*
X4042565Y2867315D1*
X4042580Y2949077D1*
X4240067Y2321794D2*
X4231570Y2311816D1*
X4225189Y2305472D1*
X4218421Y2299542D1*
X4211292Y2294050D1*
X4203832Y2289019D1*
X4196069Y2284467D1*
X4189008Y2280905D1*
X4189020Y1933648D1*
X4200917Y1927539D1*
X4208574Y1922811D1*
X4215917Y1917611D1*
X4222918Y1911957D1*
X4229549Y1905874D1*
X4235783Y1899385D1*
X4242079Y1891867D1*
X4242080Y1946516D1*
X4323608D1*
X4323580Y2267051D1*
X4240080Y2267077D1*
Y2321674D1*
X4070559Y2279139D2*
X4058102Y2285256D1*
X4050392Y2289896D1*
X4042990Y2295012D1*
X4035925Y2300585D1*
X4029225Y2306592D1*
X4022917Y2313009D1*
X4017025Y2319811D1*
X4011575Y2326971D1*
X4006586Y2334460D1*
X4000842Y2344735D1*
X3994145Y2333102D1*
X3989071Y2325671D1*
X3983538Y2318574D1*
X3977570Y2311840D1*
X3971189Y2305495D1*
X3964421Y2299565D1*
X3957292Y2294073D1*
X3949832Y2289042D1*
X3942069Y2284490D1*
X3935008Y2280928D1*
X3935020Y1933671D1*
X3946917Y1927562D1*
X3954574Y1922835D1*
X3961917Y1917634D1*
X3968918Y1911981D1*
X3975549Y1905898D1*
X3981783Y1899409D1*
X3987596Y1892540D1*
X3992965Y1885318D1*
X3997868Y1877772D1*
X4002790Y1868888D1*
X4010340Y1881892D1*
X4015499Y1889265D1*
X4021112Y1896298D1*
X4027157Y1902964D1*
X4033610Y1909235D1*
X4040446Y1915087D1*
X4047637Y1920497D1*
X4055154Y1925443D1*
X4062968Y1929905D1*
X4070575Y1933634D1*
X4070580Y2279077D1*
X4000857Y2474889D2*
X4003656Y2480209D1*
X4008340Y2487892D1*
X4013499Y2495265D1*
X4019112Y2502298D1*
X4025157Y2508964D1*
X4031610Y2515235D1*
X4038446Y2521087D1*
X4045637Y2526497D1*
X4053154Y2531443D1*
X4060968Y2535905D1*
X4069048Y2539866D1*
X4077362Y2543310D1*
X4085875Y2546223D1*
X4094556Y2548594D1*
X4103369Y2550413D1*
X4112279Y2551673D1*
X4125714Y2552434D1*
X4154462Y2581212D1*
X4147691Y2579106D1*
X4139133Y2577750D1*
X4116800Y2577580D1*
X3632663D1*
X3607058Y2551965D1*
X3622248Y2552522D1*
X3631236Y2552084D1*
X3640178Y2551081D1*
X3649039Y2549516D1*
X3657784Y2547396D1*
X3666379Y2544729D1*
X3674788Y2541525D1*
X3682978Y2537798D1*
X3690917Y2533562D1*
X3698574Y2528835D1*
X3705917Y2523634D1*
X3712918Y2517981D1*
X3719549Y2511898D1*
X3725783Y2505409D1*
X3731596Y2498540D1*
X3736965Y2491318D1*
X3741868Y2483772D1*
X3746790Y2474888D1*
X3754340Y2487915D1*
X3759499Y2495288D1*
X3765112Y2502322D1*
X3771157Y2508987D1*
X3777610Y2515258D1*
X3784446Y2521111D1*
X3791637Y2526520D1*
X3799154Y2531466D1*
X3806968Y2535929D1*
X3815048Y2539890D1*
X3823362Y2543334D1*
X3831875Y2546247D1*
X3840556Y2548618D1*
X3849369Y2550437D1*
X3858279Y2551697D1*
X3867250Y2552393D1*
X3876248Y2552522D1*
X3885236Y2552084D1*
X3894178Y2551081D1*
X3903039Y2549516D1*
X3911784Y2547396D1*
X3920379Y2544729D1*
X3928788Y2541525D1*
X3936978Y2537798D1*
X3944917Y2533562D1*
X3952574Y2528835D1*
X3959917Y2523634D1*
X3966918Y2517981D1*
X3973549Y2511898D1*
X3979783Y2505409D1*
X3985596Y2498540D1*
X3990965Y2491318D1*
X3995868Y2483772D1*
X4000790Y2474888D1*
X3816559Y2279162D2*
X3804102Y2285279D1*
X3796392Y2289919D1*
X3788990Y2295036D1*
X3781925Y2300608D1*
X3775225Y2306615D1*
X3768917Y2313033D1*
X3763025Y2319835D1*
X3757575Y2326994D1*
X3752586Y2334483D1*
X3746842Y2344758D1*
X3740145Y2333102D1*
X3735071Y2325671D1*
X3729538Y2318574D1*
X3723570Y2311840D1*
X3717189Y2305495D1*
X3710421Y2299565D1*
X3703292Y2294073D1*
X3695832Y2289042D1*
X3688069Y2284490D1*
X3679421Y2280175D1*
X3680591Y1933900D1*
X3692917Y1927562D1*
X3700574Y1922835D1*
X3707917Y1917634D1*
X3714918Y1911981D1*
X3721549Y1905898D1*
X3727783Y1899409D1*
X3733596Y1892540D1*
X3738965Y1885318D1*
X3743868Y1877772D1*
X3748790Y1868888D1*
X3756340Y1881915D1*
X3761499Y1889288D1*
X3767112Y1896322D1*
X3773157Y1902987D1*
X3779610Y1909258D1*
X3786446Y1915111D1*
X3793637Y1920520D1*
X3801154Y1925466D1*
X3808968Y1929929D1*
X3816575Y1933657D1*
X3816580Y2279101D1*
X3561016Y2279843D2*
X3550102Y2285279D1*
X3539992Y2291578D1*
X3540020Y1920796D1*
X3547154Y1925466D1*
X3554968Y1929929D1*
X3562133Y1933441D1*
X3561009Y2279746D1*
X4037427Y1695031D2*
X4031225Y1700592D1*
X4024917Y1707009D1*
X4019025Y1713811D1*
X4013575Y1720971D1*
X4008586Y1728460D1*
X4002842Y1738735D1*
X3996145Y1727102D1*
X3991071Y1719671D1*
X3985538Y1712574D1*
X3979570Y1705840D1*
X3973189Y1699495D1*
X3968086Y1695024D1*
X4037390Y1695020D1*
X4269800Y2663020D2*
X4401601D1*
X4401580Y2822929D1*
X4397790Y2817937D1*
X4382119Y2802026D1*
X4238905Y2658812D1*
X4246975Y2661384D1*
X4256154Y2662838D1*
X4269800Y2663020D1*
X2594530Y2190020D2*
X3149056D1*
X3148800Y2193580D1*
X2594491D1*
X4731778Y1098684D2*
X4682905Y1049811D1*
X4731820Y1049800D1*
X4731800Y1098702D1*
D18*
X2366800Y1326800D3*
X2106800D3*
D19*
X2364800Y1557800D3*
Y1837800D3*
D25*
X2145800Y1770800D3*
Y1900800D3*
D26*
X3022800Y3665800D3*
Y3835800D3*
D27*
X2101800Y2066800D3*
Y2516800D3*
D34*
X1401800Y1410800D3*
X1466800D3*
X1531800D3*
X1596800D3*
X1661800D3*
D35*
X1211800Y1388300D3*
X1851800D3*
D36*
X1189300Y1143300D3*
X1874300D3*
D37*
X1411800D3*
X1651800D3*
D38*
X3209800Y4841800D3*
D39*
X3357300Y4999300D3*
X3062300D3*
D40*
X4129800Y1185800D3*
Y1439800D3*
X3875800Y1185800D3*
Y1439800D3*
X4383800D3*
X3621800Y1185800D3*
Y1439800D3*
D41*
X4384800Y1185803D3*
D25*
X2003800Y1772800D3*
Y1902800D3*
X3018800Y4122800D3*
Y3992800D3*
D24*
X2971800Y3120800D3*
Y2930800D3*
D21*
X3657800Y2821800D3*
X3787800D3*
D25*
X3430800Y1299800D3*
Y1169800D3*
D21*
X4693800Y2747800D3*
X4563800D3*
D44*
X3107800Y1925800D3*
Y1125800D3*
X2657800Y1925800D3*
Y1125800D3*
D35*
X2471800Y2580800D3*
X3271800D3*
X2471800Y2130800D3*
X3271800D3*
D47*
X1785800Y1769800D3*
Y2019800D3*
Y2269800D3*
X1220800D3*
Y2019800D3*
Y1769800D3*
D53*
X1285800Y4319800D3*
Y4119800D3*
Y3919800D3*
Y3719800D3*
Y3519800D3*
Y3319800D3*
Y3119800D3*
Y2919800D3*
X2735800Y4319800D3*
Y4119800D3*
Y3919800D3*
Y3719800D3*
Y3519800D3*
Y3319800D3*
Y3119800D3*
Y2919800D3*
D54*
X1505800Y2805800D3*
X1705800D3*
X1909800D3*
X2113800D3*
X2313800D3*
X2513800D3*
D55*
X3212800Y3091800D3*
X3339800D3*
X3466800D3*
X3593800D3*
X3720800D3*
X3847800D3*
X3974800D3*
X4101800D3*
X4228800D3*
X4355800D3*
X4482800D3*
X4609800D3*
X3212800Y4615800D3*
X3339800D3*
D40*
X4127800Y2409800D3*
X3873800Y2409823D3*
X3619800D3*
D41*
X4382800Y2409797D3*
D40*
X4129800Y1803800D3*
X3875800Y1803823D3*
X3621800D3*
D41*
X4384800Y1803797D3*
M02*
