G04 DipTrace 3.0.0.1*
G04 ESP-12E_BASE_V2.2-2.gbl*
%MOMM*%
G04 #@! TF.FileFunction,Copper,L2,Bot*
G04 #@! TF.Part,Single*
G04 #@! TA.AperFunction,Conductor*
%ADD10C,0.25*%
%ADD14C,0.33*%
%ADD15C,0.3*%
G04 #@! TA.AperFunction,CopperBalancing*
%ADD16C,0.18*%
%ADD18R,1.8X1.25*%
%ADD20R,1.6X1.8*%
%ADD21R,0.9X0.7*%
%ADD22R,1.1X1.0*%
%ADD23R,1.3X1.5*%
%ADD24R,1.5X1.3*%
%ADD29R,0.7X1.6*%
%ADD30R,1.2X1.4*%
%ADD31R,1.2X2.2*%
%ADD32R,1.6X1.2*%
G04 #@! TA.AperFunction,ComponentPad*
%ADD40C,2.0*%
%ADD41R,2.0X2.0*%
%ADD49R,0.95X2.15*%
%ADD50R,3.25X2.15*%
%ADD51R,1.4X0.3*%
G04 #@! TA.AperFunction,ViaPad*
%ADD57C,1.016*%
%FSLAX35Y35*%
G04*
G71*
G90*
G75*
G01*
G04 Bottom*
%LPD*%
X2000800Y1655800D2*
D14*
Y1864800D1*
X2032800Y1896800D1*
Y2476800D1*
X1412800D1*
X1280800Y2608800D1*
Y2745800D1*
X1276800Y2749800D1*
X1294800Y3999800D2*
X1407800D1*
X1473800Y3933800D1*
X4604800Y1391800D2*
X4431800D1*
X4383800Y1439800D1*
X2120800Y3431800D2*
Y3303800D1*
X2233800Y3190800D1*
X2832800Y2462800D2*
Y2682800D1*
X2840800Y2690800D1*
Y2900800D1*
X2555800Y3185800D1*
X2238800D1*
X2233800Y3190800D1*
X2832800Y1882800D2*
Y2123800D1*
X2907800Y2198800D1*
X3083800D1*
X3167800Y2282800D1*
Y2615800D1*
X3092800Y2690800D1*
X2840800D1*
X4382800Y2409797D2*
Y2627800D1*
X4360800Y2649800D1*
Y2948800D1*
X4215800Y3093800D1*
X3821800D1*
X3726800Y3188800D1*
Y3301800D1*
X3719800Y3308800D1*
X3265800Y2911800D2*
X2840800D1*
Y2900800D1*
X2940800Y1840800D2*
X2832800D1*
Y1882800D1*
X1594800Y1786800D2*
Y1817800D1*
X1680800Y1903800D1*
X1795800D1*
X1802800Y1896800D1*
X2539800Y1713800D2*
Y2211800D1*
X2620800Y2292800D1*
X3027800D1*
X3059800Y2324800D1*
Y2459800D1*
X3062800Y2462800D1*
X1276800Y1169800D2*
D10*
Y1112800D1*
X1298800Y1090800D1*
X1906800D1*
X1937800Y1121800D1*
Y1502800D1*
X1799800Y1640800D1*
Y1893800D1*
X1802800Y1896800D1*
X2340800Y3431800D2*
D14*
Y3354800D1*
X2419800Y3275800D1*
X4604800Y1201800D2*
X4400797D1*
X4384800Y1185803D1*
X2260800Y1655800D2*
Y1894800D1*
X2262800Y1896800D1*
X2602800Y2462800D2*
Y2668800D1*
X2580800Y2690800D1*
X2602800Y2462800D2*
X2472800D1*
X2442800Y2432800D1*
Y2348800D1*
Y1956800D1*
X2368800Y1882800D1*
X2276800D1*
X2262800Y1896800D1*
X1900800Y3431800D2*
Y3243800D1*
X1953800Y3190800D1*
X2303800Y2348800D2*
X2442800D1*
X1704800Y1411800D2*
D15*
X1810800D1*
D14*
X1820800Y1421800D1*
X1833800D1*
X1848800Y1406800D1*
X1714800Y1169800D2*
X1848800D1*
Y1406800D1*
X4170800Y2649800D2*
X4147800D1*
Y2429800D1*
X4127800Y2409800D1*
X1953800Y3190800D2*
Y3080800D1*
X2017800Y3016800D1*
X2447800D1*
X2493073Y2971527D1*
X2567800Y2896800D1*
Y2703800D1*
X2580800Y2690800D1*
X2493073Y2971527D2*
X2503527D1*
X2558800Y3026800D1*
X2260800Y1655800D2*
Y1162800D1*
X2316800Y1106800D1*
X3432800D1*
X3459800Y1133800D1*
Y1495800D1*
X3594800Y1630800D1*
X3882800D1*
X4126800Y1635800D2*
Y1800800D1*
X4129800Y1803800D1*
X4170800Y2649800D2*
Y2917800D1*
X4084800Y3003800D1*
X3818800D1*
X3620800Y3201800D1*
Y3446800D1*
X3611800Y3455800D1*
X1128800Y1674800D2*
Y1558800D1*
X1120800Y1550800D1*
X1454800Y3295800D2*
Y3284800D1*
X1553800Y3185800D1*
X1657800D1*
X1659800Y3183800D1*
X1888800Y3707800D2*
X2230800D1*
Y3431800D1*
X3957800Y3382800D2*
Y3608800D1*
X3447800Y4118800D1*
X2807800D1*
X2705800Y4016800D1*
Y3890800D1*
X2522800Y3707800D1*
X2230800D1*
X4129800Y1185800D2*
D10*
Y1161800D1*
X4016800Y1048800D1*
X1239800D1*
X1122800Y1165800D1*
Y1422800D1*
X1161800Y1461800D1*
X1264800D1*
X4691800Y2910800D2*
D14*
Y3152800D1*
X3634800Y4209800D1*
X2908800D1*
X3998800Y2739800D2*
D16*
X4001800D1*
Y1311800D1*
X3875800Y1185800D1*
X1780800Y3602800D2*
D14*
X2007800D1*
Y3434800D1*
X2010800Y3431800D1*
X2007800Y3602800D2*
X2126800D1*
Y3598800D1*
X2335800Y3602800D2*
X2505800D1*
X2775800Y3872800D1*
Y3973800D1*
X2858800Y4056800D1*
X3376800D1*
X3838800Y3594800D1*
Y3346800D1*
X3925800Y3259800D1*
X4080800D1*
X4098800Y3277800D1*
X2906800Y3963800D2*
X3325800D1*
X3508800Y3780800D1*
Y2836800D1*
X3873800Y2471800D1*
Y2409823D1*
Y1805823D1*
X3875800Y1803823D1*
X2898800Y3730800D2*
Y3748800D1*
X3033800Y3883800D1*
X3290800D1*
X3444800Y3729800D1*
Y2563800D1*
X3598777Y2409823D1*
X3619800D1*
Y1805823D1*
X3621800Y1803823D1*
X1264800Y1411800D2*
D10*
X1359800D1*
X1383800Y1435800D1*
Y2382800D1*
X1177800Y2588800D1*
Y3406800D1*
X1450800Y3679800D1*
X1726800D1*
X1833800Y3786800D1*
X2406800D1*
X2543800Y3923800D1*
Y4016800D1*
X2527800Y4032800D1*
X1699800Y1601800D2*
D15*
Y1511800D1*
X1704800D1*
X1515800Y1660800D2*
Y1529800D1*
X1583800Y1461800D1*
X1704800D1*
X1258800Y1674800D2*
D14*
Y1517800D1*
D15*
X1264800Y1511800D1*
X1789800Y3183800D2*
D14*
Y3430800D1*
X1790800Y3431800D1*
X1406800Y1169800D2*
X1544800D1*
X1264800Y1361800D2*
D15*
X1399800D1*
D14*
X1459800D1*
X1541800Y1279800D1*
Y1172800D1*
X1292800Y4513800D2*
Y4191800D1*
X1294800Y4189800D1*
X3290800Y1890800D2*
X3373800Y1973800D1*
Y3268800D1*
X3285800Y3356800D1*
X2624800D1*
X2564800Y3296800D1*
X2551800Y3309800D1*
X2309800Y3916800D2*
X2303800D1*
X2043800Y4176800D1*
X1307800D1*
X1294800Y4189800D1*
X4229800Y3305800D2*
X4264800D1*
X4544800Y3025800D1*
Y2883800D1*
X4552800Y2875800D1*
D57*
X1515800Y1660800D3*
X1699800Y1601800D3*
X1594800Y1786800D3*
X2539800Y1713800D3*
X2303800Y2348800D3*
X1848800Y1406800D3*
X1276800Y2749800D3*
X3998800Y2739800D3*
X2906800Y3963800D3*
X2898800Y3730800D3*
X3719800Y3308800D3*
X4691800Y2910800D3*
X2908800Y4209800D3*
X1292800Y4513800D3*
X1473800Y3933800D3*
X1454800Y3295800D3*
X1888800Y3707800D3*
X1780800Y3602800D3*
X2527800Y4032800D3*
X3290800Y1890800D3*
X4098800Y3277800D3*
X3957800Y3382800D3*
X2126800Y3598800D3*
X2335800Y3602800D3*
X2419800Y3275800D3*
X2551800Y3309800D3*
X2309800Y3916800D3*
X3265800Y2911800D3*
X2558800Y3026800D3*
X3208800Y3264800D3*
X3882800Y1630800D3*
X4126800Y1635800D3*
X3611800Y3455800D3*
X4229800Y3305800D3*
X4552800Y2875800D3*
X1120800Y1550800D3*
X2650800Y1130800D3*
X2940800Y1840800D3*
X2840800Y1340800D3*
X2940800Y1240800D3*
Y1440800D3*
Y1640800D3*
X2840800Y1540800D3*
Y1740800D3*
X1051617Y5114133D2*
D16*
X4730003D1*
X1051617Y5096467D2*
X4730003D1*
X1051617Y5078800D2*
X4730003D1*
X1051617Y5061133D2*
X4730003D1*
X1051617Y5043467D2*
X4730003D1*
X1051617Y5025800D2*
X4730003D1*
X1051617Y5008133D2*
X4730003D1*
X1051617Y4990467D2*
X4730003D1*
X1051617Y4972800D2*
X4730003D1*
X1051617Y4955133D2*
X4730003D1*
X1051617Y4937467D2*
X4730003D1*
X1051617Y4919800D2*
X4730003D1*
X1051617Y4902133D2*
X4730003D1*
X1051617Y4884467D2*
X4730003D1*
X1051617Y4866800D2*
X4730003D1*
X1051617Y4849133D2*
X4730003D1*
X1051617Y4831467D2*
X4730003D1*
X1051617Y4813800D2*
X4730003D1*
X1051617Y4796133D2*
X4730003D1*
X1051617Y4778467D2*
X4730003D1*
X1051617Y4760800D2*
X4730003D1*
X1051617Y4743133D2*
X4730003D1*
X1051617Y4725467D2*
X4730003D1*
X1051617Y4707800D2*
X4730003D1*
X1051617Y4690133D2*
X4730003D1*
X1051617Y4672467D2*
X4730003D1*
X1051617Y4654800D2*
X4730003D1*
X1051617Y4637133D2*
X4730003D1*
X1051617Y4619467D2*
X4730003D1*
X1051617Y4601800D2*
X1259343D1*
X1326257D2*
X4730003D1*
X1051617Y4584133D2*
X1229353D1*
X1356247D2*
X4730003D1*
X1051617Y4566467D2*
X1213710D1*
X1545317D2*
X2916290D1*
X3095320D2*
X4730003D1*
X1051617Y4548800D2*
X1204287D1*
X1545317D2*
X1692960D1*
X1778650D2*
X2498247D1*
X2573357D2*
X2916290D1*
X3095320D2*
X4730003D1*
X1051617Y4531133D2*
X1199083D1*
X1545317D2*
X1673130D1*
X1798477D2*
X2475643D1*
X2595960D2*
X2916290D1*
X3095320D2*
X4730003D1*
X1051617Y4513467D2*
X1197467D1*
X1545317D2*
X1662583D1*
X1809023D2*
X2463937D1*
X2607633D2*
X2916290D1*
X3095320D2*
X4730003D1*
X1051617Y4495800D2*
X1199223D1*
X1545317D2*
X1657380D1*
X1814227D2*
X2457960D1*
X2613643D2*
X2916290D1*
X3095320D2*
X4730003D1*
X1051617Y4478133D2*
X1204533D1*
X1545317D2*
X1656430D1*
X1815177D2*
X2456307D1*
X2615297D2*
X2916290D1*
X3095320D2*
X4730003D1*
X1051617Y4460467D2*
X1214167D1*
X1545317D2*
X1659560D1*
X1812047D2*
X2458733D1*
X2612870D2*
X2916290D1*
X3095320D2*
X4730003D1*
X1051617Y4442800D2*
X1230127D1*
X1355473D2*
X1366287D1*
X1545317D2*
X1667367D1*
X1804243D2*
X2465657D1*
X2605947D2*
X2916290D1*
X3095320D2*
X4730003D1*
X1051617Y4425133D2*
X1231780D1*
X1353820D2*
X1366287D1*
X1545317D2*
X1681883D1*
X1789687D2*
X2478770D1*
X2592833D2*
X2916290D1*
X3095320D2*
X4730003D1*
X1051617Y4407467D2*
X1231780D1*
X1353820D2*
X1366287D1*
X1545317D2*
X1714897D1*
X1756710D2*
X2505560D1*
X2566043D2*
X2916290D1*
X3095320D2*
X4730003D1*
X1051617Y4389800D2*
X1231780D1*
X1353820D2*
X1366287D1*
X1545317D2*
X2916290D1*
X3095320D2*
X4730003D1*
X1051617Y4372133D2*
X1231780D1*
X1353820D2*
X1366287D1*
X1545317D2*
X2916290D1*
X3095320D2*
X4730003D1*
X1051617Y4354467D2*
X1231780D1*
X1353820D2*
X1366287D1*
X1545317D2*
X2916290D1*
X3095320D2*
X4730003D1*
X1051617Y4336800D2*
X1231780D1*
X1353820D2*
X1366287D1*
X1545317D2*
X2916290D1*
X3095320D2*
X4730003D1*
X1051617Y4319133D2*
X1231780D1*
X1353820D2*
X1366287D1*
X1545317D2*
X2916290D1*
X3095320D2*
X4730003D1*
X1051617Y4301467D2*
X1231780D1*
X1353820D2*
X2888483D1*
X3095320D2*
X4730003D1*
X1051617Y4283800D2*
X1175283D1*
X1414323D2*
X2849810D1*
X2967773D2*
X4730003D1*
X1051617Y4266133D2*
X1175283D1*
X1414323D2*
X2832337D1*
X3654867D2*
X4730003D1*
X1051617Y4248467D2*
X1175283D1*
X1414323D2*
X2821860D1*
X3681693D2*
X4730003D1*
X1051617Y4230800D2*
X1175283D1*
X2069920D2*
X2815883D1*
X3699340D2*
X4730003D1*
X1051617Y4213133D2*
X1175283D1*
X2093017D2*
X2813530D1*
X3717023D2*
X4730003D1*
X1051617Y4195467D2*
X1175283D1*
X2110700D2*
X2814583D1*
X3734673D2*
X4730003D1*
X1051617Y4177800D2*
X1175283D1*
X2128347D2*
X2800907D1*
X3752357D2*
X4730003D1*
X1051617Y4160133D2*
X1175283D1*
X2146030D2*
X2763573D1*
X3770003D2*
X4730003D1*
X1051617Y4142467D2*
X1175283D1*
X2163680D2*
X2745923D1*
X3509673D2*
X3616570D1*
X3787687D2*
X4730003D1*
X1051617Y4124800D2*
X1175283D1*
X2181363D2*
X2509217D1*
X2546390D2*
X2728240D1*
X3527357D2*
X3634253D1*
X3805337D2*
X4730003D1*
X1051617Y4107133D2*
X1175283D1*
X1414323D2*
X2027927D1*
X2199013D2*
X2469243D1*
X2586363D2*
X2710593D1*
X3545003D2*
X3651900D1*
X3823020D2*
X4730003D1*
X1051617Y4089467D2*
X1175283D1*
X1414323D2*
X2045577D1*
X2216697D2*
X2451597D1*
X2604013D2*
X2692907D1*
X3562687D2*
X3669583D1*
X3840670D2*
X4730003D1*
X1051617Y4071800D2*
X1175283D1*
X1414323D2*
X2063260D1*
X2234343D2*
X2441013D1*
X2614593D2*
X2675260D1*
X3580337D2*
X3687267D1*
X3858353D2*
X4730003D1*
X1051617Y4054133D2*
X1175283D1*
X1433170D2*
X2080907D1*
X2252027D2*
X2434930D1*
X2620640D2*
X2658033D1*
X3598020D2*
X3704917D1*
X3876000D2*
X4730003D1*
X1051617Y4036467D2*
X1175283D1*
X1456687D2*
X2098593D1*
X2269677D2*
X2432540D1*
X2623030D2*
X2648153D1*
X3615670D2*
X3722600D1*
X3893683D2*
X4730003D1*
X1051617Y4018800D2*
X1175283D1*
X1514590D2*
X2116240D1*
X2287360D2*
X2433527D1*
X2622083D2*
X2644813D1*
X3633353D2*
X3740247D1*
X3911333D2*
X4730003D1*
X1051617Y4001133D2*
X1175283D1*
X1540500D2*
X2133923D1*
X2352013D2*
X2437990D1*
X2617583D2*
X2644780D1*
X3651000D2*
X3757930D1*
X3929017D2*
X4730003D1*
X1051617Y3983467D2*
X1175283D1*
X1554843D2*
X2151573D1*
X2377183D2*
X2446533D1*
X2609040D2*
X2644780D1*
X3668683D2*
X3775580D1*
X3946700D2*
X4730003D1*
X1051617Y3965800D2*
X1175283D1*
X1563457D2*
X2169257D1*
X2391247D2*
X2460770D1*
X2600813D2*
X2644780D1*
X3686367D2*
X3793263D1*
X3964347D2*
X4730003D1*
X1051617Y3948133D2*
X1175283D1*
X1568027D2*
X2186903D1*
X2399720D2*
X2486293D1*
X2600813D2*
X2644780D1*
X3704017D2*
X3810913D1*
X3982030D2*
X4730003D1*
X1051617Y3930467D2*
X1175283D1*
X1569047D2*
X2204587D1*
X2404113D2*
X2470580D1*
X2600813D2*
X2644780D1*
X3721700D2*
X3828597D1*
X3999680D2*
X4730003D1*
X1051617Y3912800D2*
X1175283D1*
X1566727D2*
X2214573D1*
X2405027D2*
X2452897D1*
X2599723D2*
X2642247D1*
X3739347D2*
X3846243D1*
X4017363D2*
X4730003D1*
X1051617Y3895133D2*
X1175283D1*
X1560750D2*
X2217033D1*
X2402567D2*
X2435247D1*
X2592797D2*
X2624600D1*
X3757030D2*
X3863927D1*
X4035013D2*
X4730003D1*
X1051617Y3877467D2*
X1397367D1*
X1550240D2*
X2223150D1*
X2396450D2*
X2417563D1*
X2577363D2*
X2606917D1*
X2836817D2*
X2869040D1*
X3774680D2*
X3881577D1*
X4052697D2*
X4730003D1*
X1051617Y3859800D2*
X1414803D1*
X1532800D2*
X2233873D1*
X2385727D2*
X2399917D1*
X2559680D2*
X2589267D1*
X2835377D2*
X2924237D1*
X3792363D2*
X3899260D1*
X4070343D2*
X4730003D1*
X1051617Y3842133D2*
X1453473D1*
X1494130D2*
X2251697D1*
X2367903D2*
X2382233D1*
X2542030D2*
X2571583D1*
X2828273D2*
X2906587D1*
X3810013D2*
X3916907D1*
X4088027D2*
X4730003D1*
X1051617Y3824467D2*
X1791573D1*
X2524347D2*
X2553900D1*
X2813017D2*
X2888903D1*
X3060023D2*
X3264583D1*
X3827697D2*
X3934593D1*
X4105677D2*
X4730003D1*
X1051617Y3806800D2*
X1773923D1*
X2506700D2*
X2536253D1*
X2795333D2*
X2842497D1*
X3042340D2*
X3282233D1*
X3845343D2*
X3952240D1*
X4123360D2*
X4730003D1*
X1051617Y3789133D2*
X1756240D1*
X2489017D2*
X2518570D1*
X2777683D2*
X2823900D1*
X3024693D2*
X3299917D1*
X3863027D2*
X3969923D1*
X4141007D2*
X4730003D1*
X1051617Y3771467D2*
X1738557D1*
X2471367D2*
X2500920D1*
X2760000D2*
X2812790D1*
X3007007D2*
X3317600D1*
X3569823D2*
X3576600D1*
X3880677D2*
X3987573D1*
X4158693D2*
X4730003D1*
X1051617Y3753800D2*
X1720907D1*
X2742353D2*
X2806357D1*
X2991257D2*
X3335247D1*
X3569823D2*
X3594243D1*
X3898360D2*
X4005257D1*
X4176340D2*
X4730003D1*
X1051617Y3736133D2*
X1703223D1*
X2724670D2*
X2803617D1*
X2993967D2*
X3352930D1*
X3569823D2*
X3611927D1*
X3916007D2*
X4022903D1*
X4194023D2*
X4730003D1*
X1051617Y3718467D2*
X1409563D1*
X2707020D2*
X2804283D1*
X2993297D2*
X3370580D1*
X3569823D2*
X3629577D1*
X3933693D2*
X4040587D1*
X4211673D2*
X4730003D1*
X1051617Y3700800D2*
X1391917D1*
X2689337D2*
X2808430D1*
X2989183D2*
X3383763D1*
X3569823D2*
X3647260D1*
X3951340D2*
X4058237D1*
X4229357D2*
X4730003D1*
X1051617Y3683133D2*
X1374233D1*
X2671687D2*
X2816553D1*
X2981063D2*
X3383763D1*
X3569823D2*
X3664907D1*
X3969023D2*
X4075920D1*
X4247003D2*
X4730003D1*
X1051617Y3665467D2*
X1356583D1*
X2654003D2*
X2830087D1*
X2967527D2*
X3383763D1*
X3569823D2*
X3682593D1*
X3986673D2*
X4093570D1*
X4264687D2*
X4730003D1*
X1051617Y3647800D2*
X1338900D1*
X2636357D2*
X2853923D1*
X2943693D2*
X3383763D1*
X3569823D2*
X3700240D1*
X4004180D2*
X4111253D1*
X4282337D2*
X4730003D1*
X1051617Y3630133D2*
X1321253D1*
X2618673D2*
X3383763D1*
X3569823D2*
X3717923D1*
X4014833D2*
X4128900D1*
X4300020D2*
X4730003D1*
X1051617Y3612467D2*
X1303570D1*
X1463367D2*
X1685997D1*
X2601023D2*
X3383763D1*
X3569823D2*
X3735573D1*
X4018700D2*
X4146583D1*
X4317670D2*
X4730003D1*
X1051617Y3594800D2*
X1285920D1*
X1445683D2*
X1685823D1*
X2583340D2*
X3383763D1*
X3569823D2*
X3753257D1*
X4018807D2*
X4164267D1*
X4335353D2*
X4730003D1*
X1051617Y3577133D2*
X1268237D1*
X1545317D2*
X1689057D1*
X2565693D2*
X3383763D1*
X3569823D2*
X3770903D1*
X4018807D2*
X4181917D1*
X4353000D2*
X4730003D1*
X1051617Y3559467D2*
X1250587D1*
X1545317D2*
X1696123D1*
X2547973D2*
X3383763D1*
X3569823D2*
X3777793D1*
X4018807D2*
X4199600D1*
X4370683D2*
X4730003D1*
X1051617Y3541800D2*
X1232903D1*
X1545317D2*
X1708110D1*
X2420320D2*
X2806287D1*
X3025323D2*
X3383763D1*
X3650333D2*
X3777793D1*
X4018807D2*
X4217247D1*
X4388333D2*
X4730003D1*
X1051617Y3524133D2*
X1215257D1*
X2515313D2*
X2806287D1*
X3025323D2*
X3383763D1*
X3677437D2*
X3777793D1*
X4018807D2*
X4234930D1*
X4406017D2*
X4730003D1*
X1051617Y3506467D2*
X1197573D1*
X2515313D2*
X2806287D1*
X3025323D2*
X3383763D1*
X3692203D2*
X3777793D1*
X4018807D2*
X4252580D1*
X4423700D2*
X4730003D1*
X1051617Y3488800D2*
X1179923D1*
X2515313D2*
X2806287D1*
X3025323D2*
X3383763D1*
X3701097D2*
X3777793D1*
X4018807D2*
X4270263D1*
X4441347D2*
X4730003D1*
X1051617Y3471133D2*
X1162240D1*
X2515313D2*
X2806287D1*
X3025323D2*
X3383763D1*
X3705843D2*
X3777793D1*
X4018807D2*
X4287913D1*
X4459030D2*
X4730003D1*
X1051617Y3453467D2*
X1144557D1*
X2515313D2*
X2806287D1*
X3025323D2*
X3383763D1*
X3707073D2*
X3777793D1*
X4020843D2*
X4305597D1*
X4476680D2*
X4730003D1*
X1051617Y3435800D2*
X1129017D1*
X2515313D2*
X2806287D1*
X3025323D2*
X3383763D1*
X3704967D2*
X3777793D1*
X4036663D2*
X4323243D1*
X4494363D2*
X4730003D1*
X1051617Y3418133D2*
X1121950D1*
X2515313D2*
X2806287D1*
X3025323D2*
X3383763D1*
X3699200D2*
X3777793D1*
X4046193D2*
X4340927D1*
X4512013D2*
X4730003D1*
X1051617Y3400467D2*
X1120790D1*
X2515313D2*
X2527077D1*
X2576520D2*
X2583013D1*
X3327597D2*
X3383763D1*
X3689003D2*
X3699460D1*
X3740120D2*
X3777793D1*
X4051430D2*
X4358577D1*
X4529697D2*
X4730003D1*
X1051617Y3382800D2*
X1120790D1*
X1400333D2*
X1418707D1*
X1490893D2*
X1506280D1*
X3345353D2*
X3383763D1*
X4053117D2*
X4174920D1*
X4284693D2*
X4376260D1*
X4547343D2*
X4730003D1*
X1051617Y3365133D2*
X1120790D1*
X3363000D2*
X3383763D1*
X4051430D2*
X4063543D1*
X4134047D2*
X4155723D1*
X4303887D2*
X4393907D1*
X4565027D2*
X4730003D1*
X1051617Y3347467D2*
X1120790D1*
X4315313D2*
X4411593D1*
X4582677D2*
X4730003D1*
X1051617Y3329800D2*
X1120790D1*
X4326353D2*
X4429240D1*
X4600360D2*
X4730003D1*
X1051617Y3312133D2*
X1120790D1*
X1548693D2*
X1711277D1*
X4344000D2*
X4446923D1*
X4618007D2*
X4730003D1*
X1051617Y3294467D2*
X1120790D1*
X1550097D2*
X1728783D1*
X2648027D2*
X3118300D1*
X4361683D2*
X4464573D1*
X4635693D2*
X4730003D1*
X1051617Y3276800D2*
X1120790D1*
X1548340D2*
X1728783D1*
X2641103D2*
X3114257D1*
X3809483D2*
X3823253D1*
X4379333D2*
X4482257D1*
X4653340D2*
X4730003D1*
X1051617Y3259133D2*
X1120790D1*
X2632207D2*
X3113657D1*
X3800837D2*
X3840900D1*
X4397017D2*
X4499903D1*
X4671023D2*
X4730003D1*
X1051617Y3241467D2*
X1120790D1*
X2078320D2*
X2097573D1*
X2617443D2*
X3116437D1*
X3301160D2*
X3312783D1*
X3787830D2*
X3858583D1*
X4414700D2*
X4517587D1*
X4688673D2*
X4730003D1*
X1051617Y3223800D2*
X1120790D1*
X2078320D2*
X2109280D1*
X2603343D2*
X3122940D1*
X3294657D2*
X3312783D1*
X3787830D2*
X3876267D1*
X4176937D2*
X4183033D1*
X4432347D2*
X4535237D1*
X4706357D2*
X4730003D1*
X1051617Y3206133D2*
X1120790D1*
X2078320D2*
X2109280D1*
X2621027D2*
X3134153D1*
X3283443D2*
X3312783D1*
X3795000D2*
X3898980D1*
X4160697D2*
X4278913D1*
X4450030D2*
X4552920D1*
X4724003D2*
X4729993D1*
X1051617Y3188467D2*
X1120790D1*
X2078320D2*
X2109280D1*
X2638677D2*
X3152963D1*
X3264633D2*
X3312783D1*
X3812683D2*
X4069347D1*
X4128280D2*
X4296597D1*
X4467680D2*
X4570570D1*
X1051617Y3170800D2*
X1120790D1*
X2078320D2*
X2109280D1*
X2656360D2*
X3312783D1*
X3830367D2*
X4314243D1*
X4485363D2*
X4588253D1*
X1051617Y3153133D2*
X1120790D1*
X2078320D2*
X2109280D1*
X2674007D2*
X3312783D1*
X3569823D2*
X3583907D1*
X3848017D2*
X4331927D1*
X4503013D2*
X4605900D1*
X1051617Y3135467D2*
X1120790D1*
X2078320D2*
X2109280D1*
X2691693D2*
X3312783D1*
X3569823D2*
X3601593D1*
X4259697D2*
X4349577D1*
X4520697D2*
X4623583D1*
X1051617Y3117800D2*
X1120790D1*
X2078320D2*
X2109280D1*
X2358307D2*
X2535443D1*
X2709340D2*
X3312783D1*
X3569823D2*
X3619240D1*
X4277343D2*
X4367260D1*
X4538343D2*
X4630790D1*
X1051617Y3100133D2*
X1120790D1*
X2078320D2*
X2109280D1*
X2358307D2*
X2498950D1*
X2727023D2*
X3312783D1*
X3569823D2*
X3636923D1*
X4295027D2*
X4384907D1*
X4556027D2*
X4630790D1*
X1051617Y3082467D2*
X1120790D1*
X2078320D2*
X2109280D1*
X2358307D2*
X2481867D1*
X2744673D2*
X3312783D1*
X3569823D2*
X3654573D1*
X4312677D2*
X4402593D1*
X4573677D2*
X4630790D1*
X1051617Y3064800D2*
X1120790D1*
X2762357D2*
X3312783D1*
X3569823D2*
X3672257D1*
X4330360D2*
X4420240D1*
X4591150D2*
X4630790D1*
X1051617Y3047133D2*
X1120790D1*
X2780003D2*
X3312783D1*
X3569823D2*
X3689903D1*
X4348007D2*
X4437923D1*
X4601837D2*
X4630790D1*
X1051617Y3029467D2*
X1120790D1*
X2797687D2*
X3312783D1*
X3569823D2*
X3707587D1*
X4144700D2*
X4194573D1*
X4365693D2*
X4455573D1*
X4605703D2*
X4630790D1*
X1051617Y3011800D2*
X1120790D1*
X2815337D2*
X3312783D1*
X3569823D2*
X3725237D1*
X4162347D2*
X4212257D1*
X4383340D2*
X4473257D1*
X4605810D2*
X4630790D1*
X1051617Y2994133D2*
X1120790D1*
X2648240D2*
X2661900D1*
X2833020D2*
X3219653D1*
X3569823D2*
X3742920D1*
X4180030D2*
X4229903D1*
X4401023D2*
X4483767D1*
X4605810D2*
X4630790D1*
X1051617Y2976467D2*
X1120790D1*
X2639413D2*
X2679583D1*
X2850670D2*
X3196450D1*
X3569823D2*
X3760570D1*
X4197680D2*
X4247587D1*
X4414947D2*
X4483767D1*
X4605810D2*
X4623407D1*
X1051617Y2958800D2*
X1120790D1*
X2624790D2*
X2697267D1*
X3569823D2*
X3778497D1*
X4215330D2*
X4265237D1*
X4420957D2*
X4483767D1*
X1051617Y2941133D2*
X1120790D1*
X2609003D2*
X2714917D1*
X3569823D2*
X4061927D1*
X4227037D2*
X4282920D1*
X4421837D2*
X4483767D1*
X1051617Y2923467D2*
X1120790D1*
X2622470D2*
X2732600D1*
X3569823D2*
X4079577D1*
X4231537D2*
X4299793D1*
X4421837D2*
X4470550D1*
X1051617Y2905800D2*
X1120790D1*
X2628130D2*
X2750247D1*
X3569823D2*
X4097260D1*
X4231817D2*
X4299793D1*
X4421837D2*
X4462427D1*
X1051617Y2888133D2*
X1120790D1*
X2628833D2*
X2767930D1*
X3569823D2*
X4109777D1*
X4231817D2*
X4299793D1*
X4421837D2*
X4458280D1*
X1051617Y2870467D2*
X1120790D1*
X2500337D2*
X2506790D1*
X2628833D2*
X2779780D1*
X3569823D2*
X4109777D1*
X4231817D2*
X4299793D1*
X4421837D2*
X4457647D1*
X1051617Y2852800D2*
X1120790D1*
X2500337D2*
X2506790D1*
X2628833D2*
X2779780D1*
X3578367D2*
X4109777D1*
X4231817D2*
X4299793D1*
X4421837D2*
X4460353D1*
X1051617Y2835133D2*
X1120790D1*
X2500337D2*
X2506790D1*
X2628833D2*
X2779780D1*
X2901820D2*
X3210443D1*
X3596017D2*
X4109777D1*
X4231817D2*
X4299793D1*
X4421837D2*
X4466787D1*
X1051617Y2817467D2*
X1120790D1*
X2500337D2*
X2506790D1*
X2628833D2*
X2779780D1*
X2901820D2*
X3312783D1*
X3613700D2*
X3944893D1*
X4052697D2*
X4109777D1*
X4231817D2*
X4299793D1*
X4421837D2*
X4477897D1*
X4627710D2*
X4684087D1*
X4699477D2*
X4730003D1*
X1051617Y2799800D2*
X1120790D1*
X2500337D2*
X2506790D1*
X2628833D2*
X2779780D1*
X2901820D2*
X3312783D1*
X3631347D2*
X3925277D1*
X4072347D2*
X4109777D1*
X4231817D2*
X4299793D1*
X4421837D2*
X4496493D1*
X4609113D2*
X4730003D1*
X1051617Y2782133D2*
X1120790D1*
X2975333D2*
X3312783D1*
X3649030D2*
X3913603D1*
X4083983D2*
X4109777D1*
X4231817D2*
X4299793D1*
X4421837D2*
X4730003D1*
X1051617Y2764467D2*
X1120790D1*
X2975333D2*
X3312783D1*
X3666680D2*
X3906783D1*
X4470317D2*
X4730003D1*
X1051617Y2746800D2*
X1120790D1*
X3113847D2*
X3312783D1*
X3505807D2*
X3513240D1*
X3684363D2*
X3903760D1*
X4470317D2*
X4730003D1*
X1051617Y2729133D2*
X1120790D1*
X3140003D2*
X3312783D1*
X3505807D2*
X3530927D1*
X3702013D2*
X3904077D1*
X4470317D2*
X4730003D1*
X1051617Y2711467D2*
X1120790D1*
X3157687D2*
X3312783D1*
X3505807D2*
X3548577D1*
X3719697D2*
X3907873D1*
X4470317D2*
X4730003D1*
X1051617Y2693800D2*
X1120790D1*
X3175337D2*
X3312783D1*
X3505807D2*
X3566260D1*
X3737343D2*
X3915573D1*
X4470317D2*
X4730003D1*
X1051617Y2676133D2*
X1120790D1*
X3193020D2*
X3312783D1*
X3505807D2*
X3583907D1*
X3755027D2*
X3928510D1*
X4470317D2*
X4730003D1*
X1051617Y2658467D2*
X1120790D1*
X3210670D2*
X3312783D1*
X3505807D2*
X3601593D1*
X3772677D2*
X3948267D1*
X4055333D2*
X4061260D1*
X4470317D2*
X4730003D1*
X1051617Y2640800D2*
X1120790D1*
X3223290D2*
X3312783D1*
X3505807D2*
X3619240D1*
X3790360D2*
X3948267D1*
X4055333D2*
X4061260D1*
X4470317D2*
X4730003D1*
X1051617Y2623133D2*
X1120790D1*
X2975333D2*
X3074917D1*
X3228353D2*
X3312783D1*
X3505807D2*
X3636923D1*
X3808007D2*
X3948267D1*
X4055333D2*
X4061260D1*
X4470317D2*
X4730003D1*
X1051617Y2605467D2*
X1120790D1*
X3228810D2*
X3312783D1*
X3505807D2*
X3654573D1*
X3825693D2*
X3948267D1*
X4055333D2*
X4061260D1*
X4470317D2*
X4730003D1*
X1051617Y2587800D2*
X1120790D1*
X3228810D2*
X3312783D1*
X3506333D2*
X3672257D1*
X3843340D2*
X3948267D1*
X4055333D2*
X4061260D1*
X4470317D2*
X4730003D1*
X1051617Y2570133D2*
X1124027D1*
X2500337D2*
X2510763D1*
X2694820D2*
X2740790D1*
X2924813D2*
X2970783D1*
X3228810D2*
X3312783D1*
X3524017D2*
X3689903D1*
X3861023D2*
X3948267D1*
X4055333D2*
X4061260D1*
X4470317D2*
X4730003D1*
X1051617Y2552467D2*
X1134430D1*
X2500337D2*
X2510763D1*
X2694820D2*
X2740790D1*
X2924813D2*
X2970783D1*
X3228810D2*
X3312783D1*
X3541700D2*
X3613333D1*
X3626283D2*
X3707587D1*
X3880290D2*
X3948267D1*
X4055333D2*
X4061260D1*
X4527307D2*
X4730003D1*
X1051617Y2534800D2*
X1151903D1*
X2500337D2*
X2510763D1*
X2694820D2*
X2740790D1*
X2924813D2*
X2970783D1*
X3228810D2*
X3312783D1*
X3690517D2*
X3725237D1*
X4527307D2*
X4730003D1*
X1051617Y2517133D2*
X1169587D1*
X2694820D2*
X2740790D1*
X2924813D2*
X2970783D1*
X3228810D2*
X3312783D1*
X3715687D2*
X3742920D1*
X4223660D2*
X4238270D1*
X4527307D2*
X4730003D1*
X1051617Y2499467D2*
X1187237D1*
X2694820D2*
X2740790D1*
X2924813D2*
X2970783D1*
X3228810D2*
X3312783D1*
X3732670D2*
X3760570D1*
X4527307D2*
X4730003D1*
X1051617Y2481800D2*
X1204920D1*
X2694820D2*
X2740790D1*
X2924813D2*
X2970783D1*
X3228810D2*
X3312783D1*
X3434823D2*
X3441263D1*
X4527307D2*
X4730003D1*
X1051617Y2464133D2*
X1222570D1*
X2694820D2*
X2740790D1*
X2924813D2*
X2970783D1*
X3228810D2*
X3312783D1*
X3434823D2*
X3458927D1*
X4527307D2*
X4730003D1*
X1051617Y2446467D2*
X1240253D1*
X2694820D2*
X2740790D1*
X2924813D2*
X2970783D1*
X3228810D2*
X3312783D1*
X3434823D2*
X3476577D1*
X4527307D2*
X4730003D1*
X1051617Y2428800D2*
X1257900D1*
X2694820D2*
X2740790D1*
X2924813D2*
X2970783D1*
X3228810D2*
X3312783D1*
X3434823D2*
X3476540D1*
X4527307D2*
X4730003D1*
X1051617Y2411133D2*
X1275583D1*
X2694820D2*
X2740790D1*
X2924813D2*
X2970783D1*
X3228810D2*
X3312783D1*
X3434823D2*
X3475277D1*
X4527307D2*
X4730003D1*
X1051617Y2393467D2*
X1293233D1*
X2503817D2*
X2510757D1*
X2694820D2*
X2740790D1*
X2924813D2*
X2970783D1*
X3228810D2*
X3312783D1*
X3434823D2*
X3476223D1*
X4527307D2*
X4730003D1*
X1051617Y2375800D2*
X1310917D1*
X2503817D2*
X2510757D1*
X2694820D2*
X2740790D1*
X2924813D2*
X2970783D1*
X3228810D2*
X3312783D1*
X3434823D2*
X3479390D1*
X4527307D2*
X4730003D1*
X1051617Y2358133D2*
X1326770D1*
X2503817D2*
X2510757D1*
X2694820D2*
X2740790D1*
X2924813D2*
X2970783D1*
X3228810D2*
X3312783D1*
X3434823D2*
X3484980D1*
X4527307D2*
X4730003D1*
X1051617Y2340467D2*
X1326770D1*
X2503817D2*
X2510757D1*
X3228810D2*
X3312783D1*
X3434823D2*
X3493277D1*
X4527307D2*
X4730003D1*
X1051617Y2322800D2*
X1326770D1*
X2503817D2*
X2510757D1*
X3228810D2*
X3312783D1*
X3434823D2*
X3504877D1*
X3734707D2*
X3758880D1*
X4527307D2*
X4730003D1*
X1051617Y2305133D2*
X1326770D1*
X2503817D2*
X2547573D1*
X3228810D2*
X3312783D1*
X3434823D2*
X3521013D1*
X3718607D2*
X3775017D1*
X4226613D2*
X4238270D1*
X4527307D2*
X4730003D1*
X1051617Y2287467D2*
X1326770D1*
X2503817D2*
X2529923D1*
X3228810D2*
X3312783D1*
X3434823D2*
X3544533D1*
X3695087D2*
X3798537D1*
X4203093D2*
X4238270D1*
X4527307D2*
X4730003D1*
X1051617Y2269800D2*
X1326770D1*
X2503817D2*
X2512257D1*
X3227367D2*
X3312783D1*
X3434823D2*
X3558770D1*
X3680813D2*
X3812777D1*
X3934817D2*
X3948267D1*
X4055333D2*
X4098280D1*
X4157320D2*
X4238270D1*
X4527307D2*
X4730003D1*
X1051617Y2252133D2*
X1326770D1*
X3220267D2*
X3312783D1*
X3434823D2*
X3558770D1*
X3680813D2*
X3812777D1*
X3934817D2*
X3948267D1*
X4055333D2*
X4730003D1*
X1051617Y2234467D2*
X1326770D1*
X3205007D2*
X3312783D1*
X3434823D2*
X3558770D1*
X3680813D2*
X3812777D1*
X3934817D2*
X3948267D1*
X4055333D2*
X4730003D1*
X1051617Y2216800D2*
X1326770D1*
X2630343D2*
X2840247D1*
X3187360D2*
X3312783D1*
X3434823D2*
X3558770D1*
X3680813D2*
X3812777D1*
X3934817D2*
X3948267D1*
X4055333D2*
X4730003D1*
X1051617Y2199133D2*
X1326770D1*
X2612697D2*
X2822600D1*
X3169677D2*
X3312783D1*
X3434823D2*
X3558770D1*
X3680813D2*
X3812777D1*
X3934817D2*
X3948267D1*
X4055333D2*
X4730003D1*
X1051617Y2181467D2*
X1326770D1*
X2600813D2*
X2804917D1*
X3152027D2*
X3312783D1*
X3434823D2*
X3558770D1*
X3680813D2*
X3812777D1*
X3934817D2*
X3948267D1*
X4055333D2*
X4730003D1*
X1051617Y2163800D2*
X1326770D1*
X2600813D2*
X2787337D1*
X3134343D2*
X3312783D1*
X3434823D2*
X3558770D1*
X3680813D2*
X3812777D1*
X3934817D2*
X3948267D1*
X4055333D2*
X4730003D1*
X1051617Y2146133D2*
X1326770D1*
X2600813D2*
X2776157D1*
X3112687D2*
X3312783D1*
X3434823D2*
X3558770D1*
X3680813D2*
X3812777D1*
X3934817D2*
X3948267D1*
X4055333D2*
X4730003D1*
X1051617Y2128467D2*
X1326770D1*
X2600813D2*
X2771973D1*
X2923020D2*
X3312783D1*
X3434823D2*
X3558770D1*
X3680813D2*
X3812777D1*
X3934817D2*
X3948267D1*
X4055333D2*
X4730003D1*
X1051617Y2110800D2*
X1326770D1*
X2600813D2*
X2771763D1*
X2905337D2*
X3312783D1*
X3434823D2*
X3558770D1*
X3680813D2*
X3812777D1*
X3934817D2*
X3948267D1*
X4055333D2*
X4730003D1*
X1051617Y2093133D2*
X1326770D1*
X2600813D2*
X2771763D1*
X2893807D2*
X3312783D1*
X3434823D2*
X3558770D1*
X3680813D2*
X3812777D1*
X3934817D2*
X3948267D1*
X4055333D2*
X4730003D1*
X1051617Y2075467D2*
X1326770D1*
X2600813D2*
X2771763D1*
X2893807D2*
X3312783D1*
X3434823D2*
X3558770D1*
X3680813D2*
X3812777D1*
X3934817D2*
X3948267D1*
X4055333D2*
X4730003D1*
X1051617Y2057800D2*
X1326770D1*
X2600813D2*
X2771763D1*
X2893807D2*
X3312783D1*
X3434823D2*
X3558770D1*
X3680813D2*
X3812777D1*
X3934817D2*
X3948267D1*
X4055333D2*
X4730003D1*
X1051617Y2040133D2*
X1326770D1*
X2600813D2*
X2771763D1*
X2893807D2*
X3312783D1*
X3434823D2*
X3558770D1*
X3680813D2*
X3812777D1*
X3934817D2*
X3948267D1*
X4055333D2*
X4730003D1*
X1051617Y2022467D2*
X1326770D1*
X2600813D2*
X2625793D1*
X3039810D2*
X3312783D1*
X3434823D2*
X3558770D1*
X3680813D2*
X3812777D1*
X3934817D2*
X3948267D1*
X4055333D2*
X4730003D1*
X1051617Y2004800D2*
X1326770D1*
X2600813D2*
X2625793D1*
X3039810D2*
X3312783D1*
X3434823D2*
X3558770D1*
X3680813D2*
X3812777D1*
X3934817D2*
X3948267D1*
X4055333D2*
X4730003D1*
X1051617Y1987133D2*
X1326770D1*
X1697017D2*
X1710783D1*
X1894807D2*
X1940777D1*
X2124833D2*
X2170767D1*
X2354823D2*
X2381777D1*
X2600813D2*
X2625793D1*
X3201597D2*
X3301570D1*
X3434823D2*
X3558770D1*
X3680813D2*
X3812777D1*
X3934817D2*
X3948267D1*
X4055333D2*
X4730003D1*
X1051617Y1969467D2*
X1326770D1*
X1678490D2*
X1710783D1*
X1894807D2*
X1940777D1*
X2124833D2*
X2170767D1*
X2354823D2*
X2369927D1*
X2600813D2*
X2625793D1*
X3201597D2*
X3238427D1*
X3434650D2*
X3558770D1*
X3680813D2*
X3812777D1*
X3934817D2*
X3948267D1*
X4055333D2*
X4730003D1*
X1051617Y1951800D2*
X1326770D1*
X1894807D2*
X1940777D1*
X2124833D2*
X2170767D1*
X2600813D2*
X2625793D1*
X3201597D2*
X3218107D1*
X3430570D2*
X3558770D1*
X3680813D2*
X3812777D1*
X3934817D2*
X3948267D1*
X4055333D2*
X4730003D1*
X1051617Y1934133D2*
X1326770D1*
X1894807D2*
X1940777D1*
X2124833D2*
X2170767D1*
X2600813D2*
X2625793D1*
X3419567D2*
X3558770D1*
X3681797D2*
X3812777D1*
X3935800D2*
X3948267D1*
X4055333D2*
X4069837D1*
X4189770D2*
X4240277D1*
X4529310D2*
X4730003D1*
X1051617Y1916467D2*
X1326770D1*
X1894807D2*
X1940777D1*
X2124833D2*
X2170767D1*
X2600813D2*
X2625793D1*
X3402023D2*
X3532370D1*
X3711223D2*
X3786373D1*
X4219197D2*
X4240277D1*
X4529310D2*
X4730003D1*
X1051617Y1898800D2*
X1326770D1*
X1894807D2*
X1940777D1*
X2124833D2*
X2170767D1*
X2470347D2*
X2478783D1*
X2600813D2*
X2625793D1*
X3385780D2*
X3513457D1*
X3730137D2*
X3767460D1*
X4529310D2*
X4730003D1*
X1051617Y1881133D2*
X1326770D1*
X1894807D2*
X1940777D1*
X2124833D2*
X2170767D1*
X2452700D2*
X2478770D1*
X2600813D2*
X2625793D1*
X3385607D2*
X3500027D1*
X3743567D2*
X3754040D1*
X4529310D2*
X4730003D1*
X1051617Y1863467D2*
X1326770D1*
X1894807D2*
X1939790D1*
X2124833D2*
X2170767D1*
X2435017D2*
X2478770D1*
X2600813D2*
X2625793D1*
X3382020D2*
X3490357D1*
X4529310D2*
X4730003D1*
X1051617Y1845800D2*
X1326770D1*
X1894807D2*
X1939790D1*
X2124833D2*
X2170767D1*
X2417333D2*
X2478770D1*
X2600813D2*
X2625793D1*
X3201597D2*
X3207003D1*
X3374567D2*
X3483607D1*
X4529310D2*
X4730003D1*
X1051617Y1828133D2*
X1326770D1*
X1690687D2*
X1710783D1*
X1894807D2*
X1939790D1*
X2124833D2*
X2170767D1*
X2393357D2*
X2478770D1*
X2600813D2*
X2625793D1*
X3201597D2*
X3219583D1*
X3362017D2*
X3479353D1*
X4529310D2*
X4730003D1*
X1051617Y1810467D2*
X1326770D1*
X1687067D2*
X1710783D1*
X1894807D2*
X1939790D1*
X2124833D2*
X2170767D1*
X2354823D2*
X2478770D1*
X2600813D2*
X2625793D1*
X3201597D2*
X3241133D1*
X3340467D2*
X3477420D1*
X4529310D2*
X4730003D1*
X1051617Y1792800D2*
X1326770D1*
X1440833D2*
X1499670D1*
X1689913D2*
X1710783D1*
X1894807D2*
X1939790D1*
X2124833D2*
X2170767D1*
X2354823D2*
X2478770D1*
X2600813D2*
X2625793D1*
X3401603D2*
X3477700D1*
X4529310D2*
X4730003D1*
X1051617Y1775133D2*
X1326770D1*
X1440833D2*
X1500197D1*
X1689387D2*
X1710783D1*
X1894807D2*
X1939790D1*
X2124833D2*
X2170767D1*
X2354823D2*
X2467417D1*
X2612203D2*
X2625793D1*
X3401603D2*
X3480197D1*
X4529310D2*
X4730003D1*
X1051617Y1757467D2*
X1326770D1*
X1440833D2*
X1504207D1*
X1685413D2*
X1710783D1*
X2395323D2*
X2455287D1*
X3401603D2*
X3485013D1*
X4529310D2*
X4730003D1*
X1440833Y1739800D2*
X1463950D1*
X1677470D2*
X1742777D1*
X1856837D2*
X1866273D1*
X2395323D2*
X2448150D1*
X3401603D2*
X3492430D1*
X4529310D2*
X4730003D1*
X1664143Y1722133D2*
X1742777D1*
X1856837D2*
X1866273D1*
X2395323D2*
X2444847D1*
X3401603D2*
X3502980D1*
X3740613D2*
X3756983D1*
X4529310D2*
X4730003D1*
X1640943Y1704467D2*
X1742777D1*
X1856837D2*
X1866273D1*
X2395323D2*
X2444950D1*
X3401603D2*
X3517533D1*
X3726060D2*
X3771537D1*
X4234067D2*
X4240283D1*
X4529310D2*
X4730003D1*
X1607437Y1686800D2*
X1658997D1*
X1856837D2*
X1866273D1*
X2395323D2*
X2448467D1*
X3401603D2*
X3538310D1*
X4213323D2*
X4240277D1*
X4529310D2*
X4730003D1*
X1610743Y1669133D2*
X1633087D1*
X1856837D2*
X1866273D1*
X2395323D2*
X2455850D1*
X2623770D2*
X2629990D1*
X3401603D2*
X3547593D1*
X4215960D2*
X4240277D1*
X4529310D2*
X4730003D1*
X1610637Y1651467D2*
X1618733D1*
X2395323D2*
X2468293D1*
X2611323D2*
X2630013D1*
X3401603D2*
X3529907D1*
X4220813D2*
X4730003D1*
X2395323Y1633800D2*
X2489563D1*
X2590020D2*
X2630013D1*
X3401603D2*
X3512260D1*
X4222113D2*
X4730003D1*
X1599773Y1616133D2*
X1605597D1*
X2395323D2*
X2630013D1*
X3401603D2*
X3494577D1*
X4220040D2*
X4730003D1*
X1587330Y1598467D2*
X1604540D1*
X2395323D2*
X2630013D1*
X3401603D2*
X3476927D1*
X4214343D2*
X4730003D1*
X1440833Y1580800D2*
X1456287D1*
X1575307D2*
X1606860D1*
X2395323D2*
X2630013D1*
X3401603D2*
X3459243D1*
X4204253D2*
X4359913D1*
X4407703D2*
X4730003D1*
X1440833Y1563133D2*
X1456287D1*
X1575307D2*
X1590267D1*
X2395323D2*
X2630013D1*
X3401603D2*
X3441597D1*
X3695403D2*
X3802193D1*
X4055333D2*
X4066147D1*
X4187483D2*
X4310167D1*
X4457413D2*
X4730003D1*
X1440833Y1545467D2*
X1456287D1*
X1583567D2*
X1590313D1*
X1975030D2*
X2199770D1*
X2321813D2*
X2329983D1*
X3401603D2*
X3423913D1*
X3719520D2*
X3778077D1*
X4203340D2*
X4286050D1*
X4481530D2*
X4730003D1*
X1440833Y1527800D2*
X1456323D1*
X1819323D2*
X1832917D1*
X1988847D2*
X2199770D1*
X2321813D2*
X2329983D1*
X3401603D2*
X3408193D1*
X3735973D2*
X3761623D1*
X4224153D2*
X4269630D1*
X4497950D2*
X4730003D1*
X1440833Y1510133D2*
X1459733D1*
X1819323D2*
X1850563D1*
X1994333D2*
X2199770D1*
X2321813D2*
X2329983D1*
X4238217D2*
X4257820D1*
X4509797D2*
X4730003D1*
X1440833Y1492467D2*
X1469963D1*
X1994823D2*
X2199770D1*
X2321813D2*
X2329983D1*
X4724320D2*
X4730000D1*
X1051617Y1474800D2*
X1064490D1*
X1440833D2*
X1487367D1*
X1994823D2*
X2199770D1*
X2321813D2*
X2329983D1*
X4724320D2*
X4730000D1*
X1051617Y1457133D2*
X1077760D1*
X1440833D2*
X1505050D1*
X1994823D2*
X2199770D1*
X2321813D2*
X2329983D1*
X4724320D2*
X4730000D1*
X1051617Y1439467D2*
X1068337D1*
X1440833D2*
X1522697D1*
X1994823D2*
X2199770D1*
X2321813D2*
X2329983D1*
X4724320D2*
X4730000D1*
X1051617Y1421800D2*
X1065753D1*
X1439003D2*
X1540380D1*
X1994823D2*
X2199770D1*
X2321813D2*
X2329983D1*
X4724320D2*
X4730000D1*
X1051617Y1404133D2*
X1065753D1*
X1503023D2*
X1579510D1*
X1994823D2*
X2199770D1*
X2321813D2*
X2329983D1*
X4724320D2*
X4730000D1*
X1051617Y1386467D2*
X1065753D1*
X1520673D2*
X1590267D1*
X1994823D2*
X2199770D1*
X2321813D2*
X2329983D1*
X4724320D2*
X4730000D1*
X1051617Y1368800D2*
X1065753D1*
X1538357D2*
X1590267D1*
X1994823D2*
X2199770D1*
X2321813D2*
X2329983D1*
X4237757D2*
X4258207D1*
X4724320D2*
X4730000D1*
X1051617Y1351133D2*
X1065753D1*
X1556003D2*
X1605280D1*
X1994823D2*
X2199770D1*
X2321813D2*
X2329983D1*
X3735447D2*
X3762150D1*
X4223520D2*
X4270157D1*
X4724320D2*
X4730000D1*
X1051617Y1333467D2*
X1065753D1*
X1573687D2*
X1605280D1*
X1994823D2*
X2199770D1*
X2321813D2*
X2329983D1*
X3718780D2*
X3778813D1*
X4202357D2*
X4286787D1*
X4724320D2*
X4730000D1*
X1051617Y1315800D2*
X1065753D1*
X1590633D2*
X1605280D1*
X1994823D2*
X2199770D1*
X2321813D2*
X2329983D1*
X3520817D2*
X3549350D1*
X3694277D2*
X3803353D1*
X4055333D2*
X4069100D1*
X4190507D2*
X4240277D1*
X4724320D2*
X4730000D1*
X1051617Y1298133D2*
X1065753D1*
X1364333D2*
X1437900D1*
X1994823D2*
X2199770D1*
X2321813D2*
X2329983D1*
X3520817D2*
X3531970D1*
X3711643D2*
X3785950D1*
X4219653D2*
X4240277D1*
X4724320D2*
X4730000D1*
X1051617Y1280467D2*
X1065753D1*
X1364333D2*
X1455583D1*
X1994823D2*
X2199770D1*
X2321813D2*
X2329983D1*
X3730420D2*
X3767213D1*
X4724320D2*
X4730000D1*
X1051617Y1262800D2*
X1065753D1*
X1179833D2*
X1473267D1*
X1602833D2*
X1787777D1*
X1994823D2*
X2199770D1*
X2321813D2*
X2329983D1*
X3743777D2*
X3753813D1*
X4724320D2*
X4730000D1*
X1051617Y1245133D2*
X1065753D1*
X1179833D2*
X1187287D1*
X1994823D2*
X2199770D1*
X2321813D2*
X2329983D1*
X4724320D2*
X4730000D1*
X1051617Y1227467D2*
X1065753D1*
X1179833D2*
X1187287D1*
X1994823D2*
X2199770D1*
X2321813D2*
X2329983D1*
X4724320D2*
X4730000D1*
X1051617Y1209800D2*
X1065753D1*
X1179833D2*
X1187287D1*
X1994823D2*
X2199770D1*
X2321813D2*
X2329983D1*
X4724320D2*
X4730000D1*
X1051617Y1192133D2*
X1065753D1*
X1179833D2*
X1187287D1*
X1994823D2*
X2199770D1*
X2321813D2*
X2329983D1*
X4724320D2*
X4730000D1*
X1051617Y1174467D2*
X1065753D1*
X1994823D2*
X2199770D1*
X4724320D2*
X4730000D1*
X1051617Y1156800D2*
X1066510D1*
X1994823D2*
X2200087D1*
X4724320D2*
X4730000D1*
X1051617Y1139133D2*
X1072663D1*
X1994823D2*
X2204730D1*
X4724320D2*
X4730000D1*
X1051617Y1121467D2*
X1087253D1*
X1994823D2*
X2216577D1*
X4724320D2*
X4730000D1*
X1051617Y1103800D2*
X1104900D1*
X4724320D2*
X4730000D1*
X1051617Y1086133D2*
X1122583D1*
X4233750D2*
X4240263D1*
X4529310D2*
X4730003D1*
X1051617Y1068467D2*
X1140233D1*
X4212867D2*
X4240277D1*
X4529310D2*
X4730003D1*
X1051617Y1050800D2*
X1157917D1*
X4177887D2*
X4240277D1*
X4529310D2*
X4730003D1*
X1893007Y1761020D2*
X1941593D1*
X1941763Y1869447D1*
X1942313Y1874083D1*
X1942580Y1890580D1*
Y2003113D1*
X1893037Y2003080D1*
X1893020Y1761023D1*
X2122997Y1761020D2*
X2172553D1*
X2172580Y2003113D1*
X2123030Y2003080D1*
X2123020Y1761023D1*
X2128070Y1550580D2*
X1968110D1*
X1979790Y1538663D1*
X1984883Y1531653D1*
X1988817Y1523933D1*
X1991493Y1515690D1*
X1992850Y1507133D1*
X1993020Y1484800D1*
X1992850Y1117467D1*
X1991493Y1108910D1*
X1990313Y1104720D1*
X1995800Y1104020D1*
X2235813D1*
X2215770Y1124340D1*
X2210307Y1131857D1*
X2206087Y1140137D1*
X2203217Y1148977D1*
X2201763Y1158153D1*
X2201580Y1180800D1*
Y1550610D1*
X2128080Y1550617D1*
X1868080Y1650600D2*
Y1746577D1*
X1855017Y1746580D1*
X1855020Y1663703D1*
X1868057Y1650637D1*
X2353043Y1761020D2*
X2393520D1*
Y1550580D1*
X2320010D1*
X2320020Y1187343D1*
X2331800Y1175800D1*
X2331910Y1542207D1*
X2332780Y1544887D1*
X2334437Y1547163D1*
X2336713Y1548820D1*
X2339393Y1549690D1*
X2367800Y1549800D1*
X2631787D1*
X2631800Y1697000D1*
X2628743Y1684900D1*
X2626200Y1678010D1*
X2623127Y1671343D1*
X2619540Y1664937D1*
X2615460Y1658830D1*
X2610913Y1653063D1*
X2605930Y1647670D1*
X2600537Y1642687D1*
X2594770Y1638140D1*
X2588663Y1634060D1*
X2582257Y1630473D1*
X2575590Y1627400D1*
X2568700Y1624857D1*
X2561633Y1622863D1*
X2554430Y1621430D1*
X2547137Y1620567D1*
X2539800Y1620280D1*
X2532463Y1620567D1*
X2525170Y1621430D1*
X2517967Y1622863D1*
X2510900Y1624857D1*
X2504010Y1627400D1*
X2497343Y1630473D1*
X2490937Y1634060D1*
X2484830Y1638140D1*
X2479063Y1642687D1*
X2473670Y1647670D1*
X2468687Y1653063D1*
X2464140Y1658830D1*
X2460060Y1664937D1*
X2456473Y1671343D1*
X2453400Y1678010D1*
X2450857Y1684900D1*
X2448863Y1691967D1*
X2447430Y1699170D1*
X2446567Y1706463D1*
X2446280Y1713800D1*
X2446567Y1721137D1*
X2447430Y1728430D1*
X2448863Y1735633D1*
X2450857Y1742700D1*
X2453400Y1749590D1*
X2456473Y1756257D1*
X2460060Y1762663D1*
X2464140Y1768770D1*
X2468687Y1774537D1*
X2473670Y1779930D1*
X2480573Y1786103D1*
X2480580Y1910850D1*
X2407260Y1837770D1*
X2399743Y1832307D1*
X2391463Y1828087D1*
X2382623Y1825217D1*
X2373447Y1823763D1*
X2353013Y1823580D1*
X2353020Y1761023D1*
X2356520Y3126610D2*
Y3076057D1*
X2447800Y3076020D1*
X2457063Y3075290D1*
X2466100Y3073123D1*
X2475473Y3069257D1*
X2479060Y3075663D1*
X2483140Y3081770D1*
X2487687Y3087537D1*
X2492670Y3092930D1*
X2498063Y3097913D1*
X2503830Y3102460D1*
X2509937Y3106540D1*
X2516343Y3110127D1*
X2523010Y3113200D1*
X2529900Y3115743D1*
X2539583Y3118257D1*
X2531267Y3126583D1*
X2356500Y3126580D1*
X2111080Y3076043D2*
Y3229747D1*
X2078913Y3261937D1*
X2076520Y3260520D1*
Y3076053D1*
X2111070Y3076020D1*
X2717080Y2796020D2*
X2781593D1*
X2781580Y2876250D1*
X2650293Y3007560D1*
X2647743Y2997900D1*
X2645200Y2991010D1*
X2642127Y2984343D1*
X2638540Y2977937D1*
X2634460Y2971830D1*
X2629913Y2966063D1*
X2624930Y2960670D1*
X2619537Y2955687D1*
X2613770Y2951140D1*
X2603583Y2944777D1*
X2612830Y2935260D1*
X2618293Y2927743D1*
X2622513Y2919463D1*
X2625383Y2910623D1*
X2626837Y2901447D1*
X2627020Y2878800D1*
Y2796007D1*
X2717080Y2796020D1*
X2899997D2*
X2973520D1*
Y2750000D1*
X3092800Y2750020D1*
X3102063Y2749290D1*
X3111100Y2747123D1*
X3119687Y2743567D1*
X3127610Y2738710D1*
X3134673Y2732673D1*
X3212830Y2654260D1*
X3218293Y2646743D1*
X3222513Y2638463D1*
X3225383Y2629623D1*
X3226837Y2620447D1*
X3227020Y2597800D1*
X3226837Y2278153D1*
X3225383Y2268977D1*
X3222513Y2260137D1*
X3218293Y2251857D1*
X3212830Y2244340D1*
X3196947Y2228197D1*
X3122260Y2153770D1*
X3114743Y2148307D1*
X3106463Y2144087D1*
X3097623Y2141217D1*
X3088447Y2139763D1*
X3065800Y2139580D1*
X2932313D1*
X2892027Y2099277D1*
X2892020Y2032990D1*
X3038020Y2033020D1*
Y1999797D1*
X3192207Y1999690D1*
X3194887Y1998820D1*
X3197163Y1997163D1*
X3198820Y1994887D1*
X3199690Y1992207D1*
X3199800Y1963800D1*
X3199863Y1912633D1*
X3201857Y1919700D1*
X3204400Y1926590D1*
X3207473Y1933257D1*
X3211060Y1939663D1*
X3215140Y1945770D1*
X3219687Y1951537D1*
X3224670Y1956930D1*
X3230063Y1961913D1*
X3235830Y1966460D1*
X3241937Y1970540D1*
X3248343Y1974127D1*
X3255010Y1977200D1*
X3261900Y1979743D1*
X3268967Y1981737D1*
X3276170Y1983170D1*
X3283463Y1984033D1*
X3290800Y1984320D1*
X3300047Y1983807D1*
X3314577Y1998327D1*
X3314580Y2832000D1*
X3308257Y2828473D1*
X3301590Y2825400D1*
X3294700Y2822857D1*
X3287633Y2820863D1*
X3280430Y2819430D1*
X3273137Y2818567D1*
X3265800Y2818280D1*
X3258463Y2818567D1*
X3251170Y2819430D1*
X3243967Y2820863D1*
X3236900Y2822857D1*
X3230010Y2825400D1*
X3223343Y2828473D1*
X3216937Y2832060D1*
X3210830Y2836140D1*
X3205063Y2840687D1*
X3199670Y2845670D1*
X3193497Y2852573D1*
X2900000Y2852580D1*
X2900020Y2796000D1*
X2973520Y2631593D2*
Y2613030D1*
X3086803Y2613020D1*
X3068277Y2631573D1*
X2973513Y2631580D1*
X2972570Y2585580D2*
X2923000D1*
X2923020Y2352053D1*
X2972610Y2352020D1*
X2972580Y2585567D1*
X2742580Y2585580D2*
X2693023D1*
X2693020Y2352053D1*
X2742547Y2352020D1*
X2742580Y2585567D1*
X2498530Y2796020D2*
X2508583D1*
X2508580Y2872303D1*
X2498507Y2882343D1*
X2498520Y2800790D1*
X2512603Y2585580D2*
X2498540D1*
X2498520Y2522030D1*
X2512563Y2522020D1*
X2512580Y2585567D1*
X1180080Y1752520D2*
X1328547D1*
X1328580Y2359953D1*
X1138753Y2549753D1*
X1133127Y2556343D1*
X1128600Y2563730D1*
X1125283Y2571737D1*
X1123260Y2580163D1*
X1122580Y2588800D1*
X1122750Y3411133D1*
X1124107Y3419690D1*
X1126783Y3427933D1*
X1130717Y3435653D1*
X1135810Y3442663D1*
X1151480Y3458573D1*
X1414937Y3721790D1*
X1421947Y3726883D1*
X1429667Y3730817D1*
X1437910Y3733493D1*
X1446467Y3734850D1*
X1468800Y3735020D1*
X1703960D1*
X1794753Y3825847D1*
X1801343Y3831473D1*
X1808730Y3836000D1*
X1816737Y3839317D1*
X1825160Y3841340D1*
X1833800Y3842020D1*
X2253670D1*
X2249063Y3845687D1*
X2243670Y3850670D1*
X2238687Y3856063D1*
X2234140Y3861830D1*
X2230060Y3867937D1*
X2226473Y3874343D1*
X2223400Y3881010D1*
X2220857Y3887900D1*
X2218863Y3894967D1*
X2217430Y3902170D1*
X2216567Y3909463D1*
X2216423Y3920440D1*
X2019273Y4117577D1*
X1412520Y4117520D1*
Y4058827D1*
X1421623Y4057383D1*
X1430463Y4054513D1*
X1438743Y4050293D1*
X1446260Y4044830D1*
X1464517Y4026833D1*
X1473800Y4027320D1*
X1481137Y4027033D1*
X1488430Y4026170D1*
X1495633Y4024737D1*
X1502700Y4022743D1*
X1509590Y4020200D1*
X1516257Y4017127D1*
X1522663Y4013540D1*
X1528770Y4009460D1*
X1534537Y4004913D1*
X1539930Y3999930D1*
X1544913Y3994537D1*
X1549460Y3988770D1*
X1553540Y3982663D1*
X1557127Y3976257D1*
X1560200Y3969590D1*
X1562743Y3962700D1*
X1564737Y3955633D1*
X1566170Y3948430D1*
X1567033Y3941137D1*
X1567320Y3933800D1*
X1567033Y3926463D1*
X1566170Y3919170D1*
X1564737Y3911967D1*
X1562743Y3904900D1*
X1560200Y3898010D1*
X1557127Y3891343D1*
X1553540Y3884937D1*
X1549460Y3878830D1*
X1544913Y3873063D1*
X1539930Y3867670D1*
X1534537Y3862687D1*
X1528770Y3858140D1*
X1522663Y3854060D1*
X1516257Y3850473D1*
X1509590Y3847400D1*
X1502700Y3844857D1*
X1495633Y3842863D1*
X1488430Y3841430D1*
X1481137Y3840567D1*
X1473800Y3840280D1*
X1466463Y3840567D1*
X1459170Y3841430D1*
X1451967Y3842863D1*
X1444900Y3844857D1*
X1438010Y3847400D1*
X1431343Y3850473D1*
X1424937Y3854060D1*
X1418830Y3858140D1*
X1413063Y3862687D1*
X1407670Y3867670D1*
X1402687Y3873063D1*
X1398140Y3878830D1*
X1394060Y3884937D1*
X1390123Y3892097D1*
X1177080Y3892080D1*
Y4297520D1*
X1233577D1*
X1233580Y4441443D1*
X1226670Y4447670D1*
X1221687Y4453063D1*
X1217140Y4458830D1*
X1213060Y4464937D1*
X1209473Y4471343D1*
X1206400Y4478010D1*
X1203857Y4484900D1*
X1201863Y4491967D1*
X1200430Y4499170D1*
X1199567Y4506463D1*
X1199280Y4513800D1*
X1199567Y4521137D1*
X1200430Y4528430D1*
X1201863Y4535633D1*
X1203857Y4542700D1*
X1206400Y4549590D1*
X1209473Y4556257D1*
X1213060Y4562663D1*
X1217140Y4568770D1*
X1221687Y4574537D1*
X1226670Y4579930D1*
X1232063Y4584913D1*
X1237830Y4589460D1*
X1243937Y4593540D1*
X1250343Y4597127D1*
X1257010Y4600200D1*
X1263900Y4602743D1*
X1270967Y4604737D1*
X1278170Y4606170D1*
X1285463Y4607033D1*
X1292800Y4607320D1*
X1300137Y4607033D1*
X1307430Y4606170D1*
X1314633Y4604737D1*
X1321700Y4602743D1*
X1328590Y4600200D1*
X1335257Y4597127D1*
X1341663Y4593540D1*
X1347770Y4589460D1*
X1353537Y4584913D1*
X1358930Y4579930D1*
X1363913Y4574537D1*
X1368087Y4569243D1*
X1368080Y4579520D1*
X1543520D1*
Y4304080D1*
X1368080D1*
Y4458310D1*
X1363913Y4453063D1*
X1358930Y4447670D1*
X1352027Y4441497D1*
X1352020Y4297553D1*
X1412520Y4297520D1*
Y4236030D1*
X2043800Y4236020D1*
X2053063Y4235290D1*
X2062100Y4233123D1*
X2070687Y4229567D1*
X2078610Y4224710D1*
X2085677Y4218677D1*
X2295163Y4009187D1*
X2302463Y4010033D1*
X2309800Y4010320D1*
X2317137Y4010033D1*
X2324430Y4009170D1*
X2331633Y4007737D1*
X2338700Y4005743D1*
X2345590Y4003200D1*
X2352257Y4000127D1*
X2358663Y3996540D1*
X2364770Y3992460D1*
X2370537Y3987913D1*
X2375930Y3982930D1*
X2380913Y3977537D1*
X2385460Y3971770D1*
X2389540Y3965663D1*
X2393127Y3959257D1*
X2396200Y3952590D1*
X2398743Y3945700D1*
X2400737Y3938633D1*
X2402170Y3931430D1*
X2403033Y3924137D1*
X2403320Y3916800D1*
X2403033Y3909463D1*
X2402170Y3902170D1*
X2400737Y3894967D1*
X2398743Y3887900D1*
X2396200Y3881010D1*
X2393127Y3874343D1*
X2389540Y3867937D1*
X2385460Y3861830D1*
X2380913Y3856063D1*
X2375930Y3850670D1*
X2370537Y3845687D1*
X2365873Y3842010D1*
X2383960Y3842020D1*
X2488593Y3946687D1*
X2485343Y3949473D1*
X2478937Y3953060D1*
X2472830Y3957140D1*
X2467063Y3961687D1*
X2461670Y3966670D1*
X2456687Y3972063D1*
X2452140Y3977830D1*
X2448060Y3983937D1*
X2444473Y3990343D1*
X2441400Y3997010D1*
X2438857Y4003900D1*
X2436863Y4010967D1*
X2435430Y4018170D1*
X2434567Y4025463D1*
X2434280Y4032800D1*
X2434567Y4040137D1*
X2435430Y4047430D1*
X2436863Y4054633D1*
X2438857Y4061700D1*
X2441400Y4068590D1*
X2444473Y4075257D1*
X2448060Y4081663D1*
X2452140Y4087770D1*
X2456687Y4093537D1*
X2461670Y4098930D1*
X2467063Y4103913D1*
X2472830Y4108460D1*
X2478937Y4112540D1*
X2485343Y4116127D1*
X2492010Y4119200D1*
X2498900Y4121743D1*
X2505967Y4123737D1*
X2513170Y4125170D1*
X2520463Y4126033D1*
X2527800Y4126320D1*
X2535137Y4126033D1*
X2542430Y4125170D1*
X2549633Y4123737D1*
X2556700Y4121743D1*
X2563590Y4119200D1*
X2570257Y4116127D1*
X2576663Y4112540D1*
X2582770Y4108460D1*
X2588537Y4103913D1*
X2593930Y4098930D1*
X2598913Y4093537D1*
X2603460Y4087770D1*
X2607540Y4081663D1*
X2611127Y4075257D1*
X2614200Y4068590D1*
X2616743Y4061700D1*
X2618737Y4054633D1*
X2620170Y4047430D1*
X2621033Y4040137D1*
X2621320Y4032800D1*
X2621033Y4025463D1*
X2620170Y4018170D1*
X2618737Y4010967D1*
X2616743Y4003900D1*
X2614200Y3997010D1*
X2611127Y3990343D1*
X2607540Y3983937D1*
X2603460Y3977830D1*
X2599037Y3972220D1*
X2598850Y3919467D1*
X2597493Y3910910D1*
X2594817Y3902667D1*
X2590883Y3894947D1*
X2585790Y3887937D1*
X2570120Y3872027D1*
X2465090Y3766997D1*
X2498303Y3767020D1*
X2646563Y3915313D1*
X2646763Y4021447D1*
X2648217Y4030623D1*
X2651087Y4039463D1*
X2655307Y4047743D1*
X2660770Y4055260D1*
X2676653Y4071403D1*
X2769340Y4163830D1*
X2776857Y4169293D1*
X2785137Y4173513D1*
X2793977Y4176383D1*
X2803153Y4177837D1*
X2820843Y4178020D1*
X2817863Y4187967D1*
X2816430Y4195170D1*
X2815567Y4202463D1*
X2815280Y4209800D1*
X2815567Y4217137D1*
X2816430Y4224430D1*
X2817863Y4231633D1*
X2819857Y4238700D1*
X2822400Y4245590D1*
X2825473Y4252257D1*
X2829060Y4258663D1*
X2833140Y4264770D1*
X2837687Y4270537D1*
X2842670Y4275930D1*
X2848063Y4280913D1*
X2853830Y4285460D1*
X2859937Y4289540D1*
X2866343Y4293127D1*
X2873010Y4296200D1*
X2879900Y4298743D1*
X2886967Y4300737D1*
X2894170Y4302170D1*
X2901463Y4303033D1*
X2908800Y4303320D1*
X2918103Y4302800D1*
X2918080Y4567520D1*
X3093520D1*
Y4292080D1*
X2953283D1*
X2963770Y4285460D1*
X2969537Y4280913D1*
X2974930Y4275930D1*
X2981103Y4269027D1*
X3639447Y4268837D1*
X3648623Y4267383D1*
X3657463Y4264513D1*
X3665743Y4260293D1*
X3673260Y4254830D1*
X3689403Y4238947D1*
X4731823Y3196527D1*
X4731800Y5131827D1*
X1049780Y5131800D1*
X1049800Y1752547D1*
X1180080Y1752520D1*
X1456080Y1262520D2*
X1475310D1*
X1435267Y1302583D1*
X1395153Y1302763D1*
X1386670Y1304077D1*
X1362510Y1304080D1*
X1362520Y1269080D1*
X1177987D1*
X1178020Y1188693D1*
X1189067Y1177627D1*
X1189080Y1247520D1*
X1447083D1*
X1447080Y1262520D1*
X1456080D1*
X1601030D2*
X1789593D1*
X1789580Y1269047D1*
X1607080Y1269080D1*
Y1354060D1*
X1592080Y1354080D1*
Y1404107D1*
X1579270Y1404257D1*
X1570327Y1405673D1*
X1561710Y1408473D1*
X1553640Y1412587D1*
X1546313Y1417910D1*
X1530257Y1433713D1*
X1471910Y1492313D1*
X1466587Y1499640D1*
X1462473Y1507710D1*
X1459673Y1516327D1*
X1458257Y1525270D1*
X1458080Y1547800D1*
Y1587210D1*
X1449670Y1594670D1*
X1444687Y1600063D1*
X1439010Y1607523D1*
X1438850Y1431467D1*
X1437490Y1422893D1*
X1444800Y1421020D1*
X1464447Y1420837D1*
X1473623Y1419383D1*
X1482463Y1416513D1*
X1490743Y1412293D1*
X1498260Y1406830D1*
X1514403Y1390947D1*
X1586830Y1318260D1*
X1592293Y1310743D1*
X1596513Y1302463D1*
X1599383Y1293623D1*
X1600837Y1284447D1*
X1601020Y1262537D1*
X4262080Y2767520D2*
X4301560D1*
X4301580Y2924263D1*
X4191273Y3034577D1*
X4137787Y3034580D1*
X4215830Y2956260D1*
X4221293Y2948743D1*
X4225513Y2940463D1*
X4228383Y2931623D1*
X4229837Y2922447D1*
X4230020Y2899800D1*
Y2767507D1*
X4262080Y2767520D1*
X4420037D2*
X4468520D1*
Y2552540D1*
X4525520Y2552517D1*
Y2267077D1*
X4240080D1*
Y2321673D1*
X4231570Y2311817D1*
X4225190Y2305470D1*
X4218420Y2299540D1*
X4211293Y2294050D1*
X4203833Y2289020D1*
X4196070Y2284467D1*
X4188037Y2280413D1*
X4179763Y2276877D1*
X4171280Y2273863D1*
X4162630Y2271393D1*
X4153837Y2269477D1*
X4144943Y2268113D1*
X4135980Y2267313D1*
X4126983Y2267083D1*
X4117993Y2267417D1*
X4109040Y2268320D1*
X4100160Y2269783D1*
X4091390Y2271803D1*
X4082767Y2274370D1*
X4074323Y2277477D1*
X4066090Y2281110D1*
X4053493Y2288030D1*
X4053520Y1924420D1*
X4062970Y1929907D1*
X4071047Y1933867D1*
X4079360Y1937310D1*
X4087877Y1940223D1*
X4096557Y1942593D1*
X4105370Y1944413D1*
X4114280Y1945673D1*
X4123250Y1946370D1*
X4132247Y1946500D1*
X4141237Y1946060D1*
X4150177Y1945057D1*
X4159040Y1943493D1*
X4167783Y1941373D1*
X4176380Y1938707D1*
X4184787Y1935503D1*
X4192977Y1931773D1*
X4200917Y1927540D1*
X4208573Y1922810D1*
X4215917Y1917610D1*
X4222917Y1911957D1*
X4229550Y1905873D1*
X4235783Y1899387D1*
X4242080Y1891867D1*
Y1946517D1*
X4527520D1*
Y1661077D1*
X4242080D1*
Y1715673D1*
X4233570Y1705817D1*
X4227190Y1699470D1*
X4220420Y1693540D1*
X4213293Y1688050D1*
X4207027Y1683823D1*
X4210127Y1678257D1*
X4213200Y1671590D1*
X4215743Y1664700D1*
X4217737Y1657633D1*
X4219170Y1650430D1*
X4220033Y1643137D1*
X4220320Y1635800D1*
X4220033Y1628463D1*
X4219170Y1621170D1*
X4217737Y1613967D1*
X4215743Y1606900D1*
X4213200Y1600010D1*
X4210127Y1593343D1*
X4206540Y1586937D1*
X4202460Y1580830D1*
X4197913Y1575063D1*
X4192930Y1569670D1*
X4187537Y1564687D1*
X4178407Y1557893D1*
X4191273Y1551753D1*
X4199003Y1547147D1*
X4206390Y1542010D1*
X4213393Y1536363D1*
X4219987Y1530237D1*
X4226130Y1523663D1*
X4231797Y1516673D1*
X4236953Y1509300D1*
X4241583Y1501583D1*
X4245653Y1493560D1*
X4248810Y1486077D1*
X4251787Y1494033D1*
X4255467Y1502247D1*
X4259657Y1510210D1*
X4264340Y1517893D1*
X4269500Y1525267D1*
X4275113Y1532297D1*
X4281157Y1538963D1*
X4287610Y1545237D1*
X4294447Y1551087D1*
X4301637Y1556497D1*
X4309153Y1561443D1*
X4316970Y1565907D1*
X4325047Y1569867D1*
X4333360Y1573310D1*
X4341877Y1576223D1*
X4350557Y1578593D1*
X4359370Y1580413D1*
X4368280Y1581673D1*
X4377250Y1582370D1*
X4386247Y1582500D1*
X4395237Y1582060D1*
X4404177Y1581057D1*
X4413040Y1579493D1*
X4421783Y1577373D1*
X4430380Y1574707D1*
X4438787Y1571503D1*
X4446977Y1567773D1*
X4454917Y1563540D1*
X4462573Y1558810D1*
X4469917Y1553610D1*
X4476917Y1547957D1*
X4483550Y1541873D1*
X4489783Y1535387D1*
X4495597Y1528517D1*
X4500963Y1521293D1*
X4505867Y1513750D1*
X4510287Y1505910D1*
X4513360Y1499547D1*
X4722520Y1499520D1*
Y1094080D1*
X4527510D1*
X4527520Y1049770D1*
X4731763Y1049800D1*
X4731800Y2826280D1*
X4720700Y2821857D1*
X4713633Y2819863D1*
X4706430Y2818430D1*
X4699137Y2817567D1*
X4691800Y2817280D1*
X4684463Y2817567D1*
X4677170Y2818430D1*
X4669967Y2819863D1*
X4662900Y2821857D1*
X4656010Y2824400D1*
X4649343Y2827473D1*
X4642937Y2831060D1*
X4636950Y2835060D1*
X4632540Y2826937D1*
X4628460Y2820830D1*
X4623913Y2815063D1*
X4618930Y2809670D1*
X4613537Y2804687D1*
X4607770Y2800140D1*
X4601663Y2796060D1*
X4595257Y2792473D1*
X4588590Y2789400D1*
X4581700Y2786857D1*
X4574633Y2784863D1*
X4567430Y2783430D1*
X4560137Y2782567D1*
X4552800Y2782280D1*
X4545463Y2782567D1*
X4538170Y2783430D1*
X4530967Y2784863D1*
X4523900Y2786857D1*
X4517010Y2789400D1*
X4510343Y2792473D1*
X4503937Y2796060D1*
X4497830Y2800140D1*
X4492063Y2804687D1*
X4486670Y2809670D1*
X4481687Y2815063D1*
X4477140Y2820830D1*
X4473060Y2826937D1*
X4469473Y2833343D1*
X4466400Y2840010D1*
X4463857Y2846900D1*
X4461863Y2853967D1*
X4460430Y2861170D1*
X4459567Y2868463D1*
X4459280Y2875800D1*
X4459567Y2883137D1*
X4460430Y2890430D1*
X4461863Y2897633D1*
X4463857Y2904700D1*
X4466400Y2911590D1*
X4469473Y2918257D1*
X4473060Y2924663D1*
X4477140Y2930770D1*
X4481687Y2936537D1*
X4485560Y2940727D1*
X4485580Y3001257D1*
X4266887Y3219963D1*
X4258700Y3216857D1*
X4251633Y3214863D1*
X4244430Y3213430D1*
X4237137Y3212567D1*
X4229800Y3212280D1*
X4222463Y3212567D1*
X4215170Y3213430D1*
X4207967Y3214863D1*
X4200900Y3216857D1*
X4194010Y3219400D1*
X4187343Y3222473D1*
X4178003Y3228020D1*
X4174460Y3222830D1*
X4169913Y3217063D1*
X4164930Y3211670D1*
X4159537Y3206687D1*
X4153770Y3202140D1*
X4147663Y3198060D1*
X4141257Y3194473D1*
X4134590Y3191400D1*
X4127700Y3188857D1*
X4120633Y3186863D1*
X4113430Y3185430D1*
X4106137Y3184567D1*
X4098800Y3184280D1*
X4091463Y3184567D1*
X4084170Y3185430D1*
X4076967Y3186863D1*
X4069900Y3188857D1*
X4063010Y3191400D1*
X4056343Y3194473D1*
X4046143Y3200593D1*
X3921153Y3200763D1*
X3911977Y3202217D1*
X3903137Y3205087D1*
X3894857Y3209307D1*
X3887340Y3214770D1*
X3871197Y3230653D1*
X3811460Y3290390D1*
X3808743Y3279900D1*
X3806200Y3273010D1*
X3803127Y3266343D1*
X3799540Y3259937D1*
X3795460Y3253830D1*
X3790913Y3248063D1*
X3786027Y3242777D1*
X3786020Y3213313D1*
X3846310Y3153040D1*
X4215800Y3153020D1*
X4225063Y3152290D1*
X4234100Y3150123D1*
X4242687Y3146567D1*
X4250610Y3141710D1*
X4257677Y3135677D1*
X4405830Y2987260D1*
X4411293Y2979743D1*
X4415513Y2971463D1*
X4418383Y2962623D1*
X4419837Y2953447D1*
X4420020Y2930800D1*
Y2767500D1*
X4088147Y2767520D2*
X4111560D1*
X4111580Y2893257D1*
X4060290Y2944560D1*
X3818800Y2944580D1*
X3809537Y2945310D1*
X3800500Y2947480D1*
X3791913Y2951033D1*
X3783990Y2955890D1*
X3776927Y2961927D1*
X3575770Y3163340D1*
X3570307Y3170857D1*
X3568027Y3174930D1*
X3568020Y2861360D1*
X3876853Y2552497D1*
X3885237Y2552083D1*
X3894177Y2551080D1*
X3903040Y2549517D1*
X3911783Y2547397D1*
X3920380Y2544730D1*
X3928787Y2541527D1*
X3936977Y2537797D1*
X3944917Y2533563D1*
X3950090Y2530367D1*
X3949937Y2660060D1*
X3943830Y2664140D1*
X3938063Y2668687D1*
X3932670Y2673670D1*
X3927687Y2679063D1*
X3923140Y2684830D1*
X3919060Y2690937D1*
X3915473Y2697343D1*
X3912400Y2704010D1*
X3909857Y2710900D1*
X3907863Y2717967D1*
X3906430Y2725170D1*
X3905567Y2732463D1*
X3905280Y2739800D1*
X3905567Y2747137D1*
X3906430Y2754430D1*
X3907863Y2761633D1*
X3909857Y2768700D1*
X3912400Y2775590D1*
X3915473Y2782257D1*
X3919060Y2788663D1*
X3923140Y2794770D1*
X3927687Y2800537D1*
X3932670Y2805930D1*
X3938063Y2810913D1*
X3943830Y2815460D1*
X3949937Y2819540D1*
X3956343Y2823127D1*
X3963010Y2826200D1*
X3969900Y2828743D1*
X3976967Y2830737D1*
X3984170Y2832170D1*
X3991463Y2833033D1*
X3998800Y2833320D1*
X4006137Y2833033D1*
X4013430Y2832170D1*
X4020633Y2830737D1*
X4027700Y2828743D1*
X4034590Y2826200D1*
X4041257Y2823127D1*
X4047663Y2819540D1*
X4053770Y2815460D1*
X4059537Y2810913D1*
X4064930Y2805930D1*
X4069913Y2800537D1*
X4074460Y2794770D1*
X4078540Y2788663D1*
X4082127Y2782257D1*
X4085200Y2775590D1*
X4088077Y2767513D1*
X4240093Y2532080D2*
X4207047D1*
X4213917Y2523610D1*
X4220917Y2517957D1*
X4227550Y2511873D1*
X4233783Y2505387D1*
X4240080Y2497867D1*
Y2532050D1*
X4063080Y2537037D2*
Y2671897D1*
X4053770Y2664140D1*
X4053507Y2663967D1*
X4053520Y2531640D1*
X4063083Y2536943D1*
X1543553Y3539520D2*
X1711913D1*
X1705140Y3547830D1*
X1701060Y3553937D1*
X1697473Y3560343D1*
X1694400Y3567010D1*
X1691857Y3573900D1*
X1689863Y3580967D1*
X1688430Y3588170D1*
X1687567Y3595463D1*
X1687280Y3602800D1*
X1687567Y3610137D1*
X1688430Y3617430D1*
X1689860Y3624603D1*
X1473640Y3624580D1*
X1438613Y3589520D1*
X1543520D1*
Y3539493D1*
X1618087Y3324080D2*
X1543907D1*
X1545737Y3317633D1*
X1547170Y3310430D1*
X1548033Y3303137D1*
X1548320Y3295800D1*
X1548033Y3288463D1*
X1546347Y3277033D1*
X1572073Y3251277D1*
X1572080Y3261520D1*
X1730593D1*
X1730580Y3309063D1*
X1713080Y3309080D1*
Y3324090D1*
X1618080Y3324113D1*
X1508080Y3372630D2*
Y3394077D1*
X1398500Y3394080D1*
X1398520Y3370790D1*
X1405937Y3375540D1*
X1412343Y3379127D1*
X1419010Y3382200D1*
X1425900Y3384743D1*
X1432967Y3386737D1*
X1440170Y3388170D1*
X1447463Y3389033D1*
X1454800Y3389320D1*
X1462137Y3389033D1*
X1469430Y3388170D1*
X1476633Y3386737D1*
X1483700Y3384743D1*
X1490590Y3382200D1*
X1497257Y3379127D1*
X1503663Y3375540D1*
X1508077Y3372590D1*
X2418490Y3537520D2*
X2513520D1*
Y3395103D1*
X2522900Y3398743D1*
X2529967Y3400737D1*
X2537170Y3402170D1*
X2544463Y3403033D1*
X2551800Y3403320D1*
X2559137Y3403033D1*
X2566430Y3402170D1*
X2573633Y3400737D1*
X2582393Y3398117D1*
X2586340Y3401830D1*
X2593857Y3407293D1*
X2602137Y3411513D1*
X2610977Y3414383D1*
X2620153Y3415837D1*
X2642800Y3416020D1*
X2808070D1*
X2808080Y3557520D1*
X3023520D1*
Y3416017D1*
X3290447Y3415837D1*
X3299623Y3414383D1*
X3308463Y3411513D1*
X3316743Y3407293D1*
X3324260Y3401830D1*
X3340403Y3385947D1*
X3385573Y3340777D1*
X3385580Y3705287D1*
X3266273Y3824577D1*
X3058313Y3824580D1*
X2989040Y3755290D1*
X2991170Y3745430D1*
X2992033Y3738137D1*
X2992320Y3730800D1*
X2992033Y3723463D1*
X2991170Y3716170D1*
X2989737Y3708967D1*
X2987743Y3701900D1*
X2985200Y3695010D1*
X2982127Y3688343D1*
X2978540Y3681937D1*
X2974460Y3675830D1*
X2969913Y3670063D1*
X2964930Y3664670D1*
X2959537Y3659687D1*
X2953770Y3655140D1*
X2947663Y3651060D1*
X2941257Y3647473D1*
X2934590Y3644400D1*
X2927700Y3641857D1*
X2920633Y3639863D1*
X2913430Y3638430D1*
X2906137Y3637567D1*
X2898800Y3637280D1*
X2891463Y3637567D1*
X2884170Y3638430D1*
X2876967Y3639863D1*
X2869900Y3641857D1*
X2863010Y3644400D1*
X2856343Y3647473D1*
X2849937Y3651060D1*
X2843830Y3655140D1*
X2838063Y3659687D1*
X2832670Y3664670D1*
X2827687Y3670063D1*
X2823140Y3675830D1*
X2819060Y3681937D1*
X2815473Y3688343D1*
X2812400Y3695010D1*
X2809857Y3701900D1*
X2807863Y3708967D1*
X2806430Y3716170D1*
X2805567Y3723463D1*
X2805280Y3730800D1*
X2805567Y3738137D1*
X2806430Y3745430D1*
X2807863Y3752633D1*
X2809857Y3759700D1*
X2812400Y3766590D1*
X2815473Y3773257D1*
X2819060Y3779663D1*
X2823140Y3785770D1*
X2827687Y3791537D1*
X2832670Y3796930D1*
X2838063Y3801913D1*
X2843830Y3806460D1*
X2849937Y3810540D1*
X2856343Y3814127D1*
X2863010Y3817200D1*
X2869900Y3819743D1*
X2876967Y3821737D1*
X2884170Y3823170D1*
X2890123Y3823873D1*
X2944453Y3878203D1*
X2935700Y3874857D1*
X2928633Y3872863D1*
X2921430Y3871430D1*
X2914137Y3870567D1*
X2906800Y3870280D1*
X2899463Y3870567D1*
X2892170Y3871430D1*
X2884967Y3872863D1*
X2877900Y3874857D1*
X2871010Y3877400D1*
X2864343Y3880473D1*
X2857937Y3884060D1*
X2851830Y3888140D1*
X2846063Y3892687D1*
X2840670Y3897670D1*
X2835030Y3903897D1*
X2834837Y3868153D1*
X2833383Y3858977D1*
X2830513Y3850137D1*
X2826293Y3841857D1*
X2820830Y3834340D1*
X2804947Y3818197D1*
X2544260Y3557770D1*
X2536743Y3552307D1*
X2528463Y3548087D1*
X2519623Y3545217D1*
X2510447Y3543763D1*
X2487800Y3543580D1*
X2418507D1*
X1813280Y4476703D2*
X1812563Y4470643D1*
X1811373Y4464657D1*
X1809717Y4458783D1*
X1807603Y4453057D1*
X1805050Y4447517D1*
X1802067Y4442190D1*
X1798677Y4437117D1*
X1794900Y4432323D1*
X1790757Y4427843D1*
X1786277Y4423700D1*
X1781483Y4419923D1*
X1776410Y4416533D1*
X1771083Y4413550D1*
X1765543Y4410997D1*
X1759817Y4408883D1*
X1753943Y4407227D1*
X1747957Y4406037D1*
X1741897Y4405320D1*
X1735800Y4405080D1*
X1729703Y4405320D1*
X1723643Y4406037D1*
X1717657Y4407227D1*
X1711783Y4408883D1*
X1706057Y4410997D1*
X1700517Y4413550D1*
X1695190Y4416533D1*
X1690117Y4419923D1*
X1685323Y4423700D1*
X1680843Y4427843D1*
X1676700Y4432323D1*
X1672923Y4437117D1*
X1669533Y4442190D1*
X1666550Y4447517D1*
X1663997Y4453057D1*
X1661883Y4458783D1*
X1660227Y4464657D1*
X1659037Y4470643D1*
X1658320Y4476703D1*
X1658080Y4482800D1*
X1658320Y4488897D1*
X1659037Y4494957D1*
X1660227Y4500943D1*
X1661883Y4506817D1*
X1663997Y4512543D1*
X1666550Y4518083D1*
X1669533Y4523410D1*
X1672923Y4528483D1*
X1676700Y4533277D1*
X1680843Y4537757D1*
X1685323Y4541900D1*
X1690117Y4545677D1*
X1695190Y4549067D1*
X1700517Y4552050D1*
X1706057Y4554603D1*
X1711783Y4556717D1*
X1717657Y4558373D1*
X1723643Y4559563D1*
X1729703Y4560280D1*
X1735800Y4560520D1*
X1741897Y4560280D1*
X1747957Y4559563D1*
X1753943Y4558373D1*
X1759817Y4556717D1*
X1765543Y4554603D1*
X1771083Y4552050D1*
X1776410Y4549067D1*
X1781483Y4545677D1*
X1786277Y4541900D1*
X1790757Y4537757D1*
X1794900Y4533277D1*
X1798677Y4528483D1*
X1802067Y4523410D1*
X1805050Y4518083D1*
X1807603Y4512543D1*
X1809717Y4506817D1*
X1811373Y4500943D1*
X1812563Y4494957D1*
X1813280Y4488897D1*
X1813520Y4482800D1*
X1813280Y4476703D1*
X2613280Y4473703D2*
X2612563Y4467643D1*
X2611373Y4461657D1*
X2609717Y4455783D1*
X2607603Y4450057D1*
X2605050Y4444517D1*
X2602067Y4439190D1*
X2598677Y4434117D1*
X2594900Y4429323D1*
X2590757Y4424843D1*
X2586277Y4420700D1*
X2581483Y4416923D1*
X2576410Y4413533D1*
X2571083Y4410550D1*
X2565543Y4407997D1*
X2559817Y4405883D1*
X2553943Y4404227D1*
X2547957Y4403037D1*
X2541897Y4402320D1*
X2535800Y4402080D1*
X2529703Y4402320D1*
X2523643Y4403037D1*
X2517657Y4404227D1*
X2511783Y4405883D1*
X2506057Y4407997D1*
X2500517Y4410550D1*
X2495190Y4413533D1*
X2490117Y4416923D1*
X2485323Y4420700D1*
X2480843Y4424843D1*
X2476700Y4429323D1*
X2472923Y4434117D1*
X2469533Y4439190D1*
X2466550Y4444517D1*
X2463997Y4450057D1*
X2461883Y4455783D1*
X2460227Y4461657D1*
X2459037Y4467643D1*
X2458320Y4473703D1*
X2458080Y4479800D1*
X2458320Y4485897D1*
X2459037Y4491957D1*
X2460227Y4497943D1*
X2461883Y4503817D1*
X2463997Y4509543D1*
X2466550Y4515083D1*
X2469533Y4520410D1*
X2472923Y4525483D1*
X2476700Y4530277D1*
X2480843Y4534757D1*
X2485323Y4538900D1*
X2490117Y4542677D1*
X2495190Y4546067D1*
X2500517Y4549050D1*
X2506057Y4551603D1*
X2511783Y4553717D1*
X2517657Y4555373D1*
X2523643Y4556563D1*
X2529703Y4557280D1*
X2535800Y4557520D1*
X2541897Y4557280D1*
X2547957Y4556563D1*
X2553943Y4555373D1*
X2559817Y4553717D1*
X2565543Y4551603D1*
X2571083Y4549050D1*
X2576410Y4546067D1*
X2581483Y4542677D1*
X2586277Y4538900D1*
X2590757Y4534757D1*
X2594900Y4530277D1*
X2598677Y4525483D1*
X2602067Y4520410D1*
X2605050Y4515083D1*
X2607603Y4509543D1*
X2609717Y4503817D1*
X2611373Y4497943D1*
X2612563Y4491957D1*
X2613280Y4485897D1*
X2613520Y4479800D1*
X2613280Y4473703D1*
X4242067Y1097793D2*
X4233570Y1087817D1*
X4227190Y1081470D1*
X4220420Y1075540D1*
X4213293Y1070050D1*
X4205833Y1065020D1*
X4198070Y1060467D1*
X4190037Y1056413D1*
X4181763Y1052877D1*
X4173047Y1049797D1*
X4242110Y1049800D1*
X4242080Y1097680D1*
X4053187Y1306150D2*
X4062970Y1311907D1*
X4071047Y1315867D1*
X4083587Y1320757D1*
X4071647Y1326087D1*
X4063783Y1330463D1*
X4053533Y1337443D1*
X4053360Y1307727D1*
X4176143Y1320777D2*
X4184787Y1317503D1*
X4192977Y1313773D1*
X4200917Y1309540D1*
X4208573Y1304810D1*
X4215917Y1299610D1*
X4222917Y1293957D1*
X4229550Y1287873D1*
X4235783Y1281387D1*
X4242080Y1273867D1*
Y1328523D1*
X4294427D1*
X4285223Y1336593D1*
X4278917Y1343010D1*
X4273027Y1349810D1*
X4267573Y1356970D1*
X4262587Y1364460D1*
X4258080Y1372250D1*
X4254073Y1380307D1*
X4248857Y1393543D1*
X4246273Y1387393D1*
X4242293Y1379323D1*
X4237757Y1371553D1*
X4232683Y1364123D1*
X4227100Y1357067D1*
X4221033Y1350420D1*
X4214513Y1344217D1*
X4207573Y1338490D1*
X4200250Y1333267D1*
X4192573Y1328570D1*
X4184587Y1324427D1*
X4176160Y1320797D1*
X4053510Y1542167D2*
X4062513Y1548360D1*
X4070323Y1552827D1*
X4077513Y1556290D1*
X4071830Y1560140D1*
X4066063Y1564687D1*
X4060670Y1569670D1*
X4053503Y1577833D1*
X4053520Y1542273D1*
X3748823Y1250827D2*
X3751657Y1256210D1*
X3756340Y1263893D1*
X3761500Y1271267D1*
X3767113Y1278297D1*
X3773157Y1284963D1*
X3779610Y1291237D1*
X3786447Y1297087D1*
X3793637Y1302497D1*
X3801153Y1307443D1*
X3810767Y1312787D1*
X3798393Y1319897D1*
X3790990Y1325013D1*
X3783923Y1330587D1*
X3777223Y1336593D1*
X3770917Y1343010D1*
X3765027Y1349810D1*
X3759573Y1356970D1*
X3754587Y1364460D1*
X3748843Y1374733D1*
X3742143Y1363080D1*
X3737070Y1355647D1*
X3731540Y1348550D1*
X3725570Y1341817D1*
X3719190Y1335470D1*
X3712420Y1329540D1*
X3705293Y1324050D1*
X3697833Y1319020D1*
X3686837Y1312837D1*
X3700573Y1304810D1*
X3707917Y1299610D1*
X3714917Y1293957D1*
X3721550Y1287873D1*
X3727783Y1281387D1*
X3733597Y1274517D1*
X3738963Y1267293D1*
X3743867Y1259750D1*
X3748790Y1250867D1*
X3748823Y1504827D2*
X3751657Y1510210D1*
X3756340Y1517893D1*
X3761500Y1525267D1*
X3767113Y1532297D1*
X3773157Y1538963D1*
X3779610Y1545237D1*
X3786447Y1551087D1*
X3793637Y1556497D1*
X3801153Y1561443D1*
X3813420Y1568087D1*
X3810497Y1571573D1*
X3676787Y1571503D1*
X3684977Y1567773D1*
X3692917Y1563540D1*
X3700573Y1558810D1*
X3707917Y1553610D1*
X3714917Y1547957D1*
X3721550Y1541873D1*
X3727783Y1535387D1*
X3733597Y1528517D1*
X3738963Y1521293D1*
X3743867Y1513750D1*
X3748790Y1504867D1*
X3519040Y1284833D2*
X3525610Y1291237D1*
X3532447Y1297087D1*
X3539637Y1302497D1*
X3547153Y1307443D1*
X3556767Y1312787D1*
X3544393Y1319897D1*
X3536990Y1325013D1*
X3529923Y1330587D1*
X3523223Y1336593D1*
X3519010Y1340880D1*
X3519020Y1284827D1*
X1609033Y1653463D2*
X1608170Y1646170D1*
X1606737Y1638967D1*
X1604743Y1631900D1*
X1602200Y1625010D1*
X1599127Y1618343D1*
X1595540Y1611937D1*
X1591460Y1605830D1*
X1586913Y1600063D1*
X1581930Y1594670D1*
X1573540Y1587323D1*
X1573520Y1553680D1*
X1592090Y1535140D1*
X1592080Y1569520D1*
X1612013D1*
X1608863Y1579967D1*
X1607430Y1587170D1*
X1606567Y1594463D1*
X1606280Y1601800D1*
X1606567Y1609137D1*
X1607430Y1616430D1*
X1608863Y1623633D1*
X1610857Y1630700D1*
X1613400Y1637590D1*
X1616473Y1644257D1*
X1620060Y1650663D1*
X1624140Y1656770D1*
X1628687Y1662537D1*
X1633670Y1667930D1*
X1639063Y1672913D1*
X1644830Y1677460D1*
X1650937Y1681540D1*
X1657343Y1685127D1*
X1664010Y1688200D1*
X1670900Y1690743D1*
X1677967Y1692737D1*
X1685170Y1694170D1*
X1692463Y1695033D1*
X1699800Y1695320D1*
X1707137Y1695033D1*
X1714430Y1694170D1*
X1721633Y1692737D1*
X1728700Y1690743D1*
X1735590Y1688200D1*
X1744583Y1683823D1*
X1744580Y1746587D1*
X1712580Y1746580D1*
Y1844560D1*
X1705343Y1844580D1*
X1681830Y1821080D1*
X1685737Y1808633D1*
X1687170Y1801430D1*
X1688033Y1794137D1*
X1688320Y1786800D1*
X1688033Y1779463D1*
X1687170Y1772170D1*
X1685737Y1764967D1*
X1683743Y1757900D1*
X1681200Y1751010D1*
X1678127Y1744343D1*
X1674540Y1737937D1*
X1670460Y1731830D1*
X1665913Y1726063D1*
X1660930Y1720670D1*
X1655537Y1715687D1*
X1649770Y1711140D1*
X1643663Y1707060D1*
X1637257Y1703473D1*
X1630590Y1700400D1*
X1623700Y1697857D1*
X1616633Y1695863D1*
X1609430Y1694430D1*
X1603363Y1693713D1*
X1606737Y1682633D1*
X1608170Y1675430D1*
X1609033Y1668137D1*
X1609320Y1660800D1*
X1609033Y1653463D1*
X1439010Y1714077D2*
X1444687Y1721537D1*
X1449670Y1726930D1*
X1455063Y1731913D1*
X1460830Y1736460D1*
X1466937Y1740540D1*
X1473343Y1744127D1*
X1480010Y1747200D1*
X1486900Y1749743D1*
X1493967Y1751737D1*
X1501170Y1753170D1*
X1507237Y1753887D1*
X1503863Y1764967D1*
X1502430Y1772170D1*
X1501567Y1779463D1*
X1501280Y1786800D1*
X1501567Y1794137D1*
X1502850Y1803540D1*
X1498307Y1799310D1*
X1494730Y1796833D1*
X1490810Y1794950D1*
X1486643Y1793703D1*
X1482973Y1793167D1*
X1440790Y1793080D1*
X1439020Y1788800D1*
Y1714163D1*
X2599027Y1786103D2*
X2605930Y1779930D1*
X2610913Y1774537D1*
X2615460Y1768770D1*
X2619540Y1762663D1*
X2623127Y1756257D1*
X2627580Y1745847D1*
Y2033020D1*
X2773583D1*
X2773763Y2128447D1*
X2775217Y2137623D1*
X2778087Y2146463D1*
X2782307Y2154743D1*
X2787770Y2162260D1*
X2803653Y2178403D1*
X2858817Y2233567D1*
X2645337Y2233580D1*
X2599010Y2187260D1*
X2599020Y1786163D1*
X1817507Y1494860D2*
X1826967Y1497737D1*
X1834170Y1499170D1*
X1841463Y1500033D1*
X1848800Y1500320D1*
X1856137Y1500033D1*
X1863343Y1499180D1*
X1817537Y1544970D1*
X1817520Y1494947D1*
X3682370Y3394443D2*
X3690900Y3397743D1*
X3697967Y3399737D1*
X3705170Y3401170D1*
X3712463Y3402033D1*
X3719800Y3402320D1*
X3727137Y3402033D1*
X3734430Y3401170D1*
X3741633Y3399737D1*
X3748700Y3397743D1*
X3755590Y3395200D1*
X3762257Y3392127D1*
X3768663Y3388540D1*
X3774770Y3384460D1*
X3779567Y3380677D1*
X3779580Y3570287D1*
X3567997Y3781853D1*
X3568020Y3538467D1*
X3576010Y3542200D1*
X3582900Y3544743D1*
X3589967Y3546737D1*
X3597170Y3548170D1*
X3604463Y3549033D1*
X3611800Y3549320D1*
X3619137Y3549033D1*
X3626430Y3548170D1*
X3633633Y3546737D1*
X3640700Y3544743D1*
X3647590Y3542200D1*
X3654257Y3539127D1*
X3660663Y3535540D1*
X3666770Y3531460D1*
X3672537Y3526913D1*
X3677930Y3521930D1*
X3682913Y3516537D1*
X3687460Y3510770D1*
X3691540Y3504663D1*
X3695127Y3498257D1*
X3698200Y3491590D1*
X3700743Y3484700D1*
X3702737Y3477633D1*
X3704170Y3470430D1*
X3705033Y3463137D1*
X3705320Y3455800D1*
X3705033Y3448463D1*
X3704170Y3441170D1*
X3702737Y3433967D1*
X3700743Y3426900D1*
X3698200Y3420010D1*
X3695127Y3413343D1*
X3691540Y3406937D1*
X3687460Y3400830D1*
X3682427Y3394537D1*
X4607670Y2951513D2*
X4612060Y2959663D1*
X4616140Y2965770D1*
X4620687Y2971537D1*
X4625670Y2976930D1*
X4632573Y2983103D1*
X4632580Y3128240D1*
X3610287Y4150563D1*
X3499763Y4150580D1*
X4002830Y3647260D1*
X4008293Y3639743D1*
X4012513Y3631463D1*
X4015383Y3622623D1*
X4016837Y3613447D1*
X4017020Y3590800D1*
Y3455203D1*
X4023930Y3448930D1*
X4028913Y3443537D1*
X4033460Y3437770D1*
X4037540Y3431663D1*
X4041127Y3425257D1*
X4044200Y3418590D1*
X4046743Y3411700D1*
X4048737Y3404633D1*
X4050170Y3397430D1*
X4051033Y3390137D1*
X4051320Y3382800D1*
X4051033Y3375463D1*
X4050170Y3368170D1*
X4048737Y3360967D1*
X4047297Y3355860D1*
X4056343Y3361127D1*
X4063010Y3364200D1*
X4069900Y3366743D1*
X4076967Y3368737D1*
X4084170Y3370170D1*
X4091463Y3371033D1*
X4098800Y3371320D1*
X4106137Y3371033D1*
X4113430Y3370170D1*
X4120633Y3368737D1*
X4127700Y3366743D1*
X4134590Y3364200D1*
X4141257Y3361127D1*
X4150597Y3355580D1*
X4154140Y3360770D1*
X4158687Y3366537D1*
X4163670Y3371930D1*
X4169063Y3376913D1*
X4174830Y3381460D1*
X4180937Y3385540D1*
X4187343Y3389127D1*
X4194010Y3392200D1*
X4200900Y3394743D1*
X4207967Y3396737D1*
X4215170Y3398170D1*
X4222463Y3399033D1*
X4229800Y3399320D1*
X4237137Y3399033D1*
X4244430Y3398170D1*
X4251633Y3396737D1*
X4258700Y3394743D1*
X4265590Y3392200D1*
X4272257Y3389127D1*
X4278663Y3385540D1*
X4284770Y3381460D1*
X4290537Y3376913D1*
X4295930Y3371930D1*
X4300913Y3366537D1*
X4305460Y3360770D1*
X4309540Y3354663D1*
X4313127Y3348257D1*
X4316200Y3341590D1*
X4318217Y3336127D1*
X4589830Y3064260D1*
X4595293Y3056743D1*
X4599513Y3048463D1*
X4602383Y3039623D1*
X4603837Y3030447D1*
X4604020Y3007800D1*
Y2954047D1*
X3384033Y1883463D2*
X3383170Y1876170D1*
X3381737Y1868967D1*
X3379743Y1861900D1*
X3377200Y1855010D1*
X3374127Y1848343D1*
X3370540Y1841937D1*
X3366460Y1835830D1*
X3361913Y1830063D1*
X3356930Y1824670D1*
X3351537Y1819687D1*
X3345770Y1815140D1*
X3339663Y1811060D1*
X3333257Y1807473D1*
X3326590Y1804400D1*
X3319700Y1801857D1*
X3312323Y1799803D1*
X3392207Y1799690D1*
X3394887Y1798820D1*
X3397163Y1797163D1*
X3398820Y1794887D1*
X3399690Y1792207D1*
X3399800Y1763800D1*
Y1166037D1*
X3400580Y1169800D1*
X3400763Y1500447D1*
X3402217Y1509623D1*
X3405087Y1518463D1*
X3409307Y1526743D1*
X3414770Y1534260D1*
X3430653Y1550403D1*
X3556353Y1675843D1*
X3552103Y1679280D1*
X3544393Y1683920D1*
X3536990Y1689037D1*
X3529923Y1694610D1*
X3523223Y1700617D1*
X3516917Y1707033D1*
X3511027Y1713833D1*
X3505573Y1720993D1*
X3500587Y1728483D1*
X3496080Y1736273D1*
X3492073Y1744330D1*
X3488580Y1752623D1*
X3485620Y1761120D1*
X3483197Y1769787D1*
X3481330Y1778590D1*
X3480017Y1787490D1*
X3479270Y1796460D1*
X3479090Y1805457D1*
X3479477Y1814447D1*
X3480427Y1823393D1*
X3481943Y1832263D1*
X3484013Y1841020D1*
X3486630Y1849630D1*
X3489787Y1858057D1*
X3493467Y1866270D1*
X3497657Y1874233D1*
X3502340Y1881917D1*
X3507500Y1889290D1*
X3513113Y1896320D1*
X3519157Y1902987D1*
X3525610Y1909260D1*
X3532447Y1915110D1*
X3539637Y1920520D1*
X3547153Y1925467D1*
X3554970Y1929930D1*
X3560553Y1932667D1*
X3560580Y2279977D1*
X3550103Y2285280D1*
X3542393Y2289920D1*
X3534990Y2295037D1*
X3527923Y2300610D1*
X3521223Y2306617D1*
X3514917Y2313033D1*
X3509027Y2319833D1*
X3503573Y2326993D1*
X3498587Y2334483D1*
X3494080Y2342273D1*
X3490073Y2350330D1*
X3486580Y2358623D1*
X3483620Y2367120D1*
X3481197Y2375787D1*
X3479330Y2384590D1*
X3478017Y2393490D1*
X3477270Y2402460D1*
X3477090Y2411457D1*
X3477477Y2420447D1*
X3478427Y2429393D1*
X3481213Y2443633D1*
X3433027Y2491823D1*
X3432837Y1969153D1*
X3431383Y1959977D1*
X3428513Y1951137D1*
X3424293Y1942857D1*
X3418830Y1935340D1*
X3402947Y1919197D1*
X3383880Y1900130D1*
X3384320Y1890800D1*
X3384033Y1883463D1*
X3269277Y1799803D2*
X3261900Y1801857D1*
X3255010Y1804400D1*
X3248343Y1807473D1*
X3241937Y1811060D1*
X3235830Y1815140D1*
X3230063Y1819687D1*
X3224670Y1824670D1*
X3219687Y1830063D1*
X3215140Y1835830D1*
X3211060Y1841937D1*
X3207473Y1848343D1*
X3204400Y1855010D1*
X3201857Y1861900D1*
X3199803Y1869277D1*
X3199800Y1799797D1*
X3269233Y1799800D1*
X2643480Y3291710D2*
X2640743Y3280900D1*
X2638200Y3274010D1*
X2635127Y3267343D1*
X2631540Y3260937D1*
X2627460Y3254830D1*
X2622913Y3249063D1*
X2617930Y3243670D1*
X2612537Y3238687D1*
X2606770Y3234140D1*
X2597237Y3228140D1*
X2854347Y2971003D1*
X3193453Y2971020D1*
X3199670Y2977930D1*
X3205063Y2982913D1*
X3210830Y2987460D1*
X3216937Y2991540D1*
X3223343Y2995127D1*
X3230010Y2998200D1*
X3236900Y3000743D1*
X3243967Y3002737D1*
X3251170Y3004170D1*
X3258463Y3005033D1*
X3265800Y3005320D1*
X3273137Y3005033D1*
X3280430Y3004170D1*
X3287633Y3002737D1*
X3294700Y3000743D1*
X3301590Y2998200D1*
X3308257Y2995127D1*
X3314590Y2991580D1*
X3314580Y3244240D1*
X3301970Y3256880D1*
X3301170Y3250170D1*
X3299737Y3242967D1*
X3297743Y3235900D1*
X3295200Y3229010D1*
X3292127Y3222343D1*
X3288540Y3215937D1*
X3284460Y3209830D1*
X3279913Y3204063D1*
X3274930Y3198670D1*
X3269537Y3193687D1*
X3263770Y3189140D1*
X3257663Y3185060D1*
X3251257Y3181473D1*
X3244590Y3178400D1*
X3237700Y3175857D1*
X3230633Y3173863D1*
X3223430Y3172430D1*
X3216137Y3171567D1*
X3208800Y3171280D1*
X3201463Y3171567D1*
X3194170Y3172430D1*
X3186967Y3173863D1*
X3179900Y3175857D1*
X3173010Y3178400D1*
X3166343Y3181473D1*
X3159937Y3185060D1*
X3153830Y3189140D1*
X3148063Y3193687D1*
X3142670Y3198670D1*
X3137687Y3204063D1*
X3133140Y3209830D1*
X3129060Y3215937D1*
X3125473Y3222343D1*
X3122400Y3229010D1*
X3119857Y3235900D1*
X3117863Y3242967D1*
X3116430Y3250170D1*
X3115567Y3257463D1*
X3115280Y3264800D1*
X3115567Y3272137D1*
X3116430Y3279430D1*
X3117863Y3286633D1*
X3121297Y3297600D1*
X2649297Y3297580D1*
X2643580Y3291830D1*
X1085953Y1464050D2*
X1078343Y1467473D1*
X1071937Y1471060D1*
X1065830Y1475140D1*
X1060063Y1479687D1*
X1054670Y1484670D1*
X1049783Y1489957D1*
X1049800Y1049773D1*
X1160717Y1049800D1*
X1080810Y1129937D1*
X1075717Y1136947D1*
X1071783Y1144667D1*
X1069107Y1152910D1*
X1067750Y1161467D1*
X1067580Y1183800D1*
X1067750Y1427133D1*
X1069107Y1435690D1*
X1071783Y1443933D1*
X1075717Y1451653D1*
X1080810Y1458663D1*
X1085917Y1464010D1*
X2353020Y2003110D2*
Y1950797D1*
X2383580Y1981330D1*
Y2003100D1*
X2353023Y2003080D1*
X1712580Y1963037D2*
Y2003113D1*
X1706920Y1998320D1*
X1668597Y1961737D1*
X1676153Y1962837D1*
X1698800Y1963020D1*
X1712547D1*
X2556860Y2312580D2*
X2512580D1*
Y2403600D1*
X2502007Y2403580D1*
X2502020Y2257780D1*
X2556817Y2312567D1*
X3950093Y2289220D2*
X3942070Y2284490D1*
X3933033Y2280010D1*
X3933020Y1934547D1*
X3946917Y1927563D1*
X3950057Y1925623D1*
X3950080Y2289180D1*
X3814567Y2280043D2*
X3804103Y2285280D1*
X3796393Y2289920D1*
X3788990Y2295037D1*
X3781923Y2300610D1*
X3775223Y2306617D1*
X3768917Y2313033D1*
X3763027Y2319833D1*
X3757573Y2326993D1*
X3752587Y2334483D1*
X3746843Y2344757D1*
X3740143Y2333103D1*
X3735070Y2325670D1*
X3729540Y2318573D1*
X3723570Y2311840D1*
X3717190Y2305493D1*
X3710420Y2299563D1*
X3703293Y2294073D1*
X3695833Y2289043D1*
X3688070Y2284490D1*
X3679033Y2280010D1*
X3679020Y1934547D1*
X3692917Y1927563D1*
X3700573Y1922833D1*
X3707917Y1917633D1*
X3714917Y1911980D1*
X3721550Y1905897D1*
X3727783Y1899410D1*
X3733597Y1892540D1*
X3738963Y1885317D1*
X3743867Y1877773D1*
X3748790Y1868890D1*
X3756340Y1881917D1*
X3761500Y1889290D1*
X3767113Y1896320D1*
X3773157Y1902987D1*
X3779610Y1909260D1*
X3786447Y1915110D1*
X3793637Y1920520D1*
X3801153Y1925467D1*
X3808970Y1929930D1*
X3814553Y1932667D1*
X3814580Y2279977D1*
X3746823Y2474850D2*
X3749657Y2480233D1*
X3754340Y2487917D1*
X3762633Y2499217D1*
X3504020Y2757800D1*
Y2588313D1*
X3555260Y2537087D1*
X3569360Y2543333D1*
X3577877Y2546247D1*
X3586557Y2548617D1*
X3595370Y2550437D1*
X3604280Y2551697D1*
X3613250Y2552393D1*
X3622247Y2552523D1*
X3631237Y2552083D1*
X3640177Y2551080D1*
X3649040Y2549517D1*
X3657783Y2547397D1*
X3666380Y2544730D1*
X3674787Y2541527D1*
X3682977Y2537797D1*
X3690917Y2533563D1*
X3698573Y2528833D1*
X3705917Y2523633D1*
X3712917Y2517980D1*
X3719550Y2511897D1*
X3725783Y2505410D1*
X3731597Y2498540D1*
X3736963Y2491317D1*
X3741867Y2483773D1*
X3746790Y2474890D1*
X3789747Y1690017D2*
X3783923Y1694610D1*
X3777223Y1700617D1*
X3770917Y1707033D1*
X3765027Y1713833D1*
X3759573Y1720993D1*
X3754587Y1728483D1*
X3748843Y1738757D1*
X3742143Y1727103D1*
X3737070Y1719670D1*
X3731540Y1712573D1*
X3725570Y1705840D1*
X3719190Y1699493D1*
X3707827Y1690027D1*
X3789670Y1690020D1*
D18*
X2000800Y1655800D3*
X2260800D3*
D20*
X2233800Y3190800D3*
X1953800D3*
D18*
X2840800Y2690800D3*
X2580800D3*
D21*
X1258800Y1674800D3*
X1128800D3*
D22*
X1544800Y1169800D3*
X1714800D3*
D23*
X4360800Y2649800D3*
X4170800D3*
D24*
X4604800Y1391800D3*
Y1201800D3*
D29*
X1570800Y3431800D3*
X1680800D3*
X1790800D3*
X1900800D3*
X2010800D3*
X2120800D3*
X2230800D3*
X2340800D3*
X2450800Y3429800D3*
D30*
X1455800Y3491800D3*
D31*
Y4441800D3*
D32*
X2915800Y3469800D3*
D31*
X3005800Y4429800D3*
D40*
X4129800Y1185800D3*
Y1439800D3*
X3875800Y1185800D3*
Y1439800D3*
X4383800D3*
X3621800Y1185800D3*
Y1439800D3*
D41*
X4384800Y1185803D3*
D21*
X1789800Y3183800D3*
X1659800D3*
D24*
X1294800Y3999800D3*
Y4189800D3*
D21*
X1406800Y1169800D3*
X1276800D3*
D49*
X2262800Y1896800D3*
X2032800D3*
X1802800D3*
D50*
X2032800Y2476800D3*
D49*
X2602800Y2462800D3*
X2832800D3*
X3062800D3*
D50*
X2832800Y1882800D3*
D51*
X1704800Y1511800D3*
Y1461800D3*
Y1411800D3*
Y1361800D3*
Y1311800D3*
X1264800D3*
Y1361800D3*
Y1411800D3*
Y1461800D3*
Y1511800D3*
D40*
X4127800Y2409800D3*
X3873800Y2409823D3*
X3619800D3*
D41*
X4382800Y2409797D3*
D40*
X4129800Y1803800D3*
X3875800Y1803823D3*
X3621800D3*
D41*
X4384800Y1803797D3*
G36*
X2670800Y1900800D2*
Y1520800D1*
X2360800D1*
Y1160800D1*
X2570800D1*
X2590800Y1210800D1*
X2710800D1*
X2730800Y1160800D1*
X3370800D1*
Y1770800D1*
X3170800D1*
Y1970800D1*
X2700800D1*
X2670800Y1900800D1*
G37*
G36*
X2240800Y2280800D2*
X2400800D1*
Y2030800D1*
X1700800D1*
X1480800Y1820800D1*
X1440800D1*
Y2410800D1*
X1230800Y2620800D1*
Y3370800D1*
X1370800Y3520800D1*
Y3250800D1*
X1500800Y3110800D1*
X1840800D1*
Y3070800D1*
X1910800D1*
X2010800Y2970800D1*
X2430800D1*
X2470800Y2930800D1*
Y2520800D1*
X2370800Y2420800D1*
X2240800D1*
Y2280800D1*
G37*
M02*
