G04 DipTrace 3.0.0.1*
G04 ESP-12E_BASE_V2.2-2.gbs*
%MOMM*%
G04 #@! TF.FileFunction,Soldermask,Bot*
G04 #@! TF.Part,Single*
%ADD59C,1.0*%
%ADD70R,1.604X0.504*%
%ADD72R,3.454X2.354*%
%ADD74R,1.154X2.354*%
%ADD80R,2.204X2.204*%
%ADD82C,2.204*%
%ADD96R,1.804X1.404*%
%ADD98R,1.404X2.404*%
%ADD100R,1.404X1.604*%
%ADD102R,0.904X1.804*%
%ADD110R,1.704X1.504*%
%ADD112R,1.504X1.704*%
%ADD114R,1.304X1.204*%
%ADD116R,1.104X0.904*%
%ADD118R,1.804X2.004*%
%ADD122R,2.004X1.454*%
%FSLAX35Y35*%
G04*
G71*
G90*
G75*
G01*
G04 BotMask*
%LPD*%
D122*
X2000800Y1655800D3*
X2260800D3*
D118*
X2233800Y3190800D3*
X1953800D3*
D122*
X2840800Y2690800D3*
X2580800D3*
D116*
X1258800Y1674800D3*
X1128800D3*
D114*
X1544800Y1169800D3*
X1714800D3*
D112*
X4360800Y2649800D3*
X4170800D3*
D110*
X4604800Y1391800D3*
Y1201800D3*
D102*
X1570800Y3431800D3*
X1680800D3*
X1790800D3*
X1900800D3*
X2010800D3*
X2120800D3*
X2230800D3*
X2340800D3*
X2450800Y3429800D3*
D100*
X1455800Y3491800D3*
D98*
Y4441800D3*
D96*
X2915800Y3469800D3*
D98*
X3005800Y4429800D3*
D59*
X1735800Y4482800D3*
X2535800Y4479800D3*
D82*
X4129800Y1185800D3*
Y1439800D3*
X3875800Y1185800D3*
Y1439800D3*
X4383800D3*
X3621800Y1185800D3*
Y1439800D3*
D80*
X4384800Y1185803D3*
D116*
X1789800Y3183800D3*
X1659800D3*
D110*
X1294800Y3999800D3*
Y4189800D3*
D116*
X1406800Y1169800D3*
X1276800D3*
D74*
X2262800Y1896800D3*
X2032800D3*
X1802800D3*
D72*
X2032800Y2476800D3*
D74*
X2602800Y2462800D3*
X2832800D3*
X3062800D3*
D72*
X2832800Y1882800D3*
D70*
X1704800Y1511800D3*
Y1461800D3*
Y1411800D3*
Y1361800D3*
Y1311800D3*
X1264800D3*
Y1361800D3*
Y1411800D3*
Y1461800D3*
Y1511800D3*
D82*
X4127800Y2409800D3*
X3873800Y2409823D3*
X3619800D3*
D80*
X4382800Y2409797D3*
D82*
X4129800Y1803800D3*
X3875800Y1803823D3*
X3621800D3*
D80*
X4384800Y1803797D3*
M02*
