M48
INCH
T01C0.0191
T02C0.0354
T03C0.0394
%
T01
X+005968Y+006539
X+006279Y+007035
X+006692Y+006306
X+007279Y+005539
X+004413Y+006106
X+005027Y+010826
X+005728Y+012976
X+007011Y+014184
X+007436Y+014598
X+008373Y+014169
X+009196Y+014184
X+009094Y+015420
X+009952Y+015877
X+011444Y+015606
X+011413Y+014688
X+011452Y+016574
X+010046Y+013031
X+009527Y+012897
X+010074Y+011917
X+012633Y+012854
X+012857Y+011464
X+014645Y+013027
X+014220Y+013606
X+015582Y+013318
X+016137Y+012905
X+016653Y+013015
X+017924Y+011322
X+018472Y+011460
X+015743Y+010787
X+012956Y+007444
X+011578Y+007247
X+011184Y+006854
X+011578Y+006460
X+011184Y+006066
X+011578Y+005672
X+011184Y+005279
X+011578Y+004885
X+010436Y+004452
X+009999Y+006747
X+009070Y+009247
X+015287Y+006420
X+016247Y+006440
X+005802Y+015487
X+005090Y+017771
T02
X+016259Y+004669
X+015259Y+004669
X+014259Y+004669
X+014259Y+005669
X+015259Y+005669
X+016259Y+005669
X+017259Y+005669
X+017263Y+004669
X+017263Y+007102
X+016259Y+007102
X+015259Y+007102
X+014259Y+007102
X+014251Y+009487
X+015251Y+009487
X+016251Y+009487
X+017255Y+009487
T03
X+006834Y+017649
X+009983Y+017637
T00
M30
